<svg width="212" height="61" viewBox="0 0 212 61" fill="none" xmlns="http://www.w3.org/2000/svg">
<path d="M30.0003 0.938721C25.9533 0.938721 22.0235 1.73211 18.32 3.29924C14.7469 4.81032 11.5391 6.97285 8.78625 9.72497C6.03414 12.4778 3.8716 15.6848 2.36052 19.2587C0.794122 22.9615 0 26.8921 0 30.9384C0 34.9853 0.794122 38.9144 2.36052 42.6177C3.8716 46.1918 6.03414 49.3987 8.78625 52.1516C11.5391 54.9044 14.7469 57.0662 18.32 58.5774C22.0235 60.1437 25.9533 60.9387 30.0003 60.9387C34.0466 60.9387 37.9764 60.1437 41.6792 58.5774C45.2531 57.0662 48.4601 54.9044 51.2129 52.1516C53.9651 49.3987 56.1276 46.1918 57.6387 42.6177C59.2058 38.9144 59.9992 34.9853 59.9992 30.9384C59.9992 26.8921 59.2058 22.9615 57.6387 19.2587C56.1276 15.6848 53.9651 12.4778 51.2129 9.72497C48.4601 6.97285 45.2531 4.81032 41.6792 3.29924C37.9764 1.73211 34.0466 0.938721 30.0003 0.938721ZM30.0003 8.55017C42.3648 8.55017 52.3878 18.5729 52.3878 30.9384C52.3878 43.3036 42.3648 53.3273 30.0003 53.3273C17.6344 53.3273 7.61145 43.3036 7.61145 30.9384C7.61145 18.5729 17.6344 8.55017 30.0003 8.55017Z" fill="#AA86B2"/>
<mask id="mask0_92_250" style="mask-type:luminance" maskUnits="userSpaceOnUse" x="5" y="2" width="48" height="52">
<path d="M52.3886 30.9385C52.3886 32.8353 52.1535 34.6768 51.7094 36.436C51.0878 38.8963 50.6169 47.4984 48.2819 48.299C46.6325 48.864 47.9682 44.3133 47.57 44.8169C43.4691 50.0008 37.1235 53.3274 30.0011 53.3274C17.6352 53.3274 7.61226 43.3037 7.61226 30.9385C6.79995 28.1899 -4.78208 3.6138 29.4137 2.34147C49.6947 3.26078 53.9346 25.8323 52.3886 30.9385Z" fill="white"/>
</mask>
<g mask="url(#mask0_92_250)">
<path d="M15.8385 33.1511C15.8385 33.1511 13.3957 30.5526 10.9348 33.8827C9.89244 30.6488 11.6051 28.7576 11.6051 28.7576C11.6051 28.7576 9.93975 28.8603 9.29557 30.6325C8.33477 26.1657 10.2396 24.2024 10.2396 24.2024C10.2396 24.2024 9.32105 22.8661 7.46932 25.2019C8.28964 21.2881 10.9799 18.8548 10.9799 18.8548C10.9799 18.8548 8.87194 17.8997 6.81641 19.9853C7.92351 15.0894 12.2588 14.0689 12.2588 14.0689C12.2588 14.0689 11.873 12.4662 10.7157 11.6553C12.6111 11.1174 14.2947 12.1657 14.2947 12.1657C14.2947 12.1657 13.7698 9.26071 12.785 8.56041C14.8238 8.40465 16.2315 10.3437 16.2315 10.3437C16.2315 10.3437 15.7679 9.05458 17.0613 6.33893C17.4522 8.76933 18.5498 9.71105 18.5498 9.71105C18.5498 9.71105 18.9837 6.8601 22.0335 5.38468C20.7146 8.78752 22.1732 9.35228 22.1732 9.35228C22.1732 9.35228 21.6812 7.00275 27.307 4.18586C25.4487 7.02677 26.97 7.87403 26.97 7.87403C26.97 7.87403 30.6953 3.43395 35.3959 5.5317C32.8862 6.23629 32.9357 7.52829 32.9357 7.52829C32.9357 7.52829 37.4813 6.25377 40.1155 8.78024C37.6436 9.12169 36.5321 10.5234 36.5321 10.5234C36.5321 10.5234 42.361 9.28968 46.0499 15.374C44.4093 14.7895 43.233 15.4949 43.233 15.4949C43.233 15.4949 48.4512 17.9216 50.2308 23.8072C47.6534 22.0683 46.3258 22.896 46.3258 22.896C46.3258 22.896 51.4187 24.758 51.0774 32.0317C50.1027 29.9078 48.2736 29.8102 48.2736 29.8102C48.2736 29.8102 51.6444 32.3214 50.7476 36.9631C49.6172 34.1332 48.5574 34.1608 48.5574 34.1608C48.5574 34.1608 52.0957 40.3673 48.2343 45.6664C48.2998 40.6155 46.713 40.4052 46.713 40.4052C46.713 40.4052 48.3959 49.8662 43.0255 57.3074C43.2213 54.9833 42.2118 53.6373 42.2118 53.6373C42.2118 53.6373 42.6179 58.1385 38.9087 60.6497C39.7785 58.0273 38.7747 57.5089 38.7747 57.5089C38.7747 57.5089 27.826 34.5807 15.8385 33.1511Z" fill="#4C2A20"/>
<path d="M39.1014 57.2339C39.362 57.4485 39.8482 58.0607 39.6138 59.5412C42.0661 57.148 41.8004 53.7125 41.7975 53.6738L41.6716 52.226L42.5428 53.3878C42.5792 53.4358 43.2525 54.3537 43.425 55.9586C47.7406 48.9369 46.3191 40.5663 46.3031 40.4781L46.2033 39.9183L46.7667 39.9942C47.0593 40.0326 48.4023 40.4227 48.6214 44.2537C51.0678 39.5179 48.2268 34.4222 48.1955 34.3662L47.852 33.7634L48.5449 33.746C48.7335 33.741 49.5501 33.8203 50.4847 35.447C50.5044 32.0515 48.1381 30.2281 48.0238 30.143L46.9334 29.3234L48.2945 29.3956C48.3615 29.399 49.6076 29.482 50.6572 30.6364C50.3413 24.8759 46.2274 23.3015 46.1822 23.2856L45.383 22.9931L46.1058 22.5432C46.1611 22.5083 47.3272 21.8122 49.4628 22.876C47.5019 17.9977 43.104 15.8931 43.0567 15.8706L42.3492 15.5402L43.0189 15.1385C43.0625 15.1123 43.8945 14.6267 45.1348 14.7447C41.6395 9.93474 36.6703 10.9182 36.6172 10.929L35.4911 11.167L36.2059 10.2654C36.2496 10.2108 37.1725 9.0709 39.156 8.54893C36.6783 6.94032 33.0869 7.91786 33.0469 7.92878L32.5403 8.07072L32.5199 7.54518C32.5185 7.48914 32.4981 6.36893 34.1686 5.54861C30.3035 4.61547 27.3192 8.10202 27.2864 8.14132L27.0659 8.40335L26.7668 8.23667C26.7107 8.20537 26.2136 7.91058 26.0316 7.17251C25.8926 6.60695 25.977 5.94821 26.2834 5.20723C22.3427 7.49787 22.5742 9.24923 22.5778 9.26742L22.735 10.0158L22.0224 9.73967C21.9656 9.71806 21.4721 9.5082 21.2159 8.78258C20.9917 8.14568 21.0172 7.31299 21.2916 6.30051C19.3103 7.70095 18.9741 9.67998 18.9595 9.77548L18.8423 10.5099L18.2782 10.0265C18.2382 9.99247 17.4615 9.30949 16.9513 7.69003C16.3697 9.37711 16.6201 10.1997 16.6237 10.21L17.431 12.7015L15.8944 10.5878C15.8842 10.5748 15.01 9.39989 13.7108 9.05925C14.3418 10.1838 14.6592 11.8528 14.7029 12.0922L14.8688 13.0132L14.0747 12.5181C14.0623 12.5107 12.9654 11.8477 11.6159 11.9242C12.3758 12.8163 12.6473 13.9147 12.6612 13.9716L12.7587 14.3779L12.3525 14.4723C12.2026 14.5087 8.98899 15.319 7.60238 18.8316C9.44101 17.7295 11.0693 18.4401 11.1501 18.4765L11.7266 18.7378L11.2578 19.1629C11.2352 19.1825 9.32091 20.9476 8.29168 23.8185C8.70949 23.5324 9.11419 23.394 9.50288 23.4079C10.1936 23.4312 10.5437 23.9132 10.5816 23.9678L10.7738 24.2478L10.5365 24.4918C10.5226 24.5071 9.11346 26.0442 9.5138 29.4274C10.3625 28.4325 11.5169 28.3473 11.5788 28.3436L12.5971 28.2805L11.9122 29.0364C11.8561 29.0998 10.6282 30.5187 11.1311 33.0006C11.8576 32.2372 12.6502 31.8258 13.4938 31.7763C14.7465 31.702 15.7073 32.4634 16.0261 32.7569C21.0791 33.4256 26.4989 37.7546 32.1385 45.6242C36.0487 51.0805 38.7207 56.4528 39.1014 57.2339ZM38.129 61.6785L38.514 60.519C39.188 58.4875 38.6487 57.9393 38.573 57.8739L38.4289 57.8193L38.3997 57.6882C38.3728 57.6314 35.6243 51.9124 31.4572 46.0987C27.6424 40.7781 21.8281 34.284 15.7881 33.5633L15.6382 33.5451L15.5356 33.4359C15.5108 33.4111 14.6534 32.534 13.5353 32.6054C12.7419 32.6548 11.9791 33.168 11.268 34.1296L10.7869 34.7801L10.5386 34.0102C9.88792 31.9909 10.2417 30.4581 10.6573 29.5243C10.2948 29.7558 9.91558 30.1408 9.68485 30.7748L9.1928 32.1299L8.88927 30.7202C8.11408 27.1172 9.13093 25.0536 9.65937 24.2734C9.60333 24.253 9.53636 24.2376 9.46139 24.237C9.1979 24.2348 8.64398 24.3877 7.79454 25.4599L6.70199 26.8383L7.06229 25.1162C7.68681 22.1392 9.33473 20.0107 10.1827 19.0756C9.4854 18.9838 8.29969 19.071 7.11106 20.2766L6.08984 21.313L6.41084 19.8945C7.36509 15.6719 10.5634 14.1979 11.7346 13.7939C11.5577 13.3128 11.169 12.4803 10.4775 11.9961L9.76201 11.4954L10.602 11.256C11.8386 10.9052 12.9807 11.1636 13.7078 11.4348C13.4502 10.4255 13.0207 9.23896 12.5432 8.89919L11.6079 8.23449L12.7521 8.14714C14.0376 8.04742 15.0806 8.67485 15.7488 9.24464C15.8107 8.53292 16.0422 7.5117 16.6856 6.16002L17.2592 4.95684L17.4703 6.27285C17.6675 7.50224 18.0562 8.32475 18.367 8.81607C18.7353 7.79558 19.6561 6.07341 21.8514 5.0107L22.8005 4.55141L22.4198 5.53477C21.887 6.90829 21.8383 7.75117 21.9351 8.25705C22.3441 7.21181 23.5743 5.5901 27.1205 3.81479L28.4955 3.12622L27.6533 4.41311C26.7988 5.71893 26.7347 6.51159 26.8315 6.94687C26.8621 7.08371 26.9101 7.19289 26.9618 7.27733C27.9867 6.25247 31.4281 3.30819 35.5639 5.15337L36.6135 5.62067L35.5071 5.93148C34.4437 6.22991 33.9043 6.63024 33.6307 6.95487C35.1112 6.69939 38.2898 6.45555 40.4021 8.48124L41.0208 9.07432L40.1707 9.1918C39.1407 9.33424 38.3626 9.67482 37.8203 10.0047C38.4143 10.007 39.1655 10.0658 40.0025 10.2631C41.8302 10.6939 44.4237 11.892 46.4042 15.1587L47.0098 16.1567L45.91 15.7651C45.2564 15.5314 44.6908 15.5272 44.2664 15.5912C45.8641 16.5649 49.2379 19.091 50.6267 23.6874L50.9644 24.804L49.9971 24.1511C48.9955 23.4756 48.2079 23.2186 47.6395 23.1437C48.0871 23.448 48.6163 23.8768 49.1381 24.4596C50.3122 25.7721 51.6741 28.1536 51.4907 32.0521L51.4106 33.7569L50.6987 32.2059C50.5277 31.8322 50.3282 31.5294 50.1193 31.2835C50.9295 32.5568 51.6479 34.4899 51.1551 37.0417L50.8865 38.4307L50.3617 37.1177C50.1273 36.5302 49.8995 36.0787 49.6892 35.731C49.8973 36.3255 50.1048 37.0455 50.2511 37.8521C50.7984 40.8631 50.2162 43.6495 48.569 45.911L47.8025 46.9642L47.8185 45.6615C47.8469 43.4988 47.571 42.2941 47.2784 41.6268C47.3687 42.6524 47.4393 44.2216 47.2959 46.0982C47.0637 49.1572 46.1924 53.628 43.361 57.5506L42.4853 58.7638L42.6112 57.2725C42.6673 56.603 42.6163 56.0192 42.5188 55.5344C42.256 57.1466 41.4597 59.4235 39.14 60.9927L38.129 61.6785Z" fill="#040606"/>
<path d="M13.3609 28.5566C13.3609 28.5566 10.4035 28.9257 10.5272 24.3568C10.6502 19.7879 14.6419 20.1584 15.6297 21.7228C16.6181 23.2869 13.3609 28.5566 13.3609 28.5566Z" fill="#F7BF7F"/>
<path d="M13.4239 21.0744C13.2179 21.0744 13.0075 21.1006 12.8016 21.1565C11.6493 21.4739 10.9884 22.6138 10.9411 24.3681C10.8996 25.8995 11.225 27.0277 11.8808 27.6318C12.3386 28.0532 12.8532 28.1363 13.124 28.1479C14.3942 26.0427 15.8463 22.8438 15.2785 21.9448C14.975 21.4645 14.226 21.0744 13.4239 21.0744ZM13.2092 28.979C12.8409 28.979 12.0387 28.896 11.3341 28.2563C10.4731 27.4761 10.0625 26.1599 10.1113 24.3462C10.1928 21.3357 11.8655 20.5532 12.581 20.3559C13.8599 20.005 15.3535 20.5072 15.9809 21.5015C17.0531 23.1989 14.2806 27.8582 13.7143 28.7751L13.6095 28.9441L13.4122 28.9688C13.4006 28.9702 13.3271 28.979 13.2092 28.979Z" fill="#040606"/>
<path d="M13.6861 26.1608C13.6861 26.1608 15.3821 23.0119 13.0798 23.3693C10.2534 23.8083 12.4618 27.7869 12.4618 27.7869C12.4618 27.7869 12.6045 25.9746 13.6861 26.1608Z" fill="#C6424F"/>
<path d="M12.2622 27.7061C11.9565 27.0166 11.7083 26.3101 11.5649 25.5552C11.498 25.1781 11.4557 24.7872 11.5074 24.3761C11.5344 24.1713 11.5882 23.9581 11.6974 23.7545C11.8037 23.5507 11.9791 23.3642 12.188 23.245C12.3976 23.1233 12.6262 23.0679 12.8431 23.0468C13.0644 23.0286 13.2638 23.0338 13.48 23.065C13.694 23.0972 13.9225 23.1612 14.1387 23.2974C14.3549 23.4312 14.542 23.6561 14.6337 23.8998C14.7305 24.1432 14.7494 24.3863 14.7429 24.6098C14.7341 24.8347 14.6955 25.0457 14.6446 25.2473C14.5929 25.4482 14.5274 25.6419 14.4524 25.8296C14.376 26.0204 14.2988 26.1921 14.1918 26.388C14.0637 26.6237 13.7697 26.7096 13.5353 26.5816C13.3002 26.4534 13.2136 26.1594 13.3417 25.9248L13.3628 25.8899L13.3664 25.8842C13.4472 25.7628 13.5368 25.6032 13.6095 25.4563C13.6852 25.3061 13.75 25.1526 13.8039 24.9999C13.9102 24.6977 13.9597 24.3804 13.8963 24.168C13.8658 24.0616 13.8126 23.9814 13.7216 23.9095C13.6314 23.8387 13.5018 23.7821 13.3533 23.7486C13.2056 23.7131 13.0338 23.6949 12.8853 23.6962C12.7346 23.6991 12.5949 23.7247 12.4777 23.7807C12.2455 23.8848 12.0919 24.1401 12.0271 24.4625C11.9609 24.7821 11.9674 25.1389 12.0053 25.4912C12.0839 26.1995 12.2753 26.9157 12.5199 27.5969L12.5221 27.602C12.5476 27.6748 12.5097 27.7548 12.4377 27.7809C12.3685 27.8056 12.2921 27.7724 12.2622 27.7061Z" fill="#040606"/>
<path d="M11.7858 50.8662C10.3017 50.8197 9.73685 53.1986 9.66552 54.848C9.59491 56.4965 12.1156 56.7322 13.0109 56.6851C13.5764 57.1698 16.191 56.9361 16.191 56.9361L17.2952 51.5498C17.2952 51.5498 17.472 50.7849 15.6516 50.6022L16.132 50.5782C16.132 50.5782 15.6494 48.8763 14.5307 48.8174C13.4119 48.7585 11.633 50.8074 11.633 50.8074L11.7858 50.8662Z" fill="#F7BF7F"/>
<path d="M12.89 52.7247C12.922 52.4526 12.9802 52.2189 13.064 51.9744C13.1469 51.7333 13.2568 51.4981 13.4017 51.2784C13.5458 51.0585 13.7285 50.8555 13.9483 50.6909C14.1681 50.5294 14.4222 50.408 14.6864 50.3417C14.9513 50.2747 15.2236 50.2587 15.4812 50.2755L15.8503 50.3068C15.974 50.3256 16.0978 50.3381 16.2229 50.3633C16.4719 50.4109 16.7252 50.4808 16.9799 50.6059L17.1692 50.7165L17.2624 50.7836L17.3519 50.8649C17.4676 50.9807 17.5754 51.135 17.6205 51.3309L17.6394 51.4859L17.6358 51.5746L17.6321 51.6039L17.6278 51.6277L17.6234 51.6502L17.5906 51.8228L17.5237 52.1694L17.3912 52.8629L17.1263 54.2481L16.5964 57.0192C16.5621 57.2012 16.4122 57.3314 16.2368 57.3496L16.2273 57.3504H16.2266C15.9449 57.3738 15.6749 57.3883 15.3975 57.3976C15.1217 57.4079 14.8451 57.4107 14.5656 57.4042C14.2861 57.3976 14.0044 57.3832 13.7139 57.3431C13.5669 57.3229 13.4192 57.2964 13.2619 57.2535C13.1054 57.2054 12.9373 57.1574 12.74 57.0004L13.0319 57.0999C12.526 57.1196 12.05 57.0789 11.5645 56.9879C11.0834 56.8918 10.5957 56.7485 10.1364 56.4559C9.90859 56.3095 9.69096 56.1116 9.52427 55.862C9.3605 55.6087 9.26369 55.3022 9.25132 55.0087C9.25059 54.9391 9.2484 54.8566 9.25204 54.7977L9.26151 54.6186C9.26951 54.4992 9.2797 54.3807 9.29207 54.2606C9.31682 54.0233 9.34885 53.7867 9.39106 53.5509C9.4755 53.0784 9.59342 52.609 9.77757 52.1466C9.96536 51.6903 10.2085 51.2203 10.6539 50.8481C10.8745 50.6656 11.1613 50.5251 11.4633 50.4743C11.5383 50.4655 11.6147 50.4524 11.689 50.4537L11.8011 50.4524L11.8913 50.4567C12.0114 50.4609 12.1315 50.4683 12.2531 50.4794C12.4962 50.5019 12.7415 50.5337 12.9941 50.5965C13.12 50.6264 13.2496 50.6676 13.3828 50.7231C13.4497 50.7523 13.5182 50.7842 13.5909 50.8285L13.7023 50.9058L13.7649 50.9604C13.7918 50.9895 13.7998 50.988 13.8566 51.0711C13.9782 51.2653 13.9192 51.5214 13.7249 51.6431C13.5305 51.7645 13.2743 51.7057 13.1528 51.5106L13.1877 51.5578L13.1855 51.5558L13.1557 51.5362L13.0574 51.4865C12.9788 51.4552 12.8907 51.4247 12.7932 51.4023C12.6017 51.3543 12.3914 51.3258 12.1788 51.3067C12.0726 51.2966 11.9648 51.2894 11.8557 51.2863L11.7741 51.282L11.7145 51.2835L11.5995 51.2931C11.4502 51.3198 11.3098 51.3841 11.178 51.4933C10.9123 51.7085 10.702 52.0704 10.5484 52.456C10.3926 52.845 10.2849 53.2669 10.2085 53.6957C10.1699 53.9104 10.1401 54.1282 10.1182 54.3456C10.1066 54.4542 10.0978 54.5634 10.0906 54.6726L10.0811 54.8356L10.0804 54.9681C10.0891 55.1318 10.1364 55.2751 10.2201 55.4085C10.3082 55.5378 10.4327 55.6595 10.5899 55.7599C10.9036 55.9632 11.3083 56.092 11.7225 56.1719C12.1366 56.2512 12.5792 56.2876 12.9875 56.2703L13.0057 56.2694C13.1105 56.2651 13.2081 56.3044 13.2801 56.3698C13.2932 56.3823 13.3842 56.4281 13.4854 56.4537C13.5887 56.4821 13.7059 56.504 13.8268 56.5205C14.0692 56.5535 14.3261 56.5679 14.5852 56.5745C14.8436 56.5802 15.1064 56.5773 15.3691 56.5679C15.6297 56.5591 15.8983 56.5438 16.1531 56.5227L15.7833 56.8531L16.3875 54.0918L16.6895 52.7116L16.8409 52.021L16.9166 51.6767L16.9545 51.5032L16.9596 51.4822L16.9603 51.4771L16.9588 51.485L16.9574 51.4924V51.4933L16.9559 51.4728L16.8751 51.3375L16.8358 51.2982L16.7856 51.2615L16.6735 51.1919C16.5068 51.1043 16.3052 51.0384 16.0941 50.9932C15.9893 50.9684 15.8779 50.9544 15.7702 50.9349L15.4368 50.897C15.2258 50.8788 15.0227 50.8868 14.8283 50.9292C14.6347 50.9726 14.4549 51.0529 14.2926 51.1658C14.1318 51.2792 13.9898 51.4262 13.8712 51.5965C13.7525 51.7668 13.655 51.9576 13.58 52.1597C13.5043 52.3579 13.4454 52.5828 13.417 52.7779L13.4148 52.7932C13.3937 52.9379 13.2605 53.0383 13.1149 53.0173C12.973 52.9971 12.8732 52.866 12.89 52.7247Z" fill="#231F20"/>
<path d="M11.6316 51.2231C11.5355 51.2231 11.4387 51.1896 11.3601 51.121C11.1868 50.9712 11.1679 50.709 11.3186 50.5359C11.5107 50.3147 13.2081 48.4017 14.4856 48.4017L14.5511 48.4032C15.9508 48.4768 16.5076 50.3832 16.5309 50.4645C16.5935 50.6843 16.4654 50.9152 16.2449 50.9778C16.0243 51.0403 15.7943 50.9123 15.7317 50.6908C15.7281 50.6778 15.3015 49.2738 14.5074 49.2317L14.4783 49.2309C13.8378 49.2309 12.6193 50.3045 11.946 51.0795C11.8638 51.1742 11.748 51.2231 11.6316 51.2231Z" fill="#231F20"/>
<path d="M25.2127 64.376L22.4999 71.5842L14.8914 71.2894C14.8914 71.2894 13.2777 70.7477 13.5018 69.0992C13.7253 67.4504 15.1476 65.4053 17.2941 64.9423C17.4863 63.6364 17.9477 60.5074 17.9477 60.5074L17.2941 58.6345C17.2941 58.6345 13.8054 56.8933 16.1855 55.458C16.4119 53.4848 17.2533 50.327 18.4755 48.5002C18.177 47.5568 15.7524 46.6032 16.1703 44.2711C16.5873 41.9399 24.7141 39.4657 24.7141 39.4657L36.3034 38.8776L42.823 42.6641C42.823 42.6641 42.0158 45.4155 39.3896 47.9702C39.2841 48.6066 40.2129 53.9286 40.2129 53.9286H40.9677C40.9677 53.9286 42.117 55.2513 40.29 56.5979C40.3308 57.7196 40.48 57.9103 39.434 60.5074C39.6248 62.4326 39.8606 64.376 39.8606 64.376L40.4516 64.9423C40.4516 64.9423 43.4832 65.3643 44.0801 68.6864C44.6777 72.0079 40.7566 71.4009 40.7566 71.4009L35.1556 71.5842L32.3991 64.376C32.3991 64.376 31.7542 65.13 25.2127 64.376Z" fill="#F7BF7F"/>
<path d="M17.2821 58.6118C17.2821 58.6118 13.7926 56.87 16.1728 55.4361C16.3992 53.4621 17.2406 50.3054 18.4627 48.4783C18.165 47.5349 15.7404 46.5815 16.1575 44.2492C16.5746 41.9166 24.7014 39.4438 24.7014 39.4438L36.2907 38.8544L42.8103 42.6413C42.8103 42.6413 42.0038 45.3928 39.3769 47.9484C39.2721 48.5847 40.2001 53.907 40.2001 53.907H40.9549C40.9549 53.907 42.1043 55.2294 40.278 56.576C34.9652 62.4363 17.2821 58.6118 17.2821 58.6118Z" fill="#EBEBE9"/>
<path d="M17.6387 43.3518C17.6387 43.3518 22.4172 45.3526 26.0915 44.8198C29.7666 44.2864 31.7523 44.0345 31.9961 43.8781C32.0609 44.2099 33.2772 43.8255 31.44 45.4902C29.9784 46.8149 21.6755 47.0276 17.6387 43.3518Z" fill="#C1C0B8"/>
<path d="M13.4084 30.4487C13.4084 30.4487 11.6557 33.147 12.9629 37.616C13.3254 38.8543 14.9304 44.8126 25.8384 44.6074C36.745 44.4012 39.69 37.3971 38.2837 31.416C37.9918 30.1743 37.13 26.9133 36.0702 24.3766C34.5133 21.1821 31.1366 17.7858 23.8178 18.2655C11.8849 19.048 13.4084 30.4487 13.4084 30.4487Z" fill="#F7BF7F"/>
<path d="M21.6248 48.6411C21.6182 48.5351 21.4799 46.0202 22.3708 44.5602L22.9619 44.9204C22.1838 46.1948 22.3133 48.5765 22.3148 48.6005L21.6248 48.6411Z" fill="#353436"/>
<path d="M28.0322 48.5562C27.9856 48.4623 26.8828 46.2414 27.3953 44.4035L28.062 44.5901C27.6202 46.1715 28.6399 48.2244 28.6509 48.2445L28.0322 48.5562Z" fill="#353436"/>
<path d="M16.7637 42.4643C16.7637 42.4643 18.3963 44.5257 24.3606 44.6124C35.0313 44.766 36.6217 39.5906 36.6217 39.5906C36.6217 39.5906 29.1231 45.5666 16.7637 42.4643Z" fill="#D69861"/>
<path d="M18.0073 20.396C18.9805 19.8572 21.0542 20.0829 21.0848 20.556C21.1445 21.45 19.078 20.6943 18.337 21.3989C17.2496 22.4346 16.1366 22.8344 16.002 22.514C15.7683 21.9595 17.0814 20.9083 18.0073 20.396Z" fill="#FCD4AE"/>
<path d="M30.1367 43.8553C30.1367 43.8553 35.6948 44.2193 37.6499 38.5833C40.5571 30.2056 34.496 21.9703 34.496 21.9703C34.496 21.9703 41.0651 38.5833 30.1367 43.8553Z" fill="#D69861"/>
<path d="M13.757 30.6735C13.7403 30.6997 12.1302 33.2879 13.3618 37.4998L13.3756 37.5455C15.0228 43.202 21.0577 44.2821 25.8304 44.1917C30.6125 44.1016 34.233 42.6486 36.2987 39.9896C38.042 37.7448 38.6185 34.655 37.8804 31.5112C37.5361 30.0484 36.6889 26.9372 35.6924 24.5477C34.2549 21.6078 31.034 18.2078 23.8454 18.6803C20.3676 18.9075 17.7363 20.0821 16.0222 22.1719C13.2228 25.5835 13.8131 30.346 13.8196 30.3932C13.8327 30.4916 13.8102 30.5906 13.757 30.6735ZM25.2888 45.0273C20.8924 45.0273 17.5122 44.0171 15.2368 42.0225C13.3261 40.347 12.7824 38.4806 12.5778 37.7775L12.5647 37.7326C11.3674 33.6397 12.6332 30.9764 12.9796 30.3577C12.8908 29.4828 12.599 25.0405 15.3758 21.6507C17.2407 19.3732 20.0721 18.0949 23.7901 17.8512C31.4482 17.3497 34.8983 21.0232 36.4436 24.1946L36.4538 24.2165C37.4728 26.6586 38.3383 29.8314 38.6884 31.3213C39.4847 34.7104 38.8529 38.0556 36.9538 40.4991C34.7294 43.3634 30.8877 44.927 25.8464 45.0222C25.6586 45.0259 25.473 45.0273 25.2888 45.0273Z" fill="#040606"/>
<path d="M36.6211 22.3668C36.6211 22.3668 38.2792 19.6614 40.7773 19.6614C43.207 19.6614 45.0369 21.4752 45.3659 22.7928C45.6949 24.1101 45.9009 29.3372 40.6739 29.584" fill="#F7BF7F"/>
<path d="M40.6752 29.9988C40.4546 29.9988 40.2704 29.8262 40.2595 29.6035C40.2493 29.375 40.4262 29.1799 40.6548 29.1697C42.211 29.0955 43.3792 28.5473 44.1297 27.5391C45.2579 26.0208 45.1793 23.7535 44.9638 22.894C44.6763 21.7424 43.0204 20.0768 40.7785 20.0768C38.5388 20.0768 36.9914 22.559 36.9768 22.5838C36.8567 22.7789 36.6012 22.8408 36.4047 22.7206C36.2096 22.6011 36.1485 22.3458 36.2686 22.1499C36.3414 22.0313 38.0788 19.2463 40.7785 19.2463C43.4731 19.2463 45.4093 21.2474 45.7703 22.6921C45.9654 23.4754 46.2063 26.1364 44.7957 28.0341C43.8909 29.2518 42.5101 29.9129 40.6948 29.9988H40.6752Z" fill="#040606"/>
<path d="M41.4538 28.0205C42.729 27.7729 43.6367 26.4561 43.6782 25.4547C43.7189 24.4531 43.2182 22.61 41.4538 22.3815C39.2323 22.0935 39.0547 26.2639 39.0547 26.2639C39.0547 26.2639 39.9944 26.1678 40.5905 26.6614C41.1881 27.1556 41.4538 28.0205 41.4538 28.0205Z" fill="#C6424F"/>
<path d="M38.9811 26.2611C38.9258 25.7115 38.9491 25.1619 39.035 24.6111C39.1209 24.0616 39.2723 23.5068 39.5823 22.9851C39.7374 22.7252 39.9426 22.4732 40.2214 22.2788C40.4958 22.0838 40.8474 21.9643 41.188 21.9578C41.3569 21.9521 41.5265 21.9674 41.675 22.001C41.7514 22.0175 41.8286 22.0277 41.9043 22.0505L42.1292 22.1247C42.2049 22.1457 42.2769 22.1821 42.3476 22.2171C42.4189 22.2541 42.4939 22.2825 42.5594 22.3269L42.7588 22.4593C42.8265 22.5023 42.8818 22.5591 42.943 22.6086L43.114 22.7715L43.2712 22.9456C43.3637 23.0701 43.4568 23.1946 43.5289 23.3277C43.6818 23.5921 43.8004 23.8702 43.8797 24.1548C43.9627 24.4391 44.0137 24.7297 44.0297 25.0251L44.0355 25.248L44.0268 25.4735C44.0173 25.5523 44.0093 25.6316 43.9962 25.7087C43.9802 25.7843 43.9642 25.8607 43.9452 25.9344C43.863 26.2306 43.7312 26.4991 43.5733 26.7467C43.4161 26.9941 43.2276 27.2184 43.0128 27.414C42.5914 27.8093 42.044 28.0808 41.4777 28.1405C41.41 28.1471 41.3504 28.0985 41.3438 28.0308L41.4275 27.9016L41.4319 27.9003C41.9181 27.7424 42.3359 27.4447 42.6533 27.0641C42.9662 26.6848 43.2086 26.2358 43.2938 25.7772L43.32 25.6083L43.3295 25.4437L43.3236 25.2668L43.3062 25.0876C43.2741 24.8482 43.2181 24.6111 43.1439 24.3825C43.0711 24.153 42.967 23.9378 42.8432 23.7428C42.7209 23.5455 42.5725 23.3737 42.405 23.2324C42.2398 23.084 42.0455 22.982 41.8417 22.9026L41.6852 22.8512L41.5214 22.8167C41.4071 22.792 41.3081 22.7812 41.2099 22.7826C41.0141 22.7863 40.835 22.8378 40.6654 22.9421C40.4951 23.0445 40.34 23.2054 40.2017 23.3934C39.9252 23.7732 39.7243 24.25 39.5518 24.7377C39.3858 25.2304 39.249 25.7459 39.1289 26.267L39.1281 26.2699L39.0393 26.3259L38.9811 26.2611Z" fill="#040606"/>
<path d="M36.6074 39.0535L39.6441 35.0983V34.5327L38.8566 32.7284L39.0844 30.8001L40.6231 28.1913L41.4769 27.0136L41.937 22.2503L42.5935 20.759L43.5696 20.2919L44.5566 20.6214L45.0523 21.9171L44.7065 25.2858L44.2225 27.0523L45.0661 27.3434L46.4127 25.9196L49.2784 22.6509L50.6985 22.3299L51.5661 23.0789L51.3259 24.8249L47.8292 28.7745L49.2514 28.9477L49.9371 30.52L49.1328 32.6803L48.8744 34.6558L47.3371 36.3743L45.5611 37.0061L44.9176 37.1866L42.5542 42.4644L36.6074 39.0535Z" fill="#F7BF7F"/>
<path d="M44.3477 36.7869C44.3477 36.7869 45.8813 37.3308 47.0044 36.5824C48.1268 35.8341 49.2463 34.3732 49.1102 32.3048C47.9434 32.8055 47.7156 36.4449 44.3477 36.7869Z" fill="#D69861"/>
<path d="M44.9163 37.1866L42.6701 42.4644L41.3672 42.0452L44.5553 36.9347L44.9163 37.1866Z" fill="#D69861"/>
<path d="M39.6426 35.2083L40.2431 35.4907L37.6992 39.8901L36.5156 39.2364L39.6426 35.2083Z" fill="#FCD4AE"/>
<path d="M40.2424 30.52C40.2424 30.52 41.343 29.1837 43.1423 29.1479C44.9416 29.1138 45.0326 29.5192 44.9169 29.6611C44.8004 29.8021 43.087 29.5906 42.2914 29.9784C41.4966 30.3671 40.1543 31.0258 40.2424 30.52Z" fill="#FCD4AE"/>
<path d="M41.9363 24.0424C41.9363 24.0424 41.8438 21.9642 42.4865 21.2335C43.1285 20.5028 43.7516 20.898 43.6803 21.0211C43.6104 21.1448 42.5921 21.2451 42.6474 23.0882C42.662 23.5912 42.4989 25.4029 41.9363 24.0424Z" fill="#FCD4AE"/>
<path d="M46.0302 26.7458C46.0302 26.7458 48.9279 22.712 49.8603 22.4345C50.7927 22.1564 51.11 22.8232 50.9849 22.8903C50.8589 22.9579 49.944 22.5007 49.0101 24.0904C48.7553 24.5234 45.7834 28.1972 46.0302 26.7458Z" fill="#FCD4AE"/>
<path d="M51.3912 23.76C51.3912 23.76 51.4472 24.52 51.0134 25.0141C50.5789 25.5084 49.2184 27.3463 48.7766 27.6994C48.3348 28.053 48.0779 27.7997 48.5153 27.3433C48.9535 26.887 50.7222 24.8672 50.7208 24.6227C50.7201 24.3787 51.3031 23.4245 51.3912 23.76Z" fill="#D69861"/>
<path d="M44.3859 21.207C44.3859 21.207 45.1284 22.4529 44.8598 23.7602C44.7411 24.3368 44.3066 26.2975 44.078 26.7693C43.8502 27.2409 43.5256 27.1972 43.7075 26.6558C43.8895 26.1151 44.4289 23.8353 44.4471 23.6379C44.5657 22.4085 44.1705 21.0199 44.3859 21.207Z" fill="#D69861"/>
<path d="M45.3043 32.5432C45.3043 32.5432 47.1989 32.5068 47.4202 31.9982C47.6415 31.49 48.1998 31.3155 48.2878 31.6095C48.3745 31.9043 47.22 33.3027 46.6079 33.2808C45.995 33.2588 45.1201 33.3003 45.3043 32.5432Z" fill="#D69861"/>
<path d="M40.099 35.1812C39.6208 35.8602 39.0953 36.5045 38.5865 37.1619L37.82 38.1451L37.0463 39.1234C36.9393 39.2588 36.7413 39.2821 36.6052 39.1744C36.4742 39.0712 36.4487 38.8832 36.5426 38.7484L37.2545 37.726L37.9736 36.7069C38.4562 36.0305 38.9199 35.3399 39.433 34.6862C39.5735 34.5057 39.8348 34.4738 40.0153 34.6149C40.1907 34.7519 40.2249 35.0007 40.099 35.1812Z" fill="#231F20"/>
<path d="M42.8491 42.7107L42.6846 42.6763C42.4742 42.5853 42.3767 42.3416 42.4677 42.1304L44.671 37.023C44.762 36.8125 45.0058 36.715 45.2162 36.806C45.4272 36.897 45.524 37.1407 45.4331 37.3511L43.2305 42.4602C43.1628 42.6166 43.0099 42.7107 42.8491 42.7107Z" fill="#231F20"/>
<path d="M44.0355 26.9141C44.2189 25.9147 44.414 24.9079 44.5552 23.9173C44.62 23.4251 44.6535 22.9281 44.6418 22.4536C44.6273 21.9842 44.537 21.5139 44.3114 21.2321C44.2 21.0925 44.061 21.0021 43.8848 20.9503C43.7138 20.9003 43.4786 20.8784 43.2996 20.8994C43.1147 20.9236 42.9699 20.9862 42.852 21.0973C42.7333 21.2082 42.6372 21.3771 42.5659 21.5764C42.4953 21.7766 42.448 22.0024 42.4109 22.2403L42.3592 22.6128C42.3453 22.7134 42.3359 22.8394 42.3272 22.9609L42.242 24.4879C42.2107 25.0018 42.1714 25.5164 42.1081 26.039C42.0753 26.3002 42.0396 26.5624 41.98 26.8354C41.9516 26.9715 41.9152 27.1112 41.8598 27.2647L41.8096 27.385L41.7791 27.4481L41.7376 27.5194L41.6932 27.5852L41.6589 27.6309L41.5927 27.7139L41.1007 28.3042C40.9413 28.4978 40.7877 28.6929 40.6406 28.8902C40.3458 29.2854 40.0758 29.6937 39.8545 30.1196C39.6333 30.5453 39.4578 30.9886 39.364 31.4369C39.3188 31.6613 39.2941 31.8853 39.2941 32.1082C39.2941 32.3243 39.3203 32.5615 39.361 32.7901C39.4433 33.2473 39.5961 33.6862 39.8342 34.0684C39.9521 34.2603 40.0926 34.436 40.2469 34.5952C40.324 34.674 40.4063 34.7482 40.4929 34.815L40.6217 34.9089L40.6865 34.9498L40.736 34.9788L40.7724 35.0007C40.966 35.1122 41.0315 35.359 40.9202 35.5517C40.8139 35.7346 40.5853 35.8028 40.3975 35.714L40.2789 35.6521L40.1799 35.5924L39.9965 35.4667C39.8793 35.3786 39.7686 35.2847 39.6653 35.1835C39.4578 34.9833 39.2766 34.7576 39.1237 34.5168C38.8137 34.0357 38.6193 33.4946 38.513 32.9496C38.4614 32.6775 38.4257 32.4059 38.4221 32.1116C38.4192 31.8228 38.4505 31.5381 38.5058 31.2615C38.6201 30.7091 38.8268 30.1944 39.075 29.7148C39.3239 29.2345 39.6187 28.7875 39.9331 28.3639C40.2439 27.9417 40.5933 27.5357 40.9049 27.1586L40.9573 27.0916L40.9813 27.0603L40.99 27.0458L40.9966 27.0355L41.0075 27.0122L41.0301 26.9553C41.0614 26.8689 41.0912 26.7603 41.1145 26.6474C41.1633 26.4211 41.1975 26.1766 41.2273 25.9321C41.2863 25.4407 41.3227 24.9363 41.3576 24.4319L41.4522 22.9005C41.4624 22.7686 41.4704 22.6393 41.493 22.4863L41.5527 22.1019C41.5978 21.8369 41.6553 21.5605 41.7594 21.2802C41.8635 21.0029 42.0192 20.7104 42.2776 20.4738C42.5331 20.2327 42.8869 20.0974 43.2079 20.0675C43.3709 20.0493 43.5267 20.0558 43.6774 20.0712C43.8237 20.0843 43.9838 20.1169 44.1367 20.1687C44.4475 20.2671 44.7503 20.4781 44.9453 20.7488C45.144 21.018 45.2481 21.3166 45.3107 21.6012C45.3704 21.8872 45.3893 22.1667 45.3908 22.4405C45.393 22.9879 45.3151 23.5081 45.2205 24.0242C45.0218 25.0483 44.7575 26.0324 44.4729 27.0202C44.4387 27.1404 44.3135 27.2087 44.1942 27.1746C44.0821 27.1425 44.0144 27.0304 44.0348 26.9184L44.0355 26.9141Z" fill="#231F20"/>
<path d="M43.5831 26.6694C43.7979 26.6156 43.9944 26.6083 44.1997 26.625C44.4035 26.6418 44.6058 26.6862 44.8031 26.759C45.0003 26.8332 45.1925 26.939 45.3592 27.0851C45.5222 27.2372 45.6642 27.4285 45.7158 27.658C45.7413 27.7709 45.67 27.8829 45.5571 27.9082L45.44 27.9011L45.4065 27.8886C45.2282 27.8246 45.0913 27.7672 44.9465 27.7104C44.8016 27.6552 44.6575 27.5989 44.5083 27.5386L44.0424 27.3623C43.8845 27.302 43.7134 27.2372 43.5584 27.1579L43.5293 27.1433C43.4041 27.0794 43.3546 26.9256 43.4186 26.8005C43.4529 26.7328 43.5147 26.6876 43.5831 26.6694Z" fill="#231F20"/>
<path d="M44.9095 31.2639C44.8614 31.3549 44.8156 31.4211 44.7595 31.4896C44.7049 31.5579 44.6445 31.6198 44.579 31.6767C44.4494 31.7925 44.301 31.8891 44.1379 31.9648C43.9741 32.0398 43.7914 32.0893 43.6015 32.0972C43.41 32.1004 43.2099 32.0608 43.0446 31.9488C42.9471 31.8817 42.9216 31.7495 42.9886 31.6517L43.0563 31.5877L43.0956 31.5658C43.2339 31.4845 43.3409 31.4319 43.4501 31.3739C43.5585 31.3156 43.6648 31.2624 43.7776 31.2084L44.1241 31.0296C44.242 30.9713 44.3745 30.905 44.5011 30.8627L44.5557 30.8454C44.7108 30.7936 44.8774 30.8775 44.9284 31.0324C44.9546 31.1126 44.9451 31.1953 44.9095 31.2639Z" fill="#231F20"/>
<path d="M44.2205 31.493C44.2816 31.5857 44.3209 31.6568 44.3661 31.7384C44.4075 31.8171 44.449 31.897 44.4854 31.9778C44.5604 32.1396 44.6215 32.3053 44.6747 32.4756C44.7817 32.8143 44.8385 33.1717 44.8392 33.5297C44.8479 33.8884 44.762 34.249 44.6266 34.5748C44.4971 34.907 44.2663 35.1785 44.0349 35.4216L43.8711 35.4253L43.8507 35.2848L43.8587 35.2723L43.9744 35.0684C44.0138 35.0016 44.0523 34.9359 44.0771 34.8631L44.1644 34.6536C44.187 34.5823 44.2008 34.5086 44.2205 34.4375C44.2874 34.1492 44.302 33.8544 44.2554 33.5661C44.2125 33.278 44.1208 32.9977 43.9999 32.729C43.9395 32.5951 43.8696 32.4643 43.7932 32.3389L43.6768 32.1533L43.5559 31.9917C43.4074 31.8163 43.4285 31.5544 43.6032 31.4051C43.7779 31.2564 44.0407 31.2778 44.1899 31.4524L44.2183 31.491L44.2205 31.493Z" fill="#231F20"/>
<path d="M44.9842 27.0015C45.8125 25.9993 46.6336 24.9961 47.4881 24.0084C47.5951 23.8839 47.7021 23.7617 47.8157 23.6351L47.9758 23.4588L48.1308 23.2797C48.3412 23.0346 48.561 22.7747 48.8223 22.5316C49.0829 22.2919 49.3959 22.0571 49.7977 21.9368C49.9964 21.878 50.2155 21.8575 50.4266 21.8808C50.6369 21.9032 50.8371 21.9681 51.014 22.054C51.1886 22.1407 51.3532 22.2448 51.5075 22.3823C51.6596 22.5191 51.7928 22.6909 51.8845 22.883C52.0708 23.2717 52.0745 23.6968 52.0053 24.0621C51.9362 24.4326 51.7855 24.7835 51.5824 25.0895C51.4842 25.2407 51.3561 25.3905 51.2483 25.5094L50.9281 25.8748C50.075 26.8514 49.2146 27.8219 48.3448 28.784C48.2415 28.8983 48.0661 28.9071 47.9525 28.8045C47.8419 28.7047 47.8309 28.5372 47.9227 28.4229C48.7415 27.4141 49.5691 26.4127 50.4055 25.417L50.7177 25.0428C50.8254 24.9183 50.9048 24.8179 50.9834 24.6962C51.1362 24.4605 51.2418 24.2012 51.2884 23.9314C51.3357 23.6627 51.3182 23.4065 51.2178 23.2064C51.1675 23.1066 51.0977 23.0164 51.0081 22.937C50.9186 22.8597 50.8072 22.7892 50.6901 22.7346C50.4579 22.6254 50.2359 22.603 50.0146 22.6706C49.7911 22.7397 49.564 22.8984 49.3529 23.1C49.1404 23.301 48.9424 23.5396 48.7342 23.7892L48.5726 23.9808L48.4089 24.1671C48.3062 24.2828 48.2014 24.4074 48.0981 24.5296C47.2719 25.5202 46.4458 26.5247 45.6262 27.5276L45.6255 27.5292C45.4806 27.7067 45.2193 27.7331 45.0417 27.5881C44.8634 27.4434 44.8372 27.1812 44.9827 27.0036L44.9842 27.0015Z" fill="#231F20"/>
<path d="M40.0195 30.5025C40.2379 30.1394 40.5247 29.8584 40.8428 29.6029C41.1637 29.3541 41.5189 29.1437 41.896 28.9864C42.0838 28.9048 42.2774 28.8371 42.4725 28.7788C42.6697 28.7242 42.8677 28.6742 43.0693 28.6398C43.4704 28.5633 43.8787 28.54 44.2834 28.5409L44.587 28.5482L44.8832 28.5699C45.0805 28.5861 45.2792 28.6043 45.4779 28.6327C45.8753 28.6873 46.2757 28.7652 46.6753 28.8909C47.072 29.0248 47.4774 29.2011 47.8362 29.5277C48.0117 29.6939 48.1747 29.9005 48.27 30.1547C48.3188 30.2798 48.3508 30.4152 48.3603 30.5528C48.3654 30.6219 48.3647 30.6924 48.3588 30.7623L48.345 30.8709L48.3334 30.9283L48.3123 31.004L48.3225 30.9676C48.3006 31.0506 48.2839 31.0964 48.2621 31.1576L48.1943 31.3258C48.1456 31.435 48.091 31.5411 48.0298 31.6438C47.9054 31.8499 47.7562 32.0455 47.572 32.2138C47.3886 32.3833 47.1717 32.5232 46.938 32.6184C46.7044 32.7168 46.4547 32.7649 46.2123 32.7793C45.7814 32.7962 45.3316 32.7881 44.8759 32.6636C44.651 32.6002 44.429 32.5055 44.2296 32.3841C44.0309 32.261 43.8533 32.1149 43.6939 31.9591C43.5789 31.8471 43.5767 31.6628 43.6888 31.547C43.795 31.4393 43.9632 31.4305 44.0789 31.5229L44.0825 31.526C44.3781 31.764 44.6947 31.9298 45.0419 31.9969C45.3869 32.0688 45.7712 32.0571 46.1592 32.0225C46.4947 31.9909 46.7881 31.8564 47.0174 31.627C47.1353 31.5144 47.235 31.3782 47.3202 31.2298C47.3616 31.1556 47.3995 31.0776 47.433 30.9983L47.4774 30.878L47.5087 30.774L47.5196 30.7376L47.5167 30.7441L47.5189 30.7305L47.5218 30.6961L47.5203 30.6182L47.481 30.4581C47.4417 30.3518 47.3624 30.2471 47.2598 30.1502C47.1542 30.0549 47.0232 29.9682 46.8783 29.894C46.7328 29.8198 46.5726 29.7595 46.4096 29.7018C45.7458 29.4848 44.9902 29.4012 44.2623 29.3598C43.5381 29.3299 42.8139 29.3998 42.1238 29.6071C41.7803 29.7134 41.4433 29.8487 41.1266 30.0265C40.8107 30.1997 40.4992 30.418 40.2481 30.6634L40.2364 30.6736L40.0392 30.6707L40.0195 30.5025Z" fill="#231F20"/>
<path d="M49.1102 32.7205C48.9981 32.7205 48.886 32.6744 48.8045 32.5848C48.6495 32.4159 48.6611 32.1532 48.8307 31.9983C49.2995 31.5695 49.5506 31.0048 49.5193 30.4492C49.4953 30.0119 49.2995 29.6386 48.969 29.3989C48.1021 28.7671 47.0896 29.5337 47.0474 29.5664C46.8654 29.7062 46.6056 29.6741 46.4651 29.4936C46.3239 29.313 46.3559 29.054 46.5357 28.9121C46.5976 28.8632 48.0788 27.7248 49.4574 28.727C49.9859 29.1115 50.3105 29.7222 50.3491 30.4029C50.3935 31.2084 50.0448 32.0127 49.3905 32.6113C49.3111 32.6841 49.2107 32.7205 49.1102 32.7205Z" fill="#231F20"/>
<path d="M45.5769 32.5899L45.5703 32.6248L45.566 32.6757L45.5638 32.7835C45.5659 32.8557 45.5739 32.9276 45.5892 32.9967C45.6191 33.1344 45.6737 33.2603 45.7574 33.3666C45.8404 33.473 45.9539 33.5623 46.0929 33.6285C46.232 33.6956 46.3943 33.7428 46.542 33.753C46.6927 33.7641 46.8427 33.7408 46.9897 33.6797C47.1374 33.6185 47.2772 33.5202 47.4089 33.4036C47.6688 33.167 47.8901 32.8636 48.0815 32.5427L48.2446 32.5003L48.2926 32.6505C48.1376 33.0064 47.9497 33.3564 47.6833 33.6709C47.5472 33.8267 47.3893 33.9729 47.1964 34.0857C47.0042 34.1986 46.775 34.2691 46.5442 34.2808C46.3106 34.2939 46.0944 34.2583 45.8775 34.1907C45.6598 34.1221 45.4429 34.0035 45.2639 33.8324C45.0841 33.6629 44.9516 33.4452 44.8686 33.2197C44.8271 33.1068 44.7973 32.991 44.7769 32.8745L44.7551 32.6962L44.75 32.6053L44.7515 32.4969C44.7777 32.2688 44.9836 32.1051 45.2115 32.1307C45.4393 32.1563 45.6023 32.3621 45.5769 32.5899Z" fill="#231F20"/>
<path d="M44.4073 36.4952L44.5914 36.5816C44.6598 36.6087 44.7304 36.6334 44.8018 36.6531C44.9444 36.6932 45.0907 36.7202 45.2385 36.7318C45.534 36.7566 45.8339 36.7267 46.12 36.6437C46.4067 36.5629 46.6819 36.4341 46.9374 36.2709L47.1273 36.1429L47.3115 36.0017C47.42 35.9135 47.532 35.8051 47.6347 35.6952C48.0481 35.2462 48.3655 34.7082 48.5445 34.1333C48.7258 33.5576 48.7724 32.9468 48.6974 32.3455C48.669 32.1183 48.8306 31.9102 49.0584 31.8817C49.2862 31.8536 49.4937 32.0156 49.5213 32.2428L49.5235 32.2604V32.2647C49.5803 32.9722 49.4922 33.7014 49.2462 34.3733C49.0016 35.046 48.6049 35.6522 48.1027 36.1501C47.9753 36.2746 47.8458 36.3917 47.6936 36.5046L47.4782 36.6539C47.4025 36.6997 47.3304 36.75 47.2518 36.7921C46.9454 36.9698 46.6113 37.1094 46.2597 37.1918C45.9089 37.2755 45.5406 37.2965 45.1817 37.2507C45.0027 37.2274 44.8258 37.1867 44.6533 37.1307C44.5674 37.1014 44.483 37.0687 44.4 37.0315C44.3141 36.9917 44.2398 36.9558 44.1445 36.8947C44.0339 36.8234 44.0018 36.6758 44.0732 36.5649C44.1416 36.4574 44.2821 36.4244 44.3912 36.4873L44.4073 36.4952Z" fill="#231F20"/>
<path d="M31.5204 45.0053L31.5663 44.7659L31.8647 44.2433C32.9085 42.417 34.2304 40.7648 35.7844 39.3483L36.3012 38.8774C36.3012 38.8774 42.4845 41.8325 42.8201 42.6639C42.2938 43.9513 39.6123 47.7204 39.6123 47.7204C39.6123 47.7204 35.8914 51.5054 32.9427 49.08C31.7512 48.1002 31.2293 46.5208 31.5204 45.0053Z" fill="#EBEBE9"/>
<path d="M38.4383 45.8461C38.4383 45.8461 39.6815 55.3281 35.2422 56.6304C38.5322 55.5923 40.4524 54.3827 40.4524 54.3827L38.4383 45.8461Z" fill="#C1C0B8"/>
<path d="M19.355 57.3518H19.3529C18.6752 57.3475 16.4304 57.2594 15.9769 56.2964C15.3342 54.9293 16.1116 52.0892 18.2268 48.0816C18.3338 47.8791 18.5842 47.8012 18.7873 47.9081C18.9904 48.0153 19.0682 48.2664 18.9613 48.4694C16.2179 53.6672 16.4857 55.4272 16.7281 55.9427C16.8802 56.2657 18.2414 56.5139 19.3572 56.5213C19.5865 56.5227 19.7714 56.7098 19.7699 56.9392C19.7692 57.1676 19.5829 57.3518 19.355 57.3518Z" fill="#231F20"/>
<path d="M17.3275 43.2905L17.2001 43.4054L17.0662 43.5417C16.9796 43.634 16.9053 43.7361 16.8318 43.8351C16.6906 44.0395 16.5981 44.2607 16.5501 44.4836C16.5064 44.7063 16.5079 44.9363 16.5683 45.1685C16.6331 45.4122 16.7372 45.6576 16.8667 45.895C17.1353 46.3682 17.5036 46.8026 17.9112 47.2001C18.3269 47.5874 18.7818 47.9541 19.2767 48.2219L19.2818 48.2243C19.3859 48.2808 19.4238 48.4096 19.3677 48.5137C19.3168 48.6092 19.204 48.6485 19.1057 48.6121C18.5132 48.3894 17.9906 48.0559 17.5 47.6746C17.2583 47.4796 17.0232 47.2734 16.8056 47.0443C16.5916 46.8128 16.3878 46.5669 16.2095 46.2959C16.034 46.0224 15.8804 45.7276 15.7713 45.402C15.6635 45.0622 15.6322 44.6815 15.6992 44.3212C15.7618 43.9579 15.9212 43.6261 16.117 43.3415C16.2182 43.2004 16.3266 43.0656 16.4497 42.9471L16.6374 42.7722L16.7394 42.6915L16.8558 42.6071C17.0458 42.4788 17.3027 42.5277 17.4316 42.717C17.5517 42.8939 17.5167 43.1296 17.3573 43.2658L17.3275 43.2905Z" fill="#231F20"/>
<path d="M42.5446 42.3466C42.5446 42.3466 43.0861 42.4973 42.6632 43.4847C42.0292 44.967 40.2474 47.5392 39.3914 47.97C38.7064 46.4955 38.3789 45.7289 38.3789 45.7289C38.3789 45.7289 39.561 47.0994 42.5446 42.3466Z" fill="#C1C0B8"/>
<path d="M40.2913 54.9265C40.0845 54.9265 39.9062 54.7729 39.88 54.5626C39.6325 52.5791 38.8005 47.1359 37.9351 45.7916C37.8114 45.5988 37.8667 45.3427 38.0596 45.2181C38.2517 45.0936 38.5094 45.1495 38.6331 45.3427C39.7781 47.1208 40.6668 54.1614 40.704 54.4599C40.7323 54.6871 40.5708 54.8952 40.3437 54.9237L40.2913 54.9265Z" fill="#231F20"/>
<path d="M39.1897 48.6033C39.0878 48.6033 38.9859 48.5654 38.9058 48.4913C38.7384 48.334 38.7304 48.0713 38.8869 47.9038C41.3107 45.317 42.1201 43.4455 42.3458 42.808C41.6965 42.294 39.5631 40.708 36.3757 39.3564C32.7334 42.3878 31.9822 45.3278 31.9742 45.3577C31.9203 45.5805 31.6976 45.7182 31.4741 45.6633C31.2514 45.6104 31.1146 45.3869 31.1677 45.164C31.1997 45.0295 32.0004 41.8325 36.0438 38.5542C36.1624 38.4581 36.324 38.4348 36.4645 38.4931C40.5777 40.1948 42.995 42.2621 43.0962 42.3495C43.2127 42.4498 43.2636 42.6062 43.2294 42.7555C43.2083 42.8487 42.674 45.0776 39.4932 48.4716C39.4109 48.5589 39.3003 48.6033 39.1897 48.6033Z" fill="#231F20"/>
<path d="M17.6198 14.9005C17.6198 14.9005 20.2715 7.58816 28.7564 9.79714C26.5727 10.5768 25.7968 11.614 25.7968 11.614C25.7968 11.614 34.2519 7.31521 38.2487 19.9548C34.8895 17.1766 29.7994 16.9807 29.1858 17.3119C31.443 17.9233 32.2829 20.0009 32.2829 20.0009C32.2829 20.0009 30.0236 18.4606 27.5852 18.5334C24.4502 18.6272 23.2041 21.116 23.2041 21.116C23.2041 21.116 19.4853 17.9073 17.4109 20.3335C17.4109 20.3335 14.0721 16.9918 16.1764 11.5682C16.758 13.0538 18.165 13.5932 18.165 13.5932" fill="#3A1E19"/>
<path d="M13.0156 36.1C13.0156 36.1 15.7605 39.1062 19.7958 40.0254C23.2307 41.7561 26.3395 40.8085 26.3395 40.8085C26.3395 40.8085 29.3951 40.2307 29.6637 38.7502C28.6964 38.7471 22.9024 38.5478 22.9024 38.5478L13.0156 36.1Z" fill="#D69861"/>
<path d="M23.225 21.7593L22.824 21.4411C22.7949 21.417 19.8135 19.0951 17.5949 20.6905C17.4085 20.8244 17.1487 20.7814 17.0155 20.5953C16.8815 20.4096 16.9245 20.1496 17.1108 20.0166C19.3403 18.413 21.9891 19.8696 22.9623 20.5195C23.4893 19.7553 24.8766 18.1961 27.4518 18.1181C29.9965 18.0411 32.4131 19.6416 32.5157 19.7096C32.7057 19.8369 32.7574 20.0951 32.6292 20.2859C32.5019 20.4758 32.2442 20.5276 32.0535 20.3993C32.0229 20.3791 29.7476 18.8833 27.4766 18.9481C24.6218 19.0339 23.4652 21.2793 23.4536 21.3012L23.225 21.7593Z" fill="#040606"/>
<path d="M18.9961 38.3671C18.9961 38.3671 20.2437 40.3085 24.7063 40.5368C29.1689 40.7654 30.3321 37.7246 30.3321 37.7246C30.3321 37.7246 26.5457 39.4538 18.9961 38.3671Z" fill="#CF616D"/>
<path d="M19.6897 38.7153C20.3732 39.2757 21.8734 40.139 24.7194 40.2846C27.7561 40.4412 29.1973 39.0215 29.7738 38.1979C28.4374 38.6235 25.0921 39.3886 19.6897 38.7153ZM25.1736 40.802C25.0171 40.802 24.8577 40.7977 24.6939 40.7898C20.1534 40.5569 18.8381 38.5879 18.7835 38.5041L18.4844 38.0383L19.0325 38.1176C26.4226 39.1805 30.1894 37.5112 30.2273 37.4939L30.7892 37.2376L30.5679 37.8149C30.5563 37.8456 29.3749 40.802 25.1736 40.802Z" fill="#231F20"/>
<path d="M32.6988 27.9345C32.6988 29.9513 31.0633 31.5862 29.047 31.5862C27.0301 31.5862 25.3945 29.9513 25.3945 27.9345C25.3945 25.9166 27.0301 24.2818 29.047 24.2818C31.0633 24.2818 32.6988 25.9166 32.6988 27.9345Z" fill="#D69861"/>
<path d="M22.1635 28.014C22.1635 29.7149 20.7834 31.0945 19.0831 31.0945C17.3813 31.0945 16.002 29.7149 16.002 28.014C16.002 26.3121 17.3813 24.9328 19.0831 24.9328C20.7834 24.9328 22.1635 26.3121 22.1635 28.014Z" fill="#D69861"/>
<path d="M32.2207 27.5115C32.2207 29.4542 30.6456 31.03 28.7022 31.03C26.7587 31.03 25.1836 29.4542 25.1836 27.5115C25.1836 25.569 26.7587 23.9923 28.7022 23.9923C30.6456 23.9923 32.2207 25.569 32.2207 27.5115Z" fill="white"/>
<path d="M21.7249 27.5932C21.7249 29.2324 20.3965 30.5608 18.7574 30.5608C17.1182 30.5608 15.7891 29.2324 15.7891 27.5932C15.7891 25.9541 17.1182 24.6249 18.7574 24.6249C20.3965 24.6249 21.7249 25.9541 21.7249 27.5932Z" fill="white"/>
<path d="M29.8865 28.1835C29.3981 28.1835 29.0021 27.7874 29.0021 27.2998C29.0021 27.2264 29.0123 27.1551 29.0297 27.0865C28.2837 27.136 27.6934 27.7541 27.6934 28.5124C27.6934 29.3023 28.3346 29.9429 29.1236 29.9429C29.9141 29.9429 30.5547 29.3023 30.5547 28.5124C30.5547 28.3239 30.5175 28.1448 30.4513 27.9796C30.2984 28.107 30.1012 28.1835 29.8865 28.1835Z" fill="#040606"/>
<path d="M20.419 28.2234C19.9656 28.2234 19.5907 27.8959 19.5157 27.4643C18.988 27.5908 18.5957 28.0639 18.5957 28.6309C18.5957 29.2942 19.1329 29.8313 19.796 29.8313C20.4591 29.8313 20.9963 29.2942 20.9963 28.6309C20.9963 28.441 20.9511 28.2621 20.8732 28.1026C20.7386 28.1791 20.5843 28.2234 20.419 28.2234Z" fill="#040606"/>
<path d="M36.4424 39.6746C34.7551 40.8252 33.3336 42.6436 33.4391 43.1021C33.5454 43.5613 36.4067 43.2441 37.4672 42.0771C38.527 40.912 38.5205 40.0436 36.4424 39.6746Z" fill="white"/>
<path d="M32.0601 51.833C31.6809 51.1918 33.026 48.7003 35.0517 48.6994C36.0176 48.6994 35.8531 49.7833 35.6879 50.2658C35.5226 50.7486 32.9787 53.3871 32.0601 51.833Z" fill="white"/>
<path d="M31.1982 36.8816C29.4695 40.339 22.0284 39.6731 20.7481 39.3964C14.6928 38.0848 11.0469 34.4394 11.0469 34.4394L11.3679 32.5637" fill="#F7BF7F"/>
<path d="M31.571 37.0663C31.3315 37.5358 30.9872 37.9434 30.5956 38.271C30.2033 38.5994 29.7666 38.8528 29.3182 39.0558C28.4171 39.4598 27.4701 39.6745 26.526 39.8055C25.5798 39.9363 24.6314 39.9736 23.6866 39.9597C23.2135 39.9517 22.7425 39.9292 22.2709 39.8905C21.7992 39.8505 21.3319 39.8024 20.8537 39.716L20.6717 39.6781L20.5006 39.6344L20.1571 39.5462C19.93 39.4851 19.6985 39.4333 19.4736 39.3651L18.7981 39.1524C18.686 39.1161 18.5718 39.0842 18.4619 39.0433L18.1299 38.9204C17.9094 38.8379 17.6874 38.7587 17.4683 38.6722L16.8176 38.3955C16.5992 38.3069 16.3889 38.2019 16.1763 38.1002C15.9652 37.9958 15.749 37.9028 15.5438 37.7877C14.7045 37.3606 13.901 36.867 13.1265 36.3356C12.352 35.7985 11.6125 35.2264 10.9261 34.5625L10.8613 34.5L10.8773 34.4104L11.2187 32.5384C11.234 32.4545 11.3141 32.3999 11.3963 32.4153C11.4786 32.4297 11.5332 32.5085 11.5201 32.5899L11.2194 34.4687L11.1707 34.3171C11.8374 34.9345 12.5871 35.4914 13.3543 35.9987C14.1266 36.503 14.9244 36.9696 15.7541 37.3691C15.9579 37.4783 16.1719 37.565 16.3801 37.6625C16.5905 37.7578 16.7979 37.8553 17.0141 37.9378L17.6546 38.194C17.8708 38.2738 18.0885 38.3461 18.3054 38.4225L18.6307 38.5351C18.7406 38.5724 18.8513 38.6014 18.9619 38.6344L19.6236 38.8263C19.8441 38.8892 20.0705 38.9341 20.2932 38.9887L20.6288 39.0674L20.7962 39.1067L20.957 39.1365C21.3967 39.2065 21.8581 39.2448 22.3145 39.2741C22.7731 39.3012 23.2324 39.3128 23.691 39.3105C24.6074 39.3046 25.5245 39.2479 26.422 39.103C27.3173 38.9611 28.2009 38.7353 28.9936 38.3577C29.7833 37.9844 30.4762 37.4311 30.8285 36.6958C30.9275 36.4885 31.1757 36.4013 31.3825 36.5002C31.5892 36.5992 31.6765 36.8474 31.5775 37.0541L31.5739 37.062L31.571 37.0663Z" fill="#040606"/>
<path d="M26.9938 22.5163C27.1612 22.431 27.3068 22.367 27.4669 22.3138C27.6241 22.2601 27.7835 22.2186 27.9444 22.1822C28.2661 22.1131 28.5944 22.0818 28.9263 22.0801C29.5879 22.0753 30.267 22.2041 30.9098 22.4776C31.5474 22.7551 32.1545 23.1839 32.5905 23.7551C33.0294 24.3206 33.287 25.0107 33.2841 25.6891C33.2827 25.8688 33.1364 26.0144 32.9566 26.0129C32.8721 26.0129 32.795 25.9803 32.7375 25.9271L32.7215 25.9118C32.2716 25.4955 31.8909 25.1563 31.4717 24.9015C31.0641 24.6374 30.6375 24.4414 30.1819 24.2689C29.7241 24.1022 29.2393 23.9561 28.7247 23.8171L27.9335 23.6058L27.5215 23.491C27.3868 23.4523 27.2362 23.4085 27.1102 23.3599L27.0353 23.3309C26.8053 23.2419 26.691 22.9834 26.7805 22.7528C26.8213 22.6474 26.8999 22.5649 26.9938 22.5163Z" fill="#040606"/>
<path d="M15.1666 25.0857C15.2757 24.8105 15.414 24.5944 15.5771 24.3798C15.7408 24.1685 15.9279 23.9777 16.1324 23.8045C16.5408 23.4574 17.0314 23.1867 17.5751 23.028C18.1174 22.8714 18.7208 22.8307 19.2893 22.9675C19.8555 23.1 20.3716 23.4051 20.7115 23.8404C20.8069 23.9626 20.7843 24.1401 20.662 24.2356L20.4808 24.2953H20.4604C19.9633 24.2791 19.5586 24.2726 19.1743 24.3351C18.7921 24.3855 18.4355 24.4844 18.0701 24.608C17.7068 24.7391 17.3349 24.8913 16.9462 25.063L16.3464 25.3266C16.1412 25.4124 15.9214 25.5114 15.7023 25.5808L15.6418 25.5996C15.438 25.663 15.2204 25.5501 15.1564 25.3456C15.1287 25.2575 15.1345 25.1665 15.1666 25.0857Z" fill="#040606"/>
<path d="M13.6855 32.4081C13.6855 32.4081 22.2986 32.2027 22.902 25.4548C22.902 25.4548 23.0053 26.765 23.2455 28.051C23.4472 29.1261 23.7441 30.1852 24.1561 30.4473C25.0616 31.0217 27.813 32.8266 27.813 32.8266L21.1987 34.8152C21.1987 34.8152 13.917 34.0671 13.6855 32.4081Z" fill="#F7BF7F"/>
<path d="M13.6752 31.9932C13.9118 31.9867 14.176 31.9656 14.4278 31.9395C14.6826 31.9116 14.9366 31.8798 15.1907 31.8388C15.6973 31.7581 16.201 31.6526 16.6945 31.5172C17.6829 31.2457 18.6386 30.8622 19.5004 30.3308C20.3542 29.7942 21.1149 29.1059 21.6455 28.2577C22.1936 27.4193 22.4847 26.4329 22.5961 25.4269L22.5968 25.4205C22.615 25.2524 22.7664 25.1301 22.9353 25.1483C23.102 25.1671 23.2228 25.3158 23.2083 25.4815C23.1093 26.57 22.8065 27.6675 22.2125 28.6114C21.6368 29.5665 20.8055 30.3424 19.8869 30.9406C18.9618 31.5346 17.9457 31.9597 16.9055 32.2648C16.3851 32.4169 15.8567 32.5377 15.3231 32.6316C14.7852 32.7248 14.2611 32.7953 13.6949 32.8232C13.4656 32.8346 13.2705 32.6577 13.2603 32.4286C13.2487 32.1999 13.4248 32.0049 13.6541 31.9941L13.6606 31.9932H13.6752Z" fill="#231F20"/>
<path d="M11.0469 34.4395C11.0469 34.4395 15.9368 38.8614 20.8842 39.4235C25.8316 39.9839 29.9776 39.1366 31.1982 36.8816C25.9029 40.4081 16.669 37.7247 13.6847 34.4483C14.104 33.1723 14.053 33.0887 14.0181 32.8297C13.839 32.6664 11.5098 33.9542 11.5098 33.9542L11.0469 34.4395Z" fill="#D69861"/>
<path d="M7.96289 32.1999C7.96362 31.4314 8.38289 30.5527 10.7085 30.5201C10.7085 30.5201 14.0341 30.4552 14.1317 32.1023C14.2285 33.7494 11.8381 35.1703 11.0477 35.1384C10.2564 35.1057 7.96071 33.9599 7.96289 32.1999Z" fill="#040606"/>
<path d="M10.6207 31.3615C10.6658 31.577 10.2203 31.8536 9.62493 31.9778C9.03025 32.1032 8.51054 32.0291 8.46614 31.8121C8.42028 31.5957 8.86575 31.3194 9.46115 31.194C10.0558 31.0697 10.5755 31.1445 10.6207 31.3615Z" fill="#AA86B2"/>
<path d="M31.571 37.0663C31.3315 37.5358 30.9872 37.9434 30.5956 38.271C30.2033 38.5994 29.7666 38.8528 29.3182 39.0558C28.4171 39.4598 27.4701 39.6745 26.526 39.8055C25.5798 39.9363 24.6314 39.9736 23.6866 39.9597C23.2135 39.9517 22.7425 39.9292 22.2709 39.8905C21.7992 39.8505 21.3319 39.8024 20.8537 39.716L20.6717 39.6781L20.5006 39.6344L20.1571 39.5462C19.93 39.4851 19.6985 39.4333 19.4736 39.3651L18.7981 39.1524C18.686 39.1161 18.5718 39.0842 18.4619 39.0433L18.1299 38.9204C17.9094 38.8379 17.6874 38.7587 17.4683 38.6722L16.8176 38.3955C16.5992 38.3069 16.3889 38.2019 16.1763 38.1002C15.9652 37.9958 15.749 37.9028 15.5438 37.7877C14.7045 37.3606 13.901 36.867 13.1265 36.3356C12.352 35.7985 11.6125 35.2264 10.9261 34.5625L10.8613 34.5L10.8773 34.4104L11.2187 32.5384C11.234 32.4545 11.3141 32.3999 11.3963 32.4153C11.4786 32.4297 11.5332 32.5085 11.5201 32.5899L11.2194 34.4687L11.1707 34.3171C11.8374 34.9345 12.5871 35.4914 13.3543 35.9987C14.1266 36.503 14.9244 36.9696 15.7541 37.3691C15.9579 37.4783 16.1719 37.565 16.3801 37.6625C16.5905 37.7578 16.7979 37.8553 17.0141 37.9378L17.6546 38.194C17.8708 38.2738 18.0885 38.3461 18.3054 38.4225L18.6307 38.5351C18.7406 38.5724 18.8513 38.6014 18.9619 38.6344L19.6236 38.8263C19.8441 38.8892 20.0705 38.9341 20.2932 38.9887L20.6288 39.0674L20.7962 39.1067L20.957 39.1365C21.3967 39.2065 21.8581 39.2448 22.3145 39.2741C22.7731 39.3012 23.2324 39.3128 23.691 39.3105C24.6074 39.3046 25.5245 39.2479 26.422 39.103C27.3173 38.9611 28.2009 38.7353 28.9936 38.3577C29.7833 37.9844 30.4762 37.4311 30.8285 36.6958C30.9275 36.4885 31.1757 36.4013 31.3825 36.5002C31.5892 36.5992 31.6765 36.8474 31.5775 37.0541L31.5739 37.062L31.571 37.0663Z" fill="#040606"/>
<path d="M15.3421 32.9155C14.457 33.2423 15.6566 33.3412 16.268 33.2465C16.8809 33.1527 23.7586 31.9218 23.359 28.6034C23.0591 26.1281 22.6537 28.8576 21.7249 29.9253C19.5667 32.4081 15.3421 32.9155 15.3421 32.9155Z" fill="#FCD4AE"/>
<path d="M10.6387 52.9044C10.6387 52.9044 10.9291 51.6678 11.6322 51.5499C12.3346 51.4319 12.5741 51.6213 12.478 51.7617C12.3812 51.903 11.6519 51.8549 11.4161 52.2087C11.1802 52.5623 10.7566 53.3406 10.6387 52.9044Z" fill="#FCD4AE"/>
<path d="M13.8809 52.6808C13.8809 52.6808 13.9354 51.691 14.5716 51.4087C15.2078 51.1261 15.7733 51.0547 15.844 51.2907C15.9146 51.5264 14.8548 51.3845 14.525 52.0447C14.1953 52.704 14.0148 53.1985 13.8809 52.6808Z" fill="#FCD4AE"/>
<path d="M13.2037 50.163C13.2037 50.163 13.9818 49.3945 14.4491 49.4477C14.9178 49.5 15.1559 49.8451 15.0416 49.9245C14.9266 50.0038 14.6609 49.589 14.4054 49.7039C14.1492 49.8181 12.9387 50.5693 13.2037 50.163Z" fill="#FCD4AE"/>
<path d="M21.1851 48.8575C21.1851 48.8575 22.2805 48.3974 22.9167 48.6266C22.9873 49.7753 23.1088 51.5426 23.1088 51.5426C23.1088 51.5426 21.8569 51.8955 20.832 51.5426C20.9732 50.4472 21.1851 48.8575 21.1851 48.8575Z" fill="#C1C0B8"/>
<path d="M21.2125 51.2893C21.7846 51.4107 22.399 51.3336 22.7425 51.2697C22.7083 50.771 22.6385 49.738 22.5868 48.9121C22.2629 48.8887 21.8203 48.9956 21.5 49.1071C21.4455 49.5191 21.3181 50.4793 21.2125 51.2893ZM21.8785 52.0457C21.5081 52.0457 21.1012 52.0018 20.7183 51.8694L20.4512 51.7778L20.4876 51.498C20.6295 50.4028 20.842 48.8117 20.842 48.8117L20.8675 48.6149L21.0509 48.5379C21.1754 48.4861 22.292 48.0334 23.033 48.3019L23.247 48.3784L23.2608 48.6064C23.3307 49.7403 23.4515 51.5011 23.453 51.5185L23.4726 51.7994L23.2018 51.8753C23.1654 51.8861 22.5868 52.0457 21.8785 52.0457Z" fill="#353436"/>
<path d="M27.404 48.6266C27.404 48.6266 28.779 48.117 29.3103 48.5575C29.3475 49.2461 29.5978 51.2595 29.5978 51.2595C29.5978 51.2595 28.1814 51.79 27.0859 51.0476L27.404 48.6266Z" fill="#C1C0B8"/>
<path d="M27.4573 50.8671C28.0964 51.1989 28.8359 51.0977 29.2173 51.009C29.154 50.4807 29.0237 49.3755 28.9764 48.765C28.691 48.6658 28.1371 48.7591 27.7186 48.8865L27.4573 50.8671ZM28.4807 51.79C27.9857 51.79 27.4114 51.6868 26.891 51.3342L26.7148 51.2143L27.0875 48.3756L27.2826 48.3028C27.5439 48.2061 28.8781 47.7503 29.5303 48.2911L29.6467 48.3881L29.6555 48.5393C29.6911 49.2074 29.9379 51.1969 29.9408 51.2171L29.9736 51.488L29.7188 51.5842C29.681 51.5978 29.1547 51.79 28.4807 51.79Z" fill="#353436"/>
<path d="M36.2559 22.7715C36.7333 23.0724 37.4314 22.1975 37.4314 22.1975C37.4314 22.1975 37.5369 22.8424 37.387 23.825C37.5639 23.6197 38.5181 24.0112 38.5181 24.0112C38.5181 24.0112 37.8281 24.0303 37.8113 24.1605C37.7939 24.2916 38.6236 24.4545 38.6593 24.7442C38.2524 24.5733 38.2204 24.9444 38.2204 24.9444C38.2204 24.9444 38.4642 24.9444 38.6593 25.2975C38.2706 25.1562 38.8275 25.8187 38.8275 25.8187C38.8275 25.8187 38.8398 25.9867 38.5814 25.8187C38.818 26.1636 39.0473 26.4641 39.4542 26.5167C39.1536 26.6404 39.0262 26.6046 39.0262 26.6046C39.0262 26.6046 39.7373 26.8173 39.8603 27.0115C39.401 26.8704 39.436 27.2591 39.436 27.2591C39.436 27.2591 39.9666 27.2008 39.9666 27.5306C39.666 27.4004 39.6834 27.792 39.6834 27.792L40.0372 28.0387L39.8953 28.3719L38.8886 28.5334L36.2559 22.7715Z" fill="#4C2A20"/>
</g>
<path d="M34.8642 34.0223C34.8642 34.7567 33.942 35.3516 32.8036 35.3516C31.6651 35.3516 30.7422 34.7567 30.7422 34.0223C30.7422 33.2879 31.6651 32.6933 32.8036 32.6933C33.942 32.6933 34.8642 33.2879 34.8642 34.0223Z" fill="#F8A185"/>
<path d="M74.5088 14.2621C73.2809 14.8771 72.93 16.3678 73.1229 17.7019C73.4032 19.807 75.2105 20.5452 76.9829 20.2816C78.1766 20.1235 79.6855 19.1409 80.1252 18.8955C82.5636 19.3339 84.1787 23.5636 79.6855 25.6693C77.8432 26.5289 74.7723 26.4425 72.7888 25.9147C69.7354 25.1248 67.84 23.1763 66.9636 20.229C66.3835 18.1582 66.3311 16.0525 67.0335 14.0159C67.8225 11.6823 69.7354 9.9275 71.5791 9.10266C73.9127 8.0495 78.0718 7.66372 81.8095 9.82261C82.7048 13.1737 79.5807 14.9467 77.2638 14.0159C76.2288 13.7358 75.3692 13.8236 74.5088 14.2621Z" fill="#AA86B2"/>
<path d="M94.9722 14.3847C94.3397 14.4205 93.9022 14.4546 93.8309 14.4546C93.9546 17.7017 93.8134 23.1594 93.4801 25.5642C91.9537 27.1963 88.0399 26.5995 87.2676 22.5808C87.0922 21.5973 86.9342 17.754 86.9691 14.4546C85.7936 14.5252 84.4776 14.5428 83.3188 14.3324C82.1782 12.8758 82.4235 8.78664 85.8111 8.57555C88.0755 8.45327 95.5683 8.54134 97.5867 8.52314C98.5344 9.75188 98.9908 14.1387 94.9722 14.3847Z" fill="#AA86B2"/>
<path d="M105.469 16.0699C105.541 15.9286 105.627 15.8055 105.698 15.6832C106.978 13.3671 108.541 10.5068 109.366 9.10245C111.348 7.94447 115.702 8.08495 115.929 11.7171C116.105 14.5601 115.877 22.2822 115.702 25.4232C112.683 27.3885 109.628 25.9668 109.489 23.2998C109.436 22.2298 109.506 21.6154 109.577 19.4392L109.436 19.4215C109.366 19.5265 109.295 19.6146 109.225 19.7374C108.822 20.3687 106.383 24.5984 105.768 25.581C102.89 27.4413 99.5029 25.8977 99.0822 22.3871C98.7488 19.562 98.8885 11.314 98.9766 9.40095C100.82 7.4182 105.118 8.45325 105.365 10.9454C105.557 12.9283 105.399 13.5775 105.399 16.0341L105.469 16.0699Z" fill="#AA86B2"/>
<path d="M133.936 24.0016C133.27 26.3182 128.091 27.6518 127.215 23.6158C126.442 19.9655 125.811 16.1746 125.547 14.1047C125.495 14.1047 125.442 14.1047 125.372 14.1047C125.038 15.5255 124.705 16.9468 124.372 18.4216C123.775 20.9655 123.056 24.8969 122.792 25.8446C118.335 27.4772 116.264 24.6515 117.053 20.545C117.755 16.9118 119.756 11.0154 120.915 8.75172C123.423 7.9445 128.828 6.80319 130.9 11.8227C131.883 14.2093 133.234 20.2288 133.936 24.0016Z" fill="#AA86B2"/>
<path d="M144.047 19.7027C144.047 19.018 143.802 18.6495 143.275 18.544C142.854 18.4741 142.398 18.4917 141.959 18.4917C141.889 18.4917 141.766 18.6313 141.766 18.7027C141.748 19.3171 141.748 19.807 141.748 20.5451C142.907 21.2466 144.047 20.4402 144.047 19.7027ZM147.539 14.7358C151.049 17.3686 150.366 23.124 147.575 25.0025C144.066 27.371 136.66 26.2834 135.133 24.8089C134.571 22.6864 134.747 10.7688 135.044 9.2081C137.502 7.27717 141.152 8.52331 141.292 10.5766C141.415 12.4028 141.344 13.3317 141.344 13.6482L141.362 13.6826L141.432 13.7181L141.467 13.7008C141.731 13.5427 144.889 12.7364 147.539 14.7358Z" fill="#AA86B2"/>
<path d="M161.194 14.5962C161.247 12.63 161.212 10.1908 161.37 9.24312C163.529 7.52321 167.811 8.61139 167.811 11.9633C167.811 13.7181 167.811 19.3171 167.793 23.7739C167.793 24.3881 167.775 25.2312 167.74 25.6335C166.951 26.5115 161.72 27.1438 161.317 23.9494C161.194 23.0373 161.159 21.0188 161.159 20.264C160.036 20.264 159.036 20.264 157.877 20.264C157.877 21.9842 157.877 23.8263 157.877 25.6525C156.912 26.5288 151.665 27.4941 151.367 23.1763C151.225 21.2466 151.016 12.7006 151.225 9.5061C153.56 7.57635 157.508 8.54152 157.773 11.2084C157.93 12.7531 157.825 14.4207 157.825 14.5962C158.984 14.5962 160.071 14.5962 161.194 14.5962Z" fill="#AA86B2"/>
<path d="M185.836 9.22492C185.255 11.3664 185.467 20.8966 185.765 22.4578C186.521 26.4234 190.38 26.9852 191.837 25.3884C192.259 22.4405 192.364 14.1048 192.031 11.9982C191.381 7.78597 187.45 7.78598 185.836 9.22492ZM178.483 19.8426C178.483 19.1585 178.237 18.7726 177.693 18.6845C177.271 18.5964 176.832 18.6146 176.394 18.6146C176.324 18.6146 176.184 18.755 176.184 18.8249C176.165 19.4394 176.184 19.9307 176.184 20.668C177.324 21.3697 178.483 20.5625 178.483 19.8426ZM181.975 14.8589C185.484 17.4915 184.8 23.2644 182.009 25.1248C178.483 27.4941 171.094 26.4234 169.567 24.9321C168.989 22.8087 169.181 10.8925 169.479 9.33127C171.937 7.4002 175.57 8.64633 175.709 10.6997C175.832 12.5251 175.78 13.4722 175.78 13.7713L175.797 13.8063L175.867 13.8404H175.903C176.148 13.6658 179.307 12.876 181.975 14.8589Z" fill="#AA86B2"/>
<path d="M206.686 1.32802C208.335 1.50417 209.511 4.11873 207.756 5.76738C205.809 7.62857 201.439 8.11988 197.367 7.24279C196.209 5.92605 196.472 3.01234 199.245 3.04801C201.387 3.04801 204.106 3.52113 206.686 1.32802ZM200.701 16.0699C200.789 15.9286 200.86 15.8055 200.93 15.6832C202.211 13.3671 203.773 10.5068 204.598 9.10245C206.58 7.94447 210.934 8.08495 211.179 11.7171C211.354 14.5601 211.108 22.2822 210.95 25.4232C207.914 27.3885 204.86 25.9668 204.738 23.2998C204.686 22.2298 204.755 21.6154 204.809 19.4392L204.686 19.4215C204.598 19.5265 204.527 19.6146 204.457 19.7374C204.054 20.3687 201.631 24.5984 201 25.581C198.122 27.4413 194.735 25.8977 194.314 22.3871C193.997 19.562 194.12 11.314 194.208 9.40095C196.051 7.4182 200.351 8.45325 200.596 10.9454C200.789 12.9283 200.631 13.5775 200.631 16.0341L200.701 16.0699Z" fill="#AA86B2"/>
<path d="M78.4703 33.8368C77.2948 33.5906 76.6273 32.8365 76.505 31.6953C76.4694 31.2398 76.4876 30.7302 76.5749 30.2568C76.6987 29.3618 77.2598 28.7482 78.1544 28.5014C78.7869 28.256 79.418 28.2204 80.1029 28.3959C81.419 28.6774 82.2436 29.8004 82.1039 31.1689C82.1039 31.5897 82.0151 31.9944 81.8753 32.362C81.4895 33.3802 80.5768 33.9772 79.3299 33.9772C79.0322 33.9246 78.7513 33.9073 78.4703 33.8368ZM71.0117 33.8368C69.8536 33.5906 69.2211 32.8365 69.0646 31.6953C69.0115 31.2398 69.0464 30.7302 69.117 30.2568C69.275 29.3618 69.8537 28.7482 70.7315 28.5014C71.364 28.256 71.9951 28.2204 72.6436 28.3959C73.9953 28.6774 74.8375 29.8004 74.6977 31.1689C74.6446 31.5897 74.5922 31.9944 74.4691 32.362C74.0834 33.3802 73.1182 33.9772 71.907 33.9772C71.6093 33.9246 71.2759 33.9073 71.0117 33.8368ZM68.9234 35.17C71.8895 34.8891 78.5758 34.9599 81.7174 35.2058C82.3841 36.1185 82.8405 40.5222 78.5759 40.5222C77.5925 40.5222 77.2074 40.5222 74.9255 40.5222C74.9255 40.7864 74.9255 41.1025 74.9255 41.4176C75.9438 41.4176 78.8743 41.2422 80.3832 41.7508C81.4189 44.1027 80.6117 46.1567 78.0139 46.2617C77.1019 46.3321 76.5931 46.2617 74.9255 46.2617C74.9255 46.6657 74.9255 46.999 74.9255 47.3489C75.0311 47.3489 75.2065 47.3489 75.3288 47.3489C77.2424 47.3489 79.1203 47.3489 81.0332 47.3489C82.3841 49.2451 81.9103 52.3161 78.5402 52.7543C77.1019 52.9829 72.4158 53.0011 71.1697 52.6494C69.5021 52.2639 68.7837 51.0526 68.6257 48.6483C68.4852 46.2258 68.5376 38.172 68.9234 35.17Z" fill="#AA86B2"/>
<path d="M106.658 50.0701C106.517 52.5616 102.305 54.8079 100.217 50.8415C99.796 50.0701 99.1118 48.4198 98.4974 46.9635C98.4261 48.9288 98.2864 50.7892 98.1284 51.9305C96.6188 53.5443 92.7232 52.9299 91.9866 48.912C91.8985 48.4907 91.8286 47.5253 91.7929 46.2968C90.8445 48.508 89.4237 51.8067 89.0903 52.5798C84.247 53.7726 83.5621 50.2628 83.9835 48.7707C84.5105 46.9635 85.5455 45.6124 86.1424 44.367C86.2123 44.2251 86.1766 43.9798 86.1075 43.8402C85.1241 41.7867 84.124 39.7327 83.1406 37.6799C83.5279 35.206 88.0371 34.0306 89.2832 36.3814C90.1778 38.0657 91.0913 40.2073 91.7405 41.8391C91.758 39.3652 91.881 36.9958 92.1438 36.0305C93.8113 34.5734 97.795 34.5916 98.4261 38.8906C98.4974 39.4174 98.5499 40.2778 98.5673 41.3304C99.392 39.4706 100.533 37.0658 101.726 35.1528C103.903 34.3638 107.289 36.0481 106.149 39.3475C105.64 40.8391 104.815 42.0145 103.937 43.8226C103.867 43.9798 103.832 44.2084 103.903 44.3488C104.481 45.6124 105.973 48.3152 106.658 50.0701Z" fill="#AA86B2"/>
<path d="M131.355 43.5627C131.355 48.5183 127.337 52.5347 122.382 52.5347C117.427 52.5347 113.41 48.5183 113.41 43.5627C113.41 38.608 117.427 34.591 122.382 34.591C127.337 34.591 131.355 38.608 131.355 43.5627Z" fill="#AA86B2"/>
<path d="M157.984 43.5627C157.984 48.5183 153.966 52.5347 149.011 52.5347C144.056 52.5347 140.039 48.5183 140.039 43.5627C140.039 38.608 144.056 34.591 149.011 34.591C153.966 34.591 157.984 38.608 157.984 43.5627Z" fill="#AA86B2"/>
<path d="M184.612 43.5627C184.612 48.5183 180.595 52.5347 175.64 52.5347C170.685 52.5347 166.668 48.5183 166.668 43.5627C166.668 38.608 170.685 34.591 175.64 34.591C180.595 34.591 184.612 38.608 184.612 43.5627Z" fill="#AA86B2"/>
<path d="M211.239 43.5627C211.239 48.5183 207.221 52.5347 202.266 52.5347C197.312 52.5347 193.295 48.5183 193.295 43.5627C193.295 38.608 197.312 34.591 202.266 34.591C207.221 34.591 211.239 38.608 211.239 43.5627Z" fill="#AA86B2"/>
</svg>
