<svg width="1439" height="61" viewBox="0 0 1439 61" fill="none" xmlns="http://www.w3.org/2000/svg">
<rect y="0.941406" width="1440" height="60" fill="#53ADB4"/>
<path d="M63.624 33.0694C63.6667 33.0641 63.7067 33.0721 63.744 33.0934C63.7867 33.1147 63.8213 33.1387 63.848 33.1654L64.376 33.7334C64.072 34.0907 63.6987 34.3681 63.256 34.5654C62.8133 34.7574 62.2827 34.8534 61.664 34.8534C61.136 34.8534 60.656 34.7627 60.224 34.5814C59.7973 34.3947 59.432 34.1387 59.128 33.8134C58.824 33.4827 58.5867 33.0934 58.416 32.6454C58.2507 32.1974 58.168 31.7067 58.168 31.1734C58.168 30.6347 58.2587 30.1414 58.44 29.6934C58.6267 29.2401 58.8827 28.8534 59.208 28.5334C59.5333 28.2081 59.9173 27.9547 60.36 27.7734C60.808 27.5921 61.2933 27.5014 61.816 27.5014C62.3973 27.5014 62.8933 27.5947 63.304 27.7814C63.7147 27.9681 64.0693 28.2107 64.368 28.5094L63.96 29.0854C63.9333 29.1174 63.896 29.1521 63.848 29.1894C63.8053 29.2214 63.7493 29.2374 63.68 29.2374C63.6 29.2374 63.5173 29.2081 63.432 29.1494C63.352 29.0907 63.248 29.0267 63.12 28.9574C62.992 28.8881 62.832 28.8241 62.64 28.7654C62.448 28.7067 62.2 28.6774 61.896 28.6774C61.5333 28.6774 61.208 28.7361 60.92 28.8534C60.632 28.9707 60.3867 29.1387 60.184 29.3574C59.9813 29.5707 59.8267 29.8321 59.72 30.1414C59.6133 30.4454 59.56 30.7894 59.56 31.1734C59.56 31.5734 59.6133 31.9281 59.72 32.2374C59.832 32.5467 59.984 32.8081 60.176 33.0214C60.3733 33.2347 60.6053 33.3974 60.872 33.5094C61.1387 33.6161 61.4293 33.6694 61.744 33.6694C62.016 33.6694 62.2427 33.6481 62.424 33.6054C62.6053 33.5627 62.7627 33.5121 62.896 33.4534C63.0347 33.3894 63.1573 33.3227 63.264 33.2534C63.376 33.1841 63.496 33.1227 63.624 33.0694ZM55.776 31.1974C55.776 30.6587 55.8453 30.1387 55.984 29.6374C56.1227 29.1361 56.32 28.6694 56.576 28.2374C56.832 27.8054 57.1387 27.4107 57.496 27.0534C57.8533 26.6961 58.248 26.3894 58.68 26.1334C59.112 25.8774 59.576 25.6801 60.072 25.5414C60.5733 25.4027 61.0933 25.3334 61.632 25.3334C62.4427 25.3334 63.2027 25.4881 63.912 25.7974C64.6267 26.1014 65.248 26.5201 65.776 27.0534C66.3093 27.5814 66.728 28.2027 67.032 28.9174C67.3413 29.6267 67.496 30.3867 67.496 31.1974C67.496 32.0081 67.3413 32.7681 67.032 33.4774C66.728 34.1867 66.3093 34.8081 65.776 35.3414C65.248 35.8694 64.6267 36.2881 63.912 36.5974C63.2027 36.9014 62.4427 37.0534 61.632 37.0534C61.0933 37.0534 60.5733 36.9841 60.072 36.8454C59.576 36.7067 59.112 36.5094 58.68 36.2534C58.248 35.9974 57.8533 35.6934 57.496 35.3414C57.1387 34.9841 56.832 34.5894 56.576 34.1574C56.32 33.7201 56.1227 33.2534 55.984 32.7574C55.8453 32.2561 55.776 31.7361 55.776 31.1974ZM56.648 31.1974C56.648 31.6667 56.7067 32.1201 56.824 32.5574C56.9413 32.9894 57.1067 33.3947 57.32 33.7734C57.5333 34.1467 57.792 34.4881 58.096 34.7974C58.4 35.1014 58.736 35.3627 59.104 35.5814C59.472 35.8001 59.8693 35.9707 60.296 36.0934C60.7227 36.2107 61.168 36.2694 61.632 36.2694C62.096 36.2694 62.5413 36.2107 62.968 36.0934C63.4 35.9707 63.8027 35.8001 64.176 35.5814C64.5493 35.3627 64.888 35.1014 65.192 34.7974C65.496 34.4881 65.7547 34.1467 65.968 33.7734C66.1867 33.3947 66.3547 32.9894 66.472 32.5574C66.5893 32.1254 66.648 31.6721 66.648 31.1974C66.648 30.7227 66.5893 30.2667 66.472 29.8294C66.3547 29.3921 66.1867 28.9841 65.968 28.6054C65.7547 28.2267 65.496 27.8827 65.192 27.5734C64.888 27.2641 64.5493 27.0001 64.176 26.7814C63.8027 26.5574 63.4 26.3867 62.968 26.2694C62.5413 26.1467 62.096 26.0854 61.632 26.0854C61.168 26.0854 60.7227 26.1467 60.296 26.2694C59.8693 26.3867 59.472 26.5574 59.104 26.7814C58.736 27.0001 58.4 27.2641 58.096 27.5734C57.792 27.8827 57.5333 28.2267 57.32 28.6054C57.1067 28.9841 56.9413 29.3921 56.824 29.8294C56.7067 30.2667 56.648 30.7227 56.648 31.1974ZM80.2161 35.4614C80.3868 35.4614 80.5201 35.5121 80.6161 35.6134C80.7121 35.7094 80.7601 35.8374 80.7601 35.9974V36.9414H73.0481V36.4054C73.0481 36.2987 73.0695 36.1867 73.1121 36.0694C73.1548 35.9467 73.2268 35.8374 73.3281 35.7414L76.9601 32.1014C77.2641 31.7974 77.5388 31.5041 77.7841 31.2214C78.0295 30.9387 78.2375 30.6587 78.4081 30.3814C78.5788 30.0987 78.7095 29.8107 78.8001 29.5174C78.8961 29.2241 78.9441 28.9147 78.9441 28.5894C78.9441 28.2694 78.8935 27.9894 78.7921 27.7494C78.6908 27.5041 78.5521 27.3014 78.3761 27.1414C78.2001 26.9814 77.9921 26.8614 77.7521 26.7814C77.5121 26.7014 77.2535 26.6614 76.9761 26.6614C76.6988 26.6614 76.4428 26.7014 76.2081 26.7814C75.9788 26.8614 75.7735 26.9734 75.5921 27.1174C75.4108 27.2614 75.2588 27.4321 75.1361 27.6294C75.0135 27.8267 74.9255 28.0401 74.8721 28.2694C74.7975 28.4721 74.7015 28.6081 74.5841 28.6774C74.4721 28.7467 74.3068 28.7627 74.0881 28.7254L73.2721 28.5814C73.3468 28.0481 73.4935 27.5787 73.7121 27.1734C73.9308 26.7681 74.2055 26.4294 74.5361 26.1574C74.8668 25.8801 75.2455 25.6721 75.6721 25.5334C76.1041 25.3947 76.5681 25.3254 77.0641 25.3254C77.5655 25.3254 78.0268 25.4001 78.4481 25.5494C78.8748 25.6934 79.2428 25.9041 79.5521 26.1814C79.8615 26.4587 80.1041 26.7974 80.2801 27.1974C80.4561 27.5921 80.5441 28.0401 80.5441 28.5414C80.5441 28.9681 80.4801 29.3654 80.3521 29.7334C80.2295 30.0961 80.0588 30.4427 79.8401 30.7734C79.6268 31.1041 79.3761 31.4267 79.0881 31.7414C78.8055 32.0507 78.5041 32.3654 78.1841 32.6854L75.2721 35.6614C75.4961 35.6027 75.7201 35.5547 75.9441 35.5174C76.1735 35.4801 76.3895 35.4614 76.5921 35.4614H80.2161ZM90.4254 31.1974C90.4254 32.2001 90.316 33.0694 90.0974 33.8054C89.884 34.5414 89.588 35.1521 89.2094 35.6374C88.836 36.1174 88.3934 36.4747 87.8814 36.7094C87.3747 36.9441 86.828 37.0614 86.2414 37.0614C85.6547 37.0614 85.1054 36.9441 84.5934 36.7094C84.0867 36.4747 83.6467 36.1174 83.2734 35.6374C82.9 35.1521 82.6067 34.5414 82.3934 33.8054C82.18 33.0694 82.0734 32.2001 82.0734 31.1974C82.0734 30.1947 82.18 29.3254 82.3934 28.5894C82.6067 27.8481 82.9 27.2374 83.2734 26.7574C83.6467 26.2721 84.0867 25.9121 84.5934 25.6774C85.1054 25.4427 85.6547 25.3254 86.2414 25.3254C86.828 25.3254 87.3747 25.4427 87.8814 25.6774C88.3934 25.9121 88.836 26.2721 89.2094 26.7574C89.588 27.2374 89.884 27.8481 90.0974 28.5894C90.316 29.3254 90.4254 30.1947 90.4254 31.1974ZM88.8094 31.1974C88.8094 30.3334 88.7374 29.6107 88.5934 29.0294C88.4547 28.4481 88.2654 27.9814 88.0254 27.6294C87.7907 27.2721 87.5187 27.0187 87.2094 26.8694C86.9 26.7201 86.5774 26.6454 86.2414 26.6454C85.9054 26.6454 85.5827 26.7201 85.2734 26.8694C84.964 27.0187 84.6894 27.2721 84.4494 27.6294C84.2147 27.9814 84.028 28.4481 83.8894 29.0294C83.7507 29.6107 83.6814 30.3334 83.6814 31.1974C83.6814 32.0614 83.7507 32.7841 83.8894 33.3654C84.028 33.9467 84.2147 34.4134 84.4494 34.7654C84.6894 35.1174 84.964 35.3681 85.2734 35.5174C85.5827 35.6667 85.9054 35.7414 86.2414 35.7414C86.5774 35.7414 86.9 35.6667 87.2094 35.5174C87.5187 35.3681 87.7907 35.1174 88.0254 34.7654C88.2654 34.4134 88.4547 33.9467 88.5934 33.3654C88.7374 32.7841 88.8094 32.0614 88.8094 31.1974ZM98.7786 35.4614C98.9493 35.4614 99.0826 35.5121 99.1786 35.6134C99.2746 35.7094 99.3226 35.8374 99.3226 35.9974V36.9414H91.6106V36.4054C91.6106 36.2987 91.632 36.1867 91.6746 36.0694C91.7173 35.9467 91.7893 35.8374 91.8906 35.7414L95.5226 32.1014C95.8266 31.7974 96.1013 31.5041 96.3466 31.2214C96.592 30.9387 96.8 30.6587 96.9706 30.3814C97.1413 30.0987 97.272 29.8107 97.3626 29.5174C97.4586 29.2241 97.5066 28.9147 97.5066 28.5894C97.5066 28.2694 97.456 27.9894 97.3546 27.7494C97.2533 27.5041 97.1146 27.3014 96.9386 27.1414C96.7626 26.9814 96.5546 26.8614 96.3146 26.7814C96.0746 26.7014 95.816 26.6614 95.5386 26.6614C95.2613 26.6614 95.0053 26.7014 94.7706 26.7814C94.5413 26.8614 94.336 26.9734 94.1546 27.1174C93.9733 27.2614 93.8213 27.4321 93.6986 27.6294C93.576 27.8267 93.488 28.0401 93.4346 28.2694C93.36 28.4721 93.264 28.6081 93.1466 28.6774C93.0346 28.7467 92.8693 28.7627 92.6506 28.7254L91.8346 28.5814C91.9093 28.0481 92.056 27.5787 92.2746 27.1734C92.4933 26.7681 92.768 26.4294 93.0986 26.1574C93.4293 25.8801 93.808 25.6721 94.2346 25.5334C94.6666 25.3947 95.1306 25.3254 95.6266 25.3254C96.128 25.3254 96.5893 25.4001 97.0106 25.5494C97.4373 25.6934 97.8053 25.9041 98.1146 26.1814C98.424 26.4587 98.6666 26.7974 98.8426 27.1974C99.0186 27.5921 99.1066 28.0401 99.1066 28.5414C99.1066 28.9681 99.0426 29.3654 98.9146 29.7334C98.792 30.0961 98.6213 30.4427 98.4026 30.7734C98.1893 31.1041 97.9386 31.4267 97.6506 31.7414C97.368 32.0507 97.0666 32.3654 96.7466 32.6854L93.8346 35.6614C94.0586 35.6027 94.2826 35.5547 94.5066 35.5174C94.736 35.4801 94.952 35.4614 95.1546 35.4614H98.7786ZM101.164 28.5814C101.244 28.0481 101.393 27.5787 101.612 27.1734C101.831 26.7681 102.105 26.4294 102.436 26.1574C102.767 25.8801 103.145 25.6721 103.572 25.5334C104.004 25.3947 104.468 25.3254 104.964 25.3254C105.46 25.3254 105.916 25.3974 106.332 25.5414C106.748 25.6801 107.103 25.8801 107.396 26.1414C107.695 26.3974 107.927 26.7067 108.092 27.0694C108.257 27.4321 108.34 27.8321 108.34 28.2694C108.34 28.6374 108.295 28.9627 108.204 29.2454C108.113 29.5281 107.983 29.7761 107.812 29.9894C107.647 30.2027 107.444 30.3841 107.204 30.5334C106.964 30.6774 106.695 30.7974 106.396 30.8934C107.127 31.0961 107.676 31.4267 108.044 31.8854C108.412 32.3387 108.596 32.9147 108.596 33.6134C108.596 34.1521 108.495 34.6374 108.292 35.0694C108.089 35.4961 107.812 35.8587 107.46 36.1574C107.108 36.4507 106.697 36.6774 106.228 36.8374C105.764 36.9921 105.268 37.0694 104.74 37.0694C104.137 37.0694 103.62 36.9974 103.188 36.8534C102.756 36.7041 102.388 36.4987 102.084 36.2374C101.78 35.9707 101.527 35.6534 101.324 35.2854C101.127 34.9121 100.959 34.5041 100.82 34.0614L101.5 33.7734C101.676 33.6987 101.847 33.6774 102.012 33.7094C102.177 33.7414 102.297 33.8347 102.372 33.9894C102.452 34.1494 102.543 34.3307 102.644 34.5334C102.751 34.7307 102.892 34.9201 103.068 35.1014C103.244 35.2774 103.463 35.4267 103.724 35.5494C103.991 35.6721 104.324 35.7334 104.724 35.7334C105.108 35.7334 105.444 35.6721 105.732 35.5494C106.02 35.4214 106.26 35.2587 106.452 35.0614C106.644 34.8587 106.788 34.6347 106.884 34.3894C106.98 34.1441 107.028 33.9014 107.028 33.6614C107.028 33.3627 106.991 33.0881 106.916 32.8374C106.841 32.5867 106.697 32.3734 106.484 32.1974C106.276 32.0161 105.985 31.8747 105.612 31.7734C105.239 31.6721 104.753 31.6214 104.156 31.6214V30.4854C104.647 30.4801 105.06 30.4294 105.396 30.3334C105.737 30.2374 106.012 30.1041 106.22 29.9334C106.428 29.7627 106.577 29.5601 106.668 29.3254C106.764 29.0907 106.812 28.8294 106.812 28.5414C106.812 28.2267 106.764 27.9521 106.668 27.7174C106.572 27.4827 106.436 27.2881 106.26 27.1334C106.089 26.9734 105.884 26.8561 105.644 26.7814C105.409 26.7014 105.153 26.6614 104.876 26.6614C104.599 26.6614 104.343 26.7014 104.108 26.7814C103.873 26.8614 103.665 26.9734 103.484 27.1174C103.303 27.2614 103.151 27.4321 103.028 27.6294C102.905 27.8267 102.817 28.0401 102.764 28.2694C102.689 28.4721 102.593 28.6081 102.476 28.6774C102.364 28.7467 102.201 28.7627 101.988 28.7254L101.164 28.5814ZM115.044 32.1894C115.044 31.7574 115.124 31.3521 115.284 30.9734C115.449 30.5947 115.671 30.2641 115.948 29.9814C116.231 29.6987 116.559 29.4774 116.932 29.3174C117.305 29.1521 117.705 29.0694 118.132 29.0694C118.559 29.0694 118.961 29.1521 119.34 29.3174C119.719 29.4774 120.047 29.6987 120.324 29.9814C120.607 30.2641 120.828 30.5947 120.988 30.9734C121.153 31.3521 121.236 31.7574 121.236 32.1894C121.236 32.6161 121.153 33.0161 120.988 33.3894C120.828 33.7627 120.607 34.0907 120.324 34.3734C120.047 34.6561 119.719 34.8801 119.34 35.0454C118.961 35.2054 118.559 35.2854 118.132 35.2854C117.705 35.2854 117.305 35.2054 116.932 35.0454C116.559 34.8801 116.231 34.6561 115.948 34.3734C115.671 34.0907 115.449 33.7627 115.284 33.3894C115.124 33.0161 115.044 32.6161 115.044 32.1894ZM136.268 34.4774C136.364 34.4774 136.447 34.5147 136.516 34.5894L137.188 35.3254C136.719 35.8801 136.145 36.3094 135.468 36.6134C134.796 36.9174 133.985 37.0694 133.036 37.0694C132.204 37.0694 131.449 36.9254 130.772 36.6374C130.1 36.3494 129.524 35.9467 129.044 35.4294C128.569 34.9121 128.201 34.2934 127.94 33.5734C127.679 32.8534 127.548 32.0614 127.548 31.1974C127.548 30.3334 127.684 29.5414 127.956 28.8214C128.233 28.1014 128.62 27.4827 129.116 26.9654C129.612 26.4481 130.204 26.0454 130.892 25.7574C131.585 25.4694 132.351 25.3254 133.188 25.3254C134.004 25.3254 134.729 25.4587 135.364 25.7254C135.999 25.9921 136.551 26.3467 137.02 26.7894L136.46 27.5814C136.423 27.6401 136.375 27.6881 136.316 27.7254C136.263 27.7627 136.191 27.7814 136.1 27.7814C135.999 27.7814 135.879 27.7307 135.74 27.6294C135.607 27.5281 135.428 27.4161 135.204 27.2934C134.985 27.1654 134.713 27.0507 134.388 26.9494C134.063 26.8481 133.657 26.7974 133.172 26.7974C132.601 26.7974 132.079 26.8987 131.604 27.1014C131.129 27.2987 130.719 27.5867 130.372 27.9654C130.031 28.3387 129.764 28.8001 129.572 29.3494C129.385 29.8934 129.292 30.5094 129.292 31.1974C129.292 31.8961 129.391 32.5174 129.588 33.0614C129.785 33.6054 130.057 34.0667 130.404 34.4454C130.751 34.8241 131.159 35.1121 131.628 35.3094C132.097 35.5067 132.604 35.6054 133.148 35.6054C133.479 35.6054 133.775 35.5867 134.036 35.5494C134.303 35.5067 134.545 35.4454 134.764 35.3654C134.988 35.2854 135.199 35.1841 135.396 35.0614C135.593 34.9334 135.788 34.7814 135.98 34.6054C136.023 34.5681 136.068 34.5387 136.116 34.5174C136.164 34.4907 136.215 34.4774 136.268 34.4774ZM145.045 29.9974H141.981V36.9414H140.413V29.9974H137.349V28.8134H145.045V29.9974ZM153.402 28.8134V36.9414H151.834V31.6294C151.834 31.5227 151.839 31.4054 151.85 31.2774C151.861 31.1441 151.877 31.0107 151.898 30.8774C151.845 30.9894 151.791 31.0961 151.738 31.1974C151.69 31.2934 151.639 31.3787 151.586 31.4534L147.85 36.5494C147.791 36.6454 147.714 36.7361 147.618 36.8214C147.522 36.9067 147.413 36.9494 147.29 36.9494H146.346V28.8134H147.906V34.1334C147.906 34.2401 147.901 34.3601 147.89 34.4934C147.879 34.6214 147.863 34.7494 147.842 34.8774C147.949 34.6427 148.053 34.4534 148.154 34.3094L151.89 29.2054C151.949 29.1147 152.026 29.0267 152.122 28.9414C152.223 28.8561 152.335 28.8134 152.458 28.8134H153.402ZM162.804 36.9414H161.244V30.0374H158.82C158.756 31.0614 158.66 31.9467 158.532 32.6934C158.404 33.4347 158.25 34.0667 158.068 34.5894C157.887 35.1067 157.684 35.5281 157.46 35.8534C157.242 36.1734 157.007 36.4241 156.756 36.6054C156.511 36.7814 156.258 36.8987 155.996 36.9574C155.735 37.0214 155.474 37.0534 155.212 37.0534C154.727 37.0534 154.484 36.9734 154.484 36.8134V35.8294H154.916C155.098 35.8294 155.279 35.8001 155.46 35.7414C155.647 35.6774 155.828 35.5574 156.004 35.3814C156.186 35.2001 156.356 34.9494 156.516 34.6294C156.676 34.3094 156.823 33.8907 156.956 33.3734C157.09 32.8507 157.204 32.2161 157.3 31.4694C157.396 30.7227 157.471 29.8374 157.524 28.8134H162.804V36.9414ZM168.17 35.7974C168.704 35.7974 169.104 35.6694 169.37 35.4134C169.637 35.1521 169.77 34.8214 169.77 34.4214C169.77 34.2401 169.741 34.0694 169.682 33.9094C169.624 33.7441 169.53 33.6027 169.402 33.4854C169.274 33.3627 169.106 33.2667 168.898 33.1974C168.696 33.1227 168.445 33.0854 168.146 33.0854H166.49V35.7974H168.17ZM168.146 31.9494C168.706 31.9494 169.178 32.0187 169.562 32.1574C169.952 32.2907 170.264 32.4721 170.498 32.7014C170.733 32.9254 170.901 33.1867 171.002 33.4854C171.109 33.7787 171.162 34.0854 171.162 34.4054C171.162 34.7734 171.096 35.1147 170.962 35.4294C170.834 35.7387 170.642 36.0054 170.386 36.2294C170.13 36.4534 169.816 36.6294 169.442 36.7574C169.074 36.8801 168.65 36.9414 168.17 36.9414H165.002V28.8134H166.49V31.9494H168.146ZM179.538 28.8134V36.9414H177.97V33.1974H174.25V36.9414H172.69V28.8134H174.25V32.0134H177.97V28.8134H179.538ZM184.889 35.7974C185.422 35.7974 185.822 35.6694 186.089 35.4134C186.356 35.1521 186.489 34.8214 186.489 34.4214C186.489 34.2401 186.46 34.0694 186.401 33.9094C186.342 33.7441 186.249 33.6027 186.121 33.4854C185.993 33.3627 185.825 33.2667 185.617 33.1974C185.414 33.1227 185.164 33.0854 184.865 33.0854H183.209V35.7974H184.889ZM184.865 31.9494C185.425 31.9494 185.897 32.0187 186.281 32.1574C186.67 32.2907 186.982 32.4721 187.217 32.7014C187.452 32.9254 187.62 33.1867 187.721 33.4854C187.828 33.7787 187.881 34.0854 187.881 34.4054C187.881 34.7734 187.814 35.1147 187.681 35.4294C187.553 35.7387 187.361 36.0054 187.105 36.2294C186.849 36.4534 186.534 36.6294 186.161 36.7574C185.793 36.8801 185.369 36.9414 184.889 36.9414H181.721V28.8134H183.209V31.9494H184.865ZM191.153 28.8134V36.9414H189.593V28.8134H191.153ZM200.402 28.8134V36.9414H198.834V31.6294C198.834 31.5227 198.839 31.4054 198.85 31.2774C198.861 31.1441 198.877 31.0107 198.898 30.8774C198.845 30.9894 198.791 31.0961 198.738 31.1974C198.69 31.2934 198.639 31.3787 198.586 31.4534L194.85 36.5494C194.791 36.6454 194.714 36.7361 194.618 36.8214C194.522 36.9067 194.413 36.9494 194.29 36.9494H193.346V28.8134H194.906V34.1334C194.906 34.2401 194.901 34.3601 194.89 34.4934C194.879 34.6214 194.863 34.7494 194.842 34.8774C194.949 34.6427 195.053 34.4534 195.154 34.3094L198.89 29.2054C198.949 29.1147 199.026 29.0267 199.122 28.9414C199.223 28.8561 199.335 28.8134 199.458 28.8134H200.402ZM196.97 26.8134C197.183 26.8134 197.362 26.7894 197.506 26.7414C197.655 26.6934 197.773 26.6161 197.858 26.5094C197.949 26.4027 198.013 26.2641 198.05 26.0934C198.093 25.9174 198.114 25.7041 198.114 25.4534H199.034C199.141 25.4534 199.223 25.5014 199.282 25.5974C199.341 25.6934 199.37 25.8001 199.37 25.9174C199.37 26.1841 199.314 26.4241 199.202 26.6374C199.095 26.8507 198.938 27.0347 198.73 27.1894C198.522 27.3387 198.269 27.4561 197.97 27.5414C197.677 27.6214 197.343 27.6614 196.97 27.6614C196.597 27.6614 196.261 27.6214 195.962 27.5414C195.669 27.4561 195.418 27.3387 195.21 27.1894C195.002 27.0347 194.842 26.8507 194.73 26.6374C194.623 26.4241 194.57 26.1841 194.57 25.9174C194.57 25.8001 194.599 25.6934 194.658 25.5974C194.717 25.5014 194.799 25.4534 194.906 25.4534H195.826C195.826 25.7041 195.845 25.9174 195.882 26.0934C195.925 26.2641 195.989 26.4027 196.074 26.5094C196.165 26.6161 196.282 26.6934 196.426 26.7414C196.575 26.7894 196.757 26.8134 196.97 26.8134ZM214.075 35.5574L214.067 36.9414H206.947V25.4534H214.067V26.8374H208.659V30.4774H213.011V31.8134H208.659V35.5574H214.075ZM227.31 36.9414H226.23C225.947 36.9414 225.731 36.8987 225.582 36.8134C225.438 36.7227 225.323 36.5841 225.238 36.3974L223.75 33.9414C223.627 33.7387 223.472 33.5867 223.286 33.4854C223.104 33.3841 222.894 33.3334 222.654 33.3334H221.886V36.9494H220.366V33.3334H219.598C219.358 33.3334 219.144 33.3841 218.958 33.4854C218.776 33.5867 218.624 33.7387 218.502 33.9414L217.022 36.3974C216.931 36.5841 216.811 36.7227 216.662 36.8134C216.518 36.8987 216.307 36.9414 216.03 36.9414H214.95L217.022 33.5814C217.16 33.3467 217.315 33.1547 217.486 33.0054C217.662 32.8561 217.878 32.7441 218.134 32.6694C217.936 32.6001 217.766 32.5041 217.622 32.3814C217.483 32.2534 217.352 32.0881 217.23 31.8854L215.166 28.8134H216.398C216.547 28.8134 216.683 28.8534 216.806 28.9334C216.928 29.0081 217.024 29.1094 217.094 29.2374L218.734 31.7494C218.84 31.9254 218.974 32.0587 219.134 32.1494C219.294 32.2401 219.486 32.2854 219.71 32.2854H220.366V28.8054H221.886V32.2854H222.526C222.968 32.2854 223.299 32.1067 223.518 31.7494L225.158 29.2374C225.232 29.1094 225.331 29.0081 225.454 28.9334C225.576 28.8534 225.712 28.8134 225.862 28.8134H227.086L225.022 31.8854C224.894 32.0881 224.76 32.2534 224.622 32.3814C224.483 32.5094 224.315 32.6081 224.118 32.6774C224.374 32.7521 224.587 32.8641 224.758 33.0134C224.934 33.1574 225.091 33.3467 225.23 33.5814L227.31 36.9414ZM233.075 32.1894C233.075 31.7574 233.155 31.3521 233.315 30.9734C233.481 30.5947 233.702 30.2641 233.979 29.9814C234.262 29.6987 234.59 29.4774 234.963 29.3174C235.337 29.1521 235.737 29.0694 236.163 29.0694C236.59 29.0694 236.993 29.1521 237.371 29.3174C237.75 29.4774 238.078 29.6987 238.355 29.9814C238.638 30.2641 238.859 30.5947 239.019 30.9734C239.185 31.3521 239.267 31.7574 239.267 32.1894C239.267 32.6161 239.185 33.0161 239.019 33.3894C238.859 33.7627 238.638 34.0907 238.355 34.3734C238.078 34.6561 237.75 34.8801 237.371 35.0454C236.993 35.2054 236.59 35.2854 236.163 35.2854C235.737 35.2854 235.337 35.2054 234.963 35.0454C234.59 34.8801 234.262 34.6561 233.979 34.3734C233.702 34.0907 233.481 33.7627 233.315 33.3894C233.155 33.0161 233.075 32.6161 233.075 32.1894ZM250.379 35.5894C250.811 35.5894 251.179 35.5387 251.483 35.4374C251.793 35.3361 252.043 35.1974 252.235 35.0214C252.433 34.8454 252.577 34.6374 252.667 34.3974C252.758 34.1521 252.803 33.8854 252.803 33.5974C252.803 33.0267 252.606 32.5787 252.211 32.2534C251.817 31.9227 251.206 31.7574 250.379 31.7574H247.979V35.5894H250.379ZM247.979 26.7894V30.5494H249.939C250.777 30.5494 251.398 30.3814 251.803 30.0454C252.214 29.7041 252.419 29.2454 252.419 28.6694C252.419 28.0134 252.225 27.5361 251.835 27.2374C251.446 26.9387 250.841 26.7894 250.019 26.7894H247.979ZM250.019 25.4534C250.739 25.4534 251.355 25.5227 251.867 25.6614C252.385 25.8001 252.809 26.0001 253.139 26.2614C253.47 26.5227 253.713 26.8401 253.867 27.2134C254.027 27.5814 254.107 28.0001 254.107 28.4694C254.107 28.7467 254.065 29.0134 253.979 29.2694C253.894 29.5254 253.763 29.7654 253.587 29.9894C253.411 30.2081 253.19 30.4054 252.923 30.5814C252.657 30.7574 252.342 30.9041 251.979 31.0214C253.649 31.3521 254.483 32.2241 254.483 33.6374C254.483 34.1281 254.393 34.5761 254.211 34.9814C254.03 35.3814 253.766 35.7281 253.419 36.0214C253.073 36.3147 252.646 36.5414 252.139 36.7014C251.633 36.8614 251.057 36.9414 250.411 36.9414H246.275V25.4534H250.019ZM261.917 30.3334C261.869 30.3921 261.821 30.4401 261.773 30.4774C261.73 30.5094 261.666 30.5254 261.581 30.5254C261.496 30.5254 261.405 30.4934 261.309 30.4294C261.218 30.3601 261.101 30.2881 260.957 30.2134C260.818 30.1334 260.648 30.0614 260.445 29.9974C260.248 29.9281 260.002 29.8934 259.709 29.8934C259.325 29.8934 258.986 29.9627 258.693 30.1014C258.4 30.2401 258.154 30.4374 257.957 30.6934C257.765 30.9494 257.618 31.2614 257.517 31.6294C257.416 31.9974 257.365 32.4107 257.365 32.8694C257.365 33.3441 257.418 33.7681 257.525 34.1414C257.632 34.5094 257.784 34.8214 257.981 35.0774C258.178 35.3281 258.418 35.5201 258.701 35.6534C258.984 35.7814 259.298 35.8454 259.645 35.8454C259.981 35.8454 260.258 35.8054 260.477 35.7254C260.696 35.6401 260.877 35.5494 261.021 35.4534C261.165 35.3574 261.285 35.2694 261.381 35.1894C261.477 35.1041 261.576 35.0614 261.677 35.0614C261.805 35.0614 261.904 35.1094 261.973 35.2054L262.421 35.7814C262.234 36.0107 262.024 36.2054 261.789 36.3654C261.56 36.5254 261.314 36.6561 261.053 36.7574C260.792 36.8587 260.517 36.9334 260.229 36.9814C259.946 37.0294 259.658 37.0534 259.365 37.0534C258.858 37.0534 258.384 36.9601 257.941 36.7734C257.504 36.5867 257.122 36.3147 256.797 35.9574C256.477 35.6001 256.224 35.1627 256.037 34.6454C255.85 34.1227 255.757 33.5307 255.757 32.8694C255.757 32.2667 255.84 31.7094 256.005 31.1974C256.176 30.6854 256.424 30.2454 256.749 29.8774C257.08 29.5041 257.485 29.2134 257.965 29.0054C258.445 28.7921 258.994 28.6854 259.613 28.6854C260.194 28.6854 260.706 28.7787 261.149 28.9654C261.592 29.1521 261.986 29.4161 262.333 29.7574L261.917 30.3334ZM269.121 31.9734C269.121 31.6641 269.075 31.3787 268.985 31.1174C268.899 30.8561 268.771 30.6294 268.601 30.4374C268.43 30.2454 268.222 30.0961 267.977 29.9894C267.731 29.8827 267.449 29.8294 267.129 29.8294C266.473 29.8294 265.955 30.0187 265.577 30.3974C265.203 30.7761 264.966 31.3014 264.865 31.9734H269.121ZM270.409 35.7814C270.217 36.0054 269.995 36.2001 269.745 36.3654C269.494 36.5254 269.227 36.6561 268.945 36.7574C268.662 36.8587 268.369 36.9334 268.065 36.9814C267.766 37.0294 267.47 37.0534 267.177 37.0534C266.617 37.0534 266.097 36.9601 265.617 36.7734C265.142 36.5814 264.729 36.3041 264.377 35.9414C264.03 35.5734 263.758 35.1201 263.561 34.5814C263.369 34.0374 263.273 33.4134 263.273 32.7094C263.273 32.1441 263.361 31.6187 263.537 31.1334C263.713 30.6427 263.963 30.2161 264.289 29.8534C264.619 29.4907 265.022 29.2054 265.497 28.9974C265.971 28.7894 266.505 28.6854 267.097 28.6854C267.593 28.6854 268.049 28.7681 268.465 28.9334C268.886 29.0934 269.249 29.3281 269.553 29.6374C269.857 29.9467 270.094 30.3281 270.265 30.7814C270.441 31.2347 270.529 31.7521 270.529 32.3334C270.529 32.5734 270.502 32.7361 270.449 32.8214C270.395 32.9014 270.297 32.9414 270.153 32.9414H264.825C264.841 33.4267 264.91 33.8507 265.033 34.2134C265.155 34.5707 265.323 34.8694 265.537 35.1094C265.755 35.3494 266.014 35.5281 266.313 35.6454C266.611 35.7627 266.945 35.8214 267.313 35.8214C267.659 35.8214 267.958 35.7814 268.209 35.7014C268.465 35.6214 268.683 35.5361 268.865 35.4454C269.051 35.3494 269.206 35.2614 269.329 35.1814C269.457 35.1014 269.569 35.0614 269.665 35.0614C269.793 35.0614 269.891 35.1094 269.961 35.2054L270.409 35.7814ZM283.1 36.9414H281.532V29.9974H277.812V36.9414H276.252V28.8134H283.1V36.9414ZM286.844 34.9414C287.1 35.2774 287.374 35.5121 287.668 35.6454C287.966 35.7787 288.3 35.8454 288.668 35.8454C289.382 35.8454 289.934 35.5894 290.324 35.0774C290.718 34.5601 290.916 33.8081 290.916 32.8214C290.916 32.3041 290.87 31.8641 290.78 31.5014C290.694 31.1334 290.566 30.8347 290.396 30.6054C290.23 30.3707 290.025 30.2001 289.78 30.0934C289.534 29.9814 289.257 29.9254 288.948 29.9254C288.494 29.9254 288.1 30.0267 287.764 30.2294C287.433 30.4321 287.126 30.7201 286.844 31.0934V34.9414ZM286.764 30.0294C286.934 29.8267 287.116 29.6427 287.308 29.4774C287.505 29.3067 287.716 29.1627 287.94 29.0454C288.164 28.9227 288.401 28.8294 288.652 28.7654C288.908 28.6961 289.18 28.6614 289.468 28.6614C289.932 28.6614 290.35 28.7521 290.724 28.9334C291.102 29.1147 291.425 29.3814 291.692 29.7334C291.958 30.0854 292.164 30.5201 292.308 31.0374C292.457 31.5547 292.532 32.1494 292.532 32.8214C292.532 33.4241 292.449 33.9841 292.284 34.5014C292.124 35.0134 291.892 35.4587 291.588 35.8374C291.289 36.2161 290.921 36.5147 290.484 36.7334C290.052 36.9467 289.564 37.0534 289.02 37.0534C288.534 37.0534 288.118 36.9734 287.772 36.8134C287.425 36.6534 287.116 36.4294 286.844 36.1414V39.6694H285.284V28.8134H286.22C286.438 28.8134 286.574 28.9174 286.628 29.1254L286.764 30.0294ZM298.636 33.3334C298.001 33.3547 297.463 33.4054 297.02 33.4854C296.577 33.5601 296.217 33.6614 295.94 33.7894C295.663 33.9174 295.463 34.0694 295.34 34.2454C295.217 34.4161 295.156 34.6081 295.156 34.8214C295.156 35.0241 295.188 35.2001 295.252 35.3494C295.321 35.4934 295.412 35.6134 295.524 35.7094C295.641 35.8001 295.777 35.8667 295.932 35.9094C296.087 35.9521 296.255 35.9734 296.436 35.9734C296.676 35.9734 296.895 35.9494 297.092 35.9014C297.295 35.8534 297.484 35.7867 297.66 35.7014C297.836 35.6107 298.004 35.5014 298.164 35.3734C298.324 35.2454 298.481 35.0987 298.636 34.9334V33.3334ZM294.06 29.9494C294.513 29.5174 295.004 29.1947 295.532 28.9814C296.065 28.7681 296.649 28.6614 297.284 28.6614C297.748 28.6614 298.159 28.7387 298.516 28.8934C298.873 29.0427 299.175 29.2534 299.42 29.5254C299.665 29.7974 299.849 30.1227 299.972 30.5014C300.1 30.8801 300.164 31.2987 300.164 31.7574V36.9414H299.468C299.313 36.9414 299.196 36.9174 299.116 36.8694C299.036 36.8161 298.972 36.7201 298.924 36.5814L298.756 35.8694C298.548 36.0614 298.343 36.2321 298.14 36.3814C297.937 36.5254 297.724 36.6507 297.5 36.7574C297.281 36.8587 297.047 36.9361 296.796 36.9894C296.545 37.0427 296.268 37.0694 295.964 37.0694C295.644 37.0694 295.343 37.0267 295.06 36.9414C294.783 36.8507 294.54 36.7147 294.332 36.5334C294.124 36.3521 293.959 36.1254 293.836 35.8534C293.719 35.5814 293.66 35.2641 293.66 34.9014C293.66 34.5814 293.745 34.2747 293.916 33.9814C294.092 33.6827 294.375 33.4161 294.764 33.1814C295.159 32.9467 295.671 32.7547 296.3 32.6054C296.935 32.4561 297.713 32.3707 298.636 32.3494V31.7574C298.636 31.1441 298.505 30.6854 298.244 30.3814C297.983 30.0774 297.599 29.9254 297.092 29.9254C296.751 29.9254 296.463 29.9681 296.228 30.0534C295.999 30.1387 295.799 30.2347 295.628 30.3414C295.463 30.4427 295.316 30.5361 295.188 30.6214C295.065 30.7067 294.937 30.7494 294.804 30.7494C294.697 30.7494 294.604 30.7201 294.524 30.6614C294.449 30.6027 294.388 30.5334 294.34 30.4534L294.06 29.9494ZM305.42 35.8454C305.922 35.8454 306.319 35.7281 306.612 35.4934C306.906 35.2534 307.052 34.9307 307.052 34.5254C307.052 34.3494 307.026 34.1867 306.972 34.0374C306.919 33.8827 306.828 33.7494 306.7 33.6374C306.572 33.5254 306.404 33.4401 306.196 33.3814C305.988 33.3174 305.732 33.2854 305.428 33.2854H303.74V35.8454H305.42ZM303.74 29.8534V32.2934H305.236C305.46 32.2934 305.666 32.2614 305.852 32.1974C306.044 32.1334 306.207 32.0454 306.34 31.9334C306.479 31.8161 306.586 31.6774 306.66 31.5174C306.74 31.3521 306.78 31.1734 306.78 30.9814C306.78 30.8374 306.754 30.6987 306.7 30.5654C306.652 30.4321 306.567 30.3121 306.444 30.2054C306.327 30.0987 306.17 30.0134 305.972 29.9494C305.775 29.8854 305.53 29.8534 305.236 29.8534H303.74ZM305.284 28.8134C305.786 28.8134 306.218 28.8641 306.58 28.9654C306.943 29.0614 307.242 29.1974 307.476 29.3734C307.711 29.5494 307.882 29.7547 307.988 29.9894C308.1 30.2241 308.156 30.4774 308.156 30.7494C308.156 30.9254 308.132 31.1094 308.084 31.3014C308.036 31.4934 307.954 31.6774 307.836 31.8534C307.719 32.0241 307.559 32.1814 307.356 32.3254C307.159 32.4694 306.906 32.5814 306.596 32.6614C307.194 32.7681 307.658 32.9814 307.988 33.3014C308.324 33.6214 308.492 34.0454 308.492 34.5734C308.492 34.9734 308.41 35.3227 308.244 35.6214C308.084 35.9147 307.866 36.1601 307.588 36.3574C307.311 36.5547 306.986 36.7014 306.612 36.7974C306.239 36.8934 305.844 36.9414 305.428 36.9414H302.252V28.8134H305.284ZM314.589 33.3334C313.954 33.3547 313.416 33.4054 312.973 33.4854C312.53 33.5601 312.17 33.6614 311.893 33.7894C311.616 33.9174 311.416 34.0694 311.293 34.2454C311.17 34.4161 311.109 34.6081 311.109 34.8214C311.109 35.0241 311.141 35.2001 311.205 35.3494C311.274 35.4934 311.365 35.6134 311.477 35.7094C311.594 35.8001 311.73 35.8667 311.885 35.9094C312.04 35.9521 312.208 35.9734 312.389 35.9734C312.629 35.9734 312.848 35.9494 313.045 35.9014C313.248 35.8534 313.437 35.7867 313.613 35.7014C313.789 35.6107 313.957 35.5014 314.117 35.3734C314.277 35.2454 314.434 35.0987 314.589 34.9334V33.3334ZM310.013 29.9494C310.466 29.5174 310.957 29.1947 311.485 28.9814C312.018 28.7681 312.602 28.6614 313.237 28.6614C313.701 28.6614 314.112 28.7387 314.469 28.8934C314.826 29.0427 315.128 29.2534 315.373 29.5254C315.618 29.7974 315.802 30.1227 315.925 30.5014C316.053 30.8801 316.117 31.2987 316.117 31.7574V36.9414H315.421C315.266 36.9414 315.149 36.9174 315.069 36.8694C314.989 36.8161 314.925 36.7201 314.877 36.5814L314.709 35.8694C314.501 36.0614 314.296 36.2321 314.093 36.3814C313.89 36.5254 313.677 36.6507 313.453 36.7574C313.234 36.8587 313 36.9361 312.749 36.9894C312.498 37.0427 312.221 37.0694 311.917 37.0694C311.597 37.0694 311.296 37.0267 311.013 36.9414C310.736 36.8507 310.493 36.7147 310.285 36.5334C310.077 36.3521 309.912 36.1254 309.789 35.8534C309.672 35.5814 309.613 35.2641 309.613 34.9014C309.613 34.5814 309.698 34.2747 309.869 33.9814C310.045 33.6827 310.328 33.4161 310.717 33.1814C311.112 32.9467 311.624 32.7547 312.253 32.6054C312.888 32.4561 313.666 32.3707 314.589 32.3494V31.7574C314.589 31.1441 314.458 30.6854 314.197 30.3814C313.936 30.0774 313.552 29.9254 313.045 29.9254C312.704 29.9254 312.416 29.9681 312.181 30.0534C311.952 30.1387 311.752 30.2347 311.581 30.3414C311.416 30.4427 311.269 30.5361 311.141 30.6214C311.018 30.7067 310.89 30.7494 310.757 30.7494C310.65 30.7494 310.557 30.7201 310.477 30.6614C310.402 30.6027 310.341 30.5334 310.293 30.4534L310.013 29.9494ZM321.74 29.6614C322.044 29.3734 322.418 29.1387 322.86 28.9574C323.303 28.7761 323.834 28.6854 324.452 28.6854C324.948 28.6854 325.386 28.7467 325.764 28.8694C326.143 28.9867 326.46 29.1467 326.716 29.3494C326.978 29.5467 327.172 29.7734 327.3 30.0294C327.434 30.2854 327.5 30.5521 327.5 30.8294C327.5 30.9894 327.474 31.1574 327.42 31.3334C327.372 31.5041 327.292 31.6694 327.18 31.8294C327.068 31.9894 326.919 32.1387 326.732 32.2774C326.551 32.4107 326.324 32.5227 326.052 32.6134C326.554 32.7681 326.951 33.0134 327.244 33.3494C327.538 33.6854 327.684 34.1041 327.684 34.6054C327.684 34.9841 327.596 35.3254 327.42 35.6294C327.25 35.9334 327.018 36.1921 326.724 36.4054C326.431 36.6134 326.092 36.7734 325.708 36.8854C325.324 36.9974 324.924 37.0534 324.508 37.0534C324.252 37.0534 323.988 37.0294 323.716 36.9814C323.45 36.9334 323.186 36.8587 322.924 36.7574C322.663 36.6561 322.415 36.5254 322.18 36.3654C321.946 36.2054 321.735 36.0107 321.548 35.7814L321.996 35.2054C322.066 35.1094 322.164 35.0614 322.292 35.0614C322.394 35.0614 322.498 35.1041 322.604 35.1894C322.716 35.2694 322.85 35.3574 323.004 35.4534C323.164 35.5494 323.354 35.6401 323.572 35.7254C323.796 35.8054 324.074 35.8454 324.404 35.8454C324.687 35.8454 324.938 35.8107 325.156 35.7414C325.38 35.6721 325.567 35.5761 325.716 35.4534C325.871 35.3307 325.988 35.1867 326.068 35.0214C326.148 34.8561 326.188 34.6747 326.188 34.4774C326.188 34.0934 326.031 33.7867 325.716 33.5574C325.402 33.3281 324.916 33.2134 324.26 33.2134H323.34V32.1734H324.26C324.836 32.1734 325.284 32.0667 325.604 31.8534C325.924 31.6347 326.084 31.3547 326.084 31.0134C326.084 30.8641 326.05 30.7227 325.98 30.5894C325.911 30.4507 325.804 30.3307 325.66 30.2294C325.522 30.1227 325.346 30.0401 325.132 29.9814C324.924 29.9227 324.682 29.8934 324.404 29.8934C324.095 29.8934 323.834 29.9254 323.62 29.9894C323.407 30.0481 323.226 30.1147 323.076 30.1894C322.927 30.2641 322.802 30.3334 322.7 30.3974C322.604 30.4561 322.522 30.4854 322.452 30.4854C322.378 30.4854 322.314 30.4721 322.26 30.4454C322.212 30.4134 322.159 30.3521 322.1 30.2614L321.74 29.6614ZM333.808 33.3334C333.173 33.3547 332.634 33.4054 332.192 33.4854C331.749 33.5601 331.389 33.6614 331.112 33.7894C330.834 33.9174 330.634 34.0694 330.512 34.2454C330.389 34.4161 330.328 34.6081 330.328 34.8214C330.328 35.0241 330.36 35.2001 330.424 35.3494C330.493 35.4934 330.584 35.6134 330.696 35.7094C330.813 35.8001 330.949 35.8667 331.104 35.9094C331.258 35.9521 331.426 35.9734 331.608 35.9734C331.848 35.9734 332.066 35.9494 332.264 35.9014C332.466 35.8534 332.656 35.7867 332.832 35.7014C333.008 35.6107 333.176 35.5014 333.336 35.3734C333.496 35.2454 333.653 35.0987 333.808 34.9334V33.3334ZM329.232 29.9494C329.685 29.5174 330.176 29.1947 330.704 28.9814C331.237 28.7681 331.821 28.6614 332.456 28.6614C332.92 28.6614 333.33 28.7387 333.688 28.8934C334.045 29.0427 334.346 29.2534 334.592 29.5254C334.837 29.7974 335.021 30.1227 335.144 30.5014C335.272 30.8801 335.336 31.2987 335.336 31.7574V36.9414H334.64C334.485 36.9414 334.368 36.9174 334.288 36.8694C334.208 36.8161 334.144 36.7201 334.096 36.5814L333.928 35.8694C333.72 36.0614 333.514 36.2321 333.312 36.3814C333.109 36.5254 332.896 36.6507 332.672 36.7574C332.453 36.8587 332.218 36.9361 331.968 36.9894C331.717 37.0427 331.44 37.0694 331.136 37.0694C330.816 37.0694 330.514 37.0267 330.232 36.9414C329.954 36.8507 329.712 36.7147 329.504 36.5334C329.296 36.3521 329.13 36.1254 329.008 35.8534C328.89 35.5814 328.832 35.2641 328.832 34.9014C328.832 34.5814 328.917 34.2747 329.088 33.9814C329.264 33.6827 329.546 33.4161 329.936 33.1814C330.33 32.9467 330.842 32.7547 331.472 32.6054C332.106 32.4561 332.885 32.3707 333.808 32.3494V31.7574C333.808 31.1441 333.677 30.6854 333.416 30.3814C333.154 30.0774 332.77 29.9254 332.264 29.9254C331.922 29.9254 331.634 29.9681 331.4 30.0534C331.17 30.1387 330.97 30.2347 330.8 30.3414C330.634 30.4427 330.488 30.5361 330.36 30.6214C330.237 30.7067 330.109 30.7494 329.976 30.7494C329.869 30.7494 329.776 30.7201 329.696 30.6614C329.621 30.6027 329.56 30.5334 329.512 30.4534L329.232 29.9494ZM349.928 35.7574V39.2374C349.928 39.3867 349.885 39.5041 349.8 39.5894C349.715 39.6747 349.605 39.7174 349.472 39.7174H348.504V36.9414H337.424V28.8134H338.984V35.7574H342.144V28.8134H343.712V35.7574H346.864V28.8134H348.432V35.7574H349.928ZM358.371 28.8134V36.9414H356.803V31.6294C356.803 31.5227 356.808 31.4054 356.819 31.2774C356.829 31.1441 356.845 31.0107 356.867 30.8774C356.813 30.9894 356.76 31.0961 356.707 31.1974C356.659 31.2934 356.608 31.3787 356.555 31.4534L352.819 36.5494C352.76 36.6454 352.683 36.7361 352.587 36.8214C352.491 36.9067 352.381 36.9494 352.259 36.9494H351.315V28.8134H352.875V34.1334C352.875 34.2401 352.869 34.3601 352.859 34.4934C352.848 34.6214 352.832 34.7494 352.811 34.8774C352.917 34.6427 353.021 34.4534 353.123 34.3094L356.859 29.2054C356.917 29.1147 356.995 29.0267 357.091 28.9414C357.192 28.8561 357.304 28.8134 357.427 28.8134H358.371ZM373.053 35.7574V39.2374C373.053 39.3867 373.01 39.5041 372.925 39.5894C372.84 39.6747 372.73 39.7174 372.597 39.7174H371.629V36.9414H360.549V28.8134H362.109V35.7574H365.269V28.8134H366.837V35.7574H369.989V28.8134H371.557V35.7574H373.053ZM379.683 31.9734C379.683 31.6641 379.638 31.3787 379.547 31.1174C379.462 30.8561 379.334 30.6294 379.163 30.4374C378.992 30.2454 378.784 30.0961 378.539 29.9894C378.294 29.8827 378.011 29.8294 377.691 29.8294C377.035 29.8294 376.518 30.0187 376.139 30.3974C375.766 30.7761 375.528 31.3014 375.427 31.9734H379.683ZM380.971 35.7814C380.779 36.0054 380.558 36.2001 380.307 36.3654C380.056 36.5254 379.79 36.6561 379.507 36.7574C379.224 36.8587 378.931 36.9334 378.627 36.9814C378.328 37.0294 378.032 37.0534 377.739 37.0534C377.179 37.0534 376.659 36.9601 376.179 36.7734C375.704 36.5814 375.291 36.3041 374.939 35.9414C374.592 35.5734 374.32 35.1201 374.123 34.5814C373.931 34.0374 373.835 33.4134 373.835 32.7094C373.835 32.1441 373.923 31.6187 374.099 31.1334C374.275 30.6427 374.526 30.2161 374.851 29.8534C375.182 29.4907 375.584 29.2054 376.059 28.9974C376.534 28.7894 377.067 28.6854 377.659 28.6854C378.155 28.6854 378.611 28.7681 379.027 28.9334C379.448 29.0934 379.811 29.3281 380.115 29.6374C380.419 29.9467 380.656 30.3281 380.827 30.7814C381.003 31.2347 381.091 31.7521 381.091 32.3334C381.091 32.5734 381.064 32.7361 381.011 32.8214C380.958 32.9014 380.859 32.9414 380.715 32.9414H375.387C375.403 33.4267 375.472 33.8507 375.595 34.2134C375.718 34.5707 375.886 34.8694 376.099 35.1094C376.318 35.3494 376.576 35.5281 376.875 35.6454C377.174 35.7627 377.507 35.8214 377.875 35.8214C378.222 35.8214 378.52 35.7814 378.771 35.7014C379.027 35.6214 379.246 35.5361 379.427 35.4454C379.614 35.3494 379.768 35.2614 379.891 35.1814C380.019 35.1014 380.131 35.0614 380.227 35.0614C380.355 35.0614 380.454 35.1094 380.523 35.2054L380.971 35.7814ZM389.616 28.8134V36.9414H388.048V33.1974H384.328V36.9414H382.768V28.8134H384.328V32.0134H388.048V28.8134H389.616ZM394.967 35.7974C395.5 35.7974 395.9 35.6694 396.167 35.4134C396.434 35.1521 396.567 34.8214 396.567 34.4214C396.567 34.2401 396.538 34.0694 396.479 33.9094C396.42 33.7441 396.327 33.6027 396.199 33.4854C396.071 33.3627 395.903 33.2667 395.695 33.1974C395.492 33.1227 395.242 33.0854 394.943 33.0854H393.287V35.7974H394.967ZM394.943 31.9494C395.503 31.9494 395.975 32.0187 396.359 32.1574C396.748 32.2907 397.06 32.4721 397.295 32.7014C397.53 32.9254 397.698 33.1867 397.799 33.4854C397.906 33.7787 397.959 34.0854 397.959 34.4054C397.959 34.7734 397.892 35.1147 397.759 35.4294C397.631 35.7387 397.439 36.0054 397.183 36.2294C396.927 36.4534 396.612 36.6294 396.239 36.7574C395.871 36.8801 395.447 36.9414 394.967 36.9414H391.799V28.8134H393.287V31.9494H394.943ZM401.231 28.8134V36.9414H399.671V28.8134H401.231Z" fill="white"/>
</svg>
