<svg width="347" height="15" viewBox="0 0 347 15" fill="none" xmlns="http://www.w3.org/2000/svg">
<path d="M8.624 8.06941C8.66667 8.06407 8.70667 8.07207 8.744 8.09341C8.78667 8.11474 8.82133 8.13874 8.848 8.16541L9.376 8.73341C9.072 9.09074 8.69867 9.36807 8.256 9.56541C7.81333 9.75741 7.28267 9.85341 6.664 9.85341C6.136 9.85341 5.656 9.76274 5.224 9.58141C4.79733 9.39474 4.432 9.13874 4.128 8.81341C3.824 8.48274 3.58667 8.09341 3.416 7.64541C3.25067 7.19741 3.168 6.70674 3.168 6.17341C3.168 5.63474 3.25867 5.14141 3.44 4.69341C3.62667 4.24007 3.88267 3.85341 4.208 3.53341C4.53333 3.20807 4.91733 2.95474 5.36 2.77341C5.808 2.59207 6.29333 2.50141 6.816 2.50141C7.39733 2.50141 7.89333 2.59474 8.304 2.78141C8.71467 2.96807 9.06933 3.21074 9.368 3.50941L8.96 4.08541C8.93333 4.11741 8.896 4.15207 8.848 4.18941C8.80533 4.22141 8.74933 4.23741 8.68 4.23741C8.6 4.23741 8.51733 4.20807 8.432 4.14941C8.352 4.09074 8.248 4.02674 8.12 3.95741C7.992 3.88807 7.832 3.82407 7.64 3.76541C7.448 3.70674 7.2 3.67741 6.896 3.67741C6.53333 3.67741 6.208 3.73607 5.92 3.85341C5.632 3.97074 5.38667 4.13874 5.184 4.35741C4.98133 4.57074 4.82667 4.83207 4.72 5.14141C4.61333 5.44541 4.56 5.78941 4.56 6.17341C4.56 6.57341 4.61333 6.92807 4.72 7.23741C4.832 7.54674 4.984 7.80807 5.176 8.02141C5.37333 8.23474 5.60533 8.39741 5.872 8.50941C6.13867 8.61607 6.42933 8.66941 6.744 8.66941C7.016 8.66941 7.24267 8.64807 7.424 8.60541C7.60533 8.56274 7.76267 8.51207 7.896 8.45341C8.03467 8.38941 8.15733 8.32274 8.264 8.25341C8.376 8.18407 8.496 8.12274 8.624 8.06941ZM0.776 6.19741C0.776 5.65874 0.845333 5.13874 0.984 4.63741C1.12267 4.13607 1.32 3.66941 1.576 3.23741C1.832 2.80541 2.13867 2.41074 2.496 2.05341C2.85333 1.69607 3.248 1.38941 3.68 1.13341C4.112 0.877406 4.576 0.680072 5.072 0.541406C5.57333 0.402739 6.09333 0.333405 6.632 0.333405C7.44267 0.333405 8.20267 0.488072 8.912 0.797406C9.62667 1.10141 10.248 1.52007 10.776 2.05341C11.3093 2.58141 11.728 3.20274 12.032 3.91741C12.3413 4.62674 12.496 5.38674 12.496 6.19741C12.496 7.00807 12.3413 7.76807 12.032 8.47741C11.728 9.18674 11.3093 9.80807 10.776 10.3414C10.248 10.8694 9.62667 11.2881 8.912 11.5974C8.20267 11.9014 7.44267 12.0534 6.632 12.0534C6.09333 12.0534 5.57333 11.9841 5.072 11.8454C4.576 11.7067 4.112 11.5094 3.68 11.2534C3.248 10.9974 2.85333 10.6934 2.496 10.3414C2.13867 9.98407 1.832 9.58941 1.576 9.15741C1.32 8.72007 1.12267 8.25341 0.984 7.75741C0.845333 7.25607 0.776 6.73607 0.776 6.19741ZM1.648 6.19741C1.648 6.66674 1.70667 7.12007 1.824 7.55741C1.94133 7.98941 2.10667 8.39474 2.32 8.77341C2.53333 9.14674 2.792 9.48807 3.096 9.79741C3.4 10.1014 3.736 10.3627 4.104 10.5814C4.472 10.8001 4.86933 10.9707 5.296 11.0934C5.72267 11.2107 6.168 11.2694 6.632 11.2694C7.096 11.2694 7.54133 11.2107 7.968 11.0934C8.4 10.9707 8.80267 10.8001 9.176 10.5814C9.54933 10.3627 9.888 10.1014 10.192 9.79741C10.496 9.48807 10.7547 9.14674 10.968 8.77341C11.1867 8.39474 11.3547 7.98941 11.472 7.55741C11.5893 7.12541 11.648 6.67207 11.648 6.19741C11.648 5.72274 11.5893 5.26674 11.472 4.82941C11.3547 4.39207 11.1867 3.98407 10.968 3.60541C10.7547 3.22674 10.496 2.88274 10.192 2.57341C9.888 2.26407 9.54933 2.00007 9.176 1.78141C8.80267 1.55741 8.4 1.38674 7.968 1.26941C7.54133 1.14674 7.096 1.08541 6.632 1.08541C6.168 1.08541 5.72267 1.14674 5.296 1.26941C4.86933 1.38674 4.472 1.55741 4.104 1.78141C3.736 2.00007 3.4 2.26407 3.096 2.57341C2.792 2.88274 2.53333 3.22674 2.32 3.60541C2.10667 3.98407 1.94133 4.39207 1.824 4.82941C1.70667 5.26674 1.648 5.72274 1.648 6.19741ZM25.2161 10.4614C25.3868 10.4614 25.5201 10.5121 25.6161 10.6134C25.7121 10.7094 25.7601 10.8374 25.7601 10.9974V11.9414H18.0481V11.4054C18.0481 11.2987 18.0695 11.1867 18.1121 11.0694C18.1548 10.9467 18.2268 10.8374 18.3281 10.7414L21.9601 7.10141C22.2641 6.79741 22.5388 6.50407 22.7841 6.22141C23.0295 5.93874 23.2375 5.65874 23.4081 5.38141C23.5788 5.09874 23.7095 4.81074 23.8001 4.51741C23.8961 4.22407 23.9441 3.91474 23.9441 3.58941C23.9441 3.26941 23.8935 2.98941 23.7921 2.74941C23.6908 2.50407 23.5521 2.30141 23.3761 2.14141C23.2001 1.98141 22.9921 1.86141 22.7521 1.78141C22.5121 1.70141 22.2535 1.66141 21.9761 1.66141C21.6988 1.66141 21.4428 1.70141 21.2081 1.78141C20.9788 1.86141 20.7735 1.97341 20.5921 2.11741C20.4108 2.26141 20.2588 2.43207 20.1361 2.62941C20.0135 2.82674 19.9255 3.04007 19.8721 3.26941C19.7975 3.47207 19.7015 3.60807 19.5841 3.67741C19.4721 3.74674 19.3068 3.76274 19.0881 3.72541L18.2721 3.58141C18.3468 3.04807 18.4935 2.57874 18.7121 2.17341C18.9308 1.76807 19.2055 1.42941 19.5361 1.15741C19.8668 0.880072 20.2455 0.672072 20.6721 0.533405C21.1041 0.394739 21.5681 0.325406 22.0641 0.325406C22.5655 0.325406 23.0268 0.400073 23.4481 0.549406C23.8748 0.693406 24.2428 0.904072 24.5521 1.18141C24.8615 1.45874 25.1041 1.79741 25.2801 2.19741C25.4561 2.59207 25.5441 3.04007 25.5441 3.54141C25.5441 3.96807 25.4801 4.36541 25.3521 4.73341C25.2295 5.09607 25.0588 5.44274 24.8401 5.77341C24.6268 6.10407 24.3761 6.42674 24.0881 6.74141C23.8055 7.05074 23.5041 7.36541 23.1841 7.68541L20.2721 10.6614C20.4961 10.6027 20.7201 10.5547 20.9441 10.5174C21.1735 10.4801 21.3895 10.4614 21.5921 10.4614H25.2161ZM35.4254 6.19741C35.4254 7.20007 35.316 8.06941 35.0974 8.80541C34.884 9.54141 34.588 10.1521 34.2094 10.6374C33.836 11.1174 33.3934 11.4747 32.8814 11.7094C32.3747 11.9441 31.828 12.0614 31.2414 12.0614C30.6547 12.0614 30.1054 11.9441 29.5934 11.7094C29.0867 11.4747 28.6467 11.1174 28.2734 10.6374C27.9 10.1521 27.6067 9.54141 27.3934 8.80541C27.18 8.06941 27.0734 7.20007 27.0734 6.19741C27.0734 5.19474 27.18 4.32541 27.3934 3.58941C27.6067 2.84807 27.9 2.23741 28.2734 1.75741C28.6467 1.27207 29.0867 0.912072 29.5934 0.677405C30.1054 0.442739 30.6547 0.325406 31.2414 0.325406C31.828 0.325406 32.3747 0.442739 32.8814 0.677405C33.3934 0.912072 33.836 1.27207 34.2094 1.75741C34.588 2.23741 34.884 2.84807 35.0974 3.58941C35.316 4.32541 35.4254 5.19474 35.4254 6.19741ZM33.8094 6.19741C33.8094 5.33341 33.7374 4.61074 33.5934 4.02941C33.4547 3.44807 33.2654 2.98141 33.0254 2.62941C32.7907 2.27207 32.5187 2.01874 32.2094 1.86941C31.9 1.72007 31.5774 1.64541 31.2414 1.64541C30.9054 1.64541 30.5827 1.72007 30.2734 1.86941C29.964 2.01874 29.6894 2.27207 29.4494 2.62941C29.2147 2.98141 29.028 3.44807 28.8894 4.02941C28.7507 4.61074 28.6814 5.33341 28.6814 6.19741C28.6814 7.06141 28.7507 7.78407 28.8894 8.36541C29.028 8.94674 29.2147 9.41341 29.4494 9.76541C29.6894 10.1174 29.964 10.3681 30.2734 10.5174C30.5827 10.6667 30.9054 10.7414 31.2414 10.7414C31.5774 10.7414 31.9 10.6667 32.2094 10.5174C32.5187 10.3681 32.7907 10.1174 33.0254 9.76541C33.2654 9.41341 33.4547 8.94674 33.5934 8.36541C33.7374 7.78407 33.8094 7.06141 33.8094 6.19741ZM43.7786 10.4614C43.9493 10.4614 44.0826 10.5121 44.1786 10.6134C44.2746 10.7094 44.3226 10.8374 44.3226 10.9974V11.9414H36.6106V11.4054C36.6106 11.2987 36.632 11.1867 36.6746 11.0694C36.7173 10.9467 36.7893 10.8374 36.8906 10.7414L40.5226 7.10141C40.8266 6.79741 41.1013 6.50407 41.3466 6.22141C41.592 5.93874 41.8 5.65874 41.9706 5.38141C42.1413 5.09874 42.272 4.81074 42.3626 4.51741C42.4586 4.22407 42.5066 3.91474 42.5066 3.58941C42.5066 3.26941 42.456 2.98941 42.3546 2.74941C42.2533 2.50407 42.1146 2.30141 41.9386 2.14141C41.7626 1.98141 41.5546 1.86141 41.3146 1.78141C41.0746 1.70141 40.816 1.66141 40.5386 1.66141C40.2613 1.66141 40.0053 1.70141 39.7706 1.78141C39.5413 1.86141 39.336 1.97341 39.1546 2.11741C38.9733 2.26141 38.8213 2.43207 38.6986 2.62941C38.576 2.82674 38.488 3.04007 38.4346 3.26941C38.36 3.47207 38.264 3.60807 38.1466 3.67741C38.0346 3.74674 37.8693 3.76274 37.6506 3.72541L36.8346 3.58141C36.9093 3.04807 37.056 2.57874 37.2746 2.17341C37.4933 1.76807 37.768 1.42941 38.0986 1.15741C38.4293 0.880072 38.808 0.672072 39.2346 0.533405C39.6666 0.394739 40.1306 0.325406 40.6266 0.325406C41.128 0.325406 41.5893 0.400073 42.0106 0.549406C42.4373 0.693406 42.8053 0.904072 43.1146 1.18141C43.424 1.45874 43.6666 1.79741 43.8426 2.19741C44.0186 2.59207 44.1066 3.04007 44.1066 3.54141C44.1066 3.96807 44.0426 4.36541 43.9146 4.73341C43.792 5.09607 43.6213 5.44274 43.4026 5.77341C43.1893 6.10407 42.9386 6.42674 42.6506 6.74141C42.368 7.05074 42.0666 7.36541 41.7466 7.68541L38.8346 10.6614C39.0586 10.6027 39.2826 10.5547 39.5066 10.5174C39.736 10.4801 39.952 10.4614 40.1546 10.4614H43.7786ZM46.1639 3.58141C46.2439 3.04807 46.3932 2.57874 46.6119 2.17341C46.8305 1.76807 47.1052 1.42941 47.4359 1.15741C47.7665 0.880072 48.1452 0.672072 48.5719 0.533405C49.0039 0.394739 49.4679 0.325406 49.9639 0.325406C50.4599 0.325406 50.9159 0.397406 51.3319 0.541406C51.7479 0.680072 52.1025 0.880073 52.3959 1.14141C52.6945 1.39741 52.9265 1.70674 53.0919 2.06941C53.2572 2.43207 53.3399 2.83207 53.3399 3.26941C53.3399 3.63741 53.2945 3.96274 53.2039 4.24541C53.1132 4.52807 52.9825 4.77607 52.8119 4.98941C52.6465 5.20274 52.4439 5.38407 52.2039 5.53341C51.9639 5.67741 51.6945 5.79741 51.3959 5.89341C52.1265 6.09607 52.6759 6.42674 53.0439 6.88541C53.4119 7.33874 53.5959 7.91474 53.5959 8.61341C53.5959 9.15207 53.4945 9.63741 53.2919 10.0694C53.0892 10.4961 52.8119 10.8587 52.4599 11.1574C52.1079 11.4507 51.6972 11.6774 51.2279 11.8374C50.7639 11.9921 50.2679 12.0694 49.7399 12.0694C49.1372 12.0694 48.6199 11.9974 48.1879 11.8534C47.7559 11.7041 47.3879 11.4987 47.0839 11.2374C46.7799 10.9707 46.5265 10.6534 46.3239 10.2854C46.1265 9.91207 45.9585 9.50407 45.8199 9.06141L46.4999 8.77341C46.6759 8.69874 46.8465 8.67741 47.0119 8.70941C47.1772 8.74141 47.2972 8.83474 47.3719 8.98941C47.4519 9.14941 47.5425 9.33074 47.6439 9.53341C47.7505 9.73074 47.8919 9.92007 48.0679 10.1014C48.2439 10.2774 48.4625 10.4267 48.7239 10.5494C48.9905 10.6721 49.3239 10.7334 49.7239 10.7334C50.1079 10.7334 50.4439 10.6721 50.7319 10.5494C51.0199 10.4214 51.2599 10.2587 51.4519 10.0614C51.6439 9.85874 51.7879 9.63474 51.8839 9.38941C51.9799 9.14407 52.0279 8.90141 52.0279 8.66141C52.0279 8.36274 51.9905 8.08807 51.9159 7.83741C51.8412 7.58674 51.6972 7.37341 51.4839 7.19741C51.2759 7.01607 50.9852 6.87474 50.6119 6.77341C50.2385 6.67207 49.7532 6.62141 49.1559 6.62141V5.48541C49.6465 5.48007 50.0599 5.42941 50.3959 5.33341C50.7372 5.23741 51.0119 5.10407 51.2199 4.93341C51.4279 4.76274 51.5772 4.56007 51.6679 4.32541C51.7639 4.09074 51.8119 3.82941 51.8119 3.54141C51.8119 3.22674 51.7639 2.95207 51.6679 2.71741C51.5719 2.48274 51.4359 2.28807 51.2599 2.13341C51.0892 1.97341 50.8839 1.85607 50.6439 1.78141C50.4092 1.70141 50.1532 1.66141 49.8759 1.66141C49.5985 1.66141 49.3425 1.70141 49.1079 1.78141C48.8732 1.86141 48.6652 1.97341 48.4839 2.11741C48.3025 2.26141 48.1505 2.43207 48.0279 2.62941C47.9052 2.82674 47.8172 3.04007 47.7639 3.26941C47.6892 3.47207 47.5932 3.60807 47.4759 3.67741C47.3639 3.74674 47.2012 3.76274 46.9879 3.72541L46.1639 3.58141ZM60.044 7.18941C60.044 6.75741 60.124 6.35207 60.284 5.97341C60.4493 5.59474 60.6707 5.26407 60.948 4.98141C61.2307 4.69874 61.5587 4.47741 61.932 4.31741C62.3053 4.15207 62.7053 4.06941 63.132 4.06941C63.5587 4.06941 63.9613 4.15207 64.34 4.31741C64.7187 4.47741 65.0467 4.69874 65.324 4.98141C65.6067 5.26407 65.828 5.59474 65.988 5.97341C66.1533 6.35207 66.236 6.75741 66.236 7.18941C66.236 7.61607 66.1533 8.01607 65.988 8.38941C65.828 8.76274 65.6067 9.09074 65.324 9.37341C65.0467 9.65607 64.7187 9.88007 64.34 10.0454C63.9613 10.2054 63.5587 10.2854 63.132 10.2854C62.7053 10.2854 62.3053 10.2054 61.932 10.0454C61.5587 9.88007 61.2307 9.65607 60.948 9.37341C60.6707 9.09074 60.4493 8.76274 60.284 8.38941C60.124 8.01607 60.044 7.61607 60.044 7.18941ZM81.2681 9.47741C81.3641 9.47741 81.4468 9.51474 81.5161 9.58941L82.1881 10.3254C81.7188 10.8801 81.1455 11.3094 80.4681 11.6134C79.7961 11.9174 78.9855 12.0694 78.0361 12.0694C77.2041 12.0694 76.4495 11.9254 75.7721 11.6374C75.1001 11.3494 74.5241 10.9467 74.0441 10.4294C73.5695 9.91207 73.2015 9.29341 72.9401 8.57341C72.6788 7.85341 72.5481 7.06141 72.5481 6.19741C72.5481 5.33341 72.6841 4.54141 72.9561 3.82141C73.2335 3.10141 73.6201 2.48274 74.1161 1.96541C74.6121 1.44807 75.2041 1.04541 75.8921 0.757405C76.5855 0.469406 77.3508 0.325406 78.1881 0.325406C79.0041 0.325406 79.7295 0.458739 80.3641 0.725406C80.9988 0.992072 81.5508 1.34674 82.0201 1.78941L81.4601 2.58141C81.4228 2.64007 81.3748 2.68807 81.3161 2.72541C81.2628 2.76274 81.1908 2.78141 81.1001 2.78141C80.9988 2.78141 80.8788 2.73074 80.7401 2.62941C80.6068 2.52807 80.4281 2.41607 80.2041 2.29341C79.9855 2.16541 79.7135 2.05074 79.3881 1.94941C79.0628 1.84807 78.6575 1.79741 78.1721 1.79741C77.6015 1.79741 77.0788 1.89874 76.6041 2.10141C76.1295 2.29874 75.7188 2.58674 75.3721 2.96541C75.0308 3.33874 74.7641 3.80007 74.5721 4.34941C74.3855 4.89341 74.2921 5.50941 74.2921 6.19741C74.2921 6.89607 74.3908 7.51741 74.5881 8.06141C74.7855 8.60541 75.0575 9.06674 75.4041 9.44541C75.7508 9.82407 76.1588 10.1121 76.6281 10.3094C77.0975 10.5067 77.6041 10.6054 78.1481 10.6054C78.4788 10.6054 78.7748 10.5867 79.0361 10.5494C79.3028 10.5067 79.5455 10.4454 79.7641 10.3654C79.9881 10.2854 80.1988 10.1841 80.3961 10.0614C80.5935 9.93341 80.7881 9.78141 80.9801 9.60541C81.0228 9.56807 81.0681 9.53874 81.1161 9.51741C81.1641 9.49074 81.2148 9.47741 81.2681 9.47741ZM90.0446 4.99741H86.9806V11.9414H85.4126V4.99741H82.3486V3.81341H90.0446V4.99741ZM98.402 3.81341V11.9414H96.834V6.62941C96.834 6.52274 96.8393 6.40541 96.85 6.27741C96.8607 6.14407 96.8767 6.01074 96.898 5.87741C96.8447 5.98941 96.7913 6.09607 96.738 6.19741C96.69 6.29341 96.6393 6.37874 96.586 6.45341L92.85 11.5494C92.7913 11.6454 92.714 11.7361 92.618 11.8214C92.522 11.9067 92.4127 11.9494 92.29 11.9494H91.346V3.81341H92.906V9.13341C92.906 9.24007 92.9007 9.36007 92.89 9.49341C92.8793 9.62141 92.8633 9.74941 92.842 9.87741C92.9487 9.64274 93.0527 9.45341 93.154 9.30941L96.89 4.20541C96.9487 4.11474 97.026 4.02674 97.122 3.94141C97.2233 3.85607 97.3353 3.81341 97.458 3.81341H98.402ZM107.804 11.9414H106.244V5.03741H103.82C103.756 6.06141 103.66 6.94674 103.532 7.69341C103.404 8.43474 103.25 9.06674 103.068 9.58941C102.887 10.1067 102.684 10.5281 102.46 10.8534C102.242 11.1734 102.007 11.4241 101.756 11.6054C101.511 11.7814 101.258 11.8987 100.996 11.9574C100.735 12.0214 100.474 12.0534 100.212 12.0534C99.727 12.0534 99.4844 11.9734 99.4844 11.8134V10.8294H99.9164C100.098 10.8294 100.279 10.8001 100.46 10.7414C100.647 10.6774 100.828 10.5574 101.004 10.3814C101.186 10.2001 101.356 9.94941 101.516 9.62941C101.676 9.30941 101.823 8.89074 101.956 8.37341C102.09 7.85074 102.204 7.21607 102.3 6.46941C102.396 5.72274 102.471 4.83741 102.524 3.81341H107.804V11.9414ZM113.17 10.7974C113.704 10.7974 114.104 10.6694 114.37 10.4134C114.637 10.1521 114.77 9.82141 114.77 9.42141C114.77 9.24007 114.741 9.06941 114.682 8.90941C114.624 8.74407 114.53 8.60274 114.402 8.48541C114.274 8.36274 114.106 8.26674 113.898 8.19741C113.696 8.12274 113.445 8.08541 113.146 8.08541H111.49V10.7974H113.17ZM113.146 6.94941C113.706 6.94941 114.178 7.01874 114.562 7.15741C114.952 7.29074 115.264 7.47207 115.498 7.70141C115.733 7.92541 115.901 8.18674 116.002 8.48541C116.109 8.77874 116.162 9.08541 116.162 9.40541C116.162 9.77341 116.096 10.1147 115.962 10.4294C115.834 10.7387 115.642 11.0054 115.386 11.2294C115.13 11.4534 114.816 11.6294 114.442 11.7574C114.074 11.8801 113.65 11.9414 113.17 11.9414H110.002V3.81341H111.49V6.94941H113.146ZM124.538 3.81341V11.9414H122.97V8.19741H119.25V11.9414H117.69V3.81341H119.25V7.01341H122.97V3.81341H124.538ZM129.889 10.7974C130.422 10.7974 130.822 10.6694 131.089 10.4134C131.356 10.1521 131.489 9.82141 131.489 9.42141C131.489 9.24007 131.46 9.06941 131.401 8.90941C131.342 8.74407 131.249 8.60274 131.121 8.48541C130.993 8.36274 130.825 8.26674 130.617 8.19741C130.414 8.12274 130.164 8.08541 129.865 8.08541H128.209V10.7974H129.889ZM129.865 6.94941C130.425 6.94941 130.897 7.01874 131.281 7.15741C131.67 7.29074 131.982 7.47207 132.217 7.70141C132.452 7.92541 132.62 8.18674 132.721 8.48541C132.828 8.77874 132.881 9.08541 132.881 9.40541C132.881 9.77341 132.814 10.1147 132.681 10.4294C132.553 10.7387 132.361 11.0054 132.105 11.2294C131.849 11.4534 131.534 11.6294 131.161 11.7574C130.793 11.8801 130.369 11.9414 129.889 11.9414H126.721V3.81341H128.209V6.94941H129.865ZM136.153 3.81341V11.9414H134.593V3.81341H136.153ZM145.402 3.81341V11.9414H143.834V6.62941C143.834 6.52274 143.839 6.40541 143.85 6.27741C143.861 6.14407 143.877 6.01074 143.898 5.87741C143.845 5.98941 143.791 6.09607 143.738 6.19741C143.69 6.29341 143.639 6.37874 143.586 6.45341L139.85 11.5494C139.791 11.6454 139.714 11.7361 139.618 11.8214C139.522 11.9067 139.413 11.9494 139.29 11.9494H138.346V3.81341H139.906V9.13341C139.906 9.24007 139.901 9.36007 139.89 9.49341C139.879 9.62141 139.863 9.74941 139.842 9.87741C139.949 9.64274 140.053 9.45341 140.154 9.30941L143.89 4.20541C143.949 4.11474 144.026 4.02674 144.122 3.94141C144.223 3.85607 144.335 3.81341 144.458 3.81341H145.402ZM141.97 1.81341C142.183 1.81341 142.362 1.78941 142.506 1.74141C142.655 1.69341 142.773 1.61607 142.858 1.50941C142.949 1.40274 143.013 1.26407 143.05 1.09341C143.093 0.917406 143.114 0.704072 143.114 0.453405H144.034C144.141 0.453405 144.223 0.501405 144.282 0.597405C144.341 0.693405 144.37 0.800072 144.37 0.917406C144.37 1.18407 144.314 1.42407 144.202 1.63741C144.095 1.85074 143.938 2.03474 143.73 2.18941C143.522 2.33874 143.269 2.45607 142.97 2.54141C142.677 2.62141 142.343 2.66141 141.97 2.66141C141.597 2.66141 141.261 2.62141 140.962 2.54141C140.669 2.45607 140.418 2.33874 140.21 2.18941C140.002 2.03474 139.842 1.85074 139.73 1.63741C139.623 1.42407 139.57 1.18407 139.57 0.917406C139.57 0.800072 139.599 0.693405 139.658 0.597405C139.717 0.501405 139.799 0.453405 139.906 0.453405H140.826C140.826 0.704072 140.845 0.917406 140.882 1.09341C140.925 1.26407 140.989 1.40274 141.074 1.50941C141.165 1.61607 141.282 1.69341 141.426 1.74141C141.575 1.78941 141.757 1.81341 141.97 1.81341ZM159.075 10.5574L159.067 11.9414H151.947V0.453405H159.067V1.83741H153.659V5.47741H158.011V6.81341H153.659V10.5574H159.075ZM172.31 11.9414H171.23C170.947 11.9414 170.731 11.8987 170.582 11.8134C170.438 11.7227 170.323 11.5841 170.238 11.3974L168.75 8.94141C168.627 8.73874 168.472 8.58674 168.286 8.48541C168.104 8.38407 167.894 8.33341 167.654 8.33341H166.886V11.9494H165.366V8.33341H164.598C164.358 8.33341 164.144 8.38407 163.958 8.48541C163.776 8.58674 163.624 8.73874 163.502 8.94141L162.022 11.3974C161.931 11.5841 161.811 11.7227 161.662 11.8134C161.518 11.8987 161.307 11.9414 161.03 11.9414H159.95L162.022 8.58141C162.16 8.34674 162.315 8.15474 162.486 8.00541C162.662 7.85607 162.878 7.74407 163.134 7.66941C162.936 7.60007 162.766 7.50407 162.622 7.38141C162.483 7.25341 162.352 7.08807 162.23 6.88541L160.166 3.81341H161.398C161.547 3.81341 161.683 3.85341 161.806 3.93341C161.928 4.00807 162.024 4.10941 162.094 4.23741L163.734 6.74941C163.84 6.92541 163.974 7.05874 164.134 7.14941C164.294 7.24007 164.486 7.28541 164.71 7.28541H165.366V3.80541H166.886V7.28541H167.526C167.968 7.28541 168.299 7.10674 168.518 6.74941L170.158 4.23741C170.232 4.10941 170.331 4.00807 170.454 3.93341C170.576 3.85341 170.712 3.81341 170.862 3.81341H172.086L170.022 6.88541C169.894 7.08807 169.76 7.25341 169.622 7.38141C169.483 7.50941 169.315 7.60807 169.118 7.67741C169.374 7.75207 169.587 7.86407 169.758 8.01341C169.934 8.15741 170.091 8.34674 170.23 8.58141L172.31 11.9414ZM178.075 7.18941C178.075 6.75741 178.155 6.35207 178.315 5.97341C178.481 5.59474 178.702 5.26407 178.979 4.98141C179.262 4.69874 179.59 4.47741 179.963 4.31741C180.337 4.15207 180.737 4.06941 181.163 4.06941C181.59 4.06941 181.993 4.15207 182.371 4.31741C182.75 4.47741 183.078 4.69874 183.355 4.98141C183.638 5.26407 183.859 5.59474 184.019 5.97341C184.185 6.35207 184.267 6.75741 184.267 7.18941C184.267 7.61607 184.185 8.01607 184.019 8.38941C183.859 8.76274 183.638 9.09074 183.355 9.37341C183.078 9.65607 182.75 9.88007 182.371 10.0454C181.993 10.2054 181.59 10.2854 181.163 10.2854C180.737 10.2854 180.337 10.2054 179.963 10.0454C179.59 9.88007 179.262 9.65607 178.979 9.37341C178.702 9.09074 178.481 8.76274 178.315 8.38941C178.155 8.01607 178.075 7.61607 178.075 7.18941ZM195.379 10.5894C195.811 10.5894 196.179 10.5387 196.483 10.4374C196.793 10.3361 197.043 10.1974 197.235 10.0214C197.433 9.84541 197.577 9.63741 197.667 9.39741C197.758 9.15207 197.803 8.88541 197.803 8.59741C197.803 8.02674 197.606 7.57874 197.211 7.25341C196.817 6.92274 196.206 6.75741 195.379 6.75741H192.979V10.5894H195.379ZM192.979 1.78941V5.54941H194.939C195.777 5.54941 196.398 5.38141 196.803 5.04541C197.214 4.70407 197.419 4.24541 197.419 3.66941C197.419 3.01341 197.225 2.53607 196.835 2.23741C196.446 1.93874 195.841 1.78941 195.019 1.78941H192.979ZM195.019 0.453405C195.739 0.453405 196.355 0.522739 196.867 0.661406C197.385 0.800072 197.809 1.00007 198.139 1.26141C198.47 1.52274 198.713 1.84007 198.867 2.21341C199.027 2.58141 199.107 3.00007 199.107 3.46941C199.107 3.74674 199.065 4.01341 198.979 4.26941C198.894 4.52541 198.763 4.76541 198.587 4.98941C198.411 5.20807 198.19 5.40541 197.923 5.58141C197.657 5.75741 197.342 5.90407 196.979 6.02141C198.649 6.35207 199.483 7.22407 199.483 8.63741C199.483 9.12807 199.393 9.57607 199.211 9.98141C199.03 10.3814 198.766 10.7281 198.419 11.0214C198.073 11.3147 197.646 11.5414 197.139 11.7014C196.633 11.8614 196.057 11.9414 195.411 11.9414H191.275V0.453405H195.019ZM206.917 5.33341C206.869 5.39207 206.821 5.44007 206.773 5.47741C206.73 5.50941 206.666 5.52541 206.581 5.52541C206.496 5.52541 206.405 5.49341 206.309 5.42941C206.218 5.36007 206.101 5.28807 205.957 5.21341C205.818 5.13341 205.648 5.06141 205.445 4.99741C205.248 4.92807 205.002 4.89341 204.709 4.89341C204.325 4.89341 203.986 4.96274 203.693 5.10141C203.4 5.24007 203.154 5.43741 202.957 5.69341C202.765 5.94941 202.618 6.26141 202.517 6.62941C202.416 6.99741 202.365 7.41074 202.365 7.86941C202.365 8.34407 202.418 8.76807 202.525 9.14141C202.632 9.50941 202.784 9.82141 202.981 10.0774C203.178 10.3281 203.418 10.5201 203.701 10.6534C203.984 10.7814 204.298 10.8454 204.645 10.8454C204.981 10.8454 205.258 10.8054 205.477 10.7254C205.696 10.6401 205.877 10.5494 206.021 10.4534C206.165 10.3574 206.285 10.2694 206.381 10.1894C206.477 10.1041 206.576 10.0614 206.677 10.0614C206.805 10.0614 206.904 10.1094 206.973 10.2054L207.421 10.7814C207.234 11.0107 207.024 11.2054 206.789 11.3654C206.56 11.5254 206.314 11.6561 206.053 11.7574C205.792 11.8587 205.517 11.9334 205.229 11.9814C204.946 12.0294 204.658 12.0534 204.365 12.0534C203.858 12.0534 203.384 11.9601 202.941 11.7734C202.504 11.5867 202.122 11.3147 201.797 10.9574C201.477 10.6001 201.224 10.1627 201.037 9.64541C200.85 9.12274 200.757 8.53074 200.757 7.86941C200.757 7.26674 200.84 6.70941 201.005 6.19741C201.176 5.68541 201.424 5.24541 201.749 4.87741C202.08 4.50407 202.485 4.21341 202.965 4.00541C203.445 3.79207 203.994 3.68541 204.613 3.68541C205.194 3.68541 205.706 3.77874 206.149 3.96541C206.592 4.15207 206.986 4.41607 207.333 4.75741L206.917 5.33341ZM214.121 6.97341C214.121 6.66407 214.075 6.37874 213.985 6.11741C213.899 5.85607 213.771 5.62941 213.601 5.43741C213.43 5.24541 213.222 5.09607 212.977 4.98941C212.731 4.88274 212.449 4.82941 212.129 4.82941C211.473 4.82941 210.955 5.01874 210.577 5.39741C210.203 5.77607 209.966 6.30141 209.865 6.97341H214.121ZM215.409 10.7814C215.217 11.0054 214.995 11.2001 214.745 11.3654C214.494 11.5254 214.227 11.6561 213.945 11.7574C213.662 11.8587 213.369 11.9334 213.065 11.9814C212.766 12.0294 212.47 12.0534 212.177 12.0534C211.617 12.0534 211.097 11.9601 210.617 11.7734C210.142 11.5814 209.729 11.3041 209.377 10.9414C209.03 10.5734 208.758 10.1201 208.561 9.58141C208.369 9.03741 208.273 8.41341 208.273 7.70941C208.273 7.14407 208.361 6.61874 208.537 6.13341C208.713 5.64274 208.963 5.21607 209.289 4.85341C209.619 4.49074 210.022 4.20541 210.497 3.99741C210.971 3.78941 211.505 3.68541 212.097 3.68541C212.593 3.68541 213.049 3.76807 213.465 3.93341C213.886 4.09341 214.249 4.32807 214.553 4.63741C214.857 4.94674 215.094 5.32807 215.265 5.78141C215.441 6.23474 215.529 6.75207 215.529 7.33341C215.529 7.57341 215.502 7.73607 215.449 7.82141C215.395 7.90141 215.297 7.94141 215.153 7.94141H209.825C209.841 8.42674 209.91 8.85074 210.033 9.21341C210.155 9.57074 210.323 9.86941 210.537 10.1094C210.755 10.3494 211.014 10.5281 211.313 10.6454C211.611 10.7627 211.945 10.8214 212.313 10.8214C212.659 10.8214 212.958 10.7814 213.209 10.7014C213.465 10.6214 213.683 10.5361 213.865 10.4454C214.051 10.3494 214.206 10.2614 214.329 10.1814C214.457 10.1014 214.569 10.0614 214.665 10.0614C214.793 10.0614 214.891 10.1094 214.961 10.2054L215.409 10.7814ZM228.1 11.9414H226.532V4.99741H222.812V11.9414H221.252V3.81341H228.1V11.9414ZM231.844 9.94141C232.1 10.2774 232.374 10.5121 232.668 10.6454C232.966 10.7787 233.3 10.8454 233.668 10.8454C234.382 10.8454 234.934 10.5894 235.324 10.0774C235.718 9.56007 235.916 8.80807 235.916 7.82141C235.916 7.30407 235.87 6.86407 235.78 6.50141C235.694 6.13341 235.566 5.83474 235.396 5.60541C235.23 5.37074 235.025 5.20007 234.78 5.09341C234.534 4.98141 234.257 4.92541 233.948 4.92541C233.494 4.92541 233.1 5.02674 232.764 5.22941C232.433 5.43207 232.126 5.72007 231.844 6.09341V9.94141ZM231.764 5.02941C231.934 4.82674 232.116 4.64274 232.308 4.47741C232.505 4.30674 232.716 4.16274 232.94 4.04541C233.164 3.92274 233.401 3.82941 233.652 3.76541C233.908 3.69607 234.18 3.66141 234.468 3.66141C234.932 3.66141 235.35 3.75207 235.724 3.93341C236.102 4.11474 236.425 4.38141 236.692 4.73341C236.958 5.08541 237.164 5.52007 237.308 6.03741C237.457 6.55474 237.532 7.14941 237.532 7.82141C237.532 8.42407 237.449 8.98407 237.284 9.50141C237.124 10.0134 236.892 10.4587 236.588 10.8374C236.289 11.2161 235.921 11.5147 235.484 11.7334C235.052 11.9467 234.564 12.0534 234.02 12.0534C233.534 12.0534 233.118 11.9734 232.772 11.8134C232.425 11.6534 232.116 11.4294 231.844 11.1414V14.6694H230.284V3.81341H231.22C231.438 3.81341 231.574 3.91741 231.628 4.12541L231.764 5.02941ZM243.636 8.33341C243.001 8.35474 242.463 8.40541 242.02 8.48541C241.577 8.56007 241.217 8.66141 240.94 8.78941C240.663 8.91741 240.463 9.06941 240.34 9.24541C240.217 9.41607 240.156 9.60807 240.156 9.82141C240.156 10.0241 240.188 10.2001 240.252 10.3494C240.321 10.4934 240.412 10.6134 240.524 10.7094C240.641 10.8001 240.777 10.8667 240.932 10.9094C241.087 10.9521 241.255 10.9734 241.436 10.9734C241.676 10.9734 241.895 10.9494 242.092 10.9014C242.295 10.8534 242.484 10.7867 242.66 10.7014C242.836 10.6107 243.004 10.5014 243.164 10.3734C243.324 10.2454 243.481 10.0987 243.636 9.93341V8.33341ZM239.06 4.94941C239.513 4.51741 240.004 4.19474 240.532 3.98141C241.065 3.76807 241.649 3.66141 242.284 3.66141C242.748 3.66141 243.159 3.73874 243.516 3.89341C243.873 4.04274 244.175 4.25341 244.42 4.52541C244.665 4.79741 244.849 5.12274 244.972 5.50141C245.1 5.88007 245.164 6.29874 245.164 6.75741V11.9414H244.468C244.313 11.9414 244.196 11.9174 244.116 11.8694C244.036 11.8161 243.972 11.7201 243.924 11.5814L243.756 10.8694C243.548 11.0614 243.343 11.2321 243.14 11.3814C242.937 11.5254 242.724 11.6507 242.5 11.7574C242.281 11.8587 242.047 11.9361 241.796 11.9894C241.545 12.0427 241.268 12.0694 240.964 12.0694C240.644 12.0694 240.343 12.0267 240.06 11.9414C239.783 11.8507 239.54 11.7147 239.332 11.5334C239.124 11.3521 238.959 11.1254 238.836 10.8534C238.719 10.5814 238.66 10.2641 238.66 9.90141C238.66 9.58141 238.745 9.27474 238.916 8.98141C239.092 8.68274 239.375 8.41607 239.764 8.18141C240.159 7.94674 240.671 7.75474 241.3 7.60541C241.935 7.45607 242.713 7.37074 243.636 7.34941V6.75741C243.636 6.14407 243.505 5.68541 243.244 5.38141C242.983 5.07741 242.599 4.92541 242.092 4.92541C241.751 4.92541 241.463 4.96807 241.228 5.05341C240.999 5.13874 240.799 5.23474 240.628 5.34141C240.463 5.44274 240.316 5.53607 240.188 5.62141C240.065 5.70674 239.937 5.74941 239.804 5.74941C239.697 5.74941 239.604 5.72007 239.524 5.66141C239.449 5.60274 239.388 5.53341 239.34 5.45341L239.06 4.94941ZM250.42 10.8454C250.922 10.8454 251.319 10.7281 251.612 10.4934C251.906 10.2534 252.052 9.93074 252.052 9.52541C252.052 9.34941 252.026 9.18674 251.972 9.03741C251.919 8.88274 251.828 8.74941 251.7 8.63741C251.572 8.52541 251.404 8.44007 251.196 8.38141C250.988 8.31741 250.732 8.28541 250.428 8.28541H248.74V10.8454H250.42ZM248.74 4.85341V7.29341H250.236C250.46 7.29341 250.666 7.26141 250.852 7.19741C251.044 7.13341 251.207 7.04541 251.34 6.93341C251.479 6.81607 251.586 6.67741 251.66 6.51741C251.74 6.35207 251.78 6.17341 251.78 5.98141C251.78 5.83741 251.754 5.69874 251.7 5.56541C251.652 5.43207 251.567 5.31207 251.444 5.20541C251.327 5.09874 251.17 5.01341 250.972 4.94941C250.775 4.88541 250.53 4.85341 250.236 4.85341H248.74ZM250.284 3.81341C250.786 3.81341 251.218 3.86407 251.58 3.96541C251.943 4.06141 252.242 4.19741 252.476 4.37341C252.711 4.54941 252.882 4.75474 252.988 4.98941C253.1 5.22407 253.156 5.47741 253.156 5.74941C253.156 5.92541 253.132 6.10941 253.084 6.30141C253.036 6.49341 252.954 6.67741 252.836 6.85341C252.719 7.02407 252.559 7.18141 252.356 7.32541C252.159 7.46941 251.906 7.58141 251.596 7.66141C252.194 7.76807 252.658 7.98141 252.988 8.30141C253.324 8.62141 253.492 9.04541 253.492 9.57341C253.492 9.97341 253.41 10.3227 253.244 10.6214C253.084 10.9147 252.866 11.1601 252.588 11.3574C252.311 11.5547 251.986 11.7014 251.612 11.7974C251.239 11.8934 250.844 11.9414 250.428 11.9414H247.252V3.81341H250.284ZM259.589 8.33341C258.954 8.35474 258.416 8.40541 257.973 8.48541C257.53 8.56007 257.17 8.66141 256.893 8.78941C256.616 8.91741 256.416 9.06941 256.293 9.24541C256.17 9.41607 256.109 9.60807 256.109 9.82141C256.109 10.0241 256.141 10.2001 256.205 10.3494C256.274 10.4934 256.365 10.6134 256.477 10.7094C256.594 10.8001 256.73 10.8667 256.885 10.9094C257.04 10.9521 257.208 10.9734 257.389 10.9734C257.629 10.9734 257.848 10.9494 258.045 10.9014C258.248 10.8534 258.437 10.7867 258.613 10.7014C258.789 10.6107 258.957 10.5014 259.117 10.3734C259.277 10.2454 259.434 10.0987 259.589 9.93341V8.33341ZM255.013 4.94941C255.466 4.51741 255.957 4.19474 256.485 3.98141C257.018 3.76807 257.602 3.66141 258.237 3.66141C258.701 3.66141 259.112 3.73874 259.469 3.89341C259.826 4.04274 260.128 4.25341 260.373 4.52541C260.618 4.79741 260.802 5.12274 260.925 5.50141C261.053 5.88007 261.117 6.29874 261.117 6.75741V11.9414H260.421C260.266 11.9414 260.149 11.9174 260.069 11.8694C259.989 11.8161 259.925 11.7201 259.877 11.5814L259.709 10.8694C259.501 11.0614 259.296 11.2321 259.093 11.3814C258.89 11.5254 258.677 11.6507 258.453 11.7574C258.234 11.8587 258 11.9361 257.749 11.9894C257.498 12.0427 257.221 12.0694 256.917 12.0694C256.597 12.0694 256.296 12.0267 256.013 11.9414C255.736 11.8507 255.493 11.7147 255.285 11.5334C255.077 11.3521 254.912 11.1254 254.789 10.8534C254.672 10.5814 254.613 10.2641 254.613 9.90141C254.613 9.58141 254.698 9.27474 254.869 8.98141C255.045 8.68274 255.328 8.41607 255.717 8.18141C256.112 7.94674 256.624 7.75474 257.253 7.60541C257.888 7.45607 258.666 7.37074 259.589 7.34941V6.75741C259.589 6.14407 259.458 5.68541 259.197 5.38141C258.936 5.07741 258.552 4.92541 258.045 4.92541C257.704 4.92541 257.416 4.96807 257.181 5.05341C256.952 5.13874 256.752 5.23474 256.581 5.34141C256.416 5.44274 256.269 5.53607 256.141 5.62141C256.018 5.70674 255.89 5.74941 255.757 5.74941C255.65 5.74941 255.557 5.72007 255.477 5.66141C255.402 5.60274 255.341 5.53341 255.293 5.45341L255.013 4.94941ZM266.74 4.66141C267.044 4.37341 267.418 4.13874 267.86 3.95741C268.303 3.77607 268.834 3.68541 269.452 3.68541C269.948 3.68541 270.386 3.74674 270.764 3.86941C271.143 3.98674 271.46 4.14674 271.716 4.34941C271.978 4.54674 272.172 4.77341 272.3 5.02941C272.434 5.28541 272.5 5.55207 272.5 5.82941C272.5 5.98941 272.474 6.15741 272.42 6.33341C272.372 6.50407 272.292 6.66941 272.18 6.82941C272.068 6.98941 271.919 7.13874 271.732 7.27741C271.551 7.41074 271.324 7.52274 271.052 7.61341C271.554 7.76807 271.951 8.01341 272.244 8.34941C272.538 8.68541 272.684 9.10407 272.684 9.60541C272.684 9.98407 272.596 10.3254 272.42 10.6294C272.25 10.9334 272.018 11.1921 271.724 11.4054C271.431 11.6134 271.092 11.7734 270.708 11.8854C270.324 11.9974 269.924 12.0534 269.508 12.0534C269.252 12.0534 268.988 12.0294 268.716 11.9814C268.45 11.9334 268.186 11.8587 267.924 11.7574C267.663 11.6561 267.415 11.5254 267.18 11.3654C266.946 11.2054 266.735 11.0107 266.548 10.7814L266.996 10.2054C267.066 10.1094 267.164 10.0614 267.292 10.0614C267.394 10.0614 267.498 10.1041 267.604 10.1894C267.716 10.2694 267.85 10.3574 268.004 10.4534C268.164 10.5494 268.354 10.6401 268.572 10.7254C268.796 10.8054 269.074 10.8454 269.404 10.8454C269.687 10.8454 269.938 10.8107 270.156 10.7414C270.38 10.6721 270.567 10.5761 270.716 10.4534C270.871 10.3307 270.988 10.1867 271.068 10.0214C271.148 9.85607 271.188 9.67474 271.188 9.47741C271.188 9.09341 271.031 8.78674 270.716 8.55741C270.402 8.32807 269.916 8.21341 269.26 8.21341H268.34V7.17341H269.26C269.836 7.17341 270.284 7.06674 270.604 6.85341C270.924 6.63474 271.084 6.35474 271.084 6.01341C271.084 5.86407 271.05 5.72274 270.98 5.58941C270.911 5.45074 270.804 5.33074 270.66 5.22941C270.522 5.12274 270.346 5.04007 270.132 4.98141C269.924 4.92274 269.682 4.89341 269.404 4.89341C269.095 4.89341 268.834 4.92541 268.62 4.98941C268.407 5.04807 268.226 5.11474 268.076 5.18941C267.927 5.26407 267.802 5.33341 267.7 5.39741C267.604 5.45607 267.522 5.48541 267.452 5.48541C267.378 5.48541 267.314 5.47207 267.26 5.44541C267.212 5.41341 267.159 5.35207 267.1 5.26141L266.74 4.66141ZM278.808 8.33341C278.173 8.35474 277.634 8.40541 277.192 8.48541C276.749 8.56007 276.389 8.66141 276.112 8.78941C275.834 8.91741 275.634 9.06941 275.512 9.24541C275.389 9.41607 275.328 9.60807 275.328 9.82141C275.328 10.0241 275.36 10.2001 275.424 10.3494C275.493 10.4934 275.584 10.6134 275.696 10.7094C275.813 10.8001 275.949 10.8667 276.104 10.9094C276.258 10.9521 276.426 10.9734 276.608 10.9734C276.848 10.9734 277.066 10.9494 277.264 10.9014C277.466 10.8534 277.656 10.7867 277.832 10.7014C278.008 10.6107 278.176 10.5014 278.336 10.3734C278.496 10.2454 278.653 10.0987 278.808 9.93341V8.33341ZM274.232 4.94941C274.685 4.51741 275.176 4.19474 275.704 3.98141C276.237 3.76807 276.821 3.66141 277.456 3.66141C277.92 3.66141 278.33 3.73874 278.688 3.89341C279.045 4.04274 279.346 4.25341 279.592 4.52541C279.837 4.79741 280.021 5.12274 280.144 5.50141C280.272 5.88007 280.336 6.29874 280.336 6.75741V11.9414H279.64C279.485 11.9414 279.368 11.9174 279.288 11.8694C279.208 11.8161 279.144 11.7201 279.096 11.5814L278.928 10.8694C278.72 11.0614 278.514 11.2321 278.312 11.3814C278.109 11.5254 277.896 11.6507 277.672 11.7574C277.453 11.8587 277.218 11.9361 276.968 11.9894C276.717 12.0427 276.44 12.0694 276.136 12.0694C275.816 12.0694 275.514 12.0267 275.232 11.9414C274.954 11.8507 274.712 11.7147 274.504 11.5334C274.296 11.3521 274.13 11.1254 274.008 10.8534C273.89 10.5814 273.832 10.2641 273.832 9.90141C273.832 9.58141 273.917 9.27474 274.088 8.98141C274.264 8.68274 274.546 8.41607 274.936 8.18141C275.33 7.94674 275.842 7.75474 276.472 7.60541C277.106 7.45607 277.885 7.37074 278.808 7.34941V6.75741C278.808 6.14407 278.677 5.68541 278.416 5.38141C278.154 5.07741 277.77 4.92541 277.264 4.92541C276.922 4.92541 276.634 4.96807 276.4 5.05341C276.17 5.13874 275.97 5.23474 275.8 5.34141C275.634 5.44274 275.488 5.53607 275.36 5.62141C275.237 5.70674 275.109 5.74941 274.976 5.74941C274.869 5.74941 274.776 5.72007 274.696 5.66141C274.621 5.60274 274.56 5.53341 274.512 5.45341L274.232 4.94941ZM294.928 10.7574V14.2374C294.928 14.3867 294.885 14.5041 294.8 14.5894C294.715 14.6747 294.605 14.7174 294.472 14.7174H293.504V11.9414H282.424V3.81341H283.984V10.7574H287.144V3.81341H288.712V10.7574H291.864V3.81341H293.432V10.7574H294.928ZM303.371 3.81341V11.9414H301.803V6.62941C301.803 6.52274 301.808 6.40541 301.819 6.27741C301.829 6.14407 301.845 6.01074 301.867 5.87741C301.813 5.98941 301.76 6.09607 301.707 6.19741C301.659 6.29341 301.608 6.37874 301.555 6.45341L297.819 11.5494C297.76 11.6454 297.683 11.7361 297.587 11.8214C297.491 11.9067 297.381 11.9494 297.259 11.9494H296.315V3.81341H297.875V9.13341C297.875 9.24007 297.869 9.36007 297.859 9.49341C297.848 9.62141 297.832 9.74941 297.811 9.87741C297.917 9.64274 298.021 9.45341 298.123 9.30941L301.859 4.20541C301.917 4.11474 301.995 4.02674 302.091 3.94141C302.192 3.85607 302.304 3.81341 302.427 3.81341H303.371ZM318.053 10.7574V14.2374C318.053 14.3867 318.01 14.5041 317.925 14.5894C317.84 14.6747 317.73 14.7174 317.597 14.7174H316.629V11.9414H305.549V3.81341H307.109V10.7574H310.269V3.81341H311.837V10.7574H314.989V3.81341H316.557V10.7574H318.053ZM324.683 6.97341C324.683 6.66407 324.638 6.37874 324.547 6.11741C324.462 5.85607 324.334 5.62941 324.163 5.43741C323.992 5.24541 323.784 5.09607 323.539 4.98941C323.294 4.88274 323.011 4.82941 322.691 4.82941C322.035 4.82941 321.518 5.01874 321.139 5.39741C320.766 5.77607 320.528 6.30141 320.427 6.97341H324.683ZM325.971 10.7814C325.779 11.0054 325.558 11.2001 325.307 11.3654C325.056 11.5254 324.79 11.6561 324.507 11.7574C324.224 11.8587 323.931 11.9334 323.627 11.9814C323.328 12.0294 323.032 12.0534 322.739 12.0534C322.179 12.0534 321.659 11.9601 321.179 11.7734C320.704 11.5814 320.291 11.3041 319.939 10.9414C319.592 10.5734 319.32 10.1201 319.123 9.58141C318.931 9.03741 318.835 8.41341 318.835 7.70941C318.835 7.14407 318.923 6.61874 319.099 6.13341C319.275 5.64274 319.526 5.21607 319.851 4.85341C320.182 4.49074 320.584 4.20541 321.059 3.99741C321.534 3.78941 322.067 3.68541 322.659 3.68541C323.155 3.68541 323.611 3.76807 324.027 3.93341C324.448 4.09341 324.811 4.32807 325.115 4.63741C325.419 4.94674 325.656 5.32807 325.827 5.78141C326.003 6.23474 326.091 6.75207 326.091 7.33341C326.091 7.57341 326.064 7.73607 326.011 7.82141C325.958 7.90141 325.859 7.94141 325.715 7.94141H320.387C320.403 8.42674 320.472 8.85074 320.595 9.21341C320.718 9.57074 320.886 9.86941 321.099 10.1094C321.318 10.3494 321.576 10.5281 321.875 10.6454C322.174 10.7627 322.507 10.8214 322.875 10.8214C323.222 10.8214 323.52 10.7814 323.771 10.7014C324.027 10.6214 324.246 10.5361 324.427 10.4454C324.614 10.3494 324.768 10.2614 324.891 10.1814C325.019 10.1014 325.131 10.0614 325.227 10.0614C325.355 10.0614 325.454 10.1094 325.523 10.2054L325.971 10.7814ZM334.616 3.81341V11.9414H333.048V8.19741H329.328V11.9414H327.768V3.81341H329.328V7.01341H333.048V3.81341H334.616ZM339.967 10.7974C340.5 10.7974 340.9 10.6694 341.167 10.4134C341.434 10.1521 341.567 9.82141 341.567 9.42141C341.567 9.24007 341.538 9.06941 341.479 8.90941C341.42 8.74407 341.327 8.60274 341.199 8.48541C341.071 8.36274 340.903 8.26674 340.695 8.19741C340.492 8.12274 340.242 8.08541 339.943 8.08541H338.287V10.7974H339.967ZM339.943 6.94941C340.503 6.94941 340.975 7.01874 341.359 7.15741C341.748 7.29074 342.06 7.47207 342.295 7.70141C342.53 7.92541 342.698 8.18674 342.799 8.48541C342.906 8.77874 342.959 9.08541 342.959 9.40541C342.959 9.77341 342.892 10.1147 342.759 10.4294C342.631 10.7387 342.439 11.0054 342.183 11.2294C341.927 11.4534 341.612 11.6294 341.239 11.7574C340.871 11.8801 340.447 11.9414 339.967 11.9414H336.799V3.81341H338.287V6.94941H339.943ZM346.231 3.81341V11.9414H344.671V3.81341H346.231Z" fill="white"/>
</svg>
