<svg width="284" height="301" viewBox="0 0 284 301" fill="none" xmlns="http://www.w3.org/2000/svg">
<path d="M88.6697 171.354C89.4045 184.202 91.8687 200.102 105.488 206.505C119.108 212.907 141.453 220.5 142.636 229.866C143.868 239.224 130.269 248.046 123.301 249.928C116.312 251.838 102.406 231.921 98.0926 227.094C93.7793 222.267 70.8955 208.6 60.6862 205.492C50.5537 202.397 88.6697 171.354 88.6697 171.354Z" fill="#424259"/>
<path d="M96.2127 225.361C96.3929 225.234 96.5731 225.107 96.7534 224.98C100.643 222.345 104.391 219.432 107.88 216.284C109.638 214.721 111.312 213.096 112.923 211.38C113.269 211.029 113.636 210.649 113.954 210.277C110.941 208.965 108.061 207.708 105.488 206.505C91.8406 200.081 89.4045 184.202 88.6697 171.354C88.6697 171.354 50.5256 202.376 60.7349 205.484C69.8552 208.309 89.1889 219.575 96.2127 225.361Z" fill="#29293A"/>
<path d="M17.3832 191.241C17.3832 191.241 15.1079 179.251 25.9134 164.772C36.719 150.294 63.0582 132.406 70.6687 121.205C76.4042 112.781 76.804 94.0534 84.2482 88.7094C91.6851 83.3167 119.288 106.833 126.633 112.769C133.979 118.706 103.202 131.934 99.6235 139.955C96.045 147.976 106.351 187.208 80.4333 214.203C61.7693 233.589 17.3832 191.241 17.3832 191.241Z" fill="#424259"/>
<path d="M114.311 114.17C108.626 119.944 93.2256 121.588 89.4471 128.942C87.2916 134.329 88.5375 149.417 87.5083 157.325C83.2313 179.434 64.7495 197.048 46.2447 211.526C51.193 213.615 63.8185 219.371 67.7405 219.273C101.576 218.439 98.894 144.054 99.6235 139.955C103.202 131.934 133.979 118.706 126.634 112.77C124.082 110.715 114.429 109.317 113.388 102.223C114.223 107.778 117.078 111.357 114.311 114.17Z" fill="#29293A"/>
<path d="M16.2947 208.205C13.6723 200.205 14.2255 181.503 21.2564 174.901C28.2873 168.299 79.815 203.954 84.4108 208.339C85.7027 210.635 70.3643 231.261 59.6069 232.298C44.9154 233.685 19.2098 217.157 16.2947 208.205Z" fill="#5DB5BC"/>
<path d="M41.7363 225.795C48.2353 228.42 54.2914 232.409 59.5995 232.25C70.4107 231.902 85.6746 210.614 84.4034 208.29C82.9511 206.916 70.7459 201.47 62.9319 196.228C58.5251 204.375 46.2993 222.833 41.7363 225.795Z" fill="#3D949B"/>
<path d="M20.4775 208.516C20.4775 208.516 17.5794 191.386 22.0122 184.905C26.417 178.403 33.9213 182.247 38.3585 185.908C42.8444 189.563 31.9846 217.607 30.6683 218.63C29.3726 219.625 20.4775 208.516 20.4775 208.516Z" fill="#6ECFD7"/>
<path d="M31.0298 166.985C32.5334 161.074 62.0198 138.097 68.3479 131.627C74.648 125.136 78.5977 120.249 79.9635 113.586C81.3293 106.923 83.1996 93.0061 87.4104 93.3377C91.6212 93.6694 102.179 95.7774 99.4684 103.442C96.7862 111.127 82.9325 119.415 79.2371 127.653C75.5417 135.891 56.2248 170.83 50.6555 173.396C45.135 175.955 31.0298 166.985 31.0298 166.985Z" fill="#65657C"/>
<path d="M103.59 227.031C103.706 229.63 120.577 245.233 123.42 245.249C126.263 245.265 131.863 243.068 133.338 239.953C134.813 236.837 121.917 230.275 116.273 228.367C110.602 226.438 103.445 224.411 103.59 227.031Z" fill="#65657C"/>
<path d="M250.477 101.563C250.165 102.632 249.068 103.298 247.979 103.015C231.005 98.9914 217.829 101.842 211.756 110.841C207.434 117.23 207.728 125.983 212.466 132.64C224.18 149.077 228.538 160.004 226.399 167.656C226.236 168.229 226.024 168.81 225.784 169.37C222.33 177.222 211.714 179.534 200.729 180.881C181.767 183.191 182.152 190.236 182.901 203.007C183.501 213.632 184.266 226.85 173.502 241.272C160.999 258.052 137.507 243.157 116.451 227.891C115.526 227.209 115.308 225.921 116.012 224.967C116.695 224.041 117.982 223.82 118.935 224.523C138.366 238.59 159.962 252.478 170.188 238.785C180.042 225.598 179.324 213.196 178.778 203.26C178.057 190.509 177.427 179.515 200.281 176.737C213.417 175.113 219.891 172.434 221.996 167.703C224.676 161.663 220.431 150.993 209.098 135.096C203.353 127.047 203.046 116.377 208.318 108.522C211.682 103.55 222.354 92.6556 248.967 98.9764C250.105 99.252 250.796 100.368 250.519 101.507C250.519 101.507 250.498 101.535 250.477 101.563Z" fill="#424259"/>
<path d="M262.234 98.0556C262.73 98.2045 274.029 98.9535 275.829 97.334C276.556 96.7001 277.575 96.0217 275.691 94.5886C273.49 92.8796 260.922 94.9652 260.922 94.9652L262.234 98.0556Z" fill="#29293A"/>
<path d="M261.746 105.756C261.746 105.756 274.847 106.879 275.939 108.508C276.446 109.228 276.789 110.522 274.938 110.803C272.697 111.144 267.926 110.399 265.814 110.272C261.945 110.062 259.633 109.268 259.633 109.268L261.746 105.756Z" fill="#29293A"/>
<path d="M264.433 111.03C264.433 111.03 248.799 111.289 244.534 105.458C241.403 101.198 243.111 92.8387 250.109 91.1516C257.106 89.4645 263.559 89.6296 266.307 90.0093C269.019 90.3195 268.807 106.975 264.433 111.03Z" fill="#29293A"/>
<path d="M265.263 115.066C265.263 115.066 251.372 113.49 246.27 108.384C241.932 104.059 243.942 96.8745 250.96 95.1593C257.957 93.4722 264.41 93.6374 267.158 94.017C269.878 94.376 269.686 111.004 265.263 115.066Z" fill="#424259"/>
<path d="M253.248 93.64C252.789 94.7316 264.644 96.0194 265.755 100.262C266.865 104.504 265.803 111.694 266.227 111.53C266.679 111.386 268.703 106.119 268.288 99.8765C267.873 93.6342 266.776 91.3087 266.776 91.3087C266.776 91.3087 253.905 92.0447 253.248 93.64Z" fill="#29293A"/>
<path d="M258.402 111.523C258.402 111.523 249.605 110.02 247.829 108.147C246.052 106.273 244.201 103.739 246.174 102.94C248.147 102.142 261.789 104.877 263.449 106.145C265.11 107.413 264.843 112.762 258.402 111.523Z" fill="#65657C"/>
</svg>
