<svg width="195" height="195" viewBox="0 0 195 195" fill="none" xmlns="http://www.w3.org/2000/svg">
<path d="M97.4996 0C84.3486 0 71.5765 2.58206 59.5407 7.67244C47.927 12.5849 37.503 19.6116 28.5569 28.5577C19.6108 37.5038 12.584 47.9286 7.6716 59.5415C2.58036 71.5773 0 84.3495 0 97.5004C0 110.652 2.58036 123.423 7.6716 135.459C12.584 147.072 19.6108 157.497 28.5569 166.443C37.503 175.389 47.927 182.416 59.5407 187.328C71.5765 192.419 84.3486 195 97.4996 195C110.651 195 123.422 192.419 135.458 187.328C147.071 182.416 157.496 175.389 166.442 166.443C175.388 157.497 182.415 147.072 187.327 135.459C192.418 123.423 194.999 110.652 194.999 97.5004C194.999 84.3495 192.418 71.5773 187.327 59.5415C182.415 47.9286 175.388 37.5038 166.442 28.5577C157.496 19.6116 147.071 12.5849 135.458 7.67244C123.422 2.58206 110.651 0 97.4996 0ZM97.4996 24.7376C137.685 24.7376 170.262 57.3145 170.262 97.5004C170.262 137.686 137.685 170.262 97.4996 170.262C57.3137 170.262 24.7367 137.686 24.7367 97.5004C24.7367 57.3145 57.3137 24.7376 97.4996 24.7376Z" fill="#D3B5DA"/>
<mask id="mask0_92_368" style="mask-type:luminance" maskUnits="userSpaceOnUse" x="16" y="4" width="156" height="167">
<path d="M170.261 97.5004C170.261 103.665 169.495 109.651 168.052 115.367C166.034 123.363 164.502 151.32 156.912 153.922C151.553 155.759 155.894 140.968 154.6 142.605C141.272 159.453 120.649 170.262 97.4995 170.262C57.3136 170.262 24.7366 137.686 24.7366 97.5004C22.0978 88.5687 -15.5424 8.69615 95.5911 4.56165C161.505 7.54791 175.285 80.9048 170.261 97.5004Z" fill="white"/>
</mask>
<g mask="url(#mask0_92_368)">
<path d="M51.468 104.691C51.468 104.691 43.5311 96.247 35.5333 107.069C32.1428 96.558 37.712 90.4135 37.712 90.4135C37.712 90.4135 32.2987 90.7465 30.2065 96.5055C27.0829 81.9869 33.2741 75.6084 33.2741 75.6084C33.2741 75.6084 30.2895 71.2646 24.2712 78.8565C26.938 66.1344 35.6782 58.228 35.6782 58.228C35.6782 58.228 28.8286 55.1257 22.1484 61.9016C25.744 45.9906 39.8339 42.6738 39.8339 42.6738C39.8339 42.6738 38.5831 37.4631 34.8223 34.8319C40.9813 33.082 46.4538 36.4886 46.4538 36.4886C46.4538 36.4886 44.7455 27.0476 41.5457 24.7731C48.1716 24.2664 52.7467 30.5694 52.7467 30.5694C52.7467 30.5694 51.2392 26.3781 55.4432 17.5515C56.7143 25.4536 60.281 28.5127 60.281 28.5127C60.281 28.5127 61.692 19.2463 71.6033 14.45C67.3162 25.5087 72.0558 27.3458 72.0558 27.3458C72.0558 27.3458 70.4593 19.7099 88.7413 10.5536C82.7018 19.787 87.6448 22.5419 87.6448 22.5419C87.6448 22.5419 99.7525 8.11218 115.031 14.9296C106.875 17.2193 107.035 21.4191 107.035 21.4191C107.035 21.4191 121.81 17.2769 130.369 25.4875C122.335 26.5942 118.724 31.1499 118.724 31.1499C118.724 31.1499 137.667 27.1425 149.656 46.9151C144.325 45.0169 140.502 47.3083 140.502 47.3083C140.502 47.3083 157.462 55.196 163.243 74.3229C154.866 68.6724 150.553 71.3612 150.553 71.3612C150.553 71.3612 167.105 77.4142 165.993 101.054C162.826 94.1514 156.882 93.8328 156.882 93.8328C156.882 93.8328 167.838 101.993 164.926 117.08C161.25 107.883 157.803 107.973 157.803 107.973C157.803 107.973 169.305 128.143 156.757 145.365C156.969 128.952 151.811 128.267 151.811 128.267C151.811 128.267 157.281 159.016 139.827 183.199C140.462 175.645 137.182 171.27 137.182 171.27C137.182 171.27 138.5 185.9 126.447 194.059C129.275 185.539 126.014 183.855 126.014 183.855C126.014 183.855 90.4285 109.338 51.468 104.691Z" fill="#4C2A20"/>
<path d="M127.079 182.96C127.925 183.657 129.504 185.648 128.742 190.459C136.712 182.68 135.85 171.514 135.839 171.388L135.429 166.684L138.262 170.461C138.378 170.616 140.568 173.6 141.129 178.815C155.155 155.994 150.534 128.79 150.483 128.503L150.16 126.686L151.989 126.929C152.942 127.056 157.305 128.324 158.015 140.775C165.968 125.382 156.735 108.82 156.632 108.641L155.516 106.683L157.77 106.623C158.382 106.608 161.035 106.866 164.074 112.151C164.135 101.115 156.446 95.1911 156.076 94.9123L152.533 92.2497L156.956 92.4853C157.172 92.4971 161.224 92.7666 164.635 96.5189C163.607 77.7988 150.235 72.6813 150.09 72.628L147.493 71.6788L149.84 70.2162C150.02 70.1035 153.812 67.8409 160.753 71.2967C154.38 55.4425 140.087 48.6022 139.933 48.531L137.634 47.4556L139.81 46.1506C139.951 46.0659 142.655 44.4871 146.684 44.8727C135.325 29.2372 119.175 32.4344 119.004 32.47L115.342 33.2446L117.668 30.3117C117.808 30.1337 120.809 26.4322 127.253 24.734C119.202 19.5047 107.529 22.6824 107.4 22.718L105.753 23.1799L105.688 21.4707C105.68 21.2893 105.616 17.648 111.045 14.9829C98.484 11.9517 88.7846 23.2832 88.6804 23.4087L87.9635 24.2629L86.9898 23.7205C86.8076 23.6189 85.1924 22.6587 84.6018 20.2623C84.1484 18.4217 84.4238 16.2828 85.4204 13.8745C72.6118 21.319 73.3651 27.0093 73.377 27.0695L73.8863 29.5024L71.5695 28.6041C71.389 28.5338 69.7814 27.8525 68.951 25.4933C68.2205 23.4231 68.3035 20.719 69.195 17.4268C62.7572 21.9766 61.6641 28.4118 61.6149 28.7194L61.237 31.1057L59.4032 29.5372C59.2727 29.4253 56.7483 27.2059 55.089 21.9427C53.1985 27.4279 54.0137 30.1007 54.0238 30.132L56.6483 38.229L51.6553 31.3608C51.6223 31.3167 48.7792 27.4991 44.5583 26.3916C46.6081 30.0464 47.6411 35.4707 47.7818 36.2486L48.3242 39.2417L45.7413 37.6342C45.7014 37.6087 42.1372 35.4555 37.7485 35.7038C40.2195 38.6036 41.1017 42.1712 41.1474 42.3585L41.4635 43.6762L40.145 43.9872C39.6569 44.1033 29.2142 46.7379 24.7068 58.1516C30.6828 54.5705 35.9723 56.8805 36.235 56.9992L38.1095 57.8483L36.5842 59.2287C36.5121 59.2939 30.2921 65.0284 26.9466 74.3592C28.3024 73.4287 29.621 72.9804 30.8828 73.0245C33.1259 73.1008 34.2648 74.6668 34.3876 74.8447L35.013 75.7557L34.2436 76.548C34.1978 76.5972 29.6184 81.5944 30.9175 92.5887C33.6767 89.3541 37.4282 89.0787 37.6298 89.066L40.9398 88.8618L38.7128 91.3184C38.5289 91.5243 34.541 96.1351 36.1731 104.202C38.5349 101.72 41.1102 100.383 43.8532 100.222C47.9242 99.9823 51.046 102.457 52.0833 103.409C68.5035 105.584 86.1186 119.652 104.448 145.229C117.155 162.962 125.84 180.422 127.079 182.96ZM123.917 197.403L125.167 193.634C127.359 187.032 125.607 185.251 125.36 185.04L124.891 184.861L124.796 184.436C124.708 184.25 115.777 165.666 102.232 146.77C89.8354 129.477 70.9381 108.372 51.3087 106.031L50.8215 105.973L50.4876 105.617C50.4096 105.536 47.62 102.685 43.9897 102.917C41.4093 103.078 38.9289 104.745 36.6189 107.871L35.0571 109.985L34.2495 107.484C32.1327 100.92 33.2843 95.9393 34.636 92.9031C33.4564 93.6572 32.2242 94.9063 31.4751 96.9664L29.8735 101.373L28.888 96.7893C26.3695 85.0823 29.6718 78.3751 31.3921 75.8396C31.209 75.771 30.9938 75.7244 30.7463 75.721C29.8921 75.7142 28.0914 76.2108 25.3297 79.6945L21.7791 84.1739L22.951 78.5793C24.9806 68.901 30.3354 61.9845 33.092 58.944C30.8243 58.6457 26.9737 58.9304 23.1103 62.8488L19.791 66.2156L20.8333 61.6048C23.934 47.8827 34.3309 43.0949 38.1358 41.7788C37.5612 40.2162 36.2986 37.5113 34.0495 35.9376L31.7242 34.3098L34.4546 33.5335C38.4739 32.3904 42.1855 33.2327 44.549 34.1115C43.7117 30.832 42.3177 26.9763 40.7644 25.8729L37.7248 23.7121L41.4432 23.4273C45.6192 23.1053 49.0097 25.1433 51.1842 26.9941C51.3825 24.6823 52.1341 21.363 54.2264 16.9718L56.089 13.0618L56.7762 17.337C57.4186 21.3334 58.6829 24.007 59.6905 25.6026C60.8879 22.2842 63.8792 16.6896 71.0161 13.2355L74.1007 11.7424L72.8626 14.9371C71.1313 19.403 70.972 22.1401 71.2873 23.7866C72.616 20.3885 76.6149 15.1176 88.138 9.34676L92.6089 7.10873L89.8718 11.2924C87.0948 15.5371 86.8864 18.1124 87.2008 19.525C87.2999 19.9733 87.4576 20.3275 87.6236 20.6004C90.9548 17.2709 102.141 7.70023 115.582 13.6973L118.992 15.2185L115.397 16.2277C111.938 17.198 110.186 18.4996 109.298 19.5538C114.11 18.7225 124.439 17.9302 131.304 24.5137L133.316 26.4441L130.553 26.8238C127.204 27.2856 124.676 28.3932 122.912 29.4651C124.845 29.4711 127.287 29.6634 130.005 30.3041C135.944 31.7048 144.376 35.6012 150.812 46.215L152.778 49.458L149.205 48.1861C147.08 47.4285 145.242 47.4124 143.864 47.6226C149.056 50.7885 160.02 58.9965 164.536 73.933L165.633 77.5624L162.49 75.4422C159.233 73.2449 156.673 72.411 154.825 72.1678C156.281 73.1576 158.001 74.549 159.697 76.4421C163.513 80.708 167.938 88.4499 167.342 101.119L167.081 106.66L164.768 101.617C164.212 100.405 163.565 99.4205 162.885 98.6205C165.52 102.759 167.852 109.042 166.251 117.335L165.38 121.849L163.674 117.58C162.912 115.673 162.172 114.205 161.488 113.076C162.163 115.008 162.838 117.347 163.313 119.969C165.091 129.756 163.201 138.812 157.848 146.16L155.355 149.584L155.408 145.348C155.499 138.322 154.604 134.407 153.653 132.236C153.946 135.571 154.173 140.671 153.71 146.767C152.955 156.71 150.122 171.242 140.921 183.989L138.075 187.932L138.483 183.085C138.667 180.909 138.5 179.013 138.183 177.436C137.331 182.678 134.74 190.075 127.204 195.177L123.917 197.403Z" fill="#040606"/>
<path d="M43.4209 89.7592C43.4209 89.7592 33.8078 90.9575 34.2095 76.11C34.6103 61.2617 47.5833 62.4659 50.795 67.5486C54.0067 72.6322 43.4209 89.7592 43.4209 89.7592Z" fill="#F7BF7F"/>
<path d="M43.6268 65.4412C42.9557 65.4412 42.2735 65.5259 41.6024 65.7089C37.8585 66.7385 35.712 70.4451 35.5578 76.1465C35.4231 81.1225 36.4789 84.7892 38.6119 86.7526C40.0991 88.1221 41.7719 88.3924 42.6515 88.4305C46.78 81.5894 51.5001 71.1917 49.6536 68.2698C48.6672 66.708 46.2318 65.4412 43.6268 65.4412ZM42.9294 91.1304C41.7329 91.1304 39.1237 90.8617 36.8332 88.783C34.0376 86.2467 32.7004 81.9707 32.8605 76.0736C33.1241 66.2894 38.5619 63.7472 40.8872 63.1074C45.0429 61.9651 49.896 63.5997 51.9357 66.8284C55.4211 72.3459 46.4097 87.4899 44.5683 90.4685L44.2285 91.0194L43.587 91.0982C43.5506 91.1033 43.3124 91.1304 42.9294 91.1304Z" fill="#040606"/>
<path d="M44.4731 81.9715C44.4731 81.9715 49.9847 71.7374 42.5029 72.9C33.317 74.3262 40.4962 87.2568 40.4962 87.2568C40.4962 87.2568 40.9598 81.3673 44.4731 81.9715Z" fill="#C6424F"/>
<path d="M39.8474 86.9941C38.8525 84.7536 38.0458 82.4571 37.5806 80.0056C37.362 78.7785 37.2255 77.5091 37.3933 76.171C37.4823 75.5058 37.6568 74.8143 38.0111 74.1525C38.3543 73.4898 38.9254 72.8839 39.605 72.4949C40.2864 72.1 41.0312 71.9212 41.7363 71.8509C42.4523 71.7941 43.1015 71.8094 43.8057 71.9119C44.4997 72.0145 45.2412 72.2246 45.9445 72.667C46.6487 73.1009 47.2563 73.8313 47.5554 74.6219C47.869 75.4134 47.9317 76.2032 47.908 76.9311C47.8791 77.6624 47.7554 78.3472 47.5893 79.0031C47.4207 79.6581 47.2089 80.2861 46.9656 80.8953C46.7148 81.5156 46.4674 82.0732 46.1182 82.7122C45.7022 83.4748 44.7463 83.7553 43.9836 83.3393C43.2201 82.9232 42.9387 81.9673 43.3557 81.2046L43.4243 81.0911L43.4353 81.0733C43.698 80.6784 43.9895 80.1598 44.2268 79.6827C44.47 79.1946 44.6836 78.6963 44.8564 78.1997C45.2022 77.2176 45.3632 76.1862 45.1564 75.4948C45.0564 75.1499 44.887 74.888 44.5912 74.6558C44.2963 74.4262 43.8752 74.2415 43.3913 74.1305C42.9133 74.0152 42.354 73.9576 41.8727 73.9618C41.3829 73.972 40.9262 74.0559 40.5491 74.2372C39.7932 74.5736 39.2932 75.4041 39.0839 76.4524C38.8686 77.4921 38.8898 78.6505 39.011 79.7962C39.2678 82.0978 39.8906 84.4248 40.6838 86.6391L40.6906 86.656C40.7753 86.8933 40.6524 87.1526 40.416 87.2373C40.1906 87.3178 39.9432 87.2094 39.8474 86.9941Z" fill="#040606"/>
<path d="M38.3013 162.267C33.4779 162.114 31.6407 169.845 31.411 175.204C31.1805 180.563 39.3724 181.329 42.2816 181.175C44.1196 182.751 52.6166 181.992 52.6166 181.992L56.2062 164.486C56.2062 164.486 56.7799 161.999 50.8633 161.408L52.4259 161.327C52.4259 161.327 50.8557 155.798 47.2194 155.605C43.5832 155.415 37.803 162.075 37.803 162.075L38.3013 162.267Z" fill="#F7BF7F"/>
<path d="M41.8923 168.305C41.9957 167.421 42.1855 166.66 42.4567 165.865C42.727 165.083 43.0838 164.319 43.5549 163.604C44.0236 162.89 44.6176 162.229 45.3303 161.697C46.0446 161.168 46.8717 160.772 47.7318 160.558C48.5894 160.342 49.4741 160.292 50.3147 160.343L51.513 160.446C51.9163 160.509 52.3172 160.547 52.7231 160.631C53.5332 160.786 54.3577 161.011 55.1839 161.417C55.3899 161.526 55.5958 161.627 55.7983 161.779C55.8992 161.851 56.0009 161.916 56.1008 161.996L56.3923 162.261C56.7694 162.636 57.1203 163.136 57.2669 163.774C57.3042 163.933 57.3237 164.098 57.3287 164.278C57.3304 164.365 57.3296 164.457 57.316 164.568L57.3042 164.661L57.2889 164.741L57.2753 164.812L57.1677 165.374L56.9525 166.501L56.522 168.752L55.661 173.257L53.9391 182.263C53.8264 182.854 53.3383 183.278 52.7688 183.334L52.7375 183.336L52.7358 183.337C51.8197 183.412 50.9418 183.461 50.041 183.493C49.1462 183.523 48.2462 183.534 47.3386 183.513C46.4302 183.492 45.5141 183.442 44.5684 183.315C44.0939 183.248 43.6109 183.164 43.1016 183.023C42.5914 182.867 42.0474 182.712 41.4042 182.2L42.3533 182.523C40.7102 182.589 39.1645 182.455 37.5866 182.158C36.0223 181.848 34.436 181.384 32.9428 180.429C32.2022 179.955 31.4955 179.313 30.9531 178.5C30.4209 177.678 30.1065 176.683 30.0659 175.729C30.065 175.502 30.0574 175.232 30.0684 175.042L30.1015 174.459C30.1269 174.071 30.1582 173.684 30.1989 173.298C30.2777 172.526 30.3836 171.756 30.5201 170.989C30.7946 169.456 31.1785 167.928 31.7768 166.427C32.3869 164.942 33.1784 163.414 34.6258 162.207C35.3427 161.611 36.2731 161.154 37.2544 160.992C37.4993 160.962 37.7459 160.92 37.99 160.923L38.3535 160.918L38.6467 160.932C39.0357 160.947 39.4281 160.97 39.8229 161.007C40.6119 161.08 41.4084 161.184 42.2304 161.388C42.6406 161.485 43.0609 161.62 43.4948 161.798C43.7126 161.892 43.9329 161.997 44.1685 162.142C44.2829 162.209 44.4074 162.297 44.5312 162.392L44.7354 162.57C44.8227 162.665 44.8489 162.662 45.0337 162.93C45.4294 163.561 45.237 164.394 44.6049 164.788C43.9727 165.184 43.1406 164.992 42.7457 164.36C42.877 164.551 42.838 164.48 42.8601 164.511L42.8533 164.505L42.7558 164.441C42.6745 164.391 42.5584 164.334 42.4355 164.281C42.1804 164.179 41.8932 164.079 41.5779 164.007C40.9559 163.852 40.2729 163.758 39.5814 163.695C39.2357 163.663 38.8857 163.641 38.5315 163.628L38.2671 163.616L38.0731 163.619C37.9434 163.613 37.8222 163.644 37.6985 163.653C37.2129 163.74 36.7562 163.947 36.3282 164.3C35.4639 165.002 34.7817 166.178 34.2817 167.432C33.7767 168.695 33.4259 170.068 33.1767 171.461C33.053 172.159 32.9555 172.865 32.8835 173.572C32.8462 173.926 32.8174 174.281 32.7945 174.635L32.7649 175.165C32.7547 175.347 32.7666 175.449 32.7615 175.595C32.7886 176.128 32.9445 176.595 33.214 177.026C33.5021 177.449 33.9046 177.843 34.4165 178.169C35.4359 178.829 36.7519 179.249 38.0976 179.508C39.4416 179.766 40.8814 179.884 42.2109 179.828L42.2677 179.825C42.6092 179.812 42.927 179.938 43.16 180.151C43.2033 180.191 43.5007 180.341 43.8278 180.424C44.1625 180.517 44.5439 180.587 44.9354 180.641C45.7243 180.748 46.5598 180.796 47.4005 180.815C48.2428 180.835 49.0953 180.824 49.9486 180.796C50.7977 180.766 51.668 180.717 52.4968 180.649L52.4977 180.648L51.296 181.722L53.2595 172.748L54.2416 168.262L54.7323 166.019L54.978 164.896L55.1009 164.336L55.117 164.266L55.1195 164.251L55.1153 164.276L55.1111 164.298V164.302L55.1051 164.237C55.0848 164.124 55.0017 163.962 54.8441 163.796L54.7162 163.669L54.5543 163.549C54.4552 163.464 54.317 163.396 54.1874 163.322C53.6476 163.038 52.9925 162.824 52.3053 162.677C51.9646 162.596 51.6028 162.553 51.2528 162.487L50.1681 162.366C49.4834 162.306 48.8233 162.331 48.192 162.469C47.5623 162.609 46.9776 162.873 46.4514 163.236C45.9285 163.606 45.4675 164.084 45.082 164.638C44.6956 165.191 44.3812 165.813 44.1346 166.469C43.8888 167.114 43.6973 167.844 43.6058 168.478L43.5982 168.527C43.5304 168.998 43.094 169.324 42.6236 169.256C42.161 169.189 41.8389 168.766 41.8923 168.305Z" fill="#231F20"/>
<path d="M37.8037 163.425C37.4902 163.425 37.1758 163.316 36.9199 163.094C36.3572 162.605 36.297 161.753 36.7851 161.191C37.4097 160.47 42.9272 154.254 47.0786 154.254L47.2913 154.259C51.8385 154.499 53.6494 160.695 53.724 160.959C53.9274 161.676 53.5113 162.422 52.7944 162.625C52.08 162.83 51.3326 162.414 51.1275 161.696C51.1157 161.652 49.731 157.089 47.149 156.954L47.0558 156.951C44.9745 156.951 41.0112 160.439 38.8232 162.959C38.5571 163.266 38.1808 163.425 37.8037 163.425Z" fill="#231F20"/>
<path d="M81.9452 206.171L73.127 229.597L48.4005 228.64C48.4005 228.64 43.1559 226.88 43.8838 221.521C44.6109 216.161 49.2326 209.516 56.2093 208.011C56.8347 203.767 58.333 193.597 58.333 193.597L56.2093 187.511C56.2093 187.511 44.8702 181.851 52.607 177.187C53.3409 170.773 56.0746 160.512 60.0464 154.576C59.0795 151.51 51.1995 148.409 52.5562 140.831C53.912 133.253 80.3241 125.213 80.3241 125.213L117.989 123.3L139.176 135.606C139.176 135.606 136.554 144.549 128.018 152.852C127.677 154.92 130.694 172.219 130.694 172.219H133.147C133.147 172.219 136.882 176.515 130.945 180.893C131.077 184.54 131.562 185.157 128.164 193.597C128.783 199.855 129.549 206.171 129.549 206.171L131.47 208.011C131.47 208.011 141.322 209.383 143.263 220.18C145.204 230.975 132.461 229.001 132.461 229.001L114.258 229.597L105.3 206.171C105.3 206.171 103.203 208.621 81.9452 206.171Z" fill="#F7BF7F"/>
<path d="M56.1654 187.439C56.1654 187.439 44.8262 181.778 52.5631 177.115C53.297 170.701 56.0315 160.44 60.0025 154.504C59.0364 151.438 51.1564 148.337 52.5122 140.759C53.8681 133.18 80.2802 125.141 80.2802 125.141L117.945 123.227L139.132 135.534C139.132 135.534 136.51 144.477 127.974 152.779C127.634 154.848 130.65 172.146 130.65 172.146H133.103C133.103 172.146 136.838 176.443 130.901 180.821C113.635 199.865 56.1654 187.439 56.1654 187.439Z" fill="#EBEBE9"/>
<path d="M57.3242 137.844C57.3242 137.844 72.853 144.345 84.7955 142.614C96.7381 140.882 103.192 140.062 103.984 139.553C104.193 140.632 108.147 139.382 102.178 144.793C97.427 149.099 70.4413 149.788 57.3242 137.844Z" fill="#C1C0B8"/>
<path d="M43.5741 95.9072C43.5741 95.9072 37.8812 104.677 42.1293 119.202C43.3064 123.227 48.523 142.592 83.971 141.922C119.419 141.254 128.99 118.488 124.421 99.0519C123.472 95.0149 120.67 84.4197 117.228 76.1744C112.167 65.7911 101.194 54.7544 77.4061 56.3137C38.6244 58.8551 43.5741 95.9072 43.5741 95.9072Z" fill="#F7BF7F"/>
<path d="M70.2772 155.034C70.2568 154.688 69.806 146.517 72.7025 141.771L74.6218 142.943C72.0949 147.084 72.5169 154.823 72.522 154.9L70.2772 155.034Z" fill="#353436"/>
<path d="M91.103 154.756C90.9505 154.451 87.3659 147.234 89.0328 141.263L91.1988 141.867C89.7633 147.008 93.0775 153.677 93.1114 153.744L91.103 154.756Z" fill="#353436"/>
<path d="M54.4805 134.96C54.4805 134.96 59.787 141.661 79.1698 141.939C113.849 142.438 119.018 125.619 119.018 125.619C119.018 125.619 94.6494 145.042 54.4805 134.96Z" fill="#D69861"/>
<path d="M58.5233 63.2362C61.6867 61.4846 68.4278 62.2193 68.5287 63.7557C68.7193 66.6631 62.0019 64.2074 59.597 66.4971C56.0616 69.8621 52.444 71.1604 52.0067 70.1214C51.2483 68.3181 55.5158 64.9022 58.5233 63.2362Z" fill="#FCD4AE"/>
<path d="M97.9434 139.48C97.9434 139.48 116.005 140.661 122.36 122.347C131.808 95.1174 112.11 68.3554 112.11 68.3554C112.11 68.3554 133.459 122.347 97.9434 139.48Z" fill="#D69861"/>
<path d="M44.7075 96.6386C44.6524 96.725 39.4205 105.136 43.4237 118.823L43.4669 118.973C48.8217 137.356 68.435 140.867 83.946 140.573C99.4892 140.28 111.254 135.558 117.968 126.917C123.635 119.622 125.509 109.578 123.107 99.3605C121.99 94.6065 119.236 84.4977 115.998 76.7304C111.328 67.1767 100.858 56.1273 77.4938 57.6594C66.1944 58.3992 57.6398 62.2177 52.0698 69.0071C42.9712 80.0971 44.8906 95.5751 44.9118 95.7293C44.9533 96.0471 44.8804 96.3699 44.7075 96.6386ZM82.1859 143.289C67.8977 143.289 56.9136 140.006 49.5174 133.522C43.3084 128.078 41.5416 122.012 40.8764 119.728L40.834 119.581C36.9427 106.279 41.056 97.6233 42.1814 95.6107C41.8924 92.7693 40.9442 78.3311 49.9674 67.3148C56.0306 59.9135 65.2318 55.7587 77.3175 54.9672C102.203 53.3376 113.416 65.2776 118.441 75.583L118.473 75.6542C121.785 83.5885 124.596 93.9006 125.734 98.7435C128.323 109.758 126.269 120.63 120.099 128.572C112.867 137.879 100.383 142.963 83.9968 143.272C83.3875 143.283 82.7833 143.289 82.1859 143.289Z" fill="#040606"/>
<path d="M119.018 69.6434C119.018 69.6434 124.406 60.8498 132.525 60.8498C140.423 60.8498 146.368 66.7461 147.438 71.0272C148.508 75.3075 149.177 92.2955 132.189 93.0989" fill="#F7BF7F"/>
<path d="M132.188 94.4479C131.472 94.4479 130.875 93.8844 130.841 93.1615C130.805 92.4175 131.381 91.7853 132.126 91.7506C137.18 91.5116 140.979 89.7286 143.416 86.4526C147.084 81.5172 146.828 74.149 146.129 71.3551C145.194 67.613 139.812 62.1988 132.526 62.1988C125.246 62.1988 120.219 70.2662 120.168 70.3475C119.78 70.9831 118.948 71.1831 118.313 70.7933C117.677 70.4035 117.477 69.573 117.867 68.9383C118.104 68.5527 123.752 59.4998 132.526 59.4998C141.283 59.4998 147.573 66.0046 148.748 70.7001C149.383 73.2432 150.167 81.8935 145.58 88.0618C142.639 92.0192 138.155 94.1665 132.253 94.4462L132.188 94.4479Z" fill="#040606"/>
<path d="M134.726 88.0153C138.869 87.2119 141.82 82.9325 141.954 79.6776C142.087 76.4219 140.459 70.4332 134.726 69.69C127.507 68.7528 126.928 82.308 126.928 82.308C126.928 82.308 129.982 81.9953 131.922 83.6011C133.86 85.2061 134.726 88.0153 134.726 88.0153Z" fill="#C6424F"/>
<path d="M126.687 82.2978C126.508 80.5131 126.581 78.7259 126.862 76.9362C127.141 75.1499 127.632 73.3474 128.639 71.6492C129.146 70.8077 129.811 69.9866 130.716 69.357C131.611 68.724 132.751 68.3358 133.858 68.3121C134.409 68.2926 134.96 68.3451 135.442 68.4536C135.69 68.5062 135.941 68.5409 136.186 68.6121L136.918 68.8544C137.165 68.9248 137.396 69.0426 137.63 69.1561C137.859 69.2748 138.103 69.3688 138.318 69.5129L138.964 69.9425C139.183 70.0824 139.364 70.2671 139.563 70.4298C139.76 70.5942 139.952 70.7645 140.118 70.9577C140.289 71.1459 140.469 71.328 140.629 71.5238C140.93 71.9263 141.232 72.3314 141.469 72.7661C141.966 73.6228 142.349 74.527 142.607 75.4532C142.877 76.3769 143.041 77.3226 143.094 78.281L143.113 79.0047L143.085 79.7386C143.054 79.9945 143.029 80.2529 142.987 80.5029C142.932 80.7495 142.883 80.9961 142.82 81.2376C142.555 82.1977 142.124 83.0714 141.613 83.8748C141.101 84.679 140.489 85.4094 139.792 86.045C138.422 87.3297 136.642 88.211 134.801 88.405C134.583 88.4279 134.386 88.2695 134.363 88.0508C134.344 87.8602 134.46 87.6865 134.636 87.6305L134.65 87.6254C136.231 87.1128 137.588 86.145 138.622 84.9095C139.638 83.6748 140.427 82.2147 140.704 80.725C140.737 80.5411 140.758 80.3589 140.788 80.1767L140.819 79.6411L140.801 79.0666L140.742 78.4852C140.638 77.7073 140.456 76.9353 140.216 76.1938C139.979 75.4481 139.642 74.7473 139.239 74.1135C138.842 73.4728 138.359 72.9135 137.813 72.4525C137.278 71.9746 136.647 71.6407 135.984 71.3857L135.476 71.2162C135.303 71.1636 135.119 71.145 134.942 71.106C134.573 71.023 134.249 70.9899 133.931 70.9933C133.294 71.0052 132.712 71.173 132.161 71.5128C131.606 71.8458 131.101 72.3687 130.653 72.9796C129.755 74.2126 129.102 75.7617 128.541 77.348C128.002 78.9479 127.557 80.6224 127.166 82.3181L127.163 82.3283C127.134 82.4579 127.004 82.5393 126.874 82.5096C126.77 82.485 126.698 82.3978 126.687 82.2978Z" fill="#040606"/>
<path d="M118.969 123.873L128.839 111.019V109.181L126.279 103.319L127.02 97.0512L132.022 88.5728L134.797 84.7434L136.291 69.2655L138.426 64.4166L141.598 62.8972L144.803 63.9692L146.416 68.1791L145.291 79.1268L143.718 84.8688L146.46 85.8162L150.838 81.1885L160.149 70.5654L164.765 69.5214L167.585 71.9552L166.805 77.6302L155.44 90.4668L160.063 91.0295L162.292 96.1402L159.677 103.16L158.839 109.582L153.841 115.166L148.067 117.221L145.977 117.808L138.297 134.96L118.969 123.873Z" fill="#F7BF7F"/>
<path d="M144.125 116.506C144.125 116.506 149.11 118.275 152.759 115.843C156.408 113.41 160.046 108.663 159.605 101.941C155.813 103.567 155.074 115.395 144.125 116.506Z" fill="#D69861"/>
<path d="M145.979 117.808L138.681 134.96L134.445 133.597L144.805 116.987L145.979 117.808Z" fill="#D69861"/>
<path d="M128.835 111.376L130.786 112.294L122.519 126.591L118.672 124.467L128.835 111.376Z" fill="#FCD4AE"/>
<path d="M130.787 96.1402C130.787 96.1402 134.362 91.7972 140.212 91.6819C146.06 91.5675 146.355 92.8878 145.978 93.348C145.6 93.8072 140.031 93.1175 137.448 94.3801C134.864 95.6444 130.5 97.7842 130.787 96.1402Z" fill="#FCD4AE"/>
<path d="M136.292 75.089C136.292 75.089 135.993 68.3351 138.079 65.959C140.166 63.5845 142.191 64.8683 141.962 65.2709C141.732 65.6725 138.423 65.998 138.601 71.9892C138.651 73.6196 138.123 79.5108 136.292 75.089Z" fill="#FCD4AE"/>
<path d="M149.602 83.8739C149.602 83.8739 159.019 70.7636 162.05 69.862C165.08 68.9595 166.112 71.1255 165.704 71.3432C165.295 71.5619 162.321 70.0772 159.285 75.2447C158.458 76.6523 148.8 88.5906 149.602 83.8739Z" fill="#FCD4AE"/>
<path d="M167.015 74.1703C167.015 74.1703 167.199 76.6388 165.786 78.2463C164.375 79.8547 159.954 85.8264 158.518 86.9738C157.083 88.1229 156.246 87.2992 157.67 85.8162C159.093 84.3333 164.842 77.7684 164.837 76.9735C164.834 76.1795 166.729 73.0797 167.015 74.1703Z" fill="#D69861"/>
<path d="M144.252 65.8733C144.252 65.8733 146.663 69.9214 145.79 74.1703C145.403 76.0448 143.992 82.4182 143.25 83.9503C142.508 85.4824 141.453 85.3392 142.044 83.5808C142.636 81.8233 144.388 74.4135 144.449 73.7729C144.835 69.7773 143.552 65.2632 144.252 65.8733Z" fill="#D69861"/>
<path d="M147.24 102.715C147.24 102.715 153.399 102.597 154.117 100.946C154.834 99.2934 156.651 98.7248 156.934 99.6824C157.217 100.639 153.466 105.184 151.475 105.113C149.485 105.041 146.64 105.175 147.24 102.715Z" fill="#D69861"/>
<path d="M130.321 111.289C128.766 113.497 127.056 115.59 125.405 117.727L122.912 120.921L120.4 124.1C120.049 124.542 119.408 124.617 118.964 124.267C118.539 123.932 118.456 123.322 118.76 122.882L121.075 119.558L123.411 116.247C124.979 114.048 126.489 111.806 128.153 109.679C128.613 109.092 129.461 108.989 130.048 109.449C130.615 109.893 130.729 110.704 130.321 111.289Z" fill="#231F20"/>
<path d="M139.258 135.76C139.08 135.76 138.898 135.724 138.724 135.649C138.039 135.353 137.724 134.56 138.019 133.875L145.178 117.273C145.473 116.589 146.267 116.273 146.951 116.569C147.635 116.864 147.95 117.658 147.656 118.342L140.497 134.945C140.277 135.454 139.78 135.76 139.258 135.76Z" fill="#231F20"/>
<path d="M143.11 84.4215C143.707 81.1733 144.342 77.9006 144.801 74.6822C145.009 73.0839 145.12 71.4663 145.082 69.924C145.034 68.3978 144.741 66.8699 144.007 65.9555C143.646 65.5013 143.195 65.2073 142.619 65.0378C142.067 64.8768 141.302 64.8048 140.72 64.8751C140.119 64.9505 139.648 65.1539 139.265 65.5166C138.879 65.8776 138.565 66.4233 138.336 67.0733C138.103 67.7215 137.952 68.458 137.833 69.2333L137.663 70.4426C137.617 70.768 137.588 71.1764 137.56 71.5747L137.281 76.5363C137.181 78.2065 137.053 79.8802 136.848 81.5767C136.742 82.4275 136.624 83.2783 136.431 84.1655C136.336 84.607 136.22 85.0612 136.039 85.5587C135.991 85.6849 135.949 85.8053 135.877 85.9493L135.778 86.1553L135.641 86.3891L135.499 86.6027L135.388 86.7493L135.173 87.0196L133.572 88.9407C133.055 89.5686 132.555 90.1999 132.077 90.8431C131.12 92.1269 130.243 93.4565 129.522 94.8403C128.803 96.2233 128.233 97.6622 127.929 99.1189C127.782 99.8485 127.703 100.579 127.702 101.3C127.702 102.003 127.786 102.775 127.918 103.52C128.186 105.004 128.684 106.43 129.458 107.672C129.84 108.295 130.295 108.868 130.798 109.384C131.05 109.64 131.317 109.88 131.595 110.098C131.734 110.208 131.877 110.309 132.017 110.405L132.227 110.538L132.388 110.631L132.507 110.7C133.134 111.063 133.349 111.866 132.986 112.493C132.642 113.088 131.898 113.309 131.287 113.022C131.105 112.934 131.021 112.886 130.9 112.819C130.789 112.756 130.684 112.692 130.58 112.627C130.374 112.494 130.176 112.359 129.985 112.216C129.603 111.931 129.244 111.624 128.907 111.297C128.233 110.645 127.645 109.912 127.146 109.13C126.141 107.566 125.508 105.808 125.164 104.036C124.995 103.151 124.879 102.269 124.868 101.312C124.858 100.375 124.959 99.4477 125.141 98.5494C125.512 96.7538 126.183 95.0819 126.99 93.5218C127.799 91.96 128.757 90.511 129.778 89.1331C130.787 87.7603 131.925 86.44 132.937 85.2146L133.109 84.9969L133.185 84.896L133.213 84.8486L133.235 84.8147L133.269 84.7392L133.344 84.5562C133.444 84.2731 133.541 83.9232 133.618 83.5537C133.777 82.8198 133.889 82.0241 133.986 81.2293C134.177 79.6311 134.294 77.9947 134.408 76.3533L134.714 71.3764C134.748 70.9485 134.775 70.5282 134.846 70.0316L135.042 68.78C135.188 67.9198 135.376 67.0216 135.715 66.1114C136.052 65.2098 136.558 64.2573 137.398 63.4879C138.231 62.7083 139.377 62.2659 140.423 62.171C140.952 62.1091 141.456 62.1337 141.946 62.1795C142.422 62.2252 142.941 62.3303 143.442 62.4964C144.451 62.8193 145.435 63.5057 146.069 64.3844C146.714 65.259 147.051 66.2293 147.254 67.1538C147.449 68.0834 147.511 68.9918 147.516 69.8799C147.523 71.6586 147.268 73.3526 146.962 75.0296C146.317 78.3557 145.458 81.5555 144.533 84.7663C144.421 85.1545 144.015 85.3782 143.626 85.2672C143.262 85.1621 143.042 84.7986 143.107 84.4333L143.11 84.4215Z" fill="#231F20"/>
<path d="M141.638 83.6256C142.337 83.4493 142.977 83.4273 143.645 83.4799C144.307 83.5375 144.964 83.679 145.606 83.918C146.246 84.1578 146.87 84.501 147.413 84.9764C147.943 85.4704 148.404 86.0941 148.571 86.8373C148.653 87.205 148.423 87.5694 148.055 87.6525C147.923 87.6821 147.791 87.6711 147.672 87.6288L147.564 87.5889C146.986 87.3796 146.54 87.1923 146.071 87.0076C145.599 86.828 145.131 86.6449 144.647 86.4483L143.132 85.8797C142.619 85.6831 142.064 85.4713 141.559 85.212L141.464 85.1636C141.058 84.9552 140.897 84.4569 141.104 84.051C141.217 83.8315 141.417 83.6824 141.638 83.6256Z" fill="#231F20"/>
<path d="M145.953 98.5561C145.797 98.8519 145.648 99.0671 145.465 99.2908C145.289 99.5128 145.092 99.7137 144.881 99.9001C144.459 100.275 143.976 100.589 143.447 100.836C142.914 101.079 142.321 101.239 141.703 101.266C141.082 101.275 140.429 101.148 139.893 100.783C139.576 100.567 139.494 100.134 139.711 99.817C139.771 99.7298 139.847 99.6603 139.932 99.6095L140.057 99.5374C140.51 99.2739 140.856 99.1052 141.21 98.9146C141.561 98.7239 141.908 98.5527 142.275 98.3756L143.402 97.7977C143.786 97.6079 144.215 97.3884 144.628 97.2528L144.803 97.1952C145.308 97.0282 145.851 97.3028 146.017 97.8061C146.102 98.0638 146.07 98.3332 145.953 98.5561Z" fill="#231F20"/>
<path d="M143.713 99.3028C143.914 99.6027 144.041 99.8349 144.188 100.098C144.322 100.357 144.457 100.615 144.575 100.878C144.82 101.402 145.018 101.944 145.191 102.495C145.539 103.595 145.722 104.757 145.727 105.922C145.755 107.088 145.475 108.26 145.037 109.317C144.614 110.397 143.864 111.279 143.11 112.069C142.967 112.219 142.73 112.224 142.58 112.082C142.453 111.96 142.43 111.771 142.513 111.624L142.538 111.583L142.916 110.922C143.043 110.706 143.169 110.492 143.25 110.256L143.53 109.575C143.606 109.343 143.652 109.102 143.715 108.87C143.933 107.934 143.981 106.979 143.828 106.04C143.69 105.103 143.39 104.191 142.999 103.319C142.8 102.884 142.574 102.46 142.327 102.051C142.208 101.843 142.076 101.647 141.945 101.449C141.817 101.264 141.663 101.051 141.555 100.923C141.071 100.354 141.14 99.501 141.708 99.0172C142.278 98.5333 143.131 98.602 143.614 99.1714L143.708 99.2943L143.713 99.3028Z" fill="#231F20"/>
<path d="M146.196 84.7053C148.888 81.447 151.557 78.1878 154.334 74.9761C154.683 74.5728 155.028 74.1745 155.398 73.7652L155.919 73.1906L156.422 72.6093C157.106 71.8119 157.821 70.9662 158.671 70.1772C159.518 69.3976 160.535 68.6358 161.839 68.2443C162.487 68.0528 163.198 67.9876 163.883 68.063C164.569 68.1367 165.216 68.3469 165.792 68.6257C166.361 68.9053 166.898 69.2442 167.398 69.6917C167.893 70.1374 168.323 70.6967 168.622 71.3196C169.229 72.5831 169.239 73.966 169.014 75.1532C168.79 76.3549 168.301 77.4972 167.64 78.4903C167.322 78.9827 166.905 79.47 166.554 79.8555L165.513 81.0427C162.739 84.2163 159.945 87.3712 157.117 90.4981C156.783 90.8685 156.211 90.8973 155.842 90.5634C155.485 90.2405 155.447 89.6948 155.746 89.3253C158.406 86.0442 161.099 82.7893 163.814 79.5522L164.83 78.3378C165.179 77.9344 165.439 77.6082 165.693 77.2133C166.19 76.4447 166.533 75.6032 166.685 74.727C166.837 73.8542 166.782 73.0195 166.455 72.3704C166.291 72.0441 166.066 71.7526 165.774 71.4967C165.484 71.2441 165.12 71.0162 164.741 70.8357C163.985 70.4815 163.266 70.4095 162.544 70.6298C161.819 70.8543 161.081 71.3687 160.396 72.0246C159.705 72.6797 159.06 73.4533 158.383 74.266L157.859 74.8871L157.325 75.4914C156.993 75.8693 156.653 76.2718 156.317 76.6701C153.632 79.8919 150.947 83.1536 148.284 86.4153L148.281 86.4187C147.809 86.9958 146.959 87.0814 146.383 86.6102C145.805 86.1391 145.72 85.2891 146.191 84.7112L146.196 84.7053Z" fill="#231F20"/>
<path d="M130.061 96.0818C130.771 94.9013 131.701 93.9903 132.737 93.1582C133.781 92.3489 134.933 91.6659 136.16 91.1549C136.77 90.8905 137.398 90.671 138.034 90.4795C138.674 90.3041 139.32 90.1414 139.972 90.0304C141.276 89.7812 142.602 89.7041 143.918 89.7075L144.903 89.7321L145.867 89.8007C146.511 89.8558 147.155 89.9151 147.802 90.0075C149.094 90.1829 150.393 90.4355 151.692 90.8456C152.981 91.2803 154.3 91.8523 155.466 92.915C156.036 93.4531 156.566 94.1259 156.877 94.9513C157.032 95.3606 157.136 95.7979 157.169 96.2478C157.186 96.4716 157.184 96.6986 157.163 96.9283C157.155 97.0435 157.139 97.1613 157.118 97.28L157.08 97.4672C157.062 97.541 157.056 97.5766 157.012 97.7138L157.046 97.596C156.975 97.863 156.919 98.0147 156.849 98.2121C156.781 98.3985 156.707 98.5791 156.63 98.757C156.472 99.1121 156.294 99.4578 156.094 99.7934C155.691 100.462 155.204 101.098 154.606 101.646C154.012 102.195 153.306 102.649 152.545 102.96C151.786 103.278 150.976 103.436 150.187 103.482C148.788 103.536 147.326 103.511 145.844 103.106C145.112 102.899 144.392 102.593 143.744 102.197C143.097 101.798 142.52 101.322 142.003 100.816C141.629 100.452 141.623 99.8518 141.987 99.4781C142.33 99.1273 142.879 99.1002 143.254 99.3994L143.266 99.4095C144.227 100.183 145.255 100.72 146.383 100.939C147.505 101.175 148.754 101.136 150.015 101.022C151.104 100.92 152.058 100.483 152.806 99.7366C153.186 99.3722 153.512 98.929 153.786 98.446C153.923 98.2045 154.047 97.952 154.153 97.6944C154.206 97.5647 154.257 97.4342 154.3 97.3054C154.34 97.1876 154.39 97.0224 154.403 96.9639L154.436 96.8469L154.426 96.8673L154.434 96.8249L154.443 96.7114C154.447 96.6317 154.447 96.5453 154.437 96.4597C154.42 96.286 154.38 96.1105 154.312 95.9385C154.183 95.5919 153.925 95.2538 153.592 94.9394C153.248 94.6276 152.822 94.3479 152.354 94.1056C151.878 93.8641 151.359 93.6692 150.828 93.4819C148.672 92.7768 146.216 92.5048 143.85 92.3667C141.496 92.2692 139.143 92.5006 136.9 93.1743C135.783 93.5175 134.69 93.959 133.658 94.5352C132.633 95.0979 131.621 95.8072 130.802 96.6029L130.765 96.6393C130.585 96.8147 130.299 96.8105 130.124 96.6309C129.978 96.48 129.957 96.2529 130.061 96.0818Z" fill="#231F20"/>
<path d="M159.607 103.29C159.242 103.29 158.877 103.142 158.61 102.852C158.108 102.302 158.147 101.448 158.695 100.946C160.22 99.5502 161.037 97.7147 160.936 95.9097C160.856 94.4886 160.221 93.2768 159.148 92.4964C156.327 90.4448 153.039 92.9336 152.9 93.0412C152.312 93.4954 151.465 93.3904 151.008 92.8031C150.551 92.2175 150.653 91.3744 151.238 90.9151C151.44 90.7558 156.255 87.056 160.735 90.3143C162.451 91.5608 163.506 93.5454 163.63 95.758C163.777 98.3757 162.642 100.992 160.517 102.936C160.259 103.173 159.932 103.29 159.607 103.29Z" fill="#231F20"/>
<path d="M148.119 102.868L148.098 102.98L148.084 103.146C148.075 103.261 148.074 103.379 148.078 103.496C148.084 103.731 148.11 103.965 148.158 104.189C148.255 104.638 148.433 105.046 148.705 105.392C148.975 105.738 149.343 106.029 149.795 106.243C150.248 106.458 150.775 106.614 151.256 106.646C151.745 106.684 152.233 106.608 152.711 106.408C153.188 106.209 153.645 105.89 154.071 105.513C154.917 104.743 155.637 103.756 156.259 102.711C156.368 102.528 156.605 102.467 156.789 102.575C156.959 102.676 157.023 102.888 156.947 103.064C156.44 104.221 155.831 105.358 154.964 106.382C154.522 106.885 154.01 107.364 153.382 107.729C152.758 108.095 152.011 108.324 151.262 108.363C150.503 108.406 149.8 108.289 149.095 108.071C148.389 107.849 147.683 107.462 147.102 106.906C146.519 106.352 146.085 105.646 145.817 104.913C145.681 104.547 145.583 104.17 145.519 103.791C145.487 103.6 145.463 103.409 145.447 103.214C145.44 103.116 145.435 103.017 145.431 102.916C145.43 102.804 145.426 102.731 145.436 102.564C145.521 101.824 146.19 101.292 146.929 101.375C147.67 101.459 148.202 102.127 148.119 102.868Z" fill="#231F20"/>
<path d="M144.318 115.56C144.463 115.643 144.708 115.759 144.92 115.842C145.141 115.929 145.368 116.007 145.601 116.072C146.065 116.202 146.541 116.288 147.022 116.33C147.983 116.408 148.955 116.31 149.886 116.043C150.818 115.78 151.711 115.36 152.544 114.828C152.756 114.704 152.954 114.55 153.16 114.413L153.759 113.957C154.112 113.671 154.476 113.317 154.808 112.957C156.152 111.501 157.183 109.751 157.765 107.883C158.355 106.013 158.505 104.027 158.262 102.074C158.171 101.334 158.696 100.659 159.435 100.567C160.175 100.476 160.849 101 160.941 101.74L160.946 101.794L160.948 101.809C161.131 104.112 160.845 106.482 160.046 108.663C159.251 110.85 157.963 112.82 156.33 114.438C155.917 114.844 155.497 115.221 155.002 115.589L154.3 116.074C154.054 116.224 153.82 116.387 153.564 116.524C152.568 117.1 151.483 117.555 150.341 117.823C149.201 118.096 148.005 118.163 146.838 118.014C146.255 117.938 145.679 117.808 145.12 117.624C144.84 117.531 144.566 117.424 144.295 117.302C144.015 117.173 143.777 117.057 143.466 116.858C143.106 116.626 143.001 116.147 143.233 115.787C143.457 115.437 143.912 115.328 144.268 115.531L144.318 115.56Z" fill="#231F20"/>
<path d="M102.435 143.216L102.585 142.438L103.556 140.739C106.945 134.805 111.243 129.438 116.292 124.832L117.972 123.3C117.972 123.3 138.068 132.907 139.159 135.606C137.448 139.792 128.733 152.042 128.733 152.042C128.733 152.042 116.642 164.342 107.057 156.46C103.185 153.274 101.488 148.141 102.435 143.216Z" fill="#EBEBE9"/>
<path d="M124.925 145.95C124.925 145.95 128.966 176.767 114.537 181C125.23 177.624 131.47 173.694 131.47 173.694L124.925 145.95Z" fill="#C1C0B8"/>
<path d="M62.9031 183.342H62.8947C60.6948 183.328 53.3978 183.042 51.9258 179.913C49.8353 175.471 52.3631 166.24 59.2364 153.216C59.5839 152.556 60.3982 152.305 61.0592 152.652C61.7185 153 61.9702 153.816 61.6227 154.475C52.708 171.368 53.5791 177.088 54.368 178.764C54.8612 179.813 59.2856 180.621 62.9116 180.643C63.6574 180.647 64.2573 181.256 64.2531 182.001C64.248 182.743 63.6446 183.342 62.9031 183.342Z" fill="#231F20"/>
<path d="M56.309 137.644C56.2116 137.727 56.0336 137.885 55.8929 138.019C55.7446 138.16 55.5955 138.305 55.4599 138.459C55.1769 138.761 54.9371 139.092 54.6956 139.415C54.2397 140.078 53.9363 140.797 53.7804 141.52C53.6371 142.246 53.6448 142.993 53.8414 143.747C54.0515 144.54 54.3888 145.338 54.8091 146.109C55.682 147.644 56.8793 149.059 58.2047 150.35C59.5538 151.61 61.0359 152.801 62.6434 153.671L62.6604 153.68C62.9968 153.862 63.1222 154.284 62.94 154.619C62.7731 154.928 62.4053 155.059 62.0858 154.939C60.1622 154.215 58.4631 153.132 56.8683 151.891C56.0828 151.257 55.3176 150.588 54.6108 149.846C53.9151 149.092 53.255 148.292 52.6745 147.412C52.1042 146.522 51.6051 145.564 51.2483 144.505C50.9017 143.401 50.7983 142.166 51.017 140.993C51.2195 139.815 51.7364 138.735 52.3745 137.808C52.7033 137.35 53.0558 136.913 53.4558 136.528C53.649 136.329 53.8549 136.145 54.0668 135.962C54.1727 135.87 54.2795 135.782 54.3956 135.696C54.5151 135.606 54.6125 135.534 54.7761 135.423C55.3913 135.005 56.2285 135.165 56.6463 135.781C57.0361 136.356 56.9226 137.123 56.4056 137.562L56.309 137.644Z" fill="#231F20"/>
<path d="M138.269 134.577C138.269 134.577 140.028 135.067 138.654 138.276C136.593 143.092 130.802 151.452 128.019 152.852C125.792 148.058 124.73 145.57 124.73 145.57C124.73 145.57 128.572 150.023 138.269 134.577Z" fill="#C1C0B8"/>
<path d="M130.943 175.46C130.272 175.46 129.69 174.96 129.606 174.278C128.803 167.831 126.1 150.143 123.285 145.772C122.882 145.146 123.062 144.31 123.69 143.907C124.317 143.504 125.151 143.685 125.555 144.311C129.276 150.091 132.162 172.973 132.283 173.944C132.376 174.684 131.851 175.358 131.111 175.449L130.943 175.46Z" fill="#231F20"/>
<path d="M127.361 154.91C127.032 154.91 126.699 154.789 126.439 154.545C125.895 154.035 125.868 153.181 126.376 152.638C134.254 144.232 136.886 138.149 137.617 136.077C135.509 134.407 128.576 129.251 118.217 124.858C106.38 134.711 103.937 144.266 103.913 144.363C103.737 145.086 103.011 145.533 102.285 145.356C101.562 145.182 101.117 144.456 101.289 143.733C101.394 143.296 103.996 132.906 117.139 122.251C117.524 121.94 118.047 121.863 118.505 122.053C131.874 127.584 139.729 134.302 140.058 134.585C140.435 134.911 140.602 135.419 140.492 135.905C140.422 136.208 138.683 143.451 128.347 154.483C128.081 154.767 127.721 154.91 127.361 154.91Z" fill="#231F20"/>
<path d="M57.2636 45.3771C57.2636 45.3771 65.8834 21.6123 93.4565 28.7907C86.3603 31.3236 83.8401 34.6946 83.8401 34.6946C83.8401 34.6946 111.32 20.7251 124.307 61.8032C113.392 52.7749 96.8469 52.1377 94.853 53.213C102.188 55.2002 104.919 61.9515 104.919 61.9515C104.919 61.9515 97.5757 56.9459 89.6516 57.184C79.4623 57.4899 75.4134 65.5768 75.4134 65.5768C75.4134 65.5768 63.3277 55.1486 56.5831 63.0329C56.5831 63.0329 45.7329 52.1733 52.5732 34.5454C54.4646 39.374 59.0355 41.1298 59.0355 41.1298" fill="#3A1E19"/>
<path d="M42.2949 114.276C42.2949 114.276 51.2173 124.045 64.3318 127.031C75.493 132.658 85.5984 129.577 85.5984 129.577C85.5984 129.577 95.5275 127.699 96.402 122.888C93.2573 122.878 74.4278 122.228 74.4278 122.228L42.2949 114.276Z" fill="#D69861"/>
<path d="M75.477 67.6689L74.1745 66.6326C74.0787 66.5563 64.392 59.0084 57.1797 64.1937C56.5738 64.6293 55.7306 64.4903 55.2967 63.8861C54.862 63.281 54.9993 62.4379 55.6052 62.0023C62.8514 56.7941 71.4602 61.5269 74.6236 63.6378C76.3371 61.1549 80.8436 56.0865 89.2143 55.8348C97.4833 55.5823 105.34 60.7846 105.671 61.0066C106.29 61.421 106.457 62.2582 106.04 62.8785C105.626 63.4971 104.79 63.6624 104.169 63.2488C104.069 63.1819 96.6749 58.3211 89.2957 58.5321C80.0174 58.8118 76.2583 66.1072 76.2218 66.1809L75.477 67.6689Z" fill="#040606"/>
<path d="M61.7383 121.643C61.7383 121.643 65.7915 127.951 80.2949 128.695C94.7991 129.44 98.5786 119.553 98.5786 119.553C98.5786 119.553 86.2733 125.173 61.7383 121.643Z" fill="#CF616D"/>
<path d="M63.9912 122.774C66.2148 124.596 71.0874 127.4 80.3386 127.875C90.2067 128.382 94.892 123.771 96.7648 121.093C92.4226 122.476 81.5521 124.961 63.9912 122.774ZM81.8131 129.556C81.3072 129.556 80.7877 129.543 80.2547 129.515C65.4987 128.759 61.2236 122.359 61.049 122.088L60.0762 120.574L61.8566 120.83C85.8747 124.285 98.1181 118.86 98.2384 118.806L100.064 117.972L99.3468 119.846C99.3087 119.946 95.4699 129.555 81.8131 129.556Z" fill="#231F20"/>
<path d="M106.271 87.7364C106.271 94.2911 100.956 99.6044 94.4009 99.6044C87.8462 99.6044 82.5312 94.2911 82.5312 87.7364C82.5312 81.18 87.8462 75.8667 94.4009 75.8667C100.956 75.8667 106.271 81.18 106.271 87.7364Z" fill="#D69861"/>
<path d="M72.0313 87.9941C72.0313 93.5243 67.5484 98.0071 62.0199 98.0071C56.4906 98.0071 52.0078 93.5243 52.0078 87.9941C52.0078 82.4647 56.4906 77.9828 62.0199 77.9828C67.5484 77.9828 72.0313 82.4647 72.0313 87.9941Z" fill="#D69861"/>
<path d="M104.713 86.3628C104.713 92.6785 99.5925 97.7986 93.2767 97.7986C86.961 97.7986 81.8418 92.6785 81.8418 86.3628C81.8418 80.0462 86.961 74.927 93.2767 74.927C99.5925 74.927 104.713 80.0462 104.713 86.3628Z" fill="white"/>
<path d="M70.6066 86.6264C70.6066 91.9541 66.2882 96.2733 60.9605 96.2733C55.6337 96.2733 51.3145 91.9541 51.3145 86.6264C51.3145 81.2996 55.6337 76.9803 60.9605 76.9803C66.2882 76.9803 70.6066 81.2996 70.6066 86.6264Z" fill="white"/>
<path d="M97.1267 88.5474C95.5404 88.5474 94.254 87.2611 94.254 85.6747C94.254 85.4357 94.2862 85.2036 94.3421 84.9824C91.9177 85.1409 90 87.1518 90 89.6152C90 92.1837 92.0812 94.2657 94.6489 94.2657C97.2166 94.2657 99.2986 92.1837 99.2986 89.6152C99.2986 89.0033 99.1774 88.4195 98.9622 87.8831C98.4639 88.2983 97.8241 88.5474 97.1267 88.5474Z" fill="#040606"/>
<path d="M66.3548 88.6771C64.8845 88.6771 63.6643 87.6102 63.421 86.2095C61.7059 86.6196 60.4297 88.1593 60.4297 89.9999C60.4297 92.1549 62.1771 93.9022 64.332 93.9022C66.487 93.9022 68.2335 92.1549 68.2335 89.9999C68.2335 89.383 68.0869 88.8017 67.8318 88.283C67.3963 88.5322 66.8929 88.6771 66.3548 88.6771Z" fill="#040606"/>
<path d="M118.431 125.893C112.947 129.632 108.326 135.539 108.67 137.031C109.015 138.524 118.316 137.49 121.761 133.702C125.206 129.912 125.184 127.091 118.431 125.893Z" fill="white"/>
<path d="M104.192 165.405C102.96 163.321 107.331 155.224 113.915 155.223C117.053 155.222 116.518 158.745 115.982 160.314C115.446 161.884 107.178 170.458 104.192 165.405Z" fill="white"/>
<path d="M101.393 116.814C95.7744 128.05 71.591 125.889 67.4294 124.988C47.75 120.725 35.9023 108.879 35.9023 108.879L36.9447 102.782" fill="#F7BF7F"/>
<path d="M102.6 117.417C101.82 118.942 100.703 120.268 99.4292 121.329C98.1547 122.397 96.7352 123.221 95.2769 123.88C92.3499 125.196 89.2704 125.894 86.2028 126.316C83.1292 126.744 80.0455 126.863 76.9745 126.82C75.439 126.794 73.906 126.721 72.3756 126.595C70.8401 126.465 69.3224 126.308 67.7691 126.027C67.575 125.989 67.3683 125.948 67.1776 125.904L66.62 125.761L65.5048 125.475C64.7642 125.276 64.0142 125.109 63.2812 124.885L61.0873 124.195C60.7237 124.076 60.3543 123.973 59.9933 123.842L58.9162 123.442C58.1993 123.173 57.4781 122.916 56.7655 122.635L54.6529 121.735C53.9428 121.448 53.2572 121.107 52.5674 120.776C51.8818 120.436 51.1785 120.133 50.5107 119.759C47.7838 118.371 45.1738 116.767 42.6536 115.041C40.1384 113.297 37.7335 111.436 35.5031 109.278L35.293 109.074L35.3455 108.784L36.4548 102.699C36.5048 102.429 36.7624 102.25 37.0336 102.299C37.2996 102.347 37.4767 102.601 37.4344 102.867L36.4573 108.973L36.3005 108.48C38.4665 110.487 40.902 112.297 43.395 113.943C45.9034 115.584 48.4965 117.101 51.1955 118.402C51.8573 118.753 52.5522 119.036 53.2292 119.352C53.9114 119.661 54.5876 119.981 55.2884 120.246L57.3705 121.081C58.0722 121.34 58.7823 121.574 59.4874 121.823L60.5458 122.19C60.9 122.31 61.2618 122.403 61.6194 122.512L63.7702 123.138C64.4888 123.34 65.2218 123.486 65.9472 123.663L67.0369 123.919L67.581 124.046C67.7589 124.083 67.925 124.112 68.103 124.144C69.5334 124.371 71.0342 124.496 72.5171 124.589C74.0052 124.678 75.4975 124.717 76.9889 124.71C79.9693 124.689 82.9496 124.506 85.8655 124.036C88.7747 123.573 91.6466 122.84 94.2218 121.612C96.7878 120.401 99.0411 118.602 100.186 116.21C100.508 115.537 101.313 115.254 101.986 115.576C102.658 115.898 102.943 116.703 102.621 117.375L102.607 117.401L102.6 117.417Z" fill="#040606"/>
<path d="M87.7269 70.129C88.2718 69.8502 88.7455 69.6435 89.2658 69.4706C89.7768 69.2943 90.2937 69.1604 90.8166 69.0435C91.8631 68.8181 92.9309 68.7164 94.0079 68.7088C96.1595 68.6935 98.367 69.1139 100.453 70.0045C102.528 70.9036 104.5 72.2976 105.917 74.1542C107.343 75.9914 108.183 78.2337 108.172 80.4386C108.168 81.0242 107.692 81.4945 107.107 81.4919C106.833 81.4911 106.583 81.3852 106.395 81.2115L106.342 81.1623C104.88 79.809 103.644 78.7074 102.281 77.8786C100.958 77.021 99.5695 76.3846 98.0874 75.8245C96.6002 75.2821 95.0257 74.805 93.3529 74.3568L90.7802 73.6695L89.4438 73.2958C89.004 73.1712 88.5159 73.028 88.1049 72.8695L87.8625 72.7747C87.1151 72.4857 86.7448 71.6442 87.0337 70.8976C87.1676 70.5519 87.4219 70.2858 87.7269 70.129Z" fill="#040606"/>
<path d="M49.2868 78.4803C49.6436 77.5846 50.0935 76.8813 50.624 76.1822C51.1536 75.4957 51.7621 74.8771 52.4273 74.3136C53.7552 73.1874 55.3492 72.3061 57.1177 71.7917C58.8795 71.2841 60.8404 71.1485 62.686 71.5943C64.5275 72.0247 66.2045 73.0162 67.3086 74.4314C67.6188 74.8297 67.5476 75.4051 67.1502 75.7161C66.9748 75.8525 66.7663 75.9152 66.5595 75.9093L66.4926 75.9076C64.88 75.8576 63.5614 75.8372 62.3115 76.0398C61.0717 76.2016 59.9116 76.5245 58.7244 76.9279C57.544 77.3533 56.3364 77.8464 55.0721 78.4057L53.1213 79.2625C52.4544 79.5404 51.7417 79.8633 51.0308 80.0862L50.8333 80.1489C50.1698 80.3565 49.4631 79.987 49.2546 79.3235C49.1648 79.0362 49.1843 78.7388 49.2868 78.4803Z" fill="#040606"/>
<path d="M44.4727 102.275C44.4727 102.275 72.4643 101.609 74.4277 79.6776C74.4277 79.6776 74.7633 83.9358 75.5455 88.1161C76.1988 91.6108 77.164 95.0513 78.5046 95.9012C81.4477 97.7681 90.387 103.636 90.387 103.636L68.8908 110.098C68.8908 110.098 45.2277 107.668 44.4727 102.275Z" fill="#F7BF7F"/>
<path d="M44.4423 100.926C45.2117 100.906 46.0701 100.837 46.8887 100.754C47.7149 100.664 48.5429 100.56 49.3657 100.426C51.0148 100.165 52.6494 99.8196 54.2561 99.3807C57.4653 98.5002 60.5735 97.252 63.3734 95.5258C66.1478 93.7802 68.6205 91.5438 70.3459 88.7872C72.1263 86.0628 73.0745 82.857 73.4338 79.5877L73.4364 79.5665C73.4957 79.0191 73.9889 78.6234 74.5372 78.6836C75.0787 78.742 75.4719 79.2259 75.4227 79.7657C75.1016 83.3002 74.1168 86.8687 72.189 89.938C70.3179 93.0404 67.6155 95.5631 64.6309 97.5088C61.6209 99.4358 58.3228 100.818 54.9408 101.808C53.2485 102.303 51.5308 102.697 49.7979 103.001C48.0514 103.303 46.3464 103.534 44.5058 103.625C43.7618 103.662 43.1288 103.087 43.0915 102.343C43.055 101.598 43.6287 100.965 44.3736 100.929L44.3965 100.928L44.4423 100.926Z" fill="#231F20"/>
<path d="M35.9023 108.878C35.9023 108.878 51.7938 123.251 67.8726 125.074C83.9522 126.898 97.426 124.144 101.393 116.814C84.1818 128.276 54.1716 119.553 44.4722 108.907C45.8365 104.759 45.673 104.485 45.5552 103.645C44.9764 103.117 37.4065 107.3 37.4065 107.3L35.9023 108.878Z" fill="#D69861"/>
<path d="M25.875 101.598C25.8784 99.1019 27.2402 96.2461 34.7965 96.141C34.7965 96.141 45.6069 95.9317 45.9213 101.283C46.2366 106.635 38.4701 111.255 35.899 111.149C33.3271 111.044 25.8682 107.318 25.875 101.598Z" fill="#040606"/>
<path d="M34.517 98.8714C34.6644 99.5756 33.2153 100.474 31.2816 100.879C29.3469 101.284 27.6597 101.042 27.5123 100.338C27.3648 99.6349 28.8139 98.7358 30.7485 98.3315C32.6823 97.9265 34.3695 98.168 34.517 98.8714Z" fill="white"/>
<path d="M102.6 117.417C101.82 118.942 100.703 120.268 99.4292 121.329C98.1547 122.397 96.7352 123.221 95.2769 123.88C92.3499 125.196 89.2704 125.894 86.2028 126.316C83.1292 126.744 80.0455 126.863 76.9745 126.82C75.439 126.794 73.906 126.721 72.3756 126.595C70.8401 126.465 69.3224 126.308 67.7691 126.027C67.575 125.989 67.3683 125.948 67.1776 125.904L66.62 125.761L65.5048 125.475C64.7642 125.276 64.0142 125.109 63.2812 124.885L61.0873 124.195C60.7237 124.076 60.3543 123.973 59.9933 123.842L58.9162 123.442C58.1993 123.173 57.4781 122.916 56.7655 122.635L54.6529 121.735C53.9428 121.448 53.2572 121.107 52.5674 120.776C51.8818 120.436 51.1785 120.133 50.5107 119.759C47.7838 118.371 45.1738 116.767 42.6536 115.041C40.1384 113.297 37.7335 111.436 35.5031 109.278L35.293 109.074L35.3455 108.784L36.4548 102.699C36.5048 102.429 36.7624 102.25 37.0336 102.299C37.2996 102.347 37.4767 102.601 37.4344 102.867L36.4573 108.973L36.3005 108.48C38.4665 110.487 40.902 112.297 43.395 113.943C45.9034 115.584 48.4965 117.101 51.1955 118.402C51.8573 118.753 52.5522 119.036 53.2292 119.352C53.9114 119.661 54.5876 119.981 55.2884 120.246L57.3705 121.081C58.0722 121.34 58.7823 121.574 59.4874 121.823L60.5458 122.19C60.9 122.31 61.2618 122.403 61.6194 122.512L63.7702 123.138C64.4888 123.34 65.2218 123.486 65.9472 123.663L67.0369 123.919L67.581 124.046C67.7589 124.083 67.925 124.112 68.103 124.144C69.5334 124.371 71.0342 124.496 72.5171 124.589C74.0052 124.678 75.4975 124.717 76.9889 124.71C79.9693 124.689 82.9496 124.506 85.8655 124.036C88.7747 123.573 91.6466 122.84 94.2218 121.612C96.7878 120.401 99.0411 118.602 100.186 116.21C100.508 115.537 101.313 115.254 101.986 115.576C102.658 115.898 102.943 116.703 102.621 117.375L102.607 117.401L102.6 117.417Z" fill="#040606"/>
<path d="M49.86 103.924C46.9856 104.988 50.8812 105.309 52.8717 105.003C54.8623 104.696 77.217 100.697 75.9137 89.9117C74.9425 81.8647 73.624 90.7362 70.6063 94.2055C63.5898 102.275 49.86 103.924 49.86 103.924Z" fill="#FCD4AE"/>
<path d="M34.5742 168.889C34.5742 168.889 35.5199 164.869 37.8028 164.486C40.0866 164.104 40.8645 164.716 40.5527 165.175C40.24 165.635 37.8664 165.476 37.1012 166.627C36.3351 167.779 34.9572 170.305 34.5742 168.889Z" fill="#FCD4AE"/>
<path d="M45.1152 168.162C45.1152 168.162 45.2932 164.946 47.36 164.027C49.4277 163.108 51.2649 162.879 51.4945 163.645C51.7242 164.41 48.2786 163.951 47.2075 166.094C46.1355 168.238 45.5491 169.845 45.1152 168.162Z" fill="#FCD4AE"/>
<path d="M42.9115 159.98C42.9115 159.98 45.4385 157.482 46.9596 157.654C48.4807 157.827 49.2569 158.946 48.8832 159.204C48.5103 159.462 47.6485 158.113 46.8164 158.487C45.9834 158.86 42.0505 161.3 42.9115 159.98Z" fill="#FCD4AE"/>
<path d="M68.8483 155.735C68.8483 155.735 72.4083 154.24 74.4743 154.988C74.7048 158.721 75.0997 164.463 75.0997 164.463C75.0997 164.463 71.0295 165.611 67.6992 164.463C68.1585 160.903 68.8483 155.735 68.8483 155.735Z" fill="#C1C0B8"/>
<path d="M68.9415 163.64C70.8007 164.036 72.7981 163.784 73.9133 163.575C73.8022 161.954 73.5768 158.597 73.4074 155.913C72.3523 155.837 70.9168 156.184 69.8762 156.548C69.6982 157.887 69.2838 161.008 68.9415 163.64ZM71.1066 166.096C69.9008 166.096 68.5796 165.954 67.3348 165.525L66.4688 165.228L66.5866 164.319C67.0458 160.758 67.7348 155.587 67.7348 155.587L67.8204 154.948L68.4144 154.699C68.8195 154.528 72.4489 153.057 74.8581 153.931L75.553 154.182L75.5979 154.919C75.8258 158.605 76.2191 164.328 76.2224 164.386L76.2852 165.296L75.4064 165.545C75.2877 165.579 73.4073 166.096 71.1066 166.096Z" fill="#353436"/>
<path d="M89.0592 154.988C89.0592 154.988 93.5285 153.331 95.2555 154.762C95.375 156.999 96.1893 163.544 96.1893 163.544C96.1893 163.544 91.5862 165.267 88.0254 162.855L89.0592 154.988Z" fill="#C1C0B8"/>
<path d="M89.2363 162.27C91.3124 163.347 93.7131 163.018 94.9563 162.728C94.7478 161.011 94.325 157.419 94.1724 155.433C93.2428 155.114 91.4438 155.417 90.082 155.831L89.2363 162.27ZM92.559 165.266C90.9515 165.266 89.0837 164.93 87.394 163.786L86.8203 163.397L88.0321 154.169L88.6677 153.934C89.5151 153.619 93.8513 152.14 95.9723 153.897L96.3511 154.211L96.3774 154.702C96.4943 156.874 97.296 163.34 97.3045 163.405L97.4146 164.286L96.5825 164.597C96.4613 164.643 94.7512 165.266 92.559 165.266Z" fill="#353436"/>
<path d="M117.83 70.9578C119.38 71.9332 121.648 69.0918 121.648 69.0918C121.648 69.0918 121.993 71.1866 121.504 74.3813C122.079 73.7136 125.179 74.9872 125.179 74.9872C125.179 74.9872 122.94 75.0499 122.882 75.4728C122.826 75.8956 125.524 76.427 125.638 77.3667C124.319 76.8142 124.213 78.0201 124.213 78.0201C124.213 78.0201 125.007 78.0201 125.638 79.1675C124.375 78.7082 126.185 80.8606 126.185 80.8606C126.185 80.8606 126.225 81.4055 125.386 80.8606C126.156 81.9817 126.902 82.9579 128.223 83.13C127.246 83.5316 126.831 83.4172 126.831 83.4172C126.831 83.4172 129.141 84.1053 129.543 84.7383C128.05 84.2782 128.165 85.5417 128.165 85.5417C128.165 85.5417 129.888 85.3519 129.888 86.423C128.912 86.001 128.969 87.2738 128.969 87.2738L130.117 88.0755L129.657 89.1584L126.385 89.683L117.83 70.9578Z" fill="#4C2A20"/>
</g>
<path d="M113.314 107.523C113.314 109.91 110.314 111.844 106.615 111.844C102.916 111.844 99.916 109.91 99.916 107.523C99.916 105.137 102.916 103.204 106.615 103.204C110.314 103.204 113.314 105.137 113.314 107.523Z" fill="#F8A185"/>
</svg>
