<svg width="582" height="200" viewBox="0 0 582 200" fill="none" xmlns="http://www.w3.org/2000/svg">
<path d="M179.351 63.2157C175.741 65.0198 174.709 69.4033 175.276 73.3257C176.101 79.5145 181.414 81.6822 186.625 80.9094C190.133 80.4432 194.57 77.5572 195.859 76.8325C203.029 78.1222 207.776 90.5544 194.57 96.7459C189.152 99.272 180.126 99.0162 174.295 97.4667C165.32 95.1457 159.748 89.418 157.17 80.7536C155.466 74.6661 155.312 68.4759 157.377 62.491C159.698 55.632 165.32 50.4731 170.738 48.0482C177.597 44.9519 189.822 43.8167 200.812 50.164C203.443 60.0155 194.259 65.2263 187.451 62.491C184.408 61.665 181.879 61.926 179.351 63.2157Z" fill="white"/>
<path d="M239.507 63.5755C237.649 63.6794 236.36 63.7807 236.152 63.7807C236.515 73.3257 236.102 89.3673 235.121 96.4367C230.634 101.233 219.13 99.4785 216.863 87.6671C216.343 84.776 215.882 73.4802 215.983 63.7807C212.527 63.9859 208.658 64.0392 205.252 63.4209C201.9 59.1388 202.622 47.1183 212.58 46.5C219.234 46.1377 241.261 46.3974 247.192 46.3442C249.978 49.9562 251.32 62.8508 239.507 63.5755Z" fill="white"/>
<path d="M270.359 68.5279C270.567 68.1136 270.824 67.7538 271.029 67.3927C274.796 60.5831 279.387 52.1758 281.812 48.0482C287.641 44.6427 300.436 45.0558 301.106 55.7333C301.621 64.0912 300.951 86.7905 300.436 96.0211C291.562 101.8 282.585 97.6226 282.173 89.7829C282.019 86.6359 282.224 84.8293 282.432 78.4326C282.277 78.4326 282.173 78.3807 282.019 78.3807C281.812 78.6898 281.604 78.9483 281.399 79.308C280.212 81.1653 273.044 93.5988 271.237 96.4874C262.775 101.955 252.82 97.416 251.584 87.097C250.603 78.7937 251.015 54.5475 251.273 48.9249C256.69 43.0959 269.328 46.1377 270.049 53.4656C270.618 59.2934 270.153 61.2013 270.153 68.4227L270.359 68.5279Z" fill="white"/>
<path d="M354.038 91.8442C352.079 98.6538 336.858 102.574 334.281 90.709C332.011 79.9795 330.154 68.8383 329.38 62.7495C329.224 62.7495 329.069 62.7495 328.864 62.7495C327.883 66.9278 326.903 71.106 325.922 75.4415C324.169 82.92 322.056 94.4755 321.28 97.2615C308.178 102.059 302.092 93.7534 304.413 81.6823C306.475 71.0047 312.356 53.6708 315.762 47.017C323.138 44.6427 339.025 41.2905 345.113 56.0424C348.002 63.0612 351.975 80.7536 354.038 91.8442Z" fill="white"/>
<path d="M383.758 79.2067C383.758 77.1923 383.036 76.1104 381.488 75.8012C380.25 75.596 378.91 75.6467 377.619 75.6467C377.414 75.6467 377.054 76.0571 377.054 76.2662C377.001 78.0715 377.001 79.5145 377.001 81.6823C380.406 83.7448 383.758 81.3731 383.758 79.2067ZM394.023 64.6068C404.341 72.3451 402.33 89.2634 394.127 94.7847C383.812 101.749 362.041 98.5512 357.554 94.2171C355.903 87.9763 356.418 52.9474 357.295 48.3574C364.518 42.6816 375.247 46.3442 375.659 52.3811C376.02 57.7478 375.814 60.4792 375.814 61.4091L375.866 61.5104L376.073 61.6143L376.175 61.5637C376.949 61.1 386.234 58.7284 394.023 64.6068Z" fill="white"/>
<path d="M434.164 64.1963C434.318 58.4166 434.214 51.2459 434.679 48.4587C441.025 43.4063 453.612 46.6039 453.612 56.458C453.612 61.6143 453.612 78.0715 453.559 91.1739C453.559 92.9793 453.508 95.4561 453.404 96.6419C451.083 99.2214 435.711 101.079 434.525 91.6896C434.164 89.0075 434.06 83.0759 434.06 80.8575C430.758 80.8575 427.819 80.8575 424.414 80.8575C424.414 85.9112 424.414 91.3285 424.414 96.6952C421.578 99.272 406.152 102.11 405.276 89.4179C404.863 83.7447 404.244 58.6244 404.863 49.234C411.724 43.5608 423.329 46.3974 424.104 54.2384C424.569 58.779 424.259 63.6794 424.259 64.1963C427.665 64.1963 430.862 64.1963 434.164 64.1963Z" fill="white"/>
<path d="M506.597 48.408C504.892 54.702 505.513 82.7135 506.389 87.3061C508.609 98.9629 519.958 100.614 524.238 95.9198C525.477 87.2528 525.786 62.7495 524.805 56.5593C522.896 44.1778 511.34 44.1778 506.597 48.408ZM484.981 79.6184C484.981 77.6079 484.259 76.4727 482.66 76.2129C481.421 75.9558 480.131 76.0064 478.841 76.0064C478.635 76.0064 478.223 76.422 478.223 76.6272C478.17 78.4326 478.223 79.8782 478.223 82.0446C481.575 84.1058 484.981 81.7342 484.981 79.6184ZM495.248 64.9665C505.563 72.7048 503.551 89.6777 495.349 95.1457C484.981 102.11 463.264 98.9629 458.775 94.5794C457.073 88.336 457.64 53.311 458.516 48.7197C465.739 43.0426 476.418 46.7078 476.83 52.7408C477.189 58.1075 477.037 60.8948 477.037 61.7689L477.088 61.8728L477.293 61.9767H477.398C478.119 61.4597 487.405 59.1388 495.248 64.9665Z" fill="white"/>
<path d="M567.887 25.1944C572.737 25.7126 576.193 33.3976 571.034 38.2448C565.307 43.7154 552.465 45.1584 540.495 42.5803C537.089 38.7111 537.865 30.1467 546.014 30.2506C552.309 30.2506 560.304 31.6417 567.887 25.1944ZM550.296 68.5279C550.555 68.1136 550.761 67.7538 550.966 67.3927C554.732 60.5831 559.324 52.1758 561.75 48.0482C567.578 44.6427 580.374 45.0558 581.093 55.7333C581.61 64.0912 580.888 86.7905 580.424 96.0211C571.499 101.8 562.521 97.6226 562.16 89.7829C562.006 86.6359 562.214 84.8293 562.368 78.4326C562.214 78.4326 562.11 78.3807 562.006 78.3807C561.75 78.6898 561.542 78.9483 561.336 79.308C560.15 81.1653 553.031 93.5988 551.174 96.4874C542.712 101.955 532.757 97.416 531.52 87.097C530.59 78.7937 530.951 54.5475 531.211 48.9249C536.627 43.0959 549.264 46.1377 549.985 53.4656C550.555 59.2934 550.089 61.2013 550.089 68.4227L550.296 68.5279Z" fill="white"/>
<path d="M190.999 120.752C187.542 120.032 185.583 117.814 185.221 114.46C185.117 113.119 185.17 111.622 185.427 110.231C185.791 107.6 187.44 105.795 190.07 105.07C191.928 104.349 193.785 104.245 195.797 104.761C199.666 105.589 202.09 108.89 201.678 112.912C201.678 114.15 201.419 115.338 201.008 116.42C199.873 119.411 197.191 121.167 193.527 121.167C192.65 121.012 191.824 120.961 190.999 120.752ZM169.075 120.752C165.672 120.032 163.812 117.814 163.35 114.46C163.194 113.119 163.297 111.622 163.506 110.231C163.967 107.6 165.672 105.795 168.249 105.07C170.109 104.349 171.964 104.245 173.872 104.761C177.845 105.589 180.32 108.89 179.907 112.912C179.753 114.15 179.598 115.338 179.238 116.42C178.103 119.411 175.265 121.167 171.705 121.167C170.829 121.012 169.848 120.961 169.075 120.752ZM162.936 124.674C171.655 123.848 191.31 124.053 200.543 124.778C202.504 127.46 203.844 140.407 191.31 140.407C188.418 140.407 187.286 140.407 180.579 140.407C180.579 141.182 180.579 142.111 180.579 143.038C183.571 143.038 192.185 142.522 196.622 144.019C199.666 150.931 197.292 156.968 189.657 157.278C186.977 157.483 185.48 157.278 180.579 157.278C180.579 158.464 180.579 159.445 180.579 160.475C180.888 160.475 181.405 160.475 181.765 160.475C187.387 160.475 192.908 160.475 198.531 160.475C202.504 166.048 201.11 175.073 191.206 176.363C186.977 177.034 173.2 177.088 169.539 176.054C164.638 174.921 162.525 171.36 162.059 164.292C161.646 157.173 161.801 133.497 162.936 124.674Z" fill="white"/>
<path d="M273.853 168.47C273.437 175.797 261.057 182.399 254.919 170.74C253.681 168.47 251.671 163.622 249.865 159.339C249.657 165.118 249.244 170.586 248.781 173.941C244.344 178.684 232.892 176.879 230.726 165.067C230.467 163.828 230.261 160.99 230.157 157.38C227.371 163.881 223.194 173.577 222.214 175.847C207.976 179.355 205.965 169.039 207.202 164.653C208.751 159.339 211.793 155.368 213.548 151.706C213.754 151.292 213.65 150.571 213.444 150.159C210.554 144.123 207.616 138.086 204.726 132.051C205.861 124.778 219.117 121.322 222.78 128.234C225.411 133.187 228.095 139.479 230.002 144.277C230.056 137.004 230.417 130.04 231.188 127.2C236.09 122.918 247.8 122.971 249.657 135.61C249.865 137.158 250.02 139.686 250.07 142.781C252.493 137.313 255.848 130.246 259.356 124.624C265.752 122.303 275.708 127.254 272.355 136.953C270.86 141.337 268.436 144.793 265.854 150.106C265.648 150.571 265.547 151.241 265.752 151.654C267.455 155.368 271.841 163.311 273.853 168.47Z" fill="white"/>
<path d="M346.453 149.342C346.453 163.907 334.645 175.716 320.079 175.716C305.514 175.716 293.707 163.907 293.707 149.342C293.707 134.776 305.514 122.97 320.079 122.97C334.645 122.97 346.453 134.776 346.453 149.342Z" fill="#5AB7BE"/>
<path d="M424.727 149.342C424.727 163.907 412.918 175.716 398.353 175.716C383.787 175.716 371.979 163.907 371.979 149.342C371.979 134.776 383.787 122.97 398.353 122.97C412.918 122.97 424.727 134.776 424.727 149.342Z" fill="#D3B5DA"/>
<path d="M502.998 149.342C502.998 163.907 491.191 175.716 476.627 175.716C462.061 175.716 450.253 163.907 450.253 149.342C450.253 134.776 462.061 122.97 476.627 122.97C491.191 122.97 502.998 134.776 502.998 149.342Z" fill="#9980C3"/>
<path d="M581.272 149.342C581.272 163.907 569.465 175.716 554.899 175.716C540.334 175.716 528.528 163.907 528.528 149.342C528.528 134.776 540.334 122.97 554.899 122.97C569.465 122.97 581.272 134.776 581.272 149.342Z" fill="#E5922A"/>
<path d="M28.3034 87.1905C28.3034 87.1905 21.2122 79.6444 14.0663 89.3153C11.0374 79.9223 16.0129 74.4323 16.0129 74.4323C16.0129 74.4323 11.1754 74.731 9.30587 79.8769C6.51538 66.9044 12.0481 61.2052 12.0481 61.2052C12.0481 61.2052 9.38094 57.323 4.00295 64.1067C6.38601 52.7395 14.1956 45.6753 14.1956 45.6753C14.1956 45.6753 8.07551 42.9036 2.10657 48.9574C5.31957 34.7406 17.9095 31.7767 17.9095 31.7767C17.9095 31.7767 16.7908 27.1218 13.4305 24.7696C18.9342 23.2059 23.8236 26.2503 23.8236 26.2503C23.8236 26.2503 22.2964 17.8158 19.4375 15.7819C25.3583 15.3299 29.4465 20.9602 29.4465 20.9602C29.4465 20.9602 28.0995 17.2171 31.8565 9.32938C32.9914 16.3897 36.1791 19.1237 36.1791 19.1237C36.1791 19.1237 37.4398 10.8438 46.2948 6.55901C42.4646 16.4404 46.7001 18.082 46.7001 18.082C46.7001 18.082 45.2727 11.2581 61.6078 3.07689C56.2126 11.3269 60.6298 13.7882 60.6298 13.7882C60.6298 13.7882 71.4476 0.894897 85.0981 6.98761C77.8105 9.03325 77.9533 12.7868 77.9533 12.7868C77.9533 12.7868 91.1558 9.08517 98.8019 16.4209C91.6246 17.4106 88.3971 21.4811 88.3971 21.4811C88.3971 21.4811 105.324 17.8989 116.037 35.5667C111.274 33.8704 107.857 35.9173 107.857 35.9173C107.857 35.9173 123.01 42.966 128.176 60.0557C120.692 55.006 116.837 57.41 116.837 57.41C116.837 57.41 131.628 62.8183 130.633 83.9409C127.803 77.7728 122.492 77.4884 122.492 77.4884C122.492 77.4884 132.283 84.7799 129.68 98.2589C126.395 90.0414 123.316 90.1219 123.316 90.1219C123.316 90.1219 133.592 108.144 122.382 123.533C122.57 108.868 117.961 108.255 117.961 108.255C117.961 108.255 122.849 135.73 107.253 157.337C107.822 150.588 104.891 146.679 104.891 146.679C104.891 146.679 106.069 159.751 95.2977 167.041C97.8252 159.429 94.9106 157.924 94.9106 157.924C94.9106 157.924 63.1157 91.3415 28.3034 87.1905Z" fill="#4C2A20"/>
<path d="M95.8639 157.124C96.6186 157.748 98.0291 159.525 97.3485 163.824C104.469 156.874 103.7 146.897 103.689 146.785L103.323 142.581L105.854 145.956C105.958 146.094 107.916 148.761 108.417 153.421C120.93 133.051 116.819 108.722 116.773 108.466L116.486 106.844L118.119 107.061C118.972 107.173 122.869 108.305 123.505 119.43C130.588 105.699 122.36 90.8791 122.269 90.718L121.276 88.9711L123.284 88.9179C123.827 88.9127 126.196 89.1309 128.91 93.843C128.928 83.9136 121.853 78.5144 121.774 78.4547L118.572 76.07L122.557 76.2831C122.752 76.2947 126.376 76.535 129.424 79.8938C128.547 63.2508 116.95 58.7374 116.42 58.54L114.12 57.6867L116.199 56.3866C116.36 56.2866 119.749 54.263 125.951 57.3529C120.249 43.1543 107.486 37.0758 107.348 37.0109L105.287 36.0537L107.236 34.8835C107.362 34.8081 109.772 33.3976 113.38 33.7405C103.229 19.7705 88.7997 22.6279 88.6477 22.659L85.3747 23.3513L87.4528 20.7316C87.5801 20.5732 90.2596 17.2664 96.0172 15.7481C88.8335 11.0892 78.3936 13.9155 78.278 13.9466L76.8091 14.357L76.7493 12.8322C76.7428 12.6699 76.6857 9.41249 81.5446 7.03047C70.3839 4.28348 61.9364 14.1077 61.5519 14.5649L60.9103 15.326L60.0414 14.8428C59.8791 14.7506 58.4361 13.8934 57.9088 11.7529C57.5036 10.1086 57.7503 8.19809 58.6387 6.04596C47.2326 12.6855 47.8768 17.8093 47.8846 17.8638L48.3404 20.038L46.2636 19.2055C46.1026 19.1432 44.6674 18.534 43.9232 16.426C43.2725 14.5765 43.3465 12.1633 44.1401 9.22414C38.3464 13.3427 37.3799 19.238 37.3698 19.3055L37.0425 21.4537L35.3936 20.0393C35.277 19.938 33.0218 17.9561 31.5393 13.2544C29.8498 18.1535 30.5779 20.542 30.5865 20.5706L32.9304 27.8036L28.4698 21.6694C28.4405 21.6291 25.9012 18.2171 22.129 17.2287C23.9606 20.4952 24.8839 25.3411 25.0098 26.0359L25.4942 28.7102L23.1859 27.275C23.1503 27.2516 19.9626 25.3229 16.0449 25.5502C18.2528 28.14 19.0419 31.3286 19.0814 31.4948L19.364 32.6729L18.186 32.9508C17.7506 33.0547 8.41942 35.4095 4.39115 45.6077C9.73355 42.4062 14.458 44.47 14.6928 44.5765L16.3681 45.335L15.0049 46.5689C14.94 46.6273 9.38197 51.7524 6.39262 60.0882C7.6052 59.257 8.77568 58.8569 9.90954 58.8959C11.915 58.9647 12.9323 60.3622 13.0414 60.5207L13.6005 61.335L12.913 62.0442C12.8725 62.0883 8.78075 66.5524 9.94149 76.3766C12.4057 73.4867 15.7593 73.2399 15.9394 73.2295L18.8961 73.0464L16.9058 75.2414C16.7425 75.4258 13.1794 79.5456 14.637 86.7527C16.7475 84.5357 19.0484 83.3421 21.499 83.1966C25.1416 82.9823 27.9255 85.1942 28.853 86.0449C43.5258 87.9879 59.2648 100.558 75.6415 123.412C86.9957 139.256 94.7548 154.856 95.8639 157.124ZM93.0377 170.029L94.1534 166.662C96.112 160.763 94.5483 159.172 94.3262 158.984L93.9079 158.824L93.8222 158.443C93.7443 158.278 85.7644 141.672 73.6621 124.788C62.5845 109.336 45.7 90.479 28.1613 88.388L27.7266 88.336L27.4273 88.0178C27.3826 87.971 24.8703 85.4111 21.6207 85.6046C19.3148 85.7488 17.1001 87.2385 15.0353 90.0309L13.6386 91.9207L12.9181 89.6855C11.0273 83.82 12.0556 79.3703 13.2631 76.6571C12.2104 77.3325 11.1085 78.4469 10.4397 80.2873L9.00895 84.2253L8.1277 80.1301C5.87764 69.6682 8.8279 63.6755 10.3652 61.4117C10.2013 61.3506 10.0085 61.3078 9.78785 61.3052H9.76394C9.00544 61.3052 7.38959 61.7753 4.9477 64.8548L1.77573 68.8565L2.82336 63.8599C4.63572 55.2111 9.42145 49.0314 11.8846 46.3143C9.86032 46.048 6.41795 46.3026 2.96545 49.8042L0 52.8122L0.930992 48.6924C3.70213 36.4317 12.9918 32.1534 16.3909 30.9766C15.876 29.5817 14.7486 27.1646 12.7395 25.758L10.663 24.3047L13.1023 23.6111C16.6928 22.5889 20.0099 23.3409 22.1204 24.128C21.3721 21.1966 20.1265 17.7521 18.7399 16.765L16.023 14.835L19.3462 14.5804C23.0742 14.296 26.1066 16.113 28.0498 17.7677C28.2273 15.7026 28.8985 12.7348 30.7682 8.81242L32.4322 5.3186L33.0472 9.13843C33.6205 12.7089 34.7493 15.0974 35.6499 16.5235C36.7204 13.5583 39.3931 8.56047 45.7701 5.47449L48.5249 4.13931L47.4196 6.99539C45.8714 10.984 45.7298 13.431 46.0117 14.9012C47.2001 11.8659 50.7718 7.15645 61.0675 1.99887L65.0626 -1.52588e-05L62.617 3.73796C60.1363 7.5318 59.9492 9.83197 60.2311 11.0944C60.3194 11.4931 60.461 11.8101 60.609 12.0556C63.5846 9.07999 73.5789 0.526016 85.5891 5.8862L88.6374 7.24606L85.4228 8.14743C82.3342 9.01503 80.7679 10.1775 79.9743 11.1191C84.2786 10.3762 93.5053 9.66833 99.637 15.5493L101.435 17.2755L98.9668 17.6145C95.9743 18.0275 93.7144 19.0172 92.1389 19.9757C93.8651 19.9809 96.0471 20.1523 98.4759 20.7251C103.783 21.9759 111.317 25.4567 117.068 34.9406L118.824 37.8396L115.632 36.7031C113.733 36.0251 112.091 36.0095 110.859 36.1991C115.499 39.028 125.296 46.361 129.33 59.7076L130.31 62.9507L127.502 61.0571C124.592 59.0933 122.305 58.3478 120.653 58.1309C121.954 59.0141 123.491 60.257 125.007 61.9507C128.417 65.7614 132.371 72.6788 131.838 83.998L131.605 88.9491L129.538 84.4435C129.041 83.359 128.463 82.481 127.855 81.7653C130.21 85.4643 132.294 91.0778 130.863 98.4875L130.085 102.52L128.559 98.707C127.88 97.0017 127.217 95.6912 126.607 94.6807C127.211 96.4068 127.813 98.4979 128.238 100.841C129.827 109.586 128.138 117.677 123.356 124.243L121.127 127.302L121.175 123.517C121.256 117.238 120.456 113.742 119.608 111.803C119.87 114.782 120.071 119.339 119.658 124.785C118.981 133.671 116.451 146.654 108.231 158.043L105.688 161.567L106.052 157.235C106.215 155.291 106.066 153.599 105.784 152.189C105.022 156.872 102.709 163.481 95.973 168.04L93.0377 170.029Z" fill="#040606"/>
<path d="M21.1133 73.8491C21.1133 73.8491 12.5239 74.9193 12.8826 61.6532C13.2403 48.3859 24.8322 49.4613 27.7022 54.0033C30.5713 58.5452 21.1133 73.8491 21.1133 73.8491Z" fill="#F7BF7F"/>
<path d="M20.4613 72.8347L20.2417 73.0139L20.1528 73.1257L20.124 73.1737L20.162 73.1296L20.238 73.0413L20.3902 72.8607L20.6846 72.4919C20.8824 72.2464 21.0651 71.9892 21.2528 71.7346C21.618 71.2216 21.9793 70.7021 22.3107 70.167C22.6516 69.6358 22.9727 69.0954 23.2796 68.5448C23.5967 67.9993 23.8834 67.4408 24.166 66.8784C25.2735 64.6236 26.2562 62.2988 26.9452 59.9246C27.2826 58.74 27.5398 57.5282 27.549 56.3658C27.5438 55.793 27.4932 55.2203 27.3003 54.7566C27.1289 54.3293 26.756 53.8617 26.3541 53.4863C25.9432 53.1058 25.4673 52.7798 24.9574 52.5109C24.4425 52.2473 23.8935 52.0447 23.3314 51.8966C22.204 51.6083 21.0093 51.5576 19.8814 51.7888C18.75 52.0083 17.7024 52.5382 16.8414 53.2772C15.9891 54.0331 15.3041 54.9865 14.8425 56.0632C14.3731 57.1373 14.0865 58.3049 13.9241 59.4985C13.7705 60.6935 13.7527 61.9208 13.7923 63.1495C13.8709 65.5822 14.368 68.0343 15.5867 69.9228C16.1981 70.8566 17.0072 71.6073 17.9576 72.0801C18.4319 72.3178 18.9402 72.4854 19.4643 72.5802C19.7256 72.6308 19.9905 72.6555 20.2533 72.6711C20.3837 72.6776 20.5156 72.6789 20.6414 72.675L20.8277 72.6659L20.9129 72.6594L20.9494 72.6542L20.9661 72.6529L20.7566 72.6944L20.4613 72.8347ZM21.7637 74.8622L21.439 75.0063L21.2006 75.0505L21.1575 75.0544L21.0752 75.0583L20.923 75.0635L20.6323 75.0622C20.4421 75.057 20.2558 75.0453 20.0706 75.0258C19.7013 74.9869 19.336 74.9297 18.9783 74.8414C18.2594 74.6751 17.5679 74.3985 16.9201 74.0452C15.6197 73.3361 14.5557 72.2464 13.8288 71.0268C13.0946 69.8072 12.6558 68.4798 12.3777 67.1615C12.1063 65.838 12.0023 64.512 11.9795 63.1989C11.9684 61.891 12.0165 60.5739 12.2179 59.2531C12.4275 57.9374 12.7775 56.6243 13.3543 55.3826C13.9225 54.1422 14.7724 52.9967 15.843 52.0953C16.9225 51.2043 18.2376 50.5991 19.5998 50.3497C20.9621 50.0834 22.369 50.1575 23.6942 50.5069C25.0183 50.8602 26.2883 51.4875 27.3191 52.4629C27.8306 52.9603 28.2871 53.4916 28.5966 54.2449C28.8793 54.967 28.9249 55.6865 28.9264 56.3749C28.9036 57.7568 28.6052 59.0465 28.2425 60.2973C27.5059 62.7975 26.4491 65.1432 25.3481 67.4538L24.5237 69.189C24.2446 69.7656 23.9757 70.3462 23.7069 70.9281C23.4304 71.5061 23.1731 72.097 22.9067 72.6841L22.5186 73.5724L22.3283 74.0218L22.2355 74.2504L22.1873 74.3647L22.1645 74.4232L22.1188 74.4972L22.0148 74.6336L21.7637 74.8622Z" fill="#040606"/>
<path d="M22.0544 66.8901C22.0544 66.8901 26.9782 57.7465 20.2923 58.7842C12.085 60.0596 18.5004 71.6139 18.5004 71.6139C18.5004 71.6139 18.9149 66.3498 22.0544 66.8901Z" fill="#C6424F"/>
<path d="M17.9195 71.3774C17.0301 69.376 16.3097 67.3238 15.8937 65.1327C15.6983 64.0378 15.5766 62.9027 15.7262 61.7078C15.8064 61.1129 15.9622 60.4947 16.2793 59.9037C16.5851 59.3115 17.0951 58.7712 17.7024 58.4218C18.3113 58.0698 18.9773 57.9101 19.6075 57.8477C20.2468 57.7971 20.8267 57.8101 21.4557 57.901C22.0757 57.9932 22.7393 58.1815 23.3669 58.5763C23.9976 58.9634 24.5389 59.6167 24.8067 60.3232C25.0869 61.0298 25.1426 61.7364 25.1213 62.3858C25.096 63.0404 24.9853 63.6521 24.8357 64.2379C24.6861 64.8223 24.4972 65.3847 24.2802 65.9289C24.0559 66.4822 23.8337 66.981 23.5231 67.5524C23.1502 68.233 22.2964 68.4837 21.6156 68.1122C20.9332 67.7407 20.682 66.8861 21.0534 66.2043L21.1158 66.1029L21.1259 66.0874C21.3603 65.7341 21.6206 65.2717 21.8322 64.8457C22.0494 64.4093 22.2406 63.9638 22.3943 63.5196C22.7049 62.6416 22.8468 61.7208 22.6632 61.1038C22.5745 60.7947 22.4223 60.5609 22.1585 60.3544C21.8946 60.1479 21.5176 59.983 21.0854 59.8843C20.6593 59.7803 20.1595 59.7297 19.7283 59.7336C19.2904 59.7427 18.8835 59.8167 18.5461 59.9791C17.8698 60.2804 17.4234 61.022 17.2371 61.9585C17.0444 62.8884 17.0647 63.9236 17.1722 64.947C17.4021 67.003 17.9576 69.0824 18.6664 71.0605L18.673 71.0748C18.7475 71.2878 18.6384 71.519 18.4279 71.5956C18.2265 71.6684 18.0058 71.5697 17.9195 71.3774Z" fill="#040606"/>
<path d="M55.5344 177.863L47.6558 198.795L25.5611 197.94C25.5611 197.94 20.8758 196.366 21.5266 191.578C22.176 186.79 26.3059 180.852 32.5396 179.507C33.0977 175.716 34.4372 166.628 34.4372 166.628L32.5396 161.19C32.5396 161.19 22.408 156.134 29.3205 151.967C29.9766 146.236 32.4195 137.067 35.9684 131.763C35.1043 129.024 28.0638 126.253 29.275 119.481C30.4865 112.709 54.085 105.527 54.085 105.527L87.7411 103.817L106.671 114.812C106.671 114.812 104.328 122.804 96.7015 130.223C96.3976 132.07 99.0927 147.527 99.0927 147.527H101.284C101.284 147.527 104.622 151.366 99.3161 155.278C99.4355 158.534 99.868 159.086 96.8314 166.628C97.3847 172.22 98.0705 177.863 98.0705 177.863L99.7862 179.507C99.7862 179.507 108.588 180.733 110.322 190.38C112.057 200.027 100.672 198.262 100.672 198.262L84.4057 198.795L76.4024 177.863C76.4024 177.863 74.5282 180.053 55.5344 177.863Z" fill="#F7BF7F"/>
<path d="M102.136 180.736C102.136 180.736 110.638 184.2 110.421 191.036C110.205 197.871 104.362 198.141 104.362 198.141L93.4858 198.497C93.4858 198.497 105.383 195.614 105.793 190.791C106.202 185.969 102.136 180.736 102.136 180.736Z" fill="#D69861"/>
<path d="M92.3324 170.447L96.7574 165.962L98.0705 177.863L96.7574 178.889C96.7574 178.889 94.6716 169.496 92.3324 170.447Z" fill="#D69861"/>
<path d="M32.501 161.125C32.501 161.125 22.3692 156.069 29.2817 151.902C29.9372 146.171 32.3802 137.002 35.929 131.698C35.0656 128.959 28.0246 126.189 29.2361 119.417C30.4487 112.645 54.0463 105.462 54.0463 105.462L87.7011 103.753L106.633 114.747C106.633 114.747 104.289 122.739 96.6628 130.159C96.3576 132.006 99.054 147.462 99.054 147.462H101.245C101.245 147.462 104.582 151.301 99.2774 155.213C83.8501 172.229 32.501 161.125 32.501 161.125Z" fill="#EBEBE9"/>
<path d="M84.4046 200C83.9071 200 83.459 199.693 83.2798 199.225L75.2765 178.294C75.0388 177.672 75.3506 176.976 75.9714 176.737C76.5961 176.499 77.291 176.812 77.5287 177.433L85.2254 197.562L104.709 196.924C105.26 196.88 109.37 196.389 109.212 191.446C109.124 188.722 107.599 185.751 105.131 183.503C102.806 181.382 99.9669 180.204 97.5083 180.349C92.0714 180.675 87.7984 183.428 86.8074 185.904C86.5593 186.522 85.8579 186.824 85.241 186.575C84.6228 186.329 84.3227 185.627 84.5682 185.008C85.8203 181.879 90.7298 178.34 97.3654 177.942C100.494 177.762 103.918 179.133 106.756 181.721C109.738 184.44 111.511 187.957 111.621 191.369C111.813 197.327 107.274 199.182 104.848 199.331L84.4448 200H84.4046Z" fill="#231F20"/>
<path d="M33.5356 116.812C33.5356 116.812 47.4118 122.622 58.0828 121.075C68.7525 119.527 74.5192 118.794 75.2271 118.34C75.4128 119.304 78.9456 118.187 73.614 123.022C69.3681 126.868 45.257 127.485 33.5356 116.812Z" fill="#C1C0B8"/>
<path d="M21.2489 79.3418C21.2489 79.3418 16.1617 87.1775 19.9576 100.155C21.0094 103.753 25.6705 121.054 57.3439 120.457C89.0167 119.859 97.5681 99.5175 93.4859 82.1524C92.6378 78.5443 90.1337 69.076 87.0594 61.7104C82.5369 52.433 72.7322 42.5711 51.4785 43.9634C16.8263 46.2338 21.2489 79.3418 21.2489 79.3418Z" fill="#F7BF7F"/>
<path d="M45.1103 132.172C45.0921 131.863 44.6895 124.561 47.2767 120.321L48.9924 121.367C46.7338 125.069 47.1117 131.984 47.1156 132.054L45.1103 132.172Z" fill="#353436"/>
<path d="M63.7185 131.923C63.5808 131.651 60.378 125.203 61.8677 119.867L63.8029 120.408C62.521 125.001 65.4823 130.959 65.5122 131.019L63.7185 131.923Z" fill="#353436"/>
<path d="M30.9938 114.236C30.9938 114.236 35.735 120.222 53.055 120.473C84.0407 120.917 88.6593 105.889 88.6593 105.889C88.6593 105.889 66.886 123.243 30.9938 114.236Z" fill="#D69861"/>
<path d="M34.6071 50.1497C37.4346 48.5847 43.4568 49.2418 43.5465 50.6147C43.7179 53.2123 37.7162 51.0173 35.566 53.063C32.4079 56.0697 29.175 57.2295 28.7843 56.3009C28.107 54.6904 31.9198 51.6382 34.6071 50.1497Z" fill="#FCD4AE"/>
<path d="M69.8307 118.274C69.8307 118.274 85.9684 119.33 91.6455 102.966C100.088 78.6352 82.4902 54.7241 82.4902 54.7241C82.4902 54.7241 101.563 102.966 69.8307 118.274Z" fill="#D69861"/>
<path d="M22.2624 79.9951C22.2102 80.0756 17.539 87.5905 21.1144 99.8175L21.1539 99.9513C25.9382 116.376 43.4621 119.515 57.3217 119.252C71.2099 118.989 81.7225 114.769 87.7204 107.049C92.7845 100.531 94.4586 91.5558 92.313 82.4278C91.3142 78.1794 88.853 69.1461 85.9605 62.2066C81.7874 53.6695 72.4334 43.7998 51.5563 45.1662C41.4516 45.8286 33.8047 49.2457 28.8275 55.3229C20.6923 65.2536 22.4258 79.0431 22.4436 79.182C22.4817 79.4652 22.4172 79.7535 22.2624 79.9951ZM55.7489 121.678C42.9829 121.678 33.1679 118.745 26.5597 112.951C21.0119 108.087 19.434 102.666 18.8389 100.624L18.8008 100.494C15.3244 88.6088 18.9988 80.8744 20.0048 79.0768C19.747 76.5377 18.8998 63.6365 26.9615 53.7942C32.379 47.1806 40.6006 43.4686 51.3992 42.7608C73.6348 41.3035 83.6538 51.9732 88.1425 61.1818L88.1724 61.2455C91.1311 68.3344 93.643 77.5494 94.66 81.8758C96.9731 91.7169 95.1379 101.432 89.6258 108.527C83.1629 116.845 72.0087 121.387 57.3672 121.662C56.823 121.673 56.2827 121.678 55.7489 121.678Z" fill="#040606"/>
<path d="M88.6595 55.8735C88.6595 55.8735 93.4742 48.0183 100.729 48.0183C107.785 48.0183 113.097 53.2863 114.053 57.11C115.01 60.9363 115.607 76.1142 100.428 76.8311" fill="#F7BF7F"/>
<path d="M87.9554 55.4424C88.3255 54.8566 88.6931 54.35 89.0983 53.837C89.4958 53.3253 89.9179 52.8344 90.3595 52.3603C91.244 51.4122 92.2129 50.5355 93.2688 49.7549C94.3352 48.9847 95.5067 48.3417 96.7561 47.8547C98.0147 47.3728 99.368 47.1482 100.729 47.0962C102.058 47.1144 103.387 47.2663 104.678 47.6014C105.958 47.956 107.196 48.456 108.36 49.0977C109.518 49.7445 110.588 50.542 111.561 51.4511C112.53 52.3642 113.398 53.398 114.085 54.5825C114.25 54.8852 114.426 55.1761 114.558 55.5047L114.768 55.9853C114.83 56.1515 114.881 56.3255 114.937 56.497C115.167 57.1867 115.258 57.8451 115.35 58.501C115.519 59.8102 115.553 61.1156 115.498 62.4196C115.369 65.0237 114.833 67.6577 113.654 70.0813C113.064 71.2879 112.305 72.4321 111.378 73.4361C110.453 74.4413 109.36 75.2986 108.171 75.9649C106.984 76.6338 105.71 77.1143 104.414 77.4533C103.115 77.791 101.797 77.9404 100.485 78.0365C99.82 78.0845 99.2434 77.5858 99.194 76.9208C99.1459 76.2584 99.6447 75.6791 100.308 75.6311L100.321 75.6298L100.371 75.6272C101.546 75.5544 102.72 75.4388 103.844 75.1596C104.965 74.8803 106.048 74.4855 107.043 73.9413C109.043 72.8685 110.638 71.1528 111.665 69.0902C112.702 67.0303 113.229 64.6795 113.374 62.3079C113.439 61.122 113.422 59.922 113.287 58.753C113.163 57.549 112.886 56.584 112.317 55.5878C111.196 53.6188 109.412 51.9563 107.402 50.7809C106.386 50.2055 105.304 49.751 104.184 49.4263C103.057 49.1184 101.896 48.973 100.729 48.9392C99.5966 48.9743 98.4615 49.1392 97.3757 49.5379C96.2964 49.9471 95.2547 50.4939 94.2884 51.1758C93.3273 51.8667 92.4272 52.6577 91.5986 53.5253C91.1842 53.9578 90.7855 54.4085 90.4101 54.8787C90.0361 55.3384 89.6659 55.8411 89.3646 56.3061L89.3451 56.3333C89.0971 56.7165 88.5853 56.8256 88.2022 56.5749C87.8242 56.3294 87.7138 55.8242 87.9554 55.4424Z" fill="#040606"/>
<path d="M102.694 72.2905C106.397 71.5723 109.033 67.7486 109.153 64.8405C109.273 61.9312 107.818 56.5801 102.694 55.9164C96.2445 55.0787 95.7263 67.1901 95.7263 67.1901C95.7263 67.1901 98.4564 66.9108 100.189 68.346C101.923 69.7799 102.694 72.2905 102.694 72.2905Z" fill="#C6424F"/>
<path d="M95.5132 67.181C95.3521 65.5874 95.4184 63.9885 95.6678 62.391C95.9184 60.7948 96.3561 59.1842 97.2575 57.6672C97.7082 56.9152 98.303 56.1827 99.1122 55.619C99.9123 55.054 100.931 54.7072 101.92 54.6851C102.412 54.6683 102.903 54.715 103.335 54.8111C103.557 54.8592 103.78 54.8904 104 54.9527L104.654 55.1696C104.875 55.2332 105.082 55.3385 105.289 55.4385C105.495 55.545 105.713 55.6294 105.905 55.758L106.482 56.1411C106.678 56.2658 106.839 56.4321 107.017 56.5762C107.193 56.7256 107.365 56.8775 107.513 57.049C107.665 57.2178 107.826 57.3802 107.97 57.5542C108.24 57.9153 108.508 58.2763 108.719 58.6647C109.164 59.431 109.507 60.2388 109.736 61.0649C109.978 61.8909 110.126 62.7365 110.172 63.5937L110.19 64.2392L110.164 64.8951C110.137 65.1224 110.113 65.3536 110.077 65.5783C110.027 65.7978 109.985 66.0199 109.927 66.2342C109.691 67.0927 109.305 67.8733 108.849 68.5902C108.391 69.3098 107.844 69.9618 107.222 70.5293C105.997 71.6775 104.407 72.4659 102.762 72.6386C102.567 72.6581 102.392 72.5178 102.371 72.3204C102.354 72.1516 102.459 71.9957 102.615 71.945L102.628 71.9412C104.04 71.484 105.253 70.6189 106.176 69.5137C107.084 68.4123 107.79 67.107 108.036 65.7757C108.066 65.612 108.086 65.4484 108.112 65.286L108.14 64.8068L108.123 64.295L108.071 63.7742C107.979 63.0794 107.816 62.3897 107.601 61.7273C107.39 61.061 107.087 60.435 106.728 59.87C106.373 59.2959 105.941 58.7959 105.453 58.3855C104.975 57.9581 104.413 57.6594 103.819 57.4321L103.365 57.2789C103.211 57.2321 103.046 57.2165 102.888 57.1802C102.559 57.1087 102.27 57.0775 101.984 57.0801C101.416 57.0918 100.897 57.2412 100.405 57.5438C99.9084 57.8426 99.4577 58.3088 99.0563 58.8543C98.2537 59.957 97.6705 61.3402 97.1692 62.7585C96.686 64.1885 96.2899 65.6848 95.9405 67.1992L95.9379 67.2083L95.6794 67.3706L95.5132 67.181Z" fill="#040606"/>
<path d="M53.5889 177.373L55.2319 178.666L47.6559 198.795L31.6661 198.176C31.6661 198.176 46.7753 200.734 53.5889 177.373Z" fill="#D69861"/>
<path d="M47.656 200H47.6092L25.5155 199.144L25.3395 199.125C23.4634 198.773 20.0007 196.728 20.3229 191.504C20.5385 188.013 22.6302 184.191 25.7819 181.531C27.9676 179.687 31.6164 177.601 36.5671 178.136C44.0816 178.946 46.952 184.01 47.0702 184.225C47.391 184.808 47.1793 185.54 46.5961 185.862C46.013 186.183 45.2792 185.97 44.9584 185.388C44.8648 185.223 42.5244 181.202 36.3084 180.533C32.1999 180.091 29.1634 181.835 27.337 183.374C24.7114 185.59 22.9027 188.839 22.7292 191.653C22.479 195.71 25.1427 196.596 25.7185 196.739L46.8338 197.557L54.4072 177.438C54.6397 176.816 55.3358 176.501 55.9593 176.736C56.5814 176.971 56.8983 177.666 56.6632 178.288L48.7833 199.221C48.6067 199.691 48.156 200 47.656 200Z" fill="#231F20"/>
<path d="M88.6154 104.33L97.4356 92.8442V91.2025L95.1484 85.9631L95.8095 80.3639L100.28 72.7879L102.758 69.3669L104.093 55.5371L106.001 51.2043L108.837 49.847L111.7 50.8043L113.141 54.5669L112.136 64.3483L110.73 69.4786L113.181 70.3254L117.092 66.1913L125.412 56.6983L129.536 55.7657L132.057 57.9399L131.359 63.0105L121.203 74.4816L125.334 74.9829L127.325 79.5495L124.989 85.8228L124.24 91.5596L119.776 96.5497L114.616 98.3862L112.749 98.9096L105.886 114.236L88.6154 104.33Z" fill="#F7BF7F"/>
<path d="M111.094 97.7472C111.094 97.7472 115.549 99.3266 118.809 97.1549C122.069 94.982 125.318 90.7388 124.925 84.7331C121.536 86.1865 120.875 96.7549 111.094 97.7472Z" fill="#D69861"/>
<path d="M112.748 98.9096L106.227 114.236L102.444 113.017L111.7 98.1771L112.748 98.9096Z" fill="#D69861"/>
<path d="M97.4316 93.1624L99.1746 93.9846L91.7883 106.758L88.3503 104.86L97.4316 93.1624Z" fill="#FCD4AE"/>
<path d="M99.1746 79.5496C99.1746 79.5496 102.37 75.6701 107.596 75.5662C112.821 75.4636 113.085 76.6442 112.748 77.0546C112.412 77.4637 107.435 76.8494 105.126 77.9781C102.818 79.1067 98.9187 81.0186 99.1746 79.5496Z" fill="#FCD4AE"/>
<path d="M104.093 60.7402C104.093 60.7402 103.826 54.7059 105.691 52.5823C107.555 50.4601 109.365 51.6082 109.16 51.968C108.955 52.3265 105.999 52.6174 106.157 57.9698C106.2 59.4284 105.728 64.6898 104.093 60.7402Z" fill="#FCD4AE"/>
<path d="M115.985 68.5889C115.985 68.5889 124.4 56.8762 127.107 56.0697C129.815 55.2644 130.737 57.1984 130.373 57.3932C130.008 57.5893 127.351 56.2619 124.638 60.8792C123.899 62.1377 115.268 72.8049 115.985 68.5889Z" fill="#FCD4AE"/>
<path d="M131.546 59.9193C131.546 59.9193 131.711 62.126 130.449 63.5612C129.188 64.999 125.237 70.3332 123.953 71.3592C122.671 72.3853 121.925 71.6502 123.195 70.3254C124.468 69.0006 129.603 63.1339 129.601 62.4247C129.597 61.7143 131.29 58.9452 131.546 59.9193Z" fill="#D69861"/>
<path d="M111.205 52.507C111.205 52.507 113.36 56.1229 112.58 59.9193C112.235 61.5948 110.973 67.2888 110.312 68.6577C109.648 70.0267 108.705 69.8994 109.233 68.3278C109.761 66.7563 111.327 60.1375 111.383 59.5635C111.725 55.9943 110.581 51.9615 111.205 52.507Z" fill="#D69861"/>
<path d="M113.877 85.4254C113.877 85.4254 119.379 85.3189 120.02 83.8434C120.662 82.368 122.286 81.8588 122.539 82.7148C122.791 83.5707 119.44 87.6307 117.662 87.5671C115.882 87.5035 113.341 87.623 113.877 85.4254Z" fill="#D69861"/>
<path d="M98.759 93.0845C97.3706 95.0574 95.8432 96.929 94.3677 98.8369L92.139 101.692L89.8946 104.531C89.5829 104.927 89.0075 104.995 88.6127 104.682C88.2335 104.382 88.1581 103.837 88.4309 103.444L90.4999 100.473L92.5858 97.516C93.9872 95.5509 95.3354 93.5469 96.8238 91.6467C97.2329 91.122 97.9914 91.0311 98.5161 91.4402C99.0227 91.8376 99.124 92.5624 98.759 93.0845Z" fill="#231F20"/>
<path d="M106.744 114.951C106.584 114.951 106.422 114.917 106.267 114.853C105.657 114.588 105.374 113.88 105.637 113.267L112.034 98.433C112.298 97.8213 113.008 97.5394 113.617 97.8031C114.229 98.0667 114.512 98.7759 114.249 99.3863L107.852 114.221C107.656 114.678 107.212 114.951 106.744 114.951Z" fill="#231F20"/>
<path d="M110.187 69.0785C110.721 66.177 111.287 63.2534 111.697 60.3765C111.884 58.9491 111.984 57.5035 111.948 56.1255C111.906 54.7618 111.645 53.3954 110.989 52.5797C110.667 52.1745 110.261 51.9108 109.748 51.7589C109.255 51.616 108.572 51.5511 108.051 51.6147C107.514 51.681 107.094 51.8628 106.751 52.1862C106.406 52.5096 106.126 52.998 105.921 53.5785C105.713 54.1578 105.578 54.815 105.471 55.5073L105.319 56.5892C105.279 56.8801 105.253 57.2438 105.227 57.5996L104.979 62.0338C104.889 63.5261 104.774 65.021 104.591 66.5368C104.496 67.2966 104.391 68.0564 104.218 68.85C104.135 69.2448 104.03 69.6513 103.869 70.0955C103.826 70.2072 103.788 70.315 103.724 70.4436L103.636 70.6293L103.513 70.8371L103.387 71.0268L103.287 71.1579L103.096 71.3995L101.664 73.1165C101.202 73.6763 100.757 74.2426 100.328 74.8154C99.4734 75.9648 98.6889 77.1506 98.046 78.3884C97.4031 79.6236 96.8927 80.9094 96.6212 82.2121C96.4913 82.8628 96.4199 83.5161 96.4186 84.1603C96.4186 84.7876 96.4952 85.4773 96.6134 86.1423C96.8524 87.4697 97.2966 88.7438 97.9889 89.853C98.3304 90.4102 98.737 90.9219 99.1851 91.383C99.4111 91.6129 99.6513 91.8272 99.8981 92.0207C100.023 92.1194 100.149 92.2104 100.275 92.2948L100.463 92.4143L100.606 92.4974L100.712 92.5585C101.274 92.8832 101.464 93.6001 101.141 94.1612C100.833 94.6924 100.168 94.8898 99.6228 94.6327C99.4604 94.556 99.3838 94.5118 99.2773 94.4521L98.9915 94.2807C98.8071 94.1638 98.6292 94.0417 98.4603 93.9131C98.1174 93.6585 97.7979 93.3845 97.4953 93.0935C96.8927 92.5091 96.3679 91.8545 95.9224 91.1557C95.0237 89.7582 94.4587 88.1866 94.1509 86.6047C94.0002 85.8137 93.8963 85.0266 93.8872 84.1707C93.8781 83.333 93.969 82.5043 94.1314 81.703C94.4613 80.099 95.0613 78.604 95.7835 77.2104C96.5069 75.8155 97.3628 74.5206 98.2746 73.2893C99.176 72.0619 100.193 70.8826 101.097 69.7877L101.25 69.5942L101.319 69.5033L101.344 69.4604L101.363 69.4305L101.393 69.363L101.461 69.1993C101.55 68.9461 101.637 68.6344 101.706 68.3045C101.848 67.6473 101.948 66.9368 102.033 66.2264C102.205 64.7977 102.31 63.3352 102.411 61.8701L102.684 57.423C102.715 57.0412 102.739 56.6658 102.804 56.2216L102.978 55.1033C103.109 54.3344 103.276 53.5331 103.579 52.7187C103.88 51.9135 104.332 51.0614 105.083 50.3744C105.826 49.6782 106.851 49.2834 107.784 49.1976C108.257 49.1431 108.709 49.1639 109.147 49.2067C109.572 49.247 110.037 49.3405 110.483 49.4886C111.386 49.7769 112.264 50.3912 112.83 51.1757C113.407 51.9576 113.708 52.8239 113.889 53.65C114.063 54.4812 114.119 55.293 114.124 56.0852C114.13 57.675 113.902 59.1894 113.629 60.6869C113.052 63.6586 112.285 66.5186 111.458 69.3863C111.358 69.7331 110.995 69.9344 110.647 69.8331C110.322 69.7396 110.126 69.4162 110.185 69.0902L110.187 69.0785Z" fill="#231F20"/>
<path d="M108.871 68.3682C109.496 68.2097 110.068 68.1915 110.665 68.2383C111.255 68.2889 111.843 68.4162 112.416 68.6292C112.989 68.8435 113.546 69.15 114.032 69.5747C114.504 70.0163 114.916 70.5735 115.067 71.2372C115.14 71.5658 114.933 71.8918 114.604 71.9659C114.486 71.9931 114.369 71.984 114.263 71.9438L114.165 71.9087C113.65 71.7217 113.251 71.5554 112.832 71.3905C112.411 71.2307 111.991 71.0658 111.559 70.8904L110.205 70.3813C109.748 70.2073 109.252 70.0163 108.8 69.7851L108.716 69.7423C108.353 69.5565 108.208 69.1111 108.395 68.7474C108.495 68.5513 108.674 68.4201 108.871 68.3682Z" fill="#231F20"/>
<path d="M112.728 81.7082C112.587 81.9719 112.455 82.1654 112.291 82.3654C112.134 82.5628 111.959 82.7434 111.769 82.9096C111.393 83.2447 110.961 83.524 110.487 83.7448C110.012 83.9617 109.482 84.1058 108.93 84.1305C108.374 84.1383 107.792 84.0253 107.313 83.698C107.03 83.5058 106.957 83.1187 107.149 82.8356L107.347 82.6512L107.458 82.5862C107.864 82.3499 108.174 82.1992 108.49 82.029C108.803 81.8589 109.113 81.7057 109.442 81.5485L110.448 81.0303C110.791 80.8614 111.176 80.6653 111.543 80.5432L111.7 80.4912C112.151 80.3432 112.637 80.5887 112.785 81.038C112.859 81.2679 112.832 81.5108 112.728 81.7082Z" fill="#231F20"/>
<path d="M110.725 82.3758C110.904 82.6433 111.017 82.8511 111.148 83.0862C111.27 83.3174 111.391 83.5473 111.495 83.7837C111.715 84.2513 111.891 84.7357 112.044 85.2279C112.356 86.2111 112.521 87.2489 112.525 88.2893C112.548 89.3309 112.3 90.379 111.907 91.322C111.529 92.2883 110.859 93.0767 110.186 93.7832C110.059 93.9157 109.847 93.9209 109.713 93.7936C109.599 93.6858 109.578 93.5157 109.653 93.3845L109.674 93.3481L110.012 92.7584C110.126 92.5649 110.239 92.3727 110.312 92.1623L110.563 91.5544C110.629 91.3466 110.67 91.1311 110.726 90.9245C110.921 90.0881 110.963 89.2335 110.827 88.3945C110.704 87.558 110.437 86.7437 110.087 85.9644C109.909 85.576 109.708 85.1968 109.486 84.8318C109.381 84.6461 109.262 84.4694 109.146 84.2941C109.031 84.1279 108.894 83.9369 108.797 83.8227C108.365 83.3148 108.425 82.5524 108.934 82.1199C109.443 81.6874 110.205 81.7497 110.637 82.2576L110.721 82.3693L110.725 82.3758Z" fill="#231F20"/>
<path d="M112.943 69.3332C115.347 66.4212 117.733 63.5093 120.214 60.6389C120.526 60.2792 120.835 59.9233 121.166 59.557L121.63 59.044L122.082 58.5245C122.692 57.8127 123.33 57.0568 124.09 56.3529C124.847 55.6554 125.755 54.9748 126.921 54.6241C127.499 54.454 128.135 54.3955 128.747 54.4618C129.36 54.528 129.938 54.7163 130.453 54.9657C130.96 55.2164 131.441 55.519 131.888 55.9177C132.331 56.3165 132.715 56.8165 132.981 57.3724C133.523 58.5011 133.532 59.7375 133.331 60.7974C133.132 61.8728 132.696 62.8924 132.103 63.7794C131.819 64.2184 131.447 64.6548 131.134 64.999L130.203 66.0602C127.726 68.8968 125.229 71.7152 122.703 74.5089C122.403 74.8401 121.893 74.8648 121.562 74.5674C121.244 74.2777 121.209 73.7907 121.476 73.4595C123.853 70.5294 126.26 67.62 128.685 64.7289L129.593 63.6431C129.904 63.282 130.137 62.9911 130.364 62.6378C130.808 61.952 131.115 61.2 131.251 60.4168C131.386 59.6375 131.337 58.892 131.045 58.3114C130.899 58.0205 130.698 57.7594 130.437 57.5308C130.177 57.3049 129.851 57.1022 129.513 56.9412C128.838 56.623 128.195 56.5593 127.551 56.7555C126.903 56.9555 126.243 57.4166 125.631 58.0023C125.014 58.5868 124.438 59.2791 123.834 60.0051L123.364 60.5597L122.887 61.1013C122.591 61.4377 122.286 61.7975 121.987 62.1533C119.588 65.0315 117.188 67.946 114.808 70.8606L114.806 70.8632C114.385 71.3801 113.625 71.4554 113.111 71.0346C112.594 70.6138 112.519 69.854 112.939 69.3384L112.943 69.3332Z" fill="#231F20"/>
<path d="M98.5253 79.4976C99.1604 78.443 99.9916 77.6273 100.918 76.8857C101.85 76.161 102.88 75.5518 103.976 75.0959C104.522 74.8609 105.082 74.6621 105.651 74.492C106.222 74.3348 106.799 74.1894 107.383 74.0907C108.547 73.8686 109.731 73.7984 110.908 73.8023L111.787 73.8244L112.649 73.8855C113.225 73.9348 113.799 73.9881 114.377 74.0699C115.532 74.227 116.693 74.453 117.853 74.818C119.006 75.2076 120.184 75.7181 121.226 76.6675C121.734 77.1481 122.209 77.7494 122.487 78.4871C122.626 78.8534 122.718 79.2443 122.748 79.6457C122.762 79.8457 122.76 80.0496 122.743 80.2548L122.704 80.5678L122.669 80.7354C122.652 80.8016 122.647 80.8328 122.607 80.9562L122.638 80.851C122.575 81.0887 122.525 81.225 122.462 81.4017C122.401 81.5679 122.335 81.729 122.266 81.8887C122.125 82.2056 121.966 82.5135 121.786 82.8148C121.427 83.4109 120.992 83.9785 120.457 84.4695C119.926 84.9604 119.297 85.3657 118.617 85.6436C117.939 85.928 117.214 86.0683 116.509 86.1099C115.258 86.1592 113.953 86.1359 112.629 85.7735C111.974 85.5891 111.332 85.315 110.752 84.9617C110.174 84.6046 109.66 84.1798 109.196 83.7279C108.863 83.4019 108.856 82.8667 109.182 82.5329C109.489 82.2199 109.979 82.1939 110.313 82.4628L110.325 82.4719C111.183 83.1629 112.102 83.6421 113.11 83.8382C114.112 84.0486 115.229 84.0123 116.355 83.9123C117.328 83.8214 118.181 83.4304 118.849 82.7628C119.188 82.4368 119.48 82.042 119.726 81.6108C119.848 81.3952 119.957 81.1692 120.053 80.938L120.184 80.5912L120.275 80.286L120.306 80.1808L120.297 80.2003L120.304 80.1626L120.313 80.06L120.306 79.8353C120.292 79.6794 120.256 79.5236 120.196 79.369C120.08 79.0599 119.849 78.7573 119.552 78.4767C119.245 78.1988 118.863 77.9481 118.444 77.7312C118.02 77.5156 117.557 77.3429 117.081 77.1753C115.157 76.5441 112.962 76.3012 110.847 76.1779C108.744 76.0921 106.64 76.2974 104.637 76.9C103.64 77.2065 102.662 77.6013 101.741 78.1157C100.825 78.6183 99.9202 79.2521 99.189 79.9639L99.1552 79.9963C98.9954 80.1522 98.7383 80.1483 98.5824 79.9886C98.4525 79.8535 98.4343 79.6509 98.5253 79.4976Z" fill="#231F20"/>
<path d="M124.925 85.9384C124.6 85.9384 124.274 85.806 124.035 85.5462C123.586 85.0553 123.621 84.2929 124.112 83.8435C125.473 82.5966 126.203 80.9575 126.113 79.3444C126.042 78.0742 125.474 76.9909 124.516 76.2935C121.995 74.4596 119.057 76.6857 118.932 76.7805C118.407 77.1871 117.65 77.0923 117.242 76.5688C116.835 76.0454 116.925 75.2908 117.448 74.8804C117.628 74.7388 121.931 71.4334 125.934 74.344C127.467 75.4584 128.41 77.2325 128.52 79.208C128.652 81.5472 127.637 83.885 125.738 85.6228C125.508 85.8346 125.216 85.9384 124.925 85.9384Z" fill="#231F20"/>
<path d="M114.662 85.5618L114.643 85.6605L114.63 85.8099L114.625 86.1216C114.632 86.3333 114.654 86.5424 114.698 86.7411C114.784 87.1438 114.944 87.5074 115.185 87.8165C115.428 88.1244 115.757 88.3854 116.161 88.5763C116.566 88.7686 117.036 88.9088 117.466 88.9361C117.902 88.9699 118.339 88.9036 118.766 88.7244C119.192 88.5478 119.601 88.262 119.982 87.9243C120.737 87.2373 121.38 86.3541 121.936 85.4215C122.034 85.2566 122.245 85.202 122.409 85.3007C122.561 85.3903 122.619 85.5787 122.549 85.7371C122.099 86.7697 121.553 87.7866 120.778 88.701C120.383 89.1504 119.927 89.579 119.365 89.905C118.809 90.231 118.141 90.4362 117.471 90.4713C116.793 90.509 116.164 90.4038 115.534 90.2102C114.905 90.0128 114.273 89.666 113.755 89.1686C113.233 88.675 112.846 88.0438 112.606 87.3892C112.484 87.0606 112.398 86.7242 112.339 86.3866C112.312 86.2151 112.289 86.045 112.274 85.8696L112.261 85.6034C112.26 85.5047 112.256 85.4384 112.265 85.289C112.342 84.6279 112.938 84.1526 113.601 84.2266C114.263 84.3019 114.738 84.8994 114.662 85.5618Z" fill="#231F20"/>
<path d="M111.267 96.9004C111.395 96.9758 111.615 97.0797 111.804 97.1537C112 97.2316 112.206 97.3018 112.412 97.3602C112.826 97.4758 113.252 97.5524 113.681 97.5901C114.54 97.6589 115.408 97.5732 116.241 97.3329C117.075 97.0992 117.872 96.7238 118.615 96.2471C118.806 96.1354 118.982 95.999 119.166 95.877L119.702 95.4704C120.017 95.2133 120.343 94.8976 120.64 94.5755C121.84 93.2741 122.76 91.7117 123.282 90.0414C123.808 88.3711 123.943 86.597 123.726 84.8514C123.643 84.1903 124.113 83.5876 124.773 83.5058C125.434 83.4227 126.037 83.8928 126.118 84.5526L126.124 84.602L126.125 84.6137C126.289 86.6723 126.034 88.7894 125.318 90.7389C124.609 92.6923 123.459 94.4535 122 95.8991C121.628 96.2614 121.253 96.5991 120.812 96.9277L120.186 97.3615C119.966 97.494 119.756 97.6407 119.528 97.7628C118.637 98.2772 117.668 98.6837 116.646 98.924C115.629 99.1669 114.56 99.2266 113.517 99.0954C112.997 99.0266 112.482 98.9097 111.984 98.7447C111.733 98.6629 111.487 98.5668 111.244 98.4577C110.995 98.3434 110.782 98.2395 110.505 98.0616C110.183 97.855 110.09 97.4265 110.296 97.1031C110.495 96.7926 110.904 96.6952 111.221 96.8758L111.267 96.9004Z" fill="#231F20"/>
<path d="M65.9161 179.871C53.528 179.871 47.7873 176.693 47.5392 176.551C46.9599 176.223 46.7573 175.488 47.0872 174.908C47.4158 174.329 48.1496 174.126 48.7302 174.455C48.7848 174.486 54.7151 177.705 67.3993 177.445C79.9679 177.186 85.3073 172.537 85.3593 172.489C85.8528 172.046 86.6139 172.085 87.0594 172.577C87.5049 173.069 87.4711 173.828 86.9802 174.274C86.7425 174.49 81.0174 179.576 67.45 179.854C66.9279 179.866 66.4161 179.871 65.9161 179.871Z" fill="#231F20"/>
<path d="M32.5413 180.714L32.3637 180.701C31.7052 180.604 31.2501 179.991 31.3465 179.332L33.2439 166.453C33.3413 165.795 33.9542 165.335 34.6122 165.436C35.2718 165.532 35.7274 166.145 35.6295 166.805L33.732 179.684C33.6432 180.281 33.1298 180.714 32.5413 180.714Z" fill="#231F20"/>
<path d="M98.2083 180.344C97.6018 180.344 97.081 179.888 97.0121 179.271L95.5601 166.095C95.486 165.432 95.964 164.837 96.6251 164.763C97.2914 164.688 97.8836 165.169 97.9564 165.831L99.4084 179.007C99.4825 179.67 99.0045 180.265 98.3434 180.336L98.2083 180.344Z" fill="#231F20"/>
<path d="M73.8424 121.614L73.9762 120.917L74.8438 119.4C77.8727 114.097 81.712 109.3 86.2253 105.186L87.7254 103.817C87.7254 103.817 105.681 112.402 106.656 114.812C105.127 118.553 97.3392 129.499 97.3392 129.499C97.3392 129.499 86.5357 140.488 77.9727 133.446C74.5126 130.601 72.9969 126.013 73.8424 121.614Z" fill="#EBEBE9"/>
<path d="M90.1348 172.947C89.6711 172.947 89.2295 172.678 89.0308 172.226C88.7632 171.618 89.0399 170.907 89.649 170.638C89.6776 170.625 92.8025 169.213 94.8287 166.358C98.8251 160.727 98.5783 154.934 98.5744 154.877C98.542 154.212 99.0511 153.645 99.7148 153.609C100.385 153.58 100.946 154.082 100.982 154.744C100.998 155.013 101.299 161.406 96.7951 167.753C94.3728 171.166 90.7725 172.778 90.6192 172.844C90.462 172.915 90.2971 172.947 90.1348 172.947Z" fill="#231F20"/>
<path d="M40.0789 173.425C39.8633 173.425 39.6442 173.368 39.4462 173.246C32.3139 168.835 31.3795 161.637 31.3424 161.333C31.2637 160.672 31.7356 160.072 32.3967 159.993C33.0587 159.912 33.6559 160.385 33.736 161.045C33.7461 161.12 34.6061 167.418 40.7147 171.194C41.2813 171.544 41.4567 172.287 41.106 172.855C40.8781 173.222 40.4837 173.425 40.0789 173.425Z" fill="#231F20"/>
<path d="M93.9379 124.055C93.9379 124.055 97.5486 151.591 84.6566 155.373C94.2107 152.357 99.7865 148.845 99.7865 148.845L93.9379 124.055Z" fill="#C1C0B8"/>
<path d="M30.2416 160.103C30.2416 160.103 30.9027 165.454 31.6662 167.041C30.994 168.63 30.3116 176.427 30.3116 176.427C30.3116 176.427 45.2571 175.299 55.0411 184.943C57.1347 181.366 57.466 177.923 57.466 177.923C57.466 177.923 69.78 180.07 72.8569 178.638C73.6777 180.898 75.2272 185.442 75.2272 185.442C75.2272 185.442 89.7778 175.811 99.7864 175.299C99.0214 168.732 98.2109 165.962 98.2109 165.962C98.2109 165.962 102.407 159.36 100.766 154.812C98.0979 157.137 88.301 165.974 63.547 164.993C38.7919 164.011 30.2416 160.103 30.2416 160.103Z" fill="#1A1E2C"/>
<path d="M72.8569 177.432C73.014 177.432 73.1712 177.463 73.3192 177.524C73.631 177.654 73.8751 177.909 73.9907 178.225C74.5154 179.674 75.3441 182.067 75.8714 183.601C79.534 181.324 90.057 175.181 98.4382 174.204C97.7473 168.73 97.0602 166.324 97.0537 166.3C96.9563 165.967 97.0069 165.607 97.1927 165.315C98.0824 163.91 99.9721 160.162 99.9358 157.063C91.3402 163.742 79.0964 166.815 63.4989 166.198C45.0078 165.465 35.4866 163.122 31.7155 161.92C32.0021 163.746 32.3979 165.783 32.753 166.519C32.9026 166.831 32.9118 167.192 32.7772 167.512C32.4197 168.354 31.9412 172.127 31.6394 175.176L31.897 175.175C35.9797 175.175 46.6079 175.912 54.7086 182.989C56.0113 180.227 56.2633 177.834 56.2659 177.806C56.3009 177.472 56.4698 177.167 56.7373 176.964C57.0036 176.763 57.3413 176.677 57.6725 176.736C62.2897 177.54 70.3566 178.471 72.3477 177.545C72.5088 177.47 72.6828 177.432 72.8569 177.432ZM75.2272 186.647C75.096 186.647 74.9661 186.626 74.8375 186.583C74.4856 186.461 74.2076 186.185 74.0855 185.831C74.0725 185.792 72.9348 182.456 72.1023 180.107C68.5331 180.778 61.5702 179.81 58.4608 179.311C58.1738 180.715 57.5179 183.099 56.0827 185.552C55.8931 185.873 55.5684 186.09 55.1995 186.138C54.8294 186.187 54.4605 186.064 54.1943 185.801C44.9311 176.669 30.5434 177.62 30.4004 177.629C30.0462 177.659 29.7013 177.524 29.4527 177.273C29.2055 177.021 29.0788 176.673 29.1102 176.321C29.2167 175.097 29.7469 169.325 30.3826 167.084C29.6545 165.061 29.1102 160.773 29.0458 160.251C28.9925 159.817 29.1777 159.39 29.5288 159.13C29.8804 158.873 30.3446 158.825 30.7414 159.007C30.8707 159.064 39.5504 162.836 63.595 163.788C79.4951 164.416 91.7026 161.124 99.8695 153.992L99.9734 153.903C100.273 153.642 100.681 153.545 101.068 153.645C101.453 153.745 101.763 154.029 101.9 154.403C103.474 158.765 100.468 164.488 99.5046 166.149C99.7734 167.241 100.393 170.084 100.984 175.159C101.022 175.49 100.922 175.823 100.707 176.076C100.492 176.33 100.181 176.486 99.8475 176.502C90.2791 176.993 76.035 186.352 75.8935 186.448C75.6922 186.579 75.4623 186.647 75.2272 186.647Z" fill="#171717"/>
<path d="M33.4884 161.858C33.4884 161.858 66.5392 165.822 73.6139 164.993C80.6859 164.165 98.325 157.781 100.714 155.373C101.519 154.562 99.8901 159.103 98.7692 164.993C100.458 176.024 98.9602 174.449 95.6872 175.658C94.8027 175.984 95.2014 163.277 92.8142 164.685C89.1217 166.862 84.2732 168.729 75.227 169.416C48.9494 171.413 27.3637 164.319 33.4884 161.858Z" fill="#0D1119"/>
<path d="M72.8569 177.432C73.014 177.432 73.1712 177.463 73.3192 177.524C73.631 177.654 73.8751 177.909 73.9907 178.225C74.5154 179.674 75.3441 182.067 75.8714 183.601C79.534 181.324 90.057 175.181 98.4382 174.204C97.7473 168.73 97.0602 166.324 97.0537 166.3C96.9654 165.996 97.0005 165.67 97.1485 165.393C98.0239 163.757 99.8578 159.538 99.902 156.233C90.2869 165.224 74.9791 166.652 63.4989 166.198C45.0078 165.465 35.4866 163.122 31.7155 161.92C32.0021 163.748 32.3979 165.783 32.753 166.519C32.9026 166.831 32.9118 167.192 32.7772 167.512C32.4197 168.354 31.9412 172.127 31.6394 175.176L31.897 175.175C35.9797 175.175 46.6079 175.912 54.7086 182.989C56.0113 180.227 56.2633 177.834 56.2659 177.806C56.3009 177.472 56.4698 177.167 56.7373 176.964C57.0036 176.763 57.3413 176.677 57.6725 176.736C62.2897 177.54 70.3566 178.471 72.3477 177.545C72.5088 177.47 72.6828 177.432 72.8569 177.432ZM75.2272 186.647C75.096 186.647 74.9661 186.626 74.8375 186.583C74.4856 186.461 74.2076 186.185 74.0855 185.831C74.0725 185.792 72.9348 182.456 72.1023 180.107C68.5331 180.778 61.5702 179.81 58.4608 179.311C58.1738 180.715 57.5179 183.099 56.0827 185.552C55.8931 185.873 55.5684 186.09 55.1995 186.138C54.8294 186.187 54.4605 186.064 54.1943 185.801C44.9311 176.669 30.5434 177.62 30.4004 177.629C30.0462 177.659 29.7013 177.524 29.4527 177.273C29.2055 177.021 29.0788 176.673 29.1102 176.321C29.2167 175.097 29.7469 169.325 30.3826 167.084C29.6545 165.061 29.1102 160.773 29.0458 160.251C28.9925 159.817 29.1777 159.39 29.5288 159.13C29.8804 158.873 30.343 158.826 30.7403 159.006C30.8316 159.046 39.4946 162.833 63.595 163.788C75.2636 164.253 91.0311 162.732 99.8254 152.862C100.107 152.545 100.536 152.4 100.953 152.482C101.371 152.562 101.714 152.856 101.859 153.256C103.446 157.655 100.375 164.336 99.4929 166.102C99.7565 167.161 100.384 170.01 100.984 175.159C101.022 175.49 100.922 175.823 100.707 176.076C100.492 176.33 100.181 176.486 99.8475 176.502C90.2791 176.993 76.035 186.352 75.8935 186.448C75.6922 186.579 75.4623 186.647 75.2272 186.647Z" fill="#040606"/>
<path d="M70.6175 166.201C56.4631 166.202 36.4935 163.232 35.5066 163.083C35.1414 163.027 26.6433 161.663 25.6767 156.504C25.3201 154.607 25.588 153.114 26.4682 152.074C27.5753 150.765 29.1784 150.756 29.3434 150.761C30.008 150.774 30.5382 151.324 30.5256 151.989C30.5128 152.648 29.9766 153.171 29.3205 153.171H29.3144C29.2739 153.173 28.661 153.2 28.2972 153.645C27.9227 154.103 27.8356 154.939 28.0461 156.06C28.5875 158.948 34.0109 160.415 35.8694 160.699C36.1459 160.742 64.1131 164.902 77.1453 163.498C87.1371 162.422 98.2991 156.739 100.565 151.575C100.894 150.83 100.999 150.143 100.881 149.505C94.6247 154.768 85.7058 157.444 74.3347 157.465H74.3321C73.6684 157.465 73.1294 156.928 73.1281 156.263C73.1268 155.596 73.6658 155.056 74.3308 155.055C85.8331 155.033 94.6208 152.206 100.452 146.654C100.703 146.415 101.041 146.294 101.388 146.325C101.733 146.355 102.047 146.532 102.253 146.81C103.5 148.497 103.68 150.479 102.773 152.544C100.168 158.481 88.3138 164.719 77.4038 165.895C75.4101 166.109 73.1021 166.201 70.6175 166.201Z" fill="#231F20"/>
<path d="M38.5187 156.625C37.0947 156.631 35.6892 156.56 34.2722 156.374C33.566 156.282 32.8582 156.153 32.1515 155.966C31.4463 155.766 30.7324 155.534 30.0551 155.047C29.8877 154.925 29.7229 154.781 29.5741 154.605L29.3662 154.322L29.2105 154.027C29.0405 153.662 28.9298 153.291 28.8324 152.917C28.6625 152.17 28.6051 151.423 28.6051 150.685C28.6067 149.211 28.8401 147.781 29.1379 146.379C29.7583 143.578 30.6944 140.887 31.7507 138.265C32.8126 135.64 34.0034 133.081 35.2438 130.547C35.537 129.95 36.2585 129.702 36.8572 129.995C37.4559 130.288 37.7034 131.01 37.4101 131.609L37.3838 131.658L37.3762 131.673C36.0343 134.097 34.7415 136.548 33.5786 139.052C32.4204 141.556 31.3855 144.12 30.665 146.749C30.314 148.061 30.0308 149.396 29.9648 150.718C29.9318 151.378 29.9521 152.032 30.0602 152.656C30.1247 152.961 30.1972 153.265 30.3114 153.543L30.3885 153.713L30.4823 153.857L30.7588 154.136C31.2003 154.497 31.8207 154.757 32.4483 154.964C33.0825 155.168 33.7461 155.325 34.4194 155.446C35.7639 155.692 37.153 155.834 38.5228 155.895H38.533C38.7344 155.904 38.8906 156.076 38.8814 156.276C38.8729 156.47 38.7115 156.624 38.5187 156.625Z" fill="#231F20"/>
<path d="M32.6287 116.635C32.5414 116.707 32.3826 116.85 32.2574 116.968C32.1254 117.094 31.992 117.224 31.8702 117.362C31.6165 117.632 31.4025 117.928 31.1878 118.216C30.7795 118.809 30.5096 119.452 30.3699 120.097C30.2416 120.747 30.2493 121.413 30.4232 122.087C30.611 122.796 30.9128 123.509 31.2892 124.197C32.0696 125.569 33.1386 126.833 34.3233 127.987C35.5282 129.112 36.8523 130.176 38.2881 130.954L38.3033 130.963C38.6053 131.125 38.7169 131.501 38.5535 131.802C38.4049 132.077 38.0766 132.194 37.791 132.086C36.0711 131.44 34.553 130.472 33.1285 129.363C32.4273 128.798 31.7434 128.199 31.1117 127.535C30.4902 126.864 29.9007 126.148 29.3806 125.361C28.8718 124.566 28.4254 123.71 28.1072 122.764C27.7978 121.778 27.7049 120.675 27.9003 119.626C28.0818 118.574 28.5436 117.61 29.1143 116.78C29.407 116.371 29.7231 115.981 30.0793 115.637C30.2518 115.459 30.4359 115.293 30.6246 115.13L30.919 114.894C31.0255 114.812 31.1132 114.747 31.2588 114.649C31.8093 114.276 32.5577 114.42 32.9305 114.969C33.2781 115.482 33.1767 116.168 32.715 116.562L32.6287 116.635Z" fill="#231F20"/>
<path d="M105.86 113.894C105.86 113.894 107.431 114.33 106.202 117.198C104.361 121.501 99.1876 128.973 96.7017 130.223C94.7119 125.939 93.7625 123.716 93.7625 123.716C93.7625 123.716 97.1952 127.694 105.86 113.894Z" fill="#C1C0B8"/>
<path d="M99.3149 150.423C98.7161 150.423 98.1953 149.976 98.1213 149.367C97.4017 143.607 94.9873 127.802 92.4728 123.896C92.113 123.336 92.274 122.591 92.8338 122.23C93.3936 121.87 94.1391 122.031 94.5002 122.592C97.8252 127.756 100.406 148.201 100.514 149.068C100.596 149.729 100.127 150.332 99.4656 150.414L99.3149 150.423Z" fill="#231F20"/>
<path d="M96.1146 132.062C95.8185 132.062 95.5237 131.954 95.2899 131.736C94.8041 131.28 94.7807 130.516 95.2353 130.03C102.274 122.519 104.626 117.084 105.279 115.232C103.394 113.741 97.2004 109.134 87.9451 105.21C77.313 114.056 75.1843 122.548 75.1635 122.635C75.0089 123.283 74.3543 123.681 73.7114 123.526C73.0633 123.373 72.6633 122.722 72.8179 122.074C72.9127 121.683 75.2388 112.4 86.9814 102.881C87.3243 102.602 87.7944 102.535 88.201 102.703C100.146 107.645 107.166 113.647 107.458 113.9C107.796 114.193 107.945 114.645 107.847 115.08C107.784 115.351 106.231 121.823 96.9952 131.68C96.7575 131.933 96.4367 132.062 96.1146 132.062Z" fill="#231F20"/>
<path d="M33.4809 34.1925C33.4809 34.1925 41.1827 12.9582 65.8199 19.373C59.4791 21.6355 57.227 24.6462 57.227 24.6462C57.227 24.6462 81.781 12.1659 93.3858 48.869C83.6331 40.8021 68.85 40.2319 67.0693 41.1943C73.6218 42.9698 76.061 49.0015 76.061 49.0015C76.061 49.0015 69.5007 44.5284 62.4209 44.7414C53.3162 45.0154 49.6991 52.2407 49.6991 52.2407C49.6991 52.2407 38.8994 42.9231 32.8737 49.9678C32.8737 49.9678 23.1793 40.2644 29.2903 24.515C30.9798 28.8284 35.0639 30.3973 35.0639 30.3973" fill="#3A1E19"/>
<path d="M20.1074 95.7535C20.1074 95.7535 28.0803 104.483 39.7975 107.151C49.7706 112.178 58.7999 109.426 58.7999 109.426C58.7999 109.426 67.6708 107.748 68.4527 103.449C65.6433 103.44 48.8185 102.859 48.8185 102.859L20.1074 95.7535Z" fill="#D69861"/>
<path d="M49.7548 54.1098L48.5911 53.185C48.5067 53.1162 39.8522 46.374 33.4063 51.0056C32.8645 51.3939 32.1126 51.2706 31.7229 50.7303C31.3348 50.19 31.4581 49.4367 31.9984 49.047C38.4732 44.3934 46.1649 48.6223 48.9924 50.5082C50.5224 48.2898 54.55 43.7621 62.0286 43.5361C69.4149 43.3244 76.4363 47.9599 76.7324 48.1573C77.2857 48.5275 77.4338 49.2756 77.0636 49.8289C76.6935 50.3822 75.9467 50.5315 75.3921 50.1614C75.3258 50.1172 68.6928 45.7285 62.1 45.9467C53.8123 46.1961 50.4536 52.7162 50.4198 52.7811L49.7548 54.1098Z" fill="#040606"/>
<path d="M37.4803 102.337C37.4803 102.337 41.1009 107.974 54.0604 108.638C67.02 109.303 70.3969 100.468 70.3969 100.468C70.3969 100.468 59.4025 105.491 37.4803 102.337Z" fill="#CF616D"/>
<path d="M39.492 103.348C41.4788 104.975 45.8337 107.482 54.098 107.905C63.0274 108.372 67.168 104.234 68.8058 101.836C64.9483 103.069 55.2267 105.309 39.492 103.348ZM55.4163 109.407C54.963 109.407 54.5007 109.395 54.024 109.372C40.84 108.695 37.0187 102.976 36.8624 102.733L35.9938 101.381L37.5843 101.61C58.9919 104.691 69.9838 99.8513 70.0929 99.802L71.7203 99.063L71.0826 100.731C71.0475 100.822 67.6186 109.407 55.4163 109.407Z" fill="#231F20"/>
<path d="M77.269 72.0411C77.269 77.8975 72.5205 82.6459 66.6642 82.6459C60.8066 82.6459 56.0581 77.8975 56.0581 72.0411C56.0581 66.1835 60.8066 61.4351 66.6642 61.4351C72.5205 61.4351 77.269 66.1835 77.269 72.0411Z" fill="#D69861"/>
<path d="M46.6767 72.271C46.6767 77.2117 42.6711 81.2173 37.7315 81.2173C32.7909 81.2173 28.7854 77.2117 28.7854 72.271C28.7854 67.3317 32.7909 63.3261 37.7315 63.3261C42.6711 63.3261 46.6767 67.3317 46.6767 72.271Z" fill="#D69861"/>
<path d="M75.8766 70.8124C75.8766 76.4558 71.3009 81.0302 65.6589 81.0302C60.0156 81.0302 55.4412 76.4558 55.4412 70.8124C55.4412 65.1704 60.0156 60.596 65.6589 60.596C71.3009 60.596 75.8766 65.1704 75.8766 70.8124Z" fill="white"/>
<path d="M45.4038 71.0502C45.4038 75.809 41.545 79.6691 36.7853 79.6691C32.0248 79.6691 28.1664 75.809 28.1664 71.0502C28.1664 66.2901 32.0248 62.43 36.7853 62.43C41.545 62.43 45.4038 66.2901 45.4038 71.0502Z" fill="white"/>
<path d="M69.0994 72.7646C67.6811 72.7646 66.5329 71.6151 66.5329 70.1994C66.5329 69.9851 66.5615 69.7773 66.6109 69.5799C64.4445 69.7214 62.7313 71.5177 62.7313 73.7205C62.7313 76.0142 64.5912 77.8754 66.8862 77.8754C69.1812 77.8754 71.0398 76.0142 71.0398 73.7205C71.0398 73.1737 70.932 72.6503 70.7398 72.1723C70.2943 72.5425 69.7241 72.7646 69.0994 72.7646Z" fill="#040606"/>
<path d="M41.6049 72.8815C40.2911 72.8815 39.2013 71.9294 38.9846 70.6761C37.451 71.0437 36.3109 72.4191 36.3109 74.0634C36.3109 75.9895 37.8721 77.5507 39.7974 77.5507C41.7231 77.5507 43.2842 75.9895 43.2842 74.0634C43.2842 73.5114 43.153 72.9932 42.9258 72.5295C42.5361 72.7516 42.0854 72.8815 41.6049 72.8815Z" fill="#040606"/>
<path d="M88.1361 106.135C83.2357 109.475 79.1067 114.753 79.4133 116.088C79.7224 117.42 88.0335 116.497 91.1117 113.112C94.1885 109.725 94.1704 107.205 88.1361 106.135Z" fill="white"/>
<path d="M75.4129 141.438C74.3128 139.577 78.217 132.342 84.1006 132.341C86.9048 132.34 86.4255 135.488 85.9476 136.889C85.4683 138.292 78.0807 145.954 75.4129 141.438Z" fill="white"/>
<path d="M43.879 157.755C46.1441 156.307 48.3248 157.583 54.3448 157.617C60.3635 157.652 62.8169 155.977 65.9691 157.994C69.1201 160.012 62.891 162.371 54.9241 162.064C46.9572 161.757 40.9378 159.636 43.879 157.755Z" fill="white"/>
<path d="M72.9125 98.0225C67.8926 108.061 46.2843 106.131 42.5645 105.326C24.9827 101.518 14.3959 90.9324 14.3959 90.9324L15.3279 85.4851" fill="#F7BF7F"/>
<path d="M73.9921 98.5616C73.2946 99.9227 72.2958 101.107 71.1594 102.057C70.019 103.01 68.7514 103.748 67.4487 104.336C64.8329 105.512 62.082 106.135 59.3402 106.513C56.5945 106.895 53.8384 107.003 51.0953 106.962C49.7225 106.94 48.3523 106.874 46.9859 106.762C45.6144 106.644 44.2584 106.506 42.87 106.253C42.6959 106.221 42.5115 106.183 42.3413 106.144L41.8439 106.017L40.8467 105.761C40.1847 105.584 39.5149 105.435 38.8604 105.234L36.8996 104.618C36.5749 104.511 36.2436 104.418 35.9229 104.301L34.96 103.944C34.3196 103.704 33.6739 103.475 33.0371 103.223L31.1498 102.419C30.5155 102.163 29.9033 101.858 29.2867 101.562C28.674 101.259 28.0464 100.988 27.4487 100.654C25.0134 99.4136 22.6811 97.9797 20.4295 96.438C18.1819 94.8795 16.0324 93.217 14.0395 91.2883L13.8518 91.1064L13.899 90.8466L14.8909 85.4111C14.934 85.1683 15.1658 85.0085 15.4067 85.0527C15.6442 85.0955 15.804 85.3215 15.766 85.5605L14.8933 91.0168L14.7523 90.5752C16.6868 92.3689 18.8634 93.9859 21.0916 95.4574C23.3331 96.9238 25.6492 98.2785 28.0616 99.4409C28.6511 99.7552 29.2726 100.007 29.8789 100.29C30.4878 100.567 31.0914 100.851 31.718 101.089L33.5789 101.835C34.2056 102.067 34.8397 102.276 35.4699 102.498L36.416 102.826C36.7322 102.933 37.0553 103.017 37.375 103.113L39.2968 103.672C39.9386 103.854 40.5941 103.983 41.2413 104.141L42.2154 104.37L42.7024 104.484C42.8609 104.517 43.0089 104.544 43.1674 104.571C44.4467 104.775 45.7871 104.885 47.1119 104.969C48.4419 105.049 49.7758 105.084 51.1083 105.078C53.7696 105.058 56.4334 104.896 59.0389 104.474C61.6391 104.062 64.2055 103.407 66.5057 102.309C68.7981 101.225 70.8113 99.6201 71.8348 97.4823C72.1218 96.8822 72.8413 96.6276 73.4427 96.916C74.044 97.203 74.2973 97.9226 74.009 98.5239L73.9986 98.5473L73.9921 98.5616Z" fill="#040606"/>
<path d="M60.7012 56.3087C61.1883 56.0593 61.6104 55.8749 62.0766 55.7203C62.5325 55.5619 62.9949 55.4424 63.4612 55.3385C64.3963 55.1372 65.3496 55.0475 66.3134 55.0398C68.2356 55.0268 70.2085 55.4008 72.071 56.197C73.9257 57.0009 75.6869 58.2465 76.9532 59.9051C78.2274 61.5481 78.9781 63.5509 78.969 65.5212C78.9664 66.042 78.5404 66.4654 78.0169 66.4615C77.7728 66.4615 77.5494 66.3654 77.3818 66.2108L77.3338 66.1667C76.0272 64.9575 74.9232 63.9743 73.7049 63.2327C72.523 62.4677 71.2826 61.8975 69.9591 61.3974C68.6291 60.913 67.2225 60.487 65.7276 60.0869L63.43 59.4726L62.2351 59.1375C61.8415 59.0271 61.4051 58.8985 61.0389 58.757L60.822 58.6738C60.1544 58.4141 59.8219 57.6621 60.0817 56.9958C60.2012 56.6867 60.4271 56.449 60.7012 56.3087Z" fill="#040606"/>
<path d="M26.3553 63.769C26.6739 62.9702 27.0758 62.3416 27.5501 61.7169C28.0235 61.1038 28.5664 60.5505 29.161 60.0466C30.3481 59.0413 31.7712 58.2529 33.3516 57.7945C34.9259 57.3399 36.6789 57.2191 38.3278 57.6178C39.9726 58.0023 41.4724 58.8881 42.4569 60.1518C42.7349 60.509 42.6712 61.022 42.3154 61.2999C42.1595 61.4233 41.9725 61.4792 41.7893 61.4727L41.7296 61.4714C40.2871 61.4272 39.11 61.4077 37.9929 61.5896C36.8853 61.735 35.8494 62.0234 34.7875 62.3832C33.7337 62.7624 32.654 63.204 31.5242 63.704L29.7814 64.4691C29.1853 64.7171 28.5486 65.0068 27.9129 65.2055L27.7369 65.2613C27.1442 65.4458 26.5126 65.1172 26.3264 64.5236C26.2462 64.2664 26.263 64.0015 26.3553 63.769Z" fill="#040606"/>
<path d="M22.0544 85.0319C22.0544 85.0319 47.0637 84.4371 48.8184 64.8406C48.8184 64.8406 49.1184 68.6448 49.8172 72.3802C50.4016 75.5038 51.264 78.5768 52.4615 79.3366C55.0903 81.0056 63.078 86.2476 63.078 86.2476L43.8712 92.0208C43.8712 92.0208 22.7276 89.8505 22.0544 85.0319Z" fill="#F7BF7F"/>
<path d="M22.0251 83.8265C22.7125 83.8135 23.4812 83.7577 24.2133 83.6876C24.9525 83.6122 25.6932 83.5252 26.4304 83.4109C27.9053 83.1888 29.3715 82.8901 30.8124 82.5069C33.6906 81.738 36.4836 80.6431 39.0102 79.1093C41.514 77.5611 43.757 75.5622 45.3338 73.0815C46.9612 70.6319 47.8418 67.7356 48.186 64.7834L48.1873 64.7704C48.2289 64.421 48.5432 64.1716 48.8912 64.2119C49.2328 64.2535 49.4796 64.5574 49.451 64.8976C49.1874 68.0226 48.3418 71.1813 46.6534 73.9062C45.0182 76.661 42.6375 78.917 39.9954 80.6639C37.3308 82.3952 34.3994 83.6486 31.3898 84.5526C29.8829 85.0032 28.3517 85.3656 26.8059 85.6474C25.2483 85.928 23.7263 86.1449 22.0825 86.2371C21.4179 86.2748 20.8481 85.7656 20.8116 85.0994C20.7745 84.4357 21.2833 83.8655 21.9481 83.8291L21.987 83.8278L22.0251 83.8265Z" fill="#231F20"/>
<path d="M14.3959 90.9323C14.3959 90.9323 28.595 103.774 42.9619 105.402C57.3294 107.032 69.368 104.571 72.9125 98.0225C57.5346 108.262 30.7208 100.468 22.0543 90.957C23.273 87.2528 23.1258 87.0073 23.0208 86.2553C22.5033 85.7838 15.7404 89.5218 15.7404 89.5218L14.3959 90.9323Z" fill="#D69861"/>
<path d="M5.43628 84.4266C5.43875 82.1953 6.65483 79.6444 13.4077 79.5509C13.4077 79.5509 23.0666 79.3626 23.3482 84.1461C23.6282 88.9283 16.6892 93.0533 14.392 92.9598C12.0952 92.8663 5.42966 89.5374 5.43628 84.4266Z" fill="#040606"/>
<path d="M13.1566 81.9913C13.2885 82.6187 11.9938 83.4213 10.2662 83.785C8.53723 84.1461 7.03035 83.9292 6.89839 83.3018C6.76657 82.6719 8.06174 81.8692 9.78929 81.5082C11.5179 81.1458 13.0246 81.3614 13.1566 81.9913Z" fill="white"/>
<path d="M73.9918 98.5616C73.2944 99.9227 72.2956 101.107 71.1591 102.057C70.0188 103.01 68.7511 103.748 67.4484 104.336C64.8326 105.512 62.0817 106.135 59.3399 106.513C56.5943 106.895 53.8382 107.003 51.0951 106.962C49.7222 106.94 48.352 106.874 46.9857 106.762C45.6141 106.644 44.2581 106.506 42.8697 106.253C42.6957 106.221 42.5112 106.183 42.3411 106.144L41.8437 106.017L40.8464 105.761C40.1844 105.584 39.5146 105.435 38.8602 105.234L36.8993 104.618C36.5746 104.511 36.2433 104.418 35.9226 104.301L34.9597 103.944C34.3194 103.704 33.6736 103.475 33.0368 103.223L31.1495 102.419C30.5153 102.163 29.903 101.858 29.2865 101.562C28.6737 101.259 28.0461 100.988 27.4484 100.654C25.0131 99.4136 22.6809 97.9797 20.4293 96.438C18.1817 94.8795 16.0321 93.217 14.0392 91.2883C13.919 91.1714 13.8708 91.0064 13.8987 90.8531V90.8466L14.8906 85.4111L15.7657 85.5605L14.8931 91.0168L14.752 90.5752C16.6866 92.3689 18.8631 93.9859 21.0914 95.4574C23.3329 96.9238 25.6489 98.2785 28.0613 99.4409C28.6509 99.7552 29.2723 100.007 29.8786 100.29C30.4875 100.567 31.0912 100.851 31.7177 101.089L33.5787 101.835C34.2053 102.067 34.8394 102.276 35.4696 102.498L36.4158 102.826C36.7319 102.933 37.0551 103.017 37.3747 103.113L39.2966 103.672C39.9383 103.854 40.5938 103.983 41.241 104.141L42.2151 104.37L42.7022 104.484C42.8606 104.517 43.0087 104.544 43.1671 104.571C44.4465 104.775 45.7868 104.885 47.1116 104.969C48.4416 105.049 49.7755 105.084 51.1081 105.078C53.7693 105.058 56.4332 104.896 59.0386 104.474C61.6388 104.062 64.2053 103.407 66.5055 102.309C68.7979 101.225 70.811 99.6201 71.8345 97.4823L73.9918 98.5616Z" fill="#040606"/>
<path d="M26.8676 86.5047C24.298 87.4554 27.7799 87.7412 29.5581 87.4697C31.3365 87.1957 51.3109 83.6213 50.1458 73.9855C49.2782 66.7953 48.1002 74.7206 45.4039 77.8221C39.1344 85.0318 26.8676 86.5047 26.8676 86.5047Z" fill="#FCD4AE"/>
<path d="M26.9793 184.425C28.5318 182.282 32.0569 180.962 33.1172 181.622C34.1786 182.282 30.0158 184.26 28.9022 185.579C27.79 186.898 27.2532 189.699 25.688 189.412C24.1219 189.122 25.4269 186.568 26.9793 184.425Z" fill="#FCD4AE"/>
<path d="M90.0621 183.561C91.5194 182.043 94.8301 181.109 95.825 181.576C96.8212 182.043 92.913 183.444 91.8675 184.378C90.8233 185.312 90.3193 187.296 88.8491 187.092C87.3775 186.887 88.6049 185.078 90.0621 183.561Z" fill="#FCD4AE"/>
<path d="M43.8336 132.798C43.8336 132.798 47.013 131.463 48.8613 132.131C49.0652 135.467 49.4184 140.598 49.4184 140.598C49.4184 140.598 45.7831 141.622 42.8075 140.598C43.2166 137.417 43.8336 132.798 43.8336 132.798Z" fill="#C1C0B8"/>
<path d="M43.914 139.861C45.5843 140.218 47.3636 139.992 48.3572 139.805C48.2585 138.357 48.0572 135.357 47.9065 132.958C46.961 132.888 45.6804 133.2 44.7504 133.524C44.5907 134.72 44.2205 137.51 43.914 139.861ZM45.8505 142.057C44.7725 142.057 43.5906 141.93 42.4788 141.546L41.7047 141.279L41.8099 140.468C42.2216 137.286 42.836 132.666 42.836 132.666L42.9126 132.096L43.4438 131.872C43.8062 131.72 47.0506 130.407 49.2027 131.186L49.8223 131.411L49.8638 132.068C50.0664 135.363 50.4171 140.477 50.421 140.527L50.4756 141.342L49.6911 141.564C49.5859 141.592 47.9065 142.057 45.8505 142.057Z" fill="#353436"/>
<path d="M61.8909 132.131C61.8909 132.131 65.8834 130.65 67.4277 131.929C67.5342 133.927 68.2628 139.775 68.2628 139.775C68.2628 139.775 64.1495 141.316 60.9674 139.16L61.8909 132.131Z" fill="#C1C0B8"/>
<path d="M62.0494 138.636C63.9054 139.599 66.051 139.305 67.1615 139.045C66.9745 137.513 66.5965 134.302 66.4614 132.529C65.6276 132.242 64.0223 132.511 62.8053 132.883L62.0494 138.636ZM65.0184 141.316C63.5833 141.316 61.9156 141.014 60.4051 139.992L59.8907 139.643L60.974 131.401L61.5428 131.189C62.3 130.908 66.1744 129.585 68.0694 131.155L68.407 131.437L68.4304 131.876C68.5343 133.815 69.2513 139.594 69.2591 139.652L69.3565 140.439L68.6135 140.717C68.5057 140.757 66.9771 141.316 65.0184 141.316Z" fill="#353436"/>
<path d="M33.4884 167.501C33.4884 167.501 32.4813 173.35 32.7898 174.067C33.7131 174.119 39.5106 174.632 40.4847 174.99C36.1241 173.708 33.8983 173.068 33.8983 173.068L33.4884 167.501Z" fill="#34394A"/>
<path d="M75.2 177.863C75.2 177.863 83.5565 176.172 86.3126 173.068C84.6215 175.914 76.7053 179.967 76.7053 179.967L76.4027 182.48L75.2 177.863Z" fill="#0D1119"/>
<path d="M87.684 56.9957C89.0685 57.8685 91.0959 55.3267 91.0959 55.3267C91.0959 55.3267 91.4025 57.2009 90.9661 60.0544C91.4804 59.457 94.2494 60.596 94.2494 60.596C94.2494 60.596 92.2493 60.6519 92.1973 61.0285C92.1467 61.4065 94.5586 61.8818 94.6612 62.7222C93.4805 62.2286 93.3857 63.3053 93.3857 63.3053C93.3857 63.3053 94.0962 63.3054 94.6612 64.3314C93.5325 63.921 95.1482 65.8432 95.1482 65.8432C95.1482 65.8432 95.1846 66.3303 94.4352 65.8432C95.1222 66.8459 95.7898 67.7174 96.9692 67.872C96.0964 68.2304 95.7262 68.1278 95.7262 68.1278C95.7262 68.1278 97.79 68.7435 98.1485 69.3072C96.8146 68.898 96.9172 70.0267 96.9172 70.0267C96.9172 70.0267 98.4576 69.8565 98.4576 70.8125C97.5848 70.4358 97.6367 71.5736 97.6367 71.5736L98.6628 72.2905L98.2511 73.2581L95.3262 73.727L87.684 56.9957Z" fill="#4C2A20"/>
<path d="M83.2551 89.7076C83.2551 91.8402 80.5743 93.5689 77.2689 93.5689C73.9634 93.5689 71.2839 91.8402 71.2839 89.7076C71.2839 87.5762 73.9634 85.8475 77.2689 85.8475C80.5743 85.8475 83.2551 87.5762 83.2551 89.7076Z" fill="#F8A185"/>
<path d="M24.8576 144.256C24.0672 145.381 22.9408 148.018 22.9408 148.018C22.9408 148.018 23.8236 148.122 24.4161 146.649C25.5714 143.776 26.3086 138.703 29.4527 139.435C33.3846 140.351 30.9966 146.11 29.4516 149.557C27.9067 153.005 31.0457 156.494 34.8372 158.545C38.6271 160.597 36.0761 163.322 36.0761 163.322C36.0761 163.322 38.0294 164.202 37.1583 166.283C35.7149 169.73 32.9888 168.257 32.9888 168.257C32.9888 168.257 30.0199 173.143 22.6861 167.882C14.7791 162.206 16.1753 154.87 17.4539 151.918C18.707 149.026 19.0063 148.548 19.0063 148.548C19.0063 148.548 21.358 144.91 24.5608 144.329" fill="#F7BF7F"/>
<path d="M22.7317 162.983C22.7317 162.983 23.4977 165.18 26.7296 166.76C29.9598 168.34 32.9887 168.257 32.9887 168.257" fill="#F7BF7F"/>
<path d="M26.3909 159.507C26.3909 159.507 28.5688 161.497 30.7657 162.614C32.9625 163.729 36.0761 163.322 36.0761 163.322" fill="#F7BF7F"/>
<path d="M24.2447 144.533L24.3883 144.701C24.4618 144.785 24.5973 144.873 24.7434 144.895C24.9058 144.92 25.0133 144.882 24.9667 144.893L24.9515 144.895L24.9209 144.902L24.856 144.917L24.719 144.953L24.4426 145.036C24.2574 145.097 24.0722 145.162 23.8896 145.238C23.5232 145.388 23.163 145.559 22.8165 145.755C22.1214 146.149 21.4771 146.628 20.8784 147.166C20.266 147.687 19.6836 148.277 19.2615 148.98C18.8312 149.675 18.4736 150.417 18.1884 151.188C17.6303 152.739 17.2712 154.395 17.2154 156.027C17.1509 157.665 17.4107 159.298 17.9728 160.817C19.1205 163.861 21.4873 166.339 24.1726 168.227C25.5232 169.135 27.0046 169.899 28.6018 170.027C30.1822 170.177 31.8462 169.536 32.9888 168.257H32.9903C33.727 168.245 34.2841 168.043 34.7357 167.731C35.1871 167.423 35.5839 166.996 35.9212 166.482C36.0877 166.228 36.2424 165.944 36.3819 165.672C36.5174 165.41 36.6179 165.146 36.6645 164.889C36.7143 164.631 36.6965 164.38 36.5951 164.126C36.4921 163.876 36.2881 163.626 36.0395 163.428L35.9821 163.383L35.9685 163.266L35.9938 163.245C35.9127 162.914 35.9238 162.701 35.9695 162.516C36.0242 162.337 36.104 162.18 36.1511 162.012C36.2587 161.684 36.3058 161.367 36.2957 161.054C36.2765 160.44 35.8517 159.752 35.1527 159.403C34.9741 159.321 34.7914 159.254 34.6173 159.167C34.449 159.074 34.2384 158.958 34.0533 158.849C33.6727 158.623 33.31 158.368 32.9558 158.103C32.2481 157.572 31.5835 156.983 30.9508 156.359C30.3293 155.721 29.7494 155.025 29.2953 154.227C28.8453 153.432 28.5283 152.513 28.5155 151.552C28.5089 151.074 28.5826 150.596 28.717 150.141C28.7844 149.917 28.8605 149.692 28.9554 149.478C29.0468 149.259 29.132 149.08 29.2208 148.881C29.5719 148.103 29.9194 147.332 30.2365 146.555C30.551 145.777 30.8392 144.993 31.0421 144.199C31.246 143.412 31.3719 142.6 31.2689 141.863C31.1776 141.12 30.7844 140.535 30.1375 140.211C29.822 140.048 29.445 139.924 29.0939 139.881C28.7398 139.838 28.4049 139.881 28.103 140.014C27.4882 140.272 27.0249 140.935 26.6724 141.642C26.3172 142.363 26.0534 143.156 25.8048 143.96C25.5562 144.767 25.3305 145.592 25.0351 146.421C24.8865 146.825 24.719 147.289 24.4009 147.699C24.2462 147.903 24.0559 148.101 23.8109 148.255C23.6892 148.333 23.5547 148.4 23.4091 148.448L23.1782 148.503C23.0853 148.514 23.0372 148.527 22.8825 148.514C22.6136 148.494 22.4122 148.258 22.4324 147.988L22.511 147.758L22.5263 147.736C22.9027 147.167 23.267 146.567 23.5902 145.964C23.7515 145.662 23.9072 145.356 24.0392 145.05C24.1092 144.897 24.1685 144.742 24.2244 144.59L24.2447 144.533ZM25.1214 143.673L25.2254 143.907C25.3025 144.08 25.3497 144.395 25.2812 144.623L25.2493 144.729L25.2254 144.798L25.1772 144.934C25.1112 145.112 25.0428 145.288 24.9667 145.456C24.8169 145.798 24.6505 146.123 24.4796 146.442C24.1321 147.083 23.7616 147.69 23.3558 148.298L22.9991 147.519L23.022 147.512L23.1021 147.494L23.2756 147.411C23.3924 147.337 23.5055 147.225 23.6069 147.092C23.8159 146.827 23.9519 146.477 24.095 146.084C24.373 145.308 24.5988 144.488 24.8535 143.667C25.1097 142.843 25.3837 142.012 25.7835 141.202C25.9849 140.796 26.2208 140.396 26.5277 140.026C26.8296 139.656 27.2218 139.314 27.7038 139.107C28.1817 138.894 28.7236 138.835 29.2142 138.899C29.7088 138.965 30.1553 139.11 30.5957 139.335C31.032 139.561 31.4414 139.899 31.7296 140.327C32.0239 140.753 32.177 141.248 32.2446 141.722C32.3713 142.682 32.2116 143.59 31.9934 144.445C31.7711 145.303 31.4683 146.123 31.1436 146.924C30.8164 147.724 30.4622 148.509 30.1111 149.283C30.0275 149.474 29.9259 149.679 29.8585 149.857C29.7849 150.032 29.7266 150.215 29.6824 150.4C29.5947 150.769 29.5693 151.145 29.5895 151.519C29.6597 153.026 30.5474 154.474 31.6992 155.608C32.2786 156.182 32.9406 156.677 33.6408 157.107C33.9883 157.324 34.345 157.528 34.7036 157.726C34.8853 157.835 35.0527 157.913 35.2516 158.038C35.452 158.155 35.627 158.319 35.8036 158.474C35.972 158.645 36.1485 158.798 36.3297 158.956C36.5048 159.121 36.6736 159.298 36.8309 159.494C36.9892 159.686 37.1278 159.906 37.248 160.14C37.3611 160.376 37.4499 160.633 37.4966 160.899C37.5945 161.434 37.5032 161.984 37.3104 162.45C37.2064 162.683 37.0957 162.907 36.9309 163.094C36.7574 163.274 36.5224 163.411 36.1572 163.398L36.1115 163.215C36.4936 163.267 36.8513 163.449 37.1329 163.758C37.418 164.065 37.5718 164.507 37.588 164.924C37.6057 165.346 37.5093 165.745 37.3738 166.102C37.2343 166.449 37.0831 166.773 36.8843 167.092C36.4971 167.715 35.9593 168.345 35.1856 168.644C34.4272 168.945 33.5002 168.813 32.9903 168.257H32.9888C32.5794 169.01 31.9335 169.648 31.1675 170.101C30.3988 170.559 29.4921 170.798 28.585 170.822C27.6759 170.842 26.7677 170.678 25.9265 170.373C25.0782 170.079 24.2817 169.673 23.5359 169.201C22.781 168.739 22.0875 168.205 21.4178 167.64C20.7466 167.076 20.1138 166.458 19.534 165.791C18.3646 164.468 17.4285 162.91 16.8465 161.223C16.2605 159.536 16.0475 157.73 16.1768 155.973C16.3046 154.207 16.7222 152.509 17.3295 150.866C17.9459 149.213 18.9227 147.722 20.0783 146.349C20.6932 145.694 21.4126 145.134 22.1863 144.671C22.5756 144.44 22.9788 144.232 23.3999 144.056C23.6095 143.968 23.8236 143.887 24.0418 143.813L24.3756 143.711L24.5481 143.664L24.6369 143.643L24.6851 143.633L24.7089 143.628C24.6683 143.638 24.7839 143.598 24.9524 143.621L25.1214 143.673Z" fill="#231F20"/>
<path d="M23.3607 162.763C23.4597 162.876 23.6043 163.084 23.7439 163.241C23.8808 163.412 24.034 163.575 24.1852 163.736C24.4921 164.058 24.8255 164.361 25.1756 164.642C25.8731 165.217 26.6495 165.704 27.483 166.154C27.9001 166.38 28.3313 166.583 28.7675 166.789C29.2106 166.978 29.658 167.167 30.1171 167.34C31.037 167.683 31.9868 167.986 32.9887 168.248L32.9953 168.258L32.9887 168.266C31.9741 168.526 30.9137 168.545 29.8675 168.452C28.8173 168.356 27.7732 168.114 26.7711 167.731C25.7733 167.347 24.7824 166.818 23.9579 166.062C23.5419 165.692 23.1603 165.275 22.8408 164.806C22.6835 164.57 22.5374 164.326 22.4121 164.066C22.2852 163.796 22.1862 163.559 22.101 163.203C22.0163 162.851 22.2345 162.496 22.587 162.411C22.8332 162.353 23.0802 162.44 23.235 162.619L23.3607 162.763Z" fill="#231F20"/>
<path d="M26.8944 158.958C27.549 159.503 28.244 160.062 28.929 160.597C29.6215 161.128 30.3252 161.645 31.0572 162.084C31.7446 162.497 32.5665 162.768 33.42 162.962C34.2763 163.141 35.1652 163.268 36.0759 163.322C35.1957 163.568 34.2749 163.69 33.3402 163.688C32.872 163.689 32.4017 163.641 31.9273 163.57C31.454 163.484 30.9821 163.35 30.5153 163.162C29.6428 162.783 28.83 162.319 28.0624 161.797C27.2901 161.276 26.5758 160.711 25.8874 160.059C25.588 159.776 25.5739 159.303 25.8579 159.004C26.1294 158.716 26.5758 158.693 26.8767 158.943L26.8944 158.958Z" fill="#231F20"/>
</svg>
