<svg width="212" height="61" viewBox="0 0 212 61" fill="none" xmlns="http://www.w3.org/2000/svg">
<path d="M30.0003 0.941406C25.9533 0.941406 22.0235 1.7348 18.32 3.30193C14.7469 4.81301 11.5391 6.97554 8.78625 9.72765C6.03414 12.4805 3.8716 15.6875 2.36052 19.2614C0.794122 22.9642 0 26.8948 0 30.9411C0 34.9879 0.794122 38.917 2.36052 42.6204C3.8716 46.1945 6.03414 49.4014 8.78625 52.1543C11.5391 54.9071 14.7469 57.0689 18.32 58.5801C22.0235 60.1464 25.9533 60.9414 30.0003 60.9414C34.0466 60.9414 37.9764 60.1464 41.6792 58.5801C45.2531 57.0689 48.4601 54.9071 51.2129 52.1543C53.9651 49.4014 56.1276 46.1945 57.6387 42.6204C59.2058 38.917 59.9992 34.9879 59.9992 30.9411C59.9992 26.8948 59.2058 22.9642 57.6387 19.2614C56.1276 15.6875 53.9651 12.4805 51.2129 9.72765C48.4601 6.97554 45.2531 4.81301 41.6792 3.30193C37.9764 1.7348 34.0466 0.941406 30.0003 0.941406ZM30.0003 8.55285C42.3648 8.55285 52.3878 18.5756 52.3878 30.9411C52.3878 43.3062 42.3648 53.33 30.0003 53.33C17.6344 53.33 7.61145 43.3062 7.61145 30.9411C7.61145 18.5756 17.6344 8.55285 30.0003 8.55285Z" fill="#53ADB4"/>
<mask id="mask0_47_31" style="mask-type:luminance" maskUnits="userSpaceOnUse" x="5" y="2" width="48" height="52">
<path d="M52.3877 30.9412C52.3877 32.838 52.1526 34.6795 51.7086 36.4387C51.087 38.899 50.616 47.5011 48.281 48.3017C46.6316 48.8667 47.9673 44.316 47.5691 44.8196C43.4683 50.0034 37.1226 53.3301 30.0003 53.3301C17.6343 53.3301 7.61141 43.3064 7.61141 30.9412C6.79909 28.1926 -4.78294 3.61649 29.4129 2.34415C49.6938 3.26347 53.9337 25.835 52.3877 30.9412Z" fill="white"/>
</mask>
<g mask="url(#mask0_47_31)">
<path d="M15.8371 33.1538C15.8371 33.1538 13.3944 30.5553 10.9334 33.8853C9.89109 30.6514 11.6038 28.7603 11.6038 28.7603C11.6038 28.7603 9.9384 28.863 9.29423 30.6352C8.33343 26.1684 10.2383 24.2051 10.2383 24.2051C10.2383 24.2051 9.31971 22.8688 7.46798 25.2046C8.2883 21.2908 10.9785 18.8574 10.9785 18.8574C10.9785 18.8574 8.8706 17.9024 6.81506 19.988C7.92217 15.0921 12.2574 14.0716 12.2574 14.0716C12.2574 14.0716 11.8717 12.4689 10.7143 11.658C12.6097 11.1201 14.2933 12.1684 14.2933 12.1684C14.2933 12.1684 13.7685 9.26339 12.7837 8.5631C14.8225 8.40733 16.2302 10.3464 16.2302 10.3464C16.2302 10.3464 15.7665 9.05727 17.06 6.34162C17.4509 8.77201 18.5485 9.71373 18.5485 9.71373C18.5485 9.71373 18.9823 6.86278 22.0321 5.38737C20.7132 8.79021 22.1719 9.35497 22.1719 9.35497C22.1719 9.35497 21.6798 7.00544 27.3056 4.18854C25.4473 7.02946 26.9686 7.87671 26.9686 7.87671C26.9686 7.87671 30.6939 3.43664 35.3946 5.53439C32.8848 6.23898 32.9343 7.53097 32.9343 7.53097C32.9343 7.53097 37.4799 6.25645 40.1141 8.78292C37.6423 9.12437 36.5308 10.5261 36.5308 10.5261C36.5308 10.5261 42.3597 9.29237 46.0486 15.3767C44.4079 14.7922 43.2317 15.4975 43.2317 15.4975C43.2317 15.4975 48.4498 17.9243 50.2295 23.8099C47.6521 22.071 46.3244 22.8986 46.3244 22.8986C46.3244 22.8986 51.4174 24.7607 51.076 32.0344C50.1014 29.9105 48.2722 29.8129 48.2722 29.8129C48.2722 29.8129 51.643 32.3241 50.7463 36.9658C49.6159 34.1359 48.5561 34.1635 48.5561 34.1635C48.5561 34.1635 52.0943 40.37 48.2329 45.6691C48.2984 40.6182 46.7117 40.4079 46.7117 40.4079C46.7117 40.4079 48.3945 49.8689 43.0242 57.3101C43.22 54.9859 42.2104 53.6399 42.2104 53.6399C42.2104 53.6399 42.6166 58.1412 38.9073 60.6523C39.7771 58.0299 38.7734 57.5116 38.7734 57.5116C38.7734 57.5116 27.8246 34.5834 15.8371 33.1538Z" fill="#4C2A20"/>
<path d="M39.1009 57.2366C39.3615 57.4512 39.8477 58.0634 39.6134 59.5439C42.0656 57.1507 41.7999 53.7152 41.797 53.6765L41.6711 52.2287L42.5423 53.3904C42.5787 53.4385 43.252 54.3563 43.4245 55.9613C47.7401 48.9396 46.3186 40.569 46.3026 40.4808L46.2029 39.9209L46.7662 39.9969C47.0588 40.0353 48.4018 40.4254 48.6209 44.2564C51.0673 39.5206 48.2264 34.4249 48.1951 34.3689L47.8515 33.7661L48.5444 33.7487C48.733 33.7436 49.5496 33.823 50.4842 35.4496C50.5039 32.0542 48.1376 30.2307 48.0233 30.1457L46.9329 29.3261L48.2941 29.3983C48.361 29.4017 49.6072 29.4847 50.6568 30.6391C50.3409 24.8786 46.2269 23.3042 46.1817 23.2883L45.3825 22.9958L46.1053 22.5459C46.1606 22.511 47.3267 21.8149 49.4623 22.8786C47.5014 18.0004 43.1035 15.8958 43.0562 15.8733L42.3487 15.5429L43.0184 15.1412C43.0621 15.115 43.894 14.6294 45.1343 14.7474C41.639 9.93743 36.6698 10.9209 36.6167 10.9317L35.4906 11.1697L36.2054 10.2681C36.2491 10.2135 37.172 9.07358 39.1555 8.55162C36.6778 6.943 33.0864 7.92054 33.0464 7.93146L32.5398 8.0734L32.5194 7.54787C32.518 7.49182 32.4976 6.37162 34.1681 5.5513C30.303 4.61815 27.3187 8.1047 27.286 8.144L27.0654 8.40604L26.7663 8.23935C26.7102 8.20805 26.2131 7.91327 26.0311 7.17519C25.8921 6.60963 25.9765 5.9509 26.2829 5.20992C22.3422 7.50056 22.5737 9.25191 22.5773 9.27011L22.7345 10.0184L22.0219 9.74236C21.9652 9.72074 21.4717 9.51089 21.2154 8.78526C20.9913 8.14837 21.0167 7.31567 21.2911 6.30319C19.3098 7.70364 18.9736 9.68267 18.959 9.77816L18.8418 10.5126L18.2777 10.0292C18.2377 9.99516 17.461 9.31218 16.9508 7.69271C16.3692 9.3798 16.6196 10.2024 16.6232 10.2126L17.4305 12.7042L15.8939 10.5905C15.8837 10.5775 15.0095 9.40258 13.7103 9.06194C14.3413 10.1864 14.6587 11.8555 14.7024 12.0949L14.8683 13.0159L14.0742 12.5208C14.0618 12.5134 12.9649 11.8504 11.6154 11.9269C12.3753 12.819 12.6468 13.9174 12.6607 13.9743L12.7582 14.3806L12.352 14.475C12.2021 14.5114 8.98851 15.3217 7.60189 18.8343C9.44052 17.7322 11.0688 18.4428 11.1496 18.4792L11.7261 18.7405L11.2573 19.1656C11.2347 19.1852 9.32042 20.9503 8.29119 23.8212C8.709 23.5351 9.1137 23.3967 9.50239 23.4106C10.1931 23.4339 10.5433 23.9159 10.5811 23.9705L10.7733 24.2505L10.536 24.4945C10.5221 24.5098 9.11297 26.0469 9.51331 29.4301C10.362 28.4352 11.5164 28.35 11.5783 28.3463L12.5966 28.2831L11.9117 29.0391C11.8556 29.1025 10.6277 30.5214 11.1307 33.0032C11.8571 32.2398 12.6497 31.8284 13.4934 31.7789C14.746 31.7047 15.7068 32.4661 16.0257 32.7596C21.0786 33.4283 26.4984 37.7572 32.138 45.6269C36.0482 51.0831 38.7202 56.4555 39.1009 57.2366ZM38.1285 61.6812L38.5135 60.5217C39.1875 58.4902 38.6482 57.942 38.5725 57.8766L38.4284 57.822L38.3993 57.6909C38.3723 57.6341 35.6238 51.9151 31.4567 46.1014C27.6419 40.7808 21.8276 34.2867 15.7876 33.566L15.6377 33.5478L15.5351 33.4386C15.5103 33.4138 14.6529 32.5367 13.5348 32.6081C12.7415 32.6575 11.9786 33.1707 11.2675 34.1323L10.7864 34.7828L10.5382 34.0129C9.88744 31.9936 10.2412 30.4608 10.6568 29.527C10.2943 29.7585 9.9151 30.1435 9.68436 30.7775L9.19231 32.1326L8.88878 30.7229C8.11359 27.1199 9.13044 25.0563 9.65888 24.2761C9.60284 24.2556 9.53587 24.2403 9.4609 24.2397C9.19741 24.2374 8.64349 24.3904 7.79405 25.4626L6.70151 26.841L7.0618 25.1188C7.68632 22.1419 9.33425 20.0134 10.1822 19.0783C9.48492 18.9864 8.2992 19.0737 7.11057 20.2793L6.08936 21.3157L6.41035 19.8972C7.3646 15.6746 10.5629 14.2006 11.7341 13.7966C11.5572 13.3155 11.1685 12.483 10.477 11.9988L9.76152 11.4981L10.6015 11.2587C11.8382 10.9078 12.9802 11.1662 13.7074 11.4375C13.4497 10.4282 13.0202 9.24165 12.5427 8.90187L11.6074 8.23718L12.7516 8.14983C14.0371 8.05011 15.0801 8.67754 15.7483 9.24733C15.8102 8.5356 16.0417 7.51438 16.6851 6.16271L17.2587 4.95953L17.4698 6.27553C17.667 7.50492 18.0557 8.32743 18.3665 8.81875C18.7348 7.79826 19.6556 6.0761 21.8509 5.01339L22.8 4.55409L22.4194 5.53746C21.8865 6.91097 21.8378 7.75386 21.9346 8.25974C22.3437 7.2145 23.5738 5.59278 27.12 3.81748L28.495 3.12891L27.6528 4.41579C26.7983 5.72161 26.7342 6.51428 26.831 6.94955C26.8616 7.08639 26.9097 7.19558 26.9613 7.28001C27.9862 6.25516 31.4276 3.31087 35.5634 5.15605L36.613 5.62336L35.5066 5.93416C34.4432 6.23259 33.9039 6.63292 33.6302 6.95756C35.1107 6.70207 38.2893 6.45824 40.4016 8.48393L41.0203 9.077L40.1702 9.19448C39.1402 9.33693 38.3621 9.6775 37.8199 10.0074C38.4138 10.0096 39.165 10.0685 40.002 10.2658C41.8297 10.6965 44.4232 11.8947 46.4038 15.1614L47.0093 16.1594L45.9095 15.7678C45.2559 15.5341 44.6903 15.5299 44.266 15.5939C45.8637 16.5676 49.2374 19.0937 50.6262 23.6901L50.9639 24.8066L49.9966 24.1538C48.995 23.4783 48.2074 23.2212 47.639 23.1464C48.0866 23.4507 48.6158 23.8795 49.1377 24.4623C50.3117 25.7748 51.6736 28.1563 51.4902 32.0547L51.4101 33.7596L50.6982 32.2085C50.5272 31.8349 50.3277 31.5321 50.1188 31.2862C50.929 32.5595 51.6474 34.4926 51.1546 37.0444L50.886 38.4334L50.3612 37.1204C50.1269 36.5329 49.899 36.0814 49.6887 35.7337C49.8968 36.3282 50.1043 37.0481 50.2506 37.8548C50.798 40.8658 50.2157 43.6522 48.5685 45.9137L47.802 46.9669L47.818 45.6641C47.8464 43.5015 47.5705 42.2968 47.2779 41.6295C47.3682 42.6551 47.4388 44.2242 47.2954 46.1009C47.0632 49.1599 46.1919 53.6307 43.3605 57.5533L42.4848 58.7665L42.6108 57.2752C42.6668 56.6056 42.6159 56.0219 42.5183 55.5371C42.2556 57.1493 41.4593 59.4262 39.1395 60.9954L38.1285 61.6812Z" fill="#040606"/>
<path d="M13.3601 28.5593C13.3601 28.5593 10.4027 28.9284 10.5265 24.3595C10.6495 19.7906 14.6412 20.1611 15.6289 21.7255C16.6174 23.2896 13.3601 28.5593 13.3601 28.5593Z" fill="#F7BF7F"/>
<path d="M13.4235 21.0769C13.2175 21.0769 13.0072 21.103 12.8012 21.159C11.6489 21.4763 10.988 22.6162 10.9407 24.3705C10.8992 25.9019 11.2246 27.0301 11.8804 27.6343C12.3383 28.0557 12.8529 28.1387 13.1236 28.1504C14.3938 26.0452 15.8459 22.8462 15.2782 21.9472C14.9746 21.467 14.2257 21.0769 13.4235 21.0769ZM13.2088 28.9814C12.8405 28.9814 12.0384 28.8985 11.3338 28.2587C10.4727 27.4785 10.0622 26.1624 10.1109 24.3486C10.1925 21.3381 11.8651 20.5556 12.5806 20.3583C13.8595 20.0075 15.3531 20.5096 15.9806 21.5039C17.0527 23.2013 14.2802 27.8607 13.7139 28.7776L13.6091 28.9465L13.4119 28.9713C13.4002 28.9726 13.3267 28.9814 13.2088 28.9814Z" fill="#040606"/>
<path d="M13.6847 26.1635C13.6847 26.1635 15.3807 23.0146 13.0784 23.372C10.2521 23.811 12.4605 27.7896 12.4605 27.7896C12.4605 27.7896 12.6031 25.9773 13.6847 26.1635Z" fill="#C6424F"/>
<path d="M12.2603 27.7091C11.9546 27.0195 11.7064 26.313 11.563 25.5581C11.496 25.1811 11.4538 24.7901 11.5055 24.379C11.5324 24.1743 11.5863 23.9611 11.6954 23.7575C11.8017 23.5536 11.9771 23.3671 12.186 23.248C12.3957 23.1263 12.6242 23.0708 12.8411 23.0497C13.0624 23.0316 13.2618 23.0367 13.478 23.0679C13.692 23.1001 13.9206 23.1641 14.1368 23.3003C14.3529 23.4341 14.54 23.6591 14.6317 23.9028C14.7285 24.1462 14.7474 24.3893 14.7409 24.6127C14.7322 24.8376 14.6936 25.0486 14.6426 25.2502C14.591 25.4512 14.5254 25.6449 14.4505 25.8325C14.374 26.0233 14.2969 26.195 14.1899 26.3909C14.0618 26.6266 13.7677 26.7125 13.5333 26.5846C13.2982 26.4563 13.2116 26.1623 13.3397 25.9277L13.3608 25.8928L13.3645 25.8871C13.4453 25.7657 13.5348 25.6061 13.6076 25.4592C13.6833 25.309 13.7481 25.1555 13.8019 25.0028C13.9082 24.7006 13.9577 24.3833 13.8944 24.1709C13.8638 24.0646 13.8107 23.9844 13.7197 23.9124C13.6294 23.8416 13.4999 23.7851 13.3514 23.7515C13.2036 23.716 13.0318 23.6978 12.8833 23.6992C12.7327 23.702 12.5929 23.7276 12.4757 23.7836C12.2435 23.8877 12.09 24.143 12.0252 24.4654C11.9589 24.785 11.9655 25.1418 12.0033 25.4941C12.082 26.2024 12.2734 26.9187 12.518 27.5999L12.5201 27.605C12.5456 27.6778 12.5078 27.7577 12.4357 27.7838C12.3666 27.8086 12.2901 27.7753 12.2603 27.7091Z" fill="#040606"/>
<path d="M11.785 50.8689C10.3008 50.8223 9.73599 53.2013 9.66466 54.8507C9.59406 56.4992 12.1147 56.7349 13.01 56.6877C13.5756 57.1725 16.1901 56.9388 16.1901 56.9388L17.2943 51.5525C17.2943 51.5525 17.4712 50.7876 15.6508 50.6048L16.1312 50.5809C16.1312 50.5809 15.6486 48.879 14.5298 48.8201C13.4111 48.7612 11.6321 50.8101 11.6321 50.8101L11.785 50.8689Z" fill="#F7BF7F"/>
<path d="M12.89 52.7272C12.922 52.455 12.9802 52.2213 13.064 51.9768C13.1469 51.7357 13.2568 51.5005 13.4017 51.2808C13.5458 51.061 13.7285 50.858 13.9483 50.6933C14.1681 50.5319 14.4222 50.4105 14.6864 50.3442C14.9513 50.2771 15.2236 50.2612 15.4812 50.2779L15.8503 50.3092C15.974 50.328 16.0978 50.3405 16.2229 50.3658C16.4719 50.4133 16.7252 50.4833 16.9799 50.6083L17.1692 50.7189L17.2624 50.7861L17.3519 50.8674C17.4676 50.9831 17.5754 51.1375 17.6205 51.3334L17.6394 51.4883L17.6358 51.577L17.6321 51.6063L17.6278 51.6302L17.6234 51.6527L17.5906 51.8253L17.5237 52.1719L17.3912 52.8653L17.1263 54.2506L16.5964 57.0217C16.5621 57.2036 16.4122 57.3339 16.2368 57.352L16.2273 57.3529H16.2266C15.9449 57.3762 15.6749 57.3907 15.3975 57.4001C15.1217 57.4104 14.8451 57.4132 14.5656 57.4066C14.2861 57.4001 14.0044 57.3856 13.7139 57.3455C13.5669 57.3253 13.4192 57.2988 13.2619 57.2559C13.1054 57.2079 12.9373 57.1598 12.74 57.0029L13.0319 57.1024C12.526 57.122 12.05 57.0814 11.5645 56.9904C11.0834 56.8943 10.5957 56.751 10.1364 56.4584C9.90859 56.312 9.69096 56.1141 9.52427 55.8644C9.3605 55.6111 9.26369 55.3046 9.25132 55.0112C9.25059 54.9415 9.2484 54.8591 9.25204 54.8002L9.26151 54.621C9.26951 54.5017 9.2797 54.3831 9.29207 54.2631C9.31682 54.0257 9.34885 53.7891 9.39106 53.5534C9.4755 53.0808 9.59342 52.6114 9.77757 52.1491C9.96536 51.6928 10.2085 51.2228 10.6539 50.8505C10.8745 50.6681 11.1613 50.5276 11.4633 50.4767C11.5383 50.4679 11.6147 50.4548 11.689 50.4562L11.8011 50.4548L11.8913 50.4591C12.0114 50.4633 12.1315 50.4707 12.2531 50.4818C12.4962 50.5043 12.7415 50.5361 12.9941 50.5989C13.12 50.6288 13.2496 50.67 13.3828 50.7255C13.4497 50.7548 13.5182 50.7866 13.5909 50.831L13.7023 50.9083L13.7649 50.9629C13.7918 50.9919 13.7998 50.9904 13.8566 51.0735C13.9782 51.2677 13.9192 51.5238 13.7249 51.6455C13.5305 51.7669 13.2743 51.7081 13.1528 51.5131L13.1877 51.5602L13.1855 51.5583L13.1557 51.5387L13.0574 51.4889C12.9788 51.4576 12.8907 51.4272 12.7932 51.4048C12.6017 51.3567 12.3914 51.3283 12.1788 51.3092C12.0726 51.299 11.9648 51.2919 11.8557 51.2887L11.7741 51.2844L11.7145 51.2859L11.5995 51.2956C11.4502 51.3223 11.3098 51.3866 11.178 51.4957C10.9123 51.711 10.702 52.0729 10.5484 52.4584C10.3926 52.8474 10.2849 53.2694 10.2085 53.6982C10.1699 53.9128 10.1401 54.1306 10.1182 54.3481C10.1066 54.4567 10.0978 54.5659 10.0906 54.6751L10.0811 54.838L10.0804 54.9705C10.0891 55.1343 10.1364 55.2776 10.2201 55.4109C10.3082 55.5403 10.4327 55.662 10.5899 55.7624C10.9036 55.9657 11.3083 56.0944 11.7225 56.1743C12.1366 56.2537 12.5792 56.2901 12.9875 56.2727L13.0057 56.2719C13.1105 56.2676 13.2081 56.3068 13.2801 56.3722C13.2932 56.3848 13.3842 56.4306 13.4854 56.4561C13.5887 56.4846 13.7059 56.5065 13.8268 56.5229C14.0692 56.5559 14.3261 56.5704 14.5852 56.5769C14.8436 56.5826 15.1064 56.5798 15.3691 56.5704C15.6297 56.5616 15.8983 56.5462 16.1531 56.5252L15.7833 56.8556L16.3875 54.0942L16.6895 52.7141L16.8409 52.0235L16.9166 51.6791L16.9545 51.5056L16.9596 51.4846L16.9603 51.4795L16.9588 51.4874L16.9574 51.4949V51.4957L16.9559 51.4752L16.8751 51.3399L16.8358 51.3007L16.7856 51.264L16.6735 51.1943C16.5068 51.1068 16.3052 51.0408 16.0941 50.9956C15.9893 50.9709 15.8779 50.9569 15.7702 50.9373L15.4368 50.8995C15.2258 50.8813 15.0227 50.8893 14.8283 50.9316C14.6347 50.9751 14.4549 51.0553 14.2926 51.1682C14.1318 51.2816 13.9898 51.4286 13.8712 51.599C13.7525 51.7693 13.655 51.9601 13.58 52.1622C13.5043 52.3604 13.4454 52.5852 13.417 52.7803L13.4148 52.7957C13.3937 52.9404 13.2605 53.0407 13.1149 53.0197C12.973 52.9995 12.8732 52.8685 12.89 52.7272Z" fill="#231F20"/>
<path d="M11.6314 51.2256C11.5354 51.2256 11.4386 51.192 11.3599 51.1235C11.1867 50.9737 11.1678 50.7115 11.3184 50.5383C11.5106 50.3171 13.208 48.4042 14.4855 48.4042L14.551 48.4056C15.9507 48.4792 16.5075 50.3857 16.5308 50.467C16.5934 50.6867 16.4653 50.9176 16.2447 50.9802C16.0242 51.0427 15.7942 50.9148 15.7316 50.6933C15.7279 50.6803 15.3014 49.2763 14.5073 49.2341L14.4782 49.2333C13.8376 49.2333 12.6192 50.3069 11.9459 51.082C11.8636 51.1767 11.7479 51.2256 11.6314 51.2256Z" fill="#231F20"/>
<path d="M25.2137 64.3786L22.5009 71.5869L14.8923 71.292C14.8923 71.292 13.2786 70.7504 13.5028 69.1019C13.7263 67.4531 15.1486 65.4079 17.2951 64.945C17.4872 63.6391 17.9487 60.5101 17.9487 60.5101L17.2951 58.6372C17.2951 58.6372 13.8063 56.896 16.1865 55.4606C16.4129 53.4874 17.2543 50.3297 18.4764 48.5029C18.178 47.5595 15.7534 46.6058 16.1712 44.2738C16.5883 41.9426 24.7151 39.4684 24.7151 39.4684L36.3044 38.8803L42.824 42.6668C42.824 42.6668 42.0168 45.4182 39.3906 47.9729C39.2851 48.6093 40.2139 53.9313 40.2139 53.9313H40.9687C40.9687 53.9313 42.118 55.254 40.291 56.6006C40.3318 57.7222 40.481 57.913 39.435 60.5101C39.6257 62.4353 39.8616 64.3786 39.8616 64.3786L40.4526 64.945C40.4526 64.945 43.4842 65.367 44.0811 68.6891C44.6787 72.0106 40.7576 71.4036 40.7576 71.4036L35.1565 71.5869L32.4 64.3786C32.4 64.3786 31.7551 65.1327 25.2137 64.3786Z" fill="#F7BF7F"/>
<path d="M17.282 58.6147C17.282 58.6147 13.7925 56.8729 16.1727 55.4391C16.399 53.465 17.2405 50.3083 18.4626 48.4813C18.1649 47.5379 15.7403 46.5845 16.1574 44.2521C16.5745 41.9195 24.7013 39.4467 24.7013 39.4467L36.2906 38.8573L42.8102 42.6442C42.8102 42.6442 42.0037 45.3957 39.3768 47.9513C39.272 48.5876 40.2 53.9099 40.2 53.9099H40.9548C40.9548 53.9099 42.1041 55.2324 40.2779 56.5789C34.9651 62.4392 17.282 58.6147 17.282 58.6147Z" fill="#EBEBE9"/>
<path d="M17.6379 43.3545C17.6379 43.3545 22.4165 45.3553 26.0908 44.8225C29.7659 44.2891 31.7515 44.0371 31.9954 43.8808C32.0602 44.2126 33.2765 43.8282 31.4393 45.4929C29.9777 46.8176 21.6748 47.0303 17.6379 43.3545Z" fill="#C1C0B8"/>
<path d="M13.4075 30.4514C13.4075 30.4514 11.6548 33.1497 12.9621 37.6187C13.3246 38.857 14.9295 44.8153 25.8376 44.6101C36.7441 44.4039 39.6891 37.3998 38.2829 31.4187C37.991 30.177 37.1292 26.916 36.0694 24.3793C34.5124 21.1848 31.1358 17.7885 23.817 18.2682C11.8841 19.0507 13.4075 30.4514 13.4075 30.4514Z" fill="#F7BF7F"/>
<path d="M21.6245 48.6436C21.618 48.5375 21.4797 46.0226 22.3706 44.5626L22.9616 44.9228C22.1835 46.1972 22.3131 48.579 22.3145 48.6029L21.6245 48.6436Z" fill="#353436"/>
<path d="M28.0313 48.5586C27.9847 48.4648 26.882 46.2439 27.3944 44.406L28.0611 44.5925C27.6193 46.1739 28.6391 48.2268 28.65 48.247L28.0313 48.5586Z" fill="#353436"/>
<path d="M16.7629 42.4673C16.7629 42.4673 18.3956 44.5286 24.3598 44.6153C35.0306 44.7689 36.621 39.5935 36.621 39.5935C36.621 39.5935 29.1224 45.5696 16.7629 42.4673Z" fill="#D69861"/>
<path d="M18.0077 20.3987C18.9808 19.8599 21.0546 20.0856 21.0851 20.5587C21.1448 21.4527 19.0784 20.6969 18.3374 21.4015C17.2499 22.4373 16.137 22.8371 16.0023 22.5166C15.7687 21.9622 17.0818 20.911 18.0077 20.3987Z" fill="#FCD4AE"/>
<path d="M30.1364 43.858C30.1364 43.858 35.6944 44.222 37.6495 38.586C40.5567 30.2083 34.4956 21.973 34.4956 21.973C34.4956 21.973 41.0648 38.586 30.1364 43.858Z" fill="#D69861"/>
<path d="M13.7562 30.6765C13.7394 30.7027 12.1293 33.2909 13.3609 37.5027L13.3747 37.5485C15.0219 43.2049 21.0568 44.285 25.8295 44.1946C30.6117 44.1045 34.2322 42.6516 36.2979 39.9925C38.0412 37.7478 38.6176 34.658 37.8796 31.5141C37.5353 30.0513 36.688 26.9401 35.6916 24.5506C34.254 21.6107 31.0331 18.2107 23.8446 18.6833C20.3668 18.9104 17.7355 20.085 16.0213 22.1748C13.2219 25.5865 13.8122 30.3489 13.8188 30.3962C13.8319 30.4945 13.8093 30.5935 13.7562 30.6765ZM25.288 45.0303C20.8916 45.0303 17.5113 44.02 15.2359 42.0254C13.3253 40.3499 12.7815 38.4836 12.577 37.7804L12.5639 37.7355C11.3665 33.6426 12.6323 30.9793 12.9788 30.3606C12.89 29.4857 12.5981 25.0434 15.375 21.6537C17.2398 19.3761 20.0713 18.0978 23.7893 17.8541C31.4473 17.3526 34.8975 21.0261 36.4427 24.1975L36.4529 24.2194C37.472 26.6615 38.3374 29.8343 38.6875 31.3242C39.4838 34.7134 38.852 38.0585 36.953 40.5021C34.7286 43.3663 30.8868 44.9299 25.8455 45.0251C25.6577 45.0288 25.4721 45.0303 25.288 45.0303Z" fill="#040606"/>
<path d="M36.621 22.3698C36.621 22.3698 38.2791 19.6644 40.7772 19.6644C43.2068 19.6644 45.0367 21.4781 45.3657 22.7957C45.6947 24.113 45.9007 29.3401 40.6738 29.5869" fill="#F7BF7F"/>
<path d="M40.6739 30.0015C40.4534 30.0015 40.2692 29.8289 40.2583 29.6062C40.2481 29.3777 40.425 29.1826 40.6536 29.1723C42.2098 29.0982 43.378 28.55 44.1285 27.5417C45.2567 26.0235 45.1781 23.7562 44.9626 22.8967C44.6751 21.7451 43.0192 20.0795 40.7773 20.0795C38.5376 20.0795 36.9901 22.5617 36.9756 22.5865C36.8555 22.7815 36.6 22.8435 36.4035 22.7232C36.2084 22.6038 36.1472 22.3485 36.2673 22.1526C36.3401 22.034 38.0776 19.249 40.7773 19.249C43.4719 19.249 45.4081 21.2501 45.7691 22.6948C45.9642 23.4781 46.2051 26.1391 44.7945 28.0368C43.8897 29.2545 42.5089 29.9156 40.6936 30.0015H40.6739Z" fill="#040606"/>
<path d="M41.4542 28.0234C42.7294 27.7758 43.6371 26.4591 43.6786 25.4577C43.7193 24.456 43.2185 22.613 41.4542 22.3844C39.2327 22.0964 39.0551 26.2668 39.0551 26.2668C39.0551 26.2668 39.9948 26.1708 40.5909 26.6643C41.1885 27.1585 41.4542 28.0234 41.4542 28.0234Z" fill="#C6424F"/>
<path d="M38.9809 26.2635C38.9255 25.714 38.9488 25.1643 39.0347 24.6135C39.1206 24.064 39.272 23.5093 39.5821 22.9875C39.7371 22.7276 39.9424 22.4757 40.2212 22.2812C40.4956 22.0862 40.8471 21.9668 41.1878 21.9602C41.3567 21.9545 41.5263 21.9699 41.6747 22.0034C41.7512 22.02 41.8283 22.0302 41.904 22.0529L42.1289 22.1271C42.2046 22.1481 42.2767 22.1845 42.3473 22.2195C42.4186 22.2565 42.4936 22.2849 42.5591 22.3293L42.7586 22.4618C42.8262 22.5047 42.8816 22.5616 42.9427 22.6111L43.1138 22.774L43.271 22.948C43.3634 23.0725 43.4566 23.197 43.5287 23.3301C43.6815 23.5945 43.8001 23.8726 43.8795 24.1572C43.9625 24.4415 44.0134 24.7321 44.0294 25.0276L44.0353 25.2504L44.0265 25.4759C44.0171 25.5547 44.0091 25.634 43.996 25.7111C43.9799 25.7867 43.9639 25.8632 43.945 25.9368C43.8628 26.2331 43.731 26.5015 43.573 26.7491C43.4158 26.9966 43.2273 27.2209 43.0126 27.4165C42.5911 27.8117 42.0438 28.0832 41.4775 28.143C41.4098 28.1495 41.3501 28.1009 41.3436 28.0332L41.4273 27.9041L41.4316 27.9027C41.9179 27.7449 42.3357 27.4472 42.653 27.0665C42.966 26.6872 43.2084 26.2382 43.2936 25.7796L43.3197 25.6107L43.3292 25.4461L43.3234 25.2692L43.3059 25.0901C43.2739 24.8507 43.2179 24.6135 43.1436 24.385C43.0708 24.1555 42.9667 23.9403 42.843 23.7453C42.7207 23.5479 42.5722 23.3761 42.4048 23.2349C42.2396 23.0865 42.0452 22.9844 41.8414 22.9051L41.6849 22.8536L41.5212 22.8192C41.4069 22.7944 41.3079 22.7837 41.2096 22.785C41.0138 22.7887 40.8348 22.8402 40.6652 22.9446C40.4948 23.0469 40.3398 23.2079 40.2015 23.3958C39.9249 23.7757 39.724 24.2524 39.5515 24.7401C39.3856 25.2328 39.2487 25.7483 39.1286 26.2695L39.1279 26.2723L39.0391 26.3284L38.9809 26.2635Z" fill="#040606"/>
<path d="M36.6064 39.0564L39.6432 35.1012V34.5356L38.8556 32.7313L39.0834 30.803L40.6222 28.1943L41.476 27.0166L41.936 22.2532L42.5925 20.762L43.5686 20.2948L44.5556 20.6243L45.0513 21.92L44.7056 25.2887L44.2215 27.0552L45.0651 27.3464L46.4117 25.9225L49.2774 22.6539L50.6975 22.3329L51.5651 23.0818L51.3249 24.8278L47.8282 28.7775L49.2505 28.9506L49.9361 30.5229L49.1318 32.6833L48.8734 34.6587L47.3361 36.3773L45.5601 37.009L44.9167 37.1896L42.5532 42.4673L36.6064 39.0564Z" fill="#F7BF7F"/>
<path d="M44.3468 36.7896C44.3468 36.7896 45.8804 37.3335 47.0036 36.5851C48.126 35.8368 49.2454 34.3759 49.1093 32.3074C47.9425 32.8082 47.7147 36.4476 44.3468 36.7896Z" fill="#D69861"/>
<path d="M44.9167 37.1896L42.6705 42.4673L41.3676 42.0482L44.5557 36.9376L44.9167 37.1896Z" fill="#D69861"/>
<path d="M39.6417 35.2108L40.2422 35.4931L37.6983 39.8926L36.5148 39.2389L39.6417 35.2108Z" fill="#FCD4AE"/>
<path d="M40.2423 30.5225C40.2423 30.5225 41.3428 29.1862 43.1422 29.1503C44.9415 29.1162 45.0325 29.5216 44.9167 29.6635C44.8003 29.8046 43.0869 29.593 42.2913 29.9809C41.4964 30.3695 40.1542 31.0283 40.2423 30.5225Z" fill="#FCD4AE"/>
<path d="M41.936 24.0453C41.936 24.0453 41.8436 21.9671 42.4863 21.2364C43.1283 20.5057 43.7513 20.9009 43.68 21.024C43.6101 21.1477 42.5918 21.2481 42.6471 23.0911C42.6617 23.5941 42.4987 25.4058 41.936 24.0453Z" fill="#FCD4AE"/>
<path d="M46.0311 26.7485C46.0311 26.7485 48.9288 22.7147 49.8613 22.4371C50.7937 22.1591 51.111 22.8258 50.9858 22.893C50.8599 22.9606 49.945 22.5034 49.0111 24.0931C48.7563 24.5261 45.7844 28.1999 46.0311 26.7485Z" fill="#FCD4AE"/>
<path d="M51.3897 23.7629C51.3897 23.7629 51.4458 24.5229 51.0119 25.0171C50.5774 25.5113 49.217 27.3492 48.7752 27.7023C48.3333 28.056 48.0764 27.8027 48.5139 27.3463C48.952 26.89 50.7208 24.8701 50.7193 24.6256C50.7186 24.3816 51.3016 23.4274 51.3897 23.7629Z" fill="#D69861"/>
<path d="M44.3846 21.2099C44.3846 21.2099 45.127 22.4558 44.8584 23.7631C44.7398 24.3398 44.3052 26.3005 44.0767 26.7722C43.8489 27.2439 43.5242 27.2001 43.7062 26.6587C43.8882 26.118 44.4275 23.8382 44.4457 23.6409C44.5644 22.4115 44.1691 21.0228 44.3846 21.2099Z" fill="#D69861"/>
<path d="M45.3046 32.5459C45.3046 32.5459 47.1993 32.5095 47.4206 32.0008C47.6419 31.4927 48.2001 31.3182 48.2882 31.6122C48.3748 31.907 47.2204 33.3053 46.6083 33.2834C45.9954 33.2615 45.1205 33.303 45.3046 32.5459Z" fill="#D69861"/>
<path d="M40.0989 35.1842C39.6207 35.8631 39.0951 36.5074 38.5864 37.1648L37.8199 38.148L37.0462 39.1264C36.9392 39.2617 36.7412 39.285 36.6051 39.1773C36.474 39.0741 36.4486 38.8862 36.5425 38.7514L37.2543 37.7289L37.9735 36.7099C38.4561 36.0334 38.9197 35.3428 39.4329 34.6891C39.5734 34.5086 39.8347 34.4767 40.0152 34.6178C40.1906 34.7549 40.2248 35.0036 40.0989 35.1842Z" fill="#231F20"/>
<path d="M42.8487 42.7134L42.6842 42.679C42.4739 42.588 42.3763 42.3443 42.4673 42.133L44.6706 37.0256C44.7616 36.8152 45.0054 36.7177 45.2158 36.8087C45.4269 36.8997 45.5237 37.1433 45.4327 37.3538L43.2301 42.4628C43.1624 42.6193 43.0096 42.7134 42.8487 42.7134Z" fill="#231F20"/>
<path d="M44.0345 26.9168C44.2179 25.9174 44.413 24.9106 44.5542 23.92C44.619 23.4278 44.6525 22.9308 44.6408 22.4563C44.6263 21.9869 44.536 21.5166 44.3104 21.2348C44.199 21.0952 44.06 21.0047 43.8838 20.953C43.7128 20.903 43.4777 20.8811 43.2986 20.9021C43.1137 20.9263 42.9689 20.9889 42.851 21.1C42.7323 21.2109 42.6363 21.3798 42.5649 21.5791C42.4943 21.7793 42.447 22.0051 42.4099 22.243L42.3582 22.6155C42.3444 22.7161 42.3349 22.8421 42.3262 22.9635L42.241 24.4906C42.2097 25.0044 42.1704 25.5191 42.1071 26.0417C42.0743 26.3029 42.0387 26.5651 41.979 26.838C41.9506 26.9742 41.9142 27.1138 41.8589 27.2674L41.8086 27.3877L41.7781 27.4508L41.7366 27.5221L41.6922 27.5878L41.658 27.6336L41.5917 27.7166L41.0997 28.3069C40.9403 28.5005 40.7867 28.6956 40.6397 28.8929C40.3449 29.2881 40.0748 29.6964 39.8536 30.1223C39.6323 30.548 39.4569 30.9913 39.363 31.4396C39.3178 31.664 39.2931 31.888 39.2931 32.1109C39.2931 32.327 39.3193 32.5641 39.3601 32.7928C39.4423 33.2499 39.5952 33.6889 39.8332 34.0711C39.9511 34.263 40.0916 34.4387 40.2459 34.5979C40.323 34.6767 40.4053 34.7509 40.4919 34.8177L40.6207 34.9116L40.6855 34.9525L40.735 34.9815L40.7714 35.0034C40.965 35.1148 41.0305 35.3617 40.9192 35.5544C40.8129 35.7373 40.5844 35.8055 40.3966 35.7167L40.2779 35.6548L40.1789 35.5951L39.9955 35.4694C39.8783 35.3812 39.7677 35.2874 39.6643 35.1862C39.4569 34.986 39.2756 34.7603 39.1228 34.5194C38.8127 34.0384 38.6183 33.4973 38.5121 32.9522C38.4604 32.6802 38.4247 32.4086 38.4211 32.1143C38.4182 31.8255 38.4495 31.5408 38.5048 31.2642C38.6191 30.7118 38.8258 30.1971 39.074 29.7175C39.3229 29.2372 39.6177 28.7902 39.9322 28.3666C40.243 27.9444 40.5924 27.5383 40.9039 27.1613L40.9563 27.0943L40.9803 27.063L40.989 27.0485L40.9956 27.0382L41.0065 27.0149L41.0291 26.958C41.0604 26.8716 41.0902 26.763 41.1135 26.6501C41.1623 26.4238 41.1965 26.1792 41.2263 25.9347C41.2853 25.4434 41.3217 24.939 41.3566 24.4346L41.4513 22.9032C41.4615 22.7713 41.4695 22.642 41.492 22.489L41.5517 22.1046C41.5968 21.8395 41.6543 21.5632 41.7584 21.2829C41.8625 21.0056 42.0183 20.7131 42.2767 20.4765C42.5322 20.2354 42.8859 20.1001 43.2069 20.0702C43.3699 20.052 43.5257 20.0585 43.6764 20.0739C43.8227 20.087 43.9828 20.1196 44.1357 20.1714C44.4465 20.2698 44.7493 20.4807 44.9444 20.7514C45.1431 21.0207 45.2472 21.3193 45.3098 21.6039C45.3694 21.8899 45.3884 22.1693 45.3898 22.4432C45.392 22.9905 45.3141 23.5108 45.2195 24.0269C45.0208 25.051 44.7566 26.0351 44.472 27.0229C44.4378 27.1431 44.3126 27.2114 44.1932 27.1772C44.0811 27.1451 44.0134 27.0331 44.0338 26.9211L44.0345 26.9168Z" fill="#231F20"/>
<path d="M43.5818 26.6724C43.7965 26.6186 43.993 26.6112 44.1983 26.628C44.4021 26.6448 44.6045 26.6891 44.8017 26.7619C44.999 26.8361 45.1911 26.9419 45.3578 27.088C45.5209 27.2402 45.6628 27.4315 45.7145 27.661C45.74 27.7739 45.6686 27.8859 45.5558 27.9111L45.4386 27.9041L45.4051 27.8916C45.2268 27.8276 45.09 27.7701 44.9451 27.7133C44.8003 27.6581 44.6561 27.6018 44.5069 27.5415L44.0411 27.3652C43.8831 27.305 43.7121 27.2402 43.557 27.1608L43.5279 27.1463C43.4027 27.0824 43.3532 26.9285 43.4173 26.8034C43.4515 26.7358 43.5134 26.6906 43.5818 26.6724Z" fill="#231F20"/>
<path d="M44.9095 31.2666C44.8614 31.3576 44.8156 31.4238 44.7595 31.4923C44.7049 31.5606 44.6445 31.6225 44.579 31.6794C44.4494 31.7952 44.301 31.8918 44.1379 31.9675C43.9741 32.0425 43.7914 32.092 43.6015 32.0999C43.41 32.1031 43.2099 32.0635 43.0446 31.9515C42.9471 31.8844 42.9216 31.7522 42.9886 31.6544L43.0563 31.5904L43.0956 31.5685C43.2339 31.4872 43.3409 31.4346 43.4501 31.3766C43.5585 31.3183 43.6648 31.2651 43.7776 31.2111L44.1241 31.0323C44.242 30.974 44.3745 30.9077 44.5011 30.8654L44.5557 30.848C44.7108 30.7963 44.8774 30.8801 44.9284 31.0351C44.9546 31.1153 44.9451 31.198 44.9095 31.2666Z" fill="#231F20"/>
<path d="M44.2201 31.4954C44.2813 31.5882 44.3206 31.6592 44.3657 31.7408C44.4072 31.8196 44.4487 31.8995 44.4851 31.9802C44.56 32.142 44.6212 32.3077 44.6743 32.4781C44.7813 32.8168 44.8381 33.1741 44.8388 33.5321C44.8475 33.8909 44.7616 34.2515 44.6263 34.5773C44.4967 34.9094 44.266 35.1809 44.0345 35.424L43.8707 35.4277L43.8503 35.2872L43.8584 35.2747L43.9741 35.0709C44.0134 35.004 44.052 34.9384 44.0767 34.8656L44.1641 34.656C44.1866 34.5847 44.2005 34.511 44.2201 34.4399C44.2871 34.1516 44.3016 33.8568 44.2551 33.5685C44.2121 33.2805 44.1204 33.0001 43.9996 32.7314C43.9392 32.5975 43.8693 32.4667 43.7928 32.3413L43.6764 32.1557L43.5556 31.9942C43.4071 31.8188 43.4282 31.5569 43.6029 31.4076C43.7776 31.2589 44.0403 31.2802 44.1895 31.4548L44.2179 31.4935L44.2201 31.4954Z" fill="#231F20"/>
<path d="M44.9836 27.0045C45.8119 26.0022 46.633 24.9991 47.4875 24.0113C47.5945 23.8868 47.7015 23.7646 47.815 23.638L47.9752 23.4617L48.1302 23.2826C48.3406 23.0375 48.5604 22.7777 48.8217 22.5345C49.0823 22.2949 49.3953 22.06 49.7971 21.9397C49.9958 21.8809 50.2149 21.8604 50.426 21.8837C50.6363 21.9062 50.8365 21.971 51.0133 22.0569C51.188 22.1436 51.3525 22.2477 51.5069 22.3853C51.659 22.522 51.7922 22.6938 51.8839 22.886C52.0702 23.2747 52.0739 23.6997 52.0047 24.0651C51.9356 24.4356 51.7849 24.7865 51.5818 25.0924C51.4836 25.2436 51.3554 25.3934 51.2477 25.5123L50.9275 25.8777C50.0744 26.8544 49.214 27.8248 48.3442 28.787C48.2409 28.9012 48.0654 28.9101 47.9519 28.8074C47.8413 28.7076 47.8303 28.5401 47.922 28.4259C48.7409 27.417 49.5685 26.4156 50.4048 25.4199L50.7171 25.0457C50.8248 24.9212 50.9042 24.8208 50.9828 24.6991C51.1356 24.4634 51.2412 24.2042 51.2878 23.9343C51.3351 23.6656 51.3176 23.4095 51.2172 23.2093C51.1669 23.1095 51.0971 23.0193 51.0075 22.94C50.918 22.8627 50.8066 22.7921 50.6894 22.7376C50.4573 22.6284 50.2352 22.606 50.014 22.6736C49.7905 22.7426 49.5634 22.9013 49.3523 23.1029C49.1398 23.3039 48.9418 23.5425 48.7336 23.7921L48.572 23.9838L48.4083 24.17C48.3056 24.2858 48.2008 24.4103 48.0975 24.5325C47.2713 25.5232 46.4452 26.5276 45.6256 27.5305L45.6248 27.5322C45.48 27.7096 45.2187 27.7361 45.0411 27.5911C44.8628 27.4464 44.8366 27.1842 44.9821 27.0065L44.9836 27.0045Z" fill="#231F20"/>
<path d="M40.0188 30.5051C40.2372 30.1421 40.5239 29.8611 40.842 29.6056C41.163 29.3568 41.5182 29.1463 41.8953 28.9891C42.0831 28.9075 42.2767 28.8398 42.4718 28.7815C42.669 28.7269 42.867 28.6769 43.0686 28.6425C43.4697 28.566 43.878 28.5427 44.2827 28.5436L44.5862 28.5509L44.8825 28.5725C45.0797 28.5888 45.2785 28.607 45.4772 28.6354C45.8746 28.69 46.2749 28.7679 46.6745 28.8935C47.0712 29.0275 47.4767 29.2038 47.8355 29.5304C48.0109 29.6965 48.174 29.9032 48.2693 30.1574C48.3181 30.2825 48.3501 30.4179 48.3596 30.5554C48.3647 30.6246 48.3639 30.695 48.3581 30.765L48.3443 30.8736L48.3326 30.931L48.3115 31.0067L48.3217 30.9703C48.2999 31.0533 48.2832 31.0991 48.2613 31.1602L48.1936 31.3285C48.1448 31.4377 48.0903 31.5438 48.0291 31.6465C47.9046 31.8526 47.7554 32.0482 47.5713 32.2165C47.3878 32.386 47.1709 32.5259 46.9373 32.6211C46.7036 32.7195 46.454 32.7675 46.2116 32.782C45.7807 32.7988 45.3309 32.7908 44.8752 32.6663C44.6503 32.6029 44.4283 32.5082 44.2288 32.3868C44.0301 32.2637 43.8525 32.1175 43.6931 31.9618C43.5781 31.8498 43.5759 31.6655 43.688 31.5497C43.7943 31.442 43.9624 31.4332 44.0782 31.5256L44.0818 31.5287C44.3773 31.7667 44.694 31.9324 45.0412 31.9996C45.3862 32.0715 45.7705 32.0598 46.1585 32.0252C46.494 31.9936 46.7874 31.8591 47.0166 31.6296C47.1346 31.517 47.2343 31.3809 47.3194 31.2324C47.3609 31.1583 47.3988 31.0803 47.4323 31.001L47.4767 30.8807L47.508 30.7766L47.5189 30.7402L47.516 30.7468L47.5181 30.7332L47.5211 30.6988L47.5196 30.6209L47.4803 30.4608C47.441 30.3545 47.3617 30.2498 47.259 30.1528C47.1535 30.0576 47.0225 29.9709 46.8776 29.8967C46.732 29.8225 46.5719 29.7622 46.4088 29.7045C45.745 29.4875 44.9895 29.4039 44.2616 29.3624C43.5374 29.3326 42.8131 29.4025 42.1231 29.6098C41.7795 29.7161 41.4425 29.8514 41.1259 30.0292C40.81 30.2023 40.4985 30.4207 40.2473 30.6661L40.2357 30.6763L40.0384 30.6734L40.0188 30.5051Z" fill="#231F20"/>
<path d="M49.1092 32.7231C48.9971 32.7231 48.8851 32.6771 48.8035 32.5875C48.6485 32.4186 48.6601 32.1559 48.8297 32.0009C49.2985 31.5721 49.5496 31.0075 49.5183 30.4519C49.4943 30.0146 49.2985 29.6413 48.968 29.4016C48.1011 28.7698 47.0886 29.5363 47.0464 29.5691C46.8644 29.7089 46.6046 29.6768 46.4641 29.4963C46.3229 29.3157 46.3549 29.0567 46.5347 28.9148C46.5966 28.8659 48.0778 27.7275 49.4564 28.7297C49.9849 29.1142 50.3095 29.7249 50.3481 30.4056C50.3925 31.211 50.0438 32.0154 49.3895 32.614C49.3101 32.6868 49.2097 32.7231 49.1092 32.7231Z" fill="#231F20"/>
<path d="M45.5754 32.5926L45.5689 32.6275L45.5645 32.6784L45.5623 32.7862C45.5645 32.8584 45.5725 32.9303 45.5878 32.9994C45.6176 33.137 45.6722 33.263 45.7559 33.3693C45.8389 33.4756 45.9524 33.565 46.0915 33.6312C46.2305 33.6983 46.3928 33.7455 46.5406 33.7557C46.6912 33.7668 46.8412 33.7435 46.9882 33.6824C47.136 33.6212 47.2757 33.5229 47.4075 33.4063C47.6673 33.1697 47.8886 32.8663 48.08 32.5453L48.2431 32.503L48.2911 32.6531C48.1361 33.0091 47.9483 33.3591 47.6819 33.6736C47.5458 33.8294 47.3878 33.9756 47.1949 34.0884C47.0028 34.2013 46.7735 34.2718 46.5428 34.2834C46.3091 34.2965 46.0929 34.261 45.876 34.1933C45.6584 34.1248 45.4415 34.0062 45.2624 33.8351C45.0826 33.6656 44.9501 33.4478 44.8672 33.2223C44.8257 33.1094 44.7958 32.9937 44.7755 32.8772L44.7536 32.6989L44.7485 32.6079L44.75 32.4996C44.7762 32.2715 44.9822 32.1077 45.21 32.1334C45.4378 32.159 45.6009 32.3648 45.5754 32.5926Z" fill="#231F20"/>
<path d="M44.4064 36.4982L44.5906 36.5846C44.659 36.6117 44.7296 36.6363 44.8009 36.656C44.9436 36.6961 45.0899 36.7231 45.2376 36.7347C45.5332 36.7595 45.833 36.7296 46.1191 36.6466C46.4059 36.5659 46.681 36.437 46.9365 36.2738L47.1265 36.1459L47.3106 36.0046C47.4191 35.9165 47.5312 35.8081 47.6338 35.6981C48.0473 35.2491 48.3646 34.7112 48.5437 34.1363C48.7249 33.5605 48.7715 32.9498 48.6965 32.3484C48.6681 32.1212 48.8297 31.9131 49.0576 31.8846C49.2854 31.8565 49.4928 32.0186 49.5205 32.2458L49.5227 32.2634V32.2677C49.5794 32.9751 49.4914 33.7044 49.2453 34.3763C49.0008 35.049 48.6041 35.6551 48.1018 36.153C47.9745 36.2776 47.8449 36.3947 47.6928 36.5076L47.4773 36.6569C47.4016 36.7026 47.3296 36.7529 47.251 36.795C46.9445 36.9727 46.6104 37.1123 46.2589 37.1948C45.908 37.2784 45.5397 37.2994 45.1809 37.2536C45.0018 37.2304 44.8249 37.1897 44.6524 37.1336C44.5665 37.1044 44.4821 37.0717 44.3991 37.0344C44.3132 36.9946 44.239 36.9588 44.1436 36.8976C44.033 36.8263 44.001 36.6787 44.0723 36.5678C44.1407 36.4603 44.2812 36.4274 44.3904 36.4902L44.4064 36.4982Z" fill="#231F20"/>
<path d="M31.5186 45.008L31.5645 44.7686L31.8629 44.246C32.9067 42.4197 34.2285 40.7675 35.7825 39.351L36.2993 38.8801C36.2993 38.8801 42.4827 41.8352 42.8182 42.6665C42.292 43.9539 39.6105 47.7231 39.6105 47.7231C39.6105 47.7231 35.8895 51.508 32.9409 49.0827C31.7494 48.1029 31.2275 46.5234 31.5186 45.008Z" fill="#EBEBE9"/>
<path d="M38.4385 45.849C38.4385 45.849 39.6818 55.331 35.2424 56.6333C38.5325 55.5952 40.4526 54.3857 40.4526 54.3857L38.4385 45.849Z" fill="#C1C0B8"/>
<path d="M19.3549 57.3545H19.3527C18.6751 57.3502 16.4303 57.2621 15.9768 56.2991C15.3341 54.932 16.1115 52.0918 18.2267 48.0843C18.3337 47.8818 18.5841 47.8039 18.7872 47.9108C18.9903 48.018 19.0681 48.2691 18.9611 48.4721C16.2177 53.6699 16.4856 55.4299 16.728 55.9454C16.8801 56.2683 18.2413 56.5166 19.3571 56.524C19.5864 56.5254 19.7713 56.7125 19.7698 56.9419C19.7691 57.1703 19.5827 57.3545 19.3549 57.3545Z" fill="#231F20"/>
<path d="M17.3256 43.2935L17.1983 43.4083L17.0643 43.5446C16.9777 43.637 16.9035 43.739 16.83 43.838C16.6888 44.0424 16.5963 44.2636 16.5483 44.4865C16.5046 44.7092 16.5061 44.9392 16.5665 45.1715C16.6313 45.4152 16.7353 45.6605 16.8649 45.898C17.1335 46.3711 17.5018 46.8055 17.9094 47.203C18.325 47.5903 18.78 47.9571 19.2749 48.2249L19.28 48.2272C19.3841 48.2837 19.4219 48.4125 19.3659 48.5166C19.3149 48.6122 19.2021 48.6514 19.1039 48.615C18.5114 48.3923 17.9887 48.0588 17.4982 47.6776C17.2565 47.4825 17.0214 47.2764 16.8038 47.0472C16.5898 46.8158 16.386 46.5698 16.2076 46.2988C16.0322 46.0253 15.8786 45.7305 15.7694 45.4049C15.6617 45.0651 15.6304 44.6844 15.6974 44.3241C15.76 43.9608 15.9194 43.629 16.1152 43.3444C16.2164 43.2034 16.3248 43.0686 16.4478 42.9501L16.6356 42.7751L16.7375 42.6944L16.854 42.61C17.044 42.4817 17.3009 42.5306 17.4297 42.72C17.5498 42.8968 17.5149 43.1325 17.3555 43.2687L17.3256 43.2935Z" fill="#231F20"/>
<path d="M42.5438 42.3493C42.5438 42.3493 43.0854 42.4999 42.6625 43.4874C42.0285 44.9696 40.2466 47.5419 39.3906 47.9727C38.7057 46.4982 38.3782 45.7316 38.3782 45.7316C38.3782 45.7316 39.5603 47.102 42.5438 42.3493Z" fill="#C1C0B8"/>
<path d="M40.2903 54.9292C40.0836 54.9292 39.9052 54.7756 39.879 54.5653C39.6315 52.5818 38.7996 47.1385 37.9341 45.7943C37.8104 45.6015 37.8657 45.3453 38.0586 45.2208C38.2507 45.0963 38.5084 45.1522 38.6322 45.3453C39.7771 47.1235 40.6659 54.1641 40.703 54.4626C40.7314 54.6898 40.5698 54.8979 40.3427 54.9264L40.2903 54.9292Z" fill="#231F20"/>
<path d="M39.1883 48.606C39.0864 48.606 38.9845 48.5681 38.9045 48.4939C38.737 48.3366 38.729 48.074 38.8855 47.9065C41.3094 45.3196 42.1188 43.4482 42.3444 42.8107C41.6952 42.2967 39.5617 40.7107 36.3743 39.359C32.732 42.3905 31.9809 45.3305 31.9728 45.3603C31.919 45.5832 31.6963 45.7209 31.4728 45.666C31.2501 45.6131 31.1132 45.3896 31.1664 45.1667C31.1984 45.0322 31.9991 41.8352 36.0424 38.5569C36.1611 38.4608 36.3227 38.4375 36.4631 38.4958C40.5764 40.1975 42.9937 42.2648 43.0949 42.3522C43.2113 42.4525 43.2623 42.6089 43.2281 42.7582C43.207 42.8514 42.6727 45.0802 39.4918 48.4743C39.4096 48.5616 39.299 48.606 39.1883 48.606Z" fill="#231F20"/>
<path d="M17.6197 14.9032C17.6197 14.9032 20.2713 7.59085 28.7562 9.79982C26.5726 10.5795 25.7967 11.6167 25.7967 11.6167C25.7967 11.6167 34.2517 7.31789 38.2485 19.9575C34.8894 17.1793 29.7993 16.9833 29.1857 17.3146C31.4428 17.9259 32.2828 20.0035 32.2828 20.0035C32.2828 20.0035 30.0235 18.4633 27.5851 18.5361C24.4501 18.6299 23.204 21.1187 23.204 21.1187C23.204 21.1187 19.4852 17.91 17.4108 20.3362C17.4108 20.3362 14.072 16.9945 16.1763 11.5709C16.7579 13.0565 18.1648 13.5959 18.1648 13.5959" fill="#3A1E19"/>
<path d="M13.0144 36.1029C13.0144 36.1029 15.7592 39.1091 19.7946 40.0284C23.2295 41.759 26.3383 40.8114 26.3383 40.8114C26.3383 40.8114 29.3939 40.2336 29.6625 38.7531C28.6951 38.75 22.9012 38.5507 22.9012 38.5507L13.0144 36.1029Z" fill="#D69861"/>
<path d="M23.2237 21.7622L22.8226 21.444C22.7935 21.4199 19.8121 19.098 17.5935 20.6934C17.4072 20.8273 17.1473 20.7844 17.0141 20.5982C16.8802 20.4125 16.9232 20.1526 17.1095 20.0195C19.339 18.4159 21.9878 19.8726 22.9609 20.5225C23.4879 19.7582 24.8752 18.199 27.4505 18.1211C29.9952 18.044 32.4117 19.6445 32.5144 19.7125C32.7043 19.8399 32.756 20.098 32.6279 20.2888C32.5005 20.4787 32.2429 20.5305 32.0522 20.4022C32.0216 20.3821 29.7462 18.8862 27.4752 18.9511C24.6205 19.0369 23.4639 21.2822 23.4522 21.3041L23.2237 21.7622Z" fill="#040606"/>
<path d="M18.9961 38.3698C18.9961 38.3698 20.2437 40.3112 24.7063 40.5395C29.1689 40.7681 30.3321 37.7272 30.3321 37.7272C30.3321 37.7272 26.5457 39.4565 18.9961 38.3698Z" fill="#CF616D"/>
<path d="M19.6897 38.718C20.3732 39.2784 21.8734 40.1417 24.7194 40.2872C27.7561 40.4439 29.1973 39.0242 29.7738 38.2005C28.4374 38.6261 25.0921 39.3913 19.6897 38.718ZM25.1736 40.8047C25.0171 40.8047 24.8577 40.8004 24.6939 40.7925C20.1534 40.5596 18.8381 38.5906 18.7835 38.5068L18.4844 38.041L19.0325 38.1203C26.4226 39.1832 30.1894 37.5139 30.2273 37.4965L30.7892 37.2403L30.5679 37.8175C30.5563 37.8483 29.3749 40.8047 25.1736 40.8047Z" fill="#231F20"/>
<path d="M32.6985 27.9372C32.6985 29.954 31.0629 31.5889 29.0467 31.5889C27.0297 31.5889 25.3942 29.954 25.3942 27.9372C25.3942 25.9193 27.0297 24.2844 29.0467 24.2844C31.0629 24.2844 32.6985 25.9193 32.6985 27.9372Z" fill="#D69861"/>
<path d="M22.1638 28.0167C22.1638 29.7176 20.7838 31.0972 19.0834 31.0972C17.3816 31.0972 16.0023 29.7176 16.0023 28.0167C16.0023 26.3148 17.3816 24.9354 19.0834 24.9354C20.7838 24.9354 22.1638 26.3148 22.1638 28.0167Z" fill="#D69861"/>
<path d="M32.2188 27.5141C32.2188 29.4569 30.6437 31.0327 28.7002 31.0327C26.7568 31.0327 25.1816 29.4569 25.1816 27.5141C25.1816 25.5716 26.7568 23.995 28.7002 23.995C30.6437 23.995 32.2188 25.5716 32.2188 27.5141Z" fill="white"/>
<path d="M21.7249 27.5959C21.7249 29.2351 20.3965 30.5635 18.7574 30.5635C17.1182 30.5635 15.7891 29.2351 15.7891 27.5959C15.7891 25.9568 17.1182 24.6275 18.7574 24.6275C20.3965 24.6275 21.7249 25.9568 21.7249 27.5959Z" fill="white"/>
<path d="M29.8852 28.186C29.3968 28.186 29.0009 27.7898 29.0009 27.3022C29.0009 27.2289 29.0111 27.1575 29.0285 27.089C28.2824 27.1385 27.6921 27.7566 27.6921 28.5149C27.6921 29.3048 28.3334 29.9453 29.1224 29.9453C29.9129 29.9453 30.5534 29.3048 30.5534 28.5149C30.5534 28.3264 30.5163 28.1472 30.4501 27.9821C30.2972 28.1095 30.1 28.186 29.8852 28.186Z" fill="#040606"/>
<path d="M20.4177 28.2261C19.9642 28.2261 19.5894 27.8986 19.5144 27.467C18.9867 27.5935 18.5944 28.0666 18.5944 28.6336C18.5944 29.2969 19.1315 29.834 19.7946 29.834C20.4577 29.834 20.9949 29.2969 20.9949 28.6336C20.9949 28.4437 20.9498 28.2648 20.8719 28.1053C20.7372 28.1818 20.5829 28.2261 20.4177 28.2261Z" fill="#040606"/>
<path d="M36.4405 39.6773C34.7533 40.8279 33.3317 42.6462 33.4373 43.1048C33.5436 43.564 36.4049 43.2467 37.4654 42.0798C38.5252 40.9147 38.5186 40.0463 36.4405 39.6773Z" fill="white"/>
<path d="M32.0594 51.8357C31.6801 51.1945 33.0253 48.703 35.051 48.7021C36.0169 48.7021 35.8524 49.786 35.6871 50.2684C35.5219 50.7512 32.978 53.3898 32.0594 51.8357Z" fill="white"/>
<path d="M31.1984 36.8842C29.4697 40.3417 22.0285 39.6757 20.7482 39.3991C14.693 38.0875 11.047 34.4421 11.047 34.4421L11.368 32.5664" fill="#F7BF7F"/>
<path d="M31.5695 37.0693C31.33 37.5387 30.9858 37.9464 30.5942 38.2739C30.2018 38.6023 29.7651 38.8557 29.3167 39.0587C28.4156 39.4627 27.4686 39.6774 26.5246 39.8084C25.5783 39.9392 24.6299 39.9765 23.6851 39.9626C23.212 39.9546 22.7411 39.9322 22.2694 39.8934C21.7977 39.8534 21.3304 39.8053 20.8522 39.7189L20.6702 39.6811L20.4992 39.6373L20.1556 39.5492C19.9285 39.488 19.6971 39.4363 19.4721 39.3681L18.7967 39.1554C18.6846 39.119 18.5703 39.0871 18.4604 39.0462L18.1285 38.9233C17.9079 38.8409 17.6859 38.7616 17.4668 38.6751L16.8161 38.3985C16.5977 38.3098 16.3874 38.2048 16.1748 38.1031C15.9638 37.9987 15.7476 37.9058 15.5423 37.7906C14.7031 37.3636 13.8995 36.8699 13.125 36.3386C12.3506 35.8015 11.611 35.2293 10.9246 34.5654L10.8599 34.5029L10.8759 34.4133L11.2173 32.5413C11.2325 32.4574 11.3126 32.4028 11.3949 32.4182C11.4771 32.4327 11.5317 32.5114 11.5186 32.5928L11.218 34.4716L11.1692 34.3201C11.836 34.9374 12.5857 35.4944 13.3529 36.0016C14.1251 36.506 14.9229 36.9725 15.7527 37.3721C15.9565 37.4813 16.1705 37.5679 16.3786 37.6655C16.589 37.7608 16.7965 37.8582 17.0126 37.9407L17.6532 38.1969C17.8693 38.2768 18.087 38.349 18.3039 38.4255L18.6293 38.5381C18.7392 38.5753 18.8498 38.6043 18.9604 38.6373L19.6221 38.8292C19.8426 38.8921 20.069 38.937 20.2917 38.9916L20.6273 39.0704L20.7947 39.1096L20.9556 39.1394C21.3952 39.2094 21.8567 39.2477 22.3131 39.2771C22.7716 39.3041 23.2309 39.3157 23.6895 39.3135C24.6059 39.3075 25.523 39.2509 26.4205 39.1059C27.3158 38.964 28.1994 38.7382 28.9921 38.3607C29.7818 37.9873 30.4748 37.434 30.8271 36.6988C30.9261 36.4915 31.1743 36.4042 31.381 36.5031C31.5877 36.6021 31.6751 36.8503 31.5761 37.057L31.5724 37.065L31.5695 37.0693Z" fill="#040606"/>
<path d="M26.9934 22.5189C27.1608 22.4336 27.3064 22.3697 27.4665 22.3165C27.6238 22.2628 27.7832 22.2212 27.944 22.1849C28.2657 22.1158 28.594 22.0845 28.9259 22.0828C29.5876 22.078 30.2667 22.2068 30.9094 22.4803C31.547 22.7578 32.1541 23.1866 32.5901 23.7578C33.029 24.3233 33.2867 25.0134 33.2837 25.6918C33.2823 25.8715 33.136 26.0171 32.9562 26.0156C32.8718 26.0156 32.7946 25.9829 32.7371 25.9298L32.7211 25.9144C32.2713 25.4982 31.8906 25.159 31.4713 24.9042C31.0637 24.6401 30.6372 24.4441 30.1815 24.2715C29.7237 24.1049 29.2389 23.9588 28.7243 23.8197L27.9331 23.6085L27.5211 23.4937C27.3865 23.455 27.2358 23.4112 27.1099 23.3626L27.0349 23.3336C26.8049 23.2446 26.6906 22.9861 26.7801 22.7555C26.8209 22.65 26.8995 22.5676 26.9934 22.5189Z" fill="#040606"/>
<path d="M15.1661 25.0887C15.2752 24.8135 15.4135 24.5974 15.5766 24.3827C15.7404 24.1714 15.9274 23.9806 16.132 23.8075C16.5403 23.4603 17.0309 23.1896 17.5746 23.031C18.1169 22.8743 18.7203 22.8336 19.2888 22.9704C19.8551 23.1029 20.3711 23.408 20.7111 23.8433C20.8064 23.9656 20.7838 24.143 20.6616 24.2385L20.4803 24.2983H20.4599C19.9628 24.282 19.5581 24.2755 19.1738 24.338C18.7916 24.3884 18.435 24.4873 18.0696 24.611C17.7064 24.7421 17.3344 24.8942 16.9457 25.0659L16.346 25.3295C16.1407 25.4154 15.9209 25.5143 15.7018 25.5837L15.6414 25.6025C15.4376 25.6659 15.2199 25.553 15.1559 25.3485C15.1282 25.2604 15.134 25.1694 15.1661 25.0887Z" fill="#040606"/>
<path d="M13.6848 32.4108C13.6848 32.4108 22.2978 32.2054 22.9012 25.4575C22.9012 25.4575 23.0046 26.7677 23.2448 28.0537C23.4464 29.1288 23.7434 30.1879 24.1554 30.45C25.0609 31.0244 27.8123 32.8293 27.8123 32.8293L21.198 34.8179C21.198 34.8179 13.9163 34.0698 13.6848 32.4108Z" fill="#F7BF7F"/>
<path d="M13.6746 31.9957C13.9112 31.9892 14.1754 31.9681 14.4272 31.9419C14.682 31.9141 14.936 31.8822 15.19 31.8413C15.6966 31.7605 16.2003 31.6551 16.6938 31.5197C17.6823 31.2482 18.638 30.8646 19.4998 30.3332C20.3536 29.7967 21.1143 29.1083 21.6449 28.2602C22.193 27.4217 22.4841 26.4354 22.5955 25.4294L22.5962 25.4229C22.6144 25.2548 22.7658 25.1325 22.9347 25.1507C23.1014 25.1695 23.2222 25.3182 23.2076 25.484C23.1087 26.5724 22.8059 27.6699 22.2119 28.6138C21.6361 29.569 20.8049 30.3449 19.8863 30.9431C18.9612 31.5371 17.9451 31.9621 16.9049 32.2672C16.3845 32.4194 15.856 32.5402 15.3225 32.634C14.7846 32.7272 14.2605 32.7978 13.6942 32.8257C13.465 32.837 13.2699 32.6601 13.2597 32.431C13.2481 32.2024 13.4242 32.0074 13.6535 31.9965L13.66 31.9957H13.6746Z" fill="#231F20"/>
<path d="M11.047 34.4425C11.047 34.4425 15.9369 38.8643 20.8843 39.4264C25.8317 39.9869 29.9777 39.1395 31.1984 36.8846C25.903 40.4111 16.6691 37.7276 13.6848 34.4513C14.1041 33.1752 14.0531 33.0916 14.0182 32.8326C13.8392 32.6693 11.5099 33.9571 11.5099 33.9571L11.047 34.4425Z" fill="#D69861"/>
<path d="M7.96143 32.2025C7.96216 31.4341 8.38142 30.5554 10.707 30.5227C10.707 30.5227 14.0327 30.4579 14.1302 32.105C14.227 33.7521 11.8367 35.173 11.0462 35.1411C10.255 35.1084 7.95924 33.9626 7.96143 32.2025Z" fill="#040606"/>
<path d="M10.6204 31.3641C10.6655 31.5797 10.2201 31.8563 9.62468 31.9805C9.03 32.1059 8.51029 32.0317 8.46589 31.8148C8.42004 31.5984 8.8655 31.3221 9.46091 31.1967C10.0556 31.0724 10.5753 31.1472 10.6204 31.3641Z" fill="#53ADB4"/>
<path d="M31.5695 37.0693C31.33 37.5387 30.9858 37.9464 30.5942 38.2739C30.2018 38.6023 29.7651 38.8557 29.3167 39.0587C28.4156 39.4627 27.4686 39.6774 26.5246 39.8084C25.5783 39.9392 24.6299 39.9765 23.6851 39.9626C23.212 39.9546 22.7411 39.9322 22.2694 39.8934C21.7977 39.8534 21.3304 39.8053 20.8522 39.7189L20.6702 39.6811L20.4992 39.6373L20.1556 39.5492C19.9285 39.488 19.6971 39.4363 19.4721 39.3681L18.7967 39.1554C18.6846 39.119 18.5703 39.0871 18.4604 39.0462L18.1285 38.9233C17.9079 38.8409 17.6859 38.7616 17.4668 38.6751L16.8161 38.3985C16.5977 38.3098 16.3874 38.2048 16.1748 38.1031C15.9638 37.9987 15.7476 37.9058 15.5423 37.7906C14.7031 37.3636 13.8995 36.8699 13.125 36.3386C12.3506 35.8015 11.611 35.2293 10.9246 34.5654L10.8599 34.5029L10.8759 34.4133L11.2173 32.5413C11.2325 32.4574 11.3126 32.4028 11.3949 32.4182C11.4771 32.4327 11.5317 32.5114 11.5186 32.5928L11.218 34.4716L11.1692 34.3201C11.836 34.9374 12.5857 35.4944 13.3529 36.0016C14.1251 36.506 14.9229 36.9725 15.7527 37.3721C15.9565 37.4813 16.1705 37.5679 16.3786 37.6655C16.589 37.7608 16.7965 37.8582 17.0126 37.9407L17.6532 38.1969C17.8693 38.2768 18.087 38.349 18.3039 38.4255L18.6293 38.5381C18.7392 38.5753 18.8498 38.6043 18.9604 38.6373L19.6221 38.8292C19.8426 38.8921 20.069 38.937 20.2917 38.9916L20.6273 39.0704L20.7947 39.1096L20.9556 39.1394C21.3952 39.2094 21.8567 39.2477 22.3131 39.2771C22.7716 39.3041 23.2309 39.3157 23.6895 39.3135C24.6059 39.3075 25.523 39.2509 26.4205 39.1059C27.3158 38.964 28.1994 38.7382 28.9921 38.3607C29.7818 37.9873 30.4748 37.434 30.8271 36.6988C30.9261 36.4915 31.1743 36.4042 31.381 36.5031C31.5877 36.6021 31.6751 36.8503 31.5761 37.057L31.5724 37.065L31.5695 37.0693Z" fill="#040606"/>
<path d="M15.3421 32.918C14.457 33.2447 15.6566 33.3436 16.268 33.249C16.8809 33.1551 23.7586 31.9243 23.359 28.6059C23.0591 26.1305 22.6537 28.86 21.7249 29.9277C19.5667 32.4105 15.3421 32.918 15.3421 32.918Z" fill="#FCD4AE"/>
<path d="M10.6385 52.9068C10.6385 52.9068 10.929 51.6703 11.6321 51.5523C12.3345 51.4343 12.574 51.6237 12.4779 51.7641C12.3811 51.9055 11.6518 51.8573 11.4159 52.2111C11.1801 52.5648 10.7565 53.343 10.6385 52.9068Z" fill="#FCD4AE"/>
<path d="M13.8813 52.6837C13.8813 52.6837 13.9359 51.6939 14.5721 51.4116C15.2083 51.129 15.7738 51.0576 15.8444 51.2936C15.915 51.5293 14.8553 51.3875 14.5255 52.0477C14.1958 52.707 14.0153 53.2014 13.8813 52.6837Z" fill="#FCD4AE"/>
<path d="M13.203 50.1657C13.203 50.1657 13.9811 49.3972 14.4484 49.4503C14.9171 49.5027 15.1551 49.8478 15.0409 49.9272C14.9258 50.0065 14.6602 49.5917 14.4047 49.7066C14.1485 49.8208 12.938 50.572 13.203 50.1657Z" fill="#FCD4AE"/>
<path d="M21.1842 48.8602C21.1842 48.8602 22.2797 48.4001 22.9158 48.6293C22.9864 49.7779 23.108 51.5453 23.108 51.5453C23.108 51.5453 21.856 51.8982 20.8312 51.5453C20.9724 50.4499 21.1842 48.8602 21.1842 48.8602Z" fill="#C1C0B8"/>
<path d="M21.2125 51.292C21.7846 51.4134 22.399 51.3363 22.7425 51.2723C22.7083 50.7737 22.6385 49.7407 22.5868 48.9147C22.2629 48.8914 21.8203 48.9983 21.5 49.1097C21.4455 49.5218 21.3181 50.4819 21.2125 51.292ZM21.8785 52.0483C21.5081 52.0483 21.1012 52.0045 20.7183 51.872L20.4512 51.7805L20.4876 51.5007C20.6295 50.4054 20.842 48.8144 20.842 48.8144L20.8675 48.6176L21.0509 48.5405C21.1754 48.4888 22.292 48.0361 23.033 48.3046L23.247 48.3811L23.2608 48.6091C23.3307 49.743 23.4515 51.5038 23.453 51.5211L23.4726 51.8021L23.2018 51.878C23.1654 51.8888 22.5868 52.0483 21.8785 52.0483Z" fill="#353436"/>
<path d="M27.4032 48.6292C27.4032 48.6292 28.7781 48.1197 29.3095 48.5602C29.3466 49.2488 29.597 51.2621 29.597 51.2621C29.597 51.2621 28.1805 51.7927 27.0851 51.0503L27.4032 48.6292Z" fill="#C1C0B8"/>
<path d="M27.457 50.87C28.0961 51.2019 28.8356 51.1006 29.2171 51.0119C29.1537 50.4837 29.0234 49.3784 28.9761 48.768C28.6908 48.6688 28.1369 48.762 27.7183 48.8894L27.457 50.87ZM28.4804 51.793C27.9855 51.793 27.4112 51.6898 26.8907 51.3372L26.7146 51.2172L27.0873 48.3785L27.2824 48.3057C27.5437 48.209 28.8779 47.7532 29.53 48.294L29.6465 48.391L29.6552 48.5423C29.6909 49.2104 29.9377 51.1998 29.9406 51.2201L29.9733 51.491L29.7186 51.5871C29.6807 51.6007 29.1545 51.793 28.4804 51.793Z" fill="#353436"/>
<path d="M36.2549 22.7742C36.7324 23.0751 37.4304 22.2002 37.4304 22.2002C37.4304 22.2002 37.5359 22.8451 37.386 23.8277C37.5629 23.6224 38.5171 24.0139 38.5171 24.0139C38.5171 24.0139 37.8271 24.033 37.8104 24.1632C37.7929 24.2943 38.6227 24.4572 38.6583 24.7469C38.2515 24.576 38.2194 24.9471 38.2194 24.9471C38.2194 24.9471 38.4633 24.9471 38.6583 25.3002C38.2696 25.1589 38.8265 25.8214 38.8265 25.8214C38.8265 25.8214 38.8389 25.9894 38.5805 25.8214C38.817 26.1663 39.0463 26.4668 39.4532 26.5194C39.1526 26.6431 39.0252 26.6072 39.0252 26.6072C39.0252 26.6072 39.7363 26.8199 39.8593 27.0141C39.4 26.8731 39.435 27.2618 39.435 27.2618C39.435 27.2618 39.9656 27.2035 39.9656 27.5333C39.665 27.4031 39.6825 27.7946 39.6825 27.7946L40.0362 28.0414L39.8943 28.3746L38.8876 28.5361L36.2549 22.7742Z" fill="#4C2A20"/>
</g>
<path d="M34.8654 34.0247C34.8654 34.7592 33.9432 35.354 32.8048 35.354C31.6664 35.354 30.7434 34.7592 30.7434 34.0247C30.7434 33.2903 31.6664 32.6958 32.8048 32.6958C33.9432 32.6958 34.8654 33.2903 34.8654 34.0247Z" fill="#F8A185"/>
<path d="M74.5081 14.2645C73.2801 14.8795 72.9293 16.3702 73.1222 17.7044C73.4024 19.8095 75.2098 20.5476 76.9821 20.284C78.1759 20.1259 79.6848 19.1433 80.1244 18.8979C82.5628 19.3363 84.178 23.5661 79.6848 25.6717C77.8425 26.5313 74.7716 26.4449 72.7881 25.9172C69.7346 25.1273 67.8392 23.1787 66.9629 20.2314C66.3828 18.1607 66.3303 16.0549 67.0328 14.0183C67.8218 11.6848 69.7346 9.92994 71.5784 9.10511C73.9119 8.05194 78.0711 7.66616 81.8087 9.82505C82.704 13.1761 79.58 14.9492 77.2631 14.0183C76.2281 13.7382 75.3684 13.8261 74.5081 14.2645Z" fill="#53ADB4"/>
<path d="M94.9731 14.3876C94.3405 14.4234 93.9031 14.4576 93.8317 14.4576C93.9555 17.7046 93.8143 23.1623 93.4809 25.5671C91.9545 27.1992 88.0407 26.6024 87.2684 22.5837C87.093 21.6002 86.9351 17.7569 86.97 14.4576C85.7945 14.5281 84.4785 14.5457 83.3197 14.3353C82.1791 12.8787 82.4244 8.78957 85.8119 8.57848C88.0764 8.4562 95.5692 8.54427 97.5876 8.52607C98.5353 9.75481 98.9917 14.1417 94.9731 14.3876Z" fill="#53ADB4"/>
<path d="M105.469 16.0726C105.54 15.9313 105.627 15.8082 105.697 15.6859C106.977 13.3698 108.54 10.5094 109.366 9.10513C111.348 7.94715 115.701 8.08763 115.928 11.7198C116.104 14.5628 115.876 22.2849 115.701 25.4259C112.682 27.3912 109.628 25.9695 109.488 23.3025C109.435 22.2325 109.505 21.6181 109.576 19.4419L109.435 19.4242C109.366 19.5292 109.294 19.6173 109.224 19.7401C108.821 20.3713 106.382 24.6011 105.767 25.5837C102.889 27.444 99.5021 25.9004 99.0814 22.3898C98.7481 19.5647 98.8878 11.3167 98.9759 9.40364C100.819 7.42089 105.118 8.45593 105.364 10.9481C105.557 12.931 105.398 13.5801 105.398 16.0367L105.469 16.0726Z" fill="#53ADB4"/>
<path d="M133.936 24.0042C133.27 26.3209 128.091 27.6545 127.215 23.6185C126.442 19.9682 125.81 16.1773 125.547 14.1074C125.495 14.1074 125.442 14.1074 125.372 14.1074C125.038 15.5281 124.705 16.9495 124.371 18.4243C123.775 20.9682 123.055 24.8996 122.792 25.8473C118.334 27.4799 116.264 24.6542 117.053 20.5477C117.755 16.9145 119.756 11.0181 120.915 8.75441C123.423 7.94719 128.828 6.80587 130.9 11.8253C131.882 14.212 133.234 20.2315 133.936 24.0042Z" fill="#53ADB4"/>
<path d="M144.046 19.7051C144.046 19.0205 143.801 18.6519 143.274 18.5465C142.853 18.4765 142.398 18.4941 141.958 18.4941C141.888 18.4941 141.765 18.6338 141.765 18.7052C141.748 19.3196 141.748 19.8094 141.748 20.5476C142.906 21.249 144.046 20.4427 144.046 19.7051ZM147.539 14.7382C151.048 17.371 150.365 23.1264 147.574 25.005C144.065 27.3734 136.659 26.2859 135.132 24.8113C134.571 22.6888 134.746 10.7713 135.044 9.21054C137.501 7.27962 141.151 8.52575 141.291 10.579C141.414 12.4053 141.344 13.3341 141.344 13.6506L141.361 13.685L141.432 13.7206L141.467 13.7032C141.73 13.5451 144.888 12.7388 147.539 14.7382Z" fill="#53ADB4"/>
<path d="M161.194 14.5986C161.247 12.6325 161.212 10.1932 161.37 9.24556C163.529 7.52565 167.811 8.61383 167.811 11.9657C167.811 13.7206 167.811 19.3196 167.793 23.7764C167.793 24.3906 167.775 25.2336 167.739 25.6359C166.95 26.5139 161.72 27.1463 161.317 23.9519C161.194 23.0397 161.159 21.0213 161.159 20.2664C160.036 20.2664 159.036 20.2664 157.877 20.2664C157.877 21.9866 157.877 23.8287 157.877 25.655C156.912 26.5313 151.665 27.4966 151.366 23.1787C151.225 21.249 151.016 12.703 151.225 9.50854C153.56 7.57879 157.508 8.54396 157.773 11.2108C157.93 12.7555 157.825 14.4231 157.825 14.5986C158.984 14.5986 160.071 14.5986 161.194 14.5986Z" fill="#53ADB4"/>
<path d="M185.835 9.22761C185.255 11.3691 185.466 20.8992 185.764 22.4605C186.52 26.426 190.38 26.9879 191.836 25.3911C192.259 22.4431 192.363 14.1075 192.03 12.0009C191.38 7.78866 187.45 7.78866 185.835 9.22761ZM178.482 19.8453C178.482 19.1611 178.236 18.7753 177.692 18.6872C177.271 18.5991 176.832 18.6173 176.393 18.6173C176.323 18.6173 176.183 18.7577 176.183 18.8276C176.164 19.4421 176.183 19.9334 176.183 20.6707C177.323 21.3724 178.482 20.5651 178.482 19.8453ZM181.974 14.8615C185.484 17.4941 184.799 23.2671 182.009 25.1275C178.482 27.4968 171.093 26.426 169.567 24.9348C168.988 22.8114 169.18 10.8952 169.479 9.33395C171.936 7.40288 175.569 8.64902 175.709 10.7024C175.831 12.5277 175.779 13.4749 175.779 13.774L175.797 13.809L175.867 13.8431H175.902C176.148 13.6685 179.307 12.8787 181.974 14.8615Z" fill="#53ADB4"/>
<path d="M206.687 1.33071C208.335 1.50686 209.512 4.12141 207.757 5.77006C205.809 7.63125 201.439 8.12257 197.368 7.24547C196.209 5.92874 196.472 3.01502 199.245 3.05069C201.387 3.05069 204.106 3.52381 206.687 1.33071ZM200.701 16.0726C200.789 15.9313 200.86 15.8082 200.93 15.6859C202.211 13.3698 203.773 10.5094 204.598 9.10513C206.58 7.94715 210.934 8.08763 211.179 11.7198C211.355 14.5628 211.109 22.2849 210.951 25.4259C207.915 27.3912 204.86 25.9695 204.738 23.3025C204.686 22.2325 204.756 21.6181 204.809 19.4419L204.686 19.4242C204.598 19.5292 204.527 19.6173 204.457 19.7401C204.054 20.3713 201.632 24.6011 201.001 25.5837C198.122 27.444 194.735 25.9004 194.314 22.3898C193.998 19.5647 194.121 11.3167 194.209 9.40364C196.052 7.42089 200.351 8.45593 200.597 10.9481C200.789 12.931 200.632 13.5801 200.632 16.0367L200.701 16.0726Z" fill="#53ADB4"/>
<path d="M78.4705 33.8394C77.295 33.5933 76.6275 32.8392 76.5053 31.698C76.4696 31.2424 76.4878 30.7329 76.5752 30.2595C76.6989 29.3644 77.2601 28.7508 78.1547 28.5041C78.7872 28.2587 79.4183 28.2231 80.1032 28.3985C81.4192 28.6801 82.2439 29.8031 82.1041 31.1716C82.1041 31.5924 82.0153 31.997 81.8756 32.3647C81.4898 33.3829 80.577 33.9799 79.3302 33.9799C79.0325 33.9273 78.7515 33.91 78.4705 33.8394ZM71.0119 33.8394C69.8539 33.5933 69.2214 32.8392 69.0649 31.698C69.0117 31.2424 69.0467 30.7329 69.1173 30.2595C69.2752 29.3644 69.8539 28.7508 70.7317 28.5041C71.3643 28.2587 71.9953 28.2231 72.6439 28.3985C73.9955 28.6801 74.8377 29.8031 74.6979 31.1716C74.6448 31.5924 74.5924 31.997 74.4694 32.3647C74.0836 33.3829 73.1184 33.9799 71.9072 33.9799C71.6095 33.9273 71.2762 33.91 71.0119 33.8394ZM68.9237 35.1727C71.8898 34.8917 78.5761 34.9626 81.7176 35.2085C82.3844 36.1212 82.8407 40.5249 78.5761 40.5249C77.5927 40.5249 77.2077 40.5249 74.9258 40.5249C74.9258 40.789 74.9258 41.1052 74.9258 41.4203C75.9441 41.4203 78.8745 41.2448 80.3834 41.7535C81.4192 44.1054 80.612 46.1594 78.0142 46.2644C77.1021 46.3348 76.5933 46.2644 74.9258 46.2644C74.9258 46.6683 74.9258 47.0016 74.9258 47.3516C75.0313 47.3516 75.2067 47.3516 75.329 47.3516C77.2426 47.3516 79.1206 47.3516 81.0334 47.3516C82.3844 49.2478 81.9105 52.3188 78.5404 52.757C77.1021 52.9855 72.416 53.0037 71.1699 52.652C69.5023 52.2666 68.7839 51.0553 68.626 48.651C68.4855 46.2285 68.5379 38.1746 68.9237 35.1727Z" fill="#53ADB4"/>
<path d="M106.657 50.0725C106.516 52.5641 102.304 54.8103 100.216 50.8439C99.7952 50.0725 99.111 48.4223 98.4967 46.9659C98.4254 48.9312 98.2856 50.7916 98.1277 51.9329C96.618 53.5467 92.7224 52.9323 91.9858 48.9145C91.8978 48.4931 91.8279 47.5278 91.7922 46.2992C90.8438 48.5104 89.423 51.8092 89.0896 52.5823C84.2463 53.775 83.5613 50.2653 83.9828 48.7731C84.5098 46.9659 85.5448 45.6148 86.1417 44.3694C86.2115 44.2276 86.1759 43.9822 86.1067 43.8426C85.1234 41.7892 84.1233 39.7352 83.1399 37.6823C83.5271 35.2084 88.0363 34.033 89.2825 36.3838C90.177 38.0682 91.0905 40.2098 91.7398 41.8415C91.7573 39.3676 91.8803 36.9983 92.143 36.033C93.8106 34.5758 97.7943 34.594 98.4254 38.893C98.4967 39.4199 98.5491 40.2803 98.5666 41.3329C99.3913 39.4731 100.532 37.0682 101.726 35.1553C103.902 34.3663 107.288 36.0506 106.148 39.3499C105.639 40.8416 104.814 42.0169 103.936 43.825C103.866 43.9822 103.831 44.2108 103.902 44.3512C104.481 45.6148 105.973 48.3177 106.657 50.0725Z" fill="#53ADB4"/>
<path d="M131.355 43.5652C131.355 48.5207 127.338 52.5371 122.383 52.5371C117.428 52.5371 113.411 48.5207 113.411 43.5652C113.411 38.6104 117.428 34.5935 122.383 34.5935C127.338 34.5935 131.355 38.6104 131.355 43.5652Z" fill="#53ADB4"/>
<path d="M157.984 43.5652C157.984 48.5207 153.966 52.5371 149.011 52.5371C144.056 52.5371 140.039 48.5207 140.039 43.5652C140.039 38.6104 144.056 34.5935 149.011 34.5935C153.966 34.5935 157.984 38.6104 157.984 43.5652Z" fill="#53ADB4"/>
<path d="M184.612 43.5652C184.612 48.5207 180.594 52.5371 175.639 52.5371C170.684 52.5371 166.667 48.5207 166.667 43.5652C166.667 38.6104 170.684 34.5935 175.639 34.5935C180.594 34.5935 184.612 38.6104 184.612 43.5652Z" fill="#53ADB4"/>
<path d="M211.24 43.5652C211.24 48.5207 207.222 52.5371 202.267 52.5371C197.313 52.5371 193.296 48.5207 193.296 43.5652C193.296 38.6104 197.313 34.5935 202.267 34.5935C207.222 34.5935 211.24 38.6104 211.24 43.5652Z" fill="#53ADB4"/>
</svg>
