<svg width="81" height="120" viewBox="0 0 81 120" fill="none" xmlns="http://www.w3.org/2000/svg">
<path d="M16.9818 52.3143C16.9818 52.3143 12.727 47.7866 8.43949 53.5892C6.6222 47.9534 9.60749 44.6594 9.60749 44.6594C9.60749 44.6594 6.70496 44.8386 5.58326 47.9261C3.90896 40.1426 7.22856 36.7231 7.22856 36.7231C7.22856 36.7231 5.62829 34.3938 2.4015 38.464C3.83134 31.6437 8.51711 27.4052 8.51711 27.4052C8.51711 27.4052 4.84504 25.7422 1.26367 29.3744C3.19147 20.8444 10.7454 19.066 10.7454 19.066C10.7454 19.066 10.0742 16.2731 8.05803 14.8618C11.3603 13.9235 14.2939 15.7502 14.2939 15.7502C14.2939 15.7502 13.3776 10.6895 11.6622 9.46912C15.2147 9.19792 17.6676 12.5761 17.6676 12.5761C17.6676 12.5761 16.8595 10.3302 19.1136 5.59763C19.7946 9.83382 21.7072 11.4742 21.7072 11.4742C21.7072 11.4742 22.4636 6.50626 27.7766 3.9354C25.4785 9.86421 28.0198 10.8492 28.0198 10.8492C28.0198 10.8492 27.1633 6.75485 36.9644 1.84613C33.7273 6.79616 36.3776 8.2729 36.3776 8.2729C36.3776 8.2729 42.8683 0.536934 51.0586 4.19257C46.686 5.41994 46.7717 7.67207 46.7717 7.67207C46.7717 7.67207 54.6932 5.4511 59.2808 9.85252C54.9745 10.4463 53.038 12.8886 53.038 12.8886C53.038 12.8886 63.1944 10.7394 69.622 21.34C66.7643 20.3222 64.714 21.5504 64.714 21.5504C64.714 21.5504 73.806 25.7796 76.9052 36.0334C72.4149 33.0036 70.102 34.446 70.102 34.446C70.102 34.446 78.9765 37.691 78.3796 50.3645C76.6815 46.6637 73.495 46.493 73.495 46.493C73.495 46.493 79.3693 50.8679 77.8076 58.9554C75.8368 54.0248 73.9891 54.0731 73.9891 54.0731C73.9891 54.0731 80.1548 64.8865 73.4288 74.1195C73.5418 65.3206 70.7761 64.9528 70.7761 64.9528C70.7761 64.9528 73.7093 81.4378 64.3516 94.402C64.693 90.3528 62.9341 88.0072 62.9341 88.0072C62.9341 88.0072 63.6409 95.8507 57.1783 100.225C58.6948 95.6574 56.9461 94.7542 56.9461 94.7542C56.9461 94.7542 37.8692 54.8049 16.9818 52.3143Z" fill="#4C2A20"/>
<path d="M57.5184 94.2742C57.9711 94.649 58.8174 95.7151 58.4091 98.2945C62.6811 94.1246 62.2198 88.1381 62.2136 88.0711L61.9938 85.5485L63.5126 87.5739C63.575 87.6565 64.7494 89.2564 65.0502 92.0524C72.5578 79.8309 70.0914 65.2333 70.0641 65.0798L69.8919 64.1065L70.8714 64.2366C71.3834 64.3036 73.7213 64.9831 74.1031 71.6577C78.3526 63.4191 73.4158 54.5275 73.3613 54.4308L72.7659 53.3827L73.9706 53.3507C74.2964 53.3476 75.7178 53.4785 77.3457 56.3058C77.3567 50.3481 73.1119 47.1087 73.0643 47.0728L71.1434 45.642L73.5343 45.7698C73.6511 45.7769 75.8254 45.921 77.6543 47.9363C77.1283 37.9505 70.1701 35.2425 69.8521 35.124L68.472 34.612L69.7196 33.832C69.8163 33.772 71.8494 32.5578 75.5705 34.4117C72.1495 25.8926 64.4914 22.2455 64.4088 22.2066L63.1721 21.6322L64.3418 20.9301C64.4174 20.8849 65.863 20.0386 68.0278 20.2443C61.9377 11.8623 53.2798 13.5767 53.1886 13.5954L51.2248 14.0108L52.4717 12.439C52.5481 12.3439 54.1557 10.3598 57.6103 9.44886C53.3001 6.65356 47.0362 8.3493 46.9668 8.368L46.0854 8.61424L46.0496 7.69936C46.0457 7.60195 46.0114 5.64751 48.9267 4.2183C42.2303 2.57011 37.1618 8.46463 36.9312 8.73894L36.5462 9.19559L36.0249 8.9057C35.9274 8.85037 35.0617 8.33604 34.7453 7.05177C34.5021 6.06519 34.6502 4.91887 35.1832 3.62759C28.3395 7.61131 28.7261 10.6856 28.7307 10.7183L29.0043 12.0228L27.7582 11.5233C27.6616 11.4859 26.8004 11.1204 26.3539 9.85564C25.9635 8.74594 26.0079 7.29803 26.4841 5.53451C23.0078 8.00562 22.4279 11.5428 22.4219 11.5833L22.2255 12.8723L21.2362 12.0236C21.1662 11.9628 19.813 10.7737 18.9236 7.95263C17.9099 10.8921 18.3467 12.3252 18.3519 12.3424L19.7583 16.6822L17.0819 13.0016C17.0643 12.9775 15.5407 10.9303 13.2774 10.3373C14.3764 12.2972 14.9304 15.2047 15.0059 15.6216L15.2965 17.2261L13.9115 16.365C13.8902 16.351 11.9776 15.1938 9.62692 15.3301C10.9517 16.884 11.4251 18.7972 11.4488 18.8969L11.6184 19.6037L10.9116 19.7705C10.6504 19.8328 5.05165 21.2457 2.63469 27.3647C5.84013 25.4437 8.67478 26.682 8.81568 26.7459L9.82088 27.201L9.00294 27.9413C8.96398 27.9764 5.62918 31.0515 3.83557 36.0529C4.56312 35.5542 5.2654 35.3141 5.94572 35.3375C7.14902 35.3788 7.75936 36.2173 7.82482 36.3124L8.1603 36.801L7.74782 37.2265C7.72351 37.253 5.26845 39.9314 5.96489 45.826C7.44344 44.092 9.45555 43.944 9.56364 43.9377L11.3377 43.8279L10.1435 45.1449C10.0455 45.2555 7.90765 47.7274 8.78217 52.0517C10.0485 50.7214 11.429 50.0053 12.8994 49.918C15.085 49.7894 16.7553 51.1165 17.3118 51.627C26.1155 52.7928 35.5588 60.3347 45.3849 74.047C52.1974 83.5535 56.8528 92.9135 57.5184 94.2742ZM55.8226 102.017L56.492 99.9973C57.6672 96.4577 56.7289 95.5031 56.5957 95.3901L56.3447 95.2943L56.2933 95.0659C56.2466 94.967 51.4586 85.003 44.1972 74.8731C37.5507 65.6019 27.42 54.2874 16.8968 53.0328L16.636 53.0016L16.4563 52.8107C16.4295 52.7826 14.9222 51.2467 12.9724 51.3628C11.5888 51.4493 10.2601 52.3431 9.02118 54.0186L8.18314 55.1524L7.75086 53.8113C6.61638 50.292 7.23334 47.6222 7.95784 45.9943C7.32623 46.3995 6.66508 47.0681 6.26383 48.1724L5.40537 50.5352L4.87662 48.0781C3.52658 41.8009 5.29674 38.2053 6.2191 36.847C6.12075 36.8104 6.00511 36.7847 5.87271 36.7831H5.85837C5.40326 36.7831 4.43375 37.0652 2.96862 38.9129L1.06544 41.3139L1.69402 38.316C2.78143 33.1267 5.65287 29.4189 7.13078 27.7886C5.91619 27.6288 3.85077 27.7816 1.77927 29.8825L0 31.6874L0.558595 29.2155C2.22128 21.859 7.79505 19.292 9.83452 18.586C9.52561 17.749 8.84919 16.2988 7.64371 15.4548L6.39779 14.5828L7.86137 14.1667C10.0157 13.5534 12.0059 14.0046 13.2723 14.4768C12.8232 12.718 12.0759 10.6513 11.2439 10.059L9.61382 8.90102L11.6077 8.74828C13.8445 8.57761 15.664 9.66784 16.8299 10.6607C16.9364 9.42159 17.3391 7.64092 18.4609 5.28748L19.4593 3.19118L19.8283 5.48308C20.1723 7.62534 20.8496 9.05843 21.3899 9.91409C22.0322 8.13498 23.6358 5.1363 27.4621 3.28471L29.1149 2.4836L28.4518 4.19726C27.5228 6.59045 27.4379 8.05861 27.607 8.94077C28.3201 7.11957 30.4631 4.29389 36.6405 1.19934L39.0376 7.62939e-06L37.5702 2.2428C36.0817 4.5191 35.9695 5.8992 36.1386 6.65667C36.1916 6.89591 36.2766 7.08607 36.3654 7.23335C38.1508 5.44801 44.1474 0.315628 51.3534 3.53175L53.1824 4.34766L51.2537 4.88847C49.4005 5.40903 48.4607 6.10651 47.9846 6.67149C50.5671 6.22574 56.1032 5.80102 59.7822 9.32963L60.8607 10.3653L59.3801 10.5687C57.5846 10.8165 56.2286 11.4103 55.2834 11.9854C56.319 11.9886 57.6282 12.0914 59.0855 12.4351C62.2697 13.1855 66.7903 15.274 70.241 20.9644L71.2946 22.7038L69.3791 22.0219C68.2398 21.6151 67.2548 21.6057 66.5152 21.7195C69.2996 23.4168 75.1778 27.8166 77.5982 35.8246L78.1858 37.7705L76.501 36.6343C74.7554 35.456 73.3831 35.0087 72.3918 34.8785C73.1727 35.4085 74.0946 36.1542 75.004 37.1704C77.0504 39.4568 79.4225 43.6073 79.103 50.3988L78.9628 53.3694L77.7229 50.6661C77.4245 50.0154 77.0777 49.4886 76.713 49.0592C78.1258 51.2786 79.3766 54.6467 78.5178 59.0925L78.051 61.5122L77.1353 59.2242C76.7278 58.201 76.3303 57.4147 75.9641 56.8084C76.3264 57.8441 76.688 59.0987 76.9429 60.5046C77.8959 65.7515 76.8829 70.6065 74.0135 74.5458L72.6763 76.381L72.7051 74.1101C72.7534 70.3431 72.2734 68.2452 71.7645 67.0818C71.9219 68.8694 72.0427 71.6032 71.7949 74.8707C71.3889 80.2026 69.8708 87.9924 64.9387 94.8259L63.4129 96.9401L63.6311 94.3412C63.7293 93.1746 63.6397 92.1592 63.4705 91.3137C63.0131 94.123 61.6252 98.0888 57.5838 100.824L55.8226 102.017Z" fill="#040606"/>
<path d="M12.6676 44.3095C12.6676 44.3095 7.51398 44.9516 7.72922 36.9919C7.94383 29.0315 14.899 29.6768 16.6209 32.402C18.3424 35.1271 12.6676 44.3095 12.6676 44.3095Z" fill="#F7BF7F"/>
<path d="M12.2765 43.7008L12.1447 43.8084L12.0914 43.8754L12.0741 43.9042L12.0969 43.8777L12.1425 43.8248L12.2338 43.7164L12.4104 43.4951C12.5291 43.3478 12.6388 43.1935 12.7514 43.0408C12.9705 42.733 13.1873 42.4212 13.3861 42.1002C13.5907 41.7815 13.7833 41.4573 13.9675 41.1269C14.1578 40.7996 14.3297 40.4645 14.4993 40.127C15.1638 38.7742 15.7534 37.3793 16.1668 35.9547C16.3693 35.244 16.5236 34.5169 16.5291 33.8195C16.526 33.4758 16.4956 33.1322 16.3799 32.854C16.277 32.5976 16.0533 32.317 15.8122 32.0918C15.5656 31.8635 15.2801 31.6679 14.9741 31.5066C14.6652 31.3484 14.3358 31.2268 13.9985 31.138C13.3221 30.965 12.6053 30.9346 11.9285 31.0733C11.2497 31.205 10.6211 31.5229 10.1045 31.9663C9.59316 32.4199 9.18216 32.9919 8.90521 33.6379C8.62357 34.2824 8.45158 34.983 8.35417 35.6991C8.26198 36.4161 8.25131 37.1525 8.27507 37.8897C8.32222 39.3493 8.62054 40.8206 9.35174 41.9537C9.71855 42.514 10.204 42.9644 10.7742 43.2481C11.0588 43.3907 11.3639 43.4912 11.6783 43.5481C11.8351 43.5785 11.994 43.5933 12.1517 43.6026C12.23 43.6065 12.3091 43.6073 12.3846 43.605L12.4963 43.5995L12.5474 43.5956L12.5693 43.5925L12.5794 43.5917L12.4537 43.6167L12.2765 43.7008ZM13.0579 44.9173L12.8631 45.0038L12.72 45.0303L12.6942 45.0326L12.6448 45.035L12.5535 45.0381L12.3791 45.0373C12.2649 45.0342 12.1532 45.0272 12.0421 45.0155C11.8205 44.9921 11.6013 44.9578 11.3867 44.9048C10.9554 44.8051 10.5405 44.6391 10.1518 44.4271C9.37153 44.0016 8.73314 43.3478 8.29697 42.6161C7.85644 41.8843 7.5932 41.0879 7.42635 40.2969C7.26348 39.5028 7.20106 38.7072 7.18743 37.9193C7.18073 37.1346 7.20963 36.3444 7.33042 35.5518C7.4562 34.7624 7.66622 33.9746 8.0123 33.2296C8.35324 32.4853 8.86312 31.798 9.50549 31.2572C10.1532 30.7226 10.9423 30.3594 11.7596 30.2098C12.577 30.0501 13.4211 30.0945 14.2162 30.3041C15.0107 30.5161 15.7727 30.8925 16.3912 31.4777C16.6981 31.7762 16.972 32.0949 17.1577 32.5469C17.3273 32.9802 17.3546 33.4119 17.3556 33.8249C17.3418 34.6541 17.1628 35.4279 16.9452 36.1784C16.5033 37.6785 15.8691 39.0859 15.2085 40.4723L14.7139 41.5134C14.5465 41.8594 14.3851 42.2077 14.2238 42.5569C14.0579 42.9036 13.9035 43.2582 13.7437 43.6104L13.5109 44.1435L13.3967 44.4131L13.341 44.5503L13.3121 44.6188L13.2984 44.6539L13.271 44.6983L13.2086 44.7802L13.0579 44.9173Z" fill="#040606"/>
<path d="M13.2331 40.134C13.2331 40.134 16.1874 34.6479 12.1758 35.2705C7.25145 36.0358 11.1007 42.9683 11.1007 42.9683C11.1007 42.9683 11.3494 39.8099 13.2331 40.134Z" fill="#C6424F"/>
<path d="M10.7516 42.8264C10.2179 41.6256 9.78565 40.3943 9.53605 39.0796C9.41884 38.4227 9.34582 37.7416 9.4356 37.0247C9.48368 36.6677 9.57719 36.2968 9.76742 35.9422C9.95094 35.5869 10.2569 35.2627 10.6213 35.0531C10.9866 34.8419 11.3862 34.746 11.7643 34.7086C12.1479 34.6782 12.4959 34.686 12.8733 34.7406C13.2453 34.7959 13.6434 34.9089 14.02 35.1458C14.3984 35.378 14.7232 35.77 14.8839 36.1939C15.052 36.6179 15.0854 37.0418 15.0726 37.4314C15.0574 37.8242 14.9911 38.1912 14.9013 38.5427C14.8115 38.8934 14.6982 39.2308 14.568 39.5573C14.4334 39.8893 14.3001 40.1886 14.1137 40.5314C13.89 40.9398 13.3777 41.0902 12.9692 40.8673C12.5598 40.6444 12.409 40.1317 12.6319 39.7225L12.6693 39.6618L12.6754 39.6524C12.8161 39.4404 12.9722 39.163 13.0992 38.9074C13.2295 38.6456 13.3442 38.3783 13.4365 38.1118C13.6228 37.585 13.708 37.0324 13.5978 36.6623C13.5445 36.4768 13.4532 36.3365 13.2949 36.2126C13.1366 36.0887 12.9104 35.9898 12.6511 35.9305C12.3954 35.8682 12.0955 35.8378 11.8368 35.8401C11.5741 35.8456 11.33 35.89 11.1275 35.9874C10.7217 36.1682 10.4539 36.6132 10.3421 37.1751C10.2265 37.733 10.2387 38.3541 10.3032 38.9682C10.4411 40.2018 10.7744 41.4494 11.1997 42.6363L11.2036 42.6449C11.2484 42.7727 11.1829 42.9114 11.0566 42.9574C10.9357 43.001 10.8033 42.9418 10.7516 42.8264Z" fill="#040606"/>
<path d="M33.3208 106.718L28.5937 119.277L15.3368 118.764C15.3368 118.764 12.5256 117.82 12.9161 114.947C13.3058 112.074 15.7837 108.511 19.5239 107.704C19.8588 105.43 20.6625 99.977 20.6625 99.977L19.5239 96.7141C19.5239 96.7141 13.4449 93.6804 17.5925 91.1804C17.9861 87.7414 19.4518 82.2404 21.5812 79.0578C21.0627 77.4143 16.8384 75.7521 17.5651 71.6889C18.292 67.6257 32.4511 63.3162 32.4511 63.3162L52.6448 62.2899L64.0029 68.8873C64.0029 68.8873 62.597 73.6823 58.0211 78.1336C57.8387 79.2417 59.4557 88.516 59.4557 88.516H60.7704C60.7704 88.516 62.7732 90.8196 59.5898 93.1668C59.6615 95.1205 59.921 95.4517 58.099 99.977C58.431 103.332 58.8424 106.718 58.8424 106.718L59.8719 107.704C59.8719 107.704 65.1531 108.44 66.1935 114.228C67.2346 120.016 60.4034 118.957 60.4034 118.957L50.6436 119.277L45.8416 106.718C45.8416 106.718 44.7171 108.032 33.3208 106.718Z" fill="#F7BF7F"/>
<path d="M61.2819 108.442C61.2819 108.442 66.3831 110.52 66.2529 114.621C66.1236 118.723 62.6175 118.885 62.6175 118.885L56.0918 119.098C56.0918 119.098 63.2301 117.368 63.4763 114.475C63.7218 111.581 61.2819 108.442 61.2819 108.442Z" fill="#D69861"/>
<path d="M55.3994 102.268L58.0544 99.5772L58.8423 106.718L58.0544 107.333C58.0544 107.333 56.8029 101.698 55.3994 102.268Z" fill="#D69861"/>
<path d="M19.4999 96.6751C19.4999 96.6751 13.4209 93.6414 17.5684 91.1414C17.9617 87.7024 19.4275 82.2014 21.5568 79.0188C21.0387 77.3753 16.8141 75.7131 17.541 71.6499C18.2686 67.5867 32.4271 63.2773 32.4271 63.2773L52.62 62.2517L63.9789 68.8484C63.9789 68.8484 62.573 73.6433 57.9971 78.0954C57.8139 79.2035 59.4317 88.477 59.4317 88.477H60.7464C60.7464 88.477 62.7484 90.7806 59.5658 93.1278C50.3094 103.337 19.4999 96.6751 19.4999 96.6751Z" fill="#EBEBE9"/>
<path d="M50.6428 120C50.3444 120 50.0755 119.816 49.968 119.535L45.166 106.977C45.0234 106.603 45.2104 106.186 45.5829 106.042C45.9578 105.9 46.3747 106.087 46.5173 106.46L51.1353 118.537L62.8254 118.155C63.1558 118.128 65.6223 117.834 65.5272 114.868C65.4742 113.233 64.5593 111.45 63.0787 110.102C61.6838 108.829 59.9802 108.122 58.5051 108.209C55.243 108.405 52.6791 110.057 52.0845 111.542C51.9357 111.913 51.5149 112.094 51.1447 111.945C50.7738 111.797 50.5937 111.376 50.741 111.005C51.4923 109.127 54.438 107.004 58.4193 106.765C60.2966 106.657 62.3508 107.48 64.0536 109.032C65.8428 110.664 66.9065 112.774 66.9728 114.822C67.0881 118.396 64.3645 119.509 62.9088 119.599L50.667 120H50.6428Z" fill="#231F20"/>
<path d="M20.1211 70.0875C20.1211 70.0875 28.4468 73.5732 34.8494 72.6451C41.2512 71.7162 44.7112 71.2767 45.136 71.0039C45.2474 71.5821 47.3671 70.9119 44.1681 73.8132C41.6206 76.1207 27.1539 76.4909 20.1211 70.0875Z" fill="#C1C0B8"/>
<path d="M12.7498 47.6051C12.7498 47.6051 9.6975 52.3065 11.975 60.0931C12.6061 62.2517 15.4027 72.6326 34.4068 72.2741C53.4105 71.9157 58.5413 59.7105 56.092 49.2914C55.5831 47.1266 54.0807 41.4456 52.2361 37.0262C49.5226 31.4598 43.6398 25.5427 30.8875 26.3781C10.0963 27.7403 12.7498 47.6051 12.7498 47.6051Z" fill="#F7BF7F"/>
<path d="M27.0657 79.3033C27.0548 79.1178 26.8132 74.7367 28.3656 72.1923L29.395 72.8204C28.0398 75.0414 28.2666 79.1903 28.2689 79.2324L27.0657 79.3033Z" fill="#353436"/>
<path d="M38.2318 79.1537C38.1492 78.9908 36.2274 75.1217 37.1213 71.9204L38.2824 72.2446C37.5133 75.0009 39.29 78.5755 39.308 78.6113L38.2318 79.1537Z" fill="#353436"/>
<path d="M18.5957 68.5414C18.5957 68.5414 21.4404 72.1331 31.8324 72.2835C50.4239 72.55 53.195 63.5337 53.195 63.5337C53.195 63.5337 40.131 73.9457 18.5957 68.5414Z" fill="#D69861"/>
<path d="M20.7639 30.0898C22.4604 29.1508 26.0737 29.5451 26.1275 30.3688C26.2304 31.9274 22.6293 30.6104 21.3392 31.8378C19.4443 33.6418 17.5046 34.3377 17.2702 33.7805C16.8638 32.8142 19.1515 30.9829 20.7639 30.0898Z" fill="#FCD4AE"/>
<path d="M41.8984 70.9642C41.8984 70.9642 51.5811 71.5977 54.9873 61.7795C60.0527 47.1811 49.4941 32.8345 49.4941 32.8345C49.4941 32.8345 60.938 61.7795 41.8984 70.9642Z" fill="#D69861"/>
<path d="M13.3577 47.997C13.3264 48.0453 10.5237 52.5543 12.6689 59.8905L12.6926 59.9708C15.5632 69.8256 26.0775 71.7092 34.3933 71.551C42.7262 71.3935 49.0338 68.8616 52.6325 64.2296C55.671 60.3183 56.6754 54.9335 55.3881 49.4566C54.7888 46.9076 53.312 41.4877 51.5766 37.3239C49.0727 32.2017 43.4603 26.2799 30.9341 27.0997C24.8712 27.4971 20.2831 29.5474 17.2968 33.1937C12.4156 39.1521 13.4558 47.4258 13.4664 47.5092C13.4893 47.6791 13.4506 47.8521 13.3577 47.997ZM33.4496 73.0067C25.79 73.0067 19.901 71.2471 15.9361 67.7707C12.6074 64.8522 11.6607 61.5995 11.3036 60.3744L11.2808 60.2965C9.19493 53.1653 11.3995 48.5246 12.0032 47.4461C11.8485 45.9226 11.3401 38.1819 16.1772 32.2765C19.4277 28.3084 24.3606 26.0812 30.8398 25.6564C44.1812 24.7821 50.1926 31.1839 52.8858 36.7091L52.9037 36.7473C54.6789 41.0006 56.1861 46.5296 56.7962 49.1255C58.1841 55.0301 57.083 60.8592 53.7757 65.1164C49.898 70.107 43.2055 72.8321 34.4206 72.9973C34.0941 73.0036 33.7699 73.0067 33.4496 73.0067Z" fill="#040606"/>
<path d="M53.1953 33.5241C53.1953 33.5241 56.0841 28.811 60.4372 28.811C64.6703 28.811 67.8576 31.9718 68.4311 34.266C69.0055 36.5618 69.3639 45.6685 60.2564 46.0987" fill="#F7BF7F"/>
<path d="M52.7731 33.2654C52.9952 32.914 53.2157 32.61 53.4589 32.3022C53.6973 31.9952 53.9506 31.7006 54.2155 31.4162C54.7462 30.8473 55.3276 30.3213 55.9612 29.8529C56.6009 29.3908 57.3039 29.0051 58.0535 28.7128C58.8087 28.4237 59.6207 28.2889 60.4374 28.2577C61.2346 28.2686 62.0318 28.3598 62.8064 28.5609C63.5748 28.7736 64.3174 29.0736 65.0157 29.4586C65.7108 29.8467 66.3529 30.3252 66.9366 30.8707C67.518 31.4185 68.0385 32.0388 68.4508 32.7495C68.5497 32.9311 68.6557 33.1057 68.7344 33.3028L68.8607 33.5912C68.8981 33.6909 68.9285 33.7953 68.962 33.8982C69.0999 34.312 69.1545 34.7071 69.2098 35.1006C69.3111 35.8861 69.3314 36.6693 69.2986 37.4517C69.2215 39.0142 68.8996 40.5946 68.192 42.0488C67.8383 42.7727 67.3831 43.4593 66.8267 44.0616C66.2719 44.6648 65.6157 45.1792 64.9027 45.5789C64.1904 45.9803 63.4259 46.2686 62.6482 46.472C61.8689 46.6746 61.0779 46.7642 60.2909 46.8219C59.8919 46.8507 59.5459 46.5515 59.5163 46.1525C59.4874 45.755 59.7867 45.4075 60.1849 45.3786L60.1927 45.3779L60.2223 45.3763C60.9275 45.3327 61.632 45.2633 62.3061 45.0958C62.9786 44.9282 63.6285 44.6913 64.2255 44.3648C65.4256 43.7211 66.3825 42.6917 66.999 41.4542C67.6208 40.2182 67.9372 38.8077 68.0245 37.3847C68.0635 36.6732 68.0533 35.9532 67.9723 35.2518C67.8975 34.5294 67.7315 33.9504 67.3902 33.3527C66.7176 32.1713 65.6469 31.1738 64.4413 30.4686C63.8312 30.1233 63.182 29.8506 62.5103 29.6558C61.8339 29.4711 61.1372 29.3838 60.4374 29.3635C59.7578 29.3846 59.0767 29.4835 58.4253 29.7228C57.7777 29.9682 57.1527 30.2963 56.5729 30.7055C55.9962 31.12 55.4562 31.5946 54.959 32.1152C54.7104 32.3747 54.4712 32.6451 54.2459 32.9272C54.0215 33.2031 53.7994 33.5047 53.6186 33.7836L53.6069 33.8C53.4581 34.0299 53.151 34.0954 52.9212 33.945C52.6944 33.7977 52.6281 33.4945 52.7731 33.2654Z" fill="#040606"/>
<path d="M61.6164 43.3743C63.8382 42.9434 65.4193 40.6491 65.4918 38.9043C65.5635 37.1587 64.6907 33.9481 61.6164 33.5498C57.7465 33.0472 57.4355 40.3141 57.4355 40.3141C57.4355 40.3141 59.0736 40.1465 60.1132 41.0076C61.1535 41.8679 61.6164 43.3743 61.6164 43.3743Z" fill="#C6424F"/>
<path d="M57.3075 40.3086C57.2108 39.3524 57.2506 38.3931 57.4002 37.4346C57.5506 36.4768 57.8132 35.5105 58.3541 34.6003C58.6245 34.1491 58.9814 33.7096 59.4669 33.3714C59.9469 33.0324 60.5579 32.8243 61.1517 32.8111C61.447 32.8009 61.7416 32.829 62.0003 32.8867C62.1336 32.9155 62.2676 32.9342 62.3993 32.9716L62.7921 33.1017C62.9246 33.1399 63.0485 33.2031 63.1732 33.2631C63.2963 33.327 63.4272 33.3776 63.5426 33.4548L63.8886 33.6846C64.0062 33.7595 64.1029 33.8592 64.2096 33.9457C64.3156 34.0353 64.4185 34.1265 64.5073 34.2294C64.5985 34.3307 64.6951 34.4281 64.7816 34.5325C64.9437 34.7492 65.1042 34.9658 65.2313 35.1988C65.4978 35.6586 65.7035 36.1433 65.8414 36.6389C65.9864 37.1345 66.0752 37.6419 66.1025 38.1562L66.1134 38.5435L66.0978 38.937C66.0815 39.0734 66.0674 39.2121 66.0456 39.3469C66.016 39.4786 65.9903 39.6119 65.956 39.7405C65.8142 40.2556 65.5827 40.7239 65.3092 41.1541C65.0341 41.5858 64.706 41.977 64.3327 42.3176C63.5979 43.0065 62.644 43.4795 61.6567 43.5831C61.5398 43.5948 61.4346 43.5107 61.4221 43.3922C61.412 43.2909 61.4751 43.1974 61.5686 43.167L61.5764 43.1647C62.4235 42.8904 63.1513 42.3714 63.7054 41.7082C64.2501 41.0473 64.6733 40.2642 64.8214 39.4654C64.8393 39.3672 64.851 39.269 64.8666 39.1716L64.8837 38.884L64.8736 38.577L64.8424 38.2645C64.7871 37.8476 64.6889 37.4338 64.5603 37.0364C64.4333 36.6366 64.2517 36.261 64.0366 35.922C63.8231 35.5775 63.5644 35.2775 63.2714 35.0313C62.9846 34.7749 62.6471 34.5956 62.291 34.4593L62.0183 34.3673C61.9263 34.3392 61.8273 34.3299 61.7323 34.3081C61.5351 34.2652 61.3613 34.2465 61.1899 34.2481C60.8493 34.2551 60.5376 34.3447 60.2423 34.5263C59.9446 34.7055 59.6742 34.9853 59.4334 35.3126C58.9518 35.9742 58.6019 36.8041 58.3011 37.6551C58.0112 38.5131 57.7735 39.4109 57.5639 40.3195L57.5623 40.3249L57.4072 40.4224L57.3075 40.3086Z" fill="#040606"/>
<path d="M32.1537 106.424L33.1395 107.199L28.5939 119.277L19 118.906C19 118.906 28.0655 120.44 32.1537 106.424Z" fill="#D69861"/>
<path d="M28.5941 120H28.566L15.3098 119.486L15.2042 119.475C14.0786 119.264 12.0009 118.037 12.1942 114.903C12.3236 112.808 13.5786 110.515 15.4697 108.919C16.781 107.812 18.9704 106.56 21.9408 106.881C26.4495 107.368 28.1717 110.406 28.2426 110.535C28.4351 110.885 28.3081 111.324 27.9582 111.517C27.6083 111.71 27.168 111.582 26.9755 111.233C26.9194 111.134 25.5151 108.721 21.7855 108.32C19.3204 108.054 17.4985 109.101 16.4027 110.024C14.8274 111.354 13.7421 113.304 13.638 114.992C13.4879 117.426 15.0861 117.957 15.4316 118.043L28.1008 118.534L32.6448 106.463C32.7843 106.09 33.202 105.9 33.5761 106.041C33.9494 106.182 34.1395 106.599 33.9985 106.973L29.2705 119.532C29.1645 119.815 28.8941 120 28.5941 120Z" fill="#231F20"/>
<path d="M53.1689 62.5977L58.4611 55.7065V54.7215L57.0888 51.5778L57.4854 48.2183L60.1677 43.6728L61.6546 41.6201L62.4557 33.3223L63.6005 30.7226L65.3017 29.9082L67.02 30.4825L67.8842 32.7402L67.2811 38.6089L66.4379 41.6871L67.9084 42.1952L70.2548 39.7148L75.2469 34.019L77.7212 33.4594L79.2337 34.764L78.8153 37.8063L72.7212 44.6889L75.2002 44.9898L76.3948 47.7297L74.9929 51.4937L74.544 54.9358L71.8656 57.9298L68.7695 59.0317L67.6489 59.3458L63.5311 68.5414L53.1689 62.5977Z" fill="#F7BF7F"/>
<path d="M66.6562 58.6483C66.6562 58.6483 69.3292 59.5959 71.2852 58.293C73.2412 56.9892 75.191 54.4433 74.9549 50.8399C72.9217 51.7119 72.5251 58.053 66.6562 58.6483Z" fill="#D69861"/>
<path d="M67.6487 59.3458L63.7359 68.5414L61.4658 67.8104L67.0198 58.9063L67.6487 59.3458Z" fill="#D69861"/>
<path d="M58.4585 55.8975L59.5043 56.3908L55.0725 64.055L53.0098 62.9157L58.4585 55.8975Z" fill="#FCD4AE"/>
<path d="M59.5043 47.7298C59.5043 47.7298 61.4213 45.402 64.5572 45.3397C67.6922 45.2781 67.8504 45.9865 67.6486 46.2327C67.4468 46.4782 64.4605 46.1096 63.075 46.7868C61.6902 47.464 59.3507 48.6111 59.5043 47.7298Z" fill="#FCD4AE"/>
<path d="M62.4562 36.4441C62.4562 36.4441 62.2957 32.8235 63.4147 31.5494C64.533 30.2761 65.6193 30.9649 65.4962 31.1808C65.3731 31.3959 63.5994 31.5705 63.6945 34.7819C63.7202 35.657 63.4373 38.8139 62.4562 36.4441Z" fill="#FCD4AE"/>
<path d="M69.5908 41.1534C69.5908 41.1534 74.6398 34.1257 76.2638 33.6418C77.8886 33.1586 78.4419 34.319 78.2237 34.4359C78.0047 34.5536 76.4103 33.7571 74.7824 36.5275C74.339 37.2826 69.1606 43.6829 69.5908 41.1534Z" fill="#FCD4AE"/>
<path d="M78.9274 35.9516C78.9274 35.9516 79.0263 37.2756 78.2689 38.1367C77.5122 38.9994 75.1416 42.1999 74.3717 42.8155C73.6025 43.4312 73.1544 42.9901 73.9166 42.1952C74.6803 41.4004 77.7615 37.8803 77.76 37.4548C77.7577 37.0286 78.7738 35.3671 78.9274 35.9516Z" fill="#D69861"/>
<path d="M66.7234 31.5042C66.7234 31.5042 68.0162 33.6737 67.5479 35.9516C67.3414 36.9569 66.5839 40.3733 66.1873 41.1946C65.789 42.016 65.2233 41.9396 65.5397 40.9967C65.8568 40.0537 66.7967 36.0825 66.8302 35.7381C67.0351 33.5966 66.3486 31.1769 66.7234 31.5042Z" fill="#D69861"/>
<path d="M68.326 51.2552C68.326 51.2552 71.627 51.1913 72.012 50.306C72.397 49.4208 73.3711 49.1153 73.523 49.6288C73.6742 50.1424 71.6636 52.5784 70.5968 52.5402C69.5292 52.5021 68.0041 52.5737 68.326 51.2552Z" fill="#D69861"/>
<path d="M59.2557 55.8507C58.4226 57.0344 57.5062 58.1574 56.6209 59.3021L55.2836 61.015L53.937 62.7185C53.75 62.9562 53.4048 62.9967 53.1679 62.8089C52.9403 62.6289 52.8951 62.3024 53.0588 62.0663L54.3002 60.284L55.5517 58.5096C56.3926 57.3305 57.2015 56.1281 58.0945 54.988C58.34 54.6732 58.7951 54.6186 59.1099 54.8641C59.4139 55.1026 59.4746 55.5374 59.2557 55.8507Z" fill="#231F20"/>
<path d="M64.0454 68.9707C63.9496 68.9707 63.8522 68.9505 63.7594 68.9115C63.3932 68.7525 63.2233 68.3278 63.3815 67.96L67.2195 59.0598C67.3777 58.6927 67.8039 58.5236 68.1694 58.6818C68.5364 58.84 68.7063 59.2655 68.5481 59.6318L64.7102 68.5328C64.5925 68.8071 64.326 68.9707 64.0454 68.9707Z" fill="#231F20"/>
<path d="M66.1124 41.4471C66.4327 39.7062 66.7725 37.952 67.018 36.2259C67.1302 35.3694 67.1902 34.5021 67.1692 33.6753C67.1434 32.857 66.9868 32.0372 66.5933 31.5478C66.4 31.3047 66.1569 31.1465 65.8491 31.0553C65.5529 30.9696 65.143 30.9306 64.8305 30.9688C64.5087 31.0086 64.2562 31.1177 64.0505 31.3117C63.8439 31.5057 63.6756 31.7988 63.5525 32.1471C63.4278 32.4947 63.3468 32.889 63.2829 33.3043L63.1917 33.9535C63.1675 34.128 63.1519 34.3462 63.1363 34.5598L62.9875 37.2203C62.9337 38.1157 62.8644 39.0126 62.7545 39.922C62.6976 40.3779 62.6345 40.8338 62.5308 41.3099C62.481 41.5469 62.4179 41.7908 62.3212 42.0573C62.2955 42.1243 62.2729 42.189 62.2347 42.2661L62.1817 42.3776L62.1077 42.5023L62.0321 42.616L61.9721 42.6947L61.8575 42.8397L60.9988 43.8699C60.7213 44.2058 60.454 44.5455 60.1969 44.8892C59.6841 45.5789 59.2134 46.2904 58.8277 47.033C58.4419 47.7741 58.1357 48.5456 57.9728 49.3272C57.8949 49.7177 57.852 50.1096 57.8512 50.4962C57.8512 50.8726 57.8972 51.2864 57.9681 51.6854C58.1115 52.4818 58.378 53.2463 58.7934 53.9118C58.9983 54.2461 59.2423 54.5531 59.5111 54.8298C59.6467 54.9677 59.7909 55.0963 59.9389 55.2124C60.0138 55.2716 60.0893 55.3262 60.1649 55.3769L60.2779 55.4485L60.3637 55.4984L60.4275 55.535C60.7642 55.7299 60.8788 56.16 60.6847 56.4967C60.5 56.8154 60.101 56.9339 59.7737 56.7796C59.6763 56.7336 59.6303 56.7071 59.5664 56.6712L59.395 56.5684C59.2843 56.4982 59.1776 56.425 59.0763 56.3478C58.8705 56.1951 58.6788 56.0307 58.4973 55.8561C58.1357 55.5054 57.8208 55.1127 57.5535 54.6934C57.0143 53.8549 56.6753 52.912 56.4906 51.9628C56.4002 51.4882 56.3379 51.016 56.3324 50.5024C56.3269 49.9998 56.3815 49.5026 56.4789 49.0218C56.6768 48.0593 57.0369 47.1624 57.4702 46.3262C57.9042 45.4893 58.4178 44.7123 58.9648 43.9735C59.5057 43.2371 60.1158 42.5295 60.6582 41.8726L60.7502 41.7565L60.7915 41.7019L60.8063 41.6762L60.818 41.6583L60.8359 41.6178L60.8764 41.5196C60.9302 41.3676 60.9824 41.1806 61.0237 40.9827C61.1086 40.5883 61.1687 40.1621 61.2201 39.7358C61.323 38.8786 61.3861 38.0011 61.4469 37.1221L61.6105 34.4538C61.6292 34.2247 61.6432 33.9995 61.6822 33.7329L61.7866 33.062C61.8653 32.6006 61.9659 32.1198 62.1474 31.6312C62.3282 31.1481 62.5994 30.6368 63.0499 30.2246C63.4956 29.8069 64.1105 29.57 64.6708 29.5186C64.9544 29.4858 65.2256 29.4983 65.4882 29.524C65.7431 29.5482 66.0221 29.6043 66.2901 29.6931C66.8317 29.8661 67.3585 30.2347 67.6983 30.7054C68.0443 31.1745 68.2251 31.6943 68.3334 32.19C68.4378 32.6887 68.4713 33.1758 68.4745 33.6511C68.4784 34.605 68.3412 35.5136 68.1776 36.4121C67.8316 38.1951 67.371 39.9111 66.8746 41.6318C66.8146 41.8399 66.5972 41.9606 66.3883 41.8999C66.1935 41.8437 66.0758 41.6497 66.1109 41.4541L66.1124 41.4471Z" fill="#231F20"/>
<path d="M65.3223 41.0209C65.6972 40.9258 66.04 40.9149 66.3985 40.943C66.7523 40.9733 67.1053 41.0497 67.449 41.1775C67.7926 41.3061 68.127 41.49 68.4184 41.7448C68.7021 42.0098 68.9491 42.3441 69.0395 42.7423C69.0831 42.9395 68.9592 43.1351 68.7621 43.1795C68.6912 43.1959 68.621 43.1904 68.5571 43.1662L68.4987 43.1452C68.1893 43.033 67.9501 42.9332 67.6984 42.8343C67.4459 42.7384 67.1942 42.6395 66.9347 42.5342L66.1226 42.2288C65.8483 42.1244 65.5506 42.0098 65.2795 41.8711L65.2288 41.8454C65.0114 41.7339 64.9241 41.4666 65.0363 41.2484C65.0963 41.1308 65.2039 41.0521 65.3223 41.0209Z" fill="#231F20"/>
<path d="M67.6361 49.0249C67.5519 49.1831 67.4724 49.2992 67.3742 49.4192C67.2799 49.5377 67.1747 49.646 67.0609 49.7458C66.8349 49.9468 66.5762 50.1144 66.2918 50.2468C66.0066 50.377 65.6886 50.4635 65.3574 50.4783C65.0239 50.483 64.6748 50.4152 64.3872 50.2188C64.2173 50.1034 64.1737 49.8712 64.289 49.7013L64.4075 49.5907L64.4745 49.5517C64.7176 49.4099 64.9039 49.3195 65.0932 49.2174C65.281 49.1153 65.4673 49.0234 65.6645 48.9291L66.2684 48.6181C66.4741 48.5168 66.7048 48.3992 66.9253 48.3259L67.0196 48.2947C67.2901 48.2059 67.5815 48.3532 67.6703 48.6228C67.7148 48.7607 67.6984 48.9065 67.6361 49.0249Z" fill="#231F20"/>
<path d="M66.4352 49.4254C66.5427 49.586 66.6105 49.7107 66.6892 49.8517C66.7625 49.9904 66.835 50.1284 66.8973 50.2702C67.029 50.5507 67.135 50.8414 67.2269 51.1368C67.414 51.7267 67.5129 52.3493 67.5153 52.9735C67.5293 53.5985 67.3805 54.2274 67.1443 54.7932C66.9176 55.373 66.5154 55.846 66.1118 56.2699C66.0354 56.3494 65.9084 56.3525 65.8281 56.2762C65.7595 56.2115 65.7471 56.1094 65.7923 56.0307L65.8047 56.0089L66.0074 55.6551C66.0759 55.5389 66.1437 55.4236 66.1874 55.2974L66.3378 54.9327C66.3775 54.808 66.4025 54.6786 66.436 54.5547C66.5529 54.0529 66.5778 53.5401 66.4967 53.0367C66.4227 52.5348 66.2622 52.0462 66.0526 51.5786C65.9458 51.3456 65.825 51.1181 65.6917 50.8991C65.6286 50.7876 65.5577 50.6817 65.4876 50.5765C65.419 50.4767 65.3364 50.3622 65.2787 50.2936C65.0192 49.9889 65.0551 49.5314 65.3605 49.2719C65.666 49.0124 66.1235 49.0498 66.3822 49.3545L66.4328 49.4215L66.4352 49.4254Z" fill="#231F20"/>
<path d="M67.7651 41.5999C69.2076 39.8527 70.6392 38.1056 72.1276 36.3834C72.3146 36.1675 72.5001 35.954 72.6988 35.7342L72.977 35.4264L73.2482 35.1147C73.6145 34.6876 73.9971 34.2341 74.453 33.8117C74.9073 33.3932 75.452 32.9849 76.1518 32.7745C76.4986 32.6724 76.8805 32.6373 77.2475 32.6771C77.6153 32.7168 77.9621 32.8298 78.2707 32.9794C78.5754 33.1298 78.8637 33.3114 79.1318 33.5506C79.3976 33.7899 79.6282 34.0899 79.788 34.4234C80.1129 35.1006 80.1184 35.8425 79.9976 36.4784C79.8784 37.1237 79.6165 37.7354 79.2612 38.2677C79.0905 38.5311 78.8676 38.7929 78.6798 38.9994L78.1211 39.6361C76.635 41.3381 75.1364 43.0291 73.6207 44.7053C73.4407 44.9041 73.1352 44.9189 72.9365 44.7404C72.7456 44.5666 72.7245 44.2744 72.8851 44.0757C74.3112 42.3176 75.7552 40.572 77.2101 38.8373L77.7548 38.1858C77.9418 37.9692 78.0813 37.7946 78.2177 37.5827C78.4842 37.1712 78.6681 36.72 78.75 36.2501C78.831 35.7825 78.8014 35.3352 78.6261 34.9869C78.5388 34.8123 78.418 34.6557 78.2614 34.5185C78.1055 34.3829 77.9099 34.2613 77.7073 34.1647C77.3021 33.9738 76.9163 33.9356 76.5298 34.0533C76.1409 34.1733 75.745 34.4499 75.378 34.8014C75.0078 35.1521 74.6618 35.5674 74.2995 36.0031L74.0174 36.3358L73.7314 36.6608C73.5537 36.8626 73.3706 37.0785 73.1913 37.292C71.752 39.0189 70.3119 40.7676 68.8842 42.5163L68.8826 42.5179C68.6302 42.8281 68.1743 42.8732 67.8657 42.6208C67.5555 42.3683 67.5103 41.9124 67.7628 41.603L67.7651 41.5999Z" fill="#231F20"/>
<path d="M59.115 47.6986C59.4961 47.0658 59.9949 46.5764 60.5505 46.1314C61.11 45.6966 61.728 45.3311 62.3857 45.0576C62.713 44.9165 63.0489 44.7973 63.3902 44.6952C63.7331 44.6009 64.0791 44.5136 64.4298 44.4544C65.128 44.3211 65.8387 44.2791 66.5447 44.2814L67.0723 44.2947L67.589 44.3313C67.935 44.3609 68.2794 44.3928 68.6262 44.4419C69.319 44.5362 70.0157 44.6718 70.7116 44.8908C71.4036 45.1246 72.1104 45.4308 72.7354 46.0005C73.0401 46.2888 73.3253 46.6497 73.4921 47.0923C73.5755 47.312 73.6308 47.5466 73.6487 47.7874C73.6573 47.9074 73.6557 48.0298 73.6456 48.1529L73.6222 48.3407L73.6012 48.4412C73.5911 48.481 73.5879 48.4997 73.5638 48.5737L73.5825 48.5106C73.5451 48.6532 73.5147 48.735 73.4773 48.841C73.4407 48.9407 73.4009 49.0374 73.3596 49.1332C73.2747 49.3234 73.1796 49.5081 73.0713 49.6889C72.8562 50.0466 72.5951 50.3871 72.2741 50.6817C71.9553 50.9763 71.5782 51.2194 71.1698 51.3862C70.763 51.5568 70.3282 51.641 69.905 51.6659C69.1546 51.6955 68.3714 51.6815 67.5773 51.4641C67.1845 51.3534 66.7988 51.189 66.4512 50.977C66.1045 50.7627 65.7959 50.5079 65.5177 50.2367C65.3174 50.0411 65.3135 49.72 65.5091 49.5198C65.693 49.3319 65.9876 49.3164 66.1878 49.4777L66.1948 49.4831C66.71 49.8977 67.2609 50.1853 67.8656 50.3029C68.4673 50.4292 69.1374 50.4074 69.8131 50.3474C70.3968 50.2928 70.9088 50.0582 71.3093 49.6577C71.5127 49.4621 71.688 49.2252 71.8353 48.9665C71.9086 48.8371 71.974 48.7015 72.0317 48.5628L72.1104 48.3547L72.165 48.1716L72.1837 48.1085L72.1782 48.1202L72.1821 48.0976L72.1876 48.036L72.1837 47.9012C72.1751 47.8077 72.1533 47.7142 72.1174 47.6214C72.0481 47.436 71.9094 47.2544 71.7309 47.086C71.547 46.9193 71.3179 46.7689 71.0662 46.6387C70.8121 46.5094 70.5339 46.4057 70.2487 46.3052C69.0938 45.9265 67.7768 45.7807 66.5081 45.7067C65.2465 45.6553 63.984 45.7784 62.7824 46.14C62.1839 46.3239 61.5971 46.5608 61.0445 46.8694C60.4952 47.171 59.952 47.5513 59.5132 47.9783L59.493 47.9978C59.3971 48.0913 59.2428 48.089 59.1493 47.9931C59.0714 47.9121 59.0605 47.7905 59.115 47.6986Z" fill="#231F20"/>
<path d="M74.9548 51.563C74.76 51.563 74.5644 51.4836 74.421 51.3277C74.1514 51.0331 74.1724 50.5757 74.467 50.3061C75.2837 49.5579 75.7216 48.5745 75.6679 47.6066C75.625 46.8445 75.2845 46.1945 74.7093 45.7761C73.1967 44.6757 71.434 46.0114 71.3592 46.0683C71.0444 46.3122 70.59 46.2553 70.3453 45.9413C70.1006 45.6272 70.1552 45.1745 70.4685 44.9282C70.5768 44.8433 73.1586 42.86 75.5603 44.6064C76.4799 45.275 77.0457 46.3395 77.1119 47.5248C77.1914 48.9283 76.582 50.331 75.4427 51.3737C75.3047 51.5007 75.1294 51.563 74.9548 51.563Z" fill="#231F20"/>
<path d="M68.7968 51.3371L68.7858 51.3963L68.7781 51.4859L68.7749 51.6729C68.7788 51.8 68.7921 51.9254 68.8186 52.0447C68.87 52.2862 68.9659 52.5044 69.1108 52.6899C69.2565 52.8746 69.4537 53.0312 69.6961 53.1458C69.9392 53.2611 70.2213 53.3453 70.4792 53.3617C70.7411 53.3819 71.0029 53.3422 71.2593 53.2346C71.5149 53.1287 71.7604 52.9572 71.9887 52.7546C72.4423 52.3423 72.828 51.8124 73.1615 51.2529C73.22 51.1539 73.347 51.1212 73.4452 51.1804C73.5364 51.2342 73.5714 51.3472 73.5294 51.4423C73.2589 52.0618 72.9316 52.672 72.4664 53.2206C72.2295 53.4902 71.956 53.7474 71.6185 53.943C71.285 54.1386 70.8845 54.2617 70.4824 54.2828C70.0756 54.3054 69.6984 54.2423 69.3204 54.1261C68.9425 54.0077 68.5638 53.7996 68.2528 53.5011C67.9395 53.205 67.7073 52.8263 67.5631 52.4335C67.4899 52.2364 67.4385 52.0345 67.4034 51.8319C67.387 51.7291 67.373 51.627 67.3644 51.5218L67.3566 51.362C67.3559 51.3028 67.3535 51.263 67.359 51.1734C67.405 50.7768 67.7626 50.4915 68.1601 50.536C68.5575 50.5812 68.8427 50.9396 68.7968 51.3371Z" fill="#231F20"/>
<path d="M66.7593 58.1403C66.8364 58.1855 66.9681 58.2478 67.0819 58.2922C67.1996 58.339 67.3227 58.3811 67.4466 58.4161C67.6952 58.4855 67.9508 58.5315 68.208 58.5541C68.7231 58.5954 69.2444 58.5439 69.744 58.3998C70.2443 58.2595 70.7227 58.0343 71.1685 57.7483C71.283 57.6813 71.3882 57.5994 71.4989 57.5262L71.8208 57.2823C72.0093 57.128 72.2049 56.9386 72.3834 56.7453C73.1035 55.9645 73.6552 55.027 73.9685 54.0248C74.2841 53.0227 74.3651 51.9582 74.235 50.9108C74.1851 50.5142 74.4672 50.1526 74.8631 50.1035C75.2597 50.0536 75.6213 50.3357 75.6704 50.7316L75.6735 50.7612L75.6743 50.7682C75.7725 52.0034 75.6198 53.2736 75.1904 54.4433C74.7649 55.6154 74.0744 56.6721 73.1993 57.5394C72.9764 57.7569 72.7512 57.9595 72.4863 58.1566L72.1106 58.4169C71.9789 58.4964 71.8527 58.5844 71.7163 58.6577C71.1817 58.9663 70.6004 59.2102 69.9871 59.3544C69.3769 59.5001 68.7356 59.536 68.1098 59.4572C67.7973 59.4159 67.4887 59.3458 67.1894 59.2468C67.039 59.1977 66.8918 59.1401 66.746 59.0746C66.5964 59.006 66.4686 58.9437 66.3026 58.8369C66.1094 58.713 66.0533 58.4559 66.1772 58.2618C66.2964 58.0756 66.5419 58.0171 66.732 58.1255L66.7593 58.1403Z" fill="#231F20"/>
<path d="M39.5495 107.923C32.1167 107.923 28.6722 106.016 28.5234 105.931C28.1758 105.734 28.0542 105.293 28.2522 104.945C28.4493 104.597 28.8896 104.476 29.238 104.673C29.2707 104.692 32.8289 106.623 40.4394 106.467C47.9806 106.312 51.1842 103.522 51.2154 103.493C51.5115 103.227 51.9682 103.251 52.2355 103.546C52.5028 103.841 52.4825 104.297 52.188 104.565C52.0454 104.694 48.6103 107.746 40.4698 107.912C40.1566 107.919 39.8495 107.923 39.5495 107.923Z" fill="#231F20"/>
<path d="M19.5244 108.428L19.4179 108.421C19.0228 108.362 18.7497 107.994 18.8075 107.599L19.946 99.8718C20.0044 99.4767 20.3722 99.2009 20.767 99.2617C21.1627 99.3193 21.4361 99.6872 21.3773 100.083L20.2388 107.81C20.1855 108.169 19.8775 108.428 19.5244 108.428Z" fill="#231F20"/>
<path d="M58.9255 108.206C58.5616 108.206 58.2491 107.933 58.2078 107.563L57.3366 99.6567C57.2921 99.2593 57.5789 98.9024 57.9756 98.858C58.3754 98.8128 58.7307 99.1011 58.7743 99.4986L59.6456 107.404C59.69 107.802 59.4032 108.159 59.0066 108.202L58.9255 108.206Z" fill="#231F20"/>
<path d="M44.3047 72.9685L44.385 72.55L44.9055 71.6398C46.7228 68.458 49.0264 65.5801 51.7344 63.1113L52.6345 62.2899C52.6345 62.2899 63.4081 67.441 63.9926 68.8874C63.0754 71.1317 58.4028 77.6995 58.4028 77.6995C58.4028 77.6995 51.9207 84.2931 46.7828 80.0678C44.7068 78.3604 43.7974 75.6079 44.3047 72.9685Z" fill="#EBEBE9"/>
<path d="M54.081 103.768C53.8028 103.768 53.5379 103.607 53.4187 103.336C53.2581 102.971 53.4241 102.544 53.7896 102.383C53.8067 102.375 55.6817 101.528 56.8974 99.8149C59.2953 96.4359 59.1472 92.9603 59.1448 92.926C59.1254 92.527 59.4308 92.1872 59.8291 92.1654C60.2312 92.1483 60.5678 92.4491 60.5896 92.8465C60.599 93.0078 60.7798 96.8435 58.0772 100.652C56.6239 102.7 54.4637 103.667 54.3717 103.707C54.2774 103.749 54.1785 103.768 54.081 103.768Z" fill="#231F20"/>
<path d="M24.0478 104.055C23.9184 104.055 23.787 104.021 23.6682 103.947C19.3888 101.301 18.8281 96.9822 18.8059 96.7999C18.7587 96.4032 19.0418 96.0432 19.4385 95.9956C19.8357 95.9473 20.194 96.231 20.2421 96.6269C20.2482 96.6721 20.7641 100.451 24.4293 102.716C24.7693 102.927 24.8745 103.372 24.6641 103.713C24.5273 103.933 24.2907 104.055 24.0478 104.055Z" fill="#231F20"/>
<path d="M56.3627 74.4328C56.3627 74.4328 58.5291 90.9544 50.7939 93.2237C56.5264 91.4142 59.8719 89.307 59.8719 89.307L56.3627 74.4328Z" fill="#C1C0B8"/>
<path d="M18.1445 96.0618C18.1445 96.0618 18.5412 99.2725 18.9993 100.225C18.596 101.178 18.1865 105.856 18.1865 105.856C18.1865 105.856 27.1539 105.18 33.0242 110.966C34.2804 108.82 34.4792 106.754 34.4792 106.754C34.4792 106.754 41.8676 108.042 43.7137 107.183C44.2062 108.539 45.1359 111.265 45.1359 111.265C45.1359 111.265 53.8662 105.487 59.8714 105.179C59.4124 101.239 58.9261 99.5772 58.9261 99.5772C58.9261 99.5772 61.444 95.6161 60.459 92.887C58.8584 94.282 52.9802 99.5842 38.1278 98.9959C23.2747 98.4067 18.1445 96.0618 18.1445 96.0618Z" fill="#1A1E2C"/>
<path d="M43.7139 106.459C43.8082 106.459 43.9025 106.478 43.9914 106.514C44.1784 106.592 44.3249 106.745 44.3943 106.935C44.7091 107.804 45.2063 109.24 45.5227 110.161C47.7202 108.795 54.034 105.109 59.0628 104.523C58.6482 101.238 58.2359 99.7946 58.232 99.7798C58.1736 99.5803 58.204 99.3645 58.3154 99.1891C58.8492 98.3459 59.9831 96.0969 59.9613 94.2375C54.804 98.2454 47.4576 100.089 38.0992 99.719C27.0045 99.2788 21.2918 97.8729 19.0291 97.1521C19.2011 98.2477 19.4385 99.4697 19.6516 99.9115C19.7414 100.099 19.7469 100.315 19.6662 100.507C19.4516 101.013 19.1646 103.276 18.9834 105.105L19.1381 105.105C21.5877 105.105 27.9646 105.547 32.825 109.794C33.6066 108.136 33.7578 106.701 33.7593 106.684C33.7804 106.483 33.8817 106.3 34.0422 106.179C34.202 106.058 34.4046 106.006 34.6033 106.041C37.3737 106.524 42.2138 107.083 43.4085 106.527C43.5051 106.482 43.6095 106.459 43.7139 106.459ZM45.1361 111.988C45.0574 111.988 44.9795 111.976 44.9024 111.95C44.6912 111.877 44.5244 111.711 44.4511 111.499C44.4433 111.475 43.7607 109.473 43.2612 108.064C41.1197 108.467 36.9419 107.886 35.0763 107.587C34.9041 108.429 34.5106 109.859 33.6495 111.331C33.5357 111.524 33.3409 111.654 33.1195 111.683C32.8974 111.712 32.6761 111.638 32.5164 111.481C26.9585 106.002 18.3259 106.572 18.2401 106.578C18.0276 106.595 17.8206 106.514 17.6714 106.364C17.5231 106.213 17.4471 106.004 17.4659 105.793C17.5298 105.058 17.8479 101.595 18.2294 100.251C17.7925 99.0364 17.4659 96.464 17.4273 96.1507C17.3953 95.8904 17.5065 95.634 17.7171 95.4782C17.9281 95.3239 18.2066 95.295 18.4446 95.4041C18.5223 95.4384 23.7301 97.7015 38.1569 98.2727C47.6969 98.6499 55.0214 96.6744 59.9215 92.3953L59.9839 92.3415C60.1639 92.1849 60.4086 92.1272 60.6408 92.1872C60.8715 92.2472 61.0577 92.4171 61.1396 92.6416C62.0841 95.2592 60.2808 98.6927 59.7026 99.6894C59.8639 100.345 60.2356 102.051 60.5902 105.095C60.6128 105.294 60.5528 105.494 60.4242 105.646C60.2948 105.798 60.1086 105.892 59.9083 105.901C54.1673 106.196 45.6209 111.811 45.5359 111.869C45.4151 111.948 45.2772 111.988 45.1361 111.988Z" fill="#171717"/>
<path d="M20.0931 97.1147C20.0931 97.1147 39.9236 99.4931 44.1684 98.9959C48.4116 98.4987 58.9951 94.6686 60.4282 93.2238C60.9113 92.7375 59.9341 95.4619 59.2616 98.9959C60.2747 105.614 59.3761 104.669 57.4123 105.395C56.8816 105.59 57.1209 97.9665 55.6886 98.8112C53.473 100.117 50.564 101.237 45.1362 101.649C29.3697 102.848 16.4183 98.5915 20.0931 97.1147Z" fill="#0D1119"/>
<path d="M43.7139 106.459C43.8082 106.459 43.9025 106.478 43.9914 106.514C44.1784 106.592 44.3249 106.745 44.3943 106.935C44.7091 107.804 45.2063 109.24 45.5227 110.161C47.7203 108.795 54.034 105.109 59.0628 104.523C58.6482 101.238 58.236 99.7946 58.2321 99.7798C58.1791 99.5975 58.2001 99.4019 58.2889 99.2359C58.8142 98.254 59.9145 95.7229 59.941 93.7396C54.172 99.1346 44.9873 99.991 38.0992 99.719C27.0045 99.2788 21.2918 97.8729 19.0291 97.1521C19.2011 98.2485 19.4385 99.4697 19.6516 99.9115C19.7414 100.099 19.7469 100.315 19.6662 100.507C19.4516 101.013 19.1646 103.276 18.9834 105.105L19.1381 105.105C21.5877 105.105 27.9646 105.547 32.825 109.794C33.6066 108.136 33.7578 106.701 33.7593 106.684C33.7804 106.483 33.8817 106.3 34.0422 106.179C34.202 106.058 34.4046 106.006 34.6033 106.041C37.3737 106.524 42.2138 107.083 43.4085 106.527C43.5051 106.482 43.6095 106.459 43.7139 106.459ZM45.1361 111.988C45.0574 111.988 44.9795 111.976 44.9024 111.95C44.6912 111.877 44.5244 111.711 44.4511 111.499C44.4434 111.475 43.7607 109.473 43.2612 108.064C41.1197 108.467 36.9419 107.886 35.0763 107.587C34.9041 108.429 34.5106 109.859 33.6495 111.331C33.5357 111.524 33.3409 111.654 33.1195 111.683C32.8975 111.712 32.6761 111.638 32.5164 111.481C26.9585 106.002 18.3259 106.572 18.2401 106.578C18.0276 106.595 17.8206 106.514 17.6714 106.364C17.5231 106.213 17.4471 106.004 17.4659 105.793C17.5298 105.058 17.8479 101.595 18.2294 100.251C17.7925 99.0364 17.4659 96.464 17.4273 96.1507C17.3953 95.8904 17.5065 95.634 17.7171 95.4782C17.9281 95.3239 18.2056 95.2958 18.444 95.4033C18.4988 95.4275 23.6966 97.6999 38.1569 98.2727C45.158 98.5517 54.6185 97.6391 59.895 91.7173C60.0642 91.5272 60.3213 91.4399 60.5715 91.489C60.8224 91.5373 61.0281 91.7134 61.1154 91.9534C62.0677 94.5929 60.2247 98.6016 59.6955 99.6614C59.8537 100.296 60.2301 102.006 60.5902 105.095C60.6128 105.294 60.5528 105.494 60.4242 105.646C60.2948 105.798 60.1086 105.892 59.9083 105.901C54.1673 106.196 45.6209 111.811 45.5359 111.869C45.4151 111.948 45.2772 111.988 45.1361 111.988Z" fill="#040606"/>
<path d="M42.3708 99.7206C33.8781 99.7214 21.8963 97.9392 21.3042 97.8496C21.0851 97.8161 15.9862 96.9978 15.4063 93.9025C15.1923 92.7639 15.353 91.8686 15.8812 91.2443C16.5454 90.4588 17.5073 90.4534 17.6063 90.4565C18.005 90.4643 18.3231 90.7947 18.3156 91.1937C18.3079 91.5888 17.9862 91.9028 17.5926 91.9028H17.5889C17.5646 91.9036 17.1968 91.92 16.9786 92.1873C16.7539 92.4616 16.7016 92.9634 16.8279 93.636C17.1527 95.3691 20.4068 96.2489 21.5219 96.4196C21.6878 96.4453 38.4681 98.9414 46.2874 98.0989C52.2825 97.4529 58.9797 94.0435 60.3395 90.9451C60.5367 90.4978 60.5998 90.0855 60.5289 89.7029C56.7751 92.8606 51.4237 94.4667 44.6011 94.4792H44.5995C44.2013 94.4792 43.8779 94.1565 43.8771 93.7575C43.8763 93.3578 44.1997 93.0336 44.5987 93.0328C51.5001 93.0196 56.7727 91.3238 60.2717 87.9924C60.4221 87.849 60.6248 87.7765 60.8328 87.7952C61.0401 87.8131 61.2287 87.9191 61.3518 88.0859C62.0999 89.0982 62.2083 90.2874 61.6643 91.5264C60.1011 95.0886 52.9885 98.8315 46.4425 99.5367C45.2463 99.6653 43.8615 99.7206 42.3708 99.7206Z" fill="#231F20"/>
<path d="M23.1102 93.9749C22.2558 93.9788 21.4126 93.936 20.5624 93.8246C20.1387 93.7692 19.714 93.6921 19.29 93.5799C18.8668 93.4599 18.4385 93.3204 18.0321 93.0281C17.9317 92.9549 17.8328 92.8684 17.7435 92.7632L17.6188 92.5933L17.5253 92.4164C17.4233 92.1974 17.3569 91.9745 17.2985 91.7501C17.1966 91.302 17.1621 90.8539 17.1621 90.4113C17.163 89.5268 17.3031 88.6688 17.4818 87.8272C17.854 86.147 18.4157 84.5323 19.0495 82.959C19.6866 81.384 20.4011 79.8488 21.1454 78.3285C21.3212 77.97 21.7541 77.8211 22.1134 77.9973C22.4726 78.1726 22.6211 78.6059 22.4451 78.9651L22.4293 78.9947L22.4248 79.0041C21.6196 80.4582 20.8439 81.9288 20.1462 83.4312C19.4513 84.9337 18.8303 86.472 18.3981 88.0493C18.1874 88.8363 18.0175 89.6374 17.9779 90.4308C17.9582 90.8266 17.9703 91.2194 18.0351 91.5935C18.0739 91.7766 18.1174 91.9589 18.1859 92.1257L18.2321 92.2278L18.2884 92.3143L18.4543 92.4818C18.7192 92.6985 19.0915 92.8543 19.468 92.9783C19.8485 93.1006 20.2467 93.1949 20.6507 93.2674C21.4574 93.4154 22.2908 93.5004 23.1127 93.537H23.1188C23.2397 93.5425 23.3334 93.6453 23.3279 93.7653C23.3228 93.8822 23.226 93.9742 23.1102 93.9749Z" fill="#231F20"/>
<path d="M19.5772 69.9807C19.5248 70.0243 19.4295 70.1101 19.3544 70.181C19.2752 70.2566 19.1951 70.3345 19.122 70.4171C18.9699 70.5792 18.8414 70.7569 18.7126 70.9299C18.4676 71.2852 18.3057 71.671 18.2219 72.0583C18.1449 72.4479 18.1495 72.8477 18.2538 73.2521C18.3665 73.6776 18.5476 74.1055 18.7735 74.5185C19.2417 75.3414 19.8831 76.0997 20.5939 76.7924C21.3168 77.4673 22.1113 78.1055 22.9728 78.5723L22.9819 78.5778C23.1631 78.6752 23.2301 78.9004 23.132 79.0812C23.0429 79.2464 22.8459 79.3166 22.6745 79.2519C21.6426 78.8638 20.7317 78.2832 19.877 77.6177C19.4563 77.2787 19.046 76.9195 18.6669 76.5212C18.2941 76.1184 17.9403 75.689 17.6283 75.2167C17.323 74.7398 17.0551 74.2263 16.8642 73.6582C16.6786 73.0667 16.6229 72.4051 16.7401 71.7754C16.849 71.1442 17.1261 70.566 17.4685 70.068C17.6441 69.8225 17.8338 69.5887 18.0475 69.3822C18.151 69.2755 18.2615 69.1757 18.3747 69.0783L18.5513 68.9365C18.6152 68.8874 18.6679 68.8484 18.7552 68.7892C19.0855 68.5655 19.5345 68.652 19.7583 68.9817C19.9668 69.2895 19.9059 69.7009 19.6289 69.9371L19.5772 69.9807Z" fill="#231F20"/>
<path d="M63.5151 68.3364C63.5151 68.3364 64.458 68.5982 63.7208 70.3189C62.6158 72.9007 59.5119 77.3839 58.0204 78.1336C56.8265 75.5635 56.2568 74.2294 56.2568 74.2294C56.2568 74.2294 58.3165 76.6163 63.5151 68.3364Z" fill="#C1C0B8"/>
<path d="M59.5895 90.2538C59.2302 90.2538 58.9177 89.9857 58.8733 89.6203C58.4416 86.1641 56.9929 76.681 55.4842 74.3377C55.2683 74.0018 55.365 73.5545 55.7008 73.3379C56.0367 73.122 56.484 73.2186 56.7007 73.5553C58.6956 76.6537 60.2441 88.9205 60.3088 89.441C60.3579 89.8377 60.0765 90.1993 59.6799 90.2484L59.5895 90.2538Z" fill="#231F20"/>
<path d="M57.6679 79.2371C57.4902 79.2371 57.3133 79.1724 57.173 79.0415C56.8816 78.7679 56.8676 78.3097 57.1403 78.0183C61.3633 73.5117 62.7746 70.2503 63.1665 69.1391C62.0358 68.2444 58.3194 65.4803 52.7662 63.1261C46.3869 68.4338 45.1097 73.5288 45.0972 73.581C45.0045 73.9699 44.6117 74.2083 44.226 74.1156C43.8371 74.0236 43.5971 73.6332 43.6898 73.2444C43.7467 73.0098 45.1424 67.4402 52.1879 61.7288C52.3937 61.5613 52.6758 61.5208 52.9197 61.6221C60.0868 64.5873 64.2988 68.1883 64.4742 68.3403C64.6768 68.5156 64.7664 68.7868 64.7072 69.0479C64.6698 69.2108 63.7378 73.0939 58.1962 79.008C58.0536 79.1599 57.8612 79.2371 57.6679 79.2371Z" fill="#231F20"/>
<path d="M20.0885 20.5155C20.0885 20.5155 24.7096 7.77492 39.4918 11.6238C35.6874 12.9813 34.3361 14.7877 34.3361 14.7877C34.3361 14.7877 49.0685 7.29956 56.0314 29.3214C50.1797 24.4813 41.3099 24.1392 40.2415 24.7166C44.173 25.7819 45.6365 29.4009 45.6365 29.4009C45.6365 29.4009 41.7003 26.717 37.4524 26.8448C31.9896 27.0093 29.8193 31.3444 29.8193 31.3444C29.8193 31.3444 23.3396 25.7538 19.7241 29.9807C19.7241 29.9807 13.9075 24.1586 17.5741 14.709C18.5878 17.297 21.0383 18.2384 21.0383 18.2384" fill="#3A1E19"/>
<path d="M12.0645 57.4521C12.0645 57.4521 16.8482 62.6897 23.8785 64.2903C29.8623 67.3069 35.2799 65.6556 35.2799 65.6556C35.2799 65.6556 40.6025 64.6488 41.0716 62.0694C39.386 62.0639 29.2911 61.7156 29.2911 61.7156L12.0645 57.4521Z" fill="#D69861"/>
<path d="M29.8524 32.4659L29.1542 31.911C29.1035 31.8697 23.9108 27.8244 20.0433 30.6033C19.7182 30.8364 19.2671 30.7623 19.0333 30.4381C18.8004 30.114 18.8744 29.662 19.1986 29.4282C23.0835 26.636 27.6985 29.1734 29.395 30.3049C30.313 28.9739 32.7295 26.2573 37.2167 26.1217C41.6485 25.9946 45.8613 28.7759 46.039 28.8944C46.3709 29.1165 46.4598 29.5653 46.2377 29.8973C46.0156 30.2293 45.5675 30.3189 45.2348 30.0968C45.195 30.0703 41.2152 27.4371 37.2595 27.568C32.2869 27.7177 30.2717 31.6297 30.2514 31.6686L29.8524 32.4659Z" fill="#040606"/>
<path d="M22.4883 61.4023C22.4883 61.4023 24.6606 64.7844 32.4363 65.1826C40.2121 65.5816 42.2382 60.2809 42.2382 60.2809C42.2382 60.2809 35.6415 63.2944 22.4883 61.4023Z" fill="#CF616D"/>
<path d="M23.6946 62.0086C24.8867 62.9851 27.4997 64.4891 32.4583 64.7431C37.8159 65.0229 40.3002 62.5401 41.2829 61.1015C38.9684 61.8411 33.1355 63.1853 23.6946 62.0086ZM33.2492 65.644C32.9773 65.644 32.6998 65.637 32.4138 65.623C24.5035 65.2169 22.2106 61.7857 22.1169 61.64L21.5957 60.8288L22.55 60.9659C35.3946 62.8144 41.9897 59.9108 42.0552 59.8812L43.0316 59.4377L42.649 60.4384C42.6279 60.4929 40.5706 65.644 33.2492 65.644Z" fill="#231F20"/>
<path d="M46.3613 43.2247C46.3613 46.7385 43.5122 49.5876 39.9984 49.5876C36.4838 49.5876 33.6348 46.7385 33.6348 43.2247C33.6348 39.7101 36.4838 36.861 39.9984 36.861C43.5122 36.861 46.3613 39.7101 46.3613 43.2247Z" fill="#D69861"/>
<path d="M28.0062 43.3626C28.0062 46.327 25.6029 48.7303 22.6391 48.7303C19.6748 48.7303 17.2715 46.327 17.2715 43.3626C17.2715 40.399 19.6748 37.9957 22.6391 37.9957C25.6029 37.9957 28.0062 40.399 28.0062 43.3626Z" fill="#D69861"/>
<path d="M45.5259 42.4875C45.5259 45.8735 42.7805 48.6181 39.3953 48.6181C36.0093 48.6181 33.2646 45.8735 33.2646 42.4875C33.2646 39.1023 36.0093 36.3576 39.3953 36.3576C42.7805 36.3576 45.5259 39.1023 45.5259 42.4875Z" fill="white"/>
<path d="M27.2419 42.6301C27.2419 45.4854 24.9266 47.8015 22.0708 47.8015C19.2144 47.8015 16.8994 45.4854 16.8994 42.6301C16.8994 39.774 19.2144 37.458 22.0708 37.458C24.9266 37.458 27.2419 39.774 27.2419 42.6301Z" fill="white"/>
<path d="M41.4595 43.6587C40.6085 43.6587 39.9196 42.9691 39.9196 42.1196C39.9196 41.991 39.9368 41.8664 39.9664 41.7479C38.6666 41.8329 37.6387 42.9106 37.6387 44.2323C37.6387 45.6085 38.7546 46.7252 40.1316 46.7252C41.5086 46.7252 42.6238 45.6085 42.6238 44.2323C42.6238 43.9042 42.5591 43.5901 42.4438 43.3034C42.1765 43.5255 41.8344 43.6587 41.4595 43.6587Z" fill="#040606"/>
<path d="M24.9625 43.7289C24.1743 43.7289 23.5204 43.1577 23.3904 42.4056C22.4702 42.6262 21.7861 43.4515 21.7861 44.438C21.7861 45.5937 22.7228 46.5304 23.878 46.5304C25.0334 46.5304 25.9701 45.5937 25.9701 44.438C25.9701 44.1068 25.8914 43.7959 25.755 43.5177C25.5213 43.651 25.2508 43.7289 24.9625 43.7289Z" fill="#040606"/>
<path d="M52.881 63.681C49.9408 65.6853 47.4634 68.8516 47.6473 69.6527C47.8328 70.4522 52.8194 69.8981 54.6664 67.8673C56.5125 65.8349 56.5016 64.3231 52.881 63.681Z" fill="white"/>
<path d="M45.2471 84.8627C44.587 83.746 46.9296 79.4054 50.4598 79.4046C52.1422 79.4038 51.8547 81.2928 51.5679 82.1337C51.2803 82.9753 46.8478 87.5723 45.2471 84.8627Z" fill="white"/>
<path d="M26.3272 94.6529C27.6862 93.784 28.9947 94.5501 32.6066 94.5703C36.2179 94.5914 37.6899 93.5861 39.5813 94.7963C41.4718 96.0073 37.7344 97.4225 32.9542 97.2386C28.1741 97.0539 24.5625 95.7813 26.3272 94.6529Z" fill="white"/>
<path d="M43.7477 58.8135C40.7357 64.8366 27.7707 63.6786 25.5389 63.1954C14.9898 60.9106 8.6377 54.5594 8.6377 54.5594L9.19691 51.2911" fill="#F7BF7F"/>
<path d="M44.3947 59.137C43.9762 59.9536 43.377 60.6644 42.6951 61.234C42.0109 61.806 41.2503 62.2486 40.4687 62.6017C38.8992 63.3069 37.2486 63.681 35.6036 63.9077C33.9562 64.1369 32.3025 64.2015 30.6567 64.1774C29.833 64.1641 29.0108 64.1244 28.191 64.0574C27.3681 63.9864 26.5545 63.9039 25.7214 63.7519C25.617 63.7324 25.5064 63.7098 25.4043 63.6864L25.1058 63.6101L24.5075 63.4565C24.1103 63.3506 23.7084 63.2609 23.3157 63.1401L22.1392 62.7708C21.9444 62.7069 21.7456 62.6508 21.5532 62.5806L20.9754 62.3663C20.5912 62.2221 20.2038 62.085 19.8217 61.9338L18.6893 61.4514C18.3088 61.2979 17.9414 61.1148 17.5715 60.9371C17.2038 60.7555 16.8273 60.5927 16.4687 60.3924C15.0075 59.6482 13.6081 58.7878 12.2572 57.8628C10.9086 56.9277 9.61889 55.9302 8.42315 54.773L8.31055 54.6638L8.33883 54.508L8.93398 51.2467C8.95985 51.101 9.09895 51.0051 9.24351 51.0316C9.38596 51.0573 9.48189 51.1929 9.45906 51.3363L8.93546 54.6101L8.85082 54.3451C10.0116 55.4213 11.3175 56.3915 12.6544 57.2745C13.9993 58.1543 15.389 58.9671 16.8364 59.6645C17.1901 59.8531 17.563 60.0043 17.9268 60.1742C18.2921 60.3402 18.6543 60.5108 19.0303 60.6534L20.1468 61.1008C20.5228 61.2402 20.9033 61.3657 21.2814 61.499L21.8491 61.6953C22.0388 61.76 22.2327 61.8099 22.4244 61.8676L23.5775 62.2034C23.9626 62.3125 24.3559 62.3897 24.7442 62.4848L25.3287 62.6219L25.6209 62.6905C25.716 62.71 25.8048 62.7264 25.8999 62.7427C26.6675 62.8651 27.4717 62.9313 28.2666 62.9812C29.0646 63.0295 29.8649 63.0505 30.6645 63.0466C32.2612 63.0349 33.8595 62.9375 35.4228 62.6843C36.9829 62.4372 38.5228 62.0445 39.9029 61.3852C41.2783 60.7353 42.4862 59.7721 43.1003 58.4894C43.2725 58.1293 43.7043 57.9766 44.0651 58.1496C44.4259 58.3218 44.5778 58.7535 44.4048 59.1144L44.3986 59.1284L44.3947 59.137Z" fill="#040606"/>
<path d="M36.4208 33.7852C36.7131 33.6356 36.9663 33.5249 37.2461 33.4322C37.5196 33.3371 37.7971 33.2654 38.0768 33.2031C38.6379 33.0823 39.2099 33.0285 39.7881 33.0238C40.9415 33.0161 42.1252 33.2405 43.2427 33.7182C44.3555 34.2006 45.4122 34.9479 46.1721 35.9431C46.9365 36.9289 47.387 38.1305 47.3815 39.3127C47.3799 39.6252 47.1243 39.8792 46.8103 39.8769C46.6638 39.8769 46.5297 39.8192 46.4292 39.7265L46.4004 39.7C45.6164 38.9745 44.954 38.3846 44.2231 37.9396C43.5139 37.4806 42.7697 37.1385 41.9756 36.8385C41.1776 36.5478 40.3336 36.2922 39.4367 36.0522L38.0581 35.6836L37.3412 35.4825C37.105 35.4163 36.8432 35.3391 36.6235 35.2542L36.4933 35.2043C36.0928 35.0484 35.8933 34.5972 36.0491 34.1975C36.1208 34.012 36.2564 33.8694 36.4208 33.7852Z" fill="#040606"/>
<path d="M15.8128 38.2614C16.004 37.7821 16.2451 37.4049 16.5297 37.0301C16.8137 36.6623 17.1395 36.3303 17.4962 36.028C18.2085 35.4248 19.0624 34.9518 20.0106 34.6767C20.9552 34.4039 22.007 34.3315 22.9963 34.5707C23.9832 34.8014 24.8831 35.3328 25.4738 36.0911C25.6406 36.3054 25.6024 36.6132 25.3889 36.78C25.2953 36.854 25.1831 36.8875 25.0732 36.8836L25.0374 36.8828C24.1719 36.8563 23.4657 36.8446 22.7954 36.9537C22.1308 37.041 21.5093 37.214 20.8721 37.4299C20.2399 37.6574 19.5921 37.9224 18.9142 38.2224L17.8685 38.6814C17.5108 38.8303 17.1288 39.004 16.7473 39.1233L16.6418 39.1568C16.2862 39.2674 15.9072 39.0703 15.7954 38.7142C15.7474 38.5599 15.7574 38.4009 15.8128 38.2614Z" fill="#040606"/>
<path d="M13.2324 51.0191C13.2324 51.0191 28.238 50.6622 29.2908 38.9044C29.2908 38.9044 29.4708 41.1869 29.8901 43.4281C30.2407 45.3023 30.7582 47.1461 31.4767 47.602C33.054 48.6034 37.8466 51.7486 37.8466 51.7486L26.3225 55.2125C26.3225 55.2125 13.6363 53.9103 13.2324 51.0191Z" fill="#F7BF7F"/>
<path d="M13.2156 50.2959C13.628 50.2881 14.0892 50.2546 14.5285 50.2125C14.972 50.1673 15.4164 50.1151 15.8587 50.0465C16.7437 49.9133 17.6234 49.7341 18.488 49.5042C20.2149 49.0428 21.8907 48.3859 23.4066 47.4656C24.9089 46.5367 26.2547 45.3373 27.2008 43.8489C28.1772 42.3791 28.7056 40.6413 28.9121 38.87L28.9129 38.8622C28.9378 38.6526 29.1264 38.503 29.3353 38.5272C29.5402 38.5521 29.6883 38.7344 29.6711 38.9386C29.5129 40.8136 29.0056 42.7088 27.9925 44.3437C27.0114 45.9966 25.583 47.3502 23.9978 48.3984C22.399 49.4372 20.6401 50.1892 18.8344 50.7315C17.9302 51.002 17.0115 51.2194 16.084 51.3885C15.1495 51.5568 14.2363 51.6869 13.25 51.7423C12.8512 51.7649 12.5094 51.4594 12.4875 51.0596C12.4652 50.6614 12.7705 50.3193 13.1694 50.2975L13.1927 50.2967L13.2156 50.2959Z" fill="#231F20"/>
<path d="M8.6377 54.5594C8.6377 54.5594 17.1572 62.2642 25.7773 63.2414C34.3978 64.2194 41.621 62.7427 43.7477 58.8135C34.5209 64.9574 18.4326 60.2809 13.2328 54.5742C13.964 52.3517 13.8757 52.2044 13.8126 51.7532C13.5022 51.4703 9.44441 53.7131 9.44441 53.7131L8.6377 54.5594Z" fill="#D69861"/>
<path d="M3.26172 50.656C3.2632 49.3172 3.99285 47.7866 8.04459 47.7305C8.04459 47.7305 13.8399 47.6175 14.0089 50.4876C14.1769 53.357 10.0135 55.832 8.63514 55.7759C7.25705 55.7198 3.25775 53.7225 3.26172 50.656Z" fill="#040606"/>
<path d="M7.89326 49.1948C7.97244 49.5712 7.19557 50.0528 6.15904 50.271C5.12166 50.4876 4.21753 50.3575 4.13835 49.9811C4.05926 49.6031 4.83636 49.1215 5.87289 48.9049C6.91004 48.6875 7.81409 48.8168 7.89326 49.1948Z" fill="white"/>
<path d="M44.3945 59.137C43.976 59.9537 43.3767 60.6644 42.6949 61.234C42.0106 61.806 41.2501 62.2486 40.4684 62.6017C38.899 63.3069 37.2484 63.681 35.6034 63.9077C33.9559 64.1369 32.3023 64.2015 30.6564 64.1774C29.8327 64.1641 29.0106 64.1244 28.1908 64.0574C27.3679 63.9864 26.5543 63.9039 25.7212 63.7519C25.6168 63.7324 25.5061 63.7098 25.404 63.6864L25.1056 63.6101L24.5072 63.4565C24.11 63.3506 23.7082 63.2609 23.3155 63.1401L22.139 62.7708C21.9442 62.7069 21.7454 62.6508 21.553 62.5806L20.9752 62.3663C20.591 62.2221 20.2036 62.085 19.8215 61.9338L18.6891 61.4514C18.3086 61.2979 17.9412 61.1148 17.5713 60.9371C17.2036 60.7555 16.8271 60.5927 16.4684 60.3924C15.0073 59.6482 13.6079 58.7878 12.2569 57.8628C10.9084 56.9277 9.61867 55.9302 8.42293 54.773C8.35077 54.7028 8.32185 54.6038 8.33861 54.5119V54.508L8.93375 51.2467L9.45883 51.3363L8.93523 54.6101L8.8506 54.3451C10.0113 55.4213 11.3173 56.3915 12.6542 57.2745C13.9991 58.1543 15.3887 58.9671 16.8362 59.6645C17.1899 59.8531 17.5628 60.0043 17.9266 60.1742C18.2919 60.3402 18.6541 60.5108 19.03 60.6534L20.1466 61.1008C20.5226 61.2402 20.903 61.3657 21.2812 61.499L21.8489 61.6953C22.0385 61.76 22.2324 61.8099 22.4242 61.8676L23.5773 62.2034C23.9624 62.3125 24.3557 62.3897 24.744 62.4848L25.3285 62.6219L25.6207 62.6905C25.7158 62.71 25.8046 62.7264 25.8997 62.7427C26.6673 62.8651 27.4715 62.9313 28.2664 62.9812C29.0644 63.0295 29.8647 63.0505 30.6642 63.0466C32.261 63.0349 33.8593 62.9375 35.4226 62.6843C36.9827 62.4372 38.5226 62.0445 39.9027 61.3852C41.2781 60.7353 42.486 59.7721 43.1001 58.4894L44.3945 59.137Z" fill="#040606"/>
<path d="M16.1206 51.9028C14.5788 52.4733 16.668 52.6447 17.7349 52.4818C18.8019 52.3174 30.7865 50.1728 30.0875 44.3913C29.567 40.0772 28.8602 44.8323 27.2424 46.6933C23.4807 51.0191 16.1206 51.9028 16.1206 51.9028Z" fill="#FCD4AE"/>
<path d="M16.1875 110.655C17.119 109.369 19.2341 108.577 19.8703 108.973C20.5071 109.369 18.0094 110.556 17.3413 111.348C16.674 112.139 16.3519 113.819 15.4128 113.647C14.4731 113.473 15.256 111.941 16.1875 110.655Z" fill="#FCD4AE"/>
<path d="M54.0377 110.137C54.912 109.226 56.8984 108.665 57.4954 108.946C58.0931 109.226 55.7482 110.066 55.1209 110.627C54.4943 111.187 54.192 112.378 53.3098 112.255C52.4269 112.132 53.1633 111.047 54.0377 110.137Z" fill="#FCD4AE"/>
<path d="M26.3002 79.6789C26.3002 79.6789 28.2079 78.8778 29.3168 79.2784C29.4392 81.2804 29.6511 84.3586 29.6511 84.3586C29.6511 84.3586 27.4699 84.9734 25.6846 84.3586C25.93 82.4501 26.3002 79.6789 26.3002 79.6789Z" fill="#C1C0B8"/>
<path d="M26.348 83.9167C27.3502 84.131 28.4178 83.9954 29.014 83.8832C28.9547 83.0143 28.834 81.2141 28.7436 79.7748C28.1762 79.7327 27.4079 79.9197 26.8499 80.1146C26.754 80.8323 26.5319 82.5062 26.348 83.9167ZM27.5099 85.2345C26.8631 85.2345 26.154 85.1581 25.4869 84.9274L25.0225 84.7677L25.0856 84.2806C25.3326 82.3714 25.7012 79.5994 25.7012 79.5994L25.7472 79.2573L26.0659 79.1233C26.2833 79.0321 28.23 78.2443 29.5213 78.7118L29.893 78.8467L29.9179 79.241C30.0395 81.218 30.2499 84.2861 30.2523 84.3165L30.285 84.8051L29.8143 84.9383C29.7512 84.9555 28.7436 85.2345 27.5099 85.2345Z" fill="#353436"/>
<path d="M37.1342 79.2784C37.1342 79.2784 39.5297 78.39 40.4563 79.1576C40.5202 80.3561 40.9573 83.8652 40.9573 83.8652C40.9573 83.8652 38.4893 84.7895 36.5801 83.4959L37.1342 79.2784Z" fill="#C1C0B8"/>
<path d="M37.2297 83.1818C38.3433 83.7592 39.6307 83.5831 40.297 83.4273C40.1848 82.5077 39.958 80.5813 39.877 79.5176C39.3767 79.3454 38.4135 79.5067 37.6833 79.7296L37.2297 83.1818ZM39.0112 84.7895C38.1501 84.7895 37.1495 84.6087 36.2432 83.9954L35.9346 83.7857L36.5845 78.8404L36.9258 78.7134C37.3801 78.5451 39.7048 77.751 40.8417 78.6931L41.0443 78.8622L41.0584 79.1256C41.1207 80.2891 41.5509 83.7561 41.5556 83.7912L41.614 84.2635L41.1683 84.4302C41.1036 84.4544 40.1864 84.7895 39.0112 84.7895Z" fill="#353436"/>
<path d="M20.0931 100.501C20.0931 100.501 19.4888 104.01 19.6739 104.44C20.2279 104.471 23.7064 104.779 24.2909 104.994C21.6745 104.225 20.339 103.841 20.339 103.841L20.0931 100.501Z" fill="#34394A"/>
<path d="M45.1191 106.718C45.1191 106.718 50.1331 105.703 51.7867 103.841C50.7721 105.548 46.0223 107.98 46.0223 107.98L45.8408 109.488L45.1191 106.718Z" fill="#0D1119"/>
<path d="M52.6104 34.1974C53.4411 34.7211 54.6575 33.196 54.6575 33.196C54.6575 33.196 54.8414 34.3205 54.5796 36.0326C54.8882 35.6742 56.5496 36.3576 56.5496 36.3576C56.5496 36.3576 55.3495 36.3911 55.3184 36.6171C55.288 36.8439 56.7351 37.1291 56.7967 37.6333C56.0883 37.3372 56.0314 37.9832 56.0314 37.9832C56.0314 37.9832 56.4577 37.9832 56.7967 38.5988C56.1195 38.3526 57.0889 39.5059 57.0889 39.5059C57.0889 39.5059 57.1107 39.7981 56.6611 39.5059C57.0733 40.1075 57.4739 40.6304 58.1815 40.7232C57.6578 40.9382 57.4357 40.8767 57.4357 40.8767C57.4357 40.8767 58.674 41.2461 58.8891 41.5843C58.0887 41.3388 58.1503 42.016 58.1503 42.016C58.1503 42.016 59.0745 41.9139 59.0745 42.4875C58.5508 42.2615 58.582 42.9441 58.582 42.9441L59.1977 43.3743L58.9506 43.9549L57.1957 44.2362L52.6104 34.1974Z" fill="#4C2A20"/>
<path d="M49.9532 53.8245C49.9532 55.1041 48.3447 56.1414 46.3615 56.1414C44.3782 56.1414 42.7705 55.1041 42.7705 53.8245C42.7705 52.5457 44.3782 51.5085 46.3615 51.5085C48.3447 51.5085 49.9532 52.5457 49.9532 53.8245Z" fill="#F8A185"/>
<path d="M14.9142 86.5538C14.4399 87.2287 13.7641 88.8106 13.7641 88.8106C13.7641 88.8106 14.2938 88.873 14.6493 87.9893C15.3424 86.2655 15.7848 83.2216 17.6712 83.6611C20.0303 84.2105 18.5975 87.6658 17.6706 89.7341C16.7436 91.8031 18.627 93.8962 20.9019 95.1267C23.1758 96.358 21.6452 97.993 21.6452 97.993C21.6452 97.993 22.8172 98.5213 22.2945 99.7697C21.4285 101.838 19.7929 100.954 19.7929 100.954C19.7929 100.954 18.0115 103.886 13.6113 100.729C8.86704 97.3236 9.70478 92.9221 10.4719 91.1508C11.2238 89.4153 11.4034 89.1286 11.4034 89.1286C11.4034 89.1286 12.8144 86.9458 14.7361 86.5974" fill="#F7BF7F"/>
<path d="M13.6387 97.7896C13.6387 97.7896 14.0983 99.1082 16.0374 100.056C17.9756 101.004 19.7929 100.954 19.7929 100.954" fill="#F7BF7F"/>
<path d="M15.834 95.7042C15.834 95.7042 17.1408 96.898 18.4589 97.5682C19.7769 98.2376 21.6451 97.9929 21.6451 97.9929" fill="#F7BF7F"/>
<path d="M14.5462 86.7198L14.6324 86.8204C14.6765 86.871 14.7577 86.924 14.8454 86.9372C14.9428 86.9521 15.0073 86.9295 14.9794 86.9357L14.9702 86.9372L14.9519 86.9411L14.913 86.9505L14.8308 86.9715L14.6649 87.0214C14.5538 87.058 14.4427 87.097 14.3331 87.143C14.1133 87.2326 13.8972 87.3355 13.6893 87.4531C13.2722 87.6893 12.8857 87.9768 12.5264 88.2994C12.159 88.6119 11.8095 88.9665 11.5563 89.3881C11.2981 89.805 11.0836 90.25 10.9124 90.7129C10.5776 91.6434 10.3621 92.6369 10.3286 93.6165C10.2899 94.5992 10.4458 95.5787 10.7831 96.4905C11.4716 98.3164 12.8917 99.8033 14.5029 100.936C15.3133 101.481 16.2021 101.939 17.1604 102.016C18.1087 102.106 19.1071 101.722 19.7926 100.954H19.7936C20.2356 100.947 20.5698 100.826 20.8408 100.639C21.1116 100.454 21.3497 100.198 21.5521 99.889C21.652 99.737 21.7448 99.5664 21.8285 99.4035C21.9098 99.2461 21.9701 99.0879 21.9981 98.9336C22.0279 98.7785 22.0173 98.6281 21.9564 98.4754C21.8946 98.3257 21.7723 98.1753 21.6231 98.0569L21.5886 98.0296L21.5805 97.9595L21.5957 97.947C21.547 97.7483 21.5537 97.6205 21.5811 97.5098C21.6139 97.4023 21.6617 97.308 21.69 97.2075C21.7546 97.0103 21.7828 96.8202 21.7768 96.6323C21.7652 96.2637 21.5104 95.8515 21.091 95.6419C20.9838 95.5928 20.8742 95.5523 20.7698 95.5C20.6688 95.4447 20.5424 95.3746 20.4313 95.3091C20.203 95.1735 19.9853 95.0208 19.7728 94.8618C19.3482 94.5431 18.9494 94.1901 18.5698 93.8152C18.197 93.4326 17.849 93.0149 17.5766 92.5364C17.3066 92.0595 17.1163 91.5078 17.1087 90.9311C17.1047 90.6443 17.1489 90.3575 17.2296 90.0848C17.27 89.95 17.3157 89.8152 17.3726 89.6866C17.4274 89.5557 17.4785 89.4481 17.5318 89.3289C17.7425 88.8621 17.951 88.3992 18.1412 87.9332C18.33 87.4664 18.5029 86.9957 18.6246 86.5195C18.747 86.0473 18.8225 85.5602 18.7607 85.1176C18.7059 84.6719 18.47 84.3212 18.0819 84.1264C17.8926 84.0289 17.6663 83.9541 17.4557 83.9284C17.2433 83.9027 17.0423 83.9284 16.8612 84.0087C16.4923 84.163 16.2143 84.5612 16.0028 84.9851C15.7897 85.4176 15.6314 85.8938 15.4822 86.3762C15.3331 86.8601 15.1976 87.3549 15.0204 87.8529C14.9313 88.0953 14.8308 88.3735 14.6399 88.6197C14.5471 88.7421 14.4329 88.8605 14.2859 88.9533C14.2129 89 14.1322 89.0398 14.0448 89.0686L13.9063 89.1021C13.8506 89.1083 13.8217 89.1161 13.7288 89.1083C13.5675 89.0966 13.4467 88.9548 13.4588 88.7927L13.506 88.6548L13.5152 88.6415C13.741 88.3002 13.9596 87.9402 14.1535 87.5786C14.2503 87.397 14.3437 87.2139 14.4229 87.03C14.4649 86.938 14.5005 86.8453 14.534 86.7541L14.5462 86.7198ZM15.0722 86.2039L15.1346 86.3442C15.1809 86.4478 15.2092 86.6372 15.1681 86.7736L15.1489 86.8375L15.1346 86.8788L15.1057 86.9606C15.0661 87.0674 15.025 87.1726 14.9794 87.2739C14.8895 87.4788 14.7897 87.6737 14.6871 87.8654C14.4786 88.2496 14.2563 88.6143 14.0128 88.979L13.7988 88.5114L13.8125 88.5075L13.8606 88.4966L13.9647 88.4467C14.0348 88.4023 14.1027 88.3353 14.1635 88.255C14.2889 88.096 14.3705 87.8864 14.4564 87.6503C14.6232 87.1851 14.7587 86.6926 14.9115 86.2C15.0652 85.706 15.2296 85.2072 15.4695 84.7209C15.5903 84.4778 15.7318 84.2378 15.916 84.0157C16.0971 83.7936 16.3324 83.5886 16.6216 83.464C16.9084 83.3362 17.2335 83.3011 17.5279 83.3393C17.8246 83.379 18.0925 83.4663 18.3568 83.6011C18.6186 83.7367 18.8642 83.9393 19.0371 84.1965C19.2137 84.4521 19.3056 84.749 19.3461 85.0334C19.4222 85.6093 19.3263 86.1541 19.1954 86.6668C19.062 87.1819 18.8803 87.6737 18.6855 88.1545C18.4892 88.6345 18.2767 89.1052 18.066 89.5697C18.0159 89.6842 17.9549 89.8074 17.9145 89.9141C17.8703 90.0193 17.8353 90.1292 17.8088 90.2399C17.7562 90.4612 17.7409 90.6872 17.7531 90.9116C17.7952 91.8156 18.3278 92.6845 19.0189 93.3648C19.3665 93.7092 19.7637 94.0062 20.1838 94.2641C20.3924 94.3942 20.6064 94.5166 20.8215 94.6358C20.9305 94.7013 21.031 94.748 21.1503 94.8228C21.2705 94.893 21.3756 94.9912 21.4815 95.0847C21.5826 95.1868 21.6885 95.2787 21.7972 95.3738C21.9022 95.4728 22.0035 95.5788 22.0979 95.6964C22.1929 95.8118 22.2761 95.9435 22.3481 96.0837C22.416 96.2256 22.4693 96.3799 22.4973 96.5396C22.5561 96.8607 22.5013 97.1903 22.3856 97.4701C22.3232 97.6096 22.2568 97.7444 22.1579 97.8566C22.0538 97.9641 21.9128 98.0468 21.6937 98.039L21.6663 97.9291C21.8955 97.9603 22.1102 98.0694 22.2791 98.2548C22.4502 98.4387 22.5424 98.7045 22.5522 98.9546C22.5628 99.2079 22.5049 99.4471 22.4237 99.6614C22.34 99.8695 22.2493 100.064 22.1299 100.255C21.8976 100.629 21.5749 101.007 21.1107 101.186C20.6557 101.367 20.0995 101.288 19.7936 100.954H19.7926C19.547 101.406 19.1595 101.789 18.6998 102.061C18.2387 102.335 17.6946 102.479 17.1504 102.493C16.6049 102.505 16.06 102.407 15.5553 102.224C15.0463 102.048 14.5684 101.804 14.1209 101.521C13.668 101.243 13.2518 100.923 12.85 100.584C12.4473 100.246 12.0676 99.875 11.7198 99.4744C11.0181 98.6811 10.4565 97.746 10.1073 96.7337C9.75565 95.7214 9.62785 94.6382 9.70547 93.5838C9.78215 92.524 10.0327 91.5054 10.3971 90.5196C10.7669 89.5276 11.353 88.633 12.0464 87.8093C12.4153 87.4165 12.8469 87.0806 13.3111 86.8024C13.5447 86.6637 13.7867 86.539 14.0393 86.4338C14.1651 86.3808 14.2935 86.3325 14.4244 86.2881L14.6247 86.2265L14.7282 86.1985L14.7815 86.186L14.8104 86.1798L14.8247 86.1767C14.8004 86.1829 14.8697 86.1587 14.9708 86.1728L15.0722 86.2039Z" fill="#231F20"/>
<path d="M14.0158 97.6578C14.0752 97.7256 14.1619 97.8503 14.2457 97.9446C14.3278 98.0475 14.4198 98.1449 14.5105 98.2415C14.6946 98.4348 14.8947 98.6164 15.1047 98.7855C15.5233 99.1299 15.989 99.4221 16.4892 99.6926C16.7394 99.8282 16.9981 99.9497 17.2599 100.074C17.5257 100.187 17.7942 100.3 18.0697 100.404C18.6215 100.61 19.1914 100.791 19.7926 100.949L19.7966 100.955L19.7926 100.96C19.1838 101.116 18.5476 101.127 17.9199 101.071C17.2897 101.013 16.6633 100.868 16.0621 100.639C15.4633 100.408 14.8688 100.091 14.3741 99.6372C14.1245 99.4151 13.8956 99.165 13.7039 98.8837C13.6095 98.7418 13.5218 98.5953 13.4466 98.4395C13.3705 98.2774 13.3111 98.1355 13.26 97.922C13.2092 97.7108 13.3401 97.4973 13.5516 97.4466C13.6993 97.4116 13.8475 97.4638 13.9404 97.5713L14.0158 97.6578Z" fill="#231F20"/>
<path d="M16.1371 95.3745C16.5298 95.7018 16.9468 96.0369 17.3578 96.358C17.7733 96.6767 18.1955 96.9869 18.6348 97.2503C19.0472 97.4981 19.5404 97.6609 20.0524 97.7771C20.5662 97.8846 21.0996 97.961 21.646 97.9929C21.1179 98.141 20.5654 98.2142 20.0046 98.2127C19.7236 98.2135 19.4415 98.1846 19.1568 98.1418C18.8728 98.0903 18.5897 98.0101 18.3096 97.8971C17.7861 97.6695 17.2984 97.3913 16.8379 97.078C16.3745 96.7655 15.9459 96.4266 15.5329 96.0354C15.3533 95.8655 15.3448 95.5818 15.5152 95.4026C15.6781 95.2296 15.9459 95.2155 16.1265 95.3659L16.1371 95.3745Z" fill="#231F20"/>
</svg>
