<svg width="368" height="363" viewBox="0 0 368 363" fill="none" xmlns="http://www.w3.org/2000/svg">
<path d="M281.802 324.31C282.649 322.882 281.845 321.071 280.038 320.265C251.183 307.421 235.891 291.149 238.053 275.624C239.538 264.586 250.429 255.694 265.044 253.496C301.184 248.082 320.403 241.066 326.481 230.887C326.941 230.126 327.342 229.309 327.679 228.484C332.143 216.81 319.806 203.649 305.906 191.228C281.818 169.734 290.778 162.76 307.018 150.096C320.529 139.566 337.326 126.507 339.292 100.571C341.523 70.4069 290.543 62.3346 242.547 57.0727C240.427 56.8402 238.566 58.0046 238.411 59.6601C238.257 61.3157 239.865 62.8604 241.986 63.0929C286.26 67.896 333.357 75.1373 331.577 99.7759C329.817 123.504 314.068 135.766 301.403 145.578C285.232 158.198 271.234 169.081 300.294 195.022C317.012 209.931 322.953 219.299 320.283 226.355C316.847 235.355 298.22 242.283 263.2 247.516C245.49 250.186 232.342 261.01 230.495 274.542C229.304 283.128 231.453 305.309 276.696 325.473C278.626 326.344 280.946 325.838 281.862 324.367C281.797 324.36 281.802 324.31 281.802 324.31Z" fill="#525159"/>
<path d="M282.324 344.632C283.089 344.962 297.807 354.987 298.353 358.341C298.576 359.625 299.163 361.29 295.324 360.991C290.81 360.614 277.492 346.493 277.492 346.493L282.324 344.632Z" fill="#313138"/>
<path d="M289.591 335.277C289.591 335.277 306.812 346.626 309.919 346.023C311.301 345.75 313.027 344.794 311.118 342.789C308.745 340.297 302.08 336.535 299.371 334.63C294.431 331.165 290.715 329.769 290.715 329.769L289.591 335.277Z" fill="#313138"/>
<path d="M300.501 332.648C300.501 332.648 281.107 317.33 269.558 319.086C261.06 320.361 254.287 330.485 261.25 338.955C268.213 347.425 276.552 353.512 280.391 355.76C284.225 358.056 301.695 340.996 300.501 332.648Z" fill="#313138"/>
<path d="M305.435 329.191C305.435 329.191 286.394 317.404 274.583 317.656C264.557 317.87 259.453 327.079 266.381 335.525C273.308 343.972 281.552 349.987 285.367 352.277C289.238 354.573 306.623 337.514 305.435 329.191Z" fill="#525159"/>
<path d="M267.387 339.866C267.982 338.337 283.958 348.365 289.826 345.17C295.637 341.97 301.852 333.733 302.254 334.312C302.656 334.891 299.608 342.09 292.585 347.958C285.507 353.82 281.69 355.121 281.69 355.121C281.69 355.121 266.505 342.039 267.387 339.866Z" fill="#313138"/>
<path d="M293.221 325.658C293.221 325.658 280.988 318.828 276.893 319.016C272.803 319.157 267.929 319.923 269.532 322.593C271.135 325.264 290.499 335.414 293.819 335.755C297.2 336.056 302.337 330.5 293.221 325.658Z" fill="#70707F"/>
<path d="M109.654 162.851C89.7177 167.978 53.7977 153.021 46.2748 150.09C38.7519 147.159 53.4367 143.47 53.4367 143.47C53.4367 143.47 42.7478 139.388 40.6514 137.616C38.555 135.843 49.0044 131.626 49.0044 131.626L41.2483 124.805L48.246 119.949L41.3836 111.199L47.651 107.796L41.8744 101.447L48.5283 95.8094L41.8417 88.3667L50.0259 84.19C50.0259 84.19 44.0806 79.6544 43.0582 77.2108C42.0359 74.7673 73.1109 71.4445 73.1109 71.4445L106.624 146.807L109.654 162.851Z" fill="#525159"/>
<path d="M109.268 163.122C109.268 163.122 97.9979 167.321 77.6422 160.653C65.4763 157.692 45.006 152.255 45.2488 150.293C45.4916 148.332 70.9682 149.064 70.9682 149.064C70.9682 149.064 62.4169 146.013 58.749 134.413C55.1406 122.821 56.5591 91.4611 55.4712 83.7818C54.3833 76.1025 63.1321 73.8067 63.1321 73.8067L101.794 87.2095L109.268 163.122Z" fill="#313138"/>
<path d="M95.0631 58.82C91.5335 60.059 64.2174 64.8948 58.5871 72.2845C52.9569 79.6742 53.8915 121.678 62.4423 137.1C70.9932 152.521 92.7244 160.796 113.504 159.564C134.285 158.332 268.82 100.545 278.138 89.5618C287.457 78.5782 265.836 28.0813 259.127 24.2548C252.417 20.4282 210.609 34.9234 210.609 34.9234L95.0631 58.82Z" fill="#E5922A"/>
<path d="M80.7973 115.529C80.7973 115.529 83.0002 132.709 94.8143 135.139C106.628 137.568 172.58 117.283 173.341 115.863C174.045 114.436 241.416 86.1911 246.031 78.4042C250.701 70.6238 239.262 28.5948 239.262 28.5948L215.811 34.8958L84.86 65.7492L80.7973 115.529Z" fill="#B9741E"/>
<path d="M97.9156 129.543C84.2889 127.924 80.0865 113.31 76.8721 105.365C73.6578 97.4193 71.167 67.9009 75.3324 56.7758C79.4978 45.6506 110.523 32.7165 125.933 27.9856C141.286 23.2483 144.724 33.7443 151.293 35.0355C157.862 36.3266 212.798 23.8172 223.543 22.579C234.288 21.3409 245.59 61.9745 239.364 74.3675C233.087 86.706 111.542 131.162 97.9156 129.543Z" fill="#525159"/>
<path d="M93.7475 131.063C93.7475 131.063 81.7514 120.816 83.6016 115.716C85.4518 110.616 130.594 93.1852 139.054 89.3803C147.514 85.5754 156.93 100.108 166.755 96.4597C176.581 92.8116 223.762 73.2267 227.852 69.4074C231.943 65.5882 232.45 40.1083 226.314 24.9291C226.314 24.9291 237.96 32.1146 240.012 55.4028C242.065 78.6909 241.731 73.5839 228.634 80.9016C228.634 80.9016 161.125 115.747 115.952 126.643C104.253 129.394 98.9299 132.243 93.7475 131.063Z" fill="#313138"/>
<path d="M142.21 94.2843C142.21 94.2843 133.609 32.4699 136.213 27.5189C138.818 22.5679 151.869 38.0207 155.728 35.8287C160.413 38.9678 168.8 98.3402 165.533 102.966C162.271 107.542 142.21 94.2843 142.21 94.2843Z" fill="#313138"/>
<path d="M84.9414 97.9586C84.9414 97.9586 78.8384 64.2452 83.424 57.1866C88.0096 50.128 102.198 39.9454 112.764 36.6759C123.33 33.4063 95.6444 68.7781 95.6444 68.7781C95.6444 68.7781 86.7725 102.095 84.9414 97.9586Z" fill="#70707F"/>
<path d="M71.1637 141.012C71.1637 141.012 64.9511 116.773 63.2599 104.397C61.5687 92.0219 61.1577 79.0188 64.3284 74.8698C67.4991 70.7209 79.6704 108.865 78.3857 120.411C77.1058 131.906 71.1637 141.012 71.1637 141.012Z" fill="#FFC67F"/>
<path d="M73.1048 149.483C73.1048 149.483 87.3879 160.03 112.058 159.899L182.379 135.389C182.379 135.389 268.41 102.178 277.882 89.5957C287.354 77.0137 261.687 26.2848 258.743 24.0001C255.799 21.7154 267.654 82.9702 267.654 82.9702C267.654 82.9702 133.866 141 122.377 143.717C110.892 146.386 64.5433 143.439 73.1048 149.483Z" fill="#B9741E"/>
<path d="M189.601 27.521C189.601 27.521 216.305 20.2643 220.916 21.6694C225.526 23.0745 229.335 43.167 227.089 49.6046C224.785 56.0356 189.601 27.521 189.601 27.521Z" fill="#70707F"/>
</svg>
