<svg width="283" height="236" viewBox="0 0 283 236" fill="none" xmlns="http://www.w3.org/2000/svg">
<path d="M100.081 56.6669C100.081 56.6669 64.329 56.6211 43.7845 104.186C23.626 150.928 51.3116 201.258 51.3116 201.258C51.3116 201.258 48.4905 180.066 52.7036 162.042C54.9092 163.493 62.1571 166.667 62.1571 166.667C62.1571 166.667 57.9703 158.679 58.5803 150.438C67.8352 131.805 93.572 121.177 111.181 109.834C111.181 109.834 107.01 94.209 105.607 86.084L100.081 56.6669Z" fill="#FDB726"/>
<path d="M43.8688 104.231C42.2935 107.888 41.0161 111.597 39.9524 115.311C42.5237 122.163 55.8385 134.168 73.3695 133.519C84.9316 124.361 99.8599 117.222 111.33 109.859C111.33 109.859 107.16 94.2342 105.756 86.1092L100.166 56.7117C100.081 56.6665 64.3291 56.6207 43.8688 104.231Z" fill="#D89112"/>
<path d="M42.2135 120.209C37.4606 124.334 32.9906 151.764 38.4694 180.56C39.7155 196.788 42.7286 217.215 53.5804 234.842C53.5804 234.842 48.318 200.469 60.8509 173.776C44.8384 160.327 42.2135 120.209 42.2135 120.209Z" fill="#FDB726"/>
<path d="M42.5355 152.262C39.3119 148.152 38.6245 141.223 39.4813 141.953C40.5263 142.837 40.4992 144.612 44.4072 150.282C48.3995 155.997 54.9751 159.516 53.9067 159.486C49.4842 159.343 44.563 154.757 42.5355 152.262Z" fill="#FFCC2B"/>
<path d="M43.3204 196.331C40.6811 192.75 40.3212 187.135 41.4405 186.866C42.4951 186.617 42.5995 189.059 46.0213 194.523C48.5195 198.571 52.8699 200.573 52.3937 201.566C52.1429 202.136 46.6165 200.914 43.3204 196.331Z" fill="#FFCC2B"/>
<path d="M58.9069 147.088C46.1394 147.142 33.7297 132.531 33.4904 121.721C33.4353 120.608 34.3584 119.692 35.4268 119.721C36.5403 119.666 38.9094 115.132 38.9645 116.246C39.959 139.335 59.101 147.03 58.9069 147.088Z" fill="#D89112"/>
<path d="M57.6722 178.202C57.2194 178.339 34.7204 176.113 30.7499 151.595C30.3083 148.973 32.6774 144.439 32.7204 143.649C32.6653 142.535 34.5431 131.72 34.5982 132.833C36.7423 170.201 58.1897 178.045 57.6722 178.202Z" fill="#D89112"/>
<path d="M34.4311 170.265C34.3113 169.171 35.0157 162.174 35.1355 163.268C41.6112 187.663 55.428 189.905 54.3596 189.876C42.8232 190.263 34.7492 172.713 34.4311 170.265Z" fill="#D89112"/>
<path d="M227.086 65.7993C222.431 72.5804 181.232 73.903 186.215 95.005C188.752 94.5188 193.873 90.2106 197.025 87.5595C195.728 91.2031 195.546 95.4979 195.546 95.4979C195.546 95.4979 208.437 95.6185 212.744 96.0797C219.247 96.794 230.53 113.513 231.416 115.506C234.595 113.412 237.239 107.452 237.239 107.452L247.69 123.293C247.69 123.293 259.918 128.914 268.858 126.487C268.858 126.487 256.399 90.9743 227.086 65.7993Z" fill="#FDB726"/>
<path d="M237.752 86.3092C237.752 86.3092 251.696 98.7594 257.494 106.471C266.328 118.138 277.602 138.323 278.597 166.075C278.597 166.075 260.497 134.321 238.027 120.074C238.027 120.074 238.97 110.602 235.467 101.841C235.547 98.1424 237.752 86.3092 237.752 86.3092Z" fill="#FDB726"/>
<path d="M229.073 102.649C228.103 102.943 227.046 102.486 226.667 101.47C226.224 100.474 226.706 99.2678 227.786 98.8698C232.112 97.0639 242.951 88.5496 243.157 79.4422C243.167 78.3086 248.012 83.3412 247.918 84.4296C247.153 95.1902 230.024 102.29 229.267 102.59C229.202 102.61 229.138 102.629 229.073 102.649Z" fill="#D89112"/>
<path d="M213.545 91.0319C212.482 90.7886 233.821 86.1581 233.73 70.7104C233.73 70.7104 237.667 72.9797 237.573 74.0681C237.117 86.0779 216.519 91.7558 213.545 91.0319Z" fill="#D89112"/>
<path d="M201.775 91.3488C200.583 91.1447 225.18 84.6788 225.651 68.99C225.651 68.99 230.066 70.973 229.992 72.1261C228.889 84.332 205.163 91.806 201.775 91.3488Z" fill="#FFCC2B"/>
<path d="M245.733 111.944C245.022 112.159 244.173 111.922 243.634 111.308C242.887 110.474 243.006 109.237 243.839 108.49C246.248 106.417 252.353 99.7616 251.321 94.492C251.136 93.4173 251.807 92.3662 252.945 92.1624C254.02 91.9781 255.071 92.6489 255.275 93.7883C256.899 102.411 246.864 111.247 246.47 111.579C246.231 111.722 245.992 111.865 245.733 111.944Z" fill="#D89112"/>
<path d="M257.286 134.447C256.429 133.717 265.298 124.528 259.737 107.346C259.423 106.311 260.138 105.175 261.193 104.926C262.248 104.677 268.309 122.343 268.642 123.444C275.165 137.507 279.604 160.541 277.996 162.229C271.483 147.032 257.643 134.692 257.286 134.447Z" fill="#D89112"/>
<path d="M106.252 104.756C108.516 106.401 110.995 108.053 113.686 109.71C136.585 100.437 162.288 95.7563 185.807 95.0579C188.119 94.9934 193.699 90.3342 197.025 87.5595C195.728 91.2031 195.546 95.498 195.546 95.498C195.546 95.498 199.516 84.8259 207.617 78.6961C214.955 73.08 223.801 71.7412 227.395 65.4228C220.917 59.8959 212.632 53.9982 204.567 50.2244C162.281 30.2531 100.391 36.7162 89.4639 65.6791C76.9175 83.4733 91.517 98.5514 106.252 104.756Z" fill="#FFCC2B"/>
<path d="M239.941 42.9651C241.438 58.6227 230.495 67.0272 218.053 67.6892C210.585 71.0127 185.944 62.6526 173.765 75.6009C158.301 56.9691 172.685 45.4722 183.106 44.4336C192.841 43.4616 203.451 49.5733 213.255 52.3254C222.955 54.9678 232.607 52.3249 239.941 42.9651Z" fill="#FFCC2B"/>
<path d="M173.724 94.3394C173.206 94.4963 166.776 89.591 167.325 82.7821C167.863 76.4007 174.123 69.5568 182.632 68.0376C186.243 67.3672 192.979 68.1522 197.736 67.7701C223.085 65.8815 230.564 57.4669 230.003 58.4141C225.571 65.6934 207.98 70.1066 195.518 70.7038C190.915 70.8976 186.428 70.7737 183.011 71.3853C176.372 72.5497 170.794 77.9149 169.701 82.6979C168.117 89.8206 174.177 94.2022 173.724 94.3394Z" fill="#EFAC12"/>
<path d="M159.044 97.87C153.523 94.1023 157.39 84.0264 157.297 85.1148C156.769 92.6945 162.919 96.9074 162.151 97.6349C161.931 97.8428 160.328 98.6114 159.044 97.87Z" fill="#EFAC12"/>
<path d="M147.127 98.8674C151.858 89.3074 147.924 81.4548 148.477 82.3471C152.502 88.4053 151.387 98.7069 151.387 98.7069C151.383 99.6267 146.336 100.45 147.127 98.8674Z" fill="#EFAC12"/>
<path d="M157.792 81.8556C155.845 69.373 165.719 58.6072 171.94 53.9658C180.435 47.5045 191.443 46.0757 196.343 47.5587C197.425 47.8667 188.695 47.262 175.712 55.2251C159.794 64.9255 157.806 82.1341 157.792 81.8556Z" fill="#EFAC12"/>
<path d="M185.846 90.524C185.582 86.8587 187.72 80.6284 196.187 75.942C200.182 73.7419 211.053 69.5283 214.29 71.5857C215.237 72.1467 205.108 73.4501 197.644 78.1856C188.112 84.2545 185.84 90.7378 185.846 90.524Z" fill="#D89112"/>
<path d="M138.177 49.996C139.55 43.5734 147.92 43.2269 147.003 43.9289C145.846 44.7741 142.169 44.7581 141.056 49.4765C139.726 55.1087 143.647 56.3935 142.514 56.3836C138.642 56.4265 137.902 51.4217 138.177 49.996Z" fill="#FFE57B"/>
<path d="M161.269 57.9066C161.652 54.0452 164.764 48.9328 168.778 46.7974C174.571 43.7699 179.723 45.3882 178.727 45.8314C176.865 46.6784 174.989 47.247 170.845 49.4216C165.9 51.9804 161.532 59.2402 161.269 57.9066Z" fill="#FFE57B"/>
<path d="M212.55 63.2799C206.663 65.0641 199.935 64.7714 198.273 63.0141C197.525 62.1806 202.968 63.3576 211.759 60.9049C218.267 59.0738 223.755 53.8772 223.447 54.9597C222.493 58.5701 215.654 62.3388 212.55 63.2799Z" fill="#FFE57B"/>
<path d="M21.7592 78.3566C24.3594 92.7612 38.4559 101.985 51.9892 98.1661C39.0318 99.6909 32.8488 88.8455 32.7001 80.1989C32.4628 70.0952 39.41 59.2273 48.4486 57.1237C60.4093 51.3785 80.009 54.0589 88.5439 52.3906C96.0046 50.9066 103.396 48.0302 109.653 46.7697C137.7 46.3247 170.054 92.4839 123.503 105.745C84.8388 121.492 66.015 127.198 46.3604 114.782C37.9349 114.015 19.0645 101.856 21.7592 78.3566Z" fill="#FFCC2B"/>
<path d="M45.2602 62.6828C54.7486 55.0725 69.5272 54.197 77.2997 53.0425C68.0156 53.1712 56.5106 53.1958 48.429 57.0586C39.41 59.2269 32.4628 70.0949 32.6804 80.1338C32.7736 85.3347 35.0448 91.43 39.7366 95.0251C39.5483 94.8702 26.9166 77.429 45.2602 62.6828Z" fill="#FFE57B"/>
<path d="M57.8156 119.719C57.7959 119.654 57.841 119.57 57.8214 119.505C55.9609 118.726 47.3044 109.973 45.1343 109.571C38.3062 108.249 26.059 102.563 21.6471 86.3752C23.4365 104.629 38.9582 114.128 46.3409 114.717C50.1875 117.155 53.9477 118.842 57.894 119.978C57.8097 119.933 57.7705 119.803 57.8156 119.719Z" fill="#FFE57B"/>
<path d="M114.275 111.651C113.369 111.926 112.397 111.514 111.928 110.667C109.818 106.501 101.233 104.51 91.1302 105.664C87.3763 106.095 83.4225 106.799 79.553 107.548C67.8405 109.685 53.2677 110.074 46.917 103.802C46.1248 103.053 55.9866 109.956 79.2858 104.802C83.2004 103.969 108.244 95.248 115.484 108.882C115.992 109.859 115.574 111.045 114.598 111.553C114.534 111.573 114.404 111.612 114.275 111.651Z" fill="#EFAC12"/>
<path d="M122.727 108.312C122.468 108.391 122.19 108.404 121.976 108.399C120.888 108.304 120.082 107.277 120.176 106.188C120.73 100.791 113.074 95.3388 102.302 93.5867C97.9163 92.8666 93.2017 92.4584 88.2087 92.0638C73.4433 90.886 58.1017 89.6709 51.907 79.253C48.6989 73.795 49.8586 69.6983 51.3597 67.1941C58.2088 56.0026 83.5418 55.4612 88.2177 58.0718C89.1646 58.6328 60.7591 55.7949 54.7455 69.2771C53.6522 71.7284 53.4782 74.1837 55.3195 77.2294C60.4082 85.8626 74.6815 87.0482 88.5078 88.1573C93.3518 88.5263 98.3644 88.9856 102.899 89.7312C116.204 91.9169 124.952 98.8756 124.14 106.683C124.078 107.408 123.503 108.077 122.727 108.312Z" fill="#EFAC12"/>
<path d="M130.864 105.563C130.152 105.779 129.388 105.587 128.868 105.038C128.076 104.288 128.111 103.006 128.86 102.214C129.563 101.506 129.947 99.9761 129.275 97.9894C128.7 96.3264 127.181 90.8508 114.26 87.1355C104.67 84.3892 84.6003 84.8192 80.1986 80.7829C76.7969 77.7154 76.3903 73.8108 77.7637 69.72C79.7856 63.8074 91.0298 63.1552 91.2143 64.2299C91.3987 65.3046 82.9339 64.4078 81.5101 71.1284C80.9735 73.5523 81.7719 76.4195 83.3248 78.2807C86.0542 81.6933 94.4936 82.7392 106.217 84.1324C108.924 84.4425 111.78 84.7781 114.805 85.2038C128.42 87.013 132.124 93.8752 133.052 96.7032C134.162 99.8999 133.582 103.114 131.626 105.05C131.491 105.303 131.187 105.465 130.864 105.563Z" fill="#EFAC12"/>
<path d="M146.536 85.2671C146.472 85.2867 146.407 85.3063 146.342 85.3259C145.268 85.5101 145.1 79.1306 138.452 75.1393C132.751 71.7088 121.858 75.1517 112.871 70.6679C109.136 68.8321 107.001 64.8155 107.325 60.76C107.955 52.5842 119.54 48.8609 119.983 49.8572C120.426 50.8534 111.097 53.3983 111.36 61.0211C111.439 63.6118 112.488 65.9083 114.868 67.2362C117.521 68.7641 121.723 69.1154 126.075 69.4923C130.512 69.9143 135.077 70.297 138.947 71.8799C143.705 73.8296 147.337 80.2192 146.536 85.2671Z" fill="#EFAC12"/>
<path d="M40.6836 76.0125C39.2023 69.9604 48.389 63.2187 48.7675 64.2346C49.1461 65.2505 42.4934 68.4682 44.6962 75.5029C49.2588 90.09 61.3895 91.4303 65.2043 91.8993C65.9493 92.0269 44.8468 93.4765 40.6836 76.0125Z" fill="#FFE57B"/>
<path d="M73.8116 118.898C68.4776 119.243 60.7085 117.146 61.3336 116.179C61.8686 115.381 74.713 117.212 94.2016 113.001C95.2758 112.817 85.5086 118.109 73.8116 118.898Z" fill="#FFE57B"/>
<path d="M99.0205 65.7502C95.6446 64.8655 94.3495 58.2623 95.5919 55.8365C97.6906 51.8085 103.752 49.9008 103.107 50.8029C101.888 52.3737 99.1121 53.003 97.9995 57.7213C96.8244 63.1653 100.016 65.3071 99.0205 65.7502Z" fill="#FFE57B"/>
<path d="M105.045 58.1297C103.754 50.6068 113.28 44.7517 117.524 45.9384C107.92 51.5347 105.059 58.4082 105.045 58.1297Z" fill="#FFE57B"/>
<path d="M127.771 60.64C125.579 57.1353 124.169 53.1816 126.152 49.4713C130.183 42.0312 138.671 42.073 138.791 43.1673C138.911 44.2616 132.155 43.4119 129.624 49.9736C128.634 52.5348 129.874 55.6923 130.878 58.0731C133.818 64.7431 148.887 65.7581 149.019 77.3777C146.284 67.8897 132.013 67.4101 127.771 60.64Z" fill="#FFE57B"/>
<path d="M137.473 100.804C139.031 97.7879 139.052 93.8951 136.32 89.7766C128.041 77.3758 120.934 80.0248 120.943 78.8912C120.953 77.7577 132.589 76.0681 139.837 87.8628C141.392 90.43 144.178 95.6625 141.156 100.606C140.371 101.975 136.366 102.977 137.473 100.804Z" fill="#FFE57B"/>
</svg>
