<svg width="195" height="196" viewBox="0 0 195 196" fill="none" xmlns="http://www.w3.org/2000/svg">
<path d="M97.4996 0.978516C84.3486 0.978516 71.5765 3.56058 59.5407 8.65096C47.927 13.5634 37.503 20.5901 28.5569 29.5362C19.6108 38.4823 12.584 48.9072 7.6716 60.5201C2.58036 72.5558 0 85.328 0 98.4789C0 111.631 2.58036 124.401 7.6716 136.438C12.584 148.051 19.6108 158.476 28.5569 167.422C37.503 176.368 47.927 183.394 59.5407 188.306C71.5765 193.397 84.3486 195.979 97.4996 195.979C110.651 195.979 123.422 193.397 135.458 188.306C147.071 183.394 157.496 176.368 166.442 167.422C175.388 158.476 182.415 148.051 187.327 136.438C192.418 124.401 194.999 111.631 194.999 98.4789C194.999 85.328 192.418 72.5558 187.327 60.5201C182.415 48.9072 175.388 38.4823 166.442 29.5362C157.496 20.5901 147.071 13.5634 135.458 8.65096C123.422 3.56058 110.651 0.978516 97.4996 0.978516ZM97.4996 25.7161C137.685 25.7161 170.262 58.2931 170.262 98.4789C170.262 138.665 137.685 171.241 97.4996 171.241C57.3137 171.241 24.7367 138.665 24.7367 98.4789C24.7367 58.2931 57.3137 25.7161 97.4996 25.7161Z" fill="#6ECFD7"/>
<mask id="mask0_47_149" style="mask-type:luminance" maskUnits="userSpaceOnUse" x="16" y="5" width="156" height="167">
<path d="M170.261 98.4792C170.261 104.643 169.495 110.629 168.052 116.346C166.034 124.342 164.502 152.299 156.912 154.901C151.553 156.738 155.894 141.946 154.6 143.583C141.272 160.432 120.649 171.241 97.4995 171.241C57.3136 171.241 24.7366 138.665 24.7366 98.4792C22.0978 89.5475 -15.5424 9.67491 95.5911 5.54041C161.505 8.52667 175.285 81.8835 170.261 98.4792Z" fill="white"/>
</mask>
<g mask="url(#mask0_47_149)">
<path d="M51.4699 105.67C51.4699 105.67 43.5331 97.2258 35.5352 108.048C32.1447 97.5368 37.7139 91.3923 37.7139 91.3923C37.7139 91.3923 32.3007 91.7253 30.2084 97.4843C27.0849 82.9656 33.276 76.5872 33.276 76.5872C33.276 76.5872 30.2915 72.2433 24.2732 79.8353C26.94 67.1131 35.6801 59.2068 35.6801 59.2068C35.6801 59.2068 28.8305 56.1044 22.1504 62.8803C25.746 46.9693 39.8358 43.6526 39.8358 43.6526C39.8358 43.6526 38.5851 38.4419 34.8243 35.8107C40.9832 34.0607 46.4558 37.4673 46.4558 37.4673C46.4558 37.4673 44.7474 28.0263 41.5476 25.7519C48.1735 25.2451 52.7487 31.5482 52.7487 31.5482C52.7487 31.5482 51.2411 27.3569 55.4451 18.5303C56.7162 26.4324 60.283 29.4915 60.283 29.4915C60.283 29.4915 61.6939 20.2251 71.6052 15.4287C67.3182 26.4874 72.0577 28.3246 72.0577 28.3246C72.0577 28.3246 70.4612 20.6886 88.7432 11.5324C82.7038 20.7657 87.6467 23.5206 87.6467 23.5206C87.6467 23.5206 99.7545 9.09094 115.033 15.9084C106.877 18.1981 107.037 22.3978 107.037 22.3978C107.037 22.3978 121.812 18.2557 130.371 26.4663C122.337 27.573 118.726 32.1286 118.726 32.1286C118.726 32.1286 137.669 28.1212 149.658 47.8939C144.327 45.9957 140.504 48.2871 140.504 48.2871C140.504 48.2871 157.464 56.1748 163.245 75.3016C154.867 69.6511 150.555 72.3399 150.555 72.3399C150.555 72.3399 167.107 78.393 165.995 102.033C162.828 95.1302 156.884 94.8116 156.884 94.8116C156.884 94.8116 167.84 102.972 164.928 118.059C161.252 108.862 157.805 108.951 157.805 108.951C157.805 108.951 169.306 129.121 156.759 146.343C156.971 129.931 151.813 129.246 151.813 129.246C151.813 129.246 157.283 159.994 139.828 184.178C140.464 176.624 137.184 172.249 137.184 172.249C137.184 172.249 138.502 186.878 126.449 195.038C129.277 186.517 126.016 184.834 126.016 184.834C126.016 184.834 90.4304 110.317 51.4699 105.67Z" fill="#4C2A20"/>
<path d="M127.08 183.939C127.926 184.636 129.505 186.627 128.743 191.437C136.713 183.659 135.851 172.493 135.84 172.367L135.43 167.662L138.263 171.439C138.379 171.594 140.569 174.579 141.13 179.794C155.156 156.973 150.535 129.769 150.484 129.482L150.161 127.665L151.99 127.908C152.943 128.035 157.306 129.303 158.016 141.754C165.969 126.36 156.736 109.799 156.633 109.62L155.517 107.662L157.771 107.602C158.383 107.587 161.036 107.845 164.075 113.13C164.136 102.094 156.447 96.1698 156.077 95.891L152.534 93.2285L156.957 93.464C157.173 93.4759 161.225 93.7454 164.636 97.4977C163.608 78.7776 150.236 73.6601 150.091 73.6067L147.494 72.6576L149.841 71.195C150.021 71.0823 153.813 68.8197 160.754 72.2754C154.381 56.4212 140.088 49.5809 139.934 49.5097L137.635 48.4344L139.811 47.1294C139.952 47.0446 142.656 45.4659 146.685 45.8515C135.326 30.2159 119.176 33.4132 119.005 33.4488L115.343 34.2233L117.669 31.2904C117.809 31.1125 120.81 27.411 127.254 25.7128C119.203 20.4834 107.53 23.6612 107.401 23.6968L105.754 24.1587L105.689 22.4494C105.681 22.2681 105.617 18.6268 111.046 15.9617C98.485 12.9305 88.7856 24.262 88.6813 24.3874L87.9644 25.2416L86.9908 24.6993C86.8086 24.5976 85.1934 23.6375 84.6027 21.241C84.1494 19.4004 84.4248 17.2616 85.4214 14.8532C72.6128 22.2977 73.3661 27.9881 73.378 28.0483L73.8873 30.4812L71.5704 29.5829C71.3899 29.5126 69.7824 28.8313 68.9519 26.4721C68.2215 24.4018 68.3045 21.6978 69.196 18.4056C62.7582 22.9553 61.6651 29.3905 61.6159 29.6981L61.238 32.0845L59.4042 30.5159C59.2737 30.4041 56.7492 28.1847 55.09 22.9214C53.1994 28.4067 54.0147 31.0795 54.0248 31.1108L56.6493 39.2078L51.6563 32.3396C51.6232 32.2955 48.7802 28.4779 44.5592 27.3703C46.6091 31.0252 47.6421 36.4495 47.7828 37.2274L48.3251 40.2205L45.7422 38.6129C45.7024 38.5875 42.1382 36.4342 37.7495 36.6825C40.2205 39.5824 41.1027 43.1499 41.1484 43.3372L41.4645 44.6549L40.1459 44.966C39.6578 45.082 29.2152 47.7166 24.7078 59.1304C30.6838 55.5493 35.9733 57.8593 36.236 57.9779L38.1105 58.827L36.5851 60.2075C36.5131 60.2727 30.2931 66.0071 26.9475 75.3379C28.3034 74.4075 29.622 73.9592 30.8838 74.0033C33.1268 74.0795 34.2658 75.6455 34.3886 75.8235L35.014 76.7345L34.2446 77.5268C34.1988 77.576 29.6194 82.5731 30.9185 93.5674C33.6777 90.3329 37.4291 90.0575 37.6308 90.0448L40.9408 89.8405L38.7138 92.2972C38.5299 92.5031 34.542 97.1138 36.1741 105.18C38.5359 102.699 41.1111 101.362 43.8542 101.201C47.9252 100.961 51.047 103.436 52.0842 104.388C68.5045 106.562 86.1196 120.63 104.449 146.208C117.156 163.941 125.841 181.401 127.08 183.939ZM123.918 198.382L125.168 194.613C127.36 188.011 125.608 186.23 125.361 186.019L124.892 185.84L124.797 185.415C124.709 185.229 115.778 166.645 102.233 147.749C89.8364 130.456 70.9391 109.35 51.3097 107.01L50.8225 106.951L50.4886 106.596C50.4106 106.515 47.6209 103.663 43.9906 103.896C41.4103 104.057 38.9299 105.724 36.6199 108.85L35.0581 110.964L34.2505 108.462C32.1337 101.898 33.2853 96.9181 34.6369 93.8818C33.4573 94.636 32.2252 95.8851 31.4761 97.9452L29.8745 102.352L28.8889 97.768C26.3704 86.0611 29.6728 79.3538 31.393 76.8184C31.21 76.7497 30.9948 76.7031 30.7473 76.6998C29.8931 76.693 28.0924 77.1895 25.3307 80.6732L21.78 85.1527L22.952 79.5581C24.9815 69.8798 30.3363 62.9632 33.093 59.9227C30.8253 59.6245 26.9747 59.9091 23.1113 63.8276L19.792 67.1943L20.8343 62.5836C23.935 48.8615 34.3319 44.0736 38.1367 42.7576C37.5622 41.195 36.2995 38.49 34.0505 36.9164L31.7252 35.2885L34.4556 34.5123C38.4748 33.3691 42.1865 34.2115 44.5499 35.0902C43.7127 31.8108 42.3187 27.955 40.7654 26.8517L37.7257 24.6908L41.4442 24.4061C45.6202 24.0841 49.0107 26.1221 51.1852 27.9728C51.3834 25.6611 52.1351 22.3418 54.2273 17.9505L56.09 14.0405L56.7772 18.3158C57.4195 22.3121 58.6839 24.9857 59.6914 26.5814C60.8888 23.2629 63.8802 17.6683 71.0171 14.2143L74.1017 12.7211L72.8636 15.9159C71.1323 20.3817 70.973 23.1189 71.2883 24.7654C72.617 21.3673 76.6159 16.0964 88.139 10.3255L92.6099 8.08749L89.8728 12.2712C87.0958 16.5158 86.8874 19.0911 87.2018 20.5037C87.3009 20.952 87.4585 21.3063 87.6246 21.5791C90.9558 18.2497 102.142 8.67899 115.583 14.6761L118.993 16.1972L115.398 17.2065C111.939 18.1768 110.187 19.4784 109.299 20.5326C114.111 19.7013 124.44 18.9089 131.305 25.4925L133.317 27.4229L130.554 27.8025C127.205 28.2644 124.677 29.3719 122.913 30.4439C124.846 30.4498 127.288 30.6422 130.006 31.2828C135.945 32.6836 144.377 36.58 150.813 47.1938L152.779 50.4368L149.206 49.1649C147.081 48.4073 145.243 48.3912 143.865 48.6013C149.057 51.7673 160.021 59.9753 164.537 74.9117L165.634 78.5412L162.491 76.421C159.234 74.2236 156.674 73.3898 154.826 73.1466C156.282 74.1363 158.002 75.5278 159.698 77.4209C163.514 81.6867 167.939 89.4287 167.343 102.097L167.082 107.639L164.769 102.596C164.213 101.384 163.566 100.399 162.886 99.5993C165.521 103.738 167.853 110.021 166.252 118.313L165.381 122.828L163.675 118.558C162.913 116.652 162.173 115.184 161.489 114.054C162.164 115.987 162.839 118.325 163.314 120.948C165.092 130.735 163.202 139.791 157.849 147.139L155.356 150.563L155.409 146.326C155.5 139.3 154.605 135.385 153.654 133.215C153.947 136.55 154.174 141.649 153.711 147.746C152.956 157.689 150.123 172.221 140.922 184.967L138.076 188.911L138.484 184.064C138.668 181.888 138.501 179.992 138.184 178.415C137.332 183.656 134.741 191.053 127.205 196.156L123.918 198.382Z" fill="#040606"/>
<path d="M43.4221 90.7381C43.4221 90.7381 33.8091 91.9363 34.2107 77.0889C34.6116 62.2406 47.5846 63.4447 50.7962 68.5275C54.0079 73.6111 43.4221 90.7381 43.4221 90.7381Z" fill="#F7BF7F"/>
<path d="M43.6281 66.4202C42.9569 66.4202 42.2748 66.5049 41.6036 66.6879C37.8597 67.7175 35.7133 71.4241 35.559 77.1255C35.4243 82.1015 36.4802 85.7682 38.6131 87.7316C40.1003 89.1011 41.7731 89.3714 42.6527 89.4095C46.7813 82.5684 51.5014 72.1707 49.6548 69.2488C48.6685 67.687 46.233 66.4202 43.6281 66.4202ZM42.9306 92.1094C41.7341 92.1094 39.1249 91.8407 36.8344 89.762C34.0388 87.2257 32.7016 82.9497 32.8617 77.0526C33.1253 67.2684 38.5631 64.7262 40.8884 64.0864C45.0441 62.9441 49.8972 64.5787 51.9369 67.8074C55.4223 73.3249 46.411 88.4689 44.5695 91.4475L44.2297 91.9984L43.5882 92.0772C43.5518 92.0823 43.3137 92.1094 42.9306 92.1094Z" fill="#040606"/>
<path d="M44.4745 82.9505C44.4745 82.9505 49.986 72.7164 42.5042 73.879C33.3183 75.3052 40.4976 88.2358 40.4976 88.2358C40.4976 88.2358 40.9611 82.3463 44.4745 82.9505Z" fill="#C6424F"/>
<path d="M39.8475 87.9734C38.8527 85.7328 38.0459 83.4364 37.5807 80.9848C37.3621 79.7578 37.2256 78.4883 37.3934 77.1503C37.4824 76.4851 37.657 75.7935 38.0112 75.1317C38.3544 74.469 38.9255 73.8631 39.6052 73.4742C40.2865 73.0793 41.0314 72.9005 41.7364 72.8301C42.4525 72.7734 43.1016 72.7886 43.8058 72.8912C44.4998 72.9937 45.2413 73.2039 45.9446 73.6462C46.6488 74.0801 47.2564 74.8106 47.5556 75.6012C47.8691 76.3927 47.9318 77.1825 47.9081 77.9104C47.8793 78.6417 47.7555 79.3264 47.5895 79.9823C47.4208 80.6374 47.209 81.2653 46.9658 81.8746C46.7149 82.4949 46.4675 83.0525 46.1184 83.6914C45.7023 84.4541 44.7464 84.7346 43.9837 84.3185C43.2202 83.9024 42.9389 82.9466 43.3558 82.1839L43.4244 82.0703L43.4354 82.0525C43.6981 81.6576 43.9897 81.139 44.2269 80.6619C44.4701 80.1738 44.6837 79.6756 44.8566 79.179C45.2023 78.1968 45.3633 77.1655 45.1565 76.474C45.0565 76.1291 44.8871 75.8673 44.5913 75.6351C44.2964 75.4054 43.8753 75.2207 43.3914 75.1097C42.9135 74.9945 42.3542 74.9368 41.8728 74.9411C41.383 74.9512 40.9263 75.0351 40.5492 75.2165C39.7933 75.5529 39.2933 76.3834 39.084 77.4316C38.8688 78.4714 38.8899 79.6298 39.0111 80.7755C39.2679 83.077 39.8907 85.404 40.6839 87.6183L40.6907 87.6353C40.7754 87.8726 40.6526 88.1318 40.4161 88.2166C40.1907 88.2971 39.9433 88.1886 39.8475 87.9734Z" fill="#040606"/>
<path d="M38.3029 163.246C33.4794 163.092 31.6423 170.824 31.4126 176.183C31.1821 181.542 39.374 182.307 42.2832 182.154C44.1212 183.73 52.6182 182.971 52.6182 182.971L56.2078 165.465C56.2078 165.465 56.7815 162.978 50.8649 162.387L52.4275 162.306C52.4275 162.306 50.8573 156.777 47.221 156.584C43.5848 156.394 37.8046 163.053 37.8046 163.053L38.3029 163.246Z" fill="#F7BF7F"/>
<path d="M41.8933 169.284C41.9967 168.4 42.1865 167.639 42.4577 166.844C42.728 166.062 43.0848 165.298 43.5559 164.583C44.0245 163.869 44.6186 163.208 45.3312 162.676C46.0456 162.147 46.8727 161.751 47.7328 161.537C48.5904 161.322 49.4751 161.272 50.3157 161.322L51.5139 161.425C51.9173 161.488 52.3181 161.526 52.724 161.61C53.5342 161.765 54.3587 161.99 55.1849 162.396C55.3908 162.505 55.5968 162.606 55.7993 162.758C55.9001 162.83 56.0018 162.895 56.1018 162.975L56.3933 163.24C56.7704 163.615 57.1213 164.116 57.2679 164.754C57.3051 164.912 57.3246 165.077 57.3297 165.257C57.3314 165.344 57.3306 165.437 57.317 165.547L57.3051 165.64L57.2899 165.721L57.2763 165.791L57.1687 166.354L56.9535 167.48L56.523 169.731L55.662 174.236L53.9401 183.242C53.8274 183.833 53.3393 184.257 52.7698 184.313L52.7384 184.315L52.7367 184.316C51.8207 184.392 50.9428 184.44 50.042 184.472C49.1471 184.503 48.2472 184.513 47.3396 184.492C46.4312 184.471 45.5151 184.421 44.5694 184.294C44.0949 184.227 43.6118 184.143 43.1025 184.003C42.5924 183.847 42.0484 183.692 41.4052 183.179L42.3543 183.503C40.7111 183.568 39.1655 183.434 37.5876 183.137C36.0233 182.827 34.4369 182.363 32.9438 181.409C32.2032 180.934 31.4964 180.292 30.9541 179.479C30.4219 178.657 30.1075 177.662 30.0668 176.708C30.066 176.481 30.0584 176.211 30.0694 176.021L30.1024 175.438C30.1279 175.05 30.1592 174.663 30.1999 174.277C30.2787 173.505 30.3846 172.735 30.5211 171.968C30.7956 170.435 31.1795 168.907 31.7778 167.406C32.3879 165.921 33.1794 164.393 34.6267 163.186C35.3437 162.59 36.2741 162.133 37.2554 161.971C37.5003 161.941 37.7469 161.899 37.991 161.902L38.3545 161.897L38.6477 161.911C39.0367 161.926 39.429 161.95 39.8239 161.986C40.6129 162.059 41.4094 162.163 42.2314 162.367C42.6416 162.464 43.0619 162.6 43.4958 162.777C43.7135 162.872 43.9339 162.976 44.1694 163.121C44.2838 163.188 44.4084 163.276 44.5321 163.371L44.7364 163.549C44.8236 163.644 44.8499 163.641 45.0346 163.909C45.4304 164.54 45.238 165.373 44.6058 165.767C43.9737 166.163 43.1415 165.971 42.7466 165.339C42.878 165.53 42.839 165.46 42.861 165.49L42.8543 165.484L42.7568 165.421C42.6754 165.37 42.5594 165.313 42.4365 165.26C42.1814 165.158 41.8941 165.058 41.5789 164.986C40.9569 164.831 40.2739 164.738 39.5824 164.674C39.2367 164.642 38.8867 164.621 38.5325 164.607L38.2681 164.595L38.074 164.599C37.9444 164.593 37.8232 164.623 37.6995 164.632C37.2139 164.719 36.7571 164.927 36.3292 165.279C35.4648 165.981 34.7827 167.157 34.2827 168.411C33.7776 169.675 33.4268 171.047 33.1777 172.44C33.054 173.138 32.9565 173.844 32.8845 174.551C32.8472 174.905 32.8184 175.26 32.7955 175.614L32.7658 176.144C32.7557 176.326 32.7675 176.428 32.7624 176.574C32.7896 177.107 32.9455 177.574 33.215 178.005C33.5031 178.428 33.9056 178.822 34.4174 179.148C35.4369 179.808 36.7529 180.228 38.0986 180.487C39.4426 180.745 40.8823 180.863 42.2119 180.807L42.2687 180.804C42.6102 180.791 42.928 180.917 43.161 181.13C43.2042 181.17 43.5017 181.32 43.8288 181.404C44.1635 181.496 44.5448 181.566 44.9363 181.62C45.7253 181.727 46.5608 181.775 47.4015 181.794C48.2438 181.814 49.0963 181.803 49.9496 181.775C50.7987 181.745 51.669 181.696 52.4978 181.628L52.4986 181.627L51.297 182.701L53.2605 173.727L54.2426 169.241L54.7332 166.998L54.979 165.876L55.1019 165.315L55.118 165.245L55.1205 165.23L55.1163 165.255L55.112 165.277V165.281L55.1061 165.216C55.0858 165.103 55.0027 164.941 54.8451 164.775L54.7171 164.649L54.5553 164.528C54.4562 164.443 54.318 164.375 54.1884 164.301C53.6486 164.017 52.9935 163.803 52.3063 163.656C51.9656 163.575 51.6038 163.532 51.2538 163.466L50.1691 163.345C49.4844 163.285 48.8243 163.31 48.1929 163.449C47.5633 163.588 46.9786 163.852 46.4524 164.216C45.9295 164.585 45.4685 165.063 45.083 165.617C44.6965 166.17 44.3821 166.792 44.1355 167.448C43.8898 168.093 43.6983 168.823 43.6067 169.457L43.5991 169.506C43.5313 169.977 43.0949 170.303 42.6246 170.235C42.1619 170.169 41.8399 169.745 41.8933 169.284Z" fill="#231F20"/>
<path d="M37.8045 164.403C37.4909 164.403 37.1765 164.295 36.9206 164.073C36.3579 163.584 36.2978 162.732 36.7859 162.17C37.4104 161.449 42.9279 155.233 47.0794 155.233L47.2921 155.238C51.8393 155.478 53.6502 161.674 53.7248 161.938C53.9281 162.655 53.5121 163.401 52.7951 163.604C52.0808 163.808 51.3334 163.392 51.1283 162.675C51.1164 162.631 49.7318 158.068 47.1497 157.932L47.0565 157.93C44.9753 157.93 41.0119 161.418 38.8239 163.938C38.5578 164.245 38.1816 164.403 37.8045 164.403Z" fill="#231F20"/>
<path d="M81.9461 207.15L73.1279 230.576L48.4013 229.619C48.4013 229.619 43.1567 227.859 43.8846 222.5C44.6117 217.14 49.2335 210.495 56.2102 208.99C56.8356 204.746 58.3338 194.576 58.3338 194.576L56.2102 188.49C56.2102 188.49 44.871 182.83 52.6079 178.166C53.3417 171.752 56.0755 161.491 60.0473 155.555C59.0804 152.489 51.2003 149.388 52.557 141.81C53.9129 134.232 80.3249 126.192 80.3249 126.192L117.99 124.279L139.177 136.585C139.177 136.585 136.555 145.528 128.019 153.831C127.678 155.899 130.695 173.198 130.695 173.198H133.148C133.148 173.198 136.883 177.494 130.946 181.872C131.078 185.519 131.563 186.136 128.165 194.576C128.784 200.834 129.55 207.15 129.55 207.15L131.471 208.99C131.471 208.99 141.323 210.362 143.264 221.159C145.205 231.954 132.462 229.98 132.462 229.98L114.259 230.576L105.301 207.15C105.301 207.15 103.204 209.6 81.9461 207.15Z" fill="#F7BF7F"/>
<path d="M56.1662 188.418C56.1662 188.418 44.827 182.757 52.5638 178.095C53.2977 171.68 56.0323 161.419 60.0032 155.483C59.0372 152.417 51.1571 149.316 52.513 141.738C53.8688 134.159 80.2809 126.12 80.2809 126.12L117.946 124.206L139.133 136.513C139.133 136.513 136.511 145.456 127.975 153.759C127.635 155.827 130.651 173.125 130.651 173.125H133.104C133.104 173.125 136.839 177.422 130.902 181.8C113.636 200.844 56.1662 188.418 56.1662 188.418Z" fill="#EBEBE9"/>
<path d="M57.3256 138.823C57.3256 138.823 72.8543 145.324 84.7969 143.593C96.7394 141.861 103.193 141.041 103.986 140.532C104.194 141.611 108.148 140.361 102.179 145.771C97.4284 150.078 70.4426 150.767 57.3256 138.823Z" fill="#C1C0B8"/>
<path d="M43.5737 96.8863C43.5737 96.8863 37.8807 105.656 42.1288 120.181C43.3059 124.206 48.5225 143.571 83.9705 142.902C119.419 142.233 128.989 119.467 124.421 100.031C123.472 95.994 120.669 85.3988 117.227 77.1535C112.166 66.7702 101.193 55.7336 77.4056 57.2928C38.6239 59.8342 43.5737 96.8863 43.5737 96.8863Z" fill="#F7BF7F"/>
<path d="M70.2789 156.013C70.2585 155.667 69.8077 147.496 72.7042 142.75L74.6236 143.921C72.0966 148.063 72.5186 155.802 72.5237 155.879L70.2789 156.013Z" fill="#353436"/>
<path d="M91.1041 155.735C90.9516 155.43 87.367 148.213 89.0339 142.242L91.1999 142.846C89.7644 147.987 93.0786 154.656 93.1125 154.723L91.1041 155.735Z" fill="#353436"/>
<path d="M54.4807 135.939C54.4807 135.939 59.7872 142.64 79.17 142.918C113.849 143.417 119.019 126.598 119.019 126.598C119.019 126.598 94.6496 146.021 54.4807 135.939Z" fill="#D69861"/>
<path d="M58.5246 64.2151C61.688 62.4635 68.4292 63.1982 68.53 64.7346C68.7207 67.642 62.0033 65.1862 59.5983 67.4759C56.0629 70.841 52.4453 72.1392 52.0081 71.1003C51.2496 69.297 55.5172 65.8811 58.5246 64.2151Z" fill="#FCD4AE"/>
<path d="M97.9452 140.459C97.9452 140.459 116.007 141.64 122.362 123.326C131.809 96.0964 112.112 69.3344 112.112 69.3344C112.112 69.3344 133.461 123.326 97.9452 140.459Z" fill="#D69861"/>
<path d="M44.7076 97.6178C44.6526 97.7043 39.4207 106.116 43.4238 119.802L43.467 119.952C48.8218 138.335 68.4351 141.847 83.9461 141.553C99.4893 141.259 111.254 136.537 117.968 127.896C123.635 120.601 125.509 110.557 123.107 100.34C121.99 95.5857 119.236 85.477 115.998 77.7096C111.328 68.1559 100.858 57.1066 77.4939 58.6387C66.1946 59.3785 57.64 63.1969 52.0699 69.9863C42.9713 81.0764 44.8907 96.5543 44.9119 96.7086C44.9534 97.0263 44.8805 97.3492 44.7076 97.6178ZM82.186 144.269C67.8979 144.269 56.9137 140.986 49.5175 134.501C43.3086 129.058 41.5417 122.991 40.8765 120.707L40.8341 120.561C36.9428 107.258 41.0562 98.6025 42.1815 96.5899C41.8926 93.7486 40.9443 79.3104 49.9675 68.2941C56.0307 60.8928 65.2319 56.7379 77.3177 55.9464C102.203 54.3169 113.416 66.2569 118.441 76.5622L118.473 76.6334C121.785 84.5677 124.596 94.8798 125.734 99.7228C128.323 110.737 126.269 121.61 120.099 129.551C112.867 138.858 100.383 143.942 83.997 144.251C83.3877 144.263 82.7835 144.269 82.186 144.269Z" fill="#040606"/>
<path d="M119.019 70.6227C119.019 70.6227 124.407 61.8291 132.526 61.8291C140.424 61.8291 146.369 67.7254 147.439 72.0065C148.509 76.2868 149.178 93.2748 132.19 94.0781" fill="#F7BF7F"/>
<path d="M132.189 95.4268C131.473 95.4268 130.876 94.8633 130.842 94.1404C130.806 93.3964 131.381 92.7642 132.126 92.7294C137.181 92.4905 140.98 90.7075 143.416 87.4314C147.085 82.4961 146.829 75.1279 146.13 72.334C145.194 68.5919 139.812 63.1777 132.526 63.1777C125.247 63.1777 120.219 71.2451 120.168 71.3264C119.78 71.962 118.949 72.162 118.314 71.7721C117.678 71.3823 117.478 70.5519 117.868 69.9172C118.104 69.5316 123.753 60.4787 132.526 60.4787C141.283 60.4787 147.574 66.9835 148.748 71.679C149.384 74.222 150.168 82.8724 145.581 89.0407C142.64 92.9981 138.156 95.1454 132.253 95.4251L132.189 95.4268Z" fill="#040606"/>
<path d="M134.727 88.9941C138.87 88.1908 141.821 83.9114 141.955 80.6565C142.088 77.4008 140.46 71.4121 134.727 70.6689C127.508 69.7317 126.928 83.2869 126.928 83.2869C126.928 83.2869 129.983 82.9742 131.922 84.58C133.861 86.185 134.727 88.9941 134.727 88.9941Z" fill="#C6424F"/>
<path d="M126.689 83.2768C126.51 81.4921 126.583 79.7049 126.863 77.9152C127.142 76.1289 127.633 74.3264 128.64 72.6282C129.147 71.7867 129.812 70.9656 130.717 70.336C131.613 69.703 132.753 69.3148 133.859 69.2911C134.41 69.2716 134.961 69.3242 135.443 69.4326C135.691 69.4852 135.942 69.5199 136.187 69.5911L136.919 69.8334C137.167 69.9038 137.397 70.0216 137.631 70.1351C137.86 70.2538 138.104 70.3478 138.319 70.4919L138.966 70.9215C139.184 71.0614 139.365 71.2461 139.564 71.4088C139.762 71.5732 139.953 71.7435 140.119 71.9367C140.29 72.1249 140.47 72.307 140.63 72.5028C140.932 72.9053 141.233 73.3104 141.47 73.7451C141.967 74.6018 142.35 75.506 142.609 76.4322C142.878 77.3559 143.043 78.3016 143.095 79.2601L143.115 79.9837L143.087 80.7176C143.055 80.9735 143.03 81.232 142.988 81.4819C142.933 81.7285 142.884 81.9751 142.822 82.2166C142.556 83.1768 142.125 84.0504 141.614 84.8538C141.102 85.658 140.49 86.3884 139.793 87.024C138.423 88.3087 136.643 89.19 134.802 89.384C134.584 89.4069 134.387 89.2485 134.364 89.0298C134.345 88.8392 134.462 88.6655 134.637 88.6095L134.652 88.6044C136.232 88.0918 137.59 87.124 138.623 85.8885C139.639 84.6538 140.428 83.1937 140.706 81.704C140.739 81.5201 140.76 81.3379 140.789 81.1557L140.82 80.6201L140.802 80.0456L140.744 79.4642C140.639 78.6863 140.457 77.9143 140.217 77.1728C139.98 76.4271 139.643 75.7263 139.24 75.0925C138.844 74.4518 138.361 73.8925 137.814 73.4315C137.279 72.9536 136.648 72.6197 135.985 72.3647L135.477 72.1952C135.304 72.1426 135.12 72.124 134.943 72.085C134.575 72.002 134.251 71.9689 133.932 71.9723C133.296 71.9842 132.714 72.152 132.162 72.4918C131.608 72.8248 131.103 73.3477 130.654 73.9587C129.756 75.1916 129.104 76.7407 128.543 78.327C128.003 79.9269 127.558 81.6014 127.167 83.2971L127.165 83.3073C127.135 83.4369 127.005 83.5183 126.875 83.4886C126.772 83.464 126.7 83.3768 126.689 83.2768Z" fill="#040606"/>
<path d="M118.97 124.851L128.841 111.998V110.16L126.281 104.298L127.022 98.0301L132.024 89.5517L134.798 85.7223L136.292 70.2443L138.428 65.3954L141.6 63.8761L144.804 64.948L146.418 69.158L145.293 80.1057L143.72 85.8477L146.462 86.7951L150.84 82.1674L160.151 71.5443L164.767 70.5003L167.587 72.934L166.807 78.6091L155.441 91.4457L160.065 92.0084L162.293 97.1191L159.678 104.139L158.84 110.561L153.843 116.145L148.069 118.2L145.978 118.787L138.299 135.939L118.97 124.851Z" fill="#F7BF7F"/>
<path d="M144.126 117.485C144.126 117.485 149.112 119.254 152.761 116.823C156.41 114.39 160.048 109.642 159.606 102.92C155.815 104.546 155.075 116.374 144.126 117.485Z" fill="#D69861"/>
<path d="M145.978 118.787L138.68 135.939L134.445 134.575L144.805 117.966L145.978 118.787Z" fill="#D69861"/>
<path d="M128.836 112.355L130.787 113.274L122.52 127.57L118.673 125.446L128.836 112.355Z" fill="#FCD4AE"/>
<path d="M130.787 97.1189C130.787 97.1189 134.363 92.7759 140.212 92.6607C146.06 92.5463 146.356 93.8666 145.978 94.3267C145.601 94.786 140.032 94.0962 137.448 95.3589C134.864 96.6232 130.501 98.7629 130.787 97.1189Z" fill="#FCD4AE"/>
<path d="M136.292 76.0677C136.292 76.0677 135.993 69.3139 138.08 66.9377C140.166 64.5633 142.191 65.8471 141.962 66.2496C141.732 66.6513 138.424 66.9767 138.602 72.9679C138.651 74.5983 138.123 80.4895 136.292 76.0677Z" fill="#FCD4AE"/>
<path d="M149.602 84.853C149.602 84.853 159.019 71.7427 162.049 70.8411C165.08 69.9386 166.112 72.1046 165.703 72.3224C165.295 72.541 162.32 71.0563 159.284 76.2238C158.458 77.6314 148.799 89.5697 149.602 84.853Z" fill="#FCD4AE"/>
<path d="M167.017 75.1493C167.017 75.1493 167.201 77.6178 165.788 79.2253C164.376 80.8337 159.955 86.8054 158.52 87.9528C157.084 89.1019 156.248 88.2782 157.671 86.7952C159.094 85.3123 164.843 78.7474 164.839 77.9525C164.835 77.1585 166.73 74.0587 167.017 75.1493Z" fill="#D69861"/>
<path d="M144.252 66.8522C144.252 66.8522 146.664 70.9003 145.79 75.1492C145.404 77.0237 143.992 83.397 143.25 84.9292C142.508 86.4613 141.453 86.3181 142.045 84.5597C142.636 82.8022 144.388 75.3924 144.449 74.7518C144.835 70.7562 143.552 66.2421 144.252 66.8522Z" fill="#D69861"/>
<path d="M147.241 103.694C147.241 103.694 153.4 103.576 154.118 101.925C154.835 100.272 156.652 99.7037 156.935 100.661C157.218 101.618 153.467 106.163 151.476 106.091C149.486 106.02 146.641 106.154 147.241 103.694Z" fill="#D69861"/>
<path d="M130.322 112.268C128.768 114.476 127.058 116.569 125.406 118.706L122.913 121.9L120.401 125.079C120.051 125.521 119.409 125.596 118.966 125.246C118.541 124.911 118.458 124.301 118.762 123.861L121.077 120.537L123.412 117.226C124.981 115.027 126.49 112.785 128.154 110.658C128.615 110.071 129.463 109.968 130.049 110.428C130.617 110.872 130.731 111.683 130.322 112.268Z" fill="#231F20"/>
<path d="M139.259 136.739C139.081 136.739 138.899 136.704 138.725 136.628C138.04 136.332 137.725 135.539 138.02 134.855L145.179 118.252C145.474 117.568 146.269 117.252 146.953 117.548C147.636 117.843 147.952 118.637 147.658 119.322L140.498 135.924C140.278 136.433 139.781 136.739 139.259 136.739Z" fill="#231F20"/>
<path d="M143.111 85.4005C143.709 82.1523 144.343 78.8796 144.802 75.6612C145.01 74.063 145.121 72.4453 145.083 70.903C145.035 69.3768 144.743 67.8489 144.009 66.9345C143.648 66.4803 143.196 66.1863 142.621 66.0168C142.068 65.8558 141.304 65.7838 140.722 65.8541C140.121 65.9295 139.65 66.1329 139.267 66.4956C138.88 66.8566 138.567 67.4023 138.337 68.0523C138.105 68.7005 137.953 69.437 137.834 70.2123L137.664 71.4216C137.618 71.747 137.59 72.1554 137.562 72.5537L137.283 77.5153C137.182 79.1855 137.054 80.8592 136.85 82.5557C136.743 83.4065 136.625 84.2573 136.432 85.1445C136.337 85.586 136.221 86.0402 136.041 86.5377C135.992 86.6639 135.95 86.7843 135.879 86.9283L135.78 87.1343L135.642 87.3681L135.5 87.5817L135.389 87.7283L135.174 87.9986L133.574 89.9197C133.056 90.5476 132.557 91.1789 132.078 91.8221C131.121 93.1059 130.244 94.4355 129.523 95.8193C128.804 97.2023 128.234 98.6412 127.93 100.098C127.783 100.828 127.705 101.558 127.703 102.279C127.703 102.982 127.788 103.754 127.92 104.499C128.188 105.983 128.685 107.409 129.46 108.651C129.842 109.274 130.297 109.847 130.799 110.363C131.052 110.619 131.319 110.859 131.597 111.077C131.736 111.187 131.878 111.288 132.019 111.384L132.228 111.517L132.389 111.61L132.509 111.679C133.136 112.042 133.35 112.845 132.987 113.472C132.643 114.067 131.899 114.288 131.288 114.001C131.106 113.913 131.022 113.865 130.902 113.798C130.791 113.735 130.685 113.671 130.582 113.606C130.376 113.473 130.177 113.338 129.987 113.195C129.604 112.91 129.245 112.603 128.909 112.276C128.234 111.624 127.646 110.891 127.148 110.109C126.142 108.545 125.51 106.787 125.165 105.015C124.996 104.13 124.88 103.248 124.869 102.291C124.86 101.354 124.961 100.427 125.142 99.5285C125.513 97.7328 126.184 96.0609 126.991 94.5008C127.8 92.939 128.759 91.49 129.779 90.1121C130.788 88.7393 131.926 87.419 132.938 86.1936L133.11 85.9759L133.186 85.875L133.214 85.8276L133.236 85.7937L133.27 85.7182L133.345 85.5352C133.446 85.2521 133.542 84.9022 133.619 84.5327C133.779 83.7988 133.891 83.0031 133.987 82.2083C134.179 80.6101 134.296 78.9737 134.409 77.3323L134.715 72.3554C134.749 71.9275 134.776 71.5072 134.847 71.0106L135.043 69.759C135.19 68.8988 135.377 68.0006 135.716 67.0905C136.053 66.1888 136.559 65.2363 137.4 64.4669C138.232 63.6873 139.378 63.2449 140.424 63.15C140.953 63.0881 141.457 63.1127 141.948 63.1585C142.423 63.2042 142.943 63.3093 143.443 63.4754C144.453 63.7983 145.437 64.4847 146.07 65.3634C146.715 66.238 147.053 67.2083 147.255 68.1328C147.45 69.0624 147.513 69.9708 147.518 70.8589C147.525 72.6376 147.27 74.3316 146.964 76.0086C146.319 79.3347 145.459 82.5345 144.534 85.7453C144.422 86.1335 144.016 86.3572 143.627 86.2462C143.263 86.1411 143.044 85.7776 143.109 85.4123L143.111 85.4005Z" fill="#231F20"/>
<path d="M141.639 84.6048C142.338 84.4286 142.978 84.4066 143.646 84.4591C144.308 84.5167 144.965 84.6582 145.607 84.8972C146.248 85.137 146.871 85.4802 147.414 85.9556C147.944 86.4496 148.405 87.0733 148.572 87.8165C148.654 88.1843 148.424 88.5487 148.056 88.6317C147.924 88.6614 147.792 88.6504 147.673 88.608L147.565 88.5682C146.987 88.3589 146.542 88.1716 146.072 87.9869C145.6 87.8072 145.132 87.6242 144.648 87.4276L143.133 86.859C142.621 86.6624 142.066 86.4505 141.56 86.1912L141.466 86.1429C141.059 85.9344 140.898 85.4361 141.105 85.0302C141.218 84.8108 141.418 84.6616 141.639 84.6048Z" fill="#231F20"/>
<path d="M145.955 99.5351C145.799 99.8309 145.65 100.046 145.467 100.27C145.291 100.492 145.094 100.693 144.883 100.879C144.461 101.254 143.978 101.568 143.449 101.815C142.916 102.058 142.323 102.218 141.705 102.245C141.084 102.254 140.431 102.127 139.895 101.762C139.578 101.546 139.496 101.113 139.713 100.796C139.773 100.709 139.849 100.639 139.934 100.588L140.059 100.516C140.512 100.253 140.858 100.084 141.212 99.8936C141.563 99.7029 141.91 99.5317 142.277 99.3546L143.404 98.7767C143.788 98.5869 144.217 98.3674 144.63 98.2318L144.805 98.1742C145.31 98.0072 145.853 98.2818 146.019 98.7852C146.104 99.0428 146.072 99.3122 145.955 99.5351Z" fill="#231F20"/>
<path d="M143.714 100.282C143.915 100.582 144.042 100.814 144.188 101.077C144.323 101.336 144.458 101.594 144.576 101.857C144.821 102.381 145.019 102.923 145.192 103.474C145.54 104.574 145.723 105.736 145.727 106.901C145.755 108.067 145.476 109.239 145.038 110.296C144.615 111.376 143.865 112.258 143.111 113.048C142.968 113.198 142.731 113.203 142.581 113.061C142.454 112.939 142.431 112.75 142.514 112.603L142.539 112.562L142.916 111.901C143.044 111.685 143.17 111.471 143.25 111.235L143.531 110.554C143.606 110.322 143.653 110.081 143.716 109.849C143.934 108.913 143.982 107.958 143.828 107.019C143.691 106.082 143.391 105.17 143 104.298C142.801 103.863 142.575 103.439 142.328 103.03C142.209 102.822 142.077 102.626 141.946 102.428C141.818 102.243 141.664 102.03 141.556 101.902C141.072 101.333 141.14 100.48 141.709 99.9962C142.278 99.5123 143.132 99.581 143.615 100.15L143.709 100.273L143.714 100.282Z" fill="#231F20"/>
<path d="M146.197 85.6841C148.889 82.4259 151.557 79.1667 154.334 75.955C154.684 75.5517 155.029 75.1534 155.399 74.7441L155.92 74.1695L156.423 73.5882C157.107 72.7908 157.822 71.9451 158.672 71.1561C159.519 70.3765 160.536 69.6147 161.84 69.2232C162.487 69.0317 163.199 68.9664 163.884 69.0419C164.57 69.1156 165.217 69.3257 165.793 69.6045C166.362 69.8842 166.899 70.2231 167.399 70.6706C167.894 71.1163 168.323 71.6756 168.623 72.2985C169.229 73.562 169.24 74.9449 169.015 76.1321C168.791 77.3337 168.302 78.476 167.641 79.4692C167.323 79.9616 166.906 80.4488 166.555 80.8344L165.513 82.0216C162.74 85.1952 159.946 88.3501 157.118 91.477C156.783 91.8473 156.212 91.8762 155.843 91.5423C155.486 91.2194 155.448 90.6737 155.747 90.3042C158.407 87.0231 161.1 83.7681 163.814 80.531L164.831 79.3167C165.18 78.9133 165.44 78.5871 165.694 78.1922C166.191 77.4236 166.534 76.5821 166.686 75.7059C166.838 74.8331 166.783 73.9984 166.456 73.3492C166.292 73.023 166.067 72.7315 165.775 72.4756C165.485 72.223 165.121 71.9951 164.742 71.8146C163.986 71.4603 163.267 71.3883 162.545 71.6087C161.82 71.8332 161.082 72.3476 160.397 73.0035C159.706 73.6585 159.061 74.4322 158.384 75.2449L157.86 75.866L157.326 76.4703C156.994 76.8482 156.654 77.2507 156.317 77.649C153.633 80.8708 150.948 84.1325 148.285 87.3942L148.282 87.3976C147.81 87.9747 146.96 88.0603 146.384 87.5891C145.806 87.118 145.721 86.268 146.192 85.6901L146.197 85.6841Z" fill="#231F20"/>
<path d="M130.061 97.0609C130.771 95.8804 131.702 94.9695 132.737 94.1373C133.781 93.328 134.934 92.645 136.16 92.134C136.77 91.8696 137.398 91.6501 138.034 91.4586C138.674 91.2832 139.32 91.1205 139.973 91.0095C141.277 90.7604 142.603 90.6833 143.918 90.6866L144.904 90.7112L145.867 90.7799C146.511 90.835 147.155 90.8943 147.803 90.9866C149.094 91.162 150.393 91.4146 151.692 91.8247C152.982 92.2595 154.301 92.8314 155.467 93.8941C156.036 94.4322 156.566 95.105 156.877 95.9304C157.033 96.3397 157.137 96.777 157.169 97.227C157.187 97.4507 157.184 97.6778 157.164 97.9074C157.155 98.0227 157.139 98.1405 157.119 98.2591L157.081 98.4464C157.062 98.5201 157.056 98.5557 157.012 98.693L157.046 98.5752C156.976 98.8421 156.92 98.9938 156.85 99.1912C156.782 99.3777 156.707 99.5582 156.63 99.7361C156.472 100.091 156.294 100.437 156.094 100.773C155.692 101.441 155.205 102.077 154.606 102.625C154.012 103.174 153.306 103.628 152.546 103.939C151.786 104.257 150.976 104.416 150.187 104.461C148.788 104.516 147.326 104.49 145.844 104.085C145.112 103.878 144.393 103.572 143.744 103.176C143.098 102.777 142.521 102.301 142.004 101.795C141.629 101.431 141.623 100.831 141.988 100.457C142.331 100.106 142.879 100.079 143.255 100.378L143.266 100.389C144.227 101.162 145.255 101.7 146.383 101.918C147.505 102.154 148.754 102.115 150.015 102.001C151.104 101.9 152.058 101.462 152.807 100.716C153.186 100.351 153.512 99.9082 153.787 99.4251C153.923 99.1836 154.047 98.9311 154.154 98.6735C154.206 98.5438 154.257 98.4133 154.3 98.2845C154.34 98.1667 154.39 98.0015 154.403 97.943L154.437 97.8261L154.427 97.8464L154.434 97.8041L154.444 97.6905C154.448 97.6108 154.447 97.5244 154.438 97.4388C154.421 97.2651 154.38 97.0897 154.312 96.9176C154.184 96.571 153.926 96.233 153.593 95.9186C153.249 95.6067 152.823 95.3271 152.354 95.0847C151.879 94.8432 151.359 94.6483 150.829 94.461C148.673 93.756 146.216 93.4839 143.85 93.3458C141.496 93.2484 139.144 93.4797 136.901 94.1534C135.784 94.4966 134.691 94.9381 133.658 95.5144C132.634 96.077 131.621 96.7863 130.803 97.582L130.765 97.6184C130.586 97.7939 130.299 97.7897 130.125 97.61C129.978 97.4592 129.958 97.2321 130.061 97.0609Z" fill="#231F20"/>
<path d="M159.607 104.269C159.242 104.269 158.877 104.121 158.61 103.83C158.108 103.28 158.147 102.426 158.695 101.925C160.22 100.529 161.037 98.6935 160.936 96.8885C160.856 95.4674 160.221 94.2556 159.148 93.4751C156.327 91.4235 153.039 93.9124 152.9 94.02C152.312 94.4742 151.465 94.3691 151.008 93.7819C150.551 93.1963 150.653 92.3531 151.238 91.8938C151.44 91.7345 156.255 88.0348 160.735 91.293C162.451 92.5396 163.506 94.5242 163.63 96.7368C163.777 99.3544 162.642 101.97 160.517 103.915C160.259 104.152 159.932 104.269 159.607 104.269Z" fill="#231F20"/>
<path d="M148.121 103.847L148.1 103.958L148.086 104.125C148.077 104.24 148.076 104.358 148.08 104.474C148.086 104.71 148.112 104.944 148.16 105.168C148.257 105.617 148.435 106.025 148.707 106.371C148.977 106.717 149.345 107.008 149.797 107.222C150.25 107.437 150.777 107.593 151.258 107.625C151.747 107.662 152.235 107.587 152.712 107.387C153.19 107.188 153.647 106.868 154.072 106.492C154.919 105.722 155.639 104.735 156.26 103.69C156.37 103.507 156.607 103.446 156.791 103.554C156.96 103.655 157.025 103.867 156.949 104.043C156.442 105.2 155.833 106.337 154.966 107.361C154.524 107.864 154.012 108.343 153.384 108.707C152.76 109.074 152.013 109.303 151.264 109.342C150.505 109.384 149.802 109.267 149.096 109.05C148.391 108.828 147.685 108.44 147.104 107.884C146.52 107.331 146.086 106.625 145.819 105.892C145.683 105.525 145.585 105.149 145.521 104.769C145.489 104.579 145.464 104.388 145.449 104.192C145.442 104.095 145.437 103.996 145.433 103.895C145.432 103.783 145.428 103.71 145.438 103.542C145.523 102.803 146.192 102.27 146.931 102.353C147.672 102.438 148.204 103.106 148.121 103.847Z" fill="#231F20"/>
<path d="M144.32 116.539C144.465 116.621 144.71 116.737 144.921 116.821C145.143 116.908 145.37 116.986 145.602 117.051C146.066 117.181 146.542 117.267 147.023 117.309C147.984 117.387 148.957 117.289 149.887 117.022C150.819 116.759 151.713 116.339 152.546 115.807C152.757 115.682 152.956 115.529 153.162 115.392L153.761 114.936C154.113 114.649 154.478 114.296 154.81 113.936C156.154 112.48 157.184 110.73 157.766 108.862C158.356 106.991 158.506 105.006 158.264 103.053C158.172 102.313 158.697 101.638 159.437 101.546C160.176 101.454 160.85 101.979 160.943 102.719L160.948 102.773L160.949 102.787C161.132 105.091 160.847 107.461 160.048 109.642C159.253 111.828 157.964 113.799 156.332 115.416C155.918 115.823 155.498 116.2 155.003 116.568L154.301 117.053C154.056 117.203 153.821 117.366 153.566 117.503C152.569 118.079 151.485 118.534 150.342 118.802C149.202 119.075 148.006 119.142 146.839 118.993C146.256 118.917 145.681 118.787 145.121 118.603C144.842 118.51 144.567 118.403 144.296 118.281C144.016 118.152 143.778 118.036 143.467 117.837C143.107 117.605 143.002 117.126 143.234 116.765C143.458 116.416 143.914 116.307 144.27 116.51L144.32 116.539Z" fill="#231F20"/>
<path d="M102.436 144.196L102.586 143.418L103.557 141.719C106.946 135.784 111.244 130.417 116.293 125.811L117.973 124.279C117.973 124.279 138.069 133.886 139.16 136.585C137.449 140.771 128.734 153.021 128.734 153.021C128.734 153.021 116.642 165.322 107.058 157.439C103.186 154.254 101.489 149.12 102.436 144.196Z" fill="#EBEBE9"/>
<path d="M124.926 146.929C124.926 146.929 128.967 177.746 114.538 181.979C125.231 178.603 131.471 174.673 131.471 174.673L124.926 146.929Z" fill="#C1C0B8"/>
<path d="M62.904 184.321H62.8955C60.6957 184.308 53.3986 184.021 51.9267 180.892C49.8361 176.451 52.3639 167.219 59.2373 154.195C59.5847 153.536 60.3991 153.284 61.0601 153.631C61.7193 153.979 61.971 154.795 61.6236 155.454C52.7088 172.347 53.58 178.067 54.3689 179.744C54.8621 180.793 59.2864 181.6 62.9125 181.622C63.6582 181.627 64.2582 182.235 64.2539 182.98C64.2489 183.722 63.6455 184.321 62.904 184.321Z" fill="#231F20"/>
<path d="M56.3103 138.623C56.2128 138.706 56.0348 138.864 55.8942 138.998C55.7459 139.139 55.5967 139.284 55.4612 139.438C55.1781 139.74 54.9383 140.071 54.6968 140.394C54.2409 141.057 53.9375 141.776 53.7816 142.499C53.6384 143.225 53.646 143.972 53.8426 144.726C54.0527 145.519 54.39 146.317 54.8103 147.088C55.6832 148.623 56.8806 150.038 58.2059 151.329C59.555 152.589 61.0371 153.78 62.6446 154.65L62.6616 154.659C62.998 154.841 63.1234 155.263 62.9412 155.598C62.7743 155.907 62.4065 156.038 62.087 155.918C60.1634 155.194 58.4644 154.111 56.8695 152.87C56.084 152.236 55.3188 151.567 54.612 150.825C53.9163 150.071 53.2562 149.271 52.6757 148.391C52.1054 147.501 51.6063 146.543 51.2495 145.484C50.9029 144.38 50.7996 143.145 51.0182 141.972C51.2207 140.794 51.7376 139.714 52.3757 138.787C52.7045 138.329 53.057 137.892 53.457 137.507C53.6502 137.308 53.8562 137.124 54.068 136.941C54.1739 136.849 54.2807 136.761 54.3968 136.675C54.5163 136.585 54.6137 136.513 54.7773 136.402C55.3925 135.984 56.2298 136.144 56.6475 136.76C57.0373 137.335 56.9238 138.102 56.4069 138.541L56.3103 138.623Z" fill="#231F20"/>
<path d="M138.268 135.556C138.268 135.556 140.028 136.046 138.654 139.255C136.592 144.071 130.802 152.431 128.019 153.831C125.792 149.036 124.73 146.548 124.73 146.548C124.73 146.548 128.572 151.002 138.268 135.556Z" fill="#C1C0B8"/>
<path d="M130.944 176.439C130.273 176.439 129.691 175.94 129.607 175.257C128.804 168.81 126.1 151.122 123.286 146.751C122.883 146.125 123.063 145.29 123.69 144.886C124.318 144.483 125.152 144.664 125.556 145.29C129.277 151.071 132.163 173.952 132.284 174.923C132.376 175.663 131.852 176.337 131.112 176.428L130.944 176.439Z" fill="#231F20"/>
<path d="M127.362 155.889C127.033 155.889 126.7 155.768 126.44 155.523C125.896 155.014 125.869 154.16 126.378 153.617C134.255 145.21 136.887 139.128 137.618 137.056C135.51 135.386 128.577 130.23 118.218 125.837C106.381 135.69 103.938 145.245 103.914 145.342C103.738 146.065 103.012 146.512 102.287 146.335C101.563 146.161 101.118 145.435 101.29 144.712C101.395 144.275 103.997 133.885 117.14 123.23C117.525 122.918 118.048 122.842 118.506 123.032C131.875 128.563 139.73 135.281 140.059 135.564C140.436 135.89 140.603 136.397 140.493 136.884C140.423 137.187 138.684 144.43 128.348 155.462C128.082 155.745 127.722 155.889 127.362 155.889Z" fill="#231F20"/>
<path d="M57.2646 46.3559C57.2646 46.3559 65.8844 22.5912 93.4574 29.7696C86.3612 32.3025 83.841 35.6735 83.841 35.6735C83.841 35.6735 111.321 21.7039 124.308 62.7821C113.393 53.7538 96.8479 53.1166 94.854 54.1919C102.189 56.1791 104.92 62.9304 104.92 62.9304C104.92 62.9304 97.5767 57.9248 89.6526 58.1629C79.4633 58.4688 75.4144 66.5557 75.4144 66.5557C75.4144 66.5557 63.3286 56.1274 56.5841 64.0117C56.5841 64.0117 45.7339 53.1521 52.5742 35.5243C54.4656 40.3529 59.0365 42.1087 59.0365 42.1087" fill="#3A1E19"/>
<path d="M42.2968 115.254C42.2968 115.254 51.2191 125.023 64.3336 128.01C75.4949 133.636 85.6002 130.556 85.6002 130.556C85.6002 130.556 95.5293 128.677 96.4039 123.867C93.2591 123.856 74.4297 123.206 74.4297 123.206L42.2968 115.254Z" fill="#D69861"/>
<path d="M75.4771 68.6479L74.1746 67.6116C74.0788 67.5353 64.3921 59.9874 57.1798 65.1727C56.5739 65.6083 55.7307 65.4693 55.2969 64.8651C54.8622 64.2601 54.9994 63.4169 55.6053 62.9813C62.8515 57.7731 71.4604 62.5059 74.6237 64.6168C76.3372 62.1339 80.8437 57.0655 89.2144 56.8138C97.4835 56.5613 105.34 61.7636 105.671 61.9856C106.29 62.4 106.457 63.2372 106.041 63.8575C105.626 64.4761 104.79 64.6414 104.17 64.2278C104.07 64.1609 96.675 59.3001 89.2958 59.5112C80.0175 59.7908 76.2584 67.0862 76.222 67.1599L75.4771 68.6479Z" fill="#040606"/>
<path d="M61.7397 122.622C61.7397 122.622 65.7929 128.93 80.2963 129.674C94.8006 130.419 98.58 120.532 98.58 120.532C98.58 120.532 86.2748 126.152 61.7397 122.622Z" fill="#CF616D"/>
<path d="M63.9912 123.753C66.2148 125.575 71.0874 128.379 80.3386 128.854C90.2067 129.361 94.892 124.75 96.7648 122.072C92.4226 123.455 81.5521 125.94 63.9912 123.753ZM81.8131 130.535C81.3072 130.535 80.7877 130.522 80.2547 130.494C65.4987 129.738 61.2236 123.338 61.049 123.067L60.0762 121.553L61.8566 121.809C85.8747 125.264 98.1181 119.839 98.2384 119.785L100.064 118.951L99.3468 120.825C99.3087 120.926 95.4699 130.534 81.8131 130.535Z" fill="#231F20"/>
<path d="M106.271 88.7155C106.271 95.2703 100.956 100.583 94.4014 100.583C87.8467 100.583 82.5317 95.2703 82.5317 88.7155C82.5317 82.1591 87.8467 76.8458 94.4014 76.8458C100.956 76.8458 106.271 82.1591 106.271 88.7155Z" fill="#D69861"/>
<path d="M72.0322 88.9733C72.0322 94.5035 67.5494 98.9863 62.0209 98.9863C56.4916 98.9863 52.0088 94.5035 52.0088 88.9733C52.0088 83.444 56.4916 78.9621 62.0209 78.9621C67.5494 78.9621 72.0322 83.444 72.0322 88.9733Z" fill="#D69861"/>
<path d="M104.713 87.3415C104.713 93.6573 99.5925 98.7773 93.2767 98.7773C86.961 98.7773 81.8418 93.6573 81.8418 87.3415C81.8418 81.0249 86.961 75.9058 93.2767 75.9058C99.5925 75.9058 104.713 81.0249 104.713 87.3415Z" fill="white"/>
<path d="M70.6078 87.6055C70.6078 92.9332 66.2894 97.2524 60.9617 97.2524C55.6349 97.2524 51.3157 92.9332 51.3157 87.6055C51.3157 82.2787 55.6349 77.9595 60.9617 77.9595C66.2894 77.9595 70.6078 82.2787 70.6078 87.6055Z" fill="white"/>
<path d="M97.1275 89.5263C95.5411 89.5263 94.2547 88.2399 94.2547 86.6536C94.2547 86.4146 94.2869 86.1824 94.3429 85.9613C91.9184 86.1197 90.0007 88.1306 90.0007 90.5941C90.0007 93.1626 92.082 95.2446 94.6496 95.2446C97.2173 95.2446 99.2994 93.1626 99.2994 90.5941C99.2994 89.9822 99.1782 89.3984 98.9629 88.862C98.4647 89.2772 97.8249 89.5263 97.1275 89.5263Z" fill="#040606"/>
<path d="M66.3563 89.6562C64.886 89.6562 63.6657 88.5893 63.4225 87.1886C61.7074 87.5987 60.4312 89.1385 60.4312 90.979C60.4312 93.134 62.1785 94.8813 64.3335 94.8813C66.4884 94.8813 68.235 93.134 68.235 90.979C68.235 90.3621 68.0884 89.7808 67.8333 89.2622C67.3977 89.5113 66.8944 89.6562 66.3563 89.6562Z" fill="#040606"/>
<path d="M118.432 126.872C112.949 130.611 108.328 136.518 108.672 138.01C109.017 139.503 118.318 138.469 121.763 134.681C125.207 130.891 125.185 128.07 118.432 126.872Z" fill="white"/>
<path d="M104.193 166.384C102.961 164.3 107.332 156.203 113.916 156.202C117.054 156.201 116.519 159.724 115.983 161.293C115.447 162.863 107.179 171.437 104.193 166.384Z" fill="white"/>
<path d="M101.395 117.793C95.7767 129.029 71.5933 126.868 67.4317 125.967C47.7523 121.704 35.9047 109.858 35.9047 109.858L36.947 103.761" fill="#F7BF7F"/>
<path d="M102.603 118.396C101.822 119.921 100.705 121.247 99.4315 122.308C98.157 123.376 96.7376 124.2 95.2792 124.859C92.3522 126.175 89.2727 126.873 86.2051 127.295C83.1316 127.723 80.0478 127.842 76.9768 127.799C75.4413 127.773 73.9083 127.7 72.3779 127.574C70.8424 127.444 69.3247 127.287 67.7714 127.006C67.5774 126.968 67.3706 126.927 67.1799 126.883L66.6223 126.74L65.5071 126.454C64.7665 126.255 64.0165 126.088 63.2835 125.864L61.0896 125.174C60.726 125.055 60.3566 124.952 59.9956 124.821L58.9185 124.421C58.2016 124.152 57.4805 123.895 56.7678 123.614L54.6552 122.714C53.9451 122.427 53.2595 122.086 52.5697 121.755C51.8842 121.415 51.1808 121.112 50.5131 120.738C47.7861 119.35 45.1761 117.746 42.6559 116.02C40.1408 114.276 37.7358 112.415 35.5054 110.257L35.2953 110.053L35.3478 109.763L36.4571 103.678C36.5071 103.408 36.7647 103.229 37.0359 103.278C37.302 103.326 37.4791 103.58 37.4367 103.846L36.4596 109.952L36.3028 109.459C38.4688 111.466 40.9043 113.276 43.3974 114.922C45.9057 116.563 48.4988 118.08 51.1978 119.381C51.8596 119.732 52.5545 120.015 53.2316 120.331C53.9137 120.64 54.59 120.96 55.2908 121.225L57.3729 122.06C58.0745 122.319 58.7846 122.553 59.4897 122.802L60.5481 123.169C60.9023 123.289 61.2642 123.382 61.6218 123.491L63.7725 124.117C64.4911 124.319 65.2241 124.465 65.9495 124.642L67.0392 124.898L67.5833 125.025C67.7613 125.062 67.9273 125.091 68.1053 125.123C69.5357 125.35 71.0365 125.475 72.5195 125.568C74.0075 125.657 75.4998 125.696 76.9912 125.689C79.9716 125.668 82.9519 125.485 85.8679 125.015C88.777 124.552 91.6489 123.819 94.2242 122.591C96.7901 121.38 99.0434 119.581 100.188 117.189C100.51 116.516 101.315 116.233 101.988 116.555C102.66 116.877 102.945 117.682 102.623 118.354L102.609 118.38L102.603 118.396Z" fill="#040606"/>
<path d="M87.728 71.1078C88.2729 70.829 88.7466 70.6222 89.2669 70.4493C89.7779 70.2731 90.2948 70.1392 90.8177 70.0223C91.8642 69.7968 92.932 69.6952 94.009 69.6875C96.1606 69.6723 98.3681 70.0926 100.454 70.9832C102.529 71.8823 104.501 73.2763 105.918 75.133C107.344 76.9702 108.184 79.2124 108.173 81.4174C108.169 82.0029 107.693 82.4732 107.108 82.4707C106.834 82.4698 106.584 82.364 106.396 82.1902L106.343 82.1411C104.881 80.7878 103.645 79.6861 102.282 78.8574C100.959 77.9998 99.5706 77.3634 98.0885 76.8032C96.6013 76.2609 95.0268 75.7838 93.354 75.3355L90.7813 74.6483L89.4449 74.2746C89.0051 74.15 88.517 74.0068 88.106 73.8483L87.8636 73.7534C87.1162 73.4645 86.7459 72.6229 87.0348 71.8764C87.1687 71.5306 87.423 71.2646 87.728 71.1078Z" fill="#040606"/>
<path d="M49.2886 79.4592C49.6454 78.5635 50.0954 77.8601 50.6258 77.161C51.1555 76.4746 51.7639 75.856 52.4291 75.2925C53.757 74.1663 55.351 73.285 57.1195 72.7706C58.8813 72.263 60.8422 72.1274 62.6879 72.5731C64.5293 73.0036 66.2063 73.9951 67.3105 75.4103C67.6206 75.8086 67.5495 76.384 67.152 76.695C66.9766 76.8314 66.7681 76.8941 66.5614 76.8881L66.4944 76.8865C64.8818 76.8365 63.5632 76.8161 62.3133 77.0187C61.0735 77.1805 59.9135 77.5034 58.7262 77.9067C57.5458 78.3321 56.3382 78.8253 55.0739 79.3846L53.1232 80.2414C52.4562 80.5193 51.7436 80.8422 51.0326 81.065L50.8351 81.1278C50.1716 81.3354 49.4649 80.9659 49.2564 80.3024C49.1666 80.0151 49.1861 79.7177 49.2886 79.4592Z" fill="#040606"/>
<path d="M44.4745 103.255C44.4745 103.255 72.4661 102.589 74.4296 80.6568C74.4296 80.6568 74.7652 84.9151 75.5473 89.0953C76.2007 92.5901 77.1659 96.0305 78.5065 96.8805C81.4495 98.7473 90.3889 104.616 90.3889 104.616L68.8926 111.077C68.8926 111.077 45.2295 108.648 44.4745 103.255Z" fill="#F7BF7F"/>
<path d="M44.4431 101.906C45.2126 101.885 46.071 101.817 46.8896 101.734C47.7158 101.643 48.5437 101.54 49.3665 101.405C51.0156 101.145 52.6503 100.799 54.257 100.36C57.4661 99.4795 60.5744 98.2312 63.3742 96.5051C66.1487 94.7594 68.6214 92.5231 70.3467 89.7665C72.1271 87.042 73.0754 83.8363 73.4347 80.567L73.4372 80.5458C73.4965 79.9984 73.9897 79.6026 74.538 79.6628C75.0795 79.7213 75.4727 80.2051 75.4236 80.7449C75.1024 84.2795 74.1177 87.8479 72.1898 90.9173C70.3188 94.0196 67.6164 96.5423 64.6318 98.488C61.6218 100.415 58.3237 101.797 54.9417 102.788C53.2494 103.282 51.5317 103.676 49.7987 103.98C48.0522 104.283 46.3472 104.513 44.5067 104.604C43.7626 104.641 43.1296 104.066 43.0923 103.322C43.0559 102.578 43.6296 101.945 44.3745 101.908L44.3973 101.907L44.4431 101.906Z" fill="#231F20"/>
<path d="M35.9047 109.858C35.9047 109.858 51.7961 124.23 67.8749 126.053C83.9545 127.877 97.4283 125.123 101.395 117.793C84.1841 129.255 54.174 120.532 44.4745 109.886C45.8388 105.738 45.6753 105.465 45.5575 104.624C44.9787 104.096 37.4088 108.279 37.4088 108.279L35.9047 109.858Z" fill="#D69861"/>
<path d="M25.8763 102.577C25.8797 100.081 27.2415 97.2252 34.7979 97.1202C34.7979 97.1202 45.6083 96.9109 45.9227 102.262C46.2379 107.614 38.4714 112.234 35.9004 112.129C33.3285 112.024 25.8696 108.297 25.8763 102.577Z" fill="#040606"/>
<path d="M34.5174 99.8505C34.6649 100.555 33.2158 101.453 31.282 101.858C29.3474 102.263 27.6602 102.021 27.5128 101.317C27.3653 100.614 28.8144 99.7149 30.749 99.3107C32.6828 98.9056 34.37 99.1471 34.5174 99.8505Z" fill="white"/>
<path d="M102.603 118.396C101.822 119.921 100.705 121.247 99.4315 122.308C98.157 123.376 96.7376 124.2 95.2792 124.859C92.3522 126.175 89.2727 126.873 86.2051 127.295C83.1316 127.723 80.0478 127.842 76.9768 127.799C75.4413 127.773 73.9083 127.7 72.3779 127.574C70.8424 127.444 69.3247 127.287 67.7714 127.006C67.5774 126.968 67.3706 126.927 67.1799 126.883L66.6223 126.74L65.5071 126.454C64.7665 126.255 64.0165 126.088 63.2835 125.864L61.0896 125.174C60.726 125.055 60.3566 124.952 59.9956 124.821L58.9185 124.421C58.2016 124.152 57.4805 123.895 56.7678 123.614L54.6552 122.714C53.9451 122.427 53.2595 122.086 52.5697 121.755C51.8842 121.415 51.1808 121.112 50.5131 120.738C47.7861 119.35 45.1761 117.746 42.6559 116.02C40.1408 114.276 37.7358 112.415 35.5054 110.257L35.2953 110.053L35.3478 109.763L36.4571 103.678C36.5071 103.408 36.7647 103.229 37.0359 103.278C37.302 103.326 37.4791 103.58 37.4367 103.846L36.4596 109.952L36.3028 109.459C38.4688 111.466 40.9043 113.276 43.3974 114.922C45.9057 116.563 48.4988 118.08 51.1978 119.381C51.8596 119.732 52.5545 120.015 53.2316 120.331C53.9137 120.64 54.59 120.96 55.2908 121.225L57.3729 122.06C58.0745 122.319 58.7846 122.553 59.4897 122.802L60.5481 123.169C60.9023 123.289 61.2642 123.382 61.6218 123.491L63.7725 124.117C64.4911 124.319 65.2241 124.465 65.9495 124.642L67.0392 124.898L67.5833 125.025C67.7613 125.062 67.9273 125.091 68.1053 125.123C69.5357 125.35 71.0365 125.475 72.5195 125.568C74.0075 125.657 75.4998 125.696 76.9912 125.689C79.9716 125.668 82.9519 125.485 85.8679 125.015C88.777 124.552 91.6489 123.819 94.2242 122.591C96.7901 121.38 99.0434 119.581 100.188 117.189C100.51 116.516 101.315 116.233 101.988 116.555C102.66 116.877 102.945 117.682 102.623 118.354L102.609 118.38L102.603 118.396Z" fill="#040606"/>
<path d="M49.8614 104.904C46.987 105.967 50.8825 106.288 52.8731 105.982C54.8636 105.676 77.2183 101.676 75.915 90.891C74.9439 82.844 73.6253 91.7155 70.6077 95.1848C63.5911 103.255 49.8614 104.904 49.8614 104.904Z" fill="#FCD4AE"/>
<path d="M34.5758 169.868C34.5758 169.868 35.5215 165.849 37.8044 165.465C40.0882 165.083 40.8661 165.695 40.5543 166.154C40.2416 166.614 37.868 166.455 37.1028 167.606C36.3367 168.758 34.9588 171.284 34.5758 169.868Z" fill="#FCD4AE"/>
<path d="M45.116 169.141C45.116 169.141 45.2939 165.925 47.3608 165.006C49.4284 164.087 51.2656 163.858 51.4953 164.624C51.7249 165.389 48.2793 164.93 47.2082 167.073C46.1362 169.217 45.5498 170.824 45.116 169.141Z" fill="#FCD4AE"/>
<path d="M42.911 160.959C42.911 160.959 45.438 158.461 46.9591 158.633C48.4802 158.806 49.2564 159.925 48.8827 160.184C48.5098 160.441 47.648 159.092 46.8159 159.466C45.9829 159.839 42.05 162.279 42.911 160.959Z" fill="#FCD4AE"/>
<path d="M68.8503 156.714C68.8503 156.714 72.4102 155.22 74.4762 155.967C74.7067 159.7 75.1016 165.442 75.1016 165.442C75.1016 165.442 71.0315 166.59 67.7012 165.442C68.1605 161.882 68.8503 156.714 68.8503 156.714Z" fill="#C1C0B8"/>
<path d="M68.9417 164.619C70.8009 165.014 72.7983 164.763 73.9135 164.554C73.8025 162.933 73.5771 159.576 73.4076 156.892C72.3526 156.816 70.917 157.163 69.8764 157.527C69.6985 158.866 69.2841 161.987 68.9417 164.619ZM71.1069 167.075C69.901 167.075 68.5799 166.933 67.335 166.504L66.469 166.207L66.5868 165.297C67.0461 161.737 67.735 156.566 67.735 156.566L67.8206 155.927L68.4146 155.678C68.8197 155.507 72.4492 154.036 74.8584 154.91L75.5532 155.161L75.5981 155.898C75.8261 159.584 76.2193 165.307 76.2227 165.364L76.2854 166.275L75.4066 166.524C75.288 166.557 73.4076 167.075 71.1069 167.075Z" fill="#353436"/>
<path d="M89.0601 155.967C89.0601 155.967 93.5293 154.31 95.2563 155.741C95.3758 157.978 96.1902 164.523 96.1902 164.523C96.1902 164.523 91.5871 166.246 88.0262 163.834L89.0601 155.967Z" fill="#C1C0B8"/>
<path d="M89.2381 163.249C91.3143 164.326 93.715 163.997 94.9581 163.707C94.7497 161.99 94.3268 158.398 94.1743 156.413C93.2447 156.093 91.4456 156.396 90.0838 156.81L89.2381 163.249ZM92.5608 166.245C90.9533 166.245 89.0856 165.91 87.3958 164.766L86.8221 164.376L88.0339 155.148L88.6695 154.913C89.5169 154.598 93.8531 153.119 95.9742 154.876L96.353 155.19L96.3792 155.681C96.4962 157.853 97.2978 164.319 97.3063 164.384L97.4165 165.266L96.5843 165.576C96.4631 165.622 94.7531 166.245 92.5608 166.245Z" fill="#353436"/>
<path d="M117.831 71.9369C119.38 72.9123 121.648 70.0709 121.648 70.0709C121.648 70.0709 121.993 72.1657 121.505 75.3604C122.079 74.6927 125.179 75.9663 125.179 75.9663C125.179 75.9663 122.94 76.029 122.883 76.4519C122.826 76.8748 125.524 77.4061 125.639 78.3459C124.319 77.7934 124.213 78.9992 124.213 78.9992C124.213 78.9992 125.007 78.9992 125.639 80.1466C124.376 79.6873 126.185 81.8397 126.185 81.8397C126.185 81.8397 126.226 82.3846 125.387 81.8397C126.156 82.9609 126.902 83.9371 128.223 84.1091C127.247 84.5108 126.832 84.3964 126.832 84.3964C126.832 84.3964 129.142 85.0845 129.543 85.7175C128.05 85.2573 128.166 86.5208 128.166 86.5208C128.166 86.5208 129.888 86.331 129.888 87.4021C128.912 86.9801 128.97 88.2529 128.97 88.2529L130.117 89.0546L129.658 90.1376L126.385 90.6621L117.831 71.9369Z" fill="#4C2A20"/>
</g>
<path d="M113.314 108.501C113.314 110.888 110.314 112.822 106.615 112.822C102.916 112.822 99.9164 110.888 99.9164 108.501C99.9164 106.116 102.916 104.182 106.615 104.182C110.314 104.182 113.314 106.116 113.314 108.501Z" fill="#F8A185"/>
</svg>
