<svg width="195" height="195" viewBox="0 0 195 195" fill="none" xmlns="http://www.w3.org/2000/svg">
<path d="M97.4996 0C84.3486 0 71.5765 2.58206 59.5407 7.67244C47.927 12.5849 37.503 19.6116 28.5569 28.5577C19.6108 37.5038 12.584 47.9286 7.6716 59.5415C2.58036 71.5773 0 84.3495 0 97.5004C0 110.652 2.58036 123.423 7.6716 135.459C12.584 147.072 19.6108 157.497 28.5569 166.443C37.503 175.389 47.927 182.416 59.5407 187.328C71.5765 192.419 84.3486 195 97.4996 195C110.651 195 123.422 192.419 135.458 187.328C147.071 182.416 157.496 175.389 166.442 166.443C175.388 157.497 182.415 147.072 187.327 135.459C192.418 123.423 194.999 110.652 194.999 97.5004C194.999 84.3495 192.418 71.5773 187.327 59.5415C182.415 47.9286 175.388 37.5038 166.442 28.5577C157.496 19.6116 147.071 12.5849 135.458 7.67244C123.422 2.58206 110.651 0 97.4996 0ZM97.4996 24.7376C137.685 24.7376 170.262 57.3145 170.262 97.5004C170.262 137.686 137.685 170.262 97.4996 170.262C57.3137 170.262 24.7367 137.686 24.7367 97.5004C24.7367 57.3145 57.3137 24.7376 97.4996 24.7376Z" fill="#FFC781"/>
<mask id="mask0_69_1843" style="mask-type:luminance" maskUnits="userSpaceOnUse" x="16" y="4" width="156" height="167">
<path d="M170.261 97.5004C170.261 103.665 169.495 109.651 168.052 115.367C166.034 123.363 164.502 151.32 156.912 153.922C151.553 155.759 155.894 140.968 154.6 142.605C141.272 159.453 120.649 170.262 97.4995 170.262C57.3136 170.262 24.7366 137.686 24.7366 97.5004C22.0978 88.5687 -15.5424 8.69615 95.5911 4.56165C161.505 7.54791 175.285 80.9048 170.261 97.5004Z" fill="white"/>
</mask>
<g mask="url(#mask0_69_1843)">
<path d="M51.4699 104.691C51.4699 104.691 43.5331 96.247 35.5352 107.069C32.1447 96.558 37.7139 90.4135 37.7139 90.4135C37.7139 90.4135 32.3007 90.7465 30.2084 96.5055C27.0849 81.9869 33.276 75.6084 33.276 75.6084C33.276 75.6084 30.2915 71.2646 24.2732 78.8565C26.94 66.1344 35.6801 58.228 35.6801 58.228C35.6801 58.228 28.8305 55.1257 22.1504 61.9016C25.746 45.9906 39.8358 42.6738 39.8358 42.6738C39.8358 42.6738 38.5851 37.4631 34.8243 34.8319C40.9832 33.082 46.4558 36.4886 46.4558 36.4886C46.4558 36.4886 44.7474 27.0476 41.5476 24.7731C48.1735 24.2664 52.7487 30.5694 52.7487 30.5694C52.7487 30.5694 51.2411 26.3781 55.4451 17.5515C56.7162 25.4536 60.283 28.5127 60.283 28.5127C60.283 28.5127 61.6939 19.2463 71.6052 14.45C67.3182 25.5087 72.0577 27.3458 72.0577 27.3458C72.0577 27.3458 70.4612 19.7099 88.7432 10.5536C82.7038 19.787 87.6467 22.5419 87.6467 22.5419C87.6467 22.5419 99.7545 8.11218 115.033 14.9296C106.877 17.2193 107.037 21.4191 107.037 21.4191C107.037 21.4191 121.812 17.2769 130.371 25.4875C122.337 26.5942 118.726 31.1499 118.726 31.1499C118.726 31.1499 137.669 27.1425 149.658 46.9151C144.327 45.0169 140.504 47.3083 140.504 47.3083C140.504 47.3083 157.464 55.196 163.245 74.3229C154.867 68.6724 150.555 71.3612 150.555 71.3612C150.555 71.3612 167.107 77.4142 165.995 101.054C162.828 94.1514 156.884 93.8328 156.884 93.8328C156.884 93.8328 167.84 101.993 164.928 117.08C161.252 107.883 157.805 107.973 157.805 107.973C157.805 107.973 169.306 128.143 156.759 145.365C156.971 128.952 151.813 128.267 151.813 128.267C151.813 128.267 157.283 159.016 139.828 183.199C140.464 175.645 137.184 171.27 137.184 171.27C137.184 171.27 138.502 185.9 126.449 194.059C129.277 185.539 126.016 183.855 126.016 183.855C126.016 183.855 90.4304 109.338 51.4699 104.691Z" fill="#4C2A20"/>
<path d="M127.08 182.96C127.926 183.657 129.505 185.648 128.743 190.459C136.713 182.68 135.851 171.514 135.84 171.388L135.43 166.684L138.263 170.461C138.379 170.616 140.569 173.6 141.13 178.815C155.156 155.994 150.535 128.79 150.484 128.503L150.161 126.686L151.99 126.929C152.943 127.056 157.306 128.324 158.016 140.775C165.969 125.382 156.736 108.82 156.633 108.641L155.517 106.683L157.771 106.623C158.383 106.608 161.036 106.866 164.075 112.151C164.136 101.115 156.447 95.1911 156.077 94.9123L152.534 92.2497L156.957 92.4853C157.173 92.4971 161.225 92.7666 164.636 96.5189C163.608 77.7988 150.236 72.6813 150.091 72.628L147.494 71.6788L149.841 70.2162C150.021 70.1035 153.813 67.8409 160.754 71.2967C154.381 55.4425 140.088 48.6022 139.934 48.531L137.635 47.4556L139.811 46.1506C139.952 46.0659 142.656 44.4871 146.685 44.8727C135.326 29.2372 119.176 32.4344 119.005 32.47L115.343 33.2446L117.669 30.3117C117.809 30.1337 120.81 26.4322 127.254 24.734C119.203 19.5047 107.53 22.6824 107.401 22.718L105.754 23.1799L105.689 21.4707C105.681 21.2893 105.617 17.648 111.046 14.9829C98.485 11.9517 88.7856 23.2832 88.6813 23.4087L87.9644 24.2629L86.9908 23.7205C86.8086 23.6189 85.1934 22.6587 84.6027 20.2623C84.1494 18.4217 84.4248 16.2828 85.4214 13.8745C72.6128 21.319 73.3661 27.0093 73.378 27.0695L73.8873 29.5024L71.5704 28.6041C71.3899 28.5338 69.7824 27.8525 68.9519 25.4933C68.2215 23.4231 68.3045 20.719 69.196 17.4268C62.7582 21.9766 61.6651 28.4118 61.6159 28.7194L61.238 31.1057L59.4042 29.5372C59.2737 29.4253 56.7492 27.2059 55.09 21.9427C53.1994 27.4279 54.0147 30.1007 54.0248 30.132L56.6493 38.229L51.6563 31.3608C51.6232 31.3167 48.7802 27.4991 44.5592 26.3916C46.6091 30.0464 47.6421 35.4707 47.7828 36.2486L48.3251 39.2417L45.7422 37.6342C45.7024 37.6087 42.1382 35.4555 37.7495 35.7038C40.2205 38.6036 41.1027 42.1712 41.1484 42.3585L41.4645 43.6762L40.1459 43.9872C39.6578 44.1033 29.2152 46.7379 24.7078 58.1516C30.6838 54.5705 35.9733 56.8805 36.236 56.9992L38.1105 57.8483L36.5851 59.2287C36.5131 59.2939 30.2931 65.0284 26.9475 74.3592C28.3034 73.4287 29.622 72.9804 30.8838 73.0245C33.1268 73.1008 34.2658 74.6668 34.3886 74.8447L35.014 75.7557L34.2446 76.548C34.1988 76.5972 29.6194 81.5944 30.9185 92.5887C33.6777 89.3541 37.4291 89.0787 37.6308 89.066L40.9408 88.8618L38.7138 91.3184C38.5299 91.5243 34.542 96.1351 36.1741 104.202C38.5359 101.72 41.1111 100.383 43.8542 100.222C47.9252 99.9823 51.047 102.457 52.0842 103.409C68.5045 105.584 86.1196 119.652 104.449 145.229C117.156 162.962 125.841 180.422 127.08 182.96ZM123.918 197.403L125.168 193.634C127.36 187.032 125.608 185.251 125.361 185.04L124.892 184.861L124.797 184.436C124.709 184.25 115.778 165.666 102.233 146.77C89.8364 129.477 70.9391 108.372 51.3097 106.031L50.8225 105.973L50.4886 105.617C50.4106 105.536 47.6209 102.685 43.9906 102.917C41.4103 103.078 38.9299 104.745 36.6199 107.871L35.0581 109.985L34.2505 107.484C32.1337 100.92 33.2853 95.9393 34.6369 92.9031C33.4573 93.6572 32.2252 94.9063 31.4761 96.9664L29.8745 101.373L28.8889 96.7893C26.3704 85.0823 29.6728 78.3751 31.393 75.8396C31.21 75.771 30.9948 75.7244 30.7473 75.721C29.8931 75.7142 28.0924 76.2108 25.3307 79.6945L21.78 84.1739L22.952 78.5793C24.9815 68.901 30.3363 61.9845 33.093 58.944C30.8253 58.6457 26.9747 58.9304 23.1113 62.8488L19.792 66.2156L20.8343 61.6048C23.935 47.8827 34.3319 43.0949 38.1367 41.7788C37.5622 40.2162 36.2995 37.5113 34.0505 35.9376L31.7252 34.3098L34.4556 33.5335C38.4748 32.3904 42.1865 33.2327 44.5499 34.1115C43.7127 30.832 42.3187 26.9763 40.7654 25.8729L37.7257 23.7121L41.4442 23.4273C45.6202 23.1053 49.0107 25.1433 51.1852 26.9941C51.3834 24.6823 52.1351 21.363 54.2273 16.9718L56.09 13.0618L56.7772 17.337C57.4195 21.3334 58.6839 24.007 59.6914 25.6026C60.8888 22.2842 63.8802 16.6896 71.0171 13.2355L74.1017 11.7424L72.8636 14.9371C71.1323 19.403 70.973 22.1401 71.2883 23.7866C72.617 20.3885 76.6159 15.1176 88.139 9.34676L92.6099 7.10873L89.8728 11.2924C87.0958 15.5371 86.8874 18.1124 87.2018 19.525C87.3009 19.9733 87.4585 20.3275 87.6246 20.6004C90.9558 17.2709 102.142 7.70023 115.583 13.6973L118.993 15.2185L115.398 16.2277C111.939 17.198 110.187 18.4996 109.299 19.5538C114.111 18.7225 124.44 17.9302 131.305 24.5137L133.317 26.4441L130.554 26.8238C127.205 27.2856 124.677 28.3932 122.913 29.4651C124.846 29.4711 127.288 29.6634 130.006 30.3041C135.945 31.7048 144.377 35.6012 150.813 46.215L152.779 49.458L149.206 48.1861C147.081 47.4285 145.243 47.4124 143.865 47.6226C149.057 50.7885 160.021 58.9965 164.537 73.933L165.634 77.5624L162.491 75.4422C159.234 73.2449 156.674 72.411 154.826 72.1678C156.282 73.1576 158.002 74.549 159.698 76.4421C163.514 80.708 167.939 88.4499 167.343 101.119L167.082 106.66L164.769 101.617C164.213 100.405 163.566 99.4205 162.886 98.6205C165.521 102.759 167.853 109.042 166.252 117.335L165.381 121.849L163.675 117.58C162.913 115.673 162.173 114.205 161.489 113.076C162.164 115.008 162.839 117.347 163.314 119.969C165.092 129.756 163.202 138.812 157.849 146.16L155.356 149.584L155.409 145.348C155.5 138.322 154.605 134.407 153.654 132.236C153.947 135.571 154.174 140.671 153.711 146.767C152.956 156.71 150.123 171.242 140.922 183.989L138.076 187.932L138.484 183.085C138.668 180.909 138.501 179.013 138.184 177.436C137.332 182.678 134.741 190.075 127.205 195.177L123.918 197.403Z" fill="#040606"/>
<path d="M43.4218 89.7592C43.4218 89.7592 33.8088 90.9575 34.2105 76.11C34.6113 61.2617 47.5843 62.4659 50.796 67.5486C54.0077 72.6322 43.4218 89.7592 43.4218 89.7592Z" fill="#F7BF7F"/>
<path d="M43.6278 65.4412C42.9567 65.4412 42.2745 65.5259 41.6034 65.7089C37.8595 66.7385 35.713 70.4451 35.5588 76.1465C35.424 81.1225 36.4799 84.7892 38.6128 86.7526C40.1001 88.1221 41.7728 88.3924 42.6524 88.4305C46.781 81.5894 51.5011 71.1917 49.6546 68.2698C48.6682 66.708 46.2327 65.4412 43.6278 65.4412ZM42.9304 91.1304C41.7339 91.1304 39.1247 90.8617 36.8341 88.783C34.0385 86.2467 32.7013 81.9707 32.8615 76.0736C33.125 66.2894 38.5629 63.7472 40.8882 63.1074C45.0438 61.9651 49.897 63.5997 51.9367 66.8284C55.4221 72.3459 46.4107 87.4899 44.5693 90.4685L44.2295 91.0194L43.588 91.0982C43.5515 91.1033 43.3134 91.1304 42.9304 91.1304Z" fill="#040606"/>
<path d="M44.4741 81.9715C44.4741 81.9715 49.9857 71.7374 42.5039 72.9C33.318 74.3262 40.4972 87.2568 40.4972 87.2568C40.4972 87.2568 40.9607 81.3673 44.4741 81.9715Z" fill="#C6424F"/>
<path d="M39.8474 86.9941C38.8525 84.7536 38.0458 82.4571 37.5806 80.0056C37.362 78.7785 37.2255 77.5091 37.3933 76.171C37.4823 75.5058 37.6568 74.8143 38.0111 74.1525C38.3543 73.4898 38.9254 72.8839 39.605 72.4949C40.2864 72.1 41.0312 71.9212 41.7363 71.8509C42.4523 71.7941 43.1015 71.8094 43.8057 71.9119C44.4997 72.0145 45.2412 72.2246 45.9445 72.667C46.6487 73.1009 47.2563 73.8313 47.5554 74.6219C47.869 75.4134 47.9317 76.2032 47.908 76.9311C47.8791 77.6624 47.7554 78.3472 47.5893 79.0031C47.4207 79.6581 47.2089 80.2861 46.9656 80.8953C46.7148 81.5156 46.4674 82.0732 46.1182 82.7122C45.7022 83.4748 44.7463 83.7553 43.9836 83.3393C43.2201 82.9232 42.9387 81.9673 43.3557 81.2046L43.4243 81.0911L43.4353 81.0733C43.698 80.6784 43.9895 80.1598 44.2268 79.6827C44.47 79.1946 44.6836 78.6963 44.8564 78.1997C45.2022 77.2176 45.3632 76.1862 45.1564 75.4948C45.0564 75.1499 44.887 74.888 44.5912 74.6558C44.2963 74.4262 43.8752 74.2415 43.3913 74.1305C42.9133 74.0152 42.354 73.9576 41.8727 73.9618C41.3829 73.972 40.9262 74.0559 40.5491 74.2372C39.7932 74.5736 39.2932 75.4041 39.0839 76.4524C38.8686 77.4921 38.8898 78.6505 39.011 79.7962C39.2678 82.0978 39.8906 84.4248 40.6838 86.6391L40.6906 86.656C40.7753 86.8933 40.6524 87.1526 40.416 87.2373C40.1906 87.3178 39.9432 87.2094 39.8474 86.9941Z" fill="#040606"/>
<path d="M38.3033 162.267C33.4798 162.114 31.6426 169.845 31.413 175.204C31.1825 180.563 39.3744 181.329 42.2835 181.175C44.1216 182.751 52.6186 181.992 52.6186 181.992L56.2082 164.486C56.2082 164.486 56.7819 161.999 50.8653 161.408L52.4279 161.327C52.4279 161.327 50.8576 155.798 47.2214 155.605C43.5852 155.415 37.805 162.075 37.805 162.075L38.3033 162.267Z" fill="#F7BF7F"/>
<path d="M41.8933 168.305C41.9967 167.421 42.1865 166.66 42.4577 165.865C42.728 165.083 43.0848 164.319 43.5559 163.604C44.0245 162.89 44.6186 162.229 45.3312 161.697C46.0456 161.168 46.8727 160.772 47.7328 160.558C48.5904 160.342 49.4751 160.292 50.3157 160.343L51.5139 160.446C51.9173 160.509 52.3181 160.547 52.724 160.631C53.5342 160.786 54.3587 161.011 55.1849 161.417C55.3908 161.526 55.5968 161.627 55.7993 161.779C55.9001 161.851 56.0018 161.916 56.1018 161.996L56.3933 162.261C56.7704 162.636 57.1213 163.136 57.2679 163.774C57.3051 163.933 57.3246 164.098 57.3297 164.278C57.3314 164.365 57.3306 164.457 57.317 164.568L57.3051 164.661L57.2899 164.741L57.2763 164.812L57.1687 165.374L56.9535 166.501L56.523 168.752L55.662 173.257L53.9401 182.263C53.8274 182.854 53.3393 183.278 52.7698 183.334L52.7384 183.336L52.7367 183.337C51.8207 183.412 50.9428 183.461 50.042 183.493C49.1471 183.523 48.2472 183.534 47.3396 183.513C46.4312 183.492 45.5151 183.442 44.5694 183.315C44.0949 183.248 43.6118 183.164 43.1025 183.023C42.5924 182.867 42.0484 182.712 41.4052 182.2L42.3543 182.523C40.7111 182.589 39.1655 182.455 37.5876 182.158C36.0233 181.848 34.4369 181.384 32.9438 180.429C32.2032 179.955 31.4964 179.313 30.9541 178.5C30.4219 177.678 30.1075 176.683 30.0668 175.729C30.066 175.502 30.0584 175.232 30.0694 175.042L30.1024 174.459C30.1279 174.071 30.1592 173.684 30.1999 173.298C30.2787 172.526 30.3846 171.756 30.5211 170.989C30.7956 169.456 31.1795 167.928 31.7778 166.427C32.3879 164.942 33.1794 163.414 34.6267 162.207C35.3437 161.611 36.2741 161.154 37.2554 160.992C37.5003 160.962 37.7469 160.92 37.991 160.923L38.3545 160.918L38.6477 160.932C39.0367 160.947 39.429 160.97 39.8239 161.007C40.6129 161.08 41.4094 161.184 42.2314 161.388C42.6416 161.485 43.0619 161.62 43.4958 161.798C43.7135 161.892 43.9339 161.997 44.1694 162.142C44.2838 162.209 44.4084 162.297 44.5321 162.392L44.7364 162.57C44.8236 162.665 44.8499 162.662 45.0346 162.93C45.4304 163.561 45.238 164.394 44.6058 164.788C43.9737 165.184 43.1415 164.992 42.7466 164.36C42.878 164.551 42.839 164.48 42.861 164.511L42.8543 164.505L42.7568 164.441C42.6754 164.391 42.5594 164.334 42.4365 164.281C42.1814 164.179 41.8941 164.079 41.5789 164.007C40.9569 163.852 40.2739 163.758 39.5824 163.695C39.2367 163.663 38.8867 163.641 38.5325 163.628L38.2681 163.616L38.074 163.619C37.9444 163.613 37.8232 163.644 37.6995 163.653C37.2139 163.74 36.7571 163.947 36.3292 164.3C35.4648 165.002 34.7827 166.178 34.2827 167.432C33.7776 168.695 33.4268 170.068 33.1777 171.461C33.054 172.159 32.9565 172.865 32.8845 173.572C32.8472 173.926 32.8184 174.281 32.7955 174.635L32.7658 175.165C32.7557 175.347 32.7675 175.449 32.7624 175.595C32.7896 176.128 32.9455 176.595 33.215 177.026C33.5031 177.449 33.9056 177.843 34.4174 178.169C35.4369 178.829 36.7529 179.249 38.0986 179.508C39.4426 179.766 40.8823 179.884 42.2119 179.828L42.2687 179.825C42.6102 179.812 42.928 179.938 43.161 180.151C43.2042 180.191 43.5017 180.341 43.8288 180.424C44.1635 180.517 44.5448 180.587 44.9363 180.641C45.7253 180.748 46.5608 180.796 47.4015 180.815C48.2438 180.835 49.0963 180.824 49.9496 180.796C50.7987 180.766 51.669 180.717 52.4978 180.649L52.4986 180.648L51.297 181.722L53.2605 172.748L54.2426 168.262L54.7332 166.019L54.979 164.896L55.1019 164.336L55.118 164.266L55.1205 164.251L55.1163 164.276L55.112 164.298V164.302L55.1061 164.237C55.0858 164.124 55.0027 163.962 54.8451 163.796L54.7171 163.669L54.5553 163.549C54.4562 163.464 54.318 163.396 54.1884 163.322C53.6486 163.038 52.9935 162.824 52.3063 162.677C51.9656 162.596 51.6038 162.553 51.2538 162.487L50.1691 162.366C49.4844 162.306 48.8243 162.331 48.1929 162.469C47.5633 162.609 46.9786 162.873 46.4524 163.236C45.9295 163.606 45.4685 164.084 45.083 164.638C44.6965 165.191 44.3821 165.813 44.1355 166.469C43.8898 167.114 43.6983 167.844 43.6067 168.478L43.5991 168.527C43.5313 168.998 43.0949 169.324 42.6246 169.256C42.1619 169.189 41.8399 168.766 41.8933 168.305Z" fill="#231F20"/>
<path d="M37.8047 163.425C37.4912 163.425 37.1768 163.316 36.9209 163.094C36.3582 162.605 36.298 161.753 36.7861 161.191C37.4107 160.47 42.9281 154.254 47.0796 154.254L47.2923 154.259C51.8395 154.499 53.6504 160.695 53.725 160.959C53.9284 161.676 53.5123 162.422 52.7954 162.625C52.081 162.83 51.3336 162.414 51.1285 161.696C51.1167 161.652 49.732 157.089 47.1499 156.954L47.0567 156.951C44.9755 156.951 41.0121 160.439 38.8241 162.959C38.5581 163.266 38.1818 163.425 37.8047 163.425Z" fill="#231F20"/>
<path d="M81.9462 206.171L73.128 229.597L48.4015 228.64C48.4015 228.64 43.1568 226.88 43.8848 221.521C44.6118 216.161 49.2336 209.516 56.2103 208.011C56.8357 203.767 58.3339 193.597 58.3339 193.597L56.2103 187.511C56.2103 187.511 44.8711 181.851 52.608 177.187C53.3418 170.773 56.0756 160.512 60.0474 154.576C59.0805 151.51 51.2004 148.409 52.5572 140.831C53.913 133.253 80.3251 125.213 80.3251 125.213L117.99 123.3L139.177 135.606C139.177 135.606 136.555 144.549 128.019 152.852C127.678 154.92 130.695 172.219 130.695 172.219H133.148C133.148 172.219 136.883 176.515 130.946 180.893C131.078 184.54 131.563 185.157 128.165 193.597C128.784 199.855 129.55 206.171 129.55 206.171L131.471 208.011C131.471 208.011 141.323 209.383 143.264 220.18C145.205 230.975 132.462 229.001 132.462 229.001L114.259 229.597L105.301 206.171C105.301 206.171 103.204 208.621 81.9462 206.171Z" fill="#F7BF7F"/>
<path d="M56.1664 187.439C56.1664 187.439 44.8272 181.778 52.5641 177.115C53.2979 170.701 56.0325 160.44 60.0035 154.504C59.0374 151.438 51.1574 148.337 52.5132 140.759C53.8691 133.18 80.2811 125.141 80.2811 125.141L117.946 123.227L139.133 135.534C139.133 135.534 136.511 144.477 127.975 152.779C127.635 154.848 130.651 172.146 130.651 172.146H133.104C133.104 172.146 136.839 176.443 130.902 180.821C113.636 199.865 56.1664 187.439 56.1664 187.439Z" fill="#EBEBE9"/>
<path d="M57.3252 137.844C57.3252 137.844 72.854 144.345 84.7965 142.614C96.7391 140.882 103.193 140.062 103.985 139.553C104.194 140.632 108.148 139.382 102.179 144.793C97.428 149.099 70.4423 149.788 57.3252 137.844Z" fill="#C1C0B8"/>
<path d="M43.5741 95.9072C43.5741 95.9072 37.8812 104.677 42.1293 119.202C43.3064 123.227 48.523 142.592 83.971 141.922C119.419 141.254 128.99 118.488 124.421 99.0519C123.472 95.0149 120.67 84.4197 117.228 76.1744C112.167 65.7911 101.194 54.7544 77.4061 56.3137C38.6244 58.8551 43.5741 95.9072 43.5741 95.9072Z" fill="#F7BF7F"/>
<path d="M70.2791 155.034C70.2588 154.688 69.808 146.517 72.7044 141.771L74.6238 142.943C72.0968 147.084 72.5188 154.823 72.5239 154.9L70.2791 155.034Z" fill="#353436"/>
<path d="M91.104 154.756C90.9514 154.451 87.3669 147.234 89.0338 141.263L91.1997 141.867C89.7642 147.008 93.0785 153.677 93.1124 153.744L91.104 154.756Z" fill="#353436"/>
<path d="M54.4805 134.96C54.4805 134.96 59.787 141.661 79.1698 141.939C113.849 142.438 119.018 125.619 119.018 125.619C119.018 125.619 94.6494 145.042 54.4805 134.96Z" fill="#D69861"/>
<path d="M58.5243 63.2362C61.6876 61.4846 68.4288 62.2193 68.5296 63.7557C68.7203 66.6631 62.0029 64.2074 59.5979 66.4971C56.0626 69.8621 52.445 71.1604 52.0077 70.1214C51.2493 68.3181 55.5168 64.9022 58.5243 63.2362Z" fill="#FCD4AE"/>
<path d="M97.9453 139.48C97.9453 139.48 116.007 140.661 122.362 122.347C131.81 95.1174 112.112 68.3554 112.112 68.3554C112.112 68.3554 133.461 122.347 97.9453 139.48Z" fill="#D69861"/>
<path d="M44.7075 96.6386C44.6524 96.725 39.4205 105.136 43.4237 118.823L43.4669 118.973C48.8217 137.356 68.435 140.867 83.946 140.573C99.4892 140.28 111.254 135.558 117.968 126.917C123.635 119.622 125.509 109.578 123.107 99.3605C121.99 94.6065 119.236 84.4977 115.998 76.7304C111.328 67.1767 100.858 56.1273 77.4938 57.6594C66.1944 58.3992 57.6398 62.2177 52.0698 69.0071C42.9712 80.0971 44.8906 95.5751 44.9118 95.7293C44.9533 96.0471 44.8804 96.3699 44.7075 96.6386ZM82.1859 143.289C67.8977 143.289 56.9136 140.006 49.5174 133.522C43.3084 128.078 41.5416 122.012 40.8764 119.728L40.834 119.581C36.9427 106.279 41.056 97.6233 42.1814 95.6107C41.8924 92.7693 40.9442 78.3311 49.9674 67.3148C56.0306 59.9135 65.2318 55.7587 77.3175 54.9672C102.203 53.3376 113.416 65.2776 118.441 75.583L118.473 75.6542C121.785 83.5885 124.596 93.9006 125.734 98.7435C128.323 109.758 126.269 120.63 120.099 128.572C112.867 137.879 100.383 142.963 83.9968 143.272C83.3875 143.283 82.7833 143.289 82.1859 143.289Z" fill="#040606"/>
<path d="M119.019 69.6434C119.019 69.6434 124.407 60.8498 132.526 60.8498C140.424 60.8498 146.369 66.7461 147.439 71.0272C148.509 75.3075 149.178 92.2955 132.19 93.0989" fill="#F7BF7F"/>
<path d="M132.189 94.4479C131.473 94.4479 130.876 93.8844 130.842 93.1615C130.806 92.4175 131.382 91.7853 132.127 91.7506C137.181 91.5116 140.98 89.7286 143.417 86.4526C147.085 81.5172 146.829 74.149 146.13 71.3551C145.195 67.613 139.813 62.1988 132.527 62.1988C125.247 62.1988 120.22 70.2662 120.169 70.3475C119.781 70.9831 118.949 71.1831 118.314 70.7933C117.678 70.4035 117.478 69.573 117.868 68.9383C118.105 68.5527 123.753 59.4998 132.527 59.4998C141.284 59.4998 147.574 66.0046 148.749 70.7001C149.384 73.2432 150.168 81.8935 145.581 88.0618C142.64 92.0192 138.156 94.1665 132.254 94.4462L132.189 94.4479Z" fill="#040606"/>
<path d="M134.727 88.0153C138.87 87.2119 141.821 82.9325 141.955 79.6776C142.088 76.4219 140.46 70.4332 134.727 69.69C127.508 68.7528 126.929 82.308 126.929 82.308C126.929 82.308 129.983 81.9953 131.923 83.6011C133.861 85.2061 134.727 88.0153 134.727 88.0153Z" fill="#C6424F"/>
<path d="M126.688 82.2978C126.509 80.5131 126.582 78.7259 126.863 76.9362C127.142 75.1499 127.633 73.3474 128.64 71.6492C129.147 70.8077 129.812 69.9866 130.717 69.357C131.612 68.724 132.752 68.3358 133.859 68.3121C134.41 68.2926 134.961 68.3451 135.443 68.4536C135.691 68.5062 135.942 68.5409 136.187 68.6121L136.919 68.8544C137.166 68.9248 137.397 69.0426 137.631 69.1561C137.86 69.2748 138.104 69.3688 138.319 69.5129L138.965 69.9425C139.184 70.0824 139.365 70.2671 139.564 70.4298C139.761 70.5942 139.953 70.7645 140.119 70.9577C140.29 71.1459 140.47 71.328 140.63 71.5238C140.931 71.9263 141.233 72.3314 141.47 72.7661C141.967 73.6228 142.35 74.527 142.608 75.4532C142.878 76.3769 143.042 77.3226 143.095 78.281L143.114 79.0047L143.086 79.7386C143.055 79.9945 143.03 80.2529 142.988 80.5029C142.933 80.7495 142.884 80.9961 142.821 81.2376C142.556 82.1977 142.125 83.0714 141.614 83.8748C141.102 84.679 140.49 85.4094 139.793 86.045C138.423 87.3297 136.643 88.211 134.802 88.405C134.583 88.4279 134.387 88.2695 134.364 88.0508C134.345 87.8602 134.461 87.6865 134.637 87.6305L134.651 87.6254C136.232 87.1128 137.589 86.145 138.623 84.9095C139.639 83.6748 140.428 82.2147 140.705 80.725C140.738 80.5411 140.759 80.3589 140.789 80.1767L140.82 79.6411L140.802 79.0666L140.743 78.4852C140.639 77.7073 140.457 76.9353 140.217 76.1938C139.98 75.4481 139.643 74.7473 139.24 74.1135C138.843 73.4728 138.36 72.9135 137.814 72.4525C137.279 71.9746 136.648 71.6407 135.985 71.3857L135.477 71.2162C135.304 71.1636 135.12 71.145 134.943 71.106C134.574 71.023 134.25 70.9899 133.932 70.9933C133.295 71.0052 132.713 71.173 132.162 71.5128C131.607 71.8458 131.102 72.3687 130.654 72.9796C129.756 74.2126 129.103 75.7617 128.542 77.348C128.002 78.9479 127.558 80.6224 127.167 82.3181L127.164 82.3283C127.135 82.4579 127.005 82.5393 126.875 82.5096C126.771 82.485 126.699 82.3978 126.688 82.2978Z" fill="#040606"/>
<path d="M118.971 123.873L128.841 111.019V109.181L126.281 103.319L127.022 97.0512L132.024 88.5728L134.799 84.7434L136.293 69.2655L138.428 64.4166L141.6 62.8972L144.805 63.9692L146.418 68.1791L145.293 79.1268L143.72 84.8688L146.462 85.8162L150.84 81.1885L160.151 70.5654L164.767 69.5214L167.587 71.9552L166.807 77.6302L155.442 90.4668L160.065 91.0295L162.294 96.1402L159.679 103.16L158.84 109.582L153.843 115.166L148.069 117.221L145.978 117.808L138.299 134.96L118.971 123.873Z" fill="#F7BF7F"/>
<path d="M144.127 116.506C144.127 116.506 149.112 118.275 152.761 115.843C156.41 113.41 160.048 108.663 159.607 101.941C155.815 103.567 155.075 115.395 144.127 116.506Z" fill="#D69861"/>
<path d="M145.979 117.808L138.681 134.96L134.445 133.597L144.805 116.987L145.979 117.808Z" fill="#D69861"/>
<path d="M128.836 111.376L130.787 112.294L122.52 126.591L118.673 124.467L128.836 111.376Z" fill="#FCD4AE"/>
<path d="M130.788 96.1402C130.788 96.1402 134.363 91.7972 140.213 91.6819C146.061 91.5675 146.356 92.8878 145.979 93.348C145.601 93.8072 140.032 93.1175 137.448 94.3801C134.865 95.6444 130.501 97.7842 130.788 96.1402Z" fill="#FCD4AE"/>
<path d="M136.292 75.089C136.292 75.089 135.993 68.3351 138.079 65.959C140.166 63.5845 142.191 64.8683 141.962 65.2709C141.732 65.6725 138.423 65.998 138.601 71.9892C138.651 73.6196 138.123 79.5108 136.292 75.089Z" fill="#FCD4AE"/>
<path d="M149.602 83.8739C149.602 83.8739 159.019 70.7636 162.05 69.862C165.08 68.9595 166.112 71.1255 165.704 71.3432C165.295 71.5619 162.321 70.0772 159.285 75.2447C158.458 76.6523 148.8 88.5906 149.602 83.8739Z" fill="#FCD4AE"/>
<path d="M167.017 74.1703C167.017 74.1703 167.201 76.6388 165.788 78.2463C164.377 79.8547 159.956 85.8264 158.52 86.9738C157.085 88.1229 156.248 87.2992 157.672 85.8162C159.095 84.3333 164.844 77.7684 164.839 76.9735C164.836 76.1795 166.731 73.0797 167.017 74.1703Z" fill="#D69861"/>
<path d="M144.252 65.8733C144.252 65.8733 146.663 69.9214 145.79 74.1703C145.403 76.0448 143.992 82.4182 143.25 83.9503C142.508 85.4824 141.453 85.3392 142.044 83.5808C142.636 81.8233 144.388 74.4135 144.449 73.7729C144.835 69.7773 143.552 65.2632 144.252 65.8733Z" fill="#D69861"/>
<path d="M147.241 102.715C147.241 102.715 153.4 102.597 154.118 100.946C154.835 99.2934 156.652 98.7248 156.935 99.6824C157.218 100.639 153.467 105.184 151.476 105.113C149.486 105.041 146.641 105.175 147.241 102.715Z" fill="#D69861"/>
<path d="M130.322 111.289C128.768 113.497 127.058 115.59 125.407 117.727L122.914 120.921L120.402 124.1C120.051 124.542 119.41 124.617 118.966 124.267C118.541 123.932 118.458 123.322 118.762 122.882L121.077 119.558L123.413 116.247C124.981 114.048 126.491 111.806 128.155 109.679C128.615 109.092 129.463 108.989 130.05 109.449C130.617 109.893 130.731 110.704 130.322 111.289Z" fill="#231F20"/>
<path d="M139.259 135.76C139.081 135.76 138.899 135.724 138.725 135.649C138.04 135.353 137.725 134.56 138.02 133.875L145.179 117.273C145.474 116.589 146.268 116.273 146.952 116.569C147.636 116.864 147.951 117.658 147.657 118.342L140.498 134.945C140.278 135.454 139.781 135.76 139.259 135.76Z" fill="#231F20"/>
<path d="M143.111 84.4215C143.708 81.1733 144.343 77.9006 144.802 74.6822C145.01 73.0839 145.121 71.4663 145.083 69.924C145.035 68.3978 144.742 66.8699 144.008 65.9555C143.647 65.5013 143.196 65.2073 142.62 65.0378C142.068 64.8768 141.303 64.8048 140.721 64.8751C140.12 64.9505 139.649 65.1539 139.266 65.5166C138.88 65.8776 138.566 66.4233 138.337 67.0733C138.104 67.7215 137.953 68.458 137.834 69.2333L137.664 70.4426C137.618 70.768 137.589 71.1764 137.561 71.5747L137.282 76.5363C137.182 78.2065 137.054 79.8802 136.849 81.5767C136.743 82.4275 136.625 83.2783 136.432 84.1655C136.337 84.607 136.221 85.0612 136.04 85.5587C135.992 85.6849 135.949 85.8053 135.878 85.9493L135.779 86.1553L135.642 86.3891L135.5 86.6027L135.388 86.7493L135.174 87.0196L133.573 88.9407C133.056 89.5686 132.556 90.1999 132.078 90.8431C131.121 92.1269 130.244 93.4565 129.523 94.8403C128.804 96.2233 128.234 97.6622 127.93 99.1189C127.783 99.8485 127.704 100.579 127.702 101.3C127.702 102.003 127.787 102.775 127.919 103.52C128.187 105.004 128.685 106.43 129.459 107.672C129.841 108.295 130.296 108.868 130.799 109.384C131.051 109.64 131.318 109.88 131.596 110.098C131.735 110.208 131.878 110.309 132.018 110.405L132.228 110.538L132.389 110.631L132.508 110.7C133.135 111.063 133.35 111.866 132.987 112.493C132.643 113.088 131.899 113.309 131.288 113.022C131.106 112.934 131.022 112.886 130.901 112.819C130.79 112.756 130.685 112.692 130.581 112.627C130.375 112.494 130.177 112.359 129.986 112.216C129.604 111.931 129.245 111.624 128.908 111.297C128.234 110.645 127.646 109.912 127.147 109.13C126.142 107.566 125.509 105.808 125.165 104.036C124.996 103.151 124.88 102.269 124.869 101.312C124.859 100.375 124.96 99.4477 125.142 98.5494C125.513 96.7538 126.184 95.0819 126.991 93.5218C127.8 91.96 128.758 90.511 129.779 89.1331C130.788 87.7603 131.926 86.44 132.938 85.2146L133.11 84.9969L133.186 84.896L133.214 84.8486L133.236 84.8147L133.27 84.7392L133.345 84.5562C133.445 84.2731 133.542 83.9232 133.619 83.5537C133.778 82.8198 133.89 82.0241 133.987 81.2293C134.178 79.6311 134.295 77.9947 134.409 76.3533L134.715 71.3764C134.749 70.9485 134.776 70.5282 134.847 70.0316L135.043 68.78C135.189 67.9198 135.377 67.0216 135.716 66.1114C136.053 65.2098 136.559 64.2573 137.399 63.4879C138.232 62.7083 139.378 62.2659 140.424 62.171C140.953 62.1091 141.457 62.1337 141.947 62.1795C142.423 62.2252 142.942 62.3303 143.443 62.4964C144.452 62.8193 145.436 63.5057 146.07 64.3844C146.715 65.259 147.052 66.2293 147.255 67.1538C147.45 68.0834 147.512 68.9918 147.517 69.8799C147.524 71.6586 147.269 73.3526 146.963 75.0296C146.318 78.3557 145.459 81.5555 144.534 84.7663C144.422 85.1545 144.016 85.3782 143.627 85.2672C143.263 85.1621 143.043 84.7986 143.108 84.4333L143.111 84.4215Z" fill="#231F20"/>
<path d="M141.639 83.6256C142.338 83.4493 142.978 83.4273 143.646 83.4799C144.308 83.5375 144.965 83.679 145.607 83.918C146.247 84.1578 146.871 84.501 147.414 84.9764C147.944 85.4704 148.405 86.0941 148.572 86.8373C148.654 87.205 148.424 87.5694 148.056 87.6525C147.924 87.6821 147.792 87.6711 147.673 87.6288L147.565 87.5889C146.987 87.3796 146.541 87.1923 146.072 87.0076C145.6 86.828 145.132 86.6449 144.647 86.4483L143.133 85.8797C142.62 85.6831 142.065 85.4713 141.56 85.212L141.465 85.1636C141.059 84.9552 140.898 84.4569 141.105 84.051C141.218 83.8315 141.418 83.6824 141.639 83.6256Z" fill="#231F20"/>
<path d="M145.955 98.5561C145.799 98.8519 145.65 99.0671 145.467 99.2908C145.291 99.5128 145.094 99.7137 144.883 99.9001C144.461 100.275 143.978 100.589 143.449 100.836C142.916 101.079 142.323 101.239 141.705 101.266C141.084 101.275 140.431 101.148 139.895 100.783C139.578 100.567 139.496 100.134 139.713 99.817C139.773 99.7298 139.849 99.6603 139.934 99.6095L140.059 99.5374C140.512 99.2739 140.858 99.1052 141.212 98.9146C141.563 98.7239 141.91 98.5527 142.277 98.3756L143.404 97.7977C143.788 97.6079 144.217 97.3884 144.63 97.2528L144.805 97.1952C145.31 97.0282 145.853 97.3028 146.019 97.8061C146.104 98.0638 146.072 98.3332 145.955 98.5561Z" fill="#231F20"/>
<path d="M143.714 99.3028C143.915 99.6027 144.042 99.8349 144.189 100.098C144.323 100.357 144.458 100.615 144.576 100.878C144.821 101.402 145.019 101.944 145.192 102.495C145.54 103.595 145.723 104.757 145.728 105.922C145.756 107.088 145.476 108.26 145.038 109.317C144.615 110.397 143.865 111.279 143.111 112.069C142.968 112.219 142.731 112.224 142.581 112.082C142.454 111.96 142.431 111.771 142.514 111.624L142.539 111.583L142.917 110.922C143.044 110.706 143.17 110.492 143.251 110.256L143.531 109.575C143.607 109.343 143.653 109.102 143.716 108.87C143.934 107.934 143.982 106.979 143.829 106.04C143.691 105.103 143.391 104.191 143 103.319C142.801 102.884 142.575 102.46 142.328 102.051C142.209 101.843 142.077 101.647 141.946 101.449C141.818 101.264 141.664 101.051 141.556 100.923C141.072 100.354 141.141 99.501 141.709 99.0172C142.279 98.5333 143.132 98.602 143.615 99.1714L143.709 99.2943L143.714 99.3028Z" fill="#231F20"/>
<path d="M146.197 84.7053C148.889 81.447 151.558 78.1878 154.335 74.9761C154.684 74.5728 155.029 74.1745 155.399 73.7652L155.92 73.1906L156.423 72.6093C157.107 71.8119 157.822 70.9662 158.672 70.1772C159.519 69.3976 160.536 68.6358 161.84 68.2443C162.487 68.0528 163.199 67.9876 163.884 68.063C164.57 68.1367 165.217 68.3469 165.793 68.6257C166.362 68.9053 166.899 69.2442 167.399 69.6917C167.894 70.1374 168.324 70.6967 168.623 71.3196C169.229 72.5831 169.24 73.966 169.015 75.1532C168.791 76.3549 168.302 77.4972 167.641 78.4903C167.323 78.9827 166.906 79.47 166.555 79.8555L165.514 81.0427C162.74 84.2163 159.946 87.3712 157.118 90.4981C156.784 90.8685 156.212 90.8973 155.843 90.5634C155.486 90.2405 155.448 89.6948 155.747 89.3253C158.407 86.0442 161.1 82.7893 163.815 79.5522L164.831 78.3378C165.18 77.9344 165.44 77.6082 165.694 77.2133C166.191 76.4447 166.534 75.6032 166.686 74.727C166.838 73.8542 166.783 73.0195 166.456 72.3704C166.292 72.0441 166.067 71.7526 165.775 71.4967C165.485 71.2441 165.121 71.0162 164.742 70.8357C163.986 70.4815 163.267 70.4095 162.545 70.6298C161.82 70.8543 161.082 71.3687 160.397 72.0246C159.706 72.6797 159.061 73.4533 158.384 74.266L157.86 74.8871L157.326 75.4914C156.994 75.8693 156.654 76.2718 156.318 76.6701C153.633 79.8919 150.948 83.1536 148.285 86.4153L148.282 86.4187C147.81 86.9958 146.96 87.0814 146.384 86.6102C145.806 86.1391 145.721 85.2891 146.192 84.7112L146.197 84.7053Z" fill="#231F20"/>
<path d="M130.062 96.0818C130.772 94.9013 131.702 93.9903 132.738 93.1582C133.782 92.3489 134.934 91.6659 136.161 91.1549C136.771 90.8905 137.399 90.671 138.035 90.4795C138.675 90.3041 139.32 90.1414 139.973 90.0304C141.277 89.7812 142.603 89.7041 143.919 89.7075L144.904 89.7321L145.868 89.8007C146.512 89.8558 147.156 89.9151 147.803 90.0075C149.095 90.1829 150.394 90.4355 151.693 90.8456C152.982 91.2803 154.301 91.8523 155.467 92.915C156.036 93.4531 156.567 94.1259 156.878 94.9513C157.033 95.3606 157.137 95.7979 157.169 96.2478C157.187 96.4716 157.185 96.6986 157.164 96.9283C157.156 97.0435 157.14 97.1613 157.119 97.28L157.081 97.4672C157.063 97.541 157.057 97.5766 157.013 97.7138L157.047 97.596C156.976 97.863 156.92 98.0147 156.85 98.2121C156.782 98.3985 156.708 98.5791 156.631 98.757C156.473 99.1121 156.295 99.4578 156.095 99.7934C155.692 100.462 155.205 101.098 154.607 101.646C154.013 102.195 153.307 102.649 152.546 102.96C151.787 103.278 150.977 103.436 150.188 103.482C148.789 103.536 147.327 103.511 145.845 103.106C145.113 102.899 144.393 102.593 143.745 102.197C143.098 101.798 142.521 101.322 142.004 100.816C141.63 100.452 141.624 99.8518 141.988 99.4781C142.331 99.1273 142.88 99.1002 143.255 99.3994L143.267 99.4095C144.228 100.183 145.256 100.72 146.384 100.939C147.506 101.175 148.755 101.136 150.016 101.022C151.105 100.92 152.059 100.483 152.807 99.7366C153.187 99.3722 153.513 98.929 153.787 98.446C153.924 98.2045 154.048 97.952 154.154 97.6944C154.207 97.5647 154.258 97.4342 154.301 97.3054C154.341 97.1876 154.391 97.0224 154.404 96.9639L154.437 96.8469L154.427 96.8673L154.435 96.8249L154.444 96.7114C154.448 96.6317 154.448 96.5453 154.438 96.4597C154.421 96.286 154.381 96.1105 154.313 95.9385C154.184 95.5919 153.926 95.2538 153.593 94.9394C153.249 94.6276 152.823 94.3479 152.354 94.1056C151.879 93.8641 151.36 93.6692 150.829 93.4819C148.673 92.7768 146.217 92.5048 143.851 92.3667C141.497 92.2692 139.144 92.5006 136.901 93.1743C135.784 93.5175 134.691 93.959 133.659 94.5352C132.634 95.0979 131.622 95.8072 130.803 96.6029L130.766 96.6393C130.586 96.8147 130.3 96.8105 130.125 96.6309C129.979 96.48 129.958 96.2529 130.062 96.0818Z" fill="#231F20"/>
<path d="M159.607 103.29C159.242 103.29 158.877 103.142 158.61 102.852C158.108 102.302 158.147 101.448 158.695 100.946C160.22 99.5502 161.037 97.7147 160.936 95.9097C160.856 94.4886 160.221 93.2768 159.148 92.4964C156.327 90.4448 153.039 92.9336 152.9 93.0412C152.312 93.4954 151.465 93.3904 151.008 92.8031C150.551 92.2175 150.653 91.3744 151.238 90.9151C151.44 90.7558 156.255 87.056 160.735 90.3143C162.451 91.5608 163.506 93.5454 163.63 95.758C163.777 98.3757 162.642 100.992 160.517 102.936C160.259 103.173 159.932 103.29 159.607 103.29Z" fill="#231F20"/>
<path d="M148.121 102.868L148.1 102.98L148.086 103.146C148.077 103.261 148.076 103.379 148.08 103.496C148.086 103.731 148.112 103.965 148.16 104.189C148.257 104.638 148.435 105.046 148.707 105.392C148.977 105.738 149.345 106.029 149.797 106.243C150.25 106.458 150.777 106.614 151.258 106.646C151.747 106.684 152.235 106.608 152.712 106.408C153.19 106.209 153.647 105.89 154.073 105.513C154.919 104.743 155.639 103.756 156.261 102.711C156.37 102.528 156.607 102.467 156.791 102.575C156.961 102.676 157.025 102.888 156.949 103.064C156.442 104.221 155.833 105.358 154.966 106.382C154.524 106.885 154.012 107.364 153.384 107.729C152.76 108.095 152.013 108.324 151.264 108.363C150.505 108.406 149.802 108.289 149.097 108.071C148.391 107.849 147.685 107.462 147.104 106.906C146.52 106.352 146.087 105.646 145.819 104.913C145.683 104.547 145.585 104.17 145.521 103.791C145.489 103.6 145.465 103.409 145.449 103.214C145.442 103.116 145.437 103.017 145.433 102.916C145.432 102.804 145.428 102.731 145.438 102.564C145.523 101.824 146.192 101.292 146.931 101.375C147.672 101.459 148.204 102.127 148.121 102.868Z" fill="#231F20"/>
<path d="M144.319 115.56C144.464 115.643 144.709 115.759 144.921 115.842C145.142 115.929 145.369 116.007 145.601 116.072C146.066 116.202 146.542 116.288 147.023 116.33C147.984 116.408 148.956 116.31 149.887 116.043C150.819 115.78 151.712 115.36 152.545 114.828C152.757 114.704 152.955 114.55 153.161 114.413L153.76 113.957C154.113 113.671 154.477 113.317 154.809 112.957C156.153 111.501 157.184 109.751 157.766 107.883C158.356 106.013 158.506 104.027 158.263 102.074C158.172 101.334 158.697 100.659 159.436 100.567C160.176 100.476 160.85 101 160.942 101.74L160.947 101.794L160.949 101.809C161.132 104.112 160.846 106.482 160.047 108.663C159.252 110.85 157.963 112.82 156.331 114.438C155.918 114.844 155.498 115.221 155.003 115.589L154.301 116.074C154.055 116.224 153.821 116.387 153.565 116.524C152.569 117.1 151.484 117.555 150.342 117.823C149.202 118.096 148.006 118.163 146.839 118.014C146.256 117.938 145.68 117.808 145.121 117.624C144.841 117.531 144.567 117.424 144.296 117.302C144.016 117.173 143.778 117.057 143.467 116.858C143.107 116.626 143.002 116.147 143.234 115.787C143.458 115.437 143.913 115.328 144.269 115.531L144.319 115.56Z" fill="#231F20"/>
<path d="M102.436 143.216L102.586 142.438L103.557 140.739C106.946 134.805 111.244 129.438 116.293 124.832L117.973 123.3C117.973 123.3 138.069 132.907 139.16 135.606C137.449 139.792 128.734 152.042 128.734 152.042C128.734 152.042 116.643 164.342 107.058 156.46C103.186 153.274 101.489 148.141 102.436 143.216Z" fill="#EBEBE9"/>
<path d="M124.926 145.95C124.926 145.95 128.967 176.767 114.538 181C125.231 177.624 131.471 173.694 131.471 173.694L124.926 145.95Z" fill="#C1C0B8"/>
<path d="M62.9041 183.342H62.8957C60.6958 183.328 53.3987 183.042 51.9268 179.913C49.8362 175.471 52.3641 166.24 59.2374 153.216C59.5848 152.556 60.3992 152.305 61.0602 152.652C61.7195 153 61.9711 153.816 61.6237 154.475C52.709 171.368 53.5801 177.088 54.369 178.764C54.8622 179.813 59.2865 180.621 62.9126 180.643C63.6583 180.647 64.2583 181.256 64.2541 182.001C64.249 182.743 63.6456 183.342 62.9041 183.342Z" fill="#231F20"/>
<path d="M56.31 137.644C56.2126 137.727 56.0346 137.885 55.8939 138.019C55.7456 138.16 55.5965 138.305 55.4609 138.459C55.1779 138.761 54.9381 139.092 54.6965 139.415C54.2406 140.078 53.9373 140.797 53.7813 141.52C53.6381 142.246 53.6457 142.993 53.8423 143.747C54.0525 144.54 54.3898 145.338 54.8101 146.109C55.6829 147.644 56.8803 149.059 58.2057 150.35C59.5547 151.61 61.0369 152.801 62.6444 153.671L62.6613 153.68C62.9978 153.862 63.1232 154.284 62.941 154.619C62.7741 154.928 62.4063 155.059 62.0868 154.939C60.1632 154.215 58.4641 153.132 56.8693 151.891C56.0837 151.257 55.3185 150.588 54.6118 149.846C53.9161 149.092 53.2559 148.292 52.6755 147.412C52.1052 146.522 51.606 145.564 51.2493 144.505C50.9027 143.401 50.7993 142.166 51.0179 140.993C51.2205 139.815 51.7374 138.735 52.3755 137.808C52.7043 137.35 53.0568 136.913 53.4568 136.528C53.65 136.329 53.8559 136.145 54.0678 135.962C54.1737 135.87 54.2805 135.782 54.3966 135.696C54.516 135.606 54.6135 135.534 54.777 135.423C55.3923 135.005 56.2295 135.165 56.6473 135.781C57.0371 136.356 56.9235 137.123 56.4066 137.562L56.31 137.644Z" fill="#231F20"/>
<path d="M138.269 134.577C138.269 134.577 140.028 135.067 138.654 138.276C136.593 143.092 130.802 151.452 128.019 152.852C125.792 148.058 124.73 145.57 124.73 145.57C124.73 145.57 128.572 150.023 138.269 134.577Z" fill="#C1C0B8"/>
<path d="M130.944 175.46C130.273 175.46 129.691 174.96 129.607 174.278C128.804 167.831 126.101 150.143 123.286 145.772C122.883 145.146 123.063 144.31 123.691 143.907C124.318 143.504 125.152 143.685 125.556 144.311C129.277 150.091 132.163 172.973 132.284 173.944C132.377 174.684 131.852 175.358 131.112 175.449L130.944 175.46Z" fill="#231F20"/>
<path d="M127.362 154.91C127.032 154.91 126.7 154.789 126.44 154.545C125.896 154.035 125.869 153.181 126.377 152.638C134.255 144.232 136.887 138.149 137.618 136.077C135.51 134.407 128.577 129.251 118.218 124.858C106.381 134.711 103.938 144.266 103.914 144.363C103.738 145.086 103.012 145.533 102.286 145.356C101.563 145.182 101.118 144.456 101.29 143.733C101.395 143.296 103.997 132.906 117.14 122.251C117.525 121.94 118.048 121.863 118.506 122.053C131.875 127.584 139.73 134.302 140.059 134.585C140.436 134.911 140.603 135.419 140.493 135.905C140.423 136.208 138.684 143.451 128.348 154.483C128.082 154.767 127.722 154.91 127.362 154.91Z" fill="#231F20"/>
<path d="M57.2646 45.3771C57.2646 45.3771 65.8844 21.6123 93.4574 28.7907C86.3612 31.3236 83.841 34.6946 83.841 34.6946C83.841 34.6946 111.321 20.7251 124.308 61.8032C113.393 52.7749 96.8479 52.1377 94.854 53.213C102.189 55.2002 104.92 61.9515 104.92 61.9515C104.92 61.9515 97.5767 56.9459 89.6526 57.184C79.4633 57.4899 75.4144 65.5768 75.4144 65.5768C75.4144 65.5768 63.3286 55.1486 56.5841 63.0329C56.5841 63.0329 45.7339 52.1733 52.5742 34.5454C54.4656 39.374 59.0365 41.1298 59.0365 41.1298" fill="#3A1E19"/>
<path d="M42.2969 114.276C42.2969 114.276 51.2193 124.045 64.3338 127.031C75.495 132.658 85.6004 129.577 85.6004 129.577C85.6004 129.577 95.5295 127.699 96.404 122.888C93.2593 122.878 74.4298 122.228 74.4298 122.228L42.2969 114.276Z" fill="#D69861"/>
<path d="M75.477 67.6689L74.1745 66.6326C74.0787 66.5563 64.392 59.0084 57.1797 64.1937C56.5738 64.6293 55.7306 64.4903 55.2967 63.8861C54.862 63.281 54.9993 62.4379 55.6052 62.0023C62.8514 56.7941 71.4602 61.5269 74.6236 63.6378C76.3371 61.1549 80.8436 56.0865 89.2143 55.8348C97.4833 55.5823 105.34 60.7846 105.671 61.0066C106.29 61.421 106.457 62.2582 106.04 62.8785C105.626 63.4971 104.79 63.6624 104.169 63.2488C104.069 63.1819 96.6749 58.3211 89.2957 58.5321C80.0174 58.8118 76.2583 66.1072 76.2218 66.1809L75.477 67.6689Z" fill="#040606"/>
<path d="M61.7393 121.643C61.7393 121.643 65.7924 127.951 80.2959 128.695C94.8001 129.44 98.5796 119.553 98.5796 119.553C98.5796 119.553 86.2743 125.173 61.7393 121.643Z" fill="#CF616D"/>
<path d="M63.9912 122.774C66.2148 124.596 71.0874 127.4 80.3386 127.875C90.2067 128.382 94.892 123.771 96.7648 121.093C92.4226 122.476 81.5521 124.961 63.9912 122.774ZM81.8131 129.556C81.3072 129.556 80.7877 129.543 80.2547 129.515C65.4987 128.759 61.2236 122.359 61.049 122.088L60.0762 120.574L61.8566 120.83C85.8747 124.285 98.1181 118.86 98.2384 118.806L100.064 117.972L99.3468 119.846C99.3087 119.946 95.4699 129.555 81.8131 129.556Z" fill="#231F20"/>
<path d="M106.271 87.7364C106.271 94.2911 100.956 99.6044 94.4009 99.6044C87.8462 99.6044 82.5312 94.2911 82.5312 87.7364C82.5312 81.18 87.8462 75.8667 94.4009 75.8667C100.956 75.8667 106.271 81.18 106.271 87.7364Z" fill="#D69861"/>
<path d="M72.0322 87.9941C72.0322 93.5243 67.5494 98.0071 62.0209 98.0071C56.4916 98.0071 52.0088 93.5243 52.0088 87.9941C52.0088 82.4647 56.4916 77.9828 62.0209 77.9828C67.5494 77.9828 72.0322 82.4647 72.0322 87.9941Z" fill="#D69861"/>
<path d="M104.713 86.3628C104.713 92.6785 99.5925 97.7986 93.2767 97.7986C86.961 97.7986 81.8418 92.6785 81.8418 86.3628C81.8418 80.0462 86.961 74.927 93.2767 74.927C99.5925 74.927 104.713 80.0462 104.713 86.3628Z" fill="white"/>
<path d="M70.6076 86.6264C70.6076 91.9541 66.2892 96.2733 60.9615 96.2733C55.6347 96.2733 51.3154 91.9541 51.3154 86.6264C51.3154 81.2996 55.6347 76.9803 60.9615 76.9803C66.2892 76.9803 70.6076 81.2996 70.6076 86.6264Z" fill="white"/>
<path d="M97.1277 88.5474C95.5413 88.5474 94.255 87.2611 94.255 85.6747C94.255 85.4357 94.2872 85.2036 94.3431 84.9824C91.9187 85.1409 90.001 87.1518 90.001 89.6152C90.001 92.1837 92.0822 94.2657 94.6499 94.2657C97.2175 94.2657 99.2996 92.1837 99.2996 89.6152C99.2996 89.0033 99.1784 88.4195 98.9632 87.8831C98.4649 88.2983 97.8251 88.5474 97.1277 88.5474Z" fill="#040606"/>
<path d="M66.3567 88.6771C64.8865 88.6771 63.6662 87.6102 63.423 86.2095C61.7078 86.6196 60.4316 88.1593 60.4316 89.9999C60.4316 92.1549 62.179 93.9022 64.334 93.9022C66.4889 93.9022 68.2354 92.1549 68.2354 89.9999C68.2354 89.383 68.0888 88.8017 67.8338 88.283C67.3982 88.5322 66.8948 88.6771 66.3567 88.6771Z" fill="#040606"/>
<path d="M118.432 125.893C112.948 129.632 108.327 135.539 108.671 137.031C109.016 138.524 118.317 137.49 121.762 133.702C125.207 129.912 125.185 127.091 118.432 125.893Z" fill="white"/>
<path d="M104.193 165.405C102.961 163.321 107.332 155.224 113.916 155.223C117.054 155.222 116.519 158.745 115.983 160.314C115.447 161.884 107.179 170.458 104.193 165.405Z" fill="white"/>
<path d="M101.395 116.814C95.7763 128.05 71.593 125.889 67.4313 124.988C47.7519 120.725 35.9043 108.879 35.9043 108.879L36.9466 102.782" fill="#F7BF7F"/>
<path d="M102.602 117.417C101.822 118.942 100.705 120.268 99.4311 121.329C98.1566 122.397 96.7372 123.221 95.2788 123.88C92.3519 125.196 89.2724 125.894 86.2048 126.316C83.1312 126.744 80.0475 126.863 76.9765 126.82C75.4409 126.794 73.908 126.721 72.3776 126.595C70.8421 126.465 69.3244 126.308 67.7711 126.027C67.577 125.989 67.3702 125.948 67.1796 125.904L66.622 125.761L65.5068 125.475C64.7661 125.276 64.0162 125.109 63.2832 124.885L61.0892 124.195C60.7257 124.076 60.3562 123.973 59.9952 123.842L58.9182 123.442C58.2013 123.173 57.4801 122.916 56.7674 122.635L54.6548 121.735C53.9447 121.448 53.2591 121.107 52.5694 120.776C51.8838 120.436 51.1805 120.133 50.5127 119.759C47.7857 118.371 45.1757 116.767 42.6555 115.041C40.1404 113.297 37.7355 111.436 35.5051 109.278L35.2949 109.074L35.3475 108.784L36.4567 102.699C36.5067 102.429 36.7643 102.25 37.0355 102.299C37.3016 102.347 37.4787 102.601 37.4363 102.867L36.4593 108.973L36.3025 108.48C38.4685 110.487 40.9039 112.297 43.397 113.943C45.9053 115.584 48.4984 117.101 51.1974 118.402C51.8592 118.753 52.5541 119.036 53.2312 119.352C53.9134 119.661 54.5896 119.981 55.2904 120.246L57.3725 121.081C58.0741 121.34 58.7843 121.574 59.4893 121.823L60.5477 122.19C60.9019 122.31 61.2638 122.403 61.6214 122.512L63.7721 123.138C64.4907 123.34 65.2237 123.486 65.9491 123.663L67.0389 123.919L67.5829 124.046C67.7609 124.083 67.927 124.112 68.1049 124.144C69.5354 124.371 71.0361 124.496 72.5191 124.589C74.0071 124.678 75.4994 124.717 76.9909 124.71C79.9712 124.689 82.9516 124.506 85.8675 124.036C88.7766 123.573 91.6485 122.84 94.2238 121.612C96.7897 120.401 99.043 118.602 100.188 116.21C100.51 115.537 101.315 115.254 101.988 115.576C102.66 115.898 102.944 116.703 102.622 117.375L102.609 117.401L102.602 117.417Z" fill="#040606"/>
<path d="M87.7279 70.129C88.2728 69.8502 88.7465 69.6435 89.2668 69.4706C89.7778 69.2943 90.2947 69.1604 90.8176 69.0435C91.8641 68.8181 92.9318 68.7164 94.0089 68.7088C96.1605 68.6935 98.368 69.1139 100.454 70.0045C102.529 70.9036 104.501 72.2976 105.918 74.1542C107.344 75.9914 108.184 78.2337 108.173 80.4386C108.169 81.0242 107.693 81.4945 107.108 81.4919C106.834 81.4911 106.584 81.3852 106.396 81.2115L106.343 81.1623C104.881 79.809 103.645 78.7074 102.282 77.8786C100.959 77.021 99.5705 76.3846 98.0883 75.8245C96.6011 75.2821 95.0266 74.805 93.3539 74.3568L90.7811 73.6695L89.4448 73.2958C89.005 73.1712 88.5168 73.028 88.1059 72.8695L87.8635 72.7747C87.1161 72.4857 86.7457 71.6442 87.0347 70.8976C87.1686 70.5519 87.4228 70.2858 87.7279 70.129Z" fill="#040606"/>
<path d="M49.2887 78.4803C49.6455 77.5846 50.0955 76.8813 50.626 76.1822C51.1556 75.4957 51.764 74.8771 52.4292 74.3136C53.7571 73.1874 55.3511 72.3061 57.1197 71.7917C58.8814 71.2841 60.8423 71.1485 62.688 71.5943C64.5294 72.0247 66.2064 73.0162 67.3106 74.4314C67.6208 74.8297 67.5496 75.4051 67.1521 75.7161C66.9767 75.8525 66.7683 75.9152 66.5615 75.9093L66.4946 75.9076C64.8819 75.8576 63.5634 75.8372 62.3134 76.0398C61.0737 76.2016 59.9136 76.5245 58.7264 76.9279C57.5459 77.3533 56.3383 77.8464 55.074 78.4057L53.1233 79.2625C52.4564 79.5404 51.7437 79.8633 51.0327 80.0862L50.8353 80.1489C50.1717 80.3565 49.465 79.987 49.2566 79.3235C49.1667 79.0362 49.1862 78.7388 49.2887 78.4803Z" fill="#040606"/>
<path d="M44.4746 102.275C44.4746 102.275 72.4662 101.609 74.4297 79.6776C74.4297 79.6776 74.7653 83.9358 75.5474 88.1161C76.2008 91.6108 77.166 95.0513 78.5066 95.9012C81.4496 97.7681 90.389 103.636 90.389 103.636L68.8927 110.098C68.8927 110.098 45.2297 107.668 44.4746 102.275Z" fill="#F7BF7F"/>
<path d="M44.4432 100.926C45.2127 100.906 46.0711 100.837 46.8897 100.754C47.7159 100.664 48.5438 100.56 49.3667 100.426C51.0157 100.165 52.6504 99.8196 54.2571 99.3807C57.4662 98.5002 60.5745 97.252 63.3744 95.5258C66.1488 93.7802 68.6215 91.5438 70.3468 88.7872C72.1273 86.0628 73.0755 82.857 73.4348 79.5877L73.4373 79.5665C73.4967 79.0191 73.9899 78.6234 74.5381 78.6836C75.0796 78.742 75.4728 79.2259 75.4237 79.7657C75.1025 83.3002 74.1178 86.8687 72.19 89.938C70.3189 93.0404 67.6165 95.5631 64.6319 97.5088C61.6219 99.4358 58.3238 100.818 54.9418 101.808C53.2495 102.303 51.5318 102.697 49.7989 103.001C48.0523 103.303 46.3474 103.534 44.5068 103.625C43.7628 103.662 43.1298 103.087 43.0925 102.343C43.056 101.598 43.6297 100.965 44.3746 100.929L44.3975 100.928L44.4432 100.926Z" fill="#231F20"/>
<path d="M35.9043 108.878C35.9043 108.878 51.7958 123.251 67.8745 125.074C83.9541 126.898 97.4279 124.144 101.395 116.814C84.1838 128.276 54.1736 119.553 44.4741 108.907C45.8385 104.759 45.6749 104.485 45.5571 103.645C44.9784 103.117 37.4084 107.3 37.4084 107.3L35.9043 108.878Z" fill="#D69861"/>
<path d="M25.876 101.598C25.8794 99.1019 27.2412 96.2461 34.7975 96.141C34.7975 96.141 45.6079 95.9317 45.9223 101.283C46.2375 106.635 38.471 111.255 35.9 111.149C33.3281 111.044 25.8692 107.318 25.876 101.598Z" fill="#040606"/>
<path d="M34.5179 98.8714C34.6654 99.5756 33.2163 100.474 31.2825 100.879C29.3479 101.284 27.6607 101.042 27.5133 100.338C27.3658 99.6349 28.8149 98.7358 30.7495 98.3315C32.6833 97.9265 34.3705 98.168 34.5179 98.8714Z" fill="white"/>
<path d="M102.602 117.417C101.822 118.942 100.705 120.268 99.4311 121.329C98.1566 122.397 96.7372 123.221 95.2788 123.88C92.3519 125.196 89.2724 125.894 86.2048 126.316C83.1312 126.744 80.0475 126.863 76.9765 126.82C75.4409 126.794 73.908 126.721 72.3776 126.595C70.8421 126.465 69.3244 126.308 67.7711 126.027C67.577 125.989 67.3702 125.948 67.1796 125.904L66.622 125.761L65.5068 125.475C64.7661 125.276 64.0162 125.109 63.2832 124.885L61.0892 124.195C60.7257 124.076 60.3562 123.973 59.9952 123.842L58.9182 123.442C58.2013 123.173 57.4801 122.916 56.7674 122.635L54.6548 121.735C53.9447 121.448 53.2591 121.107 52.5694 120.776C51.8838 120.436 51.1805 120.133 50.5127 119.759C47.7857 118.371 45.1757 116.767 42.6555 115.041C40.1404 113.297 37.7355 111.436 35.5051 109.278L35.2949 109.074L35.3475 108.784L36.4567 102.699C36.5067 102.429 36.7643 102.25 37.0355 102.299C37.3016 102.347 37.4787 102.601 37.4363 102.867L36.4593 108.973L36.3025 108.48C38.4685 110.487 40.9039 112.297 43.397 113.943C45.9053 115.584 48.4984 117.101 51.1974 118.402C51.8592 118.753 52.5541 119.036 53.2312 119.352C53.9134 119.661 54.5896 119.981 55.2904 120.246L57.3725 121.081C58.0741 121.34 58.7843 121.574 59.4893 121.823L60.5477 122.19C60.9019 122.31 61.2638 122.403 61.6214 122.512L63.7721 123.138C64.4907 123.34 65.2237 123.486 65.9491 123.663L67.0389 123.919L67.5829 124.046C67.7609 124.083 67.927 124.112 68.1049 124.144C69.5354 124.371 71.0361 124.496 72.5191 124.589C74.0071 124.678 75.4994 124.717 76.9909 124.71C79.9712 124.689 82.9516 124.506 85.8675 124.036C88.7766 123.573 91.6485 122.84 94.2238 121.612C96.7897 120.401 99.043 118.602 100.188 116.21C100.51 115.537 101.315 115.254 101.988 115.576C102.66 115.898 102.944 116.703 102.622 117.375L102.609 117.401L102.602 117.417Z" fill="#040606"/>
<path d="M49.861 103.924C46.9866 104.988 50.8822 105.309 52.8727 105.003C54.8633 104.696 77.2179 100.697 75.9146 89.9117C74.9435 81.8647 73.6249 90.7362 70.6073 94.2055C63.5908 102.275 49.861 103.924 49.861 103.924Z" fill="#FCD4AE"/>
<path d="M34.5762 168.889C34.5762 168.889 35.5219 164.869 37.8048 164.486C40.0886 164.104 40.8665 164.716 40.5546 165.175C40.2419 165.635 37.8683 165.476 37.1031 166.627C36.3371 167.779 34.9592 170.305 34.5762 168.889Z" fill="#FCD4AE"/>
<path d="M45.1162 168.162C45.1162 168.162 45.2942 164.946 47.361 164.027C49.4287 163.108 51.2659 162.879 51.4955 163.645C51.7252 164.41 48.2796 163.951 47.2085 166.094C46.1365 168.238 45.5501 169.845 45.1162 168.162Z" fill="#FCD4AE"/>
<path d="M42.9115 159.98C42.9115 159.98 45.4385 157.482 46.9596 157.654C48.4807 157.827 49.2569 158.946 48.8832 159.204C48.5103 159.462 47.6485 158.113 46.8164 158.487C45.9834 158.86 42.0505 161.3 42.9115 159.98Z" fill="#FCD4AE"/>
<path d="M68.8503 155.735C68.8503 155.735 72.4102 154.24 74.4762 154.988C74.7067 158.721 75.1016 164.463 75.1016 164.463C75.1016 164.463 71.0315 165.611 67.7012 164.463C68.1605 160.903 68.8503 155.735 68.8503 155.735Z" fill="#C1C0B8"/>
<path d="M68.9415 163.64C70.8007 164.036 72.7981 163.784 73.9133 163.575C73.8022 161.954 73.5768 158.597 73.4074 155.913C72.3523 155.837 70.9168 156.184 69.8762 156.548C69.6982 157.887 69.2838 161.008 68.9415 163.64ZM71.1066 166.096C69.9008 166.096 68.5796 165.954 67.3348 165.525L66.4688 165.228L66.5866 164.319C67.0458 160.758 67.7348 155.587 67.7348 155.587L67.8204 154.948L68.4144 154.699C68.8195 154.528 72.4489 153.057 74.8581 153.931L75.553 154.182L75.5979 154.919C75.8258 158.605 76.2191 164.328 76.2224 164.386L76.2852 165.296L75.4064 165.545C75.2877 165.579 73.4073 166.096 71.1066 166.096Z" fill="#353436"/>
<path d="M89.0602 154.988C89.0602 154.988 93.5294 153.331 95.2565 154.762C95.3759 156.999 96.1903 163.544 96.1903 163.544C96.1903 163.544 91.5872 165.267 88.0264 162.855L89.0602 154.988Z" fill="#C1C0B8"/>
<path d="M89.2382 162.27C91.3144 163.347 93.7151 163.018 94.9582 162.728C94.7498 161.011 94.3269 157.419 94.1744 155.433C93.2448 155.114 91.4458 155.417 90.084 155.831L89.2382 162.27ZM92.5609 165.266C90.9534 165.266 89.0857 164.93 87.396 163.786L86.8223 163.397L88.0341 154.169L88.6696 153.934C89.517 153.619 93.8532 152.14 95.9743 153.897L96.3531 154.211L96.3794 154.702C96.4963 156.874 97.298 163.34 97.3064 163.405L97.4166 164.286L96.5844 164.597C96.4633 164.643 94.7532 165.266 92.5609 165.266Z" fill="#353436"/>
<path d="M117.831 70.9578C119.381 71.9332 121.649 69.0918 121.649 69.0918C121.649 69.0918 121.994 71.1866 121.505 74.3813C122.08 73.7136 125.18 74.9872 125.18 74.9872C125.18 74.9872 122.941 75.0499 122.883 75.4728C122.827 75.8956 125.525 76.427 125.639 77.3667C124.32 76.8142 124.214 78.0201 124.214 78.0201C124.214 78.0201 125.008 78.0201 125.639 79.1675C124.376 78.7082 126.186 80.8606 126.186 80.8606C126.186 80.8606 126.226 81.4055 125.387 80.8606C126.157 81.9817 126.903 82.9579 128.224 83.13C127.247 83.5316 126.832 83.4172 126.832 83.4172C126.832 83.4172 129.142 84.1053 129.544 84.7383C128.051 84.2782 128.166 85.5417 128.166 85.5417C128.166 85.5417 129.889 85.3519 129.889 86.423C128.913 86.001 128.97 87.2738 128.97 87.2738L130.118 88.0755L129.658 89.1584L126.386 89.683L117.831 70.9578Z" fill="#4C2A20"/>
</g>
<path d="M113.314 107.523C113.314 109.91 110.314 111.844 106.615 111.844C102.916 111.844 99.916 109.91 99.916 107.523C99.916 105.137 102.916 103.204 106.615 103.204C110.314 103.204 113.314 105.137 113.314 107.523Z" fill="#F8A185"/>
</svg>
