<svg width="223" height="213" viewBox="0 0 223 213" fill="none" xmlns="http://www.w3.org/2000/svg">
<path d="M58.4437 35.0753C59.1487 33.6502 70.4349 20.2487 72.576 18.8883C74.717 17.528 80.5662 26.2569 80.5662 26.2569C80.5662 26.2569 73.2882 35.5517 75.1936 46.3077L58.4437 35.0753Z" fill="white"/>
<path d="M25.294 86.208C25.294 86.208 30.4916 78.9096 32.102 77.8632C33.7125 76.8169 40.5925 82.8858 40.5925 82.8858C40.5925 82.8858 34.0716 91.5626 32.6962 92.1339C31.3306 92.7717 24.8761 87.9651 25.294 86.208Z" fill="white"/>
<path d="M80.9395 107.318C78.558 108.204 79.0402 85.8701 74.3619 79.0769C69.6836 72.2837 59.5684 69.1241 60.487 63.4258C61.3772 57.7656 70.1551 48.0512 74.4373 45.3306C78.7195 42.6099 77.3699 51.1193 89.1831 58.6163C100.996 66.1133 119.699 72.8902 119.699 72.8902C119.699 72.8902 95.2382 102.069 80.9395 107.318Z" fill="white"/>
<path d="M78.2392 95.5562C66.5966 118.207 99.3114 195.223 124.369 194.263C149.398 193.341 191.991 154.323 198.491 136.825C207.828 111.69 136.145 67.4682 111.951 66.4709C101.158 66.0562 84.8222 82.7299 78.2392 95.5562Z" fill="#4D4D4D"/>
<path d="M177.919 135.748C172.262 150.918 139.314 182.405 114.338 190.989C117.726 193.217 121.127 194.39 124.368 194.263C149.398 193.341 191.991 154.323 198.49 136.825C206.957 114.055 148.788 75.5245 119.831 67.848C114.824 76.8839 185.898 114.27 177.919 135.748Z" fill="#282E2F"/>
<path d="M81.4295 67.9117C85.4606 62.8176 84.3306 61.3851 83.2645 54.4453C82.0303 46.3757 80.2957 37.2243 78.4769 35.0425C75.0782 30.916 61.8626 29.2887 57.6217 30.9173C53.3711 32.4795 25.7071 71.8601 23.6204 76.0975C21.5336 80.3348 35.9048 87.9048 39.4724 89.9706C43.04 92.0365 56.7653 69.4597 70.7273 73.5929C70.7655 73.6213 77.3603 72.9774 81.4295 67.9117Z" fill="#D0D0D0"/>
<path d="M25.992 75.1452C26.5015 74.4609 49.9955 40.8392 52.5711 38.9752C55.1467 37.1111 33.8214 80.9757 31.8376 81.5667C29.8439 82.0913 24.9729 76.5137 25.992 75.1452Z" fill="#EFEFEF"/>
<path d="M81.8199 32.6268C78.5106 32.5262 66.2599 21.6303 67.5877 19.3689C68.9155 17.1075 77.6436 3.63301 80.9246 3.77162C82.5602 3.80769 100.818 16.0449 102.978 18.0079C114.639 28.8189 115.577 46.7734 125.865 57.0354C130.847 61.9861 120.057 63.8788 112.947 55.8065C109.76 52.1925 112.015 44.0619 107.856 38.2462C104.597 33.6922 99.3987 30.7073 97.9164 29.1897C94.4934 25.8134 85.1009 32.7654 81.8199 32.6268Z" fill="#D0D0D0"/>
<path d="M80.9388 107.318C80.9388 107.318 88.3604 86.429 97.6769 82.8479C106.993 79.2668 98.6815 105.816 105.563 124.001C112.407 142.157 115.893 153.263 116.848 157.402C117.803 161.54 100.989 159.006 100.989 159.006C100.989 159.006 78.5515 127.346 80.9388 107.318Z" fill="#7C8384"/>
<path d="M71.1456 18.1778C72.1108 17.3601 77.0482 9.45429 79.5245 8.52087C82.0007 7.58745 77.5097 27.172 77.5097 27.172C77.5097 27.172 68.8459 20.0701 71.1456 18.1778Z" fill="#EFEFEF"/>
</svg>
