<svg width="217" height="195" viewBox="0 0 217 195" fill="none" xmlns="http://www.w3.org/2000/svg">
<path d="M19.0625 97.5862C19.0625 97.5862 33.3067 145.872 41.6657 149.456C49.9747 153.064 183.032 90.5408 187.728 82.8772C192.423 75.2136 170.913 38.4666 167.864 33.6228C164.815 28.7791 16.4869 90.7579 19.0625 97.5862Z" fill="#6ECFD7"/>
<path d="M24.1787 123.425C24.1787 123.425 45.5491 180.736 53.8348 184.294C62.1438 187.901 205.162 128.094 209.857 120.431C214.553 112.767 187.645 59.6192 184.646 54.7521C181.574 49.8584 21.6031 116.596 24.1787 123.425Z" fill="#AF89B8"/>
<path d="M38.2212 141.938C38.2212 141.938 26.3152 127.355 30.9334 123.438C35.5516 119.521 125.659 78.8477 131.925 78.7245C138.19 78.6013 55.707 136.279 49.0779 140.708C42.4754 145.064 38.2212 141.938 38.2212 141.938Z" fill="#C39BCC"/>
<path d="M184.596 54.7753C184.526 54.6254 184.183 54.5419 183.741 54.5051C179.171 67.5237 167.57 77.981 159.129 88.3034C146.839 103.279 134.348 118.349 118.816 130.152C96.2579 147.361 70.0884 160.474 42.3787 166.764C46.8149 175.888 51.0551 183.156 53.8581 184.343C62.1671 187.951 205.185 128.144 209.88 120.48C214.502 112.79 187.645 59.619 184.596 54.7753Z" fill="#9B71A5"/>
<path d="M177.531 38.9697C177.531 38.9697 169.629 14.0655 161.343 10.5077C153.057 6.94997 11.9268 67.1543 7.23136 74.8179C2.53595 82.4816 14.1515 102.309 17.2002 107.153C18.7345 109.661 58.2589 86.854 98.8511 69.2057C137.922 52.206 178.047 40.8582 177.531 38.9697Z" fill="#AF89B8"/>
<path d="M10.9763 76.7216C10.9763 76.7216 66.6646 48.811 73.6898 45.2315C80.7149 41.652 118.28 27.4222 118.28 27.4222C118.28 27.4222 88.5413 44.8765 62.2744 63.3883C35.9841 81.8502 16.1505 92.2531 16.1505 92.2531C16.1505 92.2531 10.3033 79.7117 10.9763 76.7216Z" fill="#C39BCC"/>
<path d="M177.531 38.9697C177.531 38.9697 152.355 40.9143 104.149 59.3145C76.6453 69.8265 12.8434 99.6343 14.4176 102.489C15.5459 104.518 16.561 106.173 17.1501 107.176C18.6844 109.685 58.2088 86.8773 98.801 69.229C137.922 52.206 178.047 40.8582 177.531 38.9697Z" fill="#9B71A5"/>
</svg>
