<svg width="50" height="51" viewBox="0 0 50 51" fill="none" xmlns="http://www.w3.org/2000/svg">
<circle cx="25" cy="25.9414" r="25" fill="white"/>
<path d="M24.7559 13.4414C21.4277 13.4414 21.01 13.456 19.7028 13.5154C18.3982 13.5752 17.5077 13.7817 16.7285 14.0848C15.9224 14.3978 15.2387 14.8165 14.5575 15.4979C13.8759 16.1791 13.4572 16.8628 13.1431 17.6686C12.8393 18.448 12.6325 19.3388 12.5738 20.6429C12.5153 21.9501 12.5 22.3681 12.5 25.6963C12.5 29.0245 12.5148 29.4409 12.574 30.7481C12.634 32.0528 12.8406 32.9433 13.1434 33.7225C13.4566 34.5285 13.8754 35.2122 14.5568 35.8934C15.2377 36.5751 15.9214 36.9948 16.7269 37.3078C17.5066 37.6109 18.3974 37.8174 19.7018 37.8772C21.009 37.9367 21.4264 37.9512 24.7544 37.9512C28.0829 37.9512 28.4993 37.9367 29.8065 37.8772C31.1111 37.8174 32.0027 37.6109 32.7824 37.3078C33.5881 36.9948 34.2708 36.5751 34.9517 35.8934C35.6334 35.2122 36.0521 34.5285 36.3662 33.7228C36.6674 32.9433 36.8742 32.0525 36.9355 30.7484C36.9942 29.4412 37.0095 29.0245 37.0095 25.6963C37.0095 22.3681 36.9942 21.9504 36.9355 20.6432C36.8742 19.3386 36.6674 18.448 36.3662 17.6688C36.0521 16.8628 35.6334 16.1791 34.9517 15.4979C34.2701 14.8163 33.5884 14.3975 32.7816 14.0848C32.0004 13.7817 31.1093 13.5752 29.8047 13.5154C28.4975 13.456 28.0813 13.4414 24.7521 13.4414H24.7559ZM23.6566 15.6498C23.9828 15.6493 24.3469 15.6498 24.7559 15.6498C28.028 15.6498 28.4158 15.6616 29.7079 15.7203C30.9028 15.7749 31.5513 15.9746 31.9832 16.1423C32.5551 16.3645 32.9629 16.63 33.3915 17.0589C33.8205 17.4878 34.086 17.8963 34.3086 18.4682C34.4764 18.8997 34.6763 19.5482 34.7306 20.743C34.7894 22.0349 34.8021 22.423 34.8021 25.6935C34.8021 28.964 34.7894 29.3521 34.7306 30.644C34.676 31.8388 34.4764 32.4873 34.3086 32.9188C34.0865 33.4907 33.8205 33.8979 33.3915 34.3266C32.9626 34.7555 32.5554 35.021 31.9832 35.2431C31.5518 35.4116 30.9028 35.6108 29.7079 35.6654C28.4161 35.7241 28.028 35.7369 24.7559 35.7369C21.4836 35.7369 21.0958 35.7241 19.8039 35.6654C18.6091 35.6103 17.9606 35.4106 17.5283 35.2429C16.9564 35.0208 16.5479 34.7552 16.119 34.3263C15.6901 33.8974 15.4246 33.4899 15.202 32.9178C15.0342 32.4863 14.8343 31.8378 14.7799 30.6429C14.7212 29.3511 14.7095 28.963 14.7095 25.6904C14.7095 22.4179 14.7212 22.0318 14.7799 20.74C14.8346 19.5451 15.0342 18.8966 15.202 18.4646C15.4241 17.8927 15.6901 17.4842 16.119 17.0553C16.5479 16.6264 16.9564 16.3609 17.5283 16.1383C17.9603 15.9697 18.6091 15.7706 19.8039 15.7157C20.9344 15.6646 21.3725 15.6493 23.6566 15.6468V15.6498ZM31.2975 17.6847C30.4856 17.6847 29.8269 18.3426 29.8269 19.1547C29.8269 19.9666 30.4856 20.6253 31.2975 20.6253C32.1094 20.6253 32.7681 19.9666 32.7681 19.1547C32.7681 18.3429 32.1094 17.6842 31.2975 17.6842V17.6847ZM24.7559 19.4029C21.2804 19.4029 18.4625 22.2208 18.4625 25.6963C18.4625 29.1718 21.2804 31.9884 24.7559 31.9884C28.2315 31.9884 31.0483 29.1718 31.0483 25.6963C31.0483 22.2208 28.2312 19.4029 24.7557 19.4029H24.7559ZM24.7559 21.6113C27.0118 21.6113 28.8409 23.4401 28.8409 25.6963C28.8409 27.9522 27.0118 29.7813 24.7559 29.7813C22.4997 29.7813 20.671 27.9522 20.671 25.6963C20.671 23.4401 22.4997 21.6113 24.7559 21.6113Z" fill="#CA6B1B"/>
</svg>
