<svg width="236" height="269" viewBox="0 0 236 269" fill="none" xmlns="http://www.w3.org/2000/svg">
<path d="M100.006 88.1377C104.415 152.654 110.463 235.358 107.426 243.247C104.369 251.314 82.2069 165.914 78.8795 143.209C75.8194 122.01 90.4391 89.2414 93.2692 87.8329C95.8928 86.2911 98.8372 83.9096 100.006 88.1377Z" fill="#EFEFEF"/>
<path d="M99.1979 87.4734C103.781 152.26 110.064 235.31 106.936 243.235C104.296 236.61 90.5155 149.237 92.1359 87.1496C94.9537 85.6219 97.9901 83.2282 99.1979 87.4734Z" fill="#D5D5D5"/>
<path d="M79.1268 16.0778C63.0422 17.0523 53.2386 27.4956 53.2379 36.5287C53.2139 62.9213 82.9832 73.5048 87.4103 76.1581C91.8374 78.8114 88.1725 90.9741 89.6651 92.0085C91.1576 93.0428 97.1328 92.6209 98.2029 90.2285C99.273 87.836 106.852 49.5341 104.215 39.8253C101.638 30.4807 95.6225 15.0196 79.1268 16.0778ZM90.5317 62.5587C87.2514 63.1429 79.0862 58.8669 71.1128 50.1609C63.4049 41.7772 65.018 34.5068 65.143 30.6758C65.366 26.8667 83.5107 23.6328 88.2935 30.312C93.2534 37.206 97.0924 61.3904 90.5317 62.5587Z" fill="#EFEFEF"/>
<path d="M79.6502 19.4152C71.8226 20.4992 61.4184 22.863 61.5365 31.7972C61.8496 58.0613 90.0204 67.3164 94.4981 69.8983C99.0748 72.5023 92.1789 92.491 92.1789 92.491C94.4317 95.0198 97.6116 93.7857 97.8172 90.1271C98.897 87.721 106.543 49.2011 103.881 39.4374C101.369 30.1479 91.8825 19.7505 79.6502 19.4152ZM90.1626 62.4089C86.8521 62.9966 78.6115 58.697 70.5639 49.9422C62.7844 41.5115 64.4118 34.1997 64.5377 30.347C64.7625 26.5162 83.074 23.2625 87.9014 29.9792C92.9074 36.912 96.7836 61.2334 90.1626 62.4089Z" fill="#D5D5D5"/>
<path d="M94.0996 181.928C94.0996 181.928 89.001 143.189 88.0996 135.756C87.1775 128.499 86.6379 119.872 85.6844 119.494C84.6227 119.093 83.1468 133.553 83.3543 138.397C83.5514 143.33 91.1709 182.319 94.0996 181.928Z" fill="#C1C5CC"/>
<path d="M76.1674 100.29C133.685 137.749 207.865 186.293 216.813 188.874C225.938 191.574 157.054 132.278 137.595 118.095C119.46 104.842 81.9387 95.51 79.2793 96.3008C76.5358 96.993 72.8713 97.4054 76.1674 100.29Z" fill="#EFEFEF"/>
<path d="M76.1672 100.357C133.681 137.808 207.857 186.341 216.805 188.921C211.851 183.83 137.16 128.835 79.1859 96.349C76.5355 97.0612 72.8713 97.4735 76.1672 100.357Z" fill="#D5D5D5"/>
<path d="M33.6195 76.2488C41.4537 83.557 82.6269 101.033 85.5634 101.691C88.4909 102.432 92.2854 98.8245 92.0782 97.1799C91.871 95.5352 78.1088 90.9352 78.0194 86.4572C77.921 82.0612 84.2324 56.476 58.73 41.2527C50.0834 36.0334 34.6151 36.35 24.6935 46.2375C14.65 56.3501 26.0514 69.1685 33.6195 76.2488ZM33.3203 60.4525C29.5279 53.4619 42.7425 43.6398 46.4998 45.6599C50.3428 47.7833 58.1462 50.9631 62.0103 60.8297C66.0186 71.1492 65.557 78.8682 63.1252 80.6781C58.4601 84.2583 37.1894 67.6286 33.3203 60.4525Z" fill="#EFEFEF"/>
<path d="M167.903 145.07C167.903 145.07 134.29 120.816 127.824 116.233C121.536 111.77 113.782 106.742 113.964 105.969C114.146 105.196 128.266 112.266 132.643 115.011C137.122 117.697 169.786 143.612 167.903 145.07Z" fill="#C1C5CC"/>
<path d="M76.2815 81.9224C76.2815 81.9224 73.7242 77.9549 73.2536 73.1553C72.8712 68.4626 70.4782 60.2735 63.2319 49.9447C56.3377 40.0431 49.3975 38.7353 50.0748 38.0193C50.7428 37.388 63.3659 41.4576 69.0783 50.3099C75.0455 59.5675 77.2582 66.6728 77.186 71.8712C77.1046 77.1545 76.2815 81.9224 76.2815 81.9224Z" fill="#C1C5CC"/>
</svg>
