<svg width="212" height="61" viewBox="0 0 212 61" fill="none" xmlns="http://www.w3.org/2000/svg">
<path d="M30.0003 0.938721C25.9533 0.938721 22.0235 1.73211 18.32 3.29924C14.7469 4.81032 11.5391 6.97285 8.78625 9.72497C6.03414 12.4778 3.8716 15.6848 2.36052 19.2587C0.794122 22.9615 0 26.8921 0 30.9384C0 34.9853 0.794122 38.9144 2.36052 42.6177C3.8716 46.1918 6.03414 49.3987 8.78625 52.1516C11.5391 54.9044 14.7469 57.0662 18.32 58.5774C22.0235 60.1437 25.9533 60.9387 30.0003 60.9387C34.0466 60.9387 37.9764 60.1437 41.6792 58.5774C45.2531 57.0662 48.4601 54.9044 51.2129 52.1516C53.9651 49.3987 56.1276 46.1918 57.6387 42.6177C59.2058 38.9144 59.9992 34.9853 59.9992 30.9384C59.9992 26.8921 59.2058 22.9615 57.6387 19.2587C56.1276 15.6848 53.9651 12.4778 51.2129 9.72497C48.4601 6.97285 45.2531 4.81032 41.6792 3.29924C37.9764 1.73211 34.0466 0.938721 30.0003 0.938721ZM30.0003 8.55017C42.3648 8.55017 52.3878 18.5729 52.3878 30.9384C52.3878 43.3036 42.3648 53.3273 30.0003 53.3273C17.6344 53.3273 7.61145 43.3036 7.61145 30.9384C7.61145 18.5729 17.6344 8.55017 30.0003 8.55017Z" fill="#CC7F1F"/>
<mask id="mask0_69_1725" style="mask-type:luminance" maskUnits="userSpaceOnUse" x="5" y="2" width="48" height="52">
<path d="M52.3876 30.9384C52.3876 32.8352 52.1525 34.6767 51.7085 36.4359C51.0869 38.8962 50.6159 47.4983 48.2809 48.2989C46.6315 48.8639 47.9672 44.3132 47.569 44.8167C43.4681 50.0006 37.1225 53.3273 30.0002 53.3273C17.6342 53.3273 7.61129 43.3036 7.61129 30.9384C6.79897 28.1898 -4.78306 3.61368 29.4128 2.34135C49.6937 3.26066 53.9336 25.8322 52.3876 30.9384Z" fill="white"/>
</mask>
<g mask="url(#mask0_69_1725)">
<path d="M15.8365 33.1509C15.8365 33.1509 13.3938 30.5524 10.9328 33.8824C9.89048 30.6485 11.6032 28.7574 11.6032 28.7574C11.6032 28.7574 9.93779 28.86 9.29362 30.6323C8.33282 26.1655 10.2377 24.2022 10.2377 24.2022C10.2377 24.2022 9.3191 22.8659 7.46737 25.2016C8.28769 21.2878 10.9779 18.8545 10.9779 18.8545C10.9779 18.8545 8.86999 17.8995 6.81445 19.9851C7.92156 15.0892 12.2568 14.0687 12.2568 14.0687C12.2568 14.0687 11.871 12.466 10.7137 11.655C12.6091 11.1171 14.2927 12.1654 14.2927 12.1654C14.2927 12.1654 13.7679 9.26046 12.7831 8.56017C14.8219 8.4044 16.2296 10.3435 16.2296 10.3435C16.2296 10.3435 15.7659 9.05434 17.0594 6.33869C17.4502 8.76908 18.5479 9.7108 18.5479 9.7108C18.5479 9.7108 18.9817 6.85985 22.0315 5.38444C20.7126 8.78728 22.1713 9.35204 22.1713 9.35204C22.1713 9.35204 21.6792 7.00251 27.305 4.18561C25.4467 7.02653 26.968 7.87378 26.968 7.87378C26.968 7.87378 30.6933 3.43371 35.394 5.53146C32.8842 6.23605 32.9337 7.52804 32.9337 7.52804C32.9337 7.52804 37.4793 6.25352 40.1135 8.77999C37.6416 9.12144 36.5302 10.5231 36.5302 10.5231C36.5302 10.5231 42.359 9.28944 46.0479 15.3738C44.4073 14.7892 43.231 15.4946 43.231 15.4946C43.231 15.4946 48.4492 17.9214 50.2289 23.8069C47.6515 22.068 46.3238 22.8957 46.3238 22.8957C46.3238 22.8957 51.4168 24.7578 51.0754 32.0315C50.1008 29.9075 48.2716 29.81 48.2716 29.81C48.2716 29.81 51.6424 32.3212 50.7457 36.9629C49.6153 34.1329 48.5555 34.1605 48.5555 34.1605C48.5555 34.1605 52.0937 40.3671 48.2323 45.6661C48.2978 40.6153 46.711 40.4049 46.711 40.4049C46.711 40.4049 48.3939 49.8659 43.0236 57.3071C43.2194 54.983 42.2098 53.637 42.2098 53.637C42.2098 53.637 42.616 58.1382 38.9067 60.6494C39.7765 58.027 38.7728 57.5087 38.7728 57.5087C38.7728 57.5087 27.824 34.5804 15.8365 33.1509Z" fill="#4C2A20"/>
<path d="M39.1004 57.2336C39.361 57.4483 39.8472 58.0604 39.6129 59.5409C42.0651 57.1477 41.7994 53.7122 41.7965 53.6736L41.6706 52.2257L42.5419 53.3875C42.5783 53.4356 43.2515 54.3534 43.424 55.9584C47.7396 48.9367 46.3181 40.566 46.3021 40.4779L46.2024 39.918L46.7657 39.9939C47.0584 40.0324 48.4013 40.4224 48.6204 44.2535C51.0668 39.5177 48.2259 34.4219 48.1946 34.366L47.851 33.7632L48.544 33.7458C48.7325 33.7407 49.5492 33.82 50.4837 35.4467C50.5034 32.0512 48.1371 30.2278 48.0228 30.1428L46.9324 29.3231L48.2936 29.3953C48.3605 29.3988 49.6067 29.4817 50.6563 30.6362C50.3404 24.8756 46.2264 23.3013 46.1813 23.2854L45.382 22.9928L46.1048 22.543C46.1601 22.5081 47.3262 21.812 49.4618 22.8757C47.5009 17.9975 43.1031 15.8929 43.0557 15.8704L42.3482 15.54L43.0179 15.1383C43.0616 15.1121 43.8935 14.6265 45.1338 14.7445C41.6385 9.9345 36.6693 10.9179 36.6162 10.9288L35.4901 11.1667L36.2049 10.2652C36.2486 10.2106 37.1716 9.07065 39.155 8.54869C36.6773 6.94007 33.086 7.91761 33.0459 7.92853L32.5393 8.07047L32.5189 7.54494C32.5175 7.48889 32.4971 6.36869 34.1676 5.54837C30.3025 4.61522 27.3182 8.10177 27.2855 8.14108L27.0649 8.40311L26.7658 8.23642C26.7097 8.20512 26.2126 7.91034 26.0306 7.17226C25.8916 6.6067 25.976 5.94797 26.2825 5.20699C22.3417 7.49763 22.5732 9.24898 22.5768 9.26718L22.734 10.0155L22.0214 9.73943C21.9647 9.71781 21.4712 9.50796 21.215 8.78233C20.9908 8.14544 21.0162 7.31274 21.2907 6.30026C19.3094 7.70071 18.9731 9.67974 18.9585 9.77523L18.8413 10.5097L18.2772 10.0263C18.2372 9.99223 17.4605 9.30925 16.9503 7.68979C16.3687 9.37687 16.6191 10.1995 16.6228 10.2097L17.43 12.7013L15.8934 10.5876C15.8832 10.5745 15.009 9.39965 13.7098 9.05901C14.3409 10.1835 14.6582 11.8525 14.7019 12.0919L14.8678 13.0129L14.0737 12.5179C14.0613 12.5105 12.9644 11.8474 11.6149 11.9239C12.3748 12.8161 12.6463 13.9145 12.6602 13.9714L12.7577 14.3777L12.3516 14.472C12.2016 14.5084 8.98802 15.3188 7.60141 18.8314C9.44003 17.7293 11.0683 18.4399 11.1491 18.4763L11.7256 18.7376L11.2568 19.1626C11.2343 19.1822 9.31993 20.9473 8.29071 23.8182C8.70851 23.5322 9.11321 23.3937 9.5019 23.4076C10.1927 23.4309 10.5428 23.9129 10.5806 23.9675L10.7728 24.2475L10.5355 24.4915C10.5217 24.5069 9.11249 26.044 9.51282 29.4271C10.3615 28.4323 11.5159 28.347 11.5778 28.3433L12.5961 28.2802L11.9112 29.0362C11.8551 29.0996 10.6272 30.5185 11.1302 33.0003C11.8566 32.2369 12.6493 31.8255 13.4929 31.776C14.7455 31.7018 15.7064 32.4632 16.0252 32.7567C21.0781 33.4254 26.4979 37.7543 32.1375 45.6239C36.0477 51.0802 38.7198 56.4525 39.1004 57.2336ZM38.128 61.6782L38.513 60.5188C39.187 58.4873 38.6477 57.939 38.572 57.8737L38.4279 57.8191L38.3988 57.688C38.3718 57.6311 35.6233 51.9122 31.4562 46.0984C27.6414 40.7779 21.8271 34.2838 15.7871 33.563L15.6372 33.5448L15.5346 33.4357C15.5098 33.4109 14.6524 32.5337 13.5344 32.6051C12.741 32.6546 11.9781 33.1678 11.267 34.1294L10.7859 34.7799L10.5377 34.01C9.88695 31.9907 10.2407 30.4579 10.6563 29.5241C10.2938 29.7556 9.91461 30.1405 9.68387 30.7746L9.19182 32.1297L8.88829 30.72C8.1131 27.117 9.12995 25.0534 9.6584 24.2732C9.60235 24.2527 9.53539 24.2374 9.46041 24.2368C9.19692 24.2345 8.643 24.3874 7.79357 25.4597L6.70102 26.8381L7.06131 25.1159C7.68584 22.139 9.33376 20.0105 10.1817 19.0754C9.48443 18.9835 8.29871 19.0708 7.11009 20.2764L6.08887 21.3127L6.40986 19.8942C7.36412 15.6717 10.5624 14.1977 11.7336 13.7936C11.5567 13.3126 11.168 12.48 10.4765 11.9959L9.76103 11.4951L10.601 11.2558C11.8377 10.9049 12.9797 11.1633 13.7069 11.4346C13.4492 10.4252 13.0197 9.23872 12.5423 8.89894L11.6069 8.23425L12.7512 8.1469C14.0366 8.04718 15.0797 8.67461 15.7478 9.2444C15.8097 8.53267 16.0412 7.51145 16.6846 6.15978L17.2582 4.9566L17.4693 6.2726C17.6665 7.502 18.0552 8.3245 18.366 8.81582C18.7343 7.79533 19.6551 6.07317 21.8504 5.01046L22.7996 4.55116L22.4189 5.53453C21.8861 6.90804 21.8373 7.75093 21.9341 8.25681C22.3432 7.21157 23.5733 5.58985 27.1195 3.81455L28.4945 3.12598L27.6523 4.41286C26.7978 5.71868 26.7337 6.51135 26.8305 6.94662C26.8611 7.08346 26.9092 7.19265 26.9608 7.27708C27.9857 6.25223 31.4271 3.30795 35.5629 5.15312L36.6125 5.62043L35.5062 5.93123C34.4427 6.22966 33.9034 6.62999 33.6297 6.95463C35.1102 6.69914 38.2888 6.45531 40.4011 8.481L41.0198 9.07407L40.1697 9.19156C39.1397 9.334 38.3616 9.67457 37.8194 10.0044C38.4133 10.0067 39.1645 10.0655 40.0015 10.2629C41.8293 10.6936 44.4227 11.8918 46.4033 15.1584L47.0089 16.1564L45.909 15.7649C45.2554 15.5312 44.6898 15.527 44.2655 15.5909C45.8632 16.5647 49.2369 19.0907 50.6257 23.6871L50.9634 24.8037L49.9961 24.1509C48.9945 23.4753 48.207 23.2183 47.6385 23.1435C48.0861 23.4477 48.6153 23.8765 49.1372 24.4594C50.3112 25.7719 51.6731 28.1534 51.4897 32.0518L51.4096 33.7567L50.6978 32.2056C50.5267 31.832 50.3273 31.5292 50.1184 31.2832C50.9285 32.5565 51.6469 34.4896 51.1541 37.0415L50.8855 38.4304L50.3607 37.1174C50.1264 36.5299 49.8985 36.0784 49.6882 35.7307C49.8964 36.3253 50.1038 37.0452 50.2501 37.8519C50.7975 40.8629 50.2152 43.6493 48.568 45.9108L47.8015 46.964L47.8175 45.6612C47.8459 43.4986 47.5701 42.2939 47.2775 41.6266C47.3677 42.6522 47.4383 44.2213 47.2949 46.0979C47.0627 49.157 46.1914 53.6278 43.36 57.5503L42.4844 58.7636L42.6103 57.2723C42.6663 56.6027 42.6154 56.019 42.5178 55.5342C42.2551 57.1464 41.4588 59.4232 39.139 60.9925L38.128 61.6782Z" fill="#040606"/>
<path d="M13.3599 28.5565C13.3599 28.5565 10.4025 28.9256 10.5262 24.3567C10.6493 19.7878 14.641 20.1583 15.6287 21.7227C16.6171 23.2867 13.3599 28.5565 13.3599 28.5565Z" fill="#F7BF7F"/>
<path d="M13.4229 21.0742C13.2169 21.0742 13.0066 21.1003 12.8006 21.1563C11.6483 21.4737 10.9874 22.6135 10.9401 24.3679C10.8986 25.8992 11.224 27.0275 11.8798 27.6316C12.3376 28.053 12.8523 28.136 13.123 28.1477C14.3932 26.0425 15.8453 22.8435 15.2776 21.9445C14.974 21.4643 14.225 21.0742 13.4229 21.0742ZM13.2082 28.9788C12.8399 28.9788 12.0378 28.8958 11.3332 28.2561C10.4721 27.4758 10.0616 26.1597 10.1103 24.346C10.1919 21.3354 11.8645 20.553 12.58 20.3556C13.8589 20.0048 15.3525 20.507 15.98 21.5012C17.0521 23.1987 14.2796 27.858 13.7133 28.7749L13.6085 28.9438L13.4113 28.9686C13.3996 28.97 13.3261 28.9788 13.2082 28.9788Z" fill="#040606"/>
<path d="M13.6841 26.1605C13.6841 26.1605 15.3801 23.0117 13.0778 23.369C10.2515 23.808 12.4598 27.7866 12.4598 27.7866C12.4598 27.7866 12.6025 25.9743 13.6841 26.1605Z" fill="#C6424F"/>
<path d="M12.2603 27.7059C11.9546 27.0164 11.7064 26.3098 11.563 25.5549C11.496 25.1779 11.4538 24.7869 11.5055 24.3758C11.5324 24.1711 11.5863 23.9579 11.6954 23.7543C11.8017 23.5504 11.9771 23.3639 12.186 23.2448C12.3957 23.1231 12.6242 23.0676 12.8411 23.0466C13.0624 23.0284 13.2618 23.0335 13.478 23.0648C13.692 23.0969 13.9206 23.1609 14.1368 23.2971C14.3529 23.431 14.54 23.6559 14.6317 23.8996C14.7285 24.143 14.7474 24.3861 14.7409 24.6096C14.7322 24.8345 14.6936 25.0454 14.6426 25.247C14.591 25.448 14.5254 25.6417 14.4505 25.8293C14.374 26.0201 14.2969 26.1918 14.1899 26.3878C14.0618 26.6235 13.7677 26.7093 13.5333 26.5814C13.2982 26.4531 13.2116 26.1591 13.3397 25.9245L13.3608 25.8896L13.3645 25.8839C13.4453 25.7625 13.5348 25.603 13.6076 25.456C13.6833 25.3058 13.7481 25.1523 13.8019 24.9996C13.9082 24.6974 13.9577 24.3801 13.8944 24.1677C13.8638 24.0614 13.8107 23.9812 13.7197 23.9093C13.6294 23.8384 13.4999 23.7819 13.3514 23.7483C13.2036 23.7128 13.0318 23.6946 12.8833 23.696C12.7327 23.6988 12.5929 23.7245 12.4757 23.7804C12.2435 23.8845 12.09 24.1399 12.0252 24.4622C11.9589 24.7818 11.9655 25.1387 12.0033 25.4909C12.082 26.1992 12.2734 26.9155 12.518 27.5967L12.5201 27.6018C12.5456 27.6746 12.5078 27.7545 12.4357 27.7806C12.3666 27.8054 12.2901 27.7721 12.2603 27.7059Z" fill="#040606"/>
<path d="M11.7849 50.866C10.3007 50.8194 9.73587 53.1983 9.66454 54.8478C9.59394 56.4963 12.1146 56.732 13.0099 56.6848C13.5754 57.1696 16.19 56.9359 16.19 56.9359L17.2942 51.5495C17.2942 51.5495 17.4711 50.7847 15.6506 50.6019L16.131 50.578C16.131 50.578 15.6484 48.876 14.5297 48.8172C13.4109 48.7583 11.632 50.8072 11.632 50.8072L11.7849 50.866Z" fill="#F7BF7F"/>
<path d="M12.889 52.7245C12.921 52.4523 12.9793 52.2186 13.063 51.9741C13.146 51.733 13.2559 51.4979 13.4007 51.2781C13.5448 51.0583 13.7275 50.8553 13.9473 50.6906C14.1672 50.5292 14.4212 50.4078 14.6854 50.3415C14.9504 50.2744 15.2226 50.2585 15.4803 50.2752L15.8493 50.3065C15.973 50.3253 16.0968 50.3378 16.222 50.3631C16.4709 50.4106 16.7242 50.4806 16.979 50.6056L17.1682 50.7163L17.2614 50.7834L17.3509 50.8647C17.4666 50.9804 17.5744 51.1348 17.6195 51.3307L17.6384 51.4856L17.6348 51.5744L17.6312 51.6036L17.6268 51.6275L17.6224 51.65L17.5897 51.8226L17.5227 52.1692L17.3902 52.8626L17.1253 54.2479L16.5954 57.019C16.5612 57.2009 16.4112 57.3312 16.2358 57.3494L16.2263 57.3502H16.2256C15.9439 57.3735 15.6739 57.388 15.3966 57.3974C15.1207 57.4077 14.8441 57.4105 14.5646 57.404C14.2851 57.3974 14.0034 57.3829 13.713 57.3428C13.5659 57.3227 13.4182 57.2962 13.261 57.2532C13.1045 57.2052 12.9363 57.1571 12.7391 57.0002L13.0309 57.0997C12.5251 57.1194 12.049 57.0787 11.5635 56.9877C11.0824 56.8916 10.5947 56.7483 10.1354 56.4557C9.90761 56.3093 9.68998 56.1114 9.52329 55.8617C9.35952 55.6084 9.26271 55.3019 9.25034 55.0085C9.24961 54.9388 9.24743 54.8564 9.25107 54.7975L9.26053 54.6184C9.26854 54.499 9.27872 54.3804 9.2911 54.2604C9.31584 54.023 9.34787 53.7865 9.39009 53.5507C9.47452 53.0782 9.59244 52.6088 9.77659 52.1464C9.96439 51.6901 10.2075 51.2201 10.653 50.8479C10.8735 50.6654 11.1603 50.5249 11.4624 50.474C11.5373 50.4652 11.6138 50.4521 11.688 50.4535L11.8001 50.4521L11.8904 50.4564C12.0105 50.4606 12.1306 50.4681 12.2521 50.4791C12.4952 50.5016 12.7405 50.5334 12.9931 50.5962C13.119 50.6262 13.2486 50.6673 13.3818 50.7228C13.4488 50.7521 13.5172 50.784 13.59 50.8283L13.7013 50.9056L13.7639 50.9602C13.7909 50.9892 13.7989 50.9878 13.8556 51.0708C13.9772 51.265 13.9182 51.5212 13.7239 51.6429C13.5295 51.7643 13.2733 51.7055 13.1518 51.5104L13.1867 51.5575L13.1845 51.5556L13.1547 51.536L13.0564 51.4862C12.9778 51.4549 12.8897 51.4245 12.7922 51.4021C12.6008 51.354 12.3904 51.3256 12.1779 51.3065C12.0716 51.2963 11.9639 51.2892 11.8547 51.286L11.7732 51.2818L11.7135 51.2832L11.5985 51.2929C11.4493 51.3196 11.3088 51.3839 11.177 51.4931C10.9114 51.7083 10.701 52.0702 10.5474 52.4558C10.3917 52.8447 10.2839 53.2667 10.2075 53.6955C10.1689 53.9101 10.1391 54.1279 10.1172 54.3454C10.1056 54.454 10.0969 54.5632 10.0896 54.6724L10.0801 54.8353L10.0794 54.9678C10.0881 55.1316 10.1354 55.2749 10.2191 55.4083C10.3072 55.5376 10.4317 55.6593 10.5889 55.7597C10.9026 55.963 11.3073 56.0917 11.7215 56.1717C12.1357 56.251 12.5782 56.2874 12.9865 56.2701L13.0047 56.2692C13.1096 56.2649 13.2071 56.3041 13.2792 56.3696C13.2923 56.3821 13.3832 56.4279 13.4844 56.4534C13.5878 56.4819 13.705 56.5038 13.8258 56.5202C14.0682 56.5532 14.3251 56.5677 14.5842 56.5742C14.8426 56.5799 15.1054 56.5771 15.3682 56.5677C15.6288 56.5589 15.8973 56.5435 16.1521 56.5225L15.7823 56.8529L16.3865 54.0915L16.6885 52.7114L16.8399 52.0208L16.9156 51.6764L16.9535 51.503L16.9586 51.4819L16.9593 51.4768L16.9579 51.4848L16.9564 51.4922V51.4931L16.955 51.4725L16.8742 51.3372L16.8349 51.298L16.7846 51.2613L16.6725 51.1916C16.5058 51.1041 16.3042 51.0381 16.0931 50.9929C15.9883 50.9682 15.877 50.9542 15.7692 50.9346L15.4359 50.8968C15.2248 50.8786 15.0217 50.8866 14.8274 50.9289C14.6337 50.9724 14.454 51.0526 14.2916 51.1655C14.1308 51.2789 13.9888 51.4259 13.8702 51.5963C13.7515 51.7666 13.654 51.9574 13.579 52.1595C13.5033 52.3577 13.4444 52.5825 13.416 52.7776L13.4138 52.793C13.3927 52.9377 13.2595 53.0381 13.1139 53.017C12.972 52.9969 12.8723 52.8658 12.889 52.7245Z" fill="#231F20"/>
<path d="M11.6306 51.2229C11.5345 51.2229 11.4377 51.1893 11.3591 51.1208C11.1859 50.971 11.1669 50.7088 11.3176 50.5356C11.5098 50.3144 13.2072 48.4015 14.4846 48.4015L14.5501 48.4029C15.9498 48.4765 16.5067 50.383 16.53 50.4643C16.5926 50.6841 16.4644 50.9149 16.2439 50.9775C16.0233 51.0401 15.7933 50.9121 15.7307 50.6906C15.7271 50.6776 15.3006 49.2736 14.5064 49.2314L14.4773 49.2306C13.8368 49.2306 12.6183 50.3042 11.945 51.0793C11.8628 51.174 11.747 51.2229 11.6306 51.2229Z" fill="#231F20"/>
<path d="M25.2127 64.3757L22.4999 71.584L14.8914 71.2891C14.8914 71.2891 13.2777 70.7475 13.5018 69.099C13.7253 67.4501 15.1476 65.405 17.2941 64.9421C17.4863 63.6362 17.9477 60.5072 17.9477 60.5072L17.2941 58.6343C17.2941 58.6343 13.8054 56.893 16.1855 55.4577C16.4119 53.4845 17.2533 50.3267 18.4755 48.5C18.177 47.5566 15.7524 46.6029 16.1703 44.2708C16.5873 41.9397 24.7141 39.4655 24.7141 39.4655L36.3034 38.8774L42.823 42.6638C42.823 42.6638 42.0158 45.4153 39.3896 47.9699C39.2841 48.6063 40.2129 53.9284 40.2129 53.9284H40.9677C40.9677 53.9284 42.117 55.2511 40.29 56.5977C40.3308 57.7193 40.48 57.9101 39.434 60.5072C39.6248 62.4323 39.8606 64.3757 39.8606 64.3757L40.4516 64.9421C40.4516 64.9421 43.4832 65.364 44.0801 68.6861C44.6777 72.0077 40.7566 71.4006 40.7566 71.4006L35.1556 71.584L32.3991 64.3757C32.3991 64.3757 31.7542 65.1297 25.2127 64.3757Z" fill="#F7BF7F"/>
<path d="M17.2811 58.6116C17.2811 58.6116 13.7917 56.8698 16.1718 55.4359C16.3982 53.4618 17.2396 50.3051 18.4617 48.4781C18.164 47.5347 15.7395 46.5813 16.1565 44.249C16.5736 41.9163 24.7004 39.4436 24.7004 39.4436L36.2897 38.8541L42.8093 42.6411C42.8093 42.6411 42.0029 45.3925 39.3759 47.9481C39.2711 48.5844 40.1992 53.9068 40.1992 53.9068H40.954C40.954 53.9068 42.1033 55.2292 40.277 56.5758C34.9642 62.4361 17.2811 58.6116 17.2811 58.6116Z" fill="#EBEBE9"/>
<path d="M17.6377 43.3515C17.6377 43.3515 22.4162 45.3523 26.0906 44.8195C29.7656 44.2861 31.7513 44.0342 31.9951 43.8779C32.0599 44.2096 33.2762 43.8252 31.439 45.49C29.9775 46.8147 21.6745 47.0273 17.6377 43.3515Z" fill="#C1C0B8"/>
<path d="M13.4074 30.4485C13.4074 30.4485 11.6547 33.1467 12.9619 37.6158C13.3244 38.854 14.9294 44.8124 25.8374 44.6071C36.744 44.401 39.689 37.3969 38.2827 31.4157C37.9908 30.1741 37.129 26.9131 36.0692 24.3763C34.5123 21.1819 31.1357 17.7856 23.8168 18.2653C11.884 19.0477 13.4074 30.4485 13.4074 30.4485Z" fill="#F7BF7F"/>
<path d="M21.6238 48.6409C21.6172 48.5348 21.4789 46.0199 22.3699 44.5599L22.9609 44.9202C22.1828 46.1945 22.3124 48.5763 22.3138 48.6003L21.6238 48.6409Z" fill="#353436"/>
<path d="M28.0312 48.5559C27.9846 48.4621 26.8819 46.2412 27.3943 44.4033L28.061 44.5898C27.6192 46.1712 28.639 48.2241 28.6499 48.2443L28.0312 48.5559Z" fill="#353436"/>
<path d="M16.7627 42.4642C16.7627 42.4642 18.3953 44.5256 24.3596 44.6122C35.0303 44.7658 36.6207 39.5905 36.6207 39.5905C36.6207 39.5905 29.1221 45.5665 16.7627 42.4642Z" fill="#D69861"/>
<path d="M18.0073 20.3957C18.9805 19.857 21.0542 20.0827 21.0848 20.5558C21.1445 21.4498 19.078 20.694 18.337 21.3986C17.2496 22.4344 16.1366 22.8341 16.002 22.5137C15.7683 21.9593 17.0814 20.9081 18.0073 20.3957Z" fill="#FCD4AE"/>
<path d="M30.1357 43.8551C30.1357 43.8551 35.6938 44.219 37.6489 38.5831C40.5561 30.2054 34.495 21.9701 34.495 21.9701C34.495 21.9701 41.0641 38.5831 30.1357 43.8551Z" fill="#D69861"/>
<path d="M13.756 30.6733C13.7393 30.6995 12.1292 33.2877 13.3608 37.4995L13.3746 37.5453C15.0218 43.2017 21.0567 44.2818 25.8294 44.1914C30.6116 44.1013 34.232 42.6484 36.2978 39.9894C38.041 37.7446 38.6175 34.6548 37.8795 31.5109C37.5352 30.0481 36.6879 26.9369 35.6915 24.5475C34.2539 21.6075 31.033 18.2075 23.8445 18.6801C20.3667 18.9073 17.7354 20.0818 16.0212 22.1717C13.2218 25.5833 13.8121 30.3458 13.8186 30.393C13.8317 30.4913 13.8092 30.5903 13.756 30.6733ZM25.2878 45.0271C20.8914 45.0271 17.5112 44.0169 15.2358 42.0223C13.3251 40.3468 12.7814 38.4804 12.5769 37.7773L12.5638 37.7324C11.3664 33.6394 12.6322 30.9762 12.9787 30.3575C12.8899 29.4826 12.598 25.0402 15.3748 21.6505C17.2397 19.373 20.0711 18.0946 23.7891 17.851C31.4472 17.3494 34.8973 21.0229 36.4426 24.1944L36.4528 24.2163C37.4718 26.6583 38.3373 29.8311 38.6874 31.321C39.4837 34.7102 38.8519 38.0553 36.9529 40.4989C34.7285 43.3632 30.8867 44.9267 25.8454 45.0219C25.6576 45.0256 25.472 45.0271 25.2878 45.0271Z" fill="#040606"/>
<path d="M36.6201 22.3667C36.6201 22.3667 38.2782 19.6613 40.7763 19.6613C43.206 19.6613 45.0359 21.4751 45.3649 22.7927C45.6939 24.11 45.8999 29.337 40.673 29.5839" fill="#F7BF7F"/>
<path d="M40.6732 29.9987C40.4527 29.9987 40.2685 29.8261 40.2576 29.6034C40.2474 29.3749 40.4243 29.1798 40.6528 29.1695C42.209 29.0954 43.3773 28.5472 44.1277 27.5389C45.2559 26.0206 45.1773 23.7534 44.9619 22.8939C44.6744 21.7423 43.0184 20.0767 40.7766 20.0767C38.5369 20.0767 36.9894 22.5589 36.9748 22.5837C36.8547 22.7787 36.5993 22.8407 36.4027 22.7204C36.2077 22.601 36.1465 22.3457 36.2666 22.1498C36.3394 22.0312 38.0769 19.2462 40.7766 19.2462C43.4712 19.2462 45.4073 21.2473 45.7684 22.692C45.9634 23.4753 46.2044 26.1363 44.7937 28.034C43.889 29.2517 42.5082 29.9128 40.6928 29.9987H40.6732Z" fill="#040606"/>
<path d="M41.4538 28.0203C42.729 27.7726 43.6367 26.4559 43.6782 25.4545C43.7189 24.4528 43.2182 22.6098 41.4538 22.3812C39.2323 22.0932 39.0547 26.2637 39.0547 26.2637C39.0547 26.2637 39.9944 26.1676 40.5905 26.6612C41.1881 27.1553 41.4538 28.0203 41.4538 28.0203Z" fill="#C6424F"/>
<path d="M38.9801 26.2608C38.9248 25.7113 38.9481 25.1616 39.034 24.6109C39.1199 24.0613 39.2713 23.5066 39.5814 22.9848C39.7364 22.7249 39.9416 22.473 40.2204 22.2785C40.4948 22.0835 40.8464 21.9641 41.1871 21.9575C41.3559 21.9518 41.5255 21.9672 41.674 22.0007C41.7504 22.0173 41.8276 22.0275 41.9033 22.0502L42.1282 22.1244C42.2039 22.1455 42.276 22.1818 42.3466 22.2169C42.4179 22.2538 42.4929 22.2822 42.5584 22.3266L42.7578 22.4591C42.8255 22.502 42.8808 22.5589 42.942 22.6084L43.113 22.7713L43.2703 22.9453C43.3627 23.0699 43.4559 23.1943 43.5279 23.3275C43.6808 23.5918 43.7994 23.8699 43.8788 24.1545C43.9617 24.4389 44.0127 24.7294 44.0287 25.0249L44.0345 25.2478L44.0258 25.4733C44.0163 25.552 44.0083 25.6313 43.9952 25.7084C43.9792 25.7841 43.9632 25.8605 43.9443 25.9341C43.862 26.2304 43.7303 26.4988 43.5723 26.7465C43.4151 26.9939 43.2266 27.2182 43.0119 27.4138C42.5904 27.809 42.043 28.0805 41.4767 28.1403C41.4091 28.1468 41.3494 28.0982 41.3428 28.0305L41.4265 27.9014L41.4309 27.9C41.9171 27.7422 42.3349 27.4445 42.6523 27.0638C42.9653 26.6845 43.2077 26.2356 43.2928 25.7769L43.319 25.6081L43.3285 25.4434L43.3227 25.2665L43.3052 25.0874C43.2732 24.848 43.2171 24.6109 43.1429 24.3823C43.0701 24.1528 42.966 23.9376 42.8423 23.7426C42.72 23.5452 42.5715 23.3735 42.4041 23.2322C42.2388 23.0838 42.0445 22.9817 41.8407 22.9024L41.6842 22.8509L41.5204 22.8165C41.4061 22.7917 41.3072 22.781 41.2089 22.7824C41.0131 22.7861 40.834 22.8375 40.6644 22.9419C40.4941 23.0442 40.3391 23.2052 40.2008 23.3931C39.9242 23.773 39.7233 24.2498 39.5508 24.7374C39.3848 25.2301 39.248 25.7456 39.1279 26.2668L39.1271 26.2696L39.0383 26.3257L38.9801 26.2608Z" fill="#040606"/>
<path d="M36.6064 39.0534L39.6432 35.0982V34.5326L38.8556 32.7282L39.0834 30.7999L40.6222 28.1912L41.476 27.0135L41.936 22.2502L42.5925 20.7589L43.5686 20.2918L44.5556 20.6213L45.0513 21.917L44.7056 25.2857L44.2215 27.0522L45.0651 27.3433L46.4117 25.9194L49.2774 22.6508L50.6975 22.3298L51.5651 23.0787L51.3249 24.8248L47.8282 28.7744L49.2505 28.9476L49.9361 30.5199L49.1318 32.6802L48.8734 34.6557L47.3361 36.3742L45.5601 37.0059L44.9167 37.1865L42.5532 42.4642L36.6064 39.0534Z" fill="#F7BF7F"/>
<path d="M44.3467 36.7868C44.3467 36.7868 45.8803 37.3306 47.0034 36.5823C48.1258 35.834 49.2453 34.3731 49.1092 32.3046C47.9424 32.8053 47.7146 36.4447 44.3467 36.7868Z" fill="#D69861"/>
<path d="M44.9163 37.1865L42.6701 42.4642L41.3672 42.0451L44.5553 36.9346L44.9163 37.1865Z" fill="#D69861"/>
<path d="M39.6416 35.2081L40.2421 35.4904L37.6982 39.8899L36.5146 39.2362L39.6416 35.2081Z" fill="#FCD4AE"/>
<path d="M40.2414 30.5198C40.2414 30.5198 41.342 29.1835 43.1413 29.1477C44.9406 29.1135 45.0316 29.519 44.9159 29.6608C44.7994 29.8019 43.086 29.5904 42.2904 29.9782C41.4956 30.3669 40.1534 31.0256 40.2414 30.5198Z" fill="#FCD4AE"/>
<path d="M41.9353 24.0423C41.9353 24.0423 41.8428 21.9641 42.4856 21.2334C43.1275 20.5026 43.7506 20.8979 43.6793 21.021C43.6094 21.1446 42.5911 21.245 42.6464 23.0881C42.661 23.591 42.4979 25.4027 41.9353 24.0423Z" fill="#FCD4AE"/>
<path d="M46.0302 26.7457C46.0302 26.7457 48.9279 22.7119 49.8603 22.4343C50.7927 22.1563 51.11 22.823 50.9849 22.8901C50.8589 22.9578 49.944 22.5006 49.0101 24.0903C48.7553 24.5233 45.7834 28.1971 46.0302 26.7457Z" fill="#FCD4AE"/>
<path d="M51.3892 23.7599C51.3892 23.7599 51.4453 24.5199 51.0114 25.014C50.5769 25.5082 49.2165 27.3461 48.7747 27.6992C48.3328 28.0529 48.0759 27.7996 48.5134 27.3432C48.9516 26.8869 50.7203 24.867 50.7188 24.6226C50.7181 24.3786 51.3012 23.4244 51.3892 23.7599Z" fill="#D69861"/>
<path d="M44.384 21.2067C44.384 21.2067 45.1264 22.4526 44.8578 23.76C44.7392 24.3366 44.3046 26.2973 44.0761 26.769C43.8483 27.2407 43.5236 27.197 43.7056 26.6556C43.8876 26.1148 44.4269 23.835 44.4451 23.6377C44.5637 22.4083 44.1685 21.0197 44.384 21.2067Z" fill="#D69861"/>
<path d="M45.3043 32.5431C45.3043 32.5431 47.1989 32.5067 47.4202 31.998C47.6415 31.4899 48.1998 31.3154 48.2878 31.6093C48.3745 31.9042 47.22 33.3025 46.6079 33.2806C45.995 33.2587 45.1201 33.3002 45.3043 32.5431Z" fill="#D69861"/>
<path d="M40.098 35.1811C39.6198 35.8601 39.0943 36.5044 38.5855 37.1617L37.8191 38.145L37.0453 39.1233C36.9383 39.2587 36.7403 39.282 36.6042 39.1743C36.4732 39.071 36.4477 38.8831 36.5416 38.7483L37.2535 37.7258L37.9726 36.7068C38.4552 36.0304 38.9189 35.3398 39.432 34.6861C39.5725 34.5056 39.8338 34.4737 40.0143 34.6147C40.1898 34.7518 40.224 35.0006 40.098 35.1811Z" fill="#231F20"/>
<path d="M42.8481 42.7104L42.6836 42.676C42.4733 42.585 42.3757 42.3413 42.4667 42.1301L44.67 37.0227C44.761 36.8123 45.0048 36.7148 45.2152 36.8057C45.4263 36.8967 45.5231 37.1404 45.4321 37.3508L43.2295 42.4599C43.1618 42.6163 43.009 42.7104 42.8481 42.7104Z" fill="#231F20"/>
<path d="M44.0335 26.914C44.217 25.9146 44.412 24.9078 44.5532 23.9172C44.618 23.425 44.6515 22.928 44.6399 22.4535C44.6253 21.9841 44.535 21.5138 44.3094 21.232C44.198 21.0924 44.059 21.0019 43.8829 20.9502C43.7118 20.9002 43.4767 20.8783 43.2976 20.8993C43.1128 20.9235 42.9679 20.9861 42.85 21.0972C42.7314 21.2081 42.6353 21.377 42.5639 21.5763C42.4933 21.7765 42.446 22.0023 42.4089 22.2402L42.3572 22.6127C42.3434 22.7133 42.3339 22.8393 42.3252 22.9607L42.24 24.4878C42.2087 25.0016 42.1694 25.5162 42.1061 26.0389C42.0734 26.3001 42.0377 26.5623 41.978 26.8352C41.9496 26.9714 41.9132 27.111 41.8579 27.2645L41.8077 27.3849L41.7771 27.448L41.7356 27.5193L41.6912 27.585L41.657 27.6308L41.5908 27.7138L41.0987 28.3041C40.9393 28.4977 40.7857 28.6928 40.6387 28.89C40.3439 29.2853 40.0739 29.6936 39.8526 30.1195C39.6313 30.5452 39.4559 30.9885 39.362 31.4368C39.3169 31.6612 39.2921 31.8852 39.2921 32.1081C39.2921 32.3242 39.3183 32.5613 39.3591 32.79C39.4413 33.2471 39.5942 33.6861 39.8322 34.0683C39.9501 34.2602 40.0906 34.4359 40.2449 34.5951C40.3221 34.6739 40.4043 34.7481 40.4909 34.8149L40.6198 34.9087L40.6846 34.9496L40.734 34.9787L40.7704 35.0006C40.9641 35.112 41.0296 35.3589 40.9182 35.5516C40.8119 35.7345 40.5834 35.8027 40.3956 35.7139L40.2769 35.652L40.178 35.5923L39.9945 35.4666C39.8773 35.3784 39.7667 35.2846 39.6633 35.1834C39.4559 34.9832 39.2747 34.7575 39.1218 34.5166C38.8117 34.0356 38.6174 33.4945 38.5111 32.9494C38.4594 32.6774 38.4237 32.4058 38.4201 32.1115C38.4172 31.8227 38.4485 31.538 38.5038 31.2614C38.6181 30.7089 38.8248 30.1943 39.073 29.7147C39.322 29.2344 39.6167 28.7874 39.9312 28.3638C40.242 27.9415 40.5914 27.5355 40.9029 27.1585L40.9553 27.0915L40.9793 27.0602L40.9881 27.0457L40.9946 27.0354L41.0055 27.0121L41.0281 26.9552C41.0594 26.8688 41.0892 26.7602 41.1125 26.6473C41.1613 26.421 41.1955 26.1764 41.2254 25.9319C41.2843 25.4406 41.3207 24.9362 41.3557 24.4318L41.4503 22.9004C41.4605 22.7685 41.4685 22.6392 41.4911 22.4862L41.5507 22.1018C41.5959 21.8367 41.6534 21.5604 41.7574 21.2801C41.8615 21.0028 42.0173 20.7103 42.2757 20.4737C42.5312 20.2326 42.8849 20.0972 43.2059 20.0674C43.369 20.0492 43.5247 20.0557 43.6754 20.071C43.8217 20.0841 43.9818 20.1168 44.1347 20.1686C44.4455 20.267 44.7483 20.4779 44.9434 20.7486C45.1421 21.0179 45.2462 21.3165 45.3088 21.6011C45.3685 21.8871 45.3874 22.1665 45.3888 22.4404C45.391 22.9877 45.3131 23.508 45.2185 24.0241C45.0198 25.0482 44.7556 26.0323 44.471 27.02C44.4368 27.1403 44.3116 27.2086 44.1922 27.1744C44.0801 27.1423 44.0124 27.0303 44.0328 26.9183L44.0335 26.914Z" fill="#231F20"/>
<path d="M43.5812 26.6692C43.7959 26.6154 43.9924 26.608 44.1977 26.6248C44.4015 26.6416 44.6039 26.6859 44.8011 26.7587C44.9984 26.833 45.1905 26.9387 45.3572 27.0849C45.5203 27.237 45.6622 27.4283 45.7139 27.6578C45.7394 27.7707 45.668 27.8827 45.5552 27.908L45.438 27.9009L45.4045 27.8884C45.2262 27.8244 45.0894 27.767 44.9445 27.7101C44.7997 27.655 44.6555 27.5986 44.5063 27.5383L44.0405 27.362C43.8825 27.3018 43.7115 27.237 43.5564 27.1577L43.5273 27.1431C43.4021 27.0792 43.3526 26.9253 43.4167 26.8003C43.4509 26.7326 43.5128 26.6874 43.5812 26.6692Z" fill="#231F20"/>
<path d="M44.9085 31.2636C44.8605 31.3546 44.8146 31.4209 44.7585 31.4894C44.704 31.5576 44.6435 31.6196 44.578 31.6765C44.4485 31.7922 44.3 31.8889 44.1369 31.9645C43.9732 32.0396 43.7905 32.0891 43.6005 32.097C43.4091 32.1001 43.2089 32.0606 43.0437 31.9486C42.9461 31.8815 42.9206 31.7493 42.9876 31.6515L43.0553 31.5875L43.0946 31.5656C43.2329 31.4843 43.3399 31.4316 43.4491 31.3737C43.5575 31.3154 43.6638 31.2622 43.7766 31.2082L44.1231 31.0293C44.241 30.971 44.3735 30.9048 44.5001 30.8624L44.5547 30.8451C44.7098 30.7934 44.8765 30.8772 44.9274 31.0322C44.9536 31.1124 44.9442 31.1951 44.9085 31.2636Z" fill="#231F20"/>
<path d="M44.2195 31.4927C44.2806 31.5855 44.32 31.6565 44.3651 31.7381C44.4066 31.8169 44.4481 31.8968 44.4844 31.9775C44.5594 32.1393 44.6206 32.3051 44.6737 32.4754C44.7807 32.8141 44.8375 33.1715 44.8382 33.5294C44.8469 33.8882 44.761 34.2488 44.6257 34.5746C44.4961 34.9067 44.2654 35.1782 44.0339 35.4213L43.8701 35.425L43.8497 35.2846L43.8578 35.272L43.9735 35.0682C44.0128 35.0013 44.0514 34.9357 44.0761 34.8629L44.1635 34.6533C44.186 34.582 44.1999 34.5084 44.2195 34.4372C44.2865 34.1489 44.301 33.8541 44.2544 33.5658C44.2115 33.2778 44.1198 32.9974 43.999 32.7288C43.9385 32.5948 43.8687 32.464 43.7922 32.3386L43.6758 32.153L43.5549 31.9915C43.4065 31.8161 43.4276 31.5542 43.6023 31.4049C43.777 31.2562 44.0397 31.2775 44.1889 31.4521L44.2173 31.4908L44.2195 31.4927Z" fill="#231F20"/>
<path d="M44.9832 27.0013C45.8116 25.9991 46.6326 24.9959 47.4871 24.0082C47.5941 23.8836 47.7011 23.7614 47.8147 23.6348L47.9748 23.4585L48.1299 23.2794C48.3402 23.0343 48.56 22.7745 48.8213 22.5314C49.0819 22.2917 49.3949 22.0569 49.7967 21.9365C49.9954 21.8777 50.2145 21.8572 50.4256 21.8806C50.636 21.903 50.8361 21.9678 51.013 22.0537C51.1877 22.1404 51.3522 22.2445 51.5065 22.3821C51.6586 22.5189 51.7918 22.6906 51.8835 22.8828C52.0699 23.2715 52.0735 23.6966 52.0044 24.0619C51.9352 24.4324 51.7845 24.7833 51.5815 25.0892C51.4832 25.2405 51.3551 25.3903 51.2474 25.5091L50.9271 25.8745C50.074 26.8512 49.2137 27.8216 48.3438 28.7838C48.2405 28.8981 48.0651 28.9069 47.9515 28.8042C47.8409 28.7045 47.83 28.537 47.9217 28.4227C48.7405 27.4139 49.5681 26.4124 50.4045 25.4168L50.7167 25.0426C50.8245 24.918 50.9038 24.8176 50.9824 24.6959C51.1353 24.4603 51.2408 24.201 51.2874 23.9312C51.3347 23.6624 51.3172 23.4063 51.2168 23.2061C51.1666 23.1063 51.0967 23.0161 51.0072 22.9368C50.9176 22.8595 50.8063 22.789 50.6891 22.7344C50.4569 22.6252 50.2349 22.6028 50.0136 22.6704C49.7901 22.7395 49.5631 22.8982 49.352 23.0998C49.1394 23.3007 48.9414 23.5393 48.7333 23.7889L48.5717 23.9806L48.4079 24.1668C48.3053 24.2826 48.2005 24.4071 48.0971 24.5293C47.271 25.52 46.4448 26.5245 45.6252 27.5273L45.6245 27.529C45.4796 27.7065 45.2183 27.7329 45.0407 27.5879C44.8624 27.4432 44.8362 27.181 44.9818 27.0033L44.9832 27.0013Z" fill="#231F20"/>
<path d="M40.0186 30.5022C40.2369 30.1391 40.5237 29.8582 40.8418 29.6026C41.1628 29.3538 41.518 29.1434 41.895 28.9862C42.0828 28.9046 42.2764 28.8369 42.4715 28.7786C42.6688 28.724 42.8667 28.674 43.0684 28.6396C43.4694 28.5631 43.8778 28.5398 44.2825 28.5406L44.586 28.548L44.8822 28.5696C45.0795 28.5858 45.2782 28.604 45.4769 28.6324C45.8744 28.687 46.2747 28.765 46.6743 28.8906C47.071 29.0245 47.4764 29.2008 47.8353 29.5275C48.0107 29.6936 48.1737 29.9003 48.2691 30.1545C48.3178 30.2796 48.3499 30.4149 48.3593 30.5525C48.3644 30.6217 48.3637 30.6921 48.3579 30.7621L48.344 30.8707L48.3324 30.9281L48.3113 31.0038L48.3215 30.9674C48.2996 31.0504 48.2829 31.0962 48.2611 31.1573L48.1934 31.3256C48.1446 31.4348 48.09 31.5408 48.0289 31.6435C47.9044 31.8497 47.7552 32.0452 47.571 32.2136C47.3876 32.3831 47.1707 32.523 46.937 32.6182C46.7034 32.7166 46.4537 32.7646 46.2114 32.7791C45.7804 32.7959 45.3306 32.7879 44.875 32.6634C44.6501 32.6 44.428 32.5053 44.2286 32.3839C44.0299 32.2608 43.8523 32.1146 43.6929 31.9588C43.5779 31.8468 43.5757 31.6625 43.6878 31.5468C43.7941 31.4391 43.9622 31.4303 44.0779 31.5226L44.0816 31.5258C44.3771 31.7638 44.6937 31.9295 45.0409 31.9966C45.3859 32.0685 45.7703 32.0569 46.1582 32.0222C46.4938 31.9907 46.7871 31.8561 47.0164 31.6267C47.1343 31.5141 47.234 31.3779 47.3192 31.2295C47.3607 31.1553 47.3985 31.0774 47.432 30.998L47.4764 30.8778L47.5077 30.7737L47.5186 30.7373L47.5157 30.7439L47.5179 30.7303L47.5208 30.6958L47.5194 30.6179L47.48 30.4579C47.4407 30.3515 47.3614 30.2469 47.2588 30.1499C47.1532 30.0546 47.0222 29.9679 46.8774 29.8938C46.7318 29.8195 46.5716 29.7593 46.4086 29.7015C45.7448 29.4846 44.9892 29.401 44.2614 29.3595C43.5371 29.3297 42.8129 29.3995 42.1229 29.6068C41.7793 29.7132 41.4423 29.8485 41.1257 30.0263C40.8098 30.1994 40.4982 30.4178 40.2471 30.6631L40.2355 30.6733L40.0382 30.6705L40.0186 30.5022Z" fill="#231F20"/>
<path d="M49.1092 32.7203C48.9971 32.7203 48.8851 32.6743 48.8035 32.5847C48.6485 32.4158 48.6601 32.1531 48.8297 31.9981C49.2985 31.5693 49.5496 31.0047 49.5183 30.4491C49.4943 30.0118 49.2985 29.6385 48.968 29.3988C48.1011 28.767 47.0886 29.5335 47.0464 29.5663C46.8644 29.7061 46.6046 29.674 46.4641 29.4935C46.3229 29.3129 46.3549 29.0539 46.5347 28.912C46.5966 28.8631 48.0778 27.7247 49.4564 28.7269C49.9849 29.1114 50.3095 29.7221 50.3481 30.4028C50.3925 31.2082 50.0438 32.0126 49.3895 32.6112C49.3101 32.6839 49.2097 32.7203 49.1092 32.7203Z" fill="#231F20"/>
<path d="M45.5749 32.5898L45.5684 32.6247L45.564 32.6756L45.5618 32.7834C45.564 32.8556 45.572 32.9275 45.5873 32.9966C45.6171 33.1342 45.6717 33.2602 45.7554 33.3665C45.8384 33.4728 45.952 33.5621 46.091 33.6284C46.23 33.6955 46.3923 33.7427 46.5401 33.7529C46.6908 33.764 46.8407 33.7407 46.9877 33.6796C47.1355 33.6184 47.2752 33.5201 47.407 33.4035C47.6668 33.1669 47.8881 32.8635 48.0796 32.5425L48.2426 32.5002L48.2906 32.6503C48.1356 33.0063 47.9478 33.3563 47.6814 33.6707C47.5453 33.8266 47.3873 33.9727 47.1944 34.0856C47.0023 34.1985 46.773 34.269 46.5423 34.2806C46.3086 34.2937 46.0924 34.2581 45.8755 34.1905C45.6579 34.122 45.441 34.0034 45.2619 33.8323C45.0821 33.6628 44.9497 33.445 44.8667 33.2195C44.8252 33.1066 44.7953 32.9909 44.775 32.8744L44.7531 32.6961L44.748 32.6051L44.7495 32.4967C44.7757 32.2687 44.9817 32.1049 45.2095 32.1306C45.4373 32.1562 45.6004 32.362 45.5749 32.5898Z" fill="#231F20"/>
<path d="M44.4063 36.495L44.5904 36.5814C44.6589 36.6085 44.7295 36.6332 44.8008 36.6528C44.9435 36.6929 45.0898 36.7199 45.2375 36.7316C45.533 36.7563 45.8329 36.7265 46.119 36.6434C46.4058 36.5627 46.6809 36.4339 46.9364 36.2707L47.1264 36.1427L47.3105 36.0014C47.419 35.9133 47.5311 35.8049 47.6337 35.6949C48.0471 35.246 48.3645 34.708 48.5436 34.1331C48.7248 33.5573 48.7714 32.9466 48.6964 32.3452C48.668 32.118 48.8296 31.9099 49.0574 31.8815C49.2853 31.8533 49.4927 32.0154 49.5204 32.2426L49.5225 32.2602V32.2645C49.5793 32.9719 49.4912 33.7012 49.2452 34.3731C49.0007 35.0458 48.604 35.652 48.1017 36.1498C47.9743 36.2744 47.8448 36.3915 47.6927 36.5044L47.4772 36.6537C47.4015 36.6995 47.3294 36.7498 47.2508 36.7918C46.9444 36.9695 46.6103 37.1091 46.2587 37.1916C45.9079 37.2752 45.5396 37.2963 45.1807 37.2505C45.0017 37.2272 44.8248 37.1865 44.6523 37.1304C44.5664 37.1012 44.482 37.0685 44.399 37.0312C44.3131 36.9914 44.2389 36.9556 44.1435 36.8945C44.0329 36.8231 44.0009 36.6755 44.0722 36.5647C44.1406 36.4572 44.2811 36.4242 44.3903 36.4871L44.4063 36.495Z" fill="#231F20"/>
<path d="M31.5185 45.0052L31.5643 44.7658L31.8628 44.2432C32.9066 42.4169 34.2284 40.7647 35.7824 39.3482L36.2992 38.8773C36.2992 38.8773 42.4826 41.8324 42.8181 42.6637C42.2919 43.9511 39.6103 47.7203 39.6103 47.7203C39.6103 47.7203 35.8894 51.5052 32.9408 49.0799C31.7492 48.1001 31.2273 46.5206 31.5185 45.0052Z" fill="#EBEBE9"/>
<path d="M38.4383 45.8458C38.4383 45.8458 39.6815 55.3279 35.2422 56.6301C38.5322 55.592 40.4524 54.3825 40.4524 54.3825L38.4383 45.8458Z" fill="#C1C0B8"/>
<path d="M19.3541 57.3516H19.3519C18.6742 57.3473 16.4294 57.2591 15.976 56.2961C15.3332 54.9291 16.1106 52.0889 18.2258 48.0813C18.3328 47.8789 18.5832 47.801 18.7863 47.9079C18.9894 48.015 19.0673 48.2662 18.9603 48.4692C16.2169 53.667 16.4848 55.427 16.7271 55.9425C16.8793 56.2654 18.2404 56.5136 19.3562 56.5211C19.5855 56.5224 19.7704 56.7096 19.769 56.939C19.7682 57.1673 19.5819 57.3516 19.3541 57.3516Z" fill="#231F20"/>
<path d="M17.3255 43.2904L17.1981 43.4053L17.0642 43.5415C16.9776 43.6339 16.9034 43.736 16.8298 43.8349C16.6886 44.0393 16.5962 44.2605 16.5482 44.4835C16.5045 44.7061 16.5059 44.9362 16.5663 45.1684C16.6311 45.4121 16.7352 45.6575 16.8648 45.8949C17.1334 46.368 17.5017 46.8024 17.9093 47.1999C18.3249 47.5872 18.7798 47.954 19.2748 48.2218L19.2799 48.2241C19.384 48.2807 19.4218 48.4095 19.3658 48.5135C19.3148 48.6091 19.202 48.6483 19.1037 48.6119C18.5112 48.3893 17.9886 48.0558 17.498 47.6745C17.2564 47.4794 17.0213 47.2733 16.8036 47.0442C16.5896 46.8127 16.3858 46.5668 16.2075 46.2958C16.0321 46.0223 15.8785 45.7274 15.7693 45.4019C15.6616 45.0621 15.6303 44.6814 15.6973 44.3211C15.7599 43.9577 15.9193 43.626 16.1151 43.3414C16.2162 43.2003 16.3247 43.0655 16.4477 42.947L16.6355 42.7721L16.7374 42.6914L16.8539 42.6069C17.0438 42.4787 17.3008 42.5276 17.4296 42.7169C17.5497 42.8938 17.5148 43.1295 17.3554 43.2657L17.3255 43.2904Z" fill="#231F20"/>
<path d="M42.5436 42.3465C42.5436 42.3465 43.0851 42.4971 42.6622 43.4846C42.0282 44.9668 40.2464 47.5391 39.3904 47.9698C38.7055 46.4954 38.3779 45.7288 38.3779 45.7288C38.3779 45.7288 39.56 47.0992 42.5436 42.3465Z" fill="#C1C0B8"/>
<path d="M40.2903 54.9263C40.0836 54.9263 39.9052 54.7727 39.879 54.5623C39.6315 52.5789 38.7996 47.1356 37.9341 45.7914C37.8104 45.5986 37.8657 45.3424 38.0586 45.2179C38.2507 45.0933 38.5084 45.1493 38.6322 45.3424C39.7771 47.1206 40.6659 54.1611 40.703 54.4597C40.7314 54.6869 40.5698 54.895 40.3427 54.9234L40.2903 54.9263Z" fill="#231F20"/>
<path d="M39.1877 48.6031C39.0858 48.6031 38.9839 48.5653 38.9038 48.4911C38.7364 48.3338 38.7284 48.0711 38.8849 47.9037C41.3088 45.3168 42.1182 43.4454 42.3438 42.8079C41.6945 42.2939 39.5611 40.7079 36.3737 39.3562C32.7314 42.3877 31.9802 45.3277 31.9722 45.3575C31.9184 45.5804 31.6956 45.718 31.4722 45.6632C31.2494 45.6103 31.1126 45.3868 31.1657 45.1639C31.1978 45.0294 31.9984 41.8324 36.0418 38.5541C36.1605 38.458 36.3221 38.4347 36.4625 38.493C40.5758 40.1947 42.9931 42.262 43.0942 42.3493C43.2107 42.4497 43.2617 42.6061 43.2275 42.7554C43.2063 42.8486 42.6721 45.0774 39.4912 48.4715C39.409 48.5587 39.2984 48.6031 39.1877 48.6031Z" fill="#231F20"/>
<path d="M17.6188 14.9003C17.6188 14.9003 20.2705 7.58792 28.7554 9.79689C26.5717 10.5765 25.7958 11.6138 25.7958 11.6138C25.7958 11.6138 34.2509 7.31496 38.2477 19.9545C34.8885 17.1764 29.7984 16.9804 29.1848 17.3117C31.442 17.923 32.282 20.0006 32.282 20.0006C32.282 20.0006 30.0226 18.4603 27.5842 18.5331C24.4492 18.627 23.2031 21.1157 23.2031 21.1157C23.2031 21.1157 19.4844 17.9071 17.4099 20.3333C17.4099 20.3333 14.0711 16.9916 16.1754 11.568C16.757 13.0536 18.164 13.5929 18.164 13.5929" fill="#3A1E19"/>
<path d="M13.0137 36.0997C13.0137 36.0997 15.7585 39.1059 19.7939 40.0252C23.2288 41.7559 26.3375 40.8082 26.3375 40.8082C26.3375 40.8082 29.3932 40.2304 29.6618 38.7499C28.6944 38.7468 22.9005 38.5475 22.9005 38.5475L13.0137 36.0997Z" fill="#D69861"/>
<path d="M23.2231 21.7592L22.822 21.441C22.7929 21.4168 19.8115 19.095 17.5929 20.6903C17.4066 20.8243 17.1467 20.7813 17.0135 20.5951C16.8796 20.4094 16.9225 20.1495 17.1089 20.0165C19.3384 18.4129 21.9871 19.8695 22.9603 20.5194C23.4873 19.7552 24.8746 18.196 27.4499 18.118C29.9945 18.041 32.4111 19.6415 32.5138 19.7094C32.7037 19.8368 32.7554 20.0949 32.6273 20.2858C32.4999 20.4757 32.2423 20.5274 32.0515 20.3992C32.021 20.379 29.7456 18.8832 27.4746 18.948C24.6199 19.0338 23.4633 21.2792 23.4516 21.3011L23.2231 21.7592Z" fill="#040606"/>
<path d="M18.9961 38.367C18.9961 38.367 20.2437 40.3084 24.7063 40.5367C29.1689 40.7653 30.3321 37.7244 30.3321 37.7244C30.3321 37.7244 26.5457 39.4537 18.9961 38.367Z" fill="#CF616D"/>
<path d="M19.6897 38.7151C20.3732 39.2755 21.8734 40.1387 24.7194 40.2843C27.7561 40.4409 29.1973 39.0213 29.7738 38.1976C28.4374 38.6232 25.0921 39.3884 19.6897 38.7151ZM25.1736 40.8018C25.0171 40.8018 24.8577 40.7975 24.6939 40.7895C20.1534 40.5567 18.8381 38.5877 18.7835 38.5038L18.4844 38.0381L19.0325 38.1174C26.4226 39.1803 30.1894 37.5109 30.2273 37.4936L30.7892 37.2374L30.5679 37.8146C30.5563 37.8453 29.3749 40.8018 25.1736 40.8018Z" fill="#231F20"/>
<path d="M32.6978 27.9344C32.6978 29.9512 31.0623 31.5861 29.0461 31.5861C27.0291 31.5861 25.3936 29.9512 25.3936 27.9344C25.3936 25.9165 27.0291 24.2816 29.0461 24.2816C31.0623 24.2816 32.6978 25.9165 32.6978 27.9344Z" fill="#D69861"/>
<path d="M22.1635 28.0138C22.1635 29.7147 20.7834 31.0942 19.0831 31.0942C17.3813 31.0942 16.002 29.7147 16.002 28.0138C16.002 26.3118 17.3813 24.9325 19.0831 24.9325C20.7834 24.9325 22.1635 26.3118 22.1635 28.0138Z" fill="#D69861"/>
<path d="M32.2188 27.5113C32.2188 29.4541 30.6437 31.0299 28.7002 31.0299C26.7568 31.0299 25.1816 29.4541 25.1816 27.5113C25.1816 25.5688 26.7568 23.9922 28.7002 23.9922C30.6437 23.9922 32.2188 25.5688 32.2188 27.5113Z" fill="white"/>
<path d="M21.7249 27.593C21.7249 29.2322 20.3965 30.5605 18.7574 30.5605C17.1182 30.5605 15.7891 29.2322 15.7891 27.593C15.7891 25.9539 17.1182 24.6246 18.7574 24.6246C20.3965 24.6246 21.7249 25.9539 21.7249 27.593Z" fill="white"/>
<path d="M29.8845 28.1833C29.3961 28.1833 29.0001 27.7872 29.0001 27.2996C29.0001 27.2262 29.0103 27.1548 29.0278 27.0863C28.2817 27.1358 27.6914 27.7539 27.6914 28.5122C27.6914 29.3021 28.3327 29.9426 29.1217 29.9426C29.9122 29.9426 30.5527 29.3021 30.5527 28.5122C30.5527 28.3237 30.5156 28.1445 30.4493 27.9794C30.2965 28.1068 30.0992 28.1833 29.8845 28.1833Z" fill="#040606"/>
<path d="M20.4171 28.2233C19.9636 28.2233 19.5888 27.8957 19.5138 27.4642C18.9861 27.5907 18.5938 28.0638 18.5938 28.6308C18.5938 29.2941 19.1309 29.8312 19.794 29.8312C20.4571 29.8312 20.9943 29.2941 20.9943 28.6308C20.9943 28.4409 20.9492 28.262 20.8713 28.1025C20.7366 28.179 20.5823 28.2233 20.4171 28.2233Z" fill="#040606"/>
<path d="M36.4404 39.6744C34.7532 40.825 33.3316 42.6433 33.4372 43.1019C33.5434 43.5611 36.4047 43.2438 37.4653 42.0769C38.5251 40.9118 38.5185 40.0434 36.4404 39.6744Z" fill="white"/>
<path d="M32.0591 51.8328C31.6799 51.1916 33.025 48.7001 35.0507 48.6992C36.0166 48.6992 35.8521 49.7831 35.6869 50.2655C35.5217 50.7483 32.9777 53.3869 32.0591 51.8328Z" fill="white"/>
<path d="M31.1982 36.8814C29.4695 40.3389 22.0284 39.6729 20.7481 39.3963C14.6928 38.0847 11.0469 34.4393 11.0469 34.4393L11.3679 32.5636" fill="#F7BF7F"/>
<path d="M31.569 37.0662C31.3296 37.5356 30.9853 37.9433 30.5937 38.2709C30.2013 38.5993 29.7646 38.8527 29.3162 39.0557C28.4151 39.4596 27.4681 39.6744 26.5241 39.8054C25.5778 39.9362 24.6294 39.9734 23.6846 39.9595C23.2115 39.9515 22.7406 39.9291 22.2689 39.8904C21.7972 39.8504 21.3299 39.8022 20.8517 39.7158L20.6698 39.678L20.4987 39.6343L20.1551 39.5461C19.928 39.485 19.6966 39.4332 19.4717 39.365L18.7962 39.1523C18.6841 39.1159 18.5698 39.084 18.4599 39.0431L18.128 38.9203C17.9074 38.8378 17.6854 38.7585 17.4663 38.6721L16.8156 38.3954C16.5973 38.3067 16.3869 38.2018 16.1744 38.1C15.9633 37.9957 15.7471 37.9027 15.5418 37.7875C14.7026 37.3605 13.899 36.8669 13.1245 36.3355C12.3501 35.7984 11.6105 35.2263 10.9242 34.5624L10.8594 34.4999L10.8754 34.4103L11.2168 32.5383C11.2321 32.4544 11.3121 32.3998 11.3944 32.4151C11.4766 32.4296 11.5312 32.5084 11.5181 32.5898L11.2175 34.4686L11.1687 34.317C11.8355 34.9343 12.5852 35.4913 13.3524 35.9986C14.1246 36.5029 14.9224 36.9695 15.7522 37.369C15.956 37.4782 16.17 37.5649 16.3782 37.6624C16.5885 37.7577 16.796 37.8552 17.0122 37.9376L17.6527 38.1939C17.8689 38.2737 18.0865 38.346 18.3034 38.4224L18.6288 38.535C18.7387 38.5723 18.8493 38.6012 18.96 38.6343L19.6216 38.8262C19.8421 38.889 20.0685 38.934 20.2912 38.9886L20.6268 39.0673L20.7942 39.1065L20.9551 39.1364C21.3947 39.2063 21.8562 39.2447 22.3126 39.274C22.7711 39.301 23.2304 39.3127 23.689 39.3104C24.6054 39.3045 25.5225 39.2478 26.42 39.1028C27.3153 38.961 28.1989 38.7352 28.9916 38.3576C29.7814 37.9843 30.4743 37.431 30.8266 36.6957C30.9256 36.4884 31.1738 36.4012 31.3805 36.5001C31.5872 36.5991 31.6746 36.8473 31.5756 37.054L31.5719 37.0619L31.569 37.0662Z" fill="#040606"/>
<path d="M26.9928 22.516C27.1602 22.4307 27.3058 22.3667 27.4659 22.3136C27.6231 22.2599 27.7825 22.2183 27.9434 22.1819C28.2651 22.1128 28.5934 22.0816 28.9253 22.0799C29.587 22.0751 30.2661 22.2038 30.9088 22.4774C31.5464 22.7548 32.1535 23.1836 32.5895 23.7549C33.0284 24.3204 33.286 25.0105 33.2831 25.6889C33.2817 25.8686 33.1354 26.0141 32.9556 26.0127C32.8712 26.0127 32.794 25.98 32.7365 25.9269L32.7205 25.9115C32.2707 25.4952 31.89 25.156 31.4707 24.9013C31.0631 24.6371 30.6366 24.4412 30.1809 24.2686C29.7231 24.102 29.2383 23.9558 28.7237 23.8168L27.9325 23.6056L27.5205 23.4907C27.3859 23.4521 27.2352 23.4083 27.1093 23.3596L27.0343 23.3307C26.8043 23.2416 26.69 22.9832 26.7795 22.7526C26.8203 22.6471 26.8989 22.5646 26.9928 22.516Z" fill="#040606"/>
<path d="M15.1656 25.0855C15.2748 24.8103 15.413 24.5942 15.5761 24.3795C15.7399 24.1682 15.9269 23.9775 16.1315 23.8043C16.5398 23.4572 17.0304 23.1865 17.5741 23.0278C18.1164 22.8711 18.7198 22.8305 19.2883 22.9672C19.8546 23.0998 20.3706 23.4048 20.7106 23.8402C20.8059 23.9624 20.7834 24.1398 20.6611 24.2353L20.4798 24.2951H20.4594C19.9623 24.2789 19.5576 24.2723 19.1733 24.3348C18.7911 24.3852 18.4345 24.4841 18.0691 24.6078C17.7059 24.7389 17.3339 24.891 16.9452 25.0627L16.3455 25.3264C16.1402 25.4122 15.9204 25.5112 15.7013 25.5805L15.6409 25.5993C15.4371 25.6627 15.2194 25.5498 15.1554 25.3454C15.1277 25.2572 15.1335 25.1662 15.1656 25.0855Z" fill="#040606"/>
<path d="M13.6846 32.4078C13.6846 32.4078 22.2976 32.2025 22.901 25.4545C22.901 25.4545 23.0044 26.7647 23.2446 28.0507C23.4462 29.1258 23.7432 30.185 24.1551 30.4471C25.0606 31.0214 27.812 32.8264 27.812 32.8264L21.1978 34.8149C21.1978 34.8149 13.916 34.0669 13.6846 32.4078Z" fill="#F7BF7F"/>
<path d="M13.6742 31.993C13.9108 31.9865 14.175 31.9654 14.4269 31.9392C14.6816 31.9114 14.9356 31.8796 15.1897 31.8386C15.6963 31.7579 16.2 31.6524 16.6935 31.517C17.6819 31.2455 18.6376 30.8619 19.4995 30.3306C20.3533 29.794 21.1139 29.1056 21.6445 28.2575C22.1926 27.419 22.4838 26.4327 22.5951 25.4267L22.5959 25.4202C22.6141 25.2521 22.7655 25.1299 22.9343 25.1481C23.101 25.1668 23.2218 25.3155 23.2073 25.4813C23.1083 26.5697 22.8055 27.6672 22.2115 28.6112C21.6358 29.5663 20.8045 30.3422 19.886 30.9404C18.9608 31.5344 17.9447 31.9594 16.9046 32.2645C16.3841 32.4167 15.8557 32.5375 15.3221 32.6313C14.7842 32.7246 14.2602 32.7951 13.6939 32.823C13.4646 32.8343 13.2695 32.6574 13.2593 32.4283C13.2477 32.1997 13.4238 32.0047 13.6531 31.9938L13.6597 31.993H13.6742Z" fill="#231F20"/>
<path d="M11.0469 34.4393C11.0469 34.4393 15.9368 38.8612 20.8842 39.4232C25.8316 39.9837 29.9776 39.1364 31.1982 36.8814C25.9029 40.4079 16.669 37.7244 13.6847 34.4481C14.104 33.172 14.053 33.0884 14.0181 32.8294C13.839 32.6662 11.5098 33.9539 11.5098 33.9539L11.0469 34.4393Z" fill="#D69861"/>
<path d="M7.96094 32.1996C7.96167 31.4311 8.38093 30.5525 10.7065 30.5198C10.7065 30.5198 14.0322 30.455 14.1297 32.1021C14.2265 33.7492 11.8362 35.17 11.0457 35.1381C10.2545 35.1055 7.95876 33.9596 7.96094 32.1996Z" fill="#040606"/>
<path d="M10.6197 31.3612C10.6648 31.5767 10.2194 31.8533 9.62395 31.9776C9.02927 32.103 8.50956 32.0288 8.46516 31.8118C8.4193 31.5954 8.86477 31.3191 9.46018 31.1937C10.0549 31.0695 10.5746 31.1442 10.6197 31.3612Z" fill="#CC7F1F"/>
<path d="M31.569 37.0662C31.3296 37.5356 30.9853 37.9433 30.5937 38.2709C30.2013 38.5993 29.7646 38.8527 29.3162 39.0557C28.4151 39.4596 27.4681 39.6744 26.5241 39.8054C25.5778 39.9362 24.6294 39.9734 23.6846 39.9595C23.2115 39.9515 22.7406 39.9291 22.2689 39.8904C21.7972 39.8504 21.3299 39.8022 20.8517 39.7158L20.6698 39.678L20.4987 39.6343L20.1551 39.5461C19.928 39.485 19.6966 39.4332 19.4717 39.365L18.7962 39.1523C18.6841 39.1159 18.5698 39.084 18.4599 39.0431L18.128 38.9203C17.9074 38.8378 17.6854 38.7585 17.4663 38.6721L16.8156 38.3954C16.5973 38.3067 16.3869 38.2018 16.1744 38.1C15.9633 37.9957 15.7471 37.9027 15.5418 37.7875C14.7026 37.3605 13.899 36.8669 13.1245 36.3355C12.3501 35.7984 11.6105 35.2263 10.9242 34.5624L10.8594 34.4999L10.8754 34.4103L11.2168 32.5383C11.2321 32.4544 11.3121 32.3998 11.3944 32.4151C11.4766 32.4296 11.5312 32.5084 11.5181 32.5898L11.2175 34.4686L11.1687 34.317C11.8355 34.9343 12.5852 35.4913 13.3524 35.9986C14.1246 36.5029 14.9224 36.9695 15.7522 37.369C15.956 37.4782 16.17 37.5649 16.3782 37.6624C16.5885 37.7577 16.796 37.8552 17.0122 37.9376L17.6527 38.1939C17.8689 38.2737 18.0865 38.346 18.3034 38.4224L18.6288 38.535C18.7387 38.5723 18.8493 38.6012 18.96 38.6343L19.6216 38.8262C19.8421 38.889 20.0685 38.934 20.2912 38.9886L20.6268 39.0673L20.7942 39.1065L20.9551 39.1364C21.3947 39.2063 21.8562 39.2447 22.3126 39.274C22.7711 39.301 23.2304 39.3127 23.689 39.3104C24.6054 39.3045 25.5225 39.2478 26.42 39.1028C27.3153 38.961 28.1989 38.7352 28.9916 38.3576C29.7814 37.9843 30.4743 37.431 30.8266 36.6957C30.9256 36.4884 31.1738 36.4012 31.3805 36.5001C31.5872 36.5991 31.6746 36.8473 31.5756 37.054L31.5719 37.0619L31.569 37.0662Z" fill="#040606"/>
<path d="M15.3421 32.9153C14.457 33.242 15.6566 33.341 16.268 33.2463C16.8809 33.1524 23.7586 31.9216 23.359 28.6032C23.0591 26.1278 22.6537 28.8574 21.7249 29.925C19.5667 32.4078 15.3421 32.9153 15.3421 32.9153Z" fill="#FCD4AE"/>
<path d="M10.6377 52.9041C10.6377 52.9041 10.9281 51.6676 11.6313 51.5496C12.3337 51.4316 12.5731 51.621 12.4771 51.7614C12.3802 51.9028 11.6509 51.8547 11.4151 52.2084C11.1792 52.5621 10.7556 53.3403 10.6377 52.9041Z" fill="#FCD4AE"/>
<path d="M13.8809 52.6805C13.8809 52.6805 13.9354 51.6907 14.5716 51.4085C15.2078 51.1258 15.7733 51.0544 15.844 51.2904C15.9146 51.5262 14.8548 51.3843 14.525 52.0445C14.1953 52.7038 14.0148 53.1983 13.8809 52.6805Z" fill="#FCD4AE"/>
<path d="M13.2027 50.1629C13.2027 50.1629 13.9808 49.3944 14.4481 49.4475C14.9169 49.4999 15.1549 49.845 15.0406 49.9244C14.9256 50.0037 14.6599 49.5889 14.4044 49.7037C14.1482 49.818 12.9378 50.5692 13.2027 50.1629Z" fill="#FCD4AE"/>
<path d="M21.1841 48.8574C21.1841 48.8574 22.2795 48.3973 22.9157 48.6265C22.9863 49.7751 23.1079 51.5425 23.1079 51.5425C23.1079 51.5425 21.8559 51.8954 20.8311 51.5425C20.9723 50.447 21.1841 48.8574 21.1841 48.8574Z" fill="#C1C0B8"/>
<path d="M21.2116 51.2892C21.7837 51.4106 22.398 51.3335 22.7416 51.2695C22.7074 50.7709 22.6375 49.7379 22.5858 48.9119C22.2619 48.8886 21.8193 48.9955 21.4991 49.1069C21.4445 49.519 21.3171 50.4791 21.2116 51.2892ZM21.8776 52.0455C21.5071 52.0455 21.1002 52.0017 20.7173 51.8692L20.4502 51.7777L20.4866 51.4979C20.6285 50.4026 20.8411 48.8116 20.8411 48.8116L20.8665 48.6148L21.05 48.5377C21.1744 48.486 22.291 48.0333 23.032 48.3018L23.246 48.3783L23.2598 48.6063C23.3297 49.7402 23.4505 51.501 23.452 51.5183L23.4716 51.7993L23.2008 51.8752C23.1645 51.886 22.5858 52.0455 21.8776 52.0455Z" fill="#353436"/>
<path d="M27.403 48.6264C27.403 48.6264 28.778 48.1169 29.3094 48.5574C29.3465 49.246 29.5969 51.2593 29.5969 51.2593C29.5969 51.2593 28.1804 51.7899 27.085 51.0475L27.403 48.6264Z" fill="#C1C0B8"/>
<path d="M27.4563 50.867C28.0954 51.1988 28.8349 51.0976 29.2163 51.0088C29.153 50.4806 29.0227 49.3754 28.9754 48.7649C28.6901 48.6657 28.1361 48.759 27.7176 48.8863L27.4563 50.867ZM28.4797 51.7899C27.9847 51.7899 27.4105 51.6867 26.89 51.3341L26.7139 51.2142L27.0865 48.3754L27.2816 48.3026C27.5429 48.206 28.8771 47.7502 29.5293 48.291L29.6458 48.3879L29.6545 48.5392C29.6902 49.2073 29.9369 51.1968 29.9398 51.217L29.9726 51.4879L29.7178 51.5841C29.68 51.5977 29.1537 51.7899 28.4797 51.7899Z" fill="#353436"/>
<path d="M36.2549 22.7713C36.7324 23.0721 37.4304 22.1972 37.4304 22.1972C37.4304 22.1972 37.5359 22.8421 37.386 23.8248C37.5629 23.6194 38.5171 24.011 38.5171 24.011C38.5171 24.011 37.8271 24.03 37.8104 24.1602C37.7929 24.2913 38.6227 24.4542 38.6583 24.744C38.2515 24.5731 38.2194 24.9442 38.2194 24.9442C38.2194 24.9442 38.4633 24.9442 38.6583 25.2973C38.2696 25.156 38.8265 25.8184 38.8265 25.8184C38.8265 25.8184 38.8389 25.9865 38.5805 25.8184C38.817 26.1634 39.0463 26.4638 39.4532 26.5165C39.1526 26.6401 39.0252 26.6043 39.0252 26.6043C39.0252 26.6043 39.7363 26.817 39.8593 27.0112C39.4 26.8701 39.435 27.2588 39.435 27.2588C39.435 27.2588 39.9656 27.2006 39.9656 27.5304C39.665 27.4002 39.6825 27.7917 39.6825 27.7917L40.0362 28.0385L39.8943 28.3717L38.8876 28.5332L36.2549 22.7713Z" fill="#4C2A20"/>
</g>
<path d="M34.8652 34.0222C34.8652 34.7566 33.9429 35.3514 32.8045 35.3514C31.6661 35.3514 30.7432 34.7566 30.7432 34.0222C30.7432 33.2878 31.6661 32.6932 32.8045 32.6932C33.9429 32.6932 34.8652 33.2878 34.8652 34.0222Z" fill="#F8A185"/>
<path d="M74.5078 14.262C73.2799 14.877 72.9291 16.3677 73.122 17.7018C73.4022 19.8069 75.2095 20.545 76.9819 20.2815C78.1756 20.1234 79.6845 19.1407 80.1242 18.8954C82.5626 19.3338 84.1777 23.5635 79.6845 25.6692C77.8423 26.5287 74.7713 26.4423 72.7879 25.9146C69.7344 25.1247 67.839 23.1762 66.9626 20.2288C66.3825 18.1581 66.3301 16.0523 67.0325 14.0157C67.8215 11.6822 69.7344 9.92738 71.5781 9.10254C73.9117 8.04937 78.0708 7.6636 81.8085 9.82249C82.7038 13.1736 79.5797 14.9466 77.2629 14.0157C76.2278 13.7356 75.3682 13.8235 74.5078 14.262Z" fill="#CC7F1F"/>
<path d="M94.9732 14.3848C94.3407 14.4206 93.9032 14.4548 93.8319 14.4548C93.9556 17.7018 93.8144 23.1595 93.481 25.5643C91.9547 27.1964 88.0408 26.5996 87.2686 22.5809C87.0931 21.5974 86.9352 17.7541 86.9701 14.4548C85.7946 14.5253 84.4786 14.5429 83.3198 14.3325C82.1792 12.8759 82.4245 8.78676 85.8121 8.57567C88.0765 8.45339 95.5693 8.54146 97.5877 8.52326C98.5354 9.752 98.9918 14.1389 94.9732 14.3848Z" fill="#CC7F1F"/>
<path d="M105.468 16.0701C105.54 15.9287 105.626 15.8056 105.697 15.6833C106.977 13.3672 108.54 10.5069 109.365 9.10257C111.347 7.94459 115.701 8.08507 115.928 11.7173C116.104 14.5602 115.876 22.2823 115.701 25.4233C112.682 27.3886 109.627 25.9669 109.488 23.3C109.435 22.23 109.505 21.6156 109.576 19.4393L109.435 19.4217C109.365 19.5266 109.294 19.6148 109.224 19.7376C108.821 20.3688 106.382 24.5985 105.767 25.5811C102.889 27.4415 99.5019 25.8978 99.0812 22.3873C98.7478 19.5621 98.8876 11.3141 98.9756 9.40107C100.819 7.41833 105.118 8.45337 105.364 10.9456C105.556 12.9285 105.398 13.5776 105.398 16.0342L105.468 16.0701Z" fill="#CC7F1F"/>
<path d="M133.936 24.0016C133.27 26.3182 128.091 27.6518 127.215 23.6158C126.442 19.9655 125.811 16.1746 125.547 14.1047C125.495 14.1047 125.442 14.1047 125.372 14.1047C125.038 15.5255 124.705 16.9468 124.372 18.4216C123.775 20.9655 123.056 24.8969 122.792 25.8446C118.335 27.4772 116.264 24.6515 117.053 20.545C117.755 16.9118 119.756 11.0154 120.915 8.75172C123.423 7.9445 128.828 6.80319 130.9 11.8227C131.883 14.2093 133.234 20.2288 133.936 24.0016Z" fill="#CC7F1F"/>
<path d="M144.046 19.7027C144.046 19.018 143.801 18.6495 143.274 18.544C142.853 18.4741 142.397 18.4917 141.958 18.4917C141.888 18.4917 141.765 18.6313 141.765 18.7027C141.747 19.3171 141.747 19.807 141.747 20.5451C142.906 21.2466 144.046 20.4402 144.046 19.7027ZM147.538 14.7358C151.048 17.3686 150.365 23.124 147.574 25.0025C144.065 27.371 136.659 26.2834 135.132 24.8089C134.57 22.6864 134.746 10.7688 135.044 9.2081C137.501 7.27717 141.151 8.52331 141.291 10.5766C141.414 12.4028 141.343 13.3317 141.343 13.6482L141.361 13.6826L141.431 13.7181L141.466 13.7008C141.73 13.5427 144.888 12.7364 147.538 14.7358Z" fill="#CC7F1F"/>
<path d="M161.194 14.596C161.247 12.6299 161.212 10.1906 161.37 9.243C163.529 7.52309 167.811 8.61127 167.811 11.9632C167.811 13.718 167.811 19.317 167.793 23.7738C167.793 24.388 167.775 25.231 167.74 25.6333C166.951 26.5114 161.72 27.1437 161.317 23.9493C161.194 23.0371 161.159 21.0187 161.159 20.2638C160.036 20.2638 159.036 20.2638 157.877 20.2638C157.877 21.984 157.877 23.8262 157.877 25.6524C156.912 26.5287 151.665 27.494 151.367 23.1762C151.225 21.2465 151.016 12.7004 151.225 9.50598C153.56 7.57623 157.508 8.5414 157.773 11.2083C157.93 12.753 157.825 14.4206 157.825 14.596C158.984 14.596 160.071 14.596 161.194 14.596Z" fill="#CC7F1F"/>
<path d="M185.836 9.2248C185.255 11.3663 185.467 20.8964 185.765 22.4577C186.521 26.4232 190.38 26.9851 191.837 25.3883C192.259 22.4403 192.364 14.1047 192.031 11.9981C191.381 7.78585 187.45 7.78585 185.836 9.2248ZM178.483 19.8425C178.483 19.1583 178.237 18.7725 177.693 18.6844C177.271 18.5963 176.832 18.6145 176.394 18.6145C176.324 18.6145 176.184 18.7549 176.184 18.8248C176.165 19.4393 176.184 19.9306 176.184 20.6679C177.324 21.3696 178.483 20.5623 178.483 19.8425ZM181.975 14.8587C185.484 17.4913 184.8 23.2643 182.009 25.1247C178.483 27.494 171.094 26.4232 169.567 24.932C168.989 22.8086 169.181 10.8924 169.479 9.33114C171.937 7.40008 175.57 8.64621 175.709 10.6996C175.832 12.5249 175.78 13.4721 175.78 13.7712L175.797 13.8062L175.867 13.8403H175.903C176.148 13.6657 179.307 12.8758 181.975 14.8587Z" fill="#CC7F1F"/>
<path d="M206.686 1.32815C208.335 1.50429 209.511 4.11885 207.756 5.7675C205.809 7.62869 201.439 8.12 197.367 7.24291C196.209 5.92617 196.472 3.01246 199.245 3.04813C201.387 3.04813 204.106 3.52125 206.686 1.32815ZM200.701 16.0701C200.789 15.9287 200.86 15.8056 200.93 15.6833C202.211 13.3672 203.773 10.5069 204.598 9.10257C206.58 7.94459 210.934 8.08507 211.179 11.7173C211.354 14.5602 211.108 22.2823 210.95 25.4233C207.914 27.3886 204.86 25.9669 204.738 23.3C204.686 22.23 204.755 21.6156 204.809 19.4393L204.686 19.4217C204.598 19.5266 204.527 19.6148 204.457 19.7376C204.054 20.3688 201.631 24.5985 201 25.5811C198.122 27.4415 194.735 25.8978 194.314 22.3873C193.997 19.5621 194.12 11.3141 194.208 9.40107C196.051 7.41833 200.351 8.45337 200.596 10.9456C200.789 12.9285 200.631 13.5776 200.631 16.0342L200.701 16.0701Z" fill="#CC7F1F"/>
<path d="M78.4703 33.8368C77.2948 33.5906 76.6273 32.8365 76.505 31.6953C76.4694 31.2398 76.4876 30.7302 76.5749 30.2568C76.6987 29.3618 77.2598 28.7482 78.1544 28.5014C78.7869 28.256 79.418 28.2204 80.1029 28.3959C81.419 28.6774 82.2436 29.8004 82.1039 31.1689C82.1039 31.5897 82.0151 31.9944 81.8753 32.362C81.4895 33.3802 80.5768 33.9772 79.3299 33.9772C79.0322 33.9246 78.7513 33.9073 78.4703 33.8368ZM71.0117 33.8368C69.8536 33.5906 69.2211 32.8365 69.0646 31.6953C69.0115 31.2398 69.0464 30.7302 69.117 30.2568C69.275 29.3618 69.8537 28.7482 70.7315 28.5014C71.364 28.256 71.9951 28.2204 72.6436 28.3959C73.9953 28.6774 74.8375 29.8004 74.6977 31.1689C74.6446 31.5897 74.5922 31.9944 74.4691 32.362C74.0834 33.3802 73.1182 33.9772 71.907 33.9772C71.6093 33.9246 71.2759 33.9073 71.0117 33.8368ZM68.9234 35.17C71.8895 34.8891 78.5758 34.9599 81.7174 35.2058C82.3841 36.1185 82.8405 40.5222 78.5759 40.5222C77.5925 40.5222 77.2074 40.5222 74.9255 40.5222C74.9255 40.7864 74.9255 41.1025 74.9255 41.4176C75.9438 41.4176 78.8743 41.2422 80.3832 41.7508C81.4189 44.1027 80.6117 46.1567 78.0139 46.2617C77.1019 46.3321 76.5931 46.2617 74.9255 46.2617C74.9255 46.6657 74.9255 46.999 74.9255 47.3489C75.0311 47.3489 75.2065 47.3489 75.3288 47.3489C77.2424 47.3489 79.1203 47.3489 81.0332 47.3489C82.3841 49.2451 81.9103 52.3161 78.5402 52.7543C77.1019 52.9829 72.4158 53.0011 71.1697 52.6494C69.5021 52.2639 68.7837 51.0526 68.6257 48.6483C68.4852 46.2258 68.5376 38.172 68.9234 35.17Z" fill="#CC7F1F"/>
<path d="M106.657 50.07C106.516 52.5615 102.304 54.8077 100.216 50.8414C99.795 50.07 99.1108 48.4197 98.4965 46.9634C98.4251 48.9287 98.2854 50.789 98.1274 51.9304C96.6178 53.5441 92.7222 52.9297 91.9856 48.9119C91.8975 48.4905 91.8276 47.5252 91.792 46.2966C90.8435 48.5079 89.4227 51.8066 89.0893 52.5797C84.246 53.7725 83.5611 50.2627 83.9825 48.7706C84.5095 46.9634 85.5446 45.6123 86.1414 44.3669C86.2113 44.225 86.1756 43.9796 86.1065 43.84C85.1231 41.7866 84.123 39.7326 83.1396 37.6798C83.5269 35.2058 88.0361 34.0305 89.2822 36.3812C90.1768 38.0656 91.0903 40.2072 91.7395 41.839C91.757 39.365 91.88 36.9957 92.1428 36.0304C93.8104 34.5732 97.7941 34.5914 98.4251 38.8905C98.4965 39.4173 98.5489 40.2777 98.5663 41.3303C99.391 39.4705 100.532 37.0657 101.725 35.1527C103.902 34.3637 107.288 36.048 106.148 39.3473C105.639 40.839 104.814 42.0144 103.936 43.8224C103.866 43.9797 103.831 44.2083 103.902 44.3487C104.48 45.6123 105.973 48.3151 106.657 50.07Z" fill="#CC7F1F"/>
<path d="M131.356 43.5626C131.356 48.5182 127.338 52.5345 122.383 52.5345C117.428 52.5345 113.411 48.5182 113.411 43.5626C113.411 38.6079 117.428 34.5909 122.383 34.5909C127.338 34.5909 131.356 38.6079 131.356 43.5626Z" fill="#CC7F1F"/>
<path d="M157.984 43.5626C157.984 48.5182 153.966 52.5345 149.011 52.5345C144.056 52.5345 140.039 48.5182 140.039 43.5626C140.039 38.6079 144.056 34.5909 149.011 34.5909C153.966 34.5909 157.984 38.6079 157.984 43.5626Z" fill="#CC7F1F"/>
<path d="M184.611 43.5626C184.611 48.5182 180.594 52.5345 175.639 52.5345C170.684 52.5345 166.667 48.5182 166.667 43.5626C166.667 38.6079 170.684 34.5909 175.639 34.5909C180.594 34.5909 184.611 38.6079 184.611 43.5626Z" fill="#CC7F1F"/>
<path d="M211.24 43.5626C211.24 48.5182 207.222 52.5345 202.267 52.5345C197.313 52.5345 193.296 48.5182 193.296 43.5626C193.296 38.6079 197.313 34.5909 202.267 34.5909C207.222 34.5909 211.24 38.6079 211.24 43.5626Z" fill="#CC7F1F"/>
</svg>
