<svg width="337" height="412" viewBox="0 0 337 412" fill="none" xmlns="http://www.w3.org/2000/svg">
<path d="M287.029 50.3521C290.126 46.1589 296.113 45.3665 300.204 48.6849C301.046 49.369 301.738 50.1782 302.271 51.0691C303.658 53.384 305.434 55.4422 307.604 57.0447L308.189 57.478C310.424 59.1288 312.967 60.3102 315.666 60.9738C316.941 61.2854 318.174 61.882 319.27 62.7707C322.925 65.7382 323.727 71.0805 321.105 74.9907C319.377 77.5687 316.6 78.9768 313.752 79.0661C309.659 79.1909 305.731 80.7252 302.526 83.2732C298.805 86.2352 293.577 88.39 288.075 84.326C282.63 80.3023 283.166 74.6543 284.892 70.2083C286.389 66.3579 286.577 62.1295 285.532 58.1332C284.854 55.5404 285.312 52.6744 287.029 50.3521Z" fill="#E5922A"/>
<path d="M304.226 88.1647C307.019 84.3845 311.808 83.1842 314.922 85.4846C318.035 87.7851 318.295 92.7146 315.501 96.4947C312.708 100.277 307.919 101.477 304.806 99.1769C301.692 96.8765 301.432 91.9448 304.226 88.1647Z" fill="#E5922A"/>
<path d="M282.612 95.2304C285.406 91.4503 290.194 90.2499 293.308 92.5504C296.422 94.8508 296.681 99.7803 293.888 103.56C291.095 107.343 286.306 108.541 283.192 106.24C280.078 103.94 279.819 99.0106 282.612 95.2304Z" fill="#E5922A"/>
<path d="M279.661 70.0165C282.454 66.2342 282.194 61.3048 279.081 59.0043C275.967 56.7039 271.178 57.9042 268.385 61.6843C265.592 65.4667 265.851 70.3961 268.965 72.6965C272.078 74.997 276.867 73.7967 279.661 70.0165Z" fill="#E5922A"/>
<path d="M279.257 92.7504C282.051 88.9702 281.791 84.0408 278.677 81.7403C275.563 79.4399 270.775 80.6402 267.981 84.4204C265.188 88.2005 265.448 93.13 268.561 95.4304C271.675 97.7309 276.464 96.5327 279.257 92.7504Z" fill="#E5922A"/>
<path d="M220.844 139.168C225.075 136.122 231.017 137.198 233.898 141.609C234.49 142.518 234.901 143.499 235.136 144.511C235.749 147.139 236.811 149.641 238.387 151.831L238.812 152.422C240.434 154.677 242.495 156.58 244.861 158.037C245.98 158.723 246.971 159.668 247.743 160.85C250.316 164.792 249.446 170.124 245.754 173.046C243.32 174.972 240.246 175.463 237.507 174.677C233.572 173.545 229.363 173.804 225.533 175.251C221.084 176.933 215.447 177.386 211.451 171.834C207.498 166.338 209.735 161.125 212.738 157.419C215.34 154.211 216.813 150.243 217.039 146.118C217.186 143.442 218.499 140.854 220.844 139.168Z" fill="#F4AD54"/>
<path d="M225.655 180.427C229.47 177.682 234.396 178.004 236.658 181.146C238.919 184.288 237.659 189.061 233.843 191.806C230.027 194.553 225.101 194.232 222.84 191.089C220.578 187.947 221.839 183.172 225.655 180.427Z" fill="#F4AD54"/>
<path d="M202.916 180.546C206.732 177.801 211.658 178.122 213.919 181.265C216.181 184.407 214.92 189.18 211.105 191.925C207.289 194.67 202.363 194.348 200.102 191.206C197.841 188.064 199.101 183.291 202.916 180.546Z" fill="#F4AD54"/>
<path d="M207.815 155.637C211.631 152.89 212.891 148.117 210.63 144.975C208.369 141.832 203.443 141.511 199.627 144.256C195.811 147.003 194.551 151.776 196.812 154.918C199.073 158.061 204 158.382 207.815 155.637Z" fill="#F4AD54"/>
<path d="M200.479 177.158C204.295 174.414 205.555 169.641 203.293 166.498C201.032 163.356 196.106 163.035 192.29 165.78C188.475 168.525 187.215 173.297 189.476 176.44C191.737 179.582 196.663 179.906 200.479 177.158Z" fill="#F4AD54"/>
<path d="M130.385 194.96C135.356 193.396 140.662 196.28 142.014 201.372C142.292 202.42 142.375 203.482 142.281 204.516C142.038 207.204 142.262 209.913 143.073 212.487L143.29 213.18C144.124 215.831 145.484 218.284 147.274 220.407C148.121 221.414 148.766 222.618 149.128 223.984C150.335 228.536 147.838 233.324 143.417 234.94C140.501 236.007 137.428 235.51 135.073 233.904C131.69 231.596 127.612 230.521 123.522 230.694C118.77 230.896 113.276 229.559 111.224 223.034C109.191 216.575 112.951 212.327 116.965 209.75C120.442 207.52 123.085 204.214 124.592 200.368C125.572 197.873 127.629 195.828 130.385 194.96Z" fill="#F4AD54"/>
<path d="M122.015 235.648C126.499 234.238 131.075 236.087 132.238 239.78C133.399 243.473 130.706 247.611 126.222 249.021C121.738 250.432 117.16 248.582 115.999 244.889C114.838 241.196 117.531 237.059 122.015 235.648Z" fill="#F4AD54"/>
<path d="M100.387 228.63C104.871 227.219 109.447 229.069 110.61 232.762C111.771 236.455 109.078 240.592 104.594 242.003C100.11 243.413 95.5319 241.563 94.3711 237.871C93.2082 234.178 95.9034 230.04 100.387 228.63Z" fill="#F4AD54"/>
<path d="M112.85 206.514C117.334 205.103 120.027 200.966 118.866 197.273C117.703 193.58 113.127 191.73 108.643 193.141C104.157 194.551 101.464 198.689 102.627 202.382C103.788 206.074 108.366 207.924 112.85 206.514Z" fill="#F4AD54"/>
<path d="M99.1349 224.65C103.619 223.239 106.312 219.102 105.151 215.409C103.988 211.716 99.4124 209.866 94.9284 211.277C90.4444 212.687 87.7492 216.825 88.9121 220.518C90.0729 224.21 94.6509 226.06 99.1349 224.65Z" fill="#F4AD54"/>
<path d="M42.6206 304.117C45.8284 299.82 51.9349 298.707 56.0628 301.75C56.9101 302.376 57.605 303.133 58.1359 303.981C59.5202 306.184 61.3032 308.11 63.4956 309.568L64.0859 309.961C66.3414 311.464 68.9198 312.485 71.6578 312.988C72.9556 313.224 74.2027 313.742 75.3099 314.558C78.9951 317.278 79.7452 322.489 77.0256 326.483C75.2333 329.116 72.3877 330.654 69.4844 330.899C65.3161 331.249 61.2947 332.977 57.9973 335.663C54.1707 338.781 48.8195 341.191 43.2651 337.493C37.7675 333.837 38.3828 328.248 40.1973 323.778C41.7691 319.905 42.0144 315.732 40.9984 311.857C40.3409 309.342 40.8426 306.5 42.6206 304.117Z" fill="#F4AD54"/>
<path d="M60.326 341.152C63.2019 337.296 68.0694 335.857 71.1967 337.938C74.3239 340.019 74.5247 344.832 71.6472 348.69C68.768 352.547 63.9022 353.984 60.7749 351.903C57.6493 349.823 57.4469 345.009 60.326 341.152Z" fill="#F4AD54"/>
<path d="M38.8779 348.704C41.7562 344.848 46.622 343.411 49.7497 345.49C52.8757 347.57 53.0774 352.386 50.1991 356.242C47.3223 360.099 42.4548 361.539 39.3272 359.456C36.2012 357.376 35.9994 352.563 38.8779 348.704Z" fill="#F4AD54"/>
<path d="M35.2181 323.025C38.0957 319.17 37.895 314.355 34.7687 312.274C31.6423 310.193 26.7747 311.632 23.897 315.487C21.0193 319.345 21.2216 324.159 24.3463 326.241C27.4727 328.322 32.342 326.881 35.2181 323.025Z" fill="#F4AD54"/>
<path d="M35.327 345.762C38.2041 341.905 38.0028 337.093 34.8781 335.011C31.7499 332.928 26.884 334.368 24.0069 338.225C21.1265 342.081 21.3294 346.896 24.4559 348.976C27.5807 351.058 32.45 349.618 35.327 345.762Z" fill="#F4AD54"/>
</svg>
