<svg width="220" height="280" viewBox="0 0 220 280" fill="none" xmlns="http://www.w3.org/2000/svg">
<g clip-path="url(#clip0_69_3225)">
<path d="M69.8375 180.544C75.6512 192.025 84.2707 205.611 99.3144 206.03C114.358 206.449 137.874 204.468 142.706 212.578C147.579 220.662 138.645 234.188 133.012 238.7C127.371 243.247 106.658 230.557 100.774 227.858C94.8895 225.16 68.4491 221.79 57.849 223.026C47.3245 224.243 69.8375 180.544 69.8375 180.544Z" fill="#424259"/>
<path d="M98.3578 227.022C98.4721 226.834 98.5864 226.645 98.7008 226.457C101.211 222.485 103.481 218.316 105.419 214.036C106.405 211.9 107.289 209.74 108.079 207.524C108.256 207.063 108.44 206.568 108.582 206.1C105.296 206.103 102.154 206.104 99.3146 206.03C84.237 205.603 75.6515 192.025 69.8378 180.544C69.8378 180.544 47.2908 224.236 57.8909 223C67.3797 221.94 89.6059 224.53 98.3578 227.022Z" fill="#29293A"/>
<path d="M12.4616 227.29C12.4616 227.29 5.57907 217.211 9.68967 199.619C13.8003 182.027 30.7834 155.095 33.2769 141.785C35.1633 131.77 28.0371 114.446 32.7215 106.57C37.3797 98.6528 72.0859 109.162 81.1927 111.664C90.2995 114.165 67.3856 138.602 67.315 147.385C67.2443 156.168 92.385 188 79.4321 223.109C70.0832 248.344 12.4616 227.29 12.4616 227.29Z" fill="#424259"/>
<path d="M70.4589 117.877C67.5587 125.443 54.1023 133.112 53.5814 141.363C53.7612 147.162 60.9395 160.492 63.1598 168.151C68.0853 190.124 58.1943 213.662 47.0273 234.334C52.3979 234.268 66.2719 234.493 69.8272 232.834C100.503 218.533 68.2853 151.433 67.3142 147.385C67.3848 138.602 90.2987 114.165 81.1919 111.664C78.0318 110.801 68.6253 113.382 64.8329 107.297C67.8206 112.054 71.8688 114.192 70.4589 117.877Z" fill="#29293A"/>
<path d="M18.25 243.272C12.6458 236.99 5.67087 219.629 9.47322 210.765C13.2756 201.902 74.7644 213.963 80.7308 216.144C82.8332 217.731 77.0278 242.771 67.5841 248.025C54.6744 255.174 24.5033 250.311 18.25 243.272Z" fill="#C69BD0"/>
<path d="M48.6042 249.214C55.6108 249.02 62.7569 250.253 67.558 247.984C77.327 243.339 82.7995 217.723 80.7048 216.102C78.824 215.423 65.4592 215.315 56.2006 213.637C55.4213 222.867 51.6011 244.674 48.6042 249.214Z" fill="#AC7FB7"/>
<path d="M22.2085 241.884C22.2085 241.884 12.6992 227.344 14.1688 219.631C15.6046 211.91 24.0198 212.43 29.5514 214.011C35.1247 215.565 36.3919 245.612 35.5946 247.076C34.805 248.506 22.2085 241.884 22.2085 241.884Z" fill="#D3B5DA"/>
<path d="M15.264 199.6C14.2772 193.581 32.1084 160.726 35.3194 152.265C38.4965 143.795 40.1611 137.736 38.7472 131.083C37.3333 124.431 33.4794 110.928 37.4713 109.547C41.4631 108.166 51.9821 105.875 52.5647 113.983C53.1813 122.1 43.8002 135.238 43.7094 144.266C43.6185 153.295 39.8929 193.044 35.8156 197.624C31.78 202.178 15.264 199.6 15.264 199.6Z" fill="#65657C"/>
<path d="M105.786 225.601C106.933 227.937 128.637 235.487 131.249 234.364C133.861 233.242 138.114 228.988 138.22 225.542C138.326 222.097 123.881 221.242 117.945 221.751C111.976 222.252 104.606 223.258 105.786 225.601Z" fill="#65657C"/>
<path d="M190.209 51.8462C190.35 52.9513 189.612 53.9994 188.501 54.1757C171.334 57.2796 160.4 65.1638 158.434 75.8403C157.029 83.4253 160.8 91.3298 167.806 95.535C185.118 105.913 193.483 114.183 194.584 122.052C194.664 122.643 194.702 123.26 194.707 123.869C194.682 132.447 185.878 138.814 176.349 144.442C159.895 154.146 163.067 160.448 168.862 171.853C173.663 181.351 179.652 193.159 175.557 210.683C170.812 231.064 143.323 226.811 117.918 221.244C116.797 220.989 116.082 219.896 116.345 218.74C116.601 217.618 117.692 216.901 118.846 217.163C142.282 222.282 167.631 226.37 171.525 209.73C175.28 193.702 169.66 182.622 165.184 173.735C159.423 162.337 154.446 152.513 174.281 140.824C185.67 134.081 190.532 129.035 190.567 123.857C190.607 117.249 182.449 109.168 165.701 99.1337C157.217 94.0553 152.666 84.3995 154.356 75.091C155.449 69.1878 160.871 54.9342 187.791 50.0796C188.943 49.877 190.023 50.6235 190.225 51.7781C190.225 51.7781 190.217 51.8122 190.209 51.8462Z" fill="#424259"/>
<path d="M199.58 43.9281C200.094 43.8662 210.75 40.0318 211.752 37.8275C212.164 36.9557 212.827 35.9262 210.526 35.3668C207.826 34.6808 197.142 41.6205 197.142 41.6205L199.58 43.9281Z" fill="#29293A"/>
<path d="M202.215 51.1804C202.215 51.1804 214.671 46.9687 216.323 48.0242C217.076 48.4817 217.908 49.5296 216.324 50.5283C214.407 51.7373 209.736 52.9635 207.749 53.6917C204.12 55.0476 201.683 55.2442 201.683 55.2442L202.215 51.1804Z" fill="#29293A"/>
<path d="M206.787 54.9391C206.787 54.9391 192.563 61.431 186.321 57.7929C181.747 55.1424 179.969 46.7973 185.707 42.4517C191.444 38.1061 197.425 35.6757 200.095 34.9242C202.705 34.1233 209.174 49.4732 206.787 54.9391Z" fill="#29293A"/>
<path d="M209.163 58.3055C209.163 58.3055 195.801 62.4184 189.082 59.7805C183.376 57.5521 182.344 50.1637 188.09 45.7841C193.827 41.4385 199.808 39.0081 202.478 38.2566C205.115 37.4974 211.591 52.8133 209.163 58.3055Z" fill="#424259"/>
<path d="M189.579 43.4761C189.595 44.6601 200.975 41.0977 203.69 44.5413C206.406 47.9849 208.309 54.9993 208.631 54.6793C208.988 54.367 208.736 48.7298 205.858 43.1747C202.98 37.6197 201.045 35.9273 201.045 35.9273C201.045 35.9273 189.543 41.7511 189.579 43.4761Z" fill="#29293A"/>
<path d="M201.457 57.8039C201.457 57.8039 192.794 59.9455 190.416 58.9395C188.038 57.9334 185.328 56.3509 186.817 54.8297C188.305 53.3086 201.902 50.3581 203.931 50.8556C205.96 51.3531 207.855 56.3627 201.457 57.8039Z" fill="#65657C"/>
</g>
<defs>
<clipPath id="clip0_69_3225">
<rect width="248.387" height="169.027" fill="white" transform="translate(0 242.195) rotate(-77.1795)"/>
</clipPath>
</defs>
</svg>
