<svg width="187" height="277" viewBox="0 0 187 277" fill="none" xmlns="http://www.w3.org/2000/svg">
<path d="M77.5066 146.645C68.3762 134.621 5.70306 50.9545 9.8539 36.9738C10.5053 34.7151 26.9796 23.7645 34.3714 21.0798C45.1594 14.0383 56.1683 7.33564 58.6692 7.55892C63.9026 7.96077 65.8818 12.2117 61.9751 15.6076C57.9513 18.6165 46.6869 25.3121 36.3627 31.3176C36.4334 33.3662 36.6973 35.8296 37.182 38.6317C49.2525 30.5515 64.2021 21.0679 67.1383 21.2777C72.1438 21.5964 74.0023 25.5882 70.151 28.8321C65.422 32.3586 50.5976 41.0271 39.4163 47.4948C40.026 49.4817 40.76 51.6 41.6942 53.8774C53.8443 45.6972 71.9015 33.9465 75.0451 34.0598C79.8227 34.2954 81.5605 38.0279 77.8648 41.1995C72.797 44.9468 55.84 54.8606 44.8419 61.1798C45.7108 63.0461 46.6799 64.9919 47.673 66.9895C59.2771 59.1266 79.2666 45.9716 82.4862 46.1126C87.0876 46.2409 88.6771 49.7902 85.1128 52.8375C79.8895 56.6572 61.581 67.3264 51.1013 73.4043C52.1016 75.1463 53.1261 76.9401 54.2265 78.7617C65.2049 71.3162 86.2143 57.371 89.5134 57.4119C93.911 57.509 95.4558 60.8268 91.9468 63.7221C86.6717 67.566 67.634 78.7008 57.7281 84.3854C57.8764 84.5686 57.973 84.776 58.1214 84.9592C59.077 86.4697 60.0326 87.9802 60.9918 89.3629C71.3445 82.3349 92.8758 68.0205 96.1508 68.0095C100.397 68.0512 101.793 71.1858 98.3876 74.0329C93.1125 77.8767 73.8674 89.1081 64.4799 94.5513C65.6116 96.1691 66.695 97.6831 67.8061 99.1212C77.6887 92.4383 99.1441 78.0962 102.343 78.0575C106.437 78.0438 107.761 81.0228 104.411 83.718C99.2672 87.4376 80.4368 98.4759 71.3362 103.722C72.5233 105.188 73.6103 106.574 74.725 107.885C84.4243 101.35 105.071 87.5739 108.142 87.5317C112.084 87.4626 113.335 90.2861 110.089 92.933C105.181 96.48 87.4423 106.884 78.4695 112.134C79.712 113.448 80.8544 114.682 82.0004 115.788C91.6998 109.254 110.856 96.6128 113.7 96.4875C117.489 96.3629 118.669 99.0309 115.526 101.63C110.956 104.956 95.0636 114.311 86.039 119.585C87.3369 120.747 88.5866 121.805 89.7638 122.708C99.5669 116.125 116.4 105.133 118.988 105.001C122.702 104.849 123.809 107.361 120.694 109.884C116.57 112.813 103.249 120.782 94.2761 126.032C95.8332 127.073 97.1418 127.851 98.2744 128.522C107.97 122.116 121.676 113.211 123.956 113.096C127.518 112.888 128.576 115.297 125.541 117.72C121.624 120.552 105.92 132.343 97.206 137.472C98.9397 157.86 168.988 249.51 157.02 255.776C153.384 256.775 84.3676 158.4 77.5066 146.645Z" fill="#A86716"/>
<path d="M157.181 256.395C151.308 260.58 67.7026 142.252 64.3245 137.706C45.4879 112.288 1.69496 51.559 5.32219 39.8406C5.97363 37.5819 22.4479 26.6313 29.8397 23.9466C40.6277 16.9052 51.6365 10.2024 54.1375 10.4257C59.2949 10.7999 61.3018 14.9748 57.3192 18.343C53.2954 21.352 42.0309 28.0475 31.7067 34.053C31.7775 36.1017 31.9412 38.4855 32.4777 41.2635C44.5724 33.2351 59.4978 23.6996 62.4099 23.8576C67.3912 24.1245 69.2015 28.0125 65.3744 31.3084C60.6454 34.8348 45.8209 43.5034 34.6396 49.971C35.2493 51.9579 35.9592 54.0244 36.8174 56.2741C48.9675 48.0938 67.0247 36.3432 70.1684 36.4565C74.9218 36.6403 76.6355 40.3209 72.9156 43.4407C67.8478 47.188 50.8908 57.1017 39.8927 63.421C40.7375 65.2354 41.6306 67.1535 42.6756 69.127C54.2796 61.264 74.2692 48.109 77.4646 48.1982C82.0661 48.3266 83.6073 51.7722 79.9669 54.7918C74.7436 58.6115 56.4352 69.2806 45.9555 75.3585C46.9317 77.0487 47.932 78.7907 48.9806 80.6364C59.9589 73.1909 80.9683 59.2457 84.2674 59.2866C88.6409 59.3318 90.1616 62.5978 86.6008 65.5173C81.2738 69.3853 62.2879 80.496 52.382 86.1806C52.5304 86.3638 52.6269 86.5711 52.7235 86.7785C53.6791 88.289 54.5864 89.6958 55.5456 91.0785C65.8983 84.0505 87.4815 69.712 90.7046 69.7251C94.9262 69.715 96.2984 72.7977 92.869 75.593C87.5939 79.4368 68.3488 90.6682 58.9613 96.1114C60.0688 97.6773 61.1523 99.1914 62.1874 100.602C72.07 93.9188 93.5495 79.6286 96.7244 79.5381C100.794 79.4725 102.094 82.3997 98.7439 85.0949C93.6002 88.8144 74.7698 99.8528 65.6692 105.099C66.8322 106.513 67.9192 107.9 69.0097 109.158C78.7091 102.623 99.3797 88.8989 102.427 88.8049C106.344 88.6839 107.572 91.4556 104.326 94.1025C99.417 97.6495 81.6788 108.053 72.706 113.303C73.8725 114.589 75.0668 115.8 76.2127 116.906C85.9121 110.371 105.069 97.7305 107.912 97.6051C111.702 97.4806 112.857 100.097 109.69 102.644C105.096 105.918 89.2277 115.325 80.2031 120.599C81.501 121.761 82.7265 122.767 83.9037 123.67C93.7068 117.087 110.54 106.095 113.128 105.963C116.818 105.759 117.873 108.296 114.786 110.742C110.662 113.672 97.3405 121.64 88.3677 126.89C89.9007 127.88 91.2093 128.658 92.3177 129.277C102.014 122.871 115.719 113.966 117.999 113.851C121.561 113.643 122.595 116 119.56 118.422C115.619 121.203 99.0342 132.458 91.7749 137.73C93.3602 157.934 163.078 252.261 157.181 256.395Z" fill="#E5922A"/>
</svg>
