<svg width="50" height="51" viewBox="0 0 50 51" fill="none" xmlns="http://www.w3.org/2000/svg">
<circle cx="25" cy="25.9414" r="25" fill="white"/>
<path d="M26.1517 13.4414C19.3135 13.4414 13.7524 19.0465 13.75 25.9359C13.7466 28.2885 14.4037 30.5939 15.6452 32.5858L15.9401 33.0585L14.6876 37.6692L19.3796 36.4288L19.8327 36.6994C21.7356 37.838 23.9174 38.4402 26.1424 38.4414H26.1471C32.98 38.4414 38.5411 32.8358 38.5437 25.9459C38.5489 24.3038 38.2309 22.6769 37.6082 21.1594C36.9855 19.642 36.0705 18.2642 34.9161 17.1058C33.7681 15.941 32.4024 15.0174 30.898 14.3884C29.3935 13.7594 27.7803 13.4376 26.1517 13.4414Z" fill="#CA6B1B"/>
<path fill-rule="evenodd" clip-rule="evenodd" d="M22.4193 19.6501C22.14 19.0245 21.846 19.0118 21.5807 19.001L20.8663 18.9922C20.6178 18.9922 20.214 19.0862 19.8726 19.4623C19.5312 19.8384 18.5681 20.7473 18.5681 22.596C18.5681 24.4447 19.9036 26.2311 20.0897 26.4821C20.2758 26.7331 22.6678 30.6478 26.456 32.154C29.6039 33.4057 30.2445 33.1567 30.9281 33.0942C31.6116 33.0316 33.133 32.1853 33.4433 31.3078C33.7537 30.4304 33.7539 29.6786 33.6609 29.5214C33.5678 29.3642 33.3193 29.2708 32.9463 29.0828C32.5733 28.8948 30.7414 27.9858 30.3998 27.8603C30.0582 27.7348 29.8099 27.6725 29.5612 28.0486C29.3124 28.4247 28.5991 29.2706 28.3816 29.5214C28.164 29.7722 27.9469 29.8037 27.5739 29.6159C27.2009 29.428 26.0009 29.0311 24.577 27.751C23.4692 26.755 22.7213 25.525 22.5036 25.1491C22.2859 24.7732 22.4805 24.5696 22.6674 24.3824C22.8347 24.214 23.04 23.9436 23.2267 23.7243C23.4134 23.505 23.4748 23.3482 23.5989 23.0978C23.723 22.8474 23.6611 22.6275 23.5679 22.4397C23.4746 22.2518 22.7505 20.3933 22.4193 19.6501Z" fill="white"/>
</svg>
